  0
SECTION
  2
HEADER
  9
$ACADVER
  1
AC1009
  9
$EXTMIN
 10
0.0
 20
0.0
 30
0.0
  9
$EXTMAX
 10
1000.0
 20
1000.0
 30
0.0
  9
$FILLMODE
 70
 0
  9
$SPLFRAME
 70
 1
  0
ENDSEC
  0
SECTION
  2
TABLES
  0
TABLE
  2
LAYER
 70
1
  0
LAYER
  2
0
 70
     0
 62
     7
  6
CONTINUOUS
  0
ENDTAB
  0
ENDSEC
  0
SECTION
  2
ENTITIES
  0
POLYLINE
  8
0
 62
     250
 66
     1
 10
0
 20
0
 30
0.0
 70
     1
 40
1.236
 41
1.236
  0
VERTEX
  8
0
 10
6.77046
 20
10.0853
 30
0.0
 40
0.0171667
 41
0.0171667
  0
VERTEX
  8
0
 10
6.75364
 20
10.1065
 30
0.0
 40
0.0171667
 41
0.0171667
  0
VERTEX
  8
0
 10
6.6971
 20
10.1652
 30
0.0
 40
0.0171667
 41
0.0171667
  0
VERTEX
  8
0
 10
6.62304
 20
10.2238
 30
0.0
 40
0.0171667
 41
0.0171667
  0
VERTEX
  8
0
 10
6.54964
 20
10.2643
 30
0.0
 40
0.0171667
 41
0.0171667
  0
VERTEX
  8
0
 10
6.47835
 20
10.2897
 30
0.0
 40
0.0171667
 41
0.0171667
  0
VERTEX
  8
0
 10
6.4106
 20
10.3029
 30
0.0
 40
0.0171667
 41
0.0171667
  0
VERTEX
  8
0
 10
6.34776
 20
10.3071
 30
0.0
 40
0.0171667
 41
0.0171667
  0
VERTEX
  8
0
 10
6.29129
 20
10.3053
 30
0.0
 40
0.0171667
 41
0.0171667
  0
VERTEX
  8
0
 10
6.25478
 20
10.302
 30
0.0
 40
0.0171667
 41
0.0171667
  0
VERTEX
  8
0
 10
6.24268
 20
10.3006
 30
0.0
 40
0.0171667
 41
0.0171667
  0
VERTEX
  8
0
 10
6.22911
 20
10.299
 30
0.0
 40
0.0171667
 41
0.0171667
  0
VERTEX
  8
0
 10
6.18967
 20
10.2846
 30
0.0
 40
0.0171667
 41
0.0171667
  0
VERTEX
  8
0
 10
6.12224
 20
10.2496
 30
0.0
 40
0.0171667
 41
0.0171667
  0
VERTEX
  8
0
 10
6.04465
 20
10.1993
 30
0.0
 40
0.0171667
 41
0.0171667
  0
VERTEX
  8
0
 10
5.96143
 20
10.1374
 30
0.0
 40
0.0171667
 41
0.0171667
  0
VERTEX
  8
0
 10
5.87685
 20
10.0677
 30
0.0
 40
0.0171667
 41
0.0171667
  0
VERTEX
  8
0
 10
5.79542
 20
9.99393
 30
0.0
 40
0.0171667
 41
0.0171667
  0
VERTEX
  8
0
 10
5.7214
 20
9.91986
 30
0.0
 40
0.0171667
 41
0.0171667
  0
VERTEX
  8
0
 10
5.6741
 20
9.86746
 30
0.0
 40
0.0171667
 41
0.0171667
  0
VERTEX
  8
0
 10
5.65935
 20
9.84918
 30
0.0
 40
0.0171667
 41
0.0171667
  0
VERTEX
  8
0
 10
5.65392
 20
9.8425
 30
0.0
 40
0.0171667
 41
0.0171667
  0
VERTEX
  8
0
 10
5.63769
 20
9.82238
 30
0.0
 40
0.0171667
 41
0.0171667
  0
VERTEX
  8
0
 10
5.61029
 20
9.78819
 30
0.0
 40
0.0171667
 41
0.0171667
  0
VERTEX
  8
0
 10
5.57758
 20
9.7475
 30
0.0
 40
0.0171667
 41
0.0171667
  0
VERTEX
  8
0
 10
5.54953
 20
9.71246
 30
0.0
 40
0.0171667
 41
0.0171667
  0
VERTEX
  8
0
 10
5.54021
 20
9.70079
 30
0.0
 40
0.0171667
 41
0.0171667
  0
VERTEX
  8
0
 10
5.52382
 20
9.70486
 30
0.0
 40
0.0171667
 41
0.0171667
  0
VERTEX
  8
0
 10
5.45779
 20
9.72103
 30
0.0
 40
0.0171667
 41
0.0171667
  0
VERTEX
  8
0
 10
5.33393
 20
9.75076
 30
0.0
 40
0.0171667
 41
0.0171667
  0
VERTEX
  8
0
 10
5.20611
 20
9.78028
 30
0.0
 40
0.0171667
 41
0.0171667
  0
VERTEX
  8
0
 10
5.13357
 20
9.79601
 30
0.0
 40
0.0171667
 41
0.0171667
  0
VERTEX
  8
0
 10
5.11203
 20
9.79969
 30
0.0
 40
0.0171667
 41
0.0171667
  0
VERTEX
  8
0
 10
5.09418
 20
9.80279
 30
0.0
 40
0.0171667
 41
0.0171667
  0
VERTEX
  8
0
 10
5.04107
 20
9.81375
 30
0.0
 40
0.0171667
 41
0.0171667
  0
VERTEX
  8
0
 10
4.97706
 20
9.8265
 30
0.0
 40
0.0171667
 41
0.0171667
  0
VERTEX
  8
0
 10
4.92242
 20
9.83192
 30
0.0
 40
0.0171667
 41
0.0171667
  0
VERTEX
  8
0
 10
4.88921
 20
9.82844
 30
0.0
 40
0.0171667
 41
0.0171667
  0
VERTEX
  8
0
 10
4.87967
 20
9.82406
 30
0.0
 40
0.0171667
 41
0.0171667
  0
VERTEX
  8
0
 10
4.87256
 20
9.82081
 30
0.0
 40
0.0171667
 41
0.0171667
  0
VERTEX
  8
0
 10
4.85585
 20
9.80094
 30
0.0
 40
0.0171667
 41
0.0171667
  0
VERTEX
  8
0
 10
4.85211
 20
9.76932
 30
0.0
 40
0.0171667
 41
0.0171667
  0
VERTEX
  8
0
 10
4.86214
 20
9.73671
 30
0.0
 40
0.0171667
 41
0.0171667
  0
VERTEX
  8
0
 10
4.87429
 20
9.71615
 30
0.0
 40
0.0171667
 41
0.0171667
  0
VERTEX
  8
0
 10
4.87961
 20
9.71039
 30
0.0
 40
0.0171667
 41
0.0171667
  0
VERTEX
  8
0
 10
4.88406
 20
9.70557
 30
0.0
 40
0.0171667
 41
0.0171667
  0
VERTEX
  8
0
 10
4.89789
 20
9.6914
 30
0.0
 40
0.0171667
 41
0.0171667
  0
VERTEX
  8
0
 10
4.93386
 20
9.65474
 30
0.0
 40
0.0171667
 41
0.0171667
  0
VERTEX
  8
0
 10
4.98253
 20
9.60542
 30
0.0
 40
0.0171667
 41
0.0171667
  0
VERTEX
  8
0
 10
5.03911
 20
9.54813
 30
0.0
 40
0.0171667
 41
0.0171667
  0
VERTEX
  8
0
 10
5.09879
 20
9.4879
 30
0.0
 40
0.0171667
 41
0.0171667
  0
VERTEX
  8
0
 10
5.15663
 20
9.42953
 30
0.0
 40
0.0171667
 41
0.0171667
  0
VERTEX
  8
0
 10
5.20785
 20
9.37787
 30
0.0
 40
0.0171667
 41
0.0171667
  0
VERTEX
  8
0
 10
5.23768
 20
9.34788
 30
0.0
 40
0.0171667
 41
0.0171667
  0
VERTEX
  8
0
 10
5.24761
 20
9.33783
 30
0.0
 40
0.0171667
 41
0.0171667
  0
VERTEX
  8
0
 10
5.24246
 20
9.33149
 30
0.0
 40
0.0171667
 41
0.0171667
  0
VERTEX
  8
0
 10
5.19049
 20
9.26758
 30
0.0
 40
0.0171667
 41
0.0171667
  0
VERTEX
  8
0
 10
5.18528
 20
9.26113
 30
0.0
 40
0.0171667
 41
0.0171667
  0
VERTEX
  8
0
 10
5.16422
 20
9.26622
 30
0.0
 40
0.0171667
 41
0.0171667
  0
VERTEX
  8
0
 10
5.10113
 20
9.28125
 30
0.0
 40
0.0171667
 41
0.0171667
  0
VERTEX
  8
0
 10
5.01606
 20
9.30106
 30
0.0
 40
0.0171667
 41
0.0171667
  0
VERTEX
  8
0
 10
4.94043
 20
9.31782
 30
0.0
 40
0.0171667
 41
0.0171667
  0
VERTEX
  8
0
 10
4.89871
 20
9.32644
 30
0.0
 40
0.0171667
 41
0.0171667
  0
VERTEX
  8
0
 10
4.88476
 20
9.32883
 30
0.0
 40
0.0171667
 41
0.0171667
  0
VERTEX
  8
0
 10
4.86692
 20
9.33192
 30
0.0
 40
0.0171667
 41
0.0171667
  0
VERTEX
  8
0
 10
4.81381
 20
9.34289
 30
0.0
 40
0.0171667
 41
0.0171667
  0
VERTEX
  8
0
 10
4.74972
 20
9.35562
 30
0.0
 40
0.0171667
 41
0.0171667
  0
VERTEX
  8
0
 10
4.6951
 20
9.36111
 30
0.0
 40
0.0171667
 41
0.0171667
  0
VERTEX
  8
0
 10
4.66189
 20
9.35764
 30
0.0
 40
0.0171667
 41
0.0171667
  0
VERTEX
  8
0
 10
4.65235
 20
9.35325
 30
0.0
 40
0.0171667
 41
0.0171667
  0
VERTEX
  8
0
 10
4.64524
 20
9.34999
 30
0.0
 40
0.0171667
 41
0.0171667
  0
VERTEX
  8
0
 10
4.62853
 20
9.33008
 30
0.0
 40
0.0171667
 41
0.0171667
  0
VERTEX
  8
0
 10
4.62478
 20
9.2985
 30
0.0
 40
0.0171667
 41
0.0171667
  0
VERTEX
  8
0
 10
4.63482
 20
9.26585
 30
0.0
 40
0.0171667
 41
0.0171667
  0
VERTEX
  8
0
 10
4.64697
 20
9.24528
 30
0.0
 40
0.0171667
 41
0.0171667
  0
VERTEX
  8
0
 10
4.65229
 20
9.23953
 30
0.0
 40
0.0171667
 41
0.0171667
  0
VERTEX
  8
0
 10
4.65625
 20
9.23519
 30
0.0
 40
0.0171667
 41
0.0171667
  0
VERTEX
  8
0
 10
4.68733
 20
9.20344
 30
0.0
 40
0.0171667
 41
0.0171667
  0
VERTEX
  8
0
 10
4.75717
 20
9.13254
 30
0.0
 40
0.0171667
 41
0.0171667
  0
VERTEX
  8
0
 10
4.84483
 20
9.04394
 30
0.0
 40
0.0171667
 41
0.0171667
  0
VERTEX
  8
0
 10
4.91124
 20
8.97694
 30
0.0
 40
0.0171667
 41
0.0171667
  0
VERTEX
  8
0
 10
4.93338
 20
8.95458
 30
0.0
 40
0.0171667
 41
0.0171667
  0
VERTEX
  8
0
 10
4.90761
 20
8.92367
 30
0.0
 40
0.0171667
 41
0.0171667
  0
VERTEX
  8
0
 10
4.82992
 20
8.83132
 30
0.0
 40
0.0171667
 41
0.0171667
  0
VERTEX
  8
0
 10
4.73774
 20
8.7239
 30
0.0
 40
0.0171667
 41
0.0171667
  0
VERTEX
  8
0
 10
4.66097
 20
8.63775
 30
0.0
 40
0.0171667
 41
0.0171667
  0
VERTEX
  8
0
 10
4.6186
 20
8.59261
 30
0.0
 40
0.0171667
 41
0.0171667
  0
VERTEX
  8
0
 10
4.60379
 20
8.57835
 30
0.0
 40
0.0171667
 41
0.0171667
  0
VERTEX
  8
0
 10
4.59586
 20
8.57075
 30
0.0
 40
0.0171667
 41
0.0171667
  0
VERTEX
  8
0
 10
4.55246
 20
8.52869
 30
0.0
 40
0.0171667
 41
0.0171667
  0
VERTEX
  8
0
 10
4.50478
 20
8.48232
 30
0.0
 40
0.0171667
 41
0.0171667
  0
VERTEX
  8
0
 10
4.49468
 20
8.47254
 30
0.0
 40
0.0171667
 41
0.0171667
  0
VERTEX
  8
0
 10
4.48296
 20
8.47749
 30
0.0
 40
0.0171667
 41
0.0171667
  0
VERTEX
  8
0
 10
4.43007
 20
8.49914
 30
0.0
 40
0.0171667
 41
0.0171667
  0
VERTEX
  8
0
 10
4.38818
 20
8.51546
 30
0.0
 40
0.0171667
 41
0.0171667
  0
VERTEX
  8
0
 10
4.382
 20
8.51768
 30
0.0
 40
0.0171667
 41
0.0171667
  0
VERTEX
  8
0
 10
4.36496
 20
8.52382
 30
0.0
 40
0.0171667
 41
0.0171667
  0
VERTEX
  8
0
 10
4.31456
 20
8.54372
 30
0.0
 40
0.0171667
 41
0.0171667
  0
VERTEX
  8
0
 10
4.25369
 20
8.56733
 30
0.0
 40
0.0171667
 41
0.0171667
  0
VERTEX
  8
0
 10
4.20079
 20
8.58214
 30
0.0
 40
0.0171667
 41
0.0171667
  0
VERTEX
  8
0
 10
4.16749
 20
8.58447
 30
0.0
 40
0.0171667
 41
0.0171667
  0
VERTEX
  8
0
 10
4.15733
 20
8.58176
 30
0.0
 40
0.0171667
 41
0.0171667
  0
VERTEX
  8
0
 10
4.14974
 20
8.57981
 30
0.0
 40
0.0171667
 41
0.0171667
  0
VERTEX
  8
0
 10
4.12989
 20
8.5631
 30
0.0
 40
0.0171667
 41
0.0171667
  0
VERTEX
  8
0
 10
4.12076
 20
8.53261
 30
0.0
 40
0.0171667
 41
0.0171667
  0
VERTEX
  8
0
 10
4.125
 20
8.49875
 30
0.0
 40
0.0171667
 41
0.0171667
  0
VERTEX
  8
0
 10
4.1334
 20
8.47635
 30
0.0
 40
0.0171667
 41
0.0171667
  0
VERTEX
  8
0
 10
4.13764
 20
8.46978
 30
0.0
 40
0.0171667
 41
0.0171667
  0
VERTEX
  8
0
 10
4.13981
 20
8.46636
 30
0.0
 40
0.0171667
 41
0.0171667
  0
VERTEX
  8
0
 10
4.15354
 20
8.44624
 30
0.0
 40
0.0171667
 41
0.0171667
  0
VERTEX
  8
0
 10
4.1849
 20
8.40061
 30
0.0
 40
0.0171667
 41
0.0171667
  0
VERTEX
  8
0
 10
4.22732
 20
8.33936
 30
0.0
 40
0.0171667
 41
0.0171667
  0
VERTEX
  8
0
 10
4.26394
 20
8.28657
 30
0.0
 40
0.0171667
 41
0.0171667
  0
VERTEX
  8
0
 10
4.27615
 20
8.26893
 30
0.0
 40
0.0171667
 41
0.0171667
  0
VERTEX
  8
0
 10
4.25076
 20
8.24669
 30
0.0
 40
0.0171667
 41
0.0171667
  0
VERTEX
  8
0
 10
4.17258
 20
8.18212
 30
0.0
 40
0.0171667
 41
0.0171667
  0
VERTEX
  8
0
 10
4.07454
 20
8.1104
 30
0.0
 40
0.0171667
 41
0.0171667
  0
VERTEX
  8
0
 10
3.98731
 20
8.06164
 30
0.0
 40
0.0171667
 41
0.0171667
  0
VERTEX
  8
0
 10
3.93403
 20
8.04362
 30
0.0
 40
0.0171667
 41
0.0171667
  0
VERTEX
  8
0
 10
3.91629
 20
8.04362
 30
0.0
 40
0.0171667
 41
0.0171667
  0
VERTEX
  8
0
 10
3.86637
 20
8.04362
 30
0.0
 40
0.0171667
 41
0.0171667
  0
VERTEX
  8
0
 10
3.85265
 20
8.04362
 30
0.0
 40
0.0171667
 41
0.0171667
  0
VERTEX
  8
0
 10
3.81158
 20
8.05512
 30
0.0
 40
0.0171667
 41
0.0171667
  0
VERTEX
  8
0
 10
3.74599
 20
8.08686
 30
0.0
 40
0.0171667
 41
0.0171667
  0
VERTEX
  8
0
 10
3.67215
 20
8.1351
 30
0.0
 40
0.0171667
 41
0.0171667
  0
VERTEX
  8
0
 10
3.59283
 20
8.19586
 30
0.0
 40
0.0171667
 41
0.0171667
  0
VERTEX
  8
0
 10
3.51064
 20
8.26531
 30
0.0
 40
0.0171667
 41
0.0171667
  0
VERTEX
  8
0
 10
3.42822
 20
8.33946
 30
0.0
 40
0.0171667
 41
0.0171667
  0
VERTEX
  8
0
 10
3.34825
 20
8.41456
 30
0.0
 40
0.0171667
 41
0.0171667
  0
VERTEX
  8
0
 10
3.29204
 20
8.46853
 30
0.0
 40
0.0171667
 41
0.0171667
  0
VERTEX
  8
0
 10
3.27344
 20
8.4866
 30
0.0
 40
0.0171667
 41
0.0171667
  0
VERTEX
  8
0
 10
3.28933
 20
8.5095
 30
0.0
 40
0.0171667
 41
0.0171667
  0
VERTEX
  8
0
 10
3.33703
 20
8.57813
 30
0.0
 40
0.0171667
 41
0.0171667
  0
VERTEX
  8
0
 10
3.39594
 20
8.66308
 30
0.0
 40
0.0171667
 41
0.0171667
  0
VERTEX
  8
0
 10
3.44119
 20
8.72868
 30
0.0
 40
0.0171667
 41
0.0171667
  0
VERTEX
  8
0
 10
3.46104
 20
8.75776
 30
0.0
 40
0.0171667
 41
0.0171667
  0
VERTEX
  8
0
 10
3.46382
 20
8.76204
 30
0.0
 40
0.0171667
 41
0.0171667
  0
VERTEX
  8
0
 10
3.46799
 20
8.76861
 30
0.0
 40
0.0171667
 41
0.0171667
  0
VERTEX
  8
0
 10
3.4764
 20
8.79096
 30
0.0
 40
0.0171667
 41
0.0171667
  0
VERTEX
  8
0
 10
3.48062
 20
8.82487
 30
0.0
 40
0.0171667
 41
0.0171667
  0
VERTEX
  8
0
 10
3.47157
 20
8.85536
 30
0.0
 40
0.0171667
 41
0.0171667
  0
VERTEX
  8
0
 10
3.45167
 20
8.87207
 30
0.0
 40
0.0171667
 41
0.0171667
  0
VERTEX
  8
0
 10
3.44413
 20
8.87403
 30
0.0
 40
0.0171667
 41
0.0171667
  0
VERTEX
  8
0
 10
3.43392
 20
8.87668
 30
0.0
 40
0.0171667
 41
0.0171667
  0
VERTEX
  8
0
 10
3.40061
 20
8.8744
 30
0.0
 40
0.0171667
 41
0.0171667
  0
VERTEX
  8
0
 10
3.34771
 20
8.8596
 30
0.0
 40
0.0171667
 41
0.0171667
  0
VERTEX
  8
0
 10
3.28683
 20
8.83599
 30
0.0
 40
0.0171667
 41
0.0171667
  0
VERTEX
  8
0
 10
3.23643
 20
8.81603
 30
0.0
 40
0.0171667
 41
0.0171667
  0
VERTEX
  8
0
 10
3.21946
 20
8.8099
 30
0.0
 40
0.0171667
 41
0.0171667
  0
VERTEX
  8
0
 10
3.21094
 20
8.80686
 30
0.0
 40
0.0171667
 41
0.0171667
  0
VERTEX
  8
0
 10
3.1856
 20
8.7971
 30
0.0
 40
0.0171667
 41
0.0171667
  0
VERTEX
  8
0
 10
3.14154
 20
8.77929
 30
0.0
 40
0.0171667
 41
0.0171667
  0
VERTEX
  8
0
 10
3.0905
 20
8.75797
 30
0.0
 40
0.0171667
 41
0.0171667
  0
VERTEX
  8
0
 10
3.04926
 20
8.7405
 30
0.0
 40
0.0171667
 41
0.0171667
  0
VERTEX
  8
0
 10
3.03554
 20
8.73465
 30
0.0
 40
0.0171667
 41
0.0171667
  0
VERTEX
  8
0
 10
3.01351
 20
8.75999
 30
0.0
 40
0.0171667
 41
0.0171667
  0
VERTEX
  8
0
 10
2.94824
 20
8.83658
 30
0.0
 40
0.0171667
 41
0.0171667
  0
VERTEX
  8
0
 10
2.85124
 20
8.95221
 30
0.0
 40
0.0171667
 41
0.0171667
  0
VERTEX
  8
0
 10
2.74794
 20
9.07704
 30
0.0
 40
0.0171667
 41
0.0171667
  0
VERTEX
  8
0
 10
2.66824
 20
9.17415
 30
0.0
 40
0.0171667
 41
0.0171667
  0
VERTEX
  8
0
 10
2.64176
 20
9.2066
 30
0.0
 40
0.0171667
 41
0.0171667
  0
VERTEX
  8
0
 10
2.65246
 20
9.21821
 30
0.0
 40
0.0171667
 41
0.0171667
  0
VERTEX
  8
0
 10
2.68468
 20
9.25304
 30
0.0
 40
0.0171667
 41
0.0171667
  0
VERTEX
  8
0
 10
2.73193
 20
9.30414
 30
0.0
 40
0.0171667
 41
0.0171667
  0
VERTEX
  8
0
 10
2.7806
 20
9.35688
 30
0.0
 40
0.0171667
 41
0.0171667
  0
VERTEX
  8
0
 10
2.82796
 20
9.40821
 30
0.0
 40
0.0171667
 41
0.0171667
  0
VERTEX
  8
0
 10
2.87115
 20
9.45508
 30
0.0
 40
0.0171667
 41
0.0171667
  0
VERTEX
  8
0
 10
2.90733
 20
9.49447
 30
0.0
 40
0.0171667
 41
0.0171667
  0
VERTEX
  8
0
 10
2.93365
 20
9.52333
 30
0.0
 40
0.0171667
 41
0.0171667
  0
VERTEX
  8
0
 10
2.94401
 20
9.53478
 30
0.0
 40
0.0171667
 41
0.0171667
  0
VERTEX
  8
0
 10
2.94738
 20
9.53863
 30
0.0
 40
0.0171667
 41
0.0171667
  0
VERTEX
  8
0
 10
2.95242
 20
9.54454
 30
0.0
 40
0.0171667
 41
0.0171667
  0
VERTEX
  8
0
 10
2.96382
 20
9.56554
 30
0.0
 40
0.0171667
 41
0.0171667
  0
VERTEX
  8
0
 10
2.97271
 20
9.59847
 30
0.0
 40
0.0171667
 41
0.0171667
  0
VERTEX
  8
0
 10
2.96789
 20
9.62993
 30
0.0
 40
0.0171667
 41
0.0171667
  0
VERTEX
  8
0
 10
2.95047
 20
9.64925
 30
0.0
 40
0.0171667
 41
0.0171667
  0
VERTEX
  8
0
 10
2.94331
 20
9.65224
 30
0.0
 40
0.0171667
 41
0.0171667
  0
VERTEX
  8
0
 10
2.93354
 20
9.65631
 30
0.0
 40
0.0171667
 41
0.0171667
  0
VERTEX
  8
0
 10
2.90028
 20
9.65858
 30
0.0
 40
0.0171667
 41
0.0171667
  0
VERTEX
  8
0
 10
2.84592
 20
9.65126
 30
0.0
 40
0.0171667
 41
0.0171667
  0
VERTEX
  8
0
 10
2.78233
 20
9.63629
 30
0.0
 40
0.0171667
 41
0.0171667
  0
VERTEX
  8
0
 10
2.7296
 20
9.62349
 30
0.0
 40
0.0171667
 41
0.0171667
  0
VERTEX
  8
0
 10
2.71197
 20
9.61979
 30
0.0
 40
0.0171667
 41
0.0171667
  0
VERTEX
  8
0
 10
2.69635
 20
9.61654
 30
0.0
 40
0.0171667
 41
0.0171667
  0
VERTEX
  8
0
 10
2.64876
 20
9.60482
 30
0.0
 40
0.0171667
 41
0.0171667
  0
VERTEX
  8
0
 10
2.5625
 20
9.58225
 30
0.0
 40
0.0171667
 41
0.0171667
  0
VERTEX
  8
0
 10
2.46756
 20
9.55647
 30
0.0
 40
0.0171667
 41
0.0171667
  0
VERTEX
  8
0
 10
2.40067
 20
9.53792
 30
0.0
 40
0.0171667
 41
0.0171667
  0
VERTEX
  8
0
 10
2.37842
 20
9.53168
 30
0.0
 40
0.0171667
 41
0.0171667
  0
VERTEX
  8
0
 10
2.35764
 20
9.55751
 30
0.0
 40
0.0171667
 41
0.0171667
  0
VERTEX
  8
0
 10
2.29536
 20
9.63493
 30
0.0
 40
0.0171667
 41
0.0171667
  0
VERTEX
  8
0
 10
2.22331
 20
9.72467
 30
0.0
 40
0.0171667
 41
0.0171667
  0
VERTEX
  8
0
 10
2.16504
 20
9.79731
 30
0.0
 40
0.0171667
 41
0.0171667
  0
VERTEX
  8
0
 10
2.13374
 20
9.83626
 30
0.0
 40
0.0171667
 41
0.0171667
  0
VERTEX
  8
0
 10
2.12332
 20
9.84918
 30
0.0
 40
0.0171667
 41
0.0171667
  0
VERTEX
  8
0
 10
2.10856
 20
9.86746
 30
0.0
 40
0.0171667
 41
0.0171667
  0
VERTEX
  8
0
 10
2.06119
 20
9.91986
 30
0.0
 40
0.0171667
 41
0.0171667
  0
VERTEX
  8
0
 10
1.98725
 20
9.99393
 30
0.0
 40
0.0171667
 41
0.0171667
  0
VERTEX
  8
0
 10
1.90576
 20
10.0677
 30
0.0
 40
0.0171667
 41
0.0171667
  0
VERTEX
  8
0
 10
1.82124
 20
10.1374
 30
0.0
 40
0.0171667
 41
0.0171667
  0
VERTEX
  8
0
 10
1.73796
 20
10.1993
 30
0.0
 40
0.0171667
 41
0.0171667
  0
VERTEX
  8
0
 10
1.66043
 20
10.2496
 30
0.0
 40
0.0171667
 41
0.0171667
  0
VERTEX
  8
0
 10
1.59293
 20
10.2846
 30
0.0
 40
0.0171667
 41
0.0171667
  0
VERTEX
  8
0
 10
1.5535
 20
10.299
 30
0.0
 40
0.0171667
 41
0.0171667
  0
VERTEX
  8
0
 10
1.53999
 20
10.3006
 30
0.0
 40
0.0171667
 41
0.0171667
  0
VERTEX
  8
0
 10
1.52783
 20
10.302
 30
0.0
 40
0.0171667
 41
0.0171667
  0
VERTEX
  8
0
 10
1.49132
 20
10.3053
 30
0.0
 40
0.0171667
 41
0.0171667
  0
VERTEX
  8
0
 10
1.43485
 20
10.3071
 30
0.0
 40
0.0171667
 41
0.0171667
  0
VERTEX
  8
0
 10
1.37202
 20
10.3029
 30
0.0
 40
0.0171667
 41
0.0171667
  0
VERTEX
  8
0
 10
1.30425
 20
10.2897
 30
0.0
 40
0.0171667
 41
0.0171667
  0
VERTEX
  8
0
 10
1.23296
 20
10.2643
 30
0.0
 40
0.0171667
 41
0.0171667
  0
VERTEX
  8
0
 10
1.15956
 20
10.2238
 30
0.0
 40
0.0171667
 41
0.0171667
  0
VERTEX
  8
0
 10
1.0855
 20
10.1652
 30
0.0
 40
0.0171667
 41
0.0171667
  0
VERTEX
  8
0
 10
1.02897
 20
10.1065
 30
0.0
 40
0.0171667
 41
0.0171667
  0
VERTEX
  8
0
 10
1.01221
 20
10.0853
 30
0.0
 40
0.0171667
 41
0.0171667
  0
VERTEX
  8
0
 10
0.9898
 20
10.057
 30
0.0
 40
0.0171667
 41
0.0171667
  0
VERTEX
  8
0
 10
0.930826
 20
9.96571
 30
0.0
 40
0.0171667
 41
0.0171667
  0
VERTEX
  8
0
 10
0.881999
 20
9.85265
 30
0.0
 40
0.0171667
 41
0.0171667
  0
VERTEX
  8
0
 10
0.861817
 20
9.73958
 30
0.0
 40
0.0171667
 41
0.0171667
  0
VERTEX
  8
0
 10
0.862685
 20
9.64958
 30
0.0
 40
0.0171667
 41
0.0171667
  0
VERTEX
  8
0
 10
0.866374
 20
9.62001
 30
0.0
 40
0.0171667
 41
0.0171667
  0
VERTEX
  8
0
 10
0.870226
 20
9.58919
 30
0.0
 40
0.0171667
 41
0.0171667
  0
VERTEX
  8
0
 10
0.903103
 20
9.49924
 30
0.0
 40
0.0171667
 41
0.0171667
  0
VERTEX
  8
0
 10
0.985243
 20
9.36789
 30
0.0
 40
0.0171667
 41
0.0171667
  0
VERTEX
  8
0
 10
1.11377
 20
9.22646
 30
0.0
 40
0.0171667
 41
0.0171667
  0
VERTEX
  8
0
 10
1.24398
 20
9.11106
 30
0.0
 40
0.0171667
 41
0.0171667
  0
VERTEX
  8
0
 10
1.28971
 20
9.07547
 30
0.0
 40
0.0171667
 41
0.0171667
  0
VERTEX
  8
0
 10
1.28472
 20
9.04286
 30
0.0
 40
0.0171667
 41
0.0171667
  0
VERTEX
  8
0
 10
1.25939
 20
8.76742
 30
0.0
 40
0.0171667
 41
0.0171667
  0
VERTEX
  8
0
 10
1.25939
 20
8.67557
 30
0.0
 40
0.0171667
 41
0.0171667
  0
VERTEX
  8
0
 10
1.25939
 20
8.59858
 30
0.0
 40
0.0171667
 41
0.0171667
  0
VERTEX
  8
0
 10
1.27723
 20
8.36751
 30
0.0
 40
0.0171667
 41
0.0171667
  0
VERTEX
  8
0
 10
1.32943
 20
8.06993
 30
0.0
 40
0.0171667
 41
0.0171667
  0
VERTEX
  8
0
 10
1.41401
 20
7.78489
 30
0.0
 40
0.0171667
 41
0.0171667
  0
VERTEX
  8
0
 10
1.49647
 20
7.58014
 30
0.0
 40
0.0171667
 41
0.0171667
  0
VERTEX
  8
0
 10
1.52892
 20
7.51426
 30
0.0
 40
0.0171667
 41
0.0171667
  0
VERTEX
  8
0
 10
1.55903
 20
7.45318
 30
0.0
 40
0.0171667
 41
0.0171667
  0
VERTEX
  8
0
 10
1.73633
 20
7.1645
 30
0.0
 40
0.0171667
 41
0.0171667
  0
VERTEX
  8
0
 10
1.94683
 20
6.90082
 30
0.0
 40
0.0171667
 41
0.0171667
  0
VERTEX
  8
0
 10
1.9936
 20
6.85221
 30
0.0
 40
0.0171667
 41
0.0171667
  0
VERTEX
  8
0
 10
2.03213
 20
6.81212
 30
0.0
 40
0.0171667
 41
0.0171667
  0
VERTEX
  8
0
 10
2.23953
 20
6.62663
 30
0.0
 40
0.0171667
 41
0.0171667
  0
VERTEX
  8
0
 10
2.46506
 20
6.46268
 30
0.0
 40
0.0171667
 41
0.0171667
  0
VERTEX
  8
0
 10
2.51269
 20
6.43332
 30
0.0
 40
0.0171667
 41
0.0171667
  0
VERTEX
  8
0
 10
2.56201
 20
6.40294
 30
0.0
 40
0.0171667
 41
0.0171667
  0
VERTEX
  8
0
 10
2.82096
 20
6.27056
 30
0.0
 40
0.0171667
 41
0.0171667
  0
VERTEX
  8
0
 10
3.09489
 20
6.16575
 30
0.0
 40
0.0171667
 41
0.0171667
  0
VERTEX
  8
0
 10
3.15175
 20
6.14914
 30
0.0
 40
0.0171667
 41
0.0171667
  0
VERTEX
  8
0
 10
3.21039
 20
6.132
 30
0.0
 40
0.0171667
 41
0.0171667
  0
VERTEX
  8
0
 10
3.51318
 20
6.07069
 30
0.0
 40
0.0171667
 41
0.0171667
  0
VERTEX
  8
0
 10
3.79676
 20
6.04362
 30
0.0
 40
0.0171667
 41
0.0171667
  0
VERTEX
  8
0
 10
3.89133
 20
6.04362
 30
0.0
 40
0.0171667
 41
0.0171667
  0
VERTEX
  8
0
 10
3.94922
 20
6.04362
 30
0.0
 40
0.0171667
 41
0.0171667
  0
VERTEX
  8
0
 10
4.12294
 20
6.05371
 30
0.0
 40
0.0171667
 41
0.0171667
  0
VERTEX
  8
0
 10
4.34901
 20
6.08333
 30
0.0
 40
0.0171667
 41
0.0171667
  0
VERTEX
  8
0
 10
4.56858
 20
6.13167
 30
0.0
 40
0.0171667
 41
0.0171667
  0
VERTEX
  8
0
 10
4.78093
 20
6.19786
 30
0.0
 40
0.0171667
 41
0.0171667
  0
VERTEX
  8
0
 10
4.98508
 20
6.28114
 30
0.0
 40
0.0171667
 41
0.0171667
  0
VERTEX
  8
0
 10
5.18033
 20
6.38053
 30
0.0
 40
0.0171667
 41
0.0171667
  0
VERTEX
  8
0
 10
5.36578
 20
6.49533
 30
0.0
 40
0.0171667
 41
0.0171667
  0
VERTEX
  8
0
 10
5.49832
 20
6.5906
 30
0.0
 40
0.0171667
 41
0.0171667
  0
VERTEX
  8
0
 10
5.54064
 20
6.62462
 30
0.0
 40
0.0171667
 41
0.0171667
  0
VERTEX
  8
0
 10
5.58062
 20
6.65685
 30
0.0
 40
0.0171667
 41
0.0171667
  0
VERTEX
  8
0
 10
5.76872
 20
6.83128
 30
0.0
 40
0.0171667
 41
0.0171667
  0
VERTEX
  8
0
 10
5.93983
 20
7.0224
 30
0.0
 40
0.0171667
 41
0.0171667
  0
VERTEX
  8
0
 10
5.97136
 20
7.06299
 30
0.0
 40
0.0171667
 41
0.0171667
  0
VERTEX
  8
0
 10
6.00375
 20
7.10476
 30
0.0
 40
0.0171667
 41
0.0171667
  0
VERTEX
  8
0
 10
6.09435
 20
7.23529
 30
0.0
 40
0.0171667
 41
0.0171667
  0
VERTEX
  8
0
 10
6.20344
 20
7.41749
 30
0.0
 40
0.0171667
 41
0.0171667
  0
VERTEX
  8
0
 10
6.29796
 20
7.60878
 30
0.0
 40
0.0171667
 41
0.0171667
  0
VERTEX
  8
0
 10
6.37701
 20
7.80849
 30
0.0
 40
0.0171667
 41
0.0171667
  0
VERTEX
  8
0
 10
6.43983
 20
8.01579
 30
0.0
 40
0.0171667
 41
0.0171667
  0
VERTEX
  8
0
 10
6.48562
 20
8.22993
 30
0.0
 40
0.0171667
 41
0.0171667
  0
VERTEX
  8
0
 10
6.51372
 20
8.45008
 30
0.0
 40
0.0171667
 41
0.0171667
  0
VERTEX
  8
0
 10
6.52328
 20
8.61919
 30
0.0
 40
0.0171667
 41
0.0171667
  0
VERTEX
  8
0
 10
6.52328
 20
8.67557
 30
0.0
 40
0.0171667
 41
0.0171667
  0
VERTEX
  8
0
 10
6.52328
 20
8.77365
 30
0.0
 40
0.0171667
 41
0.0171667
  0
VERTEX
  8
0
 10
6.49892
 20
9.03581
 30
0.0
 40
0.0171667
 41
0.0171667
  0
VERTEX
  8
0
 10
6.49414
 20
9.06776
 30
0.0
 40
0.0171667
 41
0.0171667
  0
VERTEX
  8
0
 10
6.49414
 20
9.06776
 30
0.0
 40
0.0171667
 41
0.0171667
  0
VERTEX
  8
0
 10
6.49599
 20
9.07346
 30
0.0
 40
0.0171667
 41
0.0171667
  0
VERTEX
  8
0
 10
6.50624
 20
9.08583
 30
0.0
 40
0.0171667
 41
0.0171667
  0
VERTEX
  8
0
 10
6.51036
 20
9.08908
 30
0.0
 40
0.0171667
 41
0.0171667
  0
VERTEX
  8
0
 10
6.55393
 20
9.12397
 30
0.0
 40
0.0171667
 41
0.0171667
  0
VERTEX
  8
0
 10
6.67833
 20
9.23665
 30
0.0
 40
0.0171667
 41
0.0171667
  0
VERTEX
  8
0
 10
6.80154
 20
9.37435
 30
0.0
 40
0.0171667
 41
0.0171667
  0
VERTEX
  8
0
 10
6.88064
 20
9.50222
 30
0.0
 40
0.0171667
 41
0.0171667
  0
VERTEX
  8
0
 10
6.91254
 20
9.58996
 30
0.0
 40
0.0171667
 41
0.0171667
  0
VERTEX
  8
0
 10
6.91629
 20
9.62001
 30
0.0
 40
0.0171667
 41
0.0171667
  0
VERTEX
  8
0
 10
6.91997
 20
9.64958
 30
0.0
 40
0.0171667
 41
0.0171667
  0
VERTEX
  8
0
 10
6.92085
 20
9.73958
 30
0.0
 40
0.0171667
 41
0.0171667
  0
VERTEX
  8
0
 10
6.90067
 20
9.85265
 30
0.0
 40
0.0171667
 41
0.0171667
  0
VERTEX
  8
0
 10
6.85183
 20
9.96571
 30
0.0
 40
0.0171667
 41
0.0171667
  0
VERTEX
  8
0
 10
6.79281
 20
10.057
 30
0.0
 40
0.0171667
 41
0.0171667
  0
VERTEX
  8
0
 10
6.77046
 20
10.0853
 30
0.0
 40
0.0171667
 41
0.0171667
  0
SEQEND
 8
0
  0
POLYLINE
  8
0
 62
     250
 66
     1
 10
0
 20
0
 30
0.0
 70
     1
 40
1
 41
1
  0
VERTEX
  8
0
 10
3.98617
 20
7.70975
 30
0.0
 40
0.0138889
 41
0.0138889
  0
VERTEX
  8
0
 10
3.98617
 20
7.70053
 30
0.0
 40
0.0138889
 41
0.0138889
  0
VERTEX
  8
0
 10
3.97868
 20
7.67285
 30
0.0
 40
0.0138889
 41
0.0138889
  0
VERTEX
  8
0
 10
3.95833
 20
7.64268
 30
0.0
 40
0.0138889
 41
0.0138889
  0
VERTEX
  8
0
 10
3.92822
 20
7.6224
 30
0.0
 40
0.0138889
 41
0.0138889
  0
VERTEX
  8
0
 10
3.90056
 20
7.6149
 30
0.0
 40
0.0138889
 41
0.0138889
  0
VERTEX
  8
0
 10
3.89133
 20
7.6149
 30
0.0
 40
0.0138889
 41
0.0138889
  0
VERTEX
  8
0
 10
3.88206
 20
7.6149
 30
0.0
 40
0.0138889
 41
0.0138889
  0
VERTEX
  8
0
 10
3.85439
 20
7.6224
 30
0.0
 40
0.0138889
 41
0.0138889
  0
VERTEX
  8
0
 10
3.82428
 20
7.64268
 30
0.0
 40
0.0138889
 41
0.0138889
  0
VERTEX
  8
0
 10
3.80393
 20
7.67285
 30
0.0
 40
0.0138889
 41
0.0138889
  0
VERTEX
  8
0
 10
3.7965
 20
7.70053
 30
0.0
 40
0.0138889
 41
0.0138889
  0
VERTEX
  8
0
 10
3.7965
 20
7.70975
 30
0.0
 40
0.0138889
 41
0.0138889
  0
VERTEX
  8
0
 10
3.7965
 20
7.71903
 30
0.0
 40
0.0138889
 41
0.0138889
  0
VERTEX
  8
0
 10
3.80393
 20
7.74669
 30
0.0
 40
0.0138889
 41
0.0138889
  0
VERTEX
  8
0
 10
3.82428
 20
7.77681
 30
0.0
 40
0.0138889
 41
0.0138889
  0
VERTEX
  8
0
 10
3.85439
 20
7.7971
 30
0.0
 40
0.0138889
 41
0.0138889
  0
VERTEX
  8
0
 10
3.88206
 20
7.80453
 30
0.0
 40
0.0138889
 41
0.0138889
  0
VERTEX
  8
0
 10
3.89133
 20
7.80453
 30
0.0
 40
0.0138889
 41
0.0138889
  0
VERTEX
  8
0
 10
3.90056
 20
7.80453
 30
0.0
 40
0.0138889
 41
0.0138889
  0
VERTEX
  8
0
 10
3.92822
 20
7.7971
 30
0.0
 40
0.0138889
 41
0.0138889
  0
VERTEX
  8
0
 10
3.95833
 20
7.77681
 30
0.0
 40
0.0138889
 41
0.0138889
  0
VERTEX
  8
0
 10
3.97868
 20
7.74669
 30
0.0
 40
0.0138889
 41
0.0138889
  0
VERTEX
  8
0
 10
3.98617
 20
7.71903
 30
0.0
 40
0.0138889
 41
0.0138889
  0
VERTEX
  8
0
 10
3.98617
 20
7.70975
 30
0.0
 40
0.0138889
 41
0.0138889
  0
SEQEND
 8
0
  0
POLYLINE
  8
0
 62
     250
 66
     1
 10
0
 20
0
 30
0.0
 40
1.236
 41
1.236
  0
VERTEX
  8
0
 10
2.64176
 20
9.2066
 30
0.0
 40
0.0171667
 41
0.0171667
  0
VERTEX
  8
0
 10
2.37842
 20
9.53168
 30
0.0
 40
0.0171667
 41
0.0171667
  0
SEQEND
 8
0
  0
POLYLINE
  8
0
 62
     250
 66
     1
 10
0
 20
0
 30
0.0
 40
1.236
 41
1.236
  0
VERTEX
  8
0
 10
3.27344
 20
8.4866
 30
0.0
 40
0.0171667
 41
0.0171667
  0
VERTEX
  8
0
 10
3.03554
 20
8.73465
 30
0.0
 40
0.0171667
 41
0.0171667
  0
SEQEND
 8
0
  0
POLYLINE
  8
0
 62
     250
 66
     1
 10
0
 20
0
 30
0.0
 40
1.236
 41
1.236
  0
VERTEX
  8
0
 10
4.49468
 20
8.47254
 30
0.0
 40
0.0171667
 41
0.0171667
  0
VERTEX
  8
0
 10
4.27615
 20
8.26893
 30
0.0
 40
0.0171667
 41
0.0171667
  0
SEQEND
 8
0
  0
POLYLINE
  8
0
 62
     250
 66
     1
 10
0
 20
0
 30
0.0
 40
1.236
 41
1.236
  0
VERTEX
  8
0
 10
5.18528
 20
9.26113
 30
0.0
 40
0.0171667
 41
0.0171667
  0
VERTEX
  8
0
 10
4.93338
 20
8.95458
 30
0.0
 40
0.0171667
 41
0.0171667
  0
SEQEND
 8
0
  0
POLYLINE
  8
0
 62
     240
 66
     1
 10
0
 20
0
 30
0.0
 70
     1
 40
0
 41
0
  0
VERTEX
  8
0
 10
5.54021
 20
9.70079
 30
0.0
 40
0
 41
0
  0
VERTEX
  8
0
 10
5.24761
 20
9.33783
 30
0.0
 40
0
 41
0
  0
SEQEND
 8
0
  0
POLYLINE
  8
0
 62
     250
 66
     1
 10
0
 20
0
 30
0.0
 40
1.236
 41
1.236
  0
VERTEX
  8
0
 10
5.54021
 20
9.70079
 30
0.0
 40
0.0171667
 41
0.0171667
  0
VERTEX
  8
0
 10
5.24761
 20
9.33783
 30
0.0
 40
0.0171667
 41
0.0171667
  0
SEQEND
 8
0
  0
POLYLINE
  8
0
 62
     250
 66
     1
 10
0
 20
0
 30
0.0
 70
     1
 40
1
 41
1
  0
VERTEX
  8
0
 10
2.21983
 20
7.71625
 30
0.0
 40
0.0138889
 41
0.0138889
  0
VERTEX
  8
0
 10
2.20426
 20
7.70204
 30
0.0
 40
0.0138889
 41
0.0138889
  0
VERTEX
  8
0
 10
2.16396
 20
7.65224
 30
0.0
 40
0.0138889
 41
0.0138889
  0
VERTEX
  8
0
 10
2.1244
 20
7.57894
 30
0.0
 40
0.0138889
 41
0.0138889
  0
VERTEX
  8
0
 10
2.10113
 20
7.49892
 30
0.0
 40
0.0138889
 41
0.0138889
  0
VERTEX
  8
0
 10
2.09412
 20
7.41471
 30
0.0
 40
0.0138889
 41
0.0138889
  0
VERTEX
  8
0
 10
2.10335
 20
7.32889
 30
0.0
 40
0.0138889
 41
0.0138889
  0
VERTEX
  8
0
 10
2.12869
 20
7.24393
 30
0.0
 40
0.0138889
 41
0.0138889
  0
VERTEX
  8
0
 10
2.17025
 20
7.16237
 30
0.0
 40
0.0138889
 41
0.0138889
  0
VERTEX
  8
0
 10
2.21192
 20
7.10422
 30
0.0
 40
0.0138889
 41
0.0138889
  0
VERTEX
  8
0
 10
2.22792
 20
7.08675
 30
0.0
 40
0.0138889
 41
0.0138889
  0
VERTEX
  8
0
 10
2.25874
 20
7.05306
 30
0.0
 40
0.0138889
 41
0.0138889
  0
VERTEX
  8
0
 10
2.37565
 20
6.97407
 30
0.0
 40
0.0138889
 41
0.0138889
  0
VERTEX
  8
0
 10
2.54275
 20
6.92453
 30
0.0
 40
0.0138889
 41
0.0138889
  0
VERTEX
  8
0
 10
2.70899
 20
6.94015
 30
0.0
 40
0.0138889
 41
0.0138889
  0
VERTEX
  8
0
 10
2.82417
 20
6.9955
 30
0.0
 40
0.0138889
 41
0.0138889
  0
VERTEX
  8
0
 10
2.85428
 20
7.023
 30
0.0
 40
0.0138889
 41
0.0138889
  0
VERTEX
  8
0
 10
2.86985
 20
7.03728
 30
0.0
 40
0.0138889
 41
0.0138889
  0
VERTEX
  8
0
 10
2.9101
 20
7.08708
 30
0.0
 40
0.0138889
 41
0.0138889
  0
VERTEX
  8
0
 10
2.94965
 20
7.16038
 30
0.0
 40
0.0138889
 41
0.0138889
  0
VERTEX
  8
0
 10
2.97287
 20
7.2404
 30
0.0
 40
0.0138889
 41
0.0138889
  0
VERTEX
  8
0
 10
2.97993
 20
7.3246
 30
0.0
 40
0.0138889
 41
0.0138889
  0
VERTEX
  8
0
 10
2.97071
 20
7.41043
 30
0.0
 40
0.0138889
 41
0.0138889
  0
VERTEX
  8
0
 10
2.94532
 20
7.49539
 30
0.0
 40
0.0138889
 41
0.0138889
  0
VERTEX
  8
0
 10
2.90381
 20
7.57693
 30
0.0
 40
0.0138889
 41
0.0138889
  0
VERTEX
  8
0
 10
2.86214
 20
7.6351
 30
0.0
 40
0.0138889
 41
0.0138889
  0
VERTEX
  8
0
 10
2.84619
 20
7.6525
 30
0.0
 40
0.0138889
 41
0.0138889
  0
VERTEX
  8
0
 10
2.81526
 20
7.68625
 30
0.0
 40
0.0138889
 41
0.0138889
  0
VERTEX
  8
0
 10
2.69835
 20
7.76525
 30
0.0
 40
0.0138889
 41
0.0138889
  0
VERTEX
  8
0
 10
2.53131
 20
7.81478
 30
0.0
 40
0.0138889
 41
0.0138889
  0
VERTEX
  8
0
 10
2.36507
 20
7.79915
 30
0.0
 40
0.0138889
 41
0.0138889
  0
VERTEX
  8
0
 10
2.24989
 20
7.74382
 30
0.0
 40
0.0138889
 41
0.0138889
  0
VERTEX
  8
0
 10
2.21983
 20
7.71625
 30
0.0
 40
0.0138889
 41
0.0138889
  0
SEQEND
 8
0
  0
POLYLINE
  8
0
 62
     250
 66
     1
 10
0
 20
0
 30
0.0
 70
     1
 40
1
 41
1
  0
VERTEX
  8
0
 10
1.64264
 20
8.39681
 30
0.0
 40
0.0138889
 41
0.0138889
  0
VERTEX
  8
0
 10
1.62061
 20
8.38829
 30
0.0
 40
0.0138889
 41
0.0138889
  0
VERTEX
  8
0
 10
1.56353
 20
8.33951
 30
0.0
 40
0.0138889
 41
0.0138889
  0
VERTEX
  8
0
 10
1.51611
 20
8.24854
 30
0.0
 40
0.0138889
 41
0.0138889
  0
VERTEX
  8
0
 10
1.50396
 20
8.13613
 30
0.0
 40
0.0138889
 41
0.0138889
  0
VERTEX
  8
0
 10
1.51953
 20
8.04324
 30
0.0
 40
0.0138889
 41
0.0138889
  0
VERTEX
  8
0
 10
1.53065
 20
8.01454
 30
0.0
 40
0.0138889
 41
0.0138889
  0
VERTEX
  8
0
 10
1.54172
 20
7.98589
 30
0.0
 40
0.0138889
 41
0.0138889
  0
VERTEX
  8
0
 10
1.59283
 20
7.90679
 30
0.0
 40
0.0138889
 41
0.0138889
  0
VERTEX
  8
0
 10
1.67763
 20
7.83192
 30
0.0
 40
0.0138889
 41
0.0138889
  0
VERTEX
  8
0
 10
1.77399
 20
7.79671
 30
0.0
 40
0.0138889
 41
0.0138889
  0
VERTEX
  8
0
 10
1.84901
 20
7.79915
 30
0.0
 40
0.0138889
 41
0.0138889
  0
VERTEX
  8
0
 10
1.87104
 20
7.80767
 30
0.0
 40
0.0138889
 41
0.0138889
  0
VERTEX
  8
0
 10
1.89301
 20
7.81619
 30
0.0
 40
0.0138889
 41
0.0138889
  0
VERTEX
  8
0
 10
1.95008
 20
7.86496
 30
0.0
 40
0.0138889
 41
0.0138889
  0
VERTEX
  8
0
 10
1.99756
 20
7.95594
 30
0.0
 40
0.0138889
 41
0.0138889
  0
VERTEX
  8
0
 10
2.00971
 20
8.06842
 30
0.0
 40
0.0138889
 41
0.0138889
  0
VERTEX
  8
0
 10
1.99414
 20
8.16129
 30
0.0
 40
0.0138889
 41
0.0138889
  0
VERTEX
  8
0
 10
1.98307
 20
8.18994
 30
0.0
 40
0.0138889
 41
0.0138889
  0
VERTEX
  8
0
 10
1.97194
 20
8.21864
 30
0.0
 40
0.0138889
 41
0.0138889
  0
VERTEX
  8
0
 10
1.92079
 20
8.29769
 30
0.0
 40
0.0138889
 41
0.0138889
  0
VERTEX
  8
0
 10
1.83604
 20
8.37256
 30
0.0
 40
0.0138889
 41
0.0138889
  0
VERTEX
  8
0
 10
1.73964
 20
8.40782
 30
0.0
 40
0.0138889
 41
0.0138889
  0
VERTEX
  8
0
 10
1.66461
 20
8.40533
 30
0.0
 40
0.0138889
 41
0.0138889
  0
VERTEX
  8
0
 10
1.64264
 20
8.39681
 30
0.0
 40
0.0138889
 41
0.0138889
  0
SEQEND
 8
0
  0
POLYLINE
  8
0
 62
     250
 66
     1
 10
0
 20
0
 30
0.0
 70
     1
 40
1
 41
1
  0
VERTEX
  8
0
 10
6.14068
 20
7.85878
 30
0.0
 40
0.0138889
 41
0.0138889
  0
VERTEX
  8
0
 10
6.16325
 20
7.85297
 30
0.0
 40
0.0138889
 41
0.0138889
  0
VERTEX
  8
0
 10
6.23899
 20
7.86638
 30
0.0
 40
0.0138889
 41
0.0138889
  0
VERTEX
  8
0
 10
6.33458
 20
7.93164
 30
0.0
 40
0.0138889
 41
0.0138889
  0
VERTEX
  8
0
 10
6.41661
 20
8.04378
 30
0.0
 40
0.0138889
 41
0.0138889
  0
VERTEX
  8
0
 10
6.46457
 20
8.15386
 30
0.0
 40
0.0138889
 41
0.0138889
  0
VERTEX
  8
0
 10
6.47444
 20
8.19211
 30
0.0
 40
0.0138889
 41
0.0138889
  0
VERTEX
  8
0
 10
6.48432
 20
8.23042
 30
0.0
 40
0.0138889
 41
0.0138889
  0
VERTEX
  8
0
 10
6.49571
 20
8.34993
 30
0.0
 40
0.0138889
 41
0.0138889
  0
VERTEX
  8
0
 10
6.47825
 20
8.48785
 30
0.0
 40
0.0138889
 41
0.0138889
  0
VERTEX
  8
0
 10
6.42622
 20
8.59119
 30
0.0
 40
0.0138889
 41
0.0138889
  0
VERTEX
  8
0
 10
6.36643
 20
8.6396
 30
0.0
 40
0.0138889
 41
0.0138889
  0
VERTEX
  8
0
 10
6.34386
 20
8.6454
 30
0.0
 40
0.0138889
 41
0.0138889
  0
VERTEX
  8
0
 10
6.32124
 20
8.65126
 30
0.0
 40
0.0138889
 41
0.0138889
  0
VERTEX
  8
0
 10
6.2455
 20
8.63786
 30
0.0
 40
0.0138889
 41
0.0138889
  0
VERTEX
  8
0
 10
6.14996
 20
8.57264
 30
0.0
 40
0.0138889
 41
0.0138889
  0
VERTEX
  8
0
 10
6.06793
 20
8.4605
 30
0.0
 40
0.0138889
 41
0.0138889
  0
VERTEX
  8
0
 10
6.02001
 20
8.35037
 30
0.0
 40
0.0138889
 41
0.0138889
  0
VERTEX
  8
0
 10
6.01014
 20
8.31207
 30
0.0
 40
0.0138889
 41
0.0138889
  0
VERTEX
  8
0
 10
6.00022
 20
8.27382
 30
0.0
 40
0.0138889
 41
0.0138889
  0
VERTEX
  8
0
 10
5.98882
 20
8.15429
 30
0.0
 40
0.0138889
 41
0.0138889
  0
VERTEX
  8
0
 10
6.00624
 20
8.01644
 30
0.0
 40
0.0138889
 41
0.0138889
  0
VERTEX
  8
0
 10
6.05826
 20
7.91308
 30
0.0
 40
0.0138889
 41
0.0138889
  0
VERTEX
  8
0
 10
6.11806
 20
7.86464
 30
0.0
 40
0.0138889
 41
0.0138889
  0
VERTEX
  8
0
 10
6.14068
 20
7.85878
 30
0.0
 40
0.0138889
 41
0.0138889
  0
SEQEND
 8
0
  0
POLYLINE
  8
0
 62
     250
 66
     1
 10
0
 20
0
 30
0.0
 70
     1
 40
1
 41
1
  0
VERTEX
  8
0
 10
4.40474
 20
7.34993
 30
0.0
 40
0.0138889
 41
0.0138889
  0
VERTEX
  8
0
 10
4.37831
 20
7.34993
 30
0.0
 40
0.0138889
 41
0.0138889
  0
VERTEX
  8
0
 10
4.29915
 20
7.33931
 30
0.0
 40
0.0138889
 41
0.0138889
  0
VERTEX
  8
0
 10
4.2009
 20
7.30881
 30
0.0
 40
0.0138889
 41
0.0138889
  0
VERTEX
  8
0
 10
4.11193
 20
7.26053
 30
0.0
 40
0.0138889
 41
0.0138889
  0
VERTEX
  8
0
 10
4.03444
 20
7.19656
 30
0.0
 40
0.0138889
 41
0.0138889
  0
VERTEX
  8
0
 10
3.97049
 20
7.11908
 30
0.0
 40
0.0138889
 41
0.0138889
  0
VERTEX
  8
0
 10
3.92219
 20
7.03011
 30
0.0
 40
0.0138889
 41
0.0138889
  0
VERTEX
  8
0
 10
3.89171
 20
6.93186
 30
0.0
 40
0.0138889
 41
0.0138889
  0
VERTEX
  8
0
 10
3.88108
 20
6.85271
 30
0.0
 40
0.0138889
 41
0.0138889
  0
VERTEX
  8
0
 10
3.88108
 20
6.82628
 30
0.0
 40
0.0138889
 41
0.0138889
  0
VERTEX
  8
0
 10
3.88108
 20
6.79992
 30
0.0
 40
0.0138889
 41
0.0138889
  0
VERTEX
  8
0
 10
3.89171
 20
6.72076
 30
0.0
 40
0.0138889
 41
0.0138889
  0
VERTEX
  8
0
 10
3.92219
 20
6.62244
 30
0.0
 40
0.0138889
 41
0.0138889
  0
VERTEX
  8
0
 10
3.97049
 20
6.53353
 30
0.0
 40
0.0138889
 41
0.0138889
  0
VERTEX
  8
0
 10
4.03444
 20
6.456
 30
0.0
 40
0.0138889
 41
0.0138889
  0
VERTEX
  8
0
 10
4.11193
 20
6.39208
 30
0.0
 40
0.0138889
 41
0.0138889
  0
VERTEX
  8
0
 10
4.2009
 20
6.34381
 30
0.0
 40
0.0138889
 41
0.0138889
  0
VERTEX
  8
0
 10
4.29915
 20
6.31332
 30
0.0
 40
0.0138889
 41
0.0138889
  0
VERTEX
  8
0
 10
4.37831
 20
6.30263
 30
0.0
 40
0.0138889
 41
0.0138889
  0
VERTEX
  8
0
 10
4.40474
 20
6.30263
 30
0.0
 40
0.0138889
 41
0.0138889
  0
VERTEX
  8
0
 10
4.4311
 20
6.30263
 30
0.0
 40
0.0138889
 41
0.0138889
  0
VERTEX
  8
0
 10
4.51025
 20
6.31332
 30
0.0
 40
0.0138889
 41
0.0138889
  0
VERTEX
  8
0
 10
4.60856
 20
6.34381
 30
0.0
 40
0.0138889
 41
0.0138889
  0
VERTEX
  8
0
 10
4.69749
 20
6.39208
 30
0.0
 40
0.0138889
 41
0.0138889
  0
VERTEX
  8
0
 10
4.77501
 20
6.456
 30
0.0
 40
0.0138889
 41
0.0138889
  0
VERTEX
  8
0
 10
4.83892
 20
6.53353
 30
0.0
 40
0.0138889
 41
0.0138889
  0
VERTEX
  8
0
 10
4.88721
 20
6.62244
 30
0.0
 40
0.0138889
 41
0.0138889
  0
VERTEX
  8
0
 10
4.91769
 20
6.72076
 30
0.0
 40
0.0138889
 41
0.0138889
  0
VERTEX
  8
0
 10
4.92839
 20
6.79992
 30
0.0
 40
0.0138889
 41
0.0138889
  0
VERTEX
  8
0
 10
4.92839
 20
6.82628
 30
0.0
 40
0.0138889
 41
0.0138889
  0
VERTEX
  8
0
 10
4.92839
 20
6.85271
 30
0.0
 40
0.0138889
 41
0.0138889
  0
VERTEX
  8
0
 10
4.91769
 20
6.93186
 30
0.0
 40
0.0138889
 41
0.0138889
  0
VERTEX
  8
0
 10
4.88721
 20
7.03011
 30
0.0
 40
0.0138889
 41
0.0138889
  0
VERTEX
  8
0
 10
4.83892
 20
7.11908
 30
0.0
 40
0.0138889
 41
0.0138889
  0
VERTEX
  8
0
 10
4.77501
 20
7.19656
 30
0.0
 40
0.0138889
 41
0.0138889
  0
VERTEX
  8
0
 10
4.69749
 20
7.26053
 30
0.0
 40
0.0138889
 41
0.0138889
  0
VERTEX
  8
0
 10
4.60856
 20
7.30881
 30
0.0
 40
0.0138889
 41
0.0138889
  0
VERTEX
  8
0
 10
4.51025
 20
7.33931
 30
0.0
 40
0.0138889
 41
0.0138889
  0
VERTEX
  8
0
 10
4.4311
 20
7.34993
 30
0.0
 40
0.0138889
 41
0.0138889
  0
VERTEX
  8
0
 10
4.40474
 20
7.34993
 30
0.0
 40
0.0138889
 41
0.0138889
  0
SEQEND
 8
0
  0
POLYLINE
  8
0
 62
     250
 66
     1
 10
0
 20
0
 30
0.0
 70
     1
 40
1
 41
1
  0
VERTEX
  8
0
 10
5.68946
 20
7.63965
 30
0.0
 40
0.0138889
 41
0.0138889
  0
VERTEX
  8
0
 10
5.68946
 20
7.6665
 30
0.0
 40
0.0138889
 41
0.0138889
  0
VERTEX
  8
0
 10
5.66417
 20
7.74701
 30
0.0
 40
0.0138889
 41
0.0138889
  0
VERTEX
  8
0
 10
5.59532
 20
7.83469
 30
0.0
 40
0.0138889
 41
0.0138889
  0
VERTEX
  8
0
 10
5.49328
 20
7.89378
 30
0.0
 40
0.0138889
 41
0.0138889
  0
VERTEX
  8
0
 10
5.39953
 20
7.91542
 30
0.0
 40
0.0138889
 41
0.0138889
  0
VERTEX
  8
0
 10
5.36828
 20
7.91542
 30
0.0
 40
0.0138889
 41
0.0138889
  0
VERTEX
  8
0
 10
5.33697
 20
7.91542
 30
0.0
 40
0.0138889
 41
0.0138889
  0
VERTEX
  8
0
 10
5.24322
 20
7.89378
 30
0.0
 40
0.0138889
 41
0.0138889
  0
VERTEX
  8
0
 10
5.14111
 20
7.83469
 30
0.0
 40
0.0138889
 41
0.0138889
  0
VERTEX
  8
0
 10
5.07232
 20
7.74701
 30
0.0
 40
0.0138889
 41
0.0138889
  0
VERTEX
  8
0
 10
5.0471
 20
7.6665
 30
0.0
 40
0.0138889
 41
0.0138889
  0
VERTEX
  8
0
 10
5.0471
 20
7.63965
 30
0.0
 40
0.0138889
 41
0.0138889
  0
VERTEX
  8
0
 10
5.0471
 20
7.61285
 30
0.0
 40
0.0138889
 41
0.0138889
  0
VERTEX
  8
0
 10
5.07232
 20
7.53233
 30
0.0
 40
0.0138889
 41
0.0138889
  0
VERTEX
  8
0
 10
5.14111
 20
7.44467
 30
0.0
 40
0.0138889
 41
0.0138889
  0
VERTEX
  8
0
 10
5.24322
 20
7.38558
 30
0.0
 40
0.0138889
 41
0.0138889
  0
VERTEX
  8
0
 10
5.33697
 20
7.36387
 30
0.0
 40
0.0138889
 41
0.0138889
  0
VERTEX
  8
0
 10
5.36828
 20
7.36387
 30
0.0
 40
0.0138889
 41
0.0138889
  0
VERTEX
  8
0
 10
5.39953
 20
7.36387
 30
0.0
 40
0.0138889
 41
0.0138889
  0
VERTEX
  8
0
 10
5.49328
 20
7.38558
 30
0.0
 40
0.0138889
 41
0.0138889
  0
VERTEX
  8
0
 10
5.59532
 20
7.44467
 30
0.0
 40
0.0138889
 41
0.0138889
  0
VERTEX
  8
0
 10
5.66417
 20
7.53233
 30
0.0
 40
0.0138889
 41
0.0138889
  0
VERTEX
  8
0
 10
5.68946
 20
7.61285
 30
0.0
 40
0.0138889
 41
0.0138889
  0
VERTEX
  8
0
 10
5.68946
 20
7.63965
 30
0.0
 40
0.0138889
 41
0.0138889
  0
SEQEND
 8
0
  0
POLYLINE
  8
0
 62
     250
 66
     1
 10
0
 20
0
 30
0.0
 70
     1
 40
1
 41
1
  0
VERTEX
  8
0
 10
4.40474
 20
7.34993
 30
0.0
 40
0.0138889
 41
0.0138889
  0
VERTEX
  8
0
 10
4.37831
 20
7.34993
 30
0.0
 40
0.0138889
 41
0.0138889
  0
VERTEX
  8
0
 10
4.29915
 20
7.33931
 30
0.0
 40
0.0138889
 41
0.0138889
  0
VERTEX
  8
0
 10
4.2009
 20
7.30881
 30
0.0
 40
0.0138889
 41
0.0138889
  0
VERTEX
  8
0
 10
4.11193
 20
7.26053
 30
0.0
 40
0.0138889
 41
0.0138889
  0
VERTEX
  8
0
 10
4.03444
 20
7.19656
 30
0.0
 40
0.0138889
 41
0.0138889
  0
VERTEX
  8
0
 10
3.97049
 20
7.11908
 30
0.0
 40
0.0138889
 41
0.0138889
  0
VERTEX
  8
0
 10
3.92219
 20
7.03011
 30
0.0
 40
0.0138889
 41
0.0138889
  0
VERTEX
  8
0
 10
3.89171
 20
6.93186
 30
0.0
 40
0.0138889
 41
0.0138889
  0
VERTEX
  8
0
 10
3.88108
 20
6.85271
 30
0.0
 40
0.0138889
 41
0.0138889
  0
VERTEX
  8
0
 10
3.88108
 20
6.82628
 30
0.0
 40
0.0138889
 41
0.0138889
  0
VERTEX
  8
0
 10
3.88108
 20
6.79992
 30
0.0
 40
0.0138889
 41
0.0138889
  0
VERTEX
  8
0
 10
3.89171
 20
6.72076
 30
0.0
 40
0.0138889
 41
0.0138889
  0
VERTEX
  8
0
 10
3.92219
 20
6.62244
 30
0.0
 40
0.0138889
 41
0.0138889
  0
VERTEX
  8
0
 10
3.97049
 20
6.53353
 30
0.0
 40
0.0138889
 41
0.0138889
  0
VERTEX
  8
0
 10
4.03444
 20
6.456
 30
0.0
 40
0.0138889
 41
0.0138889
  0
VERTEX
  8
0
 10
4.11193
 20
6.39208
 30
0.0
 40
0.0138889
 41
0.0138889
  0
VERTEX
  8
0
 10
4.2009
 20
6.34381
 30
0.0
 40
0.0138889
 41
0.0138889
  0
VERTEX
  8
0
 10
4.29915
 20
6.31332
 30
0.0
 40
0.0138889
 41
0.0138889
  0
VERTEX
  8
0
 10
4.37831
 20
6.30263
 30
0.0
 40
0.0138889
 41
0.0138889
  0
VERTEX
  8
0
 10
4.40474
 20
6.30263
 30
0.0
 40
0.0138889
 41
0.0138889
  0
VERTEX
  8
0
 10
4.4311
 20
6.30263
 30
0.0
 40
0.0138889
 41
0.0138889
  0
VERTEX
  8
0
 10
4.51025
 20
6.31332
 30
0.0
 40
0.0138889
 41
0.0138889
  0
VERTEX
  8
0
 10
4.60856
 20
6.34381
 30
0.0
 40
0.0138889
 41
0.0138889
  0
VERTEX
  8
0
 10
4.69749
 20
6.39208
 30
0.0
 40
0.0138889
 41
0.0138889
  0
VERTEX
  8
0
 10
4.77501
 20
6.456
 30
0.0
 40
0.0138889
 41
0.0138889
  0
VERTEX
  8
0
 10
4.83892
 20
6.53353
 30
0.0
 40
0.0138889
 41
0.0138889
  0
VERTEX
  8
0
 10
4.88721
 20
6.62244
 30
0.0
 40
0.0138889
 41
0.0138889
  0
VERTEX
  8
0
 10
4.91769
 20
6.72076
 30
0.0
 40
0.0138889
 41
0.0138889
  0
VERTEX
  8
0
 10
4.92839
 20
6.79992
 30
0.0
 40
0.0138889
 41
0.0138889
  0
VERTEX
  8
0
 10
4.92839
 20
6.82628
 30
0.0
 40
0.0138889
 41
0.0138889
  0
VERTEX
  8
0
 10
4.92839
 20
6.85271
 30
0.0
 40
0.0138889
 41
0.0138889
  0
VERTEX
  8
0
 10
4.91769
 20
6.93186
 30
0.0
 40
0.0138889
 41
0.0138889
  0
VERTEX
  8
0
 10
4.88721
 20
7.03011
 30
0.0
 40
0.0138889
 41
0.0138889
  0
VERTEX
  8
0
 10
4.83892
 20
7.11908
 30
0.0
 40
0.0138889
 41
0.0138889
  0
VERTEX
  8
0
 10
4.77501
 20
7.19656
 30
0.0
 40
0.0138889
 41
0.0138889
  0
VERTEX
  8
0
 10
4.69749
 20
7.26053
 30
0.0
 40
0.0138889
 41
0.0138889
  0
VERTEX
  8
0
 10
4.60856
 20
7.30881
 30
0.0
 40
0.0138889
 41
0.0138889
  0
VERTEX
  8
0
 10
4.51025
 20
7.33931
 30
0.0
 40
0.0138889
 41
0.0138889
  0
VERTEX
  8
0
 10
4.4311
 20
7.34993
 30
0.0
 40
0.0138889
 41
0.0138889
  0
VERTEX
  8
0
 10
4.40474
 20
7.34993
 30
0.0
 40
0.0138889
 41
0.0138889
  0
SEQEND
 8
0
  0
POLYLINE
  8
0
 62
     250
 66
     1
 10
0
 20
0
 30
0.0
 70
     1
 40
1
 41
1
  0
VERTEX
  8
0
 10
1.64264
 20
8.39681
 30
0.0
 40
0.0138889
 41
0.0138889
  0
VERTEX
  8
0
 10
1.62061
 20
8.38829
 30
0.0
 40
0.0138889
 41
0.0138889
  0
VERTEX
  8
0
 10
1.56353
 20
8.33951
 30
0.0
 40
0.0138889
 41
0.0138889
  0
VERTEX
  8
0
 10
1.51611
 20
8.24854
 30
0.0
 40
0.0138889
 41
0.0138889
  0
VERTEX
  8
0
 10
1.50396
 20
8.13613
 30
0.0
 40
0.0138889
 41
0.0138889
  0
VERTEX
  8
0
 10
1.51953
 20
8.04324
 30
0.0
 40
0.0138889
 41
0.0138889
  0
VERTEX
  8
0
 10
1.53065
 20
8.01454
 30
0.0
 40
0.0138889
 41
0.0138889
  0
VERTEX
  8
0
 10
1.54172
 20
7.98589
 30
0.0
 40
0.0138889
 41
0.0138889
  0
VERTEX
  8
0
 10
1.59283
 20
7.90679
 30
0.0
 40
0.0138889
 41
0.0138889
  0
VERTEX
  8
0
 10
1.67763
 20
7.83192
 30
0.0
 40
0.0138889
 41
0.0138889
  0
VERTEX
  8
0
 10
1.77399
 20
7.79671
 30
0.0
 40
0.0138889
 41
0.0138889
  0
VERTEX
  8
0
 10
1.84901
 20
7.79915
 30
0.0
 40
0.0138889
 41
0.0138889
  0
VERTEX
  8
0
 10
1.87104
 20
7.80767
 30
0.0
 40
0.0138889
 41
0.0138889
  0
VERTEX
  8
0
 10
1.89301
 20
7.81619
 30
0.0
 40
0.0138889
 41
0.0138889
  0
VERTEX
  8
0
 10
1.95008
 20
7.86496
 30
0.0
 40
0.0138889
 41
0.0138889
  0
VERTEX
  8
0
 10
1.99756
 20
7.95594
 30
0.0
 40
0.0138889
 41
0.0138889
  0
VERTEX
  8
0
 10
2.00971
 20
8.06842
 30
0.0
 40
0.0138889
 41
0.0138889
  0
VERTEX
  8
0
 10
1.99414
 20
8.16129
 30
0.0
 40
0.0138889
 41
0.0138889
  0
VERTEX
  8
0
 10
1.98307
 20
8.18994
 30
0.0
 40
0.0138889
 41
0.0138889
  0
VERTEX
  8
0
 10
1.97194
 20
8.21864
 30
0.0
 40
0.0138889
 41
0.0138889
  0
VERTEX
  8
0
 10
1.92079
 20
8.29769
 30
0.0
 40
0.0138889
 41
0.0138889
  0
VERTEX
  8
0
 10
1.83604
 20
8.37256
 30
0.0
 40
0.0138889
 41
0.0138889
  0
VERTEX
  8
0
 10
1.73964
 20
8.40782
 30
0.0
 40
0.0138889
 41
0.0138889
  0
VERTEX
  8
0
 10
1.66461
 20
8.40533
 30
0.0
 40
0.0138889
 41
0.0138889
  0
VERTEX
  8
0
 10
1.64264
 20
8.39681
 30
0.0
 40
0.0138889
 41
0.0138889
  0
SEQEND
 8
0
  0
POLYLINE
  8
0
 62
     250
 66
     1
 10
0
 20
0
 30
0.0
 70
     1
 40
1
 41
1
  0
VERTEX
  8
0
 10
2.21983
 20
7.71625
 30
0.0
 40
0.0138889
 41
0.0138889
  0
VERTEX
  8
0
 10
2.20426
 20
7.70204
 30
0.0
 40
0.0138889
 41
0.0138889
  0
VERTEX
  8
0
 10
2.16396
 20
7.65224
 30
0.0
 40
0.0138889
 41
0.0138889
  0
VERTEX
  8
0
 10
2.1244
 20
7.57894
 30
0.0
 40
0.0138889
 41
0.0138889
  0
VERTEX
  8
0
 10
2.10113
 20
7.49892
 30
0.0
 40
0.0138889
 41
0.0138889
  0
VERTEX
  8
0
 10
2.09412
 20
7.41471
 30
0.0
 40
0.0138889
 41
0.0138889
  0
VERTEX
  8
0
 10
2.10335
 20
7.32889
 30
0.0
 40
0.0138889
 41
0.0138889
  0
VERTEX
  8
0
 10
2.12869
 20
7.24393
 30
0.0
 40
0.0138889
 41
0.0138889
  0
VERTEX
  8
0
 10
2.17025
 20
7.16237
 30
0.0
 40
0.0138889
 41
0.0138889
  0
VERTEX
  8
0
 10
2.21192
 20
7.10422
 30
0.0
 40
0.0138889
 41
0.0138889
  0
VERTEX
  8
0
 10
2.22792
 20
7.08675
 30
0.0
 40
0.0138889
 41
0.0138889
  0
VERTEX
  8
0
 10
2.25874
 20
7.05306
 30
0.0
 40
0.0138889
 41
0.0138889
  0
VERTEX
  8
0
 10
2.37565
 20
6.97407
 30
0.0
 40
0.0138889
 41
0.0138889
  0
VERTEX
  8
0
 10
2.54275
 20
6.92453
 30
0.0
 40
0.0138889
 41
0.0138889
  0
VERTEX
  8
0
 10
2.70899
 20
6.94015
 30
0.0
 40
0.0138889
 41
0.0138889
  0
VERTEX
  8
0
 10
2.82417
 20
6.9955
 30
0.0
 40
0.0138889
 41
0.0138889
  0
VERTEX
  8
0
 10
2.85428
 20
7.023
 30
0.0
 40
0.0138889
 41
0.0138889
  0
VERTEX
  8
0
 10
2.86985
 20
7.03728
 30
0.0
 40
0.0138889
 41
0.0138889
  0
VERTEX
  8
0
 10
2.9101
 20
7.08708
 30
0.0
 40
0.0138889
 41
0.0138889
  0
VERTEX
  8
0
 10
2.94965
 20
7.16038
 30
0.0
 40
0.0138889
 41
0.0138889
  0
VERTEX
  8
0
 10
2.97287
 20
7.2404
 30
0.0
 40
0.0138889
 41
0.0138889
  0
VERTEX
  8
0
 10
2.97993
 20
7.3246
 30
0.0
 40
0.0138889
 41
0.0138889
  0
VERTEX
  8
0
 10
2.97071
 20
7.41043
 30
0.0
 40
0.0138889
 41
0.0138889
  0
VERTEX
  8
0
 10
2.94532
 20
7.49539
 30
0.0
 40
0.0138889
 41
0.0138889
  0
VERTEX
  8
0
 10
2.90381
 20
7.57693
 30
0.0
 40
0.0138889
 41
0.0138889
  0
VERTEX
  8
0
 10
2.86214
 20
7.6351
 30
0.0
 40
0.0138889
 41
0.0138889
  0
VERTEX
  8
0
 10
2.84619
 20
7.6525
 30
0.0
 40
0.0138889
 41
0.0138889
  0
VERTEX
  8
0
 10
2.81526
 20
7.68625
 30
0.0
 40
0.0138889
 41
0.0138889
  0
VERTEX
  8
0
 10
2.69835
 20
7.76525
 30
0.0
 40
0.0138889
 41
0.0138889
  0
VERTEX
  8
0
 10
2.53131
 20
7.81478
 30
0.0
 40
0.0138889
 41
0.0138889
  0
VERTEX
  8
0
 10
2.36507
 20
7.79915
 30
0.0
 40
0.0138889
 41
0.0138889
  0
VERTEX
  8
0
 10
2.24989
 20
7.74382
 30
0.0
 40
0.0138889
 41
0.0138889
  0
VERTEX
  8
0
 10
2.21983
 20
7.71625
 30
0.0
 40
0.0138889
 41
0.0138889
  0
SEQEND
 8
0
  0
POLYLINE
  8
0
 62
     250
 66
     1
 10
0
 20
0
 30
0.0
 70
     1
 40
1
 41
1
  0
VERTEX
  8
0
 10
6.34386
 20
8.6454
 30
0.0
 40
0.0138889
 41
0.0138889
  0
VERTEX
  8
0
 10
6.32124
 20
8.65126
 30
0.0
 40
0.0138889
 41
0.0138889
  0
VERTEX
  8
0
 10
6.2455
 20
8.63786
 30
0.0
 40
0.0138889
 41
0.0138889
  0
VERTEX
  8
0
 10
6.14996
 20
8.57264
 30
0.0
 40
0.0138889
 41
0.0138889
  0
VERTEX
  8
0
 10
6.06793
 20
8.4605
 30
0.0
 40
0.0138889
 41
0.0138889
  0
VERTEX
  8
0
 10
6.02001
 20
8.35037
 30
0.0
 40
0.0138889
 41
0.0138889
  0
VERTEX
  8
0
 10
6.01014
 20
8.31207
 30
0.0
 40
0.0138889
 41
0.0138889
  0
VERTEX
  8
0
 10
6.00022
 20
8.27382
 30
0.0
 40
0.0138889
 41
0.0138889
  0
VERTEX
  8
0
 10
5.98882
 20
8.15429
 30
0.0
 40
0.0138889
 41
0.0138889
  0
VERTEX
  8
0
 10
6.00624
 20
8.01644
 30
0.0
 40
0.0138889
 41
0.0138889
  0
VERTEX
  8
0
 10
6.05826
 20
7.91308
 30
0.0
 40
0.0138889
 41
0.0138889
  0
VERTEX
  8
0
 10
6.11806
 20
7.86464
 30
0.0
 40
0.0138889
 41
0.0138889
  0
VERTEX
  8
0
 10
6.14068
 20
7.85878
 30
0.0
 40
0.0138889
 41
0.0138889
  0
VERTEX
  8
0
 10
6.16325
 20
7.85297
 30
0.0
 40
0.0138889
 41
0.0138889
  0
VERTEX
  8
0
 10
6.23904
 20
7.86638
 30
0.0
 40
0.0138889
 41
0.0138889
  0
VERTEX
  8
0
 10
6.33458
 20
7.93164
 30
0.0
 40
0.0138889
 41
0.0138889
  0
VERTEX
  8
0
 10
6.41661
 20
8.04378
 30
0.0
 40
0.0138889
 41
0.0138889
  0
VERTEX
  8
0
 10
6.46457
 20
8.15386
 30
0.0
 40
0.0138889
 41
0.0138889
  0
VERTEX
  8
0
 10
6.47444
 20
8.19211
 30
0.0
 40
0.0138889
 41
0.0138889
  0
VERTEX
  8
0
 10
6.48432
 20
8.23042
 30
0.0
 40
0.0138889
 41
0.0138889
  0
VERTEX
  8
0
 10
6.49571
 20
8.34993
 30
0.0
 40
0.0138889
 41
0.0138889
  0
VERTEX
  8
0
 10
6.47825
 20
8.48785
 30
0.0
 40
0.0138889
 41
0.0138889
  0
VERTEX
  8
0
 10
6.42622
 20
8.59119
 30
0.0
 40
0.0138889
 41
0.0138889
  0
VERTEX
  8
0
 10
6.36643
 20
8.6396
 30
0.0
 40
0.0138889
 41
0.0138889
  0
VERTEX
  8
0
 10
6.34386
 20
8.6454
 30
0.0
 40
0.0138889
 41
0.0138889
  0
SEQEND
 8
0
  0
POLYLINE
  8
0
 62
     250
 66
     1
 10
0
 20
0
 30
0.0
 70
     1
 40
1
 41
1
  0
VERTEX
  8
0
 10
5.36828
 20
7.91542
 30
0.0
 40
0.0138889
 41
0.0138889
  0
VERTEX
  8
0
 10
5.33697
 20
7.91542
 30
0.0
 40
0.0138889
 41
0.0138889
  0
VERTEX
  8
0
 10
5.24322
 20
7.89378
 30
0.0
 40
0.0138889
 41
0.0138889
  0
VERTEX
  8
0
 10
5.14117
 20
7.83469
 30
0.0
 40
0.0138889
 41
0.0138889
  0
VERTEX
  8
0
 10
5.07232
 20
7.74701
 30
0.0
 40
0.0138889
 41
0.0138889
  0
VERTEX
  8
0
 10
5.0471
 20
7.6665
 30
0.0
 40
0.0138889
 41
0.0138889
  0
VERTEX
  8
0
 10
5.0471
 20
7.63965
 30
0.0
 40
0.0138889
 41
0.0138889
  0
VERTEX
  8
0
 10
5.0471
 20
7.61285
 30
0.0
 40
0.0138889
 41
0.0138889
  0
VERTEX
  8
0
 10
5.07232
 20
7.53233
 30
0.0
 40
0.0138889
 41
0.0138889
  0
VERTEX
  8
0
 10
5.14117
 20
7.44467
 30
0.0
 40
0.0138889
 41
0.0138889
  0
VERTEX
  8
0
 10
5.24322
 20
7.38558
 30
0.0
 40
0.0138889
 41
0.0138889
  0
VERTEX
  8
0
 10
5.33697
 20
7.36387
 30
0.0
 40
0.0138889
 41
0.0138889
  0
VERTEX
  8
0
 10
5.36828
 20
7.36387
 30
0.0
 40
0.0138889
 41
0.0138889
  0
VERTEX
  8
0
 10
5.39953
 20
7.36387
 30
0.0
 40
0.0138889
 41
0.0138889
  0
VERTEX
  8
0
 10
5.49328
 20
7.38558
 30
0.0
 40
0.0138889
 41
0.0138889
  0
VERTEX
  8
0
 10
5.59532
 20
7.44467
 30
0.0
 40
0.0138889
 41
0.0138889
  0
VERTEX
  8
0
 10
5.66417
 20
7.53233
 30
0.0
 40
0.0138889
 41
0.0138889
  0
VERTEX
  8
0
 10
5.68946
 20
7.61285
 30
0.0
 40
0.0138889
 41
0.0138889
  0
VERTEX
  8
0
 10
5.68946
 20
7.63965
 30
0.0
 40
0.0138889
 41
0.0138889
  0
VERTEX
  8
0
 10
5.68946
 20
7.6665
 30
0.0
 40
0.0138889
 41
0.0138889
  0
VERTEX
  8
0
 10
5.66417
 20
7.74701
 30
0.0
 40
0.0138889
 41
0.0138889
  0
VERTEX
  8
0
 10
5.59532
 20
7.83469
 30
0.0
 40
0.0138889
 41
0.0138889
  0
VERTEX
  8
0
 10
5.49328
 20
7.89378
 30
0.0
 40
0.0138889
 41
0.0138889
  0
VERTEX
  8
0
 10
5.39953
 20
7.91542
 30
0.0
 40
0.0138889
 41
0.0138889
  0
VERTEX
  8
0
 10
5.36828
 20
7.91542
 30
0.0
 40
0.0138889
 41
0.0138889
  0
SEQEND
 8
0
  0
POLYLINE
  8
0
 62
     250
 66
     1
 10
0
 20
0
 30
0.0
 70
     1
 40
1
 41
1
  0
VERTEX
  8
0
 10
5.36828
 20
7.91542
 30
0.0
 40
0.0138889
 41
0.0138889
  0
VERTEX
  8
0
 10
5.33697
 20
7.91542
 30
0.0
 40
0.0138889
 41
0.0138889
  0
VERTEX
  8
0
 10
5.24322
 20
7.89378
 30
0.0
 40
0.0138889
 41
0.0138889
  0
VERTEX
  8
0
 10
5.14117
 20
7.83469
 30
0.0
 40
0.0138889
 41
0.0138889
  0
VERTEX
  8
0
 10
5.07232
 20
7.74701
 30
0.0
 40
0.0138889
 41
0.0138889
  0
VERTEX
  8
0
 10
5.0471
 20
7.6665
 30
0.0
 40
0.0138889
 41
0.0138889
  0
VERTEX
  8
0
 10
5.0471
 20
7.63965
 30
0.0
 40
0.0138889
 41
0.0138889
  0
VERTEX
  8
0
 10
5.0471
 20
7.61285
 30
0.0
 40
0.0138889
 41
0.0138889
  0
VERTEX
  8
0
 10
5.07232
 20
7.53233
 30
0.0
 40
0.0138889
 41
0.0138889
  0
VERTEX
  8
0
 10
5.14117
 20
7.44467
 30
0.0
 40
0.0138889
 41
0.0138889
  0
VERTEX
  8
0
 10
5.24322
 20
7.38558
 30
0.0
 40
0.0138889
 41
0.0138889
  0
VERTEX
  8
0
 10
5.33697
 20
7.36387
 30
0.0
 40
0.0138889
 41
0.0138889
  0
VERTEX
  8
0
 10
5.36828
 20
7.36387
 30
0.0
 40
0.0138889
 41
0.0138889
  0
VERTEX
  8
0
 10
5.39953
 20
7.36387
 30
0.0
 40
0.0138889
 41
0.0138889
  0
VERTEX
  8
0
 10
5.49328
 20
7.38558
 30
0.0
 40
0.0138889
 41
0.0138889
  0
VERTEX
  8
0
 10
5.59532
 20
7.44467
 30
0.0
 40
0.0138889
 41
0.0138889
  0
VERTEX
  8
0
 10
5.66417
 20
7.53233
 30
0.0
 40
0.0138889
 41
0.0138889
  0
VERTEX
  8
0
 10
5.68946
 20
7.61285
 30
0.0
 40
0.0138889
 41
0.0138889
  0
VERTEX
  8
0
 10
5.68946
 20
7.63965
 30
0.0
 40
0.0138889
 41
0.0138889
  0
VERTEX
  8
0
 10
5.68946
 20
7.6665
 30
0.0
 40
0.0138889
 41
0.0138889
  0
VERTEX
  8
0
 10
5.66417
 20
7.74701
 30
0.0
 40
0.0138889
 41
0.0138889
  0
VERTEX
  8
0
 10
5.59532
 20
7.83469
 30
0.0
 40
0.0138889
 41
0.0138889
  0
VERTEX
  8
0
 10
5.49328
 20
7.89378
 30
0.0
 40
0.0138889
 41
0.0138889
  0
VERTEX
  8
0
 10
5.39953
 20
7.91542
 30
0.0
 40
0.0138889
 41
0.0138889
  0
VERTEX
  8
0
 10
5.36828
 20
7.91542
 30
0.0
 40
0.0138889
 41
0.0138889
  0
SEQEND
 8
0
  0
POLYLINE
  8
0
 62
     250
 66
     1
 10
0
 20
0
 30
0.0
 70
     1
 40
1
 41
1
  0
VERTEX
  8
0
 10
2.21983
 20
7.71625
 30
0.0
 40
0.0138889
 41
0.0138889
  0
VERTEX
  8
0
 10
2.20426
 20
7.70204
 30
0.0
 40
0.0138889
 41
0.0138889
  0
VERTEX
  8
0
 10
2.16396
 20
7.65224
 30
0.0
 40
0.0138889
 41
0.0138889
  0
VERTEX
  8
0
 10
2.1244
 20
7.57894
 30
0.0
 40
0.0138889
 41
0.0138889
  0
VERTEX
  8
0
 10
2.10113
 20
7.49892
 30
0.0
 40
0.0138889
 41
0.0138889
  0
VERTEX
  8
0
 10
2.09412
 20
7.41471
 30
0.0
 40
0.0138889
 41
0.0138889
  0
VERTEX
  8
0
 10
2.10335
 20
7.32889
 30
0.0
 40
0.0138889
 41
0.0138889
  0
VERTEX
  8
0
 10
2.12869
 20
7.24393
 30
0.0
 40
0.0138889
 41
0.0138889
  0
VERTEX
  8
0
 10
2.17025
 20
7.16237
 30
0.0
 40
0.0138889
 41
0.0138889
  0
VERTEX
  8
0
 10
2.21192
 20
7.10422
 30
0.0
 40
0.0138889
 41
0.0138889
  0
VERTEX
  8
0
 10
2.22792
 20
7.08675
 30
0.0
 40
0.0138889
 41
0.0138889
  0
VERTEX
  8
0
 10
2.25874
 20
7.05306
 30
0.0
 40
0.0138889
 41
0.0138889
  0
VERTEX
  8
0
 10
2.37565
 20
6.97407
 30
0.0
 40
0.0138889
 41
0.0138889
  0
VERTEX
  8
0
 10
2.54275
 20
6.92453
 30
0.0
 40
0.0138889
 41
0.0138889
  0
VERTEX
  8
0
 10
2.70899
 20
6.94015
 30
0.0
 40
0.0138889
 41
0.0138889
  0
VERTEX
  8
0
 10
2.82417
 20
6.9955
 30
0.0
 40
0.0138889
 41
0.0138889
  0
VERTEX
  8
0
 10
2.85428
 20
7.023
 30
0.0
 40
0.0138889
 41
0.0138889
  0
VERTEX
  8
0
 10
2.86985
 20
7.03728
 30
0.0
 40
0.0138889
 41
0.0138889
  0
VERTEX
  8
0
 10
2.9101
 20
7.08708
 30
0.0
 40
0.0138889
 41
0.0138889
  0
VERTEX
  8
0
 10
2.94965
 20
7.16038
 30
0.0
 40
0.0138889
 41
0.0138889
  0
VERTEX
  8
0
 10
2.97287
 20
7.2404
 30
0.0
 40
0.0138889
 41
0.0138889
  0
VERTEX
  8
0
 10
2.97993
 20
7.3246
 30
0.0
 40
0.0138889
 41
0.0138889
  0
VERTEX
  8
0
 10
2.97071
 20
7.41043
 30
0.0
 40
0.0138889
 41
0.0138889
  0
VERTEX
  8
0
 10
2.94532
 20
7.49539
 30
0.0
 40
0.0138889
 41
0.0138889
  0
VERTEX
  8
0
 10
2.90381
 20
7.57693
 30
0.0
 40
0.0138889
 41
0.0138889
  0
VERTEX
  8
0
 10
2.86214
 20
7.6351
 30
0.0
 40
0.0138889
 41
0.0138889
  0
VERTEX
  8
0
 10
2.84619
 20
7.6525
 30
0.0
 40
0.0138889
 41
0.0138889
  0
VERTEX
  8
0
 10
2.81526
 20
7.68625
 30
0.0
 40
0.0138889
 41
0.0138889
  0
VERTEX
  8
0
 10
2.69835
 20
7.76525
 30
0.0
 40
0.0138889
 41
0.0138889
  0
VERTEX
  8
0
 10
2.53131
 20
7.81478
 30
0.0
 40
0.0138889
 41
0.0138889
  0
VERTEX
  8
0
 10
2.36507
 20
7.79915
 30
0.0
 40
0.0138889
 41
0.0138889
  0
VERTEX
  8
0
 10
2.24989
 20
7.74382
 30
0.0
 40
0.0138889
 41
0.0138889
  0
VERTEX
  8
0
 10
2.21983
 20
7.71625
 30
0.0
 40
0.0138889
 41
0.0138889
  0
SEQEND
 8
0
  0
POLYLINE
  8
0
 62
     250
 66
     1
 10
0
 20
0
 30
0.0
 70
     1
 40
1
 41
1
  0
VERTEX
  8
0
 10
1.64264
 20
8.39681
 30
0.0
 40
0.0138889
 41
0.0138889
  0
VERTEX
  8
0
 10
1.62061
 20
8.38829
 30
0.0
 40
0.0138889
 41
0.0138889
  0
VERTEX
  8
0
 10
1.56353
 20
8.33951
 30
0.0
 40
0.0138889
 41
0.0138889
  0
VERTEX
  8
0
 10
1.51611
 20
8.24854
 30
0.0
 40
0.0138889
 41
0.0138889
  0
VERTEX
  8
0
 10
1.50396
 20
8.13613
 30
0.0
 40
0.0138889
 41
0.0138889
  0
VERTEX
  8
0
 10
1.51953
 20
8.04324
 30
0.0
 40
0.0138889
 41
0.0138889
  0
VERTEX
  8
0
 10
1.53065
 20
8.01454
 30
0.0
 40
0.0138889
 41
0.0138889
  0
VERTEX
  8
0
 10
1.54172
 20
7.98589
 30
0.0
 40
0.0138889
 41
0.0138889
  0
VERTEX
  8
0
 10
1.59283
 20
7.90679
 30
0.0
 40
0.0138889
 41
0.0138889
  0
VERTEX
  8
0
 10
1.67763
 20
7.83192
 30
0.0
 40
0.0138889
 41
0.0138889
  0
VERTEX
  8
0
 10
1.77399
 20
7.79671
 30
0.0
 40
0.0138889
 41
0.0138889
  0
VERTEX
  8
0
 10
1.84901
 20
7.79915
 30
0.0
 40
0.0138889
 41
0.0138889
  0
VERTEX
  8
0
 10
1.87104
 20
7.80767
 30
0.0
 40
0.0138889
 41
0.0138889
  0
VERTEX
  8
0
 10
1.89301
 20
7.81619
 30
0.0
 40
0.0138889
 41
0.0138889
  0
VERTEX
  8
0
 10
1.95008
 20
7.86496
 30
0.0
 40
0.0138889
 41
0.0138889
  0
VERTEX
  8
0
 10
1.99756
 20
7.95594
 30
0.0
 40
0.0138889
 41
0.0138889
  0
VERTEX
  8
0
 10
2.00971
 20
8.06842
 30
0.0
 40
0.0138889
 41
0.0138889
  0
VERTEX
  8
0
 10
1.99414
 20
8.16129
 30
0.0
 40
0.0138889
 41
0.0138889
  0
VERTEX
  8
0
 10
1.98307
 20
8.18994
 30
0.0
 40
0.0138889
 41
0.0138889
  0
VERTEX
  8
0
 10
1.97194
 20
8.21864
 30
0.0
 40
0.0138889
 41
0.0138889
  0
VERTEX
  8
0
 10
1.92079
 20
8.29769
 30
0.0
 40
0.0138889
 41
0.0138889
  0
VERTEX
  8
0
 10
1.83604
 20
8.37256
 30
0.0
 40
0.0138889
 41
0.0138889
  0
VERTEX
  8
0
 10
1.73964
 20
8.40782
 30
0.0
 40
0.0138889
 41
0.0138889
  0
VERTEX
  8
0
 10
1.66461
 20
8.40533
 30
0.0
 40
0.0138889
 41
0.0138889
  0
VERTEX
  8
0
 10
1.64264
 20
8.39681
 30
0.0
 40
0.0138889
 41
0.0138889
  0
SEQEND
 8
0
  0
POLYLINE
  8
0
 62
     250
 66
     1
 10
0
 20
0
 30
0.0
 70
     1
 40
1
 41
1
  0
VERTEX
  8
0
 10
4.40474
 20
7.34993
 30
0.0
 40
0.0138889
 41
0.0138889
  0
VERTEX
  8
0
 10
4.37831
 20
7.34993
 30
0.0
 40
0.0138889
 41
0.0138889
  0
VERTEX
  8
0
 10
4.29915
 20
7.33931
 30
0.0
 40
0.0138889
 41
0.0138889
  0
VERTEX
  8
0
 10
4.2009
 20
7.30881
 30
0.0
 40
0.0138889
 41
0.0138889
  0
VERTEX
  8
0
 10
4.11193
 20
7.26053
 30
0.0
 40
0.0138889
 41
0.0138889
  0
VERTEX
  8
0
 10
4.03444
 20
7.19656
 30
0.0
 40
0.0138889
 41
0.0138889
  0
VERTEX
  8
0
 10
3.97049
 20
7.11908
 30
0.0
 40
0.0138889
 41
0.0138889
  0
VERTEX
  8
0
 10
3.92219
 20
7.03011
 30
0.0
 40
0.0138889
 41
0.0138889
  0
VERTEX
  8
0
 10
3.89171
 20
6.93186
 30
0.0
 40
0.0138889
 41
0.0138889
  0
VERTEX
  8
0
 10
3.88108
 20
6.85271
 30
0.0
 40
0.0138889
 41
0.0138889
  0
VERTEX
  8
0
 10
3.88108
 20
6.82628
 30
0.0
 40
0.0138889
 41
0.0138889
  0
VERTEX
  8
0
 10
3.88108
 20
6.79992
 30
0.0
 40
0.0138889
 41
0.0138889
  0
VERTEX
  8
0
 10
3.89171
 20
6.72076
 30
0.0
 40
0.0138889
 41
0.0138889
  0
VERTEX
  8
0
 10
3.92219
 20
6.62244
 30
0.0
 40
0.0138889
 41
0.0138889
  0
VERTEX
  8
0
 10
3.97049
 20
6.53353
 30
0.0
 40
0.0138889
 41
0.0138889
  0
VERTEX
  8
0
 10
4.03444
 20
6.456
 30
0.0
 40
0.0138889
 41
0.0138889
  0
VERTEX
  8
0
 10
4.11193
 20
6.39208
 30
0.0
 40
0.0138889
 41
0.0138889
  0
VERTEX
  8
0
 10
4.2009
 20
6.34381
 30
0.0
 40
0.0138889
 41
0.0138889
  0
VERTEX
  8
0
 10
4.29915
 20
6.31332
 30
0.0
 40
0.0138889
 41
0.0138889
  0
VERTEX
  8
0
 10
4.37831
 20
6.30263
 30
0.0
 40
0.0138889
 41
0.0138889
  0
VERTEX
  8
0
 10
4.40474
 20
6.30263
 30
0.0
 40
0.0138889
 41
0.0138889
  0
VERTEX
  8
0
 10
4.4311
 20
6.30263
 30
0.0
 40
0.0138889
 41
0.0138889
  0
VERTEX
  8
0
 10
4.51025
 20
6.31332
 30
0.0
 40
0.0138889
 41
0.0138889
  0
VERTEX
  8
0
 10
4.60856
 20
6.34381
 30
0.0
 40
0.0138889
 41
0.0138889
  0
VERTEX
  8
0
 10
4.69749
 20
6.39208
 30
0.0
 40
0.0138889
 41
0.0138889
  0
VERTEX
  8
0
 10
4.77501
 20
6.456
 30
0.0
 40
0.0138889
 41
0.0138889
  0
VERTEX
  8
0
 10
4.83892
 20
6.53353
 30
0.0
 40
0.0138889
 41
0.0138889
  0
VERTEX
  8
0
 10
4.88721
 20
6.62244
 30
0.0
 40
0.0138889
 41
0.0138889
  0
VERTEX
  8
0
 10
4.91769
 20
6.72076
 30
0.0
 40
0.0138889
 41
0.0138889
  0
VERTEX
  8
0
 10
4.92839
 20
6.79992
 30
0.0
 40
0.0138889
 41
0.0138889
  0
VERTEX
  8
0
 10
4.92839
 20
6.82628
 30
0.0
 40
0.0138889
 41
0.0138889
  0
VERTEX
  8
0
 10
4.92839
 20
6.85271
 30
0.0
 40
0.0138889
 41
0.0138889
  0
VERTEX
  8
0
 10
4.91769
 20
6.93186
 30
0.0
 40
0.0138889
 41
0.0138889
  0
VERTEX
  8
0
 10
4.88721
 20
7.03011
 30
0.0
 40
0.0138889
 41
0.0138889
  0
VERTEX
  8
0
 10
4.83892
 20
7.11908
 30
0.0
 40
0.0138889
 41
0.0138889
  0
VERTEX
  8
0
 10
4.77501
 20
7.19656
 30
0.0
 40
0.0138889
 41
0.0138889
  0
VERTEX
  8
0
 10
4.69749
 20
7.26053
 30
0.0
 40
0.0138889
 41
0.0138889
  0
VERTEX
  8
0
 10
4.60856
 20
7.30881
 30
0.0
 40
0.0138889
 41
0.0138889
  0
VERTEX
  8
0
 10
4.51025
 20
7.33931
 30
0.0
 40
0.0138889
 41
0.0138889
  0
VERTEX
  8
0
 10
4.4311
 20
7.34993
 30
0.0
 40
0.0138889
 41
0.0138889
  0
VERTEX
  8
0
 10
4.40474
 20
7.34993
 30
0.0
 40
0.0138889
 41
0.0138889
  0
SEQEND
 8
0
  0
POLYLINE
  8
0
 62
     250
 66
     1
 10
0
 20
0
 30
0.0
 70
     1
 40
1
 41
1
  0
VERTEX
  8
0
 10
6.34386
 20
8.6454
 30
0.0
 40
0.0138889
 41
0.0138889
  0
VERTEX
  8
0
 10
6.32124
 20
8.65126
 30
0.0
 40
0.0138889
 41
0.0138889
  0
VERTEX
  8
0
 10
6.2455
 20
8.63786
 30
0.0
 40
0.0138889
 41
0.0138889
  0
VERTEX
  8
0
 10
6.14996
 20
8.57264
 30
0.0
 40
0.0138889
 41
0.0138889
  0
VERTEX
  8
0
 10
6.06793
 20
8.4605
 30
0.0
 40
0.0138889
 41
0.0138889
  0
VERTEX
  8
0
 10
6.02001
 20
8.35037
 30
0.0
 40
0.0138889
 41
0.0138889
  0
VERTEX
  8
0
 10
6.01014
 20
8.31207
 30
0.0
 40
0.0138889
 41
0.0138889
  0
VERTEX
  8
0
 10
6.00022
 20
8.27382
 30
0.0
 40
0.0138889
 41
0.0138889
  0
VERTEX
  8
0
 10
5.98882
 20
8.15429
 30
0.0
 40
0.0138889
 41
0.0138889
  0
VERTEX
  8
0
 10
6.00624
 20
8.01644
 30
0.0
 40
0.0138889
 41
0.0138889
  0
VERTEX
  8
0
 10
6.05826
 20
7.91308
 30
0.0
 40
0.0138889
 41
0.0138889
  0
VERTEX
  8
0
 10
6.11806
 20
7.86464
 30
0.0
 40
0.0138889
 41
0.0138889
  0
VERTEX
  8
0
 10
6.14068
 20
7.85878
 30
0.0
 40
0.0138889
 41
0.0138889
  0
VERTEX
  8
0
 10
6.16325
 20
7.85297
 30
0.0
 40
0.0138889
 41
0.0138889
  0
VERTEX
  8
0
 10
6.23904
 20
7.86638
 30
0.0
 40
0.0138889
 41
0.0138889
  0
VERTEX
  8
0
 10
6.33458
 20
7.93164
 30
0.0
 40
0.0138889
 41
0.0138889
  0
VERTEX
  8
0
 10
6.41661
 20
8.04378
 30
0.0
 40
0.0138889
 41
0.0138889
  0
VERTEX
  8
0
 10
6.46457
 20
8.15386
 30
0.0
 40
0.0138889
 41
0.0138889
  0
VERTEX
  8
0
 10
6.47444
 20
8.19211
 30
0.0
 40
0.0138889
 41
0.0138889
  0
VERTEX
  8
0
 10
6.48432
 20
8.23042
 30
0.0
 40
0.0138889
 41
0.0138889
  0
VERTEX
  8
0
 10
6.49571
 20
8.34993
 30
0.0
 40
0.0138889
 41
0.0138889
  0
VERTEX
  8
0
 10
6.47825
 20
8.48785
 30
0.0
 40
0.0138889
 41
0.0138889
  0
VERTEX
  8
0
 10
6.42622
 20
8.59119
 30
0.0
 40
0.0138889
 41
0.0138889
  0
VERTEX
  8
0
 10
6.36643
 20
8.6396
 30
0.0
 40
0.0138889
 41
0.0138889
  0
VERTEX
  8
0
 10
6.34386
 20
8.6454
 30
0.0
 40
0.0138889
 41
0.0138889
  0
SEQEND
 8
0
  0
POLYLINE
  8
0
 62
     250
 66
     1
 10
0
 20
0
 30
0.0
 70
     1
 40
1.236
 41
1.236
  0
VERTEX
  8
0
 10
1.8711
 20
7.80767
 30
0.0
 40
0.0171667
 41
0.0171667
  0
VERTEX
  8
0
 10
1.84907
 20
7.79915
 30
0.0
 40
0.0171667
 41
0.0171667
  0
VERTEX
  8
0
 10
1.77403
 20
7.79671
 30
0.0
 40
0.0171667
 41
0.0171667
  0
VERTEX
  8
0
 10
1.67763
 20
7.83192
 30
0.0
 40
0.0171667
 41
0.0171667
  0
VERTEX
  8
0
 10
1.59283
 20
7.90679
 30
0.0
 40
0.0171667
 41
0.0171667
  0
VERTEX
  8
0
 10
1.54167
 20
7.98589
 30
0.0
 40
0.0171667
 41
0.0171667
  0
VERTEX
  8
0
 10
1.5306
 20
8.01454
 30
0.0
 40
0.0171667
 41
0.0171667
  0
VERTEX
  8
0
 10
1.51947
 20
8.04324
 30
0.0
 40
0.0171667
 41
0.0171667
  0
VERTEX
  8
0
 10
1.5039
 20
8.13613
 30
0.0
 40
0.0171667
 41
0.0171667
  0
VERTEX
  8
0
 10
1.51611
 20
8.24854
 30
0.0
 40
0.0171667
 41
0.0171667
  0
VERTEX
  8
0
 10
1.56353
 20
8.33951
 30
0.0
 40
0.0171667
 41
0.0171667
  0
VERTEX
  8
0
 10
1.62061
 20
8.38829
 30
0.0
 40
0.0171667
 41
0.0171667
  0
VERTEX
  8
0
 10
1.64264
 20
8.39681
 30
0.0
 40
0.0171667
 41
0.0171667
  0
VERTEX
  8
0
 10
1.66461
 20
8.40533
 30
0.0
 40
0.0171667
 41
0.0171667
  0
VERTEX
  8
0
 10
1.73964
 20
8.40782
 30
0.0
 40
0.0171667
 41
0.0171667
  0
VERTEX
  8
0
 10
1.83604
 20
8.37256
 30
0.0
 40
0.0171667
 41
0.0171667
  0
VERTEX
  8
0
 10
1.92079
 20
8.29769
 30
0.0
 40
0.0171667
 41
0.0171667
  0
VERTEX
  8
0
 10
1.97194
 20
8.21864
 30
0.0
 40
0.0171667
 41
0.0171667
  0
VERTEX
  8
0
 10
1.98307
 20
8.18994
 30
0.0
 40
0.0171667
 41
0.0171667
  0
VERTEX
  8
0
 10
1.99414
 20
8.16129
 30
0.0
 40
0.0171667
 41
0.0171667
  0
VERTEX
  8
0
 10
2.00971
 20
8.06842
 30
0.0
 40
0.0171667
 41
0.0171667
  0
VERTEX
  8
0
 10
1.99756
 20
7.95594
 30
0.0
 40
0.0171667
 41
0.0171667
  0
VERTEX
  8
0
 10
1.95014
 20
7.86496
 30
0.0
 40
0.0171667
 41
0.0171667
  0
VERTEX
  8
0
 10
1.89307
 20
7.81619
 30
0.0
 40
0.0171667
 41
0.0171667
  0
VERTEX
  8
0
 10
1.8711
 20
7.80767
 30
0.0
 40
0.0171667
 41
0.0171667
  0
SEQEND
 8
0
  0
POLYLINE
  8
0
 62
     250
 66
     1
 10
0
 20
0
 30
0.0
 70
     1
 40
1.236
 41
1.236
  0
VERTEX
  8
0
 10
2.85428
 20
7.023
 30
0.0
 40
0.0171667
 41
0.0171667
  0
VERTEX
  8
0
 10
2.82417
 20
6.9955
 30
0.0
 40
0.0171667
 41
0.0171667
  0
VERTEX
  8
0
 10
2.70899
 20
6.94015
 30
0.0
 40
0.0171667
 41
0.0171667
  0
VERTEX
  8
0
 10
2.54275
 20
6.92453
 30
0.0
 40
0.0171667
 41
0.0171667
  0
VERTEX
  8
0
 10
2.37565
 20
6.97407
 30
0.0
 40
0.0171667
 41
0.0171667
  0
VERTEX
  8
0
 10
2.25874
 20
7.05306
 30
0.0
 40
0.0171667
 41
0.0171667
  0
VERTEX
  8
0
 10
2.22792
 20
7.08675
 30
0.0
 40
0.0171667
 41
0.0171667
  0
VERTEX
  8
0
 10
2.21192
 20
7.10422
 30
0.0
 40
0.0171667
 41
0.0171667
  0
VERTEX
  8
0
 10
2.17025
 20
7.16237
 30
0.0
 40
0.0171667
 41
0.0171667
  0
VERTEX
  8
0
 10
2.12869
 20
7.24393
 30
0.0
 40
0.0171667
 41
0.0171667
  0
VERTEX
  8
0
 10
2.10335
 20
7.32889
 30
0.0
 40
0.0171667
 41
0.0171667
  0
VERTEX
  8
0
 10
2.09412
 20
7.41471
 30
0.0
 40
0.0171667
 41
0.0171667
  0
VERTEX
  8
0
 10
2.10113
 20
7.49892
 30
0.0
 40
0.0171667
 41
0.0171667
  0
VERTEX
  8
0
 10
2.1244
 20
7.57894
 30
0.0
 40
0.0171667
 41
0.0171667
  0
VERTEX
  8
0
 10
2.16396
 20
7.65224
 30
0.0
 40
0.0171667
 41
0.0171667
  0
VERTEX
  8
0
 10
2.20426
 20
7.70204
 30
0.0
 40
0.0171667
 41
0.0171667
  0
VERTEX
  8
0
 10
2.21983
 20
7.71625
 30
0.0
 40
0.0171667
 41
0.0171667
  0
VERTEX
  8
0
 10
2.24989
 20
7.74382
 30
0.0
 40
0.0171667
 41
0.0171667
  0
VERTEX
  8
0
 10
2.36507
 20
7.79915
 30
0.0
 40
0.0171667
 41
0.0171667
  0
VERTEX
  8
0
 10
2.53131
 20
7.81478
 30
0.0
 40
0.0171667
 41
0.0171667
  0
VERTEX
  8
0
 10
2.6984
 20
7.76525
 30
0.0
 40
0.0171667
 41
0.0171667
  0
VERTEX
  8
0
 10
2.81532
 20
7.68625
 30
0.0
 40
0.0171667
 41
0.0171667
  0
VERTEX
  8
0
 10
2.84619
 20
7.6525
 30
0.0
 40
0.0171667
 41
0.0171667
  0
VERTEX
  8
0
 10
2.86214
 20
7.6351
 30
0.0
 40
0.0171667
 41
0.0171667
  0
VERTEX
  8
0
 10
2.90381
 20
7.57693
 30
0.0
 40
0.0171667
 41
0.0171667
  0
VERTEX
  8
0
 10
2.94532
 20
7.49539
 30
0.0
 40
0.0171667
 41
0.0171667
  0
VERTEX
  8
0
 10
2.97071
 20
7.41043
 30
0.0
 40
0.0171667
 41
0.0171667
  0
VERTEX
  8
0
 10
2.97993
 20
7.3246
 30
0.0
 40
0.0171667
 41
0.0171667
  0
VERTEX
  8
0
 10
2.97287
 20
7.2404
 30
0.0
 40
0.0171667
 41
0.0171667
  0
VERTEX
  8
0
 10
2.94965
 20
7.16038
 30
0.0
 40
0.0171667
 41
0.0171667
  0
VERTEX
  8
0
 10
2.9101
 20
7.08708
 30
0.0
 40
0.0171667
 41
0.0171667
  0
VERTEX
  8
0
 10
2.86985
 20
7.03728
 30
0.0
 40
0.0171667
 41
0.0171667
  0
VERTEX
  8
0
 10
2.85428
 20
7.023
 30
0.0
 40
0.0171667
 41
0.0171667
  0
SEQEND
 8
0
  0
POLYLINE
  8
0
 62
     250
 66
     1
 10
0
 20
0
 30
0.0
 70
     1
 40
1.236
 41
1.236
  0
VERTEX
  8
0
 10
4.40474
 20
6.30263
 30
0.0
 40
0.0171667
 41
0.0171667
  0
VERTEX
  8
0
 10
4.37831
 20
6.30263
 30
0.0
 40
0.0171667
 41
0.0171667
  0
VERTEX
  8
0
 10
4.29915
 20
6.31332
 30
0.0
 40
0.0171667
 41
0.0171667
  0
VERTEX
  8
0
 10
4.2009
 20
6.34381
 30
0.0
 40
0.0171667
 41
0.0171667
  0
VERTEX
  8
0
 10
4.11193
 20
6.39208
 30
0.0
 40
0.0171667
 41
0.0171667
  0
VERTEX
  8
0
 10
4.03444
 20
6.456
 30
0.0
 40
0.0171667
 41
0.0171667
  0
VERTEX
  8
0
 10
3.97049
 20
6.53353
 30
0.0
 40
0.0171667
 41
0.0171667
  0
VERTEX
  8
0
 10
3.92219
 20
6.62244
 30
0.0
 40
0.0171667
 41
0.0171667
  0
VERTEX
  8
0
 10
3.89171
 20
6.72076
 30
0.0
 40
0.0171667
 41
0.0171667
  0
VERTEX
  8
0
 10
3.88108
 20
6.79992
 30
0.0
 40
0.0171667
 41
0.0171667
  0
VERTEX
  8
0
 10
3.88108
 20
6.82628
 30
0.0
 40
0.0171667
 41
0.0171667
  0
VERTEX
  8
0
 10
3.88108
 20
6.85271
 30
0.0
 40
0.0171667
 41
0.0171667
  0
VERTEX
  8
0
 10
3.89171
 20
6.93186
 30
0.0
 40
0.0171667
 41
0.0171667
  0
VERTEX
  8
0
 10
3.92219
 20
7.03011
 30
0.0
 40
0.0171667
 41
0.0171667
  0
VERTEX
  8
0
 10
3.97049
 20
7.11908
 30
0.0
 40
0.0171667
 41
0.0171667
  0
VERTEX
  8
0
 10
4.03444
 20
7.19656
 30
0.0
 40
0.0171667
 41
0.0171667
  0
VERTEX
  8
0
 10
4.11193
 20
7.26053
 30
0.0
 40
0.0171667
 41
0.0171667
  0
VERTEX
  8
0
 10
4.2009
 20
7.30881
 30
0.0
 40
0.0171667
 41
0.0171667
  0
VERTEX
  8
0
 10
4.29915
 20
7.33931
 30
0.0
 40
0.0171667
 41
0.0171667
  0
VERTEX
  8
0
 10
4.37831
 20
7.34993
 30
0.0
 40
0.0171667
 41
0.0171667
  0
VERTEX
  8
0
 10
4.40474
 20
7.34993
 30
0.0
 40
0.0171667
 41
0.0171667
  0
VERTEX
  8
0
 10
4.4311
 20
7.34993
 30
0.0
 40
0.0171667
 41
0.0171667
  0
VERTEX
  8
0
 10
4.51025
 20
7.33931
 30
0.0
 40
0.0171667
 41
0.0171667
  0
VERTEX
  8
0
 10
4.60856
 20
7.30881
 30
0.0
 40
0.0171667
 41
0.0171667
  0
VERTEX
  8
0
 10
4.69749
 20
7.26053
 30
0.0
 40
0.0171667
 41
0.0171667
  0
VERTEX
  8
0
 10
4.77501
 20
7.19656
 30
0.0
 40
0.0171667
 41
0.0171667
  0
VERTEX
  8
0
 10
4.83892
 20
7.11908
 30
0.0
 40
0.0171667
 41
0.0171667
  0
VERTEX
  8
0
 10
4.88721
 20
7.03011
 30
0.0
 40
0.0171667
 41
0.0171667
  0
VERTEX
  8
0
 10
4.91769
 20
6.93186
 30
0.0
 40
0.0171667
 41
0.0171667
  0
VERTEX
  8
0
 10
4.92839
 20
6.85271
 30
0.0
 40
0.0171667
 41
0.0171667
  0
VERTEX
  8
0
 10
4.92839
 20
6.82628
 30
0.0
 40
0.0171667
 41
0.0171667
  0
VERTEX
  8
0
 10
4.92839
 20
6.79992
 30
0.0
 40
0.0171667
 41
0.0171667
  0
VERTEX
  8
0
 10
4.91769
 20
6.72076
 30
0.0
 40
0.0171667
 41
0.0171667
  0
VERTEX
  8
0
 10
4.88721
 20
6.62244
 30
0.0
 40
0.0171667
 41
0.0171667
  0
VERTEX
  8
0
 10
4.83892
 20
6.53353
 30
0.0
 40
0.0171667
 41
0.0171667
  0
VERTEX
  8
0
 10
4.77501
 20
6.456
 30
0.0
 40
0.0171667
 41
0.0171667
  0
VERTEX
  8
0
 10
4.69749
 20
6.39208
 30
0.0
 40
0.0171667
 41
0.0171667
  0
VERTEX
  8
0
 10
4.60856
 20
6.34381
 30
0.0
 40
0.0171667
 41
0.0171667
  0
VERTEX
  8
0
 10
4.51025
 20
6.31332
 30
0.0
 40
0.0171667
 41
0.0171667
  0
VERTEX
  8
0
 10
4.4311
 20
6.30263
 30
0.0
 40
0.0171667
 41
0.0171667
  0
VERTEX
  8
0
 10
4.40474
 20
6.30263
 30
0.0
 40
0.0171667
 41
0.0171667
  0
SEQEND
 8
0
  0
POLYLINE
  8
0
 62
     250
 66
     1
 10
0
 20
0
 30
0.0
 70
     1
 40
1.236
 41
1.236
  0
VERTEX
  8
0
 10
5.36828
 20
7.36387
 30
0.0
 40
0.0171667
 41
0.0171667
  0
VERTEX
  8
0
 10
5.33697
 20
7.36387
 30
0.0
 40
0.0171667
 41
0.0171667
  0
VERTEX
  8
0
 10
5.24322
 20
7.38558
 30
0.0
 40
0.0171667
 41
0.0171667
  0
VERTEX
  8
0
 10
5.14117
 20
7.44467
 30
0.0
 40
0.0171667
 41
0.0171667
  0
VERTEX
  8
0
 10
5.07232
 20
7.53233
 30
0.0
 40
0.0171667
 41
0.0171667
  0
VERTEX
  8
0
 10
5.0471
 20
7.61285
 30
0.0
 40
0.0171667
 41
0.0171667
  0
VERTEX
  8
0
 10
5.0471
 20
7.63965
 30
0.0
 40
0.0171667
 41
0.0171667
  0
VERTEX
  8
0
 10
5.0471
 20
7.6665
 30
0.0
 40
0.0171667
 41
0.0171667
  0
VERTEX
  8
0
 10
5.07232
 20
7.74701
 30
0.0
 40
0.0171667
 41
0.0171667
  0
VERTEX
  8
0
 10
5.14117
 20
7.83469
 30
0.0
 40
0.0171667
 41
0.0171667
  0
VERTEX
  8
0
 10
5.24322
 20
7.89378
 30
0.0
 40
0.0171667
 41
0.0171667
  0
VERTEX
  8
0
 10
5.33697
 20
7.91542
 30
0.0
 40
0.0171667
 41
0.0171667
  0
VERTEX
  8
0
 10
5.36828
 20
7.91542
 30
0.0
 40
0.0171667
 41
0.0171667
  0
VERTEX
  8
0
 10
5.39953
 20
7.91542
 30
0.0
 40
0.0171667
 41
0.0171667
  0
VERTEX
  8
0
 10
5.49328
 20
7.89378
 30
0.0
 40
0.0171667
 41
0.0171667
  0
VERTEX
  8
0
 10
5.59532
 20
7.83469
 30
0.0
 40
0.0171667
 41
0.0171667
  0
VERTEX
  8
0
 10
5.66417
 20
7.74701
 30
0.0
 40
0.0171667
 41
0.0171667
  0
VERTEX
  8
0
 10
5.68946
 20
7.6665
 30
0.0
 40
0.0171667
 41
0.0171667
  0
VERTEX
  8
0
 10
5.68946
 20
7.63965
 30
0.0
 40
0.0171667
 41
0.0171667
  0
VERTEX
  8
0
 10
5.68946
 20
7.61285
 30
0.0
 40
0.0171667
 41
0.0171667
  0
VERTEX
  8
0
 10
5.66417
 20
7.53233
 30
0.0
 40
0.0171667
 41
0.0171667
  0
VERTEX
  8
0
 10
5.59532
 20
7.44467
 30
0.0
 40
0.0171667
 41
0.0171667
  0
VERTEX
  8
0
 10
5.49328
 20
7.38558
 30
0.0
 40
0.0171667
 41
0.0171667
  0
VERTEX
  8
0
 10
5.39953
 20
7.36387
 30
0.0
 40
0.0171667
 41
0.0171667
  0
VERTEX
  8
0
 10
5.36828
 20
7.36387
 30
0.0
 40
0.0171667
 41
0.0171667
  0
SEQEND
 8
0
  0
POLYLINE
  8
0
 62
     250
 66
     1
 10
0
 20
0
 30
0.0
 70
     1
 40
1.236
 41
1.236
  0
VERTEX
  8
0
 10
6.14068
 20
7.85878
 30
0.0
 40
0.0171667
 41
0.0171667
  0
VERTEX
  8
0
 10
6.11806
 20
7.86464
 30
0.0
 40
0.0171667
 41
0.0171667
  0
VERTEX
  8
0
 10
6.05826
 20
7.91308
 30
0.0
 40
0.0171667
 41
0.0171667
  0
VERTEX
  8
0
 10
6.00624
 20
8.01644
 30
0.0
 40
0.0171667
 41
0.0171667
  0
VERTEX
  8
0
 10
5.98882
 20
8.15429
 30
0.0
 40
0.0171667
 41
0.0171667
  0
VERTEX
  8
0
 10
6.00022
 20
8.27382
 30
0.0
 40
0.0171667
 41
0.0171667
  0
VERTEX
  8
0
 10
6.01014
 20
8.31207
 30
0.0
 40
0.0171667
 41
0.0171667
  0
VERTEX
  8
0
 10
6.02001
 20
8.35037
 30
0.0
 40
0.0171667
 41
0.0171667
  0
VERTEX
  8
0
 10
6.06793
 20
8.4605
 30
0.0
 40
0.0171667
 41
0.0171667
  0
VERTEX
  8
0
 10
6.14996
 20
8.57264
 30
0.0
 40
0.0171667
 41
0.0171667
  0
VERTEX
  8
0
 10
6.2455
 20
8.63786
 30
0.0
 40
0.0171667
 41
0.0171667
  0
VERTEX
  8
0
 10
6.32124
 20
8.65126
 30
0.0
 40
0.0171667
 41
0.0171667
  0
VERTEX
  8
0
 10
6.34386
 20
8.6454
 30
0.0
 40
0.0171667
 41
0.0171667
  0
VERTEX
  8
0
 10
6.36643
 20
8.6396
 30
0.0
 40
0.0171667
 41
0.0171667
  0
VERTEX
  8
0
 10
6.42622
 20
8.59119
 30
0.0
 40
0.0171667
 41
0.0171667
  0
VERTEX
  8
0
 10
6.47825
 20
8.48785
 30
0.0
 40
0.0171667
 41
0.0171667
  0
VERTEX
  8
0
 10
6.49571
 20
8.34993
 30
0.0
 40
0.0171667
 41
0.0171667
  0
VERTEX
  8
0
 10
6.48432
 20
8.23042
 30
0.0
 40
0.0171667
 41
0.0171667
  0
VERTEX
  8
0
 10
6.47444
 20
8.19211
 30
0.0
 40
0.0171667
 41
0.0171667
  0
VERTEX
  8
0
 10
6.46457
 20
8.15386
 30
0.0
 40
0.0171667
 41
0.0171667
  0
VERTEX
  8
0
 10
6.41661
 20
8.04378
 30
0.0
 40
0.0171667
 41
0.0171667
  0
VERTEX
  8
0
 10
6.33458
 20
7.93164
 30
0.0
 40
0.0171667
 41
0.0171667
  0
VERTEX
  8
0
 10
6.23899
 20
7.86638
 30
0.0
 40
0.0171667
 41
0.0171667
  0
VERTEX
  8
0
 10
6.16325
 20
7.85297
 30
0.0
 40
0.0171667
 41
0.0171667
  0
VERTEX
  8
0
 10
6.14068
 20
7.85878
 30
0.0
 40
0.0171667
 41
0.0171667
  0
SEQEND
 8
0
  0
POLYLINE
  8
0
 62
     250
 66
     1
 10
0
 20
0
 30
0.0
 40
1.236
 41
1.236
  0
VERTEX
  8
0
 10
3.15175
 20
6.14914
 30
0.0
 40
0.0171667
 41
0.0171667
  0
VERTEX
  8
0
 10
3.1536
 20
6.15147
 30
0.0
 40
0.0171667
 41
0.0171667
  0
VERTEX
  8
0
 10
3.16786
 20
6.17665
 30
0.0
 40
0.0171667
 41
0.0171667
  0
VERTEX
  8
0
 10
3.16883
 20
6.17942
 30
0.0
 40
0.0171667
 41
0.0171667
  0
VERTEX
  8
0
 10
3.17486
 20
6.19656
 30
0.0
 40
0.0171667
 41
0.0171667
  0
VERTEX
  8
0
 10
3.16694
 20
6.25722
 30
0.0
 40
0.0171667
 41
0.0171667
  0
VERTEX
  8
0
 10
3.11546
 20
6.33838
 30
0.0
 40
0.0171667
 41
0.0171667
  0
VERTEX
  8
0
 10
3.02311
 20
6.41351
 30
0.0
 40
0.0171667
 41
0.0171667
  0
VERTEX
  8
0
 10
2.93093
 20
6.46169
 30
0.0
 40
0.0171667
 41
0.0171667
  0
VERTEX
  8
0
 10
2.8986
 20
6.4731
 30
0.0
 40
0.0171667
 41
0.0171667
  0
VERTEX
  8
0
 10
2.86822
 20
6.48383
 30
0.0
 40
0.0171667
 41
0.0171667
  0
VERTEX
  8
0
 10
2.77294
 20
6.50396
 30
0.0
 40
0.0171667
 41
0.0171667
  0
VERTEX
  8
0
 10
2.65989
 20
6.50657
 30
0.0
 40
0.0171667
 41
0.0171667
  0
VERTEX
  8
0
 10
2.56972
 20
6.48253
 30
0.0
 40
0.0171667
 41
0.0171667
  0
VERTEX
  8
0
 10
2.52192
 20
6.44868
 30
0.0
 40
0.0171667
 41
0.0171667
  0
VERTEX
  8
0
 10
2.51269
 20
6.43332
 30
0.0
 40
0.0171667
 41
0.0171667
  0
SEQEND
 8
0
  0
POLYLINE
  8
0
 62
     250
 66
     1
 10
0
 20
0
 30
0.0
 40
1.236
 41
1.236
  0
VERTEX
  8
0
 10
5.97136
 20
7.06299
 30
0.0
 40
0.0171667
 41
0.0171667
  0
VERTEX
  8
0
 10
5.94672
 20
7.06717
 30
0.0
 40
0.0171667
 41
0.0171667
  0
VERTEX
  8
0
 10
5.81668
 20
7.05138
 30
0.0
 40
0.0171667
 41
0.0171667
  0
VERTEX
  8
0
 10
5.69021
 20
6.98714
 30
0.0
 40
0.0171667
 41
0.0171667
  0
VERTEX
  8
0
 10
5.66743
 20
6.96707
 30
0.0
 40
0.0171667
 41
0.0171667
  0
VERTEX
  8
0
 10
5.64806
 20
6.95003
 30
0.0
 40
0.0171667
 41
0.0171667
  0
VERTEX
  8
0
 10
5.59831
 20
6.88938
 30
0.0
 40
0.0171667
 41
0.0171667
  0
VERTEX
  8
0
 10
5.55354
 20
6.80246
 30
0.0
 40
0.0171667
 41
0.0171667
  0
VERTEX
  8
0
 10
5.53401
 20
6.71224
 30
0.0
 40
0.0171667
 41
0.0171667
  0
VERTEX
  8
0
 10
5.5356
 20
6.64572
 30
0.0
 40
0.0171667
 41
0.0171667
  0
VERTEX
  8
0
 10
5.54064
 20
6.62462
 30
0.0
 40
0.0171667
 41
0.0171667
  0
SEQEND
 8
0
  0
POLYLINE
  8
0
 62
     250
 66
     1
 10
0
 20
0
 30
0.0
 40
1.236
 41
1.236
  0
VERTEX
  8
0
 10
1.9936
 20
6.85221
 30
0.0
 40
0.0171667
 41
0.0171667
  0
VERTEX
  8
0
 10
1.99007
 20
6.88021
 30
0.0
 40
0.0171667
 41
0.0171667
  0
VERTEX
  8
0
 10
1.94911
 20
7.02761
 30
0.0
 40
0.0171667
 41
0.0171667
  0
VERTEX
  8
0
 10
1.87696
 20
7.1786
 30
0.0
 40
0.0171667
 41
0.0171667
  0
VERTEX
  8
0
 10
1.85792
 20
7.20839
 30
0.0
 40
0.0171667
 41
0.0171667
  0
VERTEX
  8
0
 10
1.84099
 20
7.23481
 30
0.0
 40
0.0171667
 41
0.0171667
  0
VERTEX
  8
0
 10
1.78364
 20
7.30974
 30
0.0
 40
0.0171667
 41
0.0171667
  0
VERTEX
  8
0
 10
1.70215
 20
7.39546
 30
0.0
 40
0.0171667
 41
0.0171667
  0
VERTEX
  8
0
 10
1.61626
 20
7.46414
 30
0.0
 40
0.0171667
 41
0.0171667
  0
VERTEX
  8
0
 10
1.55165
 20
7.50375
 30
0.0
 40
0.0171667
 41
0.0171667
  0
VERTEX
  8
0
 10
1.52892
 20
7.51426
 30
0.0
 40
0.0171667
 41
0.0171667
  0
SEQEND
 8
0
  0
POLYLINE
  8
0
 62
     250
 66
     1
 10
0
 20
0
 30
0.0
 40
1.236
 41
1.236
  0
VERTEX
  8
0
 10
6.49414
 20
9.06776
 30
0.0
 40
0.0171667
 41
0.0171667
  0
VERTEX
  8
0
 10
6.48931
 20
9.06407
 30
0.0
 40
0.0171667
 41
0.0171667
  0
VERTEX
  8
0
 10
6.43946
 20
9.02658
 30
0.0
 40
0.0171667
 41
0.0171667
  0
VERTEX
  8
0
 10
6.43431
 20
9.02279
 30
0.0
 40
0.0171667
 41
0.0171667
  0
VERTEX
  8
0
 10
6.41667
 20
9.00988
 30
0.0
 40
0.0171667
 41
0.0171667
  0
VERTEX
  8
0
 10
6.36312
 20
8.972
 30
0.0
 40
0.0171667
 41
0.0171667
  0
VERTEX
  8
0
 10
6.26915
 20
8.90685
 30
0.0
 40
0.0171667
 41
0.0171667
  0
VERTEX
  8
0
 10
6.15571
 20
8.82964
 30
0.0
 40
0.0171667
 41
0.0171667
  0
VERTEX
  8
0
 10
6.02621
 20
8.7424
 30
0.0
 40
0.0171667
 41
0.0171667
  0
VERTEX
  8
0
 10
5.8839
 20
8.6474
 30
0.0
 40
0.0171667
 41
0.0171667
  0
VERTEX
  8
0
 10
5.73226
 20
8.54671
 30
0.0
 40
0.0171667
 41
0.0171667
  0
VERTEX
  8
0
 10
5.5746
 20
8.44254
 30
0.0
 40
0.0171667
 41
0.0171667
  0
VERTEX
  8
0
 10
5.41433
 20
8.33703
 30
0.0
 40
0.0171667
 41
0.0171667
  0
VERTEX
  8
0
 10
5.25478
 20
8.23236
 30
0.0
 40
0.0171667
 41
0.0171667
  0
VERTEX
  8
0
 10
5.09928
 20
8.13058
 30
0.0
 40
0.0171667
 41
0.0171667
  0
VERTEX
  8
0
 10
4.95133
 20
8.03401
 30
0.0
 40
0.0171667
 41
0.0171667
  0
VERTEX
  8
0
 10
4.81418
 20
7.94467
 30
0.0
 40
0.0171667
 41
0.0171667
  0
VERTEX
  8
0
 10
4.69119
 20
7.86481
 30
0.0
 40
0.0171667
 41
0.0171667
  0
VERTEX
  8
0
 10
4.58583
 20
7.7965
 30
0.0
 40
0.0171667
 41
0.0171667
  0
VERTEX
  8
0
 10
4.50136
 20
7.74197
 30
0.0
 40
0.0171667
 41
0.0171667
  0
VERTEX
  8
0
 10
4.45628
 20
7.713
 30
0.0
 40
0.0171667
 41
0.0171667
  0
VERTEX
  8
0
 10
4.44125
 20
7.70335
 30
0.0
 40
0.0171667
 41
0.0171667
  0
VERTEX
  8
0
 10
4.39963
 20
7.67676
 30
0.0
 40
0.0171667
 41
0.0171667
  0
VERTEX
  8
0
 10
4.27274
 20
7.60015
 30
0.0
 40
0.0171667
 41
0.0171667
  0
VERTEX
  8
0
 10
4.13482
 20
7.52886
 30
0.0
 40
0.0171667
 41
0.0171667
  0
VERTEX
  8
0
 10
4.01644
 20
7.48753
 30
0.0
 40
0.0171667
 41
0.0171667
  0
VERTEX
  8
0
 10
3.93397
 20
7.47418
 30
0.0
 40
0.0171667
 41
0.0171667
  0
VERTEX
  8
0
 10
3.90653
 20
7.47418
 30
0.0
 40
0.0171667
 41
0.0171667
  0
VERTEX
  8
0
 10
3.89828
 20
7.47418
 30
0.0
 40
0.0171667
 41
0.0171667
  0
VERTEX
  8
0
 10
3.87076
 20
7.47418
 30
0.0
 40
0.0171667
 41
0.0171667
  0
VERTEX
  8
0
 10
3.78836
 20
7.48753
 30
0.0
 40
0.0171667
 41
0.0171667
  0
VERTEX
  8
0
 10
3.66997
 20
7.52886
 30
0.0
 40
0.0171667
 41
0.0171667
  0
VERTEX
  8
0
 10
3.53207
 20
7.60015
 30
0.0
 40
0.0171667
 41
0.0171667
  0
VERTEX
  8
0
 10
3.40517
 20
7.67676
 30
0.0
 40
0.0171667
 41
0.0171667
  0
VERTEX
  8
0
 10
3.36356
 20
7.70335
 30
0.0
 40
0.0171667
 41
0.0171667
  0
VERTEX
  8
0
 10
3.34847
 20
7.713
 30
0.0
 40
0.0171667
 41
0.0171667
  0
VERTEX
  8
0
 10
3.30339
 20
7.74197
 30
0.0
 40
0.0171667
 41
0.0171667
  0
VERTEX
  8
0
 10
3.21892
 20
7.7965
 30
0.0
 40
0.0171667
 41
0.0171667
  0
VERTEX
  8
0
 10
3.11356
 20
7.86481
 30
0.0
 40
0.0171667
 41
0.0171667
  0
VERTEX
  8
0
 10
2.99061
 20
7.94467
 30
0.0
 40
0.0171667
 41
0.0171667
  0
VERTEX
  8
0
 10
2.8534
 20
8.03401
 30
0.0
 40
0.0171667
 41
0.0171667
  0
VERTEX
  8
0
 10
2.70546
 20
8.13058
 30
0.0
 40
0.0171667
 41
0.0171667
  0
VERTEX
  8
0
 10
2.54997
 20
8.23236
 30
0.0
 40
0.0171667
 41
0.0171667
  0
VERTEX
  8
0
 10
2.39046
 20
8.33703
 30
0.0
 40
0.0171667
 41
0.0171667
  0
VERTEX
  8
0
 10
2.23014
 20
8.44254
 30
0.0
 40
0.0171667
 41
0.0171667
  0
VERTEX
  8
0
 10
2.07249
 20
8.54671
 30
0.0
 40
0.0171667
 41
0.0171667
  0
VERTEX
  8
0
 10
1.92085
 20
8.6474
 30
0.0
 40
0.0171667
 41
0.0171667
  0
VERTEX
  8
0
 10
1.7786
 20
8.7424
 30
0.0
 40
0.0171667
 41
0.0171667
  0
VERTEX
  8
0
 10
1.64903
 20
8.82964
 30
0.0
 40
0.0171667
 41
0.0171667
  0
VERTEX
  8
0
 10
1.5356
 20
8.90685
 30
0.0
 40
0.0171667
 41
0.0171667
  0
VERTEX
  8
0
 10
1.44162
 20
8.972
 30
0.0
 40
0.0171667
 41
0.0171667
  0
VERTEX
  8
0
 10
1.38807
 20
9.00988
 30
0.0
 40
0.0171667
 41
0.0171667
  0
VERTEX
  8
0
 10
1.3705
 20
9.02279
 30
0.0
 40
0.0171667
 41
0.0171667
  0
VERTEX
  8
0
 10
1.36355
 20
9.02789
 30
0.0
 40
0.0171667
 41
0.0171667
  0
VERTEX
  8
0
 10
1.32916
 20
9.04932
 30
0.0
 40
0.0171667
 41
0.0171667
  0
VERTEX
  8
0
 10
1.29601
 20
9.07053
 30
0.0
 40
0.0171667
 41
0.0171667
  0
VERTEX
  8
0
 10
1.28966
 20
9.07553
 30
0.0
 40
0.0171667
 41
0.0171667
  0
SEQEND
 8
0
  0
POLYLINE
  8
0
 62
     250
 66
     1
 10
0
 20
0
 30
0.0
 40
1.236
 41
1.236
  0
VERTEX
  8
0
 10
3.30778
 20
6.10867
 30
0.0
 40
0.0171667
 41
0.0171667
  0
VERTEX
  8
0
 10
3.35471
 20
6.09804
 30
0.0
 40
0.0171667
 41
0.0171667
  0
VERTEX
  8
0
 10
3.59472
 20
6.06022
 30
0.0
 40
0.0171667
 41
0.0171667
  0
VERTEX
  8
0
 10
3.81717
 20
6.04362
 30
0.0
 40
0.0171667
 41
0.0171667
  0
VERTEX
  8
0
 10
3.89133
 20
6.04362
 30
0.0
 40
0.0171667
 41
0.0171667
  0
VERTEX
  8
0
 10
3.96479
 20
6.04362
 30
0.0
 40
0.0171667
 41
0.0171667
  0
VERTEX
  8
0
 10
4.18533
 20
6.0599
 30
0.0
 40
0.0171667
 41
0.0171667
  0
VERTEX
  8
0
 10
4.42333
 20
6.09706
 30
0.0
 40
0.0171667
 41
0.0171667
  0
VERTEX
  8
0
 10
4.46989
 20
6.10747
 30
0.0
 40
0.0171667
 41
0.0171667
  0
SEQEND
 8
0
  0
POLYLINE
  8
0
 62
     250
 66
     1
 10
0
 20
0
 30
0.0
 70
     1
 40
1.21
 41
1.21
  0
VERTEX
  8
0
 10
11.7077
 20
1.919
 30
0.0
 40
0.0168056
 41
0.0168056
  0
VERTEX
  8
0
 10
11.7077
 20
1.919
 30
0.0
 40
0.0168056
 41
0.0168056
  0
VERTEX
  8
0
 10
11.6893
 20
1.9299
 30
0.0
 40
0.0168056
 41
0.0168056
  0
VERTEX
  8
0
 10
11.639
 20
1.9591
 30
0.0
 40
0.0168056
 41
0.0168056
  0
VERTEX
  8
0
 10
11.5636
 20
2.00157
 30
0.0
 40
0.0168056
 41
0.0168056
  0
VERTEX
  8
0
 10
11.4704
 20
2.05214
 30
0.0
 40
0.0168056
 41
0.0168056
  0
VERTEX
  8
0
 10
11.3664
 20
2.10574
 30
0.0
 40
0.0168056
 41
0.0168056
  0
VERTEX
  8
0
 10
11.2585
 20
2.15733
 30
0.0
 40
0.0168056
 41
0.0168056
  0
VERTEX
  8
0
 10
11.1539
 20
2.20171
 30
0.0
 40
0.0168056
 41
0.0168056
  0
VERTEX
  8
0
 10
11.0835
 20
2.22715
 30
0.0
 40
0.0168056
 41
0.0168056
  0
VERTEX
  8
0
 10
11.0596
 20
2.23383
 30
0.0
 40
0.0168056
 41
0.0168056
  0
VERTEX
  8
0
 10
11.0331
 20
2.24126
 30
0.0
 40
0.0168056
 41
0.0168056
  0
VERTEX
  8
0
 10
10.9516
 20
2.25612
 30
0.0
 40
0.0168056
 41
0.0168056
  0
VERTEX
  8
0
 10
10.8068
 20
2.27322
 30
0.0
 40
0.0168056
 41
0.0168056
  0
VERTEX
  8
0
 10
10.6336
 20
2.28336
 30
0.0
 40
0.0168056
 41
0.0168056
  0
VERTEX
  8
0
 10
10.4403
 20
2.28478
 30
0.0
 40
0.0168056
 41
0.0168056
  0
VERTEX
  8
0
 10
10.2353
 20
2.27582
 30
0.0
 40
0.0168056
 41
0.0168056
  0
VERTEX
  8
0
 10
10.027
 20
2.25472
 30
0.0
 40
0.0168056
 41
0.0168056
  0
VERTEX
  8
0
 10
9.82363
 20
2.21967
 30
0.0
 40
0.0168056
 41
0.0168056
  0
VERTEX
  8
0
 10
9.68024
 20
2.18425
 30
0.0
 40
0.0168056
 41
0.0168056
  0
VERTEX
  8
0
 10
9.63362
 20
2.169
 30
0.0
 40
0.0168056
 41
0.0168056
  0
VERTEX
  8
0
 10
9.5874
 20
2.15392
 30
0.0
 40
0.0168056
 41
0.0168056
  0
VERTEX
  8
0
 10
9.44987
 20
2.10514
 30
0.0
 40
0.0168056
 41
0.0168056
  0
VERTEX
  8
0
 10
9.26281
 20
2.03304
 30
0.0
 40
0.0168056
 41
0.0168056
  0
VERTEX
  8
0
 10
9.07682
 20
1.95486
 30
0.0
 40
0.0168056
 41
0.0168056
  0
VERTEX
  8
0
 10
8.89638
 20
1.87278
 30
0.0
 40
0.0168056
 41
0.0168056
  0
VERTEX
  8
0
 10
8.72586
 20
1.7889
 30
0.0
 40
0.0168056
 41
0.0168056
  0
VERTEX
  8
0
 10
8.56982
 20
1.70551
 30
0.0
 40
0.0168056
 41
0.0168056
  0
VERTEX
  8
0
 10
8.43267
 20
1.62472
 30
0.0
 40
0.0168056
 41
0.0168056
  0
VERTEX
  8
0
 10
8.34651
 20
1.56874
 30
0.0
 40
0.0168056
 41
0.0168056
  0
VERTEX
  8
0
 10
8.31885
 20
1.54867
 30
0.0
 40
0.0168056
 41
0.0168056
  0
VERTEX
  8
0
 10
8.28461
 20
1.52393
 30
0.0
 40
0.0168056
 41
0.0168056
  0
VERTEX
  8
0
 10
8.18815
 20
1.44125
 30
0.0
 40
0.0168056
 41
0.0168056
  0
VERTEX
  8
0
 10
8.06028
 20
1.3163
 30
0.0
 40
0.0168056
 41
0.0168056
  0
VERTEX
  8
0
 10
7.94362
 20
1.18918
 30
0.0
 40
0.0168056
 41
0.0168056
  0
VERTEX
  8
0
 10
7.87056
 20
1.10411
 30
0.0
 40
0.0168056
 41
0.0168056
  0
VERTEX
  8
0
 10
7.84679
 20
1.07525
 30
0.0
 40
0.0168056
 41
0.0168056
  0
VERTEX
  8
0
 10
7.79997
 20
5.2111
 30
0.0
 40
0.0168056
 41
0.0168056
  0
VERTEX
  8
0
 10
7.829
 20
5.22254
 30
0.0
 40
0.0168056
 41
0.0168056
  0
VERTEX
  8
0
 10
7.91178
 20
5.26807
 30
0.0
 40
0.0168056
 41
0.0168056
  0
VERTEX
  8
0
 10
7.99789
 20
5.3399
 30
0.0
 40
0.0168056
 41
0.0168056
  0
VERTEX
  8
0
 10
8.05317
 20
5.4235
 30
0.0
 40
0.0168056
 41
0.0168056
  0
VERTEX
  8
0
 10
8.07275
 20
5.49283
 30
0.0
 40
0.0168056
 41
0.0168056
  0
VERTEX
  8
0
 10
8.07275
 20
5.51594
 30
0.0
 40
0.0168056
 41
0.0168056
  0
VERTEX
  8
0
 10
8.07275
 20
5.54021
 30
0.0
 40
0.0168056
 41
0.0168056
  0
VERTEX
  8
0
 10
8.05117
 20
5.61296
 30
0.0
 40
0.0168056
 41
0.0168056
  0
VERTEX
  8
0
 10
7.9904
 20
5.69997
 30
0.0
 40
0.0168056
 41
0.0168056
  0
VERTEX
  8
0
 10
7.89621
 20
5.7736
 30
0.0
 40
0.0168056
 41
0.0168056
  0
VERTEX
  8
0
 10
7.80588
 20
5.81922
 30
0.0
 40
0.0168056
 41
0.0168056
  0
VERTEX
  8
0
 10
7.77436
 20
5.83029
 30
0.0
 40
0.0168056
 41
0.0168056
  0
VERTEX
  8
0
 10
7.77436
 20
7.42578
 30
0.0
 40
0.0168056
 41
0.0168056
  0
VERTEX
  8
0
 10
7.17725
 20
7.42578
 30
0.0
 40
0.0168056
 41
0.0168056
  0
VERTEX
  8
0
 10
7.17725
 20
5.83029
 30
0.0
 40
0.0168056
 41
0.0168056
  0
VERTEX
  8
0
 10
7.14567
 20
5.81922
 30
0.0
 40
0.0168056
 41
0.0168056
  0
VERTEX
  8
0
 10
7.05533
 20
5.7736
 30
0.0
 40
0.0168056
 41
0.0168056
  0
VERTEX
  8
0
 10
6.96115
 20
5.69997
 30
0.0
 40
0.0168056
 41
0.0168056
  0
VERTEX
  8
0
 10
6.90039
 20
5.61296
 30
0.0
 40
0.0168056
 41
0.0168056
  0
VERTEX
  8
0
 10
6.87885
 20
5.54021
 30
0.0
 40
0.0168056
 41
0.0168056
  0
VERTEX
  8
0
 10
6.87885
 20
5.51594
 30
0.0
 40
0.0168056
 41
0.0168056
  0
VERTEX
  8
0
 10
6.87885
 20
5.49283
 30
0.0
 40
0.0168056
 41
0.0168056
  0
VERTEX
  8
0
 10
6.89839
 20
5.4235
 30
0.0
 40
0.0168056
 41
0.0168056
  0
VERTEX
  8
0
 10
6.95367
 20
5.3399
 30
0.0
 40
0.0168056
 41
0.0168056
  0
VERTEX
  8
0
 10
7.03976
 20
5.26807
 30
0.0
 40
0.0168056
 41
0.0168056
  0
VERTEX
  8
0
 10
7.12261
 20
5.2226
 30
0.0
 40
0.0168056
 41
0.0168056
  0
VERTEX
  8
0
 10
7.15169
 20
5.2111
 30
0.0
 40
0.0168056
 41
0.0168056
  0
VERTEX
  8
0
 10
7.10493
 20
1.08181
 30
0.0
 40
0.0168056
 41
0.0168056
  0
VERTEX
  8
0
 10
7.08122
 20
1.11051
 30
0.0
 40
0.0168056
 41
0.0168056
  0
VERTEX
  8
0
 10
7.00825
 20
1.19504
 30
0.0
 40
0.0168056
 41
0.0168056
  0
VERTEX
  8
0
 10
6.89285
 20
1.32037
 30
0.0
 40
0.0168056
 41
0.0168056
  0
VERTEX
  8
0
 10
6.76682
 20
1.44308
 30
0.0
 40
0.0168056
 41
0.0168056
  0
VERTEX
  8
0
 10
6.67188
 20
1.52436
 30
0.0
 40
0.0168056
 41
0.0168056
  0
VERTEX
  8
0
 10
6.63829
 20
1.54867
 30
0.0
 40
0.0168056
 41
0.0168056
  0
VERTEX
  8
0
 10
6.61057
 20
1.56874
 30
0.0
 40
0.0168056
 41
0.0168056
  0
VERTEX
  8
0
 10
6.52442
 20
1.62472
 30
0.0
 40
0.0168056
 41
0.0168056
  0
VERTEX
  8
0
 10
6.38726
 20
1.70551
 30
0.0
 40
0.0168056
 41
0.0168056
  0
VERTEX
  8
0
 10
6.23118
 20
1.7889
 30
0.0
 40
0.0168056
 41
0.0168056
  0
VERTEX
  8
0
 10
6.06071
 20
1.87278
 30
0.0
 40
0.0168056
 41
0.0168056
  0
VERTEX
  8
0
 10
5.88026
 20
1.95486
 30
0.0
 40
0.0168056
 41
0.0168056
  0
VERTEX
  8
0
 10
5.69422
 20
2.03304
 30
0.0
 40
0.0168056
 41
0.0168056
  0
VERTEX
  8
0
 10
5.50717
 20
2.10514
 30
0.0
 40
0.0168056
 41
0.0168056
  0
VERTEX
  8
0
 10
5.36963
 20
2.15392
 30
0.0
 40
0.0168056
 41
0.0168056
  0
VERTEX
  8
0
 10
5.32346
 20
2.169
 30
0.0
 40
0.0168056
 41
0.0168056
  0
VERTEX
  8
0
 10
5.27681
 20
2.18431
 30
0.0
 40
0.0168056
 41
0.0168056
  0
VERTEX
  8
0
 10
5.1334
 20
2.21967
 30
0.0
 40
0.0168056
 41
0.0168056
  0
VERTEX
  8
0
 10
4.93007
 20
2.25472
 30
0.0
 40
0.0168056
 41
0.0168056
  0
VERTEX
  8
0
 10
4.72168
 20
2.27582
 30
0.0
 40
0.0168056
 41
0.0168056
  0
VERTEX
  8
0
 10
4.51671
 20
2.28478
 30
0.0
 40
0.0168056
 41
0.0168056
  0
VERTEX
  8
0
 10
4.32346
 20
2.28336
 30
0.0
 40
0.0168056
 41
0.0168056
  0
VERTEX
  8
0
 10
4.15022
 20
2.27322
 30
0.0
 40
0.0168056
 41
0.0168056
  0
VERTEX
  8
0
 10
4.00549
 20
2.25612
 30
0.0
 40
0.0168056
 41
0.0168056
  0
VERTEX
  8
0
 10
3.92399
 20
2.24126
 30
0.0
 40
0.0168056
 41
0.0168056
  0
VERTEX
  8
0
 10
3.89751
 20
2.23383
 30
0.0
 40
0.0168056
 41
0.0168056
  0
VERTEX
  8
0
 10
3.87354
 20
2.22715
 30
0.0
 40
0.0168056
 41
0.0168056
  0
VERTEX
  8
0
 10
3.80317
 20
2.20171
 30
0.0
 40
0.0168056
 41
0.0168056
  0
VERTEX
  8
0
 10
3.69857
 20
2.15733
 30
0.0
 40
0.0168056
 41
0.0168056
  0
VERTEX
  8
0
 10
3.59071
 20
2.10574
 30
0.0
 40
0.0168056
 41
0.0168056
  0
VERTEX
  8
0
 10
3.48665
 20
2.05214
 30
0.0
 40
0.0168056
 41
0.0168056
  0
VERTEX
  8
0
 10
3.39339
 20
2.00157
 30
0.0
 40
0.0168056
 41
0.0168056
  0
VERTEX
  8
0
 10
3.31808
 20
1.9591
 30
0.0
 40
0.0168056
 41
0.0168056
  0
VERTEX
  8
0
 10
3.26774
 20
1.9299
 30
0.0
 40
0.0168056
 41
0.0168056
  0
VERTEX
  8
0
 10
3.2494
 20
1.919
 30
0.0
 40
0.0168056
 41
0.0168056
  0
VERTEX
  8
0
 10
3.2494
 20
1.919
 30
0.0
 40
0.0168056
 41
0.0168056
  0
VERTEX
  8
0
 10
3.24431
 20
1.91525
 30
0.0
 40
0.0168056
 41
0.0168056
  0
VERTEX
  8
0
 10
3.2309
 20
1.90147
 30
0.0
 40
0.0168056
 41
0.0168056
  0
VERTEX
  8
0
 10
3.22825
 20
1.88981
 30
0.0
 40
0.0168056
 41
0.0168056
  0
VERTEX
  8
0
 10
3.23731
 20
1.88292
 30
0.0
 40
0.0168056
 41
0.0168056
  0
VERTEX
  8
0
 10
3.25396
 20
1.87967
 30
0.0
 40
0.0168056
 41
0.0168056
  0
VERTEX
  8
0
 10
3.27414
 20
1.87907
 30
0.0
 40
0.0168056
 41
0.0168056
  0
VERTEX
  8
0
 10
3.29363
 20
1.87999
 30
0.0
 40
0.0168056
 41
0.0168056
  0
VERTEX
  8
0
 10
3.30832
 20
1.88135
 30
0.0
 40
0.0168056
 41
0.0168056
  0
VERTEX
  8
0
 10
3.31418
 20
1.882
 30
0.0
 40
0.0168056
 41
0.0168056
  0
VERTEX
  8
0
 10
3.31418
 20
1.882
 30
0.0
 40
0.0168056
 41
0.0168056
  0
VERTEX
  8
0
 10
3.31418
 20
1.882
 30
0.0
 40
0.0168056
 41
0.0168056
  0
VERTEX
  8
0
 10
3.3335
 20
1.88803
 30
0.0
 40
0.0168056
 41
0.0168056
  0
VERTEX
  8
0
 10
3.38558
 20
1.90381
 30
0.0
 40
0.0168056
 41
0.0168056
  0
VERTEX
  8
0
 10
3.46153
 20
1.926
 30
0.0
 40
0.0168056
 41
0.0168056
  0
VERTEX
  8
0
 10
3.55246
 20
1.95128
 30
0.0
 40
0.0168056
 41
0.0168056
  0
VERTEX
  8
0
 10
3.64942
 20
1.97624
 30
0.0
 40
0.0168056
 41
0.0168056
  0
VERTEX
  8
0
 10
3.74365
 20
1.9975
 30
0.0
 40
0.0168056
 41
0.0168056
  0
VERTEX
  8
0
 10
3.82611
 20
2.01178
 30
0.0
 40
0.0168056
 41
0.0168056
  0
VERTEX
  8
0
 10
3.87267
 20
2.01639
 30
0.0
 40
0.0168056
 41
0.0168056
  0
VERTEX
  8
0
 10
3.88807
 20
2.01563
 30
0.0
 40
0.0168056
 41
0.0168056
  0
VERTEX
  8
0
 10
3.9216
 20
2.014
 30
0.0
 40
0.0168056
 41
0.0168056
  0
VERTEX
  8
0
 10
4.02138
 20
1.98975
 30
0.0
 40
0.0168056
 41
0.0168056
  0
VERTEX
  8
0
 10
4.12842
 20
1.942
 30
0.0
 40
0.0168056
 41
0.0168056
  0
VERTEX
  8
0
 10
4.19965
 20
1.89611
 30
0.0
 40
0.0168056
 41
0.0168056
  0
VERTEX
  8
0
 10
4.22553
 20
1.87554
 30
0.0
 40
0.0168056
 41
0.0168056
  0
VERTEX
  8
0
 10
4.22553
 20
1.87554
 30
0.0
 40
0.0168056
 41
0.0168056
  0
VERTEX
  8
0
 10
4.25743
 20
1.87836
 30
0.0
 40
0.0168056
 41
0.0168056
  0
VERTEX
  8
0
 10
4.35331
 20
1.8851
 30
0.0
 40
0.0168056
 41
0.0168056
  0
VERTEX
  8
0
 10
4.45524
 20
1.88943
 30
0.0
 40
0.0168056
 41
0.0168056
  0
VERTEX
  8
0
 10
4.53603
 20
1.88943
 30
0.0
 40
0.0168056
 41
0.0168056
  0
VERTEX
  8
0
 10
4.60047
 20
1.88607
 30
0.0
 40
0.0168056
 41
0.0168056
  0
VERTEX
  8
0
 10
4.65326
 20
1.88015
 30
0.0
 40
0.0168056
 41
0.0168056
  0
VERTEX
  8
0
 10
4.69917
 20
1.87267
 30
0.0
 40
0.0168056
 41
0.0168056
  0
VERTEX
  8
0
 10
4.74283
 20
1.86447
 30
0.0
 40
0.0168056
 41
0.0168056
  0
VERTEX
  8
0
 10
4.77746
 20
1.85824
 30
0.0
 40
0.0168056
 41
0.0168056
  0
VERTEX
  8
0
 10
4.78907
 20
1.85644
 30
0.0
 40
0.0168056
 41
0.0168056
  0
VERTEX
  8
0
 10
4.80789
 20
1.85357
 30
0.0
 40
0.0168056
 41
0.0168056
  0
VERTEX
  8
0
 10
4.86296
 20
1.83512
 30
0.0
 40
0.0168056
 41
0.0168056
  0
VERTEX
  8
0
 10
4.94396
 20
1.79639
 30
0.0
 40
0.0168056
 41
0.0168056
  0
VERTEX
  8
0
 10
5.02681
 20
1.74664
 30
0.0
 40
0.0168056
 41
0.0168056
  0
VERTEX
  8
0
 10
5.10633
 20
1.69194
 30
0.0
 40
0.0168056
 41
0.0168056
  0
VERTEX
  8
0
 10
5.17725
 20
1.63861
 30
0.0
 40
0.0168056
 41
0.0168056
  0
VERTEX
  8
0
 10
5.23438
 20
1.59278
 30
0.0
 40
0.0168056
 41
0.0168056
  0
VERTEX
  8
0
 10
5.27251
 20
1.56076
 30
0.0
 40
0.0168056
 41
0.0168056
  0
VERTEX
  8
0
 10
5.2864
 20
1.54867
 30
0.0
 40
0.0168056
 41
0.0168056
  0
VERTEX
  8
0
 10
5.2864
 20
1.54867
 30
0.0
 40
0.0168056
 41
0.0168056
  0
VERTEX
  8
0
 10
5.2864
 20
1.54867
 30
0.0
 40
0.0168056
 41
0.0168056
  0
VERTEX
  8
0
 10
5.30354
 20
1.54893
 30
0.0
 40
0.0168056
 41
0.0168056
  0
VERTEX
  8
0
 10
5.35075
 20
1.5491
 30
0.0
 40
0.0168056
 41
0.0168056
  0
VERTEX
  8
0
 10
5.42165
 20
1.54818
 30
0.0
 40
0.0168056
 41
0.0168056
  0
VERTEX
  8
0
 10
5.50976
 20
1.54519
 30
0.0
 40
0.0168056
 41
0.0168056
  0
VERTEX
  8
0
 10
5.60872
 20
1.53917
 30
0.0
 40
0.0168056
 41
0.0168056
  0
VERTEX
  8
0
 10
5.71218
 20
1.52914
 30
0.0
 40
0.0168056
 41
0.0168056
  0
VERTEX
  8
0
 10
5.81364
 20
1.51411
 30
0.0
 40
0.0168056
 41
0.0168056
  0
VERTEX
  8
0
 10
5.88385
 20
1.49957
 30
0.0
 40
0.0168056
 41
0.0168056
  0
VERTEX
  8
0
 10
5.90679
 20
1.49311
 30
0.0
 40
0.0168056
 41
0.0168056
  0
VERTEX
  8
0
 10
5.9286
 20
1.48703
 30
0.0
 40
0.0168056
 41
0.0168056
  0
VERTEX
  8
0
 10
5.9924
 20
1.46257
 30
0.0
 40
0.0168056
 41
0.0168056
  0
VERTEX
  8
0
 10
6.07443
 20
1.42236
 30
0.0
 40
0.0168056
 41
0.0168056
  0
VERTEX
  8
0
 10
6.15104
 20
1.37674
 30
0.0
 40
0.0168056
 41
0.0168056
  0
VERTEX
  8
0
 10
6.22043
 20
1.32992
 30
0.0
 40
0.0168056
 41
0.0168056
  0
VERTEX
  8
0
 10
6.28065
 20
1.28613
 30
0.0
 40
0.0168056
 41
0.0168056
  0
VERTEX
  8
0
 10
6.32997
 20
1.24962
 30
0.0
 40
0.0168056
 41
0.0168056
  0
VERTEX
  8
0
 10
6.36643
 20
1.22461
 30
0.0
 40
0.0168056
 41
0.0168056
  0
VERTEX
  8
0
 10
6.38282
 20
1.21533
 30
0.0
 40
0.0168056
 41
0.0168056
  0
VERTEX
  8
0
 10
6.38829
 20
1.21533
 30
0.0
 40
0.0168056
 41
0.0168056
  0
VERTEX
  8
0
 10
6.4036
 20
1.21533
 30
0.0
 40
0.0168056
 41
0.0168056
  0
VERTEX
  8
0
 10
6.4496
 20
1.2149
 30
0.0
 40
0.0168056
 41
0.0168056
  0
VERTEX
  8
0
 10
6.55257
 20
1.21186
 30
0.0
 40
0.0168056
 41
0.0168056
  0
VERTEX
  8
0
 10
6.65907
 20
1.20361
 30
0.0
 40
0.0168056
 41
0.0168056
  0
VERTEX
  8
0
 10
6.71696
 20
1.1945
 30
0.0
 40
0.0168056
 41
0.0168056
  0
VERTEX
  8
0
 10
6.73085
 20
1.18755
 30
0.0
 40
0.0168056
 41
0.0168056
  0
VERTEX
  8
0
 10
6.73665
 20
1.18468
 30
0.0
 40
0.0168056
 41
0.0168056
  0
VERTEX
  8
0
 10
6.75288
 20
1.17301
 30
0.0
 40
0.0168056
 41
0.0168056
  0
VERTEX
  8
0
 10
6.78787
 20
1.14567
 30
0.0
 40
0.0168056
 41
0.0168056
  0
VERTEX
  8
0
 10
6.8329
 20
1.10834
 30
0.0
 40
0.0168056
 41
0.0168056
  0
VERTEX
  8
0
 10
6.88488
 20
1.06397
 30
0.0
 40
0.0168056
 41
0.0168056
  0
VERTEX
  8
0
 10
6.94086
 20
1.0153
 30
0.0
 40
0.0168056
 41
0.0168056
  0
VERTEX
  8
0
 10
6.99778
 20
0.965115
 30
0.0
 40
0.0168056
 41
0.0168056
  0
VERTEX
  8
0
 10
7.05268
 20
0.916342
 30
0.0
 40
0.0168056
 41
0.0168056
  0
VERTEX
  8
0
 10
7.09006
 20
0.882921
 30
0.0
 40
0.0168056
 41
0.0168056
  0
VERTEX
  8
0
 10
7.10254
 20
0.871744
 30
0.0
 40
0.0168056
 41
0.0168056
  0
VERTEX
  8
0
 10
7.09619
 20
0.307889
 30
0.0
 40
0.0168056
 41
0.0168056
  0
VERTEX
  8
0
 10
7.85547
 20
0.307889
 30
0.0
 40
0.0168056
 41
0.0168056
  0
VERTEX
  8
0
 10
7.84913
 20
0.866863
 30
0.0
 40
0.0168056
 41
0.0168056
  0
VERTEX
  8
0
 10
7.86154
 20
0.878039
 30
0.0
 40
0.0168056
 41
0.0168056
  0
VERTEX
  8
0
 10
7.89893
 20
0.911458
 30
0.0
 40
0.0168056
 41
0.0168056
  0
VERTEX
  8
0
 10
7.95426
 20
0.960721
 30
0.0
 40
0.0168056
 41
0.0168056
  0
VERTEX
  8
0
 10
8.01199
 20
1.01156
 30
0.0
 40
0.0168056
 41
0.0168056
  0
VERTEX
  8
0
 10
8.0689
 20
1.06114
 30
0.0
 40
0.0168056
 41
0.0168056
  0
VERTEX
  8
0
 10
8.12196
 20
1.1065
 30
0.0
 40
0.0168056
 41
0.0168056
  0
VERTEX
  8
0
 10
8.16797
 20
1.14469
 30
0.0
 40
0.0168056
 41
0.0168056
  0
VERTEX
  8
0
 10
8.20378
 20
1.17269
 30
0.0
 40
0.0168056
 41
0.0168056
  0
VERTEX
  8
0
 10
8.22026
 20
1.18457
 30
0.0
 40
0.0168056
 41
0.0168056
  0
VERTEX
  8
0
 10
8.22624
 20
1.18755
 30
0.0
 40
0.0168056
 41
0.0168056
  0
VERTEX
  8
0
 10
8.24013
 20
1.1945
 30
0.0
 40
0.0168056
 41
0.0168056
  0
VERTEX
  8
0
 10
8.29796
 20
1.20361
 30
0.0
 40
0.0168056
 41
0.0168056
  0
VERTEX
  8
0
 10
8.40446
 20
1.21186
 30
0.0
 40
0.0168056
 41
0.0168056
  0
VERTEX
  8
0
 10
8.50749
 20
1.2149
 30
0.0
 40
0.0168056
 41
0.0168056
  0
VERTEX
  8
0
 10
8.5535
 20
1.21533
 30
0.0
 40
0.0168056
 41
0.0168056
  0
VERTEX
  8
0
 10
8.56885
 20
1.21533
 30
0.0
 40
0.0168056
 41
0.0168056
  0
VERTEX
  8
0
 10
8.57428
 20
1.21533
 30
0.0
 40
0.0168056
 41
0.0168056
  0
VERTEX
  8
0
 10
8.59065
 20
1.22461
 30
0.0
 40
0.0168056
 41
0.0168056
  0
VERTEX
  8
0
 10
8.62711
 20
1.24962
 30
0.0
 40
0.0168056
 41
0.0168056
  0
VERTEX
  8
0
 10
8.67637
 20
1.28613
 30
0.0
 40
0.0168056
 41
0.0168056
  0
VERTEX
  8
0
 10
8.73665
 20
1.32992
 30
0.0
 40
0.0168056
 41
0.0168056
  0
VERTEX
  8
0
 10
8.80599
 20
1.37674
 30
0.0
 40
0.0168056
 41
0.0168056
  0
VERTEX
  8
0
 10
8.8826
 20
1.42236
 30
0.0
 40
0.0168056
 41
0.0168056
  0
VERTEX
  8
0
 10
8.96463
 20
1.46257
 30
0.0
 40
0.0168056
 41
0.0168056
  0
VERTEX
  8
0
 10
9.02843
 20
1.48703
 30
0.0
 40
0.0168056
 41
0.0168056
  0
VERTEX
  8
0
 10
9.05029
 20
1.49311
 30
0.0
 40
0.0168056
 41
0.0168056
  0
VERTEX
  8
0
 10
9.07319
 20
1.49957
 30
0.0
 40
0.0168056
 41
0.0168056
  0
VERTEX
  8
0
 10
9.14339
 20
1.51411
 30
0.0
 40
0.0168056
 41
0.0168056
  0
VERTEX
  8
0
 10
9.24485
 20
1.52914
 30
0.0
 40
0.0168056
 41
0.0168056
  0
VERTEX
  8
0
 10
9.34831
 20
1.53917
 30
0.0
 40
0.0168056
 41
0.0168056
  0
VERTEX
  8
0
 10
9.44726
 20
1.54519
 30
0.0
 40
0.0168056
 41
0.0168056
  0
VERTEX
  8
0
 10
9.53538
 20
1.54818
 30
0.0
 40
0.0168056
 41
0.0168056
  0
VERTEX
  8
0
 10
9.60628
 20
1.5491
 30
0.0
 40
0.0168056
 41
0.0168056
  0
VERTEX
  8
0
 10
9.65349
 20
1.54893
 30
0.0
 40
0.0168056
 41
0.0168056
  0
VERTEX
  8
0
 10
9.67068
 20
1.54867
 30
0.0
 40
0.0168056
 41
0.0168056
  0
VERTEX
  8
0
 10
9.67068
 20
1.54867
 30
0.0
 40
0.0168056
 41
0.0168056
  0
VERTEX
  8
0
 10
9.67068
 20
1.54867
 30
0.0
 40
0.0168056
 41
0.0168056
  0
VERTEX
  8
0
 10
9.68451
 20
1.56076
 30
0.0
 40
0.0168056
 41
0.0168056
  0
VERTEX
  8
0
 10
9.72265
 20
1.59278
 30
0.0
 40
0.0168056
 41
0.0168056
  0
VERTEX
  8
0
 10
9.77979
 20
1.63861
 30
0.0
 40
0.0168056
 41
0.0168056
  0
VERTEX
  8
0
 10
9.85075
 20
1.69194
 30
0.0
 40
0.0168056
 41
0.0168056
  0
VERTEX
  8
0
 10
9.93024
 20
1.74664
 30
0.0
 40
0.0168056
 41
0.0168056
  0
VERTEX
  8
0
 10
10.0131
 20
1.79639
 30
0.0
 40
0.0168056
 41
0.0168056
  0
VERTEX
  8
0
 10
10.0941
 20
1.83512
 30
0.0
 40
0.0168056
 41
0.0168056
  0
VERTEX
  8
0
 10
10.1492
 20
1.85357
 30
0.0
 40
0.0168056
 41
0.0168056
  0
VERTEX
  8
0
 10
10.1681
 20
1.85644
 30
0.0
 40
0.0168056
 41
0.0168056
  0
VERTEX
  8
0
 10
10.1796
 20
1.85824
 30
0.0
 40
0.0168056
 41
0.0168056
  0
VERTEX
  8
0
 10
10.2143
 20
1.86447
 30
0.0
 40
0.0168056
 41
0.0168056
  0
VERTEX
  8
0
 10
10.2579
 20
1.87267
 30
0.0
 40
0.0168056
 41
0.0168056
  0
VERTEX
  8
0
 10
10.3038
 20
1.88015
 30
0.0
 40
0.0168056
 41
0.0168056
  0
VERTEX
  8
0
 10
10.3566
 20
1.88607
 30
0.0
 40
0.0168056
 41
0.0168056
  0
VERTEX
  8
0
 10
10.421
 20
1.88943
 30
0.0
 40
0.0168056
 41
0.0168056
  0
VERTEX
  8
0
 10
10.5018
 20
1.88943
 30
0.0
 40
0.0168056
 41
0.0168056
  0
VERTEX
  8
0
 10
10.6037
 20
1.8851
 30
0.0
 40
0.0168056
 41
0.0168056
  0
VERTEX
  8
0
 10
10.6996
 20
1.87836
 30
0.0
 40
0.0168056
 41
0.0168056
  0
VERTEX
  8
0
 10
10.7316
 20
1.87554
 30
0.0
 40
0.0168056
 41
0.0168056
  0
VERTEX
  8
0
 10
10.7316
 20
1.87554
 30
0.0
 40
0.0168056
 41
0.0168056
  0
VERTEX
  8
0
 10
10.7574
 20
1.89611
 30
0.0
 40
0.0168056
 41
0.0168056
  0
VERTEX
  8
0
 10
10.8287
 20
1.942
 30
0.0
 40
0.0168056
 41
0.0168056
  0
VERTEX
  8
0
 10
10.9357
 20
1.98975
 30
0.0
 40
0.0168056
 41
0.0168056
  0
VERTEX
  8
0
 10
11.0354
 20
2.014
 30
0.0
 40
0.0168056
 41
0.0168056
  0
VERTEX
  8
0
 10
11.069
 20
2.01563
 30
0.0
 40
0.0168056
 41
0.0168056
  0
VERTEX
  8
0
 10
11.0844
 20
2.01639
 30
0.0
 40
0.0168056
 41
0.0168056
  0
VERTEX
  8
0
 10
11.1309
 20
2.01178
 30
0.0
 40
0.0168056
 41
0.0168056
  0
VERTEX
  8
0
 10
11.2134
 20
1.9975
 30
0.0
 40
0.0168056
 41
0.0168056
  0
VERTEX
  8
0
 10
11.3076
 20
1.97624
 30
0.0
 40
0.0168056
 41
0.0168056
  0
VERTEX
  8
0
 10
11.4046
 20
1.95128
 30
0.0
 40
0.0168056
 41
0.0168056
  0
VERTEX
  8
0
 10
11.4955
 20
1.926
 30
0.0
 40
0.0168056
 41
0.0168056
  0
VERTEX
  8
0
 10
11.5715
 20
1.90381
 30
0.0
 40
0.0168056
 41
0.0168056
  0
VERTEX
  8
0
 10
11.6235
 20
1.88803
 30
0.0
 40
0.0168056
 41
0.0168056
  0
VERTEX
  8
0
 10
11.6429
 20
1.882
 30
0.0
 40
0.0168056
 41
0.0168056
  0
VERTEX
  8
0
 10
11.6429
 20
1.882
 30
0.0
 40
0.0168056
 41
0.0168056
  0
VERTEX
  8
0
 10
11.6429
 20
1.882
 30
0.0
 40
0.0168056
 41
0.0168056
  0
VERTEX
  8
0
 10
11.6487
 20
1.88135
 30
0.0
 40
0.0168056
 41
0.0168056
  0
VERTEX
  8
0
 10
11.6634
 20
1.87999
 30
0.0
 40
0.0168056
 41
0.0168056
  0
VERTEX
  8
0
 10
11.6829
 20
1.87907
 30
0.0
 40
0.0168056
 41
0.0168056
  0
VERTEX
  8
0
 10
11.7031
 20
1.87967
 30
0.0
 40
0.0168056
 41
0.0168056
  0
VERTEX
  8
0
 10
11.7197
 20
1.88292
 30
0.0
 40
0.0168056
 41
0.0168056
  0
VERTEX
  8
0
 10
11.7288
 20
1.88981
 30
0.0
 40
0.0168056
 41
0.0168056
  0
VERTEX
  8
0
 10
11.7262
 20
1.90147
 30
0.0
 40
0.0168056
 41
0.0168056
  0
VERTEX
  8
0
 10
11.7128
 20
1.91525
 30
0.0
 40
0.0168056
 41
0.0168056
  0
VERTEX
  8
0
 10
11.7077
 20
1.919
 30
0.0
 40
0.0168056
 41
0.0168056
  0
SEQEND
 8
0
  0
POLYLINE
  8
0
 62
     250
 66
     1
 10
0
 20
0
 30
0.0
 70
     1
 40
1
 41
1
  0
VERTEX
  8
0
 10
7.57335
 20
7.20096
 30
0.0
 40
0.0138889
 41
0.0138889
  0
VERTEX
  8
0
 10
7.57335
 20
7.19174
 30
0.0
 40
0.0138889
 41
0.0138889
  0
VERTEX
  8
0
 10
7.56586
 20
7.16407
 30
0.0
 40
0.0138889
 41
0.0138889
  0
VERTEX
  8
0
 10
7.54557
 20
7.1339
 30
0.0
 40
0.0138889
 41
0.0138889
  0
VERTEX
  8
0
 10
7.51546
 20
7.11361
 30
0.0
 40
0.0138889
 41
0.0138889
  0
VERTEX
  8
0
 10
7.48779
 20
7.10612
 30
0.0
 40
0.0138889
 41
0.0138889
  0
VERTEX
  8
0
 10
7.47857
 20
7.10612
 30
0.0
 40
0.0138889
 41
0.0138889
  0
VERTEX
  8
0
 10
7.46929
 20
7.10612
 30
0.0
 40
0.0138889
 41
0.0138889
  0
VERTEX
  8
0
 10
7.44163
 20
7.11361
 30
0.0
 40
0.0138889
 41
0.0138889
  0
VERTEX
  8
0
 10
7.41146
 20
7.1339
 30
0.0
 40
0.0138889
 41
0.0138889
  0
VERTEX
  8
0
 10
7.39117
 20
7.16407
 30
0.0
 40
0.0138889
 41
0.0138889
  0
VERTEX
  8
0
 10
7.38374
 20
7.19174
 30
0.0
 40
0.0138889
 41
0.0138889
  0
VERTEX
  8
0
 10
7.38374
 20
7.20096
 30
0.0
 40
0.0138889
 41
0.0138889
  0
VERTEX
  8
0
 10
7.38374
 20
7.21024
 30
0.0
 40
0.0138889
 41
0.0138889
  0
VERTEX
  8
0
 10
7.39117
 20
7.2379
 30
0.0
 40
0.0138889
 41
0.0138889
  0
VERTEX
  8
0
 10
7.41146
 20
7.26801
 30
0.0
 40
0.0138889
 41
0.0138889
  0
VERTEX
  8
0
 10
7.44163
 20
7.28836
 30
0.0
 40
0.0138889
 41
0.0138889
  0
VERTEX
  8
0
 10
7.46929
 20
7.29579
 30
0.0
 40
0.0138889
 41
0.0138889
  0
VERTEX
  8
0
 10
7.47857
 20
7.29579
 30
0.0
 40
0.0138889
 41
0.0138889
  0
VERTEX
  8
0
 10
7.48779
 20
7.29579
 30
0.0
 40
0.0138889
 41
0.0138889
  0
VERTEX
  8
0
 10
7.51546
 20
7.28836
 30
0.0
 40
0.0138889
 41
0.0138889
  0
VERTEX
  8
0
 10
7.54557
 20
7.26801
 30
0.0
 40
0.0138889
 41
0.0138889
  0
VERTEX
  8
0
 10
7.56586
 20
7.2379
 30
0.0
 40
0.0138889
 41
0.0138889
  0
VERTEX
  8
0
 10
7.57335
 20
7.21024
 30
0.0
 40
0.0138889
 41
0.0138889
  0
VERTEX
  8
0
 10
7.57335
 20
7.20096
 30
0.0
 40
0.0138889
 41
0.0138889
  0
SEQEND
 8
0
  0
ENDSEC
  0
EOF
