  0
SECTION
  2
HEADER
  9
$ACADVER
  1
AC1009
  9
$EXTMIN
 10
0.0
 20
0.0
 30
0.0
  9
$EXTMAX
 10
1000.0
 20
1000.0
 30
0.0
  9
$FILLMODE
 70
 0
  9
$SPLFRAME
 70
 1
  0
ENDSEC
  0
SECTION
  2
TABLES
  0
TABLE
  2
LAYER
 70
1
  0
LAYER
  2
0
 70
     0
 62
     7
  6
CONTINUOUS
  0
ENDTAB
  0
ENDSEC
  0
SECTION
  2
ENTITIES
  0
POLYLINE
  8
0
 62
     1
 66
     1
 10
0
 20
0
 30
0.0
 70
     1
 40
0
 41
0
  0
VERTEX
  8
0
 10
7.26904
 20
0.47385
 30
0.0
 40
0
 41
0
  0
VERTEX
  8
0
 10
7.24593
 20
0.47385
 30
0.0
 40
0
 41
0
  0
VERTEX
  8
0
 10
7.17665
 20
0.483236
 30
0.0
 40
0
 41
0
  0
VERTEX
  8
0
 10
7.09056
 20
0.510037
 30
0.0
 40
0
 41
0
  0
VERTEX
  8
0
 10
7.01253
 20
0.552408
 30
0.0
 40
0
 41
0
  0
VERTEX
  8
0
 10
6.94461
 20
0.608507
 30
0.0
 40
0
 41
0
  0
VERTEX
  8
0
 10
6.88846
 20
0.676486
 30
0.0
 40
0
 41
0
  0
VERTEX
  8
0
 10
6.84608
 20
0.754449
 30
0.0
 40
0
 41
0
  0
VERTEX
  8
0
 10
6.81928
 20
0.840603
 30
0.0
 40
0
 41
0
  0
VERTEX
  8
0
 10
6.80994
 20
0.909885
 30
0.0
 40
0
 41
0
  0
VERTEX
  8
0
 10
6.80994
 20
0.932943
 30
0.0
 40
0
 41
0
  0
VERTEX
  8
0
 10
6.80994
 20
0.956054
 30
0.0
 40
0
 41
0
  0
VERTEX
  8
0
 10
6.81928
 20
1.02539
 30
0.0
 40
0
 41
0
  0
VERTEX
  8
0
 10
6.84608
 20
1.11149
 30
0.0
 40
0
 41
0
  0
VERTEX
  8
0
 10
6.88846
 20
1.18945
 30
0.0
 40
0
 41
0
  0
VERTEX
  8
0
 10
6.94461
 20
1.25743
 30
0.0
 40
0
 41
0
  0
VERTEX
  8
0
 10
7.01253
 20
1.31358
 30
0.0
 40
0
 41
0
  0
VERTEX
  8
0
 10
7.09056
 20
1.35596
 30
0.0
 40
0
 41
0
  0
VERTEX
  8
0
 10
7.17665
 20
1.38276
 30
0.0
 40
0
 41
0
  0
VERTEX
  8
0
 10
7.24593
 20
1.39208
 30
0.0
 40
0
 41
0
  0
VERTEX
  8
0
 10
7.26904
 20
1.39208
 30
0.0
 40
0
 41
0
  0
VERTEX
  8
0
 10
7.2921
 20
1.39208
 30
0.0
 40
0
 41
0
  0
VERTEX
  8
0
 10
7.36143
 20
1.38276
 30
0.0
 40
0
 41
0
  0
VERTEX
  8
0
 10
7.44754
 20
1.35596
 30
0.0
 40
0
 41
0
  0
VERTEX
  8
0
 10
7.5255
 20
1.31358
 30
0.0
 40
0
 41
0
  0
VERTEX
  8
0
 10
7.59347
 20
1.25743
 30
0.0
 40
0
 41
0
  0
VERTEX
  8
0
 10
7.64963
 20
1.18945
 30
0.0
 40
0
 41
0
  0
VERTEX
  8
0
 10
7.692
 20
1.11149
 30
0.0
 40
0
 41
0
  0
VERTEX
  8
0
 10
7.71881
 20
1.02539
 30
0.0
 40
0
 41
0
  0
VERTEX
  8
0
 10
7.72819
 20
0.956054
 30
0.0
 40
0
 41
0
  0
VERTEX
  8
0
 10
7.72819
 20
0.932943
 30
0.0
 40
0
 41
0
  0
VERTEX
  8
0
 10
7.72819
 20
0.909885
 30
0.0
 40
0
 41
0
  0
VERTEX
  8
0
 10
7.71881
 20
0.840603
 30
0.0
 40
0
 41
0
  0
VERTEX
  8
0
 10
7.692
 20
0.754449
 30
0.0
 40
0
 41
0
  0
VERTEX
  8
0
 10
7.64963
 20
0.676486
 30
0.0
 40
0
 41
0
  0
VERTEX
  8
0
 10
7.59347
 20
0.608507
 30
0.0
 40
0
 41
0
  0
VERTEX
  8
0
 10
7.5255
 20
0.552408
 30
0.0
 40
0
 41
0
  0
VERTEX
  8
0
 10
7.44754
 20
0.510037
 30
0.0
 40
0
 41
0
  0
VERTEX
  8
0
 10
7.36143
 20
0.483236
 30
0.0
 40
0
 41
0
  0
VERTEX
  8
0
 10
7.2921
 20
0.47385
 30
0.0
 40
0
 41
0
  0
VERTEX
  8
0
 10
7.26904
 20
0.47385
 30
0.0
 40
0
 41
0
  0
SEQEND
 8
0
  0
POLYLINE
  8
0
 62
     1
 66
     1
 10
0
 20
0
 30
0.0
 70
     1
 40
0
 41
0
  0
VERTEX
  8
0
 10
7.26904
 20
0.493544
 30
0.0
 40
0
 41
0
  0
VERTEX
  8
0
 10
7.29113
 20
0.493544
 30
0.0
 40
0
 41
0
  0
VERTEX
  8
0
 10
7.35747
 20
0.502496
 30
0.0
 40
0
 41
0
  0
VERTEX
  8
0
 10
7.43994
 20
0.528157
 30
0.0
 40
0
 41
0
  0
VERTEX
  8
0
 10
7.5146
 20
0.568685
 30
0.0
 40
0
 41
0
  0
VERTEX
  8
0
 10
7.57964
 20
0.622342
 30
0.0
 40
0
 41
0
  0
VERTEX
  8
0
 10
7.63336
 20
0.687392
 30
0.0
 40
0
 41
0
  0
VERTEX
  8
0
 10
7.67389
 20
0.762044
 30
0.0
 40
0
 41
0
  0
VERTEX
  8
0
 10
7.69954
 20
0.84451
 30
0.0
 40
0
 41
0
  0
VERTEX
  8
0
 10
7.7085
 20
0.910861
 30
0.0
 40
0
 41
0
  0
VERTEX
  8
0
 10
7.7085
 20
0.932943
 30
0.0
 40
0
 41
0
  0
VERTEX
  8
0
 10
7.7085
 20
0.955078
 30
0.0
 40
0
 41
0
  0
VERTEX
  8
0
 10
7.69954
 20
1.02143
 30
0.0
 40
0
 41
0
  0
VERTEX
  8
0
 10
7.67389
 20
1.1039
 30
0.0
 40
0
 41
0
  0
VERTEX
  8
0
 10
7.63336
 20
1.17855
 30
0.0
 40
0
 41
0
  0
VERTEX
  8
0
 10
7.57964
 20
1.2436
 30
0.0
 40
0
 41
0
  0
VERTEX
  8
0
 10
7.5146
 20
1.29731
 30
0.0
 40
0
 41
0
  0
VERTEX
  8
0
 10
7.43994
 20
1.33784
 30
0.0
 40
0
 41
0
  0
VERTEX
  8
0
 10
7.35747
 20
1.3635
 30
0.0
 40
0
 41
0
  0
VERTEX
  8
0
 10
7.29113
 20
1.3724
 30
0.0
 40
0
 41
0
  0
VERTEX
  8
0
 10
7.26904
 20
1.3724
 30
0.0
 40
0
 41
0
  0
VERTEX
  8
0
 10
7.2469
 20
1.3724
 30
0.0
 40
0
 41
0
  0
VERTEX
  8
0
 10
7.18056
 20
1.3635
 30
0.0
 40
0
 41
0
  0
VERTEX
  8
0
 10
7.09814
 20
1.33784
 30
0.0
 40
0
 41
0
  0
VERTEX
  8
0
 10
7.02349
 20
1.29731
 30
0.0
 40
0
 41
0
  0
VERTEX
  8
0
 10
6.95844
 20
1.2436
 30
0.0
 40
0
 41
0
  0
VERTEX
  8
0
 10
6.90474
 20
1.17855
 30
0.0
 40
0
 41
0
  0
VERTEX
  8
0
 10
6.86421
 20
1.1039
 30
0.0
 40
0
 41
0
  0
VERTEX
  8
0
 10
6.83854
 20
1.02143
 30
0.0
 40
0
 41
0
  0
VERTEX
  8
0
 10
6.82964
 20
0.955078
 30
0.0
 40
0
 41
0
  0
VERTEX
  8
0
 10
6.82964
 20
0.932943
 30
0.0
 40
0
 41
0
  0
VERTEX
  8
0
 10
6.82964
 20
0.910861
 30
0.0
 40
0
 41
0
  0
VERTEX
  8
0
 10
6.83854
 20
0.84451
 30
0.0
 40
0
 41
0
  0
VERTEX
  8
0
 10
6.86421
 20
0.762044
 30
0.0
 40
0
 41
0
  0
VERTEX
  8
0
 10
6.90474
 20
0.687392
 30
0.0
 40
0
 41
0
  0
VERTEX
  8
0
 10
6.95844
 20
0.622342
 30
0.0
 40
0
 41
0
  0
VERTEX
  8
0
 10
7.02349
 20
0.568685
 30
0.0
 40
0
 41
0
  0
VERTEX
  8
0
 10
7.09814
 20
0.528157
 30
0.0
 40
0
 41
0
  0
VERTEX
  8
0
 10
7.18056
 20
0.502496
 30
0.0
 40
0
 41
0
  0
VERTEX
  8
0
 10
7.2469
 20
0.493544
 30
0.0
 40
0
 41
0
  0
VERTEX
  8
0
 10
7.26904
 20
0.493544
 30
0.0
 40
0
 41
0
  0
SEQEND
 8
0
  0
POLYLINE
  8
0
 62
     0
 66
     1
 10
0
 20
0
 30
0.0
 70
     1
 40
0.283465
 41
0.283465
  0
VERTEX
  8
0
 10
7.18018
 20
0.334907
 30
0.0
 40
0.00393701
 41
0.00393701
  0
VERTEX
  8
0
 10
7.17904
 20
0.335394
 30
0.0
 40
0.00393701
 41
0.00393701
  0
VERTEX
  8
0
 10
7.1774
 20
0.341038
 30
0.0
 40
0.00393701
 41
0.00393701
  0
VERTEX
  8
0
 10
7.18181
 20
0.350749
 30
0.0
 40
0.00393701
 41
0.00393701
  0
VERTEX
  8
0
 10
7.19054
 20
0.359972
 30
0.0
 40
0.00393701
 41
0.00393701
  0
VERTEX
  8
0
 10
7.19808
 20
0.364367
 30
0.0
 40
0.00393701
 41
0.00393701
  0
VERTEX
  8
0
 10
7.20074
 20
0.364583
 30
0.0
 40
0.00393701
 41
0.00393701
  0
VERTEX
  8
0
 10
7.20204
 20
0.364746
 30
0.0
 40
0.00393701
 41
0.00393701
  0
VERTEX
  8
0
 10
7.2175
 20
0.358236
 30
0.0
 40
0.00393701
 41
0.00393701
  0
VERTEX
  8
0
 10
7.23378
 20
0.348144
 30
0.0
 40
0.00393701
 41
0.00393701
  0
VERTEX
  8
0
 10
7.23551
 20
0.346408
 30
0.0
 40
0.00393701
 41
0.00393701
  0
VERTEX
  8
0
 10
7.23654
 20
0.345378
 30
0.0
 40
0.00393701
 41
0.00393701
  0
VERTEX
  8
0
 10
7.24951
 20
0.341689
 30
0.0
 40
0.00393701
 41
0.00393701
  0
VERTEX
  8
0
 10
7.25119
 20
0.34196
 30
0.0
 40
0.00393701
 41
0.00393701
  0
VERTEX
  8
0
 10
7.25472
 20
0.342611
 30
0.0
 40
0.00393701
 41
0.00393701
  0
VERTEX
  8
0
 10
7.26546
 20
0.347874
 30
0.0
 40
0.00393701
 41
0.00393701
  0
VERTEX
  8
0
 10
7.2679
 20
0.35715
 30
0.0
 40
0.00393701
 41
0.00393701
  0
VERTEX
  8
0
 10
7.26736
 20
0.35981
 30
0.0
 40
0.00393701
 41
0.00393701
  0
VERTEX
  8
0
 10
7.26693
 20
0.361817
 30
0.0
 40
0.00393701
 41
0.00393701
  0
VERTEX
  8
0
 10
7.26747
 20
0.368381
 30
0.0
 40
0.00393701
 41
0.00393701
  0
VERTEX
  8
0
 10
7.27328
 20
0.37321
 30
0.0
 40
0.00393701
 41
0.00393701
  0
VERTEX
  8
0
 10
7.27544
 20
0.374294
 30
0.0
 40
0.00393701
 41
0.00393701
  0
VERTEX
  8
0
 10
7.27701
 20
0.375162
 30
0.0
 40
0.00393701
 41
0.00393701
  0
VERTEX
  8
0
 10
7.28212
 20
0.377279
 30
0.0
 40
0.00393701
 41
0.00393701
  0
VERTEX
  8
0
 10
7.28944
 20
0.377767
 30
0.0
 40
0.00393701
 41
0.00393701
  0
VERTEX
  8
0
 10
7.30154
 20
0.375489
 30
0.0
 40
0.00393701
 41
0.00393701
  0
VERTEX
  8
0
 10
7.31722
 20
0.371474
 30
0.0
 40
0.00393701
 41
0.00393701
  0
VERTEX
  8
0
 10
7.32243
 20
0.370063
 30
0.0
 40
0.00393701
 41
0.00393701
  0
VERTEX
  8
0
 10
7.324
 20
0.369629
 30
0.0
 40
0.00393701
 41
0.00393701
  0
VERTEX
  8
0
 10
7.33632
 20
0.365722
 30
0.0
 40
0.00393701
 41
0.00393701
  0
VERTEX
  8
0
 10
7.35075
 20
0.360622
 30
0.0
 40
0.00393701
 41
0.00393701
  0
VERTEX
  8
0
 10
7.3534
 20
0.359592
 30
0.0
 40
0.00393701
 41
0.00393701
  0
VERTEX
  8
0
 10
7.35732
 20
0.358074
 30
0.0
 40
0.00393701
 41
0.00393701
  0
VERTEX
  8
0
 10
7.37136
 20
0.354275
 30
0.0
 40
0.00393701
 41
0.00393701
  0
VERTEX
  8
0
 10
7.38254
 20
0.354818
 30
0.0
 40
0.00393701
 41
0.00393701
  0
VERTEX
  8
0
 10
7.3851
 20
0.355469
 30
0.0
 40
0.00393701
 41
0.00393701
  0
VERTEX
  8
0
 10
7.38678
 20
0.355957
 30
0.0
 40
0.00393701
 41
0.00393701
  0
VERTEX
  8
0
 10
7.39242
 20
0.359158
 30
0.0
 40
0.00393701
 41
0.00393701
  0
VERTEX
  8
0
 10
7.39242
 20
0.359158
 30
0.0
 40
0.00393701
 41
0.00393701
  0
VERTEX
  8
0
 10
7.39171
 20
0.359213
 30
0.0
 40
0.00393701
 41
0.00393701
  0
VERTEX
  8
0
 10
7.38417
 20
0.366536
 30
0.0
 40
0.00393701
 41
0.00393701
  0
VERTEX
  8
0
 10
7.38368
 20
0.367622
 30
0.0
 40
0.00393701
 41
0.00393701
  0
VERTEX
  8
0
 10
7.38286
 20
0.369358
 30
0.0
 40
0.00393701
 41
0.00393701
  0
VERTEX
  8
0
 10
7.38194
 20
0.375597
 30
0.0
 40
0.00393701
 41
0.00393701
  0
VERTEX
  8
0
 10
7.38596
 20
0.381511
 30
0.0
 40
0.00393701
 41
0.00393701
  0
VERTEX
  8
0
 10
7.38764
 20
0.383029
 30
0.0
 40
0.00393701
 41
0.00393701
  0
VERTEX
  8
0
 10
7.38917
 20
0.384494
 30
0.0
 40
0.00393701
 41
0.00393701
  0
VERTEX
  8
0
 10
7.39615
 20
0.3884
 30
0.0
 40
0.00393701
 41
0.00393701
  0
VERTEX
  8
0
 10
7.40462
 20
0.388564
 30
0.0
 40
0.00393701
 41
0.00393701
  0
VERTEX
  8
0
 10
7.40696
 20
0.388129
 30
0.0
 40
0.00393701
 41
0.00393701
  0
VERTEX
  8
0
 10
7.40864
 20
0.387804
 30
0.0
 40
0.00393701
 41
0.00393701
  0
VERTEX
  8
0
 10
7.42036
 20
0.388889
 30
0.0
 40
0.00393701
 41
0.00393701
  0
VERTEX
  8
0
 10
7.42068
 20
0.389378
 30
0.0
 40
0.00393701
 41
0.00393701
  0
VERTEX
  8
0
 10
7.42156
 20
0.390896
 30
0.0
 40
0.00393701
 41
0.00393701
  0
VERTEX
  8
0
 10
7.42904
 20
0.392415
 30
0.0
 40
0.00393701
 41
0.00393701
  0
VERTEX
  8
0
 10
7.44504
 20
0.392686
 30
0.0
 40
0.00393701
 41
0.00393701
  0
VERTEX
  8
0
 10
7.46332
 20
0.390517
 30
0.0
 40
0.00393701
 41
0.00393701
  0
VERTEX
  8
0
 10
7.47487
 20
0.38775
 30
0.0
 40
0.00393701
 41
0.00393701
  0
VERTEX
  8
0
 10
7.4784
 20
0.386122
 30
0.0
 40
0.00393701
 41
0.00393701
  0
VERTEX
  8
0
 10
7.48133
 20
0.384819
 30
0.0
 40
0.00393701
 41
0.00393701
  0
VERTEX
  8
0
 10
7.49121
 20
0.381674
 30
0.0
 40
0.00393701
 41
0.00393701
  0
VERTEX
  8
0
 10
7.49794
 20
0.382921
 30
0.0
 40
0.00393701
 41
0.00393701
  0
VERTEX
  8
0
 10
7.49929
 20
0.383735
 30
0.0
 40
0.00393701
 41
0.00393701
  0
VERTEX
  8
0
 10
7.50017
 20
0.384332
 30
0.0
 40
0.00393701
 41
0.00393701
  0
VERTEX
  8
0
 10
7.50456
 20
0.39106
 30
0.0
 40
0.00393701
 41
0.00393701
  0
VERTEX
  8
0
 10
7.50439
 20
0.391547
 30
0.0
 40
0.00393701
 41
0.00393701
  0
VERTEX
  8
0
 10
7.50418
 20
0.39209
 30
0.0
 40
0.00393701
 41
0.00393701
  0
VERTEX
  8
0
 10
7.50569
 20
0.398058
 30
0.0
 40
0.00393701
 41
0.00393701
  0
VERTEX
  8
0
 10
7.50612
 20
0.398492
 30
0.0
 40
0.00393701
 41
0.00393701
  0
VERTEX
  8
0
 10
7.50662
 20
0.399035
 30
0.0
 40
0.00393701
 41
0.00393701
  0
VERTEX
  8
0
 10
7.50629
 20
0.409722
 30
0.0
 40
0.00393701
 41
0.00393701
  0
VERTEX
  8
0
 10
7.50575
 20
0.411187
 30
0.0
 40
0.00393701
 41
0.00393701
  0
VERTEX
  8
0
 10
7.50472
 20
0.4139
 30
0.0
 40
0.00393701
 41
0.00393701
  0
VERTEX
  8
0
 10
7.50651
 20
0.424696
 30
0.0
 40
0.00393701
 41
0.00393701
  0
VERTEX
  8
0
 10
7.52061
 20
0.436143
 30
0.0
 40
0.00393701
 41
0.00393701
  0
VERTEX
  8
0
 10
7.52576
 20
0.439128
 30
0.0
 40
0.00393701
 41
0.00393701
  0
VERTEX
  8
0
 10
7.52962
 20
0.441461
 30
0.0
 40
0.00393701
 41
0.00393701
  0
VERTEX
  8
0
 10
7.54189
 20
0.447537
 30
0.0
 40
0.00393701
 41
0.00393701
  0
VERTEX
  8
0
 10
7.55875
 20
0.452419
 30
0.0
 40
0.00393701
 41
0.00393701
  0
VERTEX
  8
0
 10
7.58176
 20
0.454915
 30
0.0
 40
0.00393701
 41
0.00393701
  0
VERTEX
  8
0
 10
7.60781
 20
0.455838
 30
0.0
 40
0.00393701
 41
0.00393701
  0
VERTEX
  8
0
 10
7.61654
 20
0.455946
 30
0.0
 40
0.00393701
 41
0.00393701
  0
VERTEX
  8
0
 10
7.61942
 20
0.456
 30
0.0
 40
0.00393701
 41
0.00393701
  0
VERTEX
  8
0
 10
7.62819
 20
0.458604
 30
0.0
 40
0.00393701
 41
0.00393701
  0
VERTEX
  8
0
 10
7.63889
 20
0.464789
 30
0.0
 40
0.00393701
 41
0.00393701
  0
VERTEX
  8
0
 10
7.64611
 20
0.472601
 30
0.0
 40
0.00393701
 41
0.00393701
  0
VERTEX
  8
0
 10
7.64789
 20
0.478569
 30
0.0
 40
0.00393701
 41
0.00393701
  0
VERTEX
  8
0
 10
7.64735
 20
0.480089
 30
0.0
 40
0.00393701
 41
0.00393701
  0
VERTEX
  8
0
 10
7.64703
 20
0.480903
 30
0.0
 40
0.00393701
 41
0.00393701
  0
VERTEX
  8
0
 10
7.64106
 20
0.484158
 30
0.0
 40
0.00393701
 41
0.00393701
  0
VERTEX
  8
0
 10
7.6404
 20
0.483886
 30
0.0
 40
0.00393701
 41
0.00393701
  0
VERTEX
  8
0
 10
7.63889
 20
0.483344
 30
0.0
 40
0.00393701
 41
0.00393701
  0
VERTEX
  8
0
 10
7.63081
 20
0.486328
 30
0.0
 40
0.00393701
 41
0.00393701
  0
VERTEX
  8
0
 10
7.62576
 20
0.493599
 30
0.0
 40
0.00393701
 41
0.00393701
  0
VERTEX
  8
0
 10
7.62576
 20
0.495985
 30
0.0
 40
0.00393701
 41
0.00393701
  0
VERTEX
  8
0
 10
7.62576
 20
0.49924
 30
0.0
 40
0.00393701
 41
0.00393701
  0
VERTEX
  8
0
 10
7.63374
 20
0.508951
 30
0.0
 40
0.00393701
 41
0.00393701
  0
VERTEX
  8
0
 10
7.64849
 20
0.518608
 30
0.0
 40
0.00393701
 41
0.00393701
  0
VERTEX
  8
0
 10
7.65186
 20
0.519749
 30
0.0
 40
0.00393701
 41
0.00393701
  0
VERTEX
  8
0
 10
7.65338
 20
0.52029
 30
0.0
 40
0.00393701
 41
0.00393701
  0
VERTEX
  8
0
 10
7.66694
 20
0.531901
 30
0.0
 40
0.00393701
 41
0.00393701
  0
VERTEX
  8
0
 10
7.66769
 20
0.533311
 30
0.0
 40
0.00393701
 41
0.00393701
  0
VERTEX
  8
0
 10
7.67003
 20
0.537869
 30
0.0
 40
0.00393701
 41
0.00393701
  0
VERTEX
  8
0
 10
7.68186
 20
0.551594
 30
0.0
 40
0.00393701
 41
0.00393701
  0
VERTEX
  8
0
 10
7.69846
 20
0.556207
 30
0.0
 40
0.00393701
 41
0.00393701
  0
VERTEX
  8
0
 10
7.70324
 20
0.556207
 30
0.0
 40
0.00393701
 41
0.00393701
  0
VERTEX
  8
0
 10
7.70562
 20
0.556261
 30
0.0
 40
0.00393701
 41
0.00393701
  0
VERTEX
  8
0
 10
7.73188
 20
0.558919
 30
0.0
 40
0.00393701
 41
0.00393701
  0
VERTEX
  8
0
 10
7.73367
 20
0.559299
 30
0.0
 40
0.00393701
 41
0.00393701
  0
VERTEX
  8
0
 10
7.73725
 20
0.560167
 30
0.0
 40
0.00393701
 41
0.00393701
  0
VERTEX
  8
0
 10
7.74978
 20
0.565918
 30
0.0
 40
0.00393701
 41
0.00393701
  0
VERTEX
  8
0
 10
7.75032
 20
0.571669
 30
0.0
 40
0.00393701
 41
0.00393701
  0
VERTEX
  8
0
 10
7.74989
 20
0.571832
 30
0.0
 40
0.00393701
 41
0.00393701
  0
VERTEX
  8
0
 10
7.74837
 20
0.572428
 30
0.0
 40
0.00393701
 41
0.00393701
  0
VERTEX
  8
0
 10
7.74653
 20
0.581489
 30
0.0
 40
0.00393701
 41
0.00393701
  0
VERTEX
  8
0
 10
7.75331
 20
0.598525
 30
0.0
 40
0.00393701
 41
0.00393701
  0
VERTEX
  8
0
 10
7.76606
 20
0.615722
 30
0.0
 40
0.00393701
 41
0.00393701
  0
VERTEX
  8
0
 10
7.77669
 20
0.624675
 30
0.0
 40
0.00393701
 41
0.00393701
  0
VERTEX
  8
0
 10
7.78076
 20
0.625868
 30
0.0
 40
0.00393701
 41
0.00393701
  0
VERTEX
  8
0
 10
7.7825
 20
0.626411
 30
0.0
 40
0.00393701
 41
0.00393701
  0
VERTEX
  8
0
 10
7.78765
 20
0.628418
 30
0.0
 40
0.00393701
 41
0.00393701
  0
VERTEX
  8
0
 10
7.78407
 20
0.629178
 30
0.0
 40
0.00393701
 41
0.00393701
  0
VERTEX
  8
0
 10
7.78288
 20
0.629178
 30
0.0
 40
0.00393701
 41
0.00393701
  0
VERTEX
  8
0
 10
7.78147
 20
0.629232
 30
0.0
 40
0.00393701
 41
0.00393701
  0
VERTEX
  8
0
 10
7.77664
 20
0.633735
 30
0.0
 40
0.00393701
 41
0.00393701
  0
VERTEX
  8
0
 10
7.77696
 20
0.63444
 30
0.0
 40
0.00393701
 41
0.00393701
  0
VERTEX
  8
0
 10
7.77724
 20
0.6352
 30
0.0
 40
0.00393701
 41
0.00393701
  0
VERTEX
  8
0
 10
7.77382
 20
0.639486
 30
0.0
 40
0.00393701
 41
0.00393701
  0
VERTEX
  8
0
 10
7.77268
 20
0.639486
 30
0.0
 40
0.00393701
 41
0.00393701
  0
VERTEX
  8
0
 10
7.77067
 20
0.639486
 30
0.0
 40
0.00393701
 41
0.00393701
  0
VERTEX
  8
0
 10
7.76492
 20
0.633572
 30
0.0
 40
0.00393701
 41
0.00393701
  0
VERTEX
  8
0
 10
7.76471
 20
0.632596
 30
0.0
 40
0.00393701
 41
0.00393701
  0
VERTEX
  8
0
 10
7.76432
 20
0.631185
 30
0.0
 40
0.00393701
 41
0.00393701
  0
VERTEX
  8
0
 10
7.76085
 20
0.627225
 30
0.0
 40
0.00393701
 41
0.00393701
  0
VERTEX
  8
0
 10
7.75276
 20
0.626574
 30
0.0
 40
0.00393701
 41
0.00393701
  0
VERTEX
  8
0
 10
7.75017
 20
0.626736
 30
0.0
 40
0.00393701
 41
0.00393701
  0
VERTEX
  8
0
 10
7.74696
 20
0.627007
 30
0.0
 40
0.00393701
 41
0.00393701
  0
VERTEX
  8
0
 10
7.73774
 20
0.632053
 30
0.0
 40
0.00393701
 41
0.00393701
  0
VERTEX
  8
0
 10
7.74442
 20
0.640571
 30
0.0
 40
0.00393701
 41
0.00393701
  0
VERTEX
  8
0
 10
7.74735
 20
0.642199
 30
0.0
 40
0.00393701
 41
0.00393701
  0
VERTEX
  8
0
 10
7.74869
 20
0.643013
 30
0.0
 40
0.00393701
 41
0.00393701
  0
VERTEX
  8
0
 10
7.76107
 20
0.651421
 30
0.0
 40
0.00393701
 41
0.00393701
  0
VERTEX
  8
0
 10
7.76172
 20
0.651964
 30
0.0
 40
0.00393701
 41
0.00393701
  0
VERTEX
  8
0
 10
7.76232
 20
0.652561
 30
0.0
 40
0.00393701
 41
0.00393701
  0
VERTEX
  8
0
 10
7.76882
 20
0.656142
 30
0.0
 40
0.00393701
 41
0.00393701
  0
VERTEX
  8
0
 10
7.771
 20
0.656142
 30
0.0
 40
0.00393701
 41
0.00393701
  0
VERTEX
  8
0
 10
7.77225
 20
0.656142
 30
0.0
 40
0.00393701
 41
0.00393701
  0
VERTEX
  8
0
 10
7.77599
 20
0.662597
 30
0.0
 40
0.00393701
 41
0.00393701
  0
VERTEX
  8
0
 10
7.77604
 20
0.663629
 30
0.0
 40
0.00393701
 41
0.00393701
  0
VERTEX
  8
0
 10
7.77604
 20
0.66466
 30
0.0
 40
0.00393701
 41
0.00393701
  0
VERTEX
  8
0
 10
7.7825
 20
0.682292
 30
0.0
 40
0.00393701
 41
0.00393701
  0
VERTEX
  8
0
 10
7.78353
 20
0.684028
 30
0.0
 40
0.00393701
 41
0.00393701
  0
VERTEX
  8
0
 10
7.7856
 20
0.687771
 30
0.0
 40
0.00393701
 41
0.00393701
  0
VERTEX
  8
0
 10
7.80176
 20
0.700792
 30
0.0
 40
0.00393701
 41
0.00393701
  0
VERTEX
  8
0
 10
7.82949
 20
0.708442
 30
0.0
 40
0.00393701
 41
0.00393701
  0
VERTEX
  8
0
 10
7.8374
 20
0.709418
 30
0.0
 40
0.00393701
 41
0.00393701
  0
VERTEX
  8
0
 10
7.84586
 20
0.710504
 30
0.0
 40
0.00393701
 41
0.00393701
  0
VERTEX
  8
0
 10
7.87104
 20
0.717068
 30
0.0
 40
0.00393701
 41
0.00393701
  0
VERTEX
  8
0
 10
7.89561
 20
0.730035
 30
0.0
 40
0.00393701
 41
0.00393701
  0
VERTEX
  8
0
 10
7.91064
 20
0.748156
 30
0.0
 40
0.00393701
 41
0.00393701
  0
VERTEX
  8
0
 10
7.91575
 20
0.7653
 30
0.0
 40
0.00393701
 41
0.00393701
  0
VERTEX
  8
0
 10
7.91575
 20
0.770996
 30
0.0
 40
0.00393701
 41
0.00393701
  0
VERTEX
  8
0
 10
7.91575
 20
0.773981
 30
0.0
 40
0.00393701
 41
0.00393701
  0
VERTEX
  8
0
 10
7.91868
 20
0.782824
 30
0.0
 40
0.00393701
 41
0.00393701
  0
VERTEX
  8
0
 10
7.91965
 20
0.782824
 30
0.0
 40
0.00393701
 41
0.00393701
  0
VERTEX
  8
0
 10
7.92003
 20
0.782824
 30
0.0
 40
0.00393701
 41
0.00393701
  0
VERTEX
  8
0
 10
7.92139
 20
0.784939
 30
0.0
 40
0.00393701
 41
0.00393701
  0
VERTEX
  8
0
 10
7.92128
 20
0.785047
 30
0.0
 40
0.00393701
 41
0.00393701
  0
VERTEX
  8
0
 10
7.92096
 20
0.785374
 30
0.0
 40
0.00393701
 41
0.00393701
  0
VERTEX
  8
0
 10
7.91054
 20
0.781088
 30
0.0
 40
0.00393701
 41
0.00393701
  0
VERTEX
  8
0
 10
7.90918
 20
0.780057
 30
0.0
 40
0.00393701
 41
0.00393701
  0
VERTEX
  8
0
 10
7.90782
 20
0.779081
 30
0.0
 40
0.00393701
 41
0.00393701
  0
VERTEX
  8
0
 10
7.89963
 20
0.772786
 30
0.0
 40
0.00393701
 41
0.00393701
  0
VERTEX
  8
0
 10
7.89692
 20
0.772786
 30
0.0
 40
0.00393701
 41
0.00393701
  0
VERTEX
  8
0
 10
7.89447
 20
0.772786
 30
0.0
 40
0.00393701
 41
0.00393701
  0
VERTEX
  8
0
 10
7.88818
 20
0.766928
 30
0.0
 40
0.00393701
 41
0.00393701
  0
VERTEX
  8
0
 10
7.88721
 20
0.76595
 30
0.0
 40
0.00393701
 41
0.00393701
  0
VERTEX
  8
0
 10
7.88585
 20
0.764703
 30
0.0
 40
0.00393701
 41
0.00393701
  0
VERTEX
  8
0
 10
7.87278
 20
0.76096
 30
0.0
 40
0.00393701
 41
0.00393701
  0
VERTEX
  8
0
 10
7.87121
 20
0.761339
 30
0.0
 40
0.00393701
 41
0.00393701
  0
VERTEX
  8
0
 10
7.86893
 20
0.761936
 30
0.0
 40
0.00393701
 41
0.00393701
  0
VERTEX
  8
0
 10
7.86307
 20
0.767199
 30
0.0
 40
0.00393701
 41
0.00393701
  0
VERTEX
  8
0
 10
7.87082
 20
0.778049
 30
0.0
 40
0.00393701
 41
0.00393701
  0
VERTEX
  8
0
 10
7.87392
 20
0.781142
 30
0.0
 40
0.00393701
 41
0.00393701
  0
VERTEX
  8
0
 10
7.87549
 20
0.782769
 30
0.0
 40
0.00393701
 41
0.00393701
  0
VERTEX
  8
0
 10
7.88118
 20
0.789768
 30
0.0
 40
0.00393701
 41
0.00393701
  0
VERTEX
  8
0
 10
7.88286
 20
0.794217
 30
0.0
 40
0.00393701
 41
0.00393701
  0
VERTEX
  8
0
 10
7.88265
 20
0.794325
 30
0.0
 40
0.00393701
 41
0.00393701
  0
VERTEX
  8
0
 10
7.88226
 20
0.794596
 30
0.0
 40
0.00393701
 41
0.00393701
  0
VERTEX
  8
0
 10
7.87532
 20
0.794108
 30
0.0
 40
0.00393701
 41
0.00393701
  0
VERTEX
  8
0
 10
7.86399
 20
0.791883
 30
0.0
 40
0.00393701
 41
0.00393701
  0
VERTEX
  8
0
 10
7.86149
 20
0.791178
 30
0.0
 40
0.00393701
 41
0.00393701
  0
VERTEX
  8
0
 10
7.85661
 20
0.789931
 30
0.0
 40
0.00393701
 41
0.00393701
  0
VERTEX
  8
0
 10
7.8419
 20
0.786296
 30
0.0
 40
0.00393701
 41
0.00393701
  0
VERTEX
  8
0
 10
7.83117
 20
0.78456
 30
0.0
 40
0.00393701
 41
0.00393701
  0
VERTEX
  8
0
 10
7.82667
 20
0.785807
 30
0.0
 40
0.00393701
 41
0.00393701
  0
VERTEX
  8
0
 10
7.82574
 20
0.789008
 30
0.0
 40
0.00393701
 41
0.00393701
  0
VERTEX
  8
0
 10
7.82574
 20
0.790039
 30
0.0
 40
0.00393701
 41
0.00393701
  0
VERTEX
  8
0
 10
7.82574
 20
0.794217
 30
0.0
 40
0.00393701
 41
0.00393701
  0
VERTEX
  8
0
 10
7.8329
 20
0.805393
 30
0.0
 40
0.00393701
 41
0.00393701
  0
VERTEX
  8
0
 10
7.8341
 20
0.806749
 30
0.0
 40
0.00393701
 41
0.00393701
  0
VERTEX
  8
0
 10
7.83524
 20
0.808106
 30
0.0
 40
0.00393701
 41
0.00393701
  0
VERTEX
  8
0
 10
7.84239
 20
0.817925
 30
0.0
 40
0.00393701
 41
0.00393701
  0
VERTEX
  8
0
 10
7.84239
 20
0.821181
 30
0.0
 40
0.00393701
 41
0.00393701
  0
VERTEX
  8
0
 10
7.84239
 20
0.822754
 30
0.0
 40
0.00393701
 41
0.00393701
  0
VERTEX
  8
0
 10
7.84836
 20
0.827474
 30
0.0
 40
0.00393701
 41
0.00393701
  0
VERTEX
  8
0
 10
7.85861
 20
0.830892
 30
0.0
 40
0.00393701
 41
0.00393701
  0
VERTEX
  8
0
 10
7.86074
 20
0.830946
 30
0.0
 40
0.00393701
 41
0.00393701
  0
VERTEX
  8
0
 10
7.86117
 20
0.831
 30
0.0
 40
0.00393701
 41
0.00393701
  0
VERTEX
  8
0
 10
7.86442
 20
0.836914
 30
0.0
 40
0.00393701
 41
0.00393701
  0
VERTEX
  8
0
 10
7.86447
 20
0.837782
 30
0.0
 40
0.00393701
 41
0.00393701
  0
VERTEX
  8
0
 10
7.86453
 20
0.838704
 30
0.0
 40
0.00393701
 41
0.00393701
  0
VERTEX
  8
0
 10
7.86828
 20
0.856771
 30
0.0
 40
0.00393701
 41
0.00393701
  0
VERTEX
  8
0
 10
7.86882
 20
0.858724
 30
0.0
 40
0.00393701
 41
0.00393701
  0
VERTEX
  8
0
 10
7.8699
 20
0.862847
 30
0.0
 40
0.00393701
 41
0.00393701
  0
VERTEX
  8
0
 10
7.87007
 20
0.876031
 30
0.0
 40
0.00393701
 41
0.00393701
  0
VERTEX
  8
0
 10
7.85965
 20
0.871907
 30
0.0
 40
0.00393701
 41
0.00393701
  0
VERTEX
  8
0
 10
7.85704
 20
0.869575
 30
0.0
 40
0.00393701
 41
0.00393701
  0
VERTEX
  8
0
 10
7.85379
 20
0.866754
 30
0.0
 40
0.00393701
 41
0.00393701
  0
VERTEX
  8
0
 10
7.83789
 20
0.859864
 30
0.0
 40
0.00393701
 41
0.00393701
  0
VERTEX
  8
0
 10
7.82269
 20
0.862631
 30
0.0
 40
0.00393701
 41
0.00393701
  0
VERTEX
  8
0
 10
7.81988
 20
0.864637
 30
0.0
 40
0.00393701
 41
0.00393701
  0
VERTEX
  8
0
 10
7.81862
 20
0.865506
 30
0.0
 40
0.00393701
 41
0.00393701
  0
VERTEX
  8
0
 10
7.81364
 20
0.875922
 30
0.0
 40
0.00393701
 41
0.00393701
  0
VERTEX
  8
0
 10
7.81386
 20
0.877115
 30
0.0
 40
0.00393701
 41
0.00393701
  0
VERTEX
  8
0
 10
7.81401
 20
0.878147
 30
0.0
 40
0.00393701
 41
0.00393701
  0
VERTEX
  8
0
 10
7.81543
 20
0.886501
 30
0.0
 40
0.00393701
 41
0.00393701
  0
VERTEX
  8
0
 10
7.81549
 20
0.886828
 30
0.0
 40
0.00393701
 41
0.00393701
  0
VERTEX
  8
0
 10
7.81549
 20
0.887207
 30
0.0
 40
0.00393701
 41
0.00393701
  0
VERTEX
  8
0
 10
7.81868
 20
0.892036
 30
0.0
 40
0.00393701
 41
0.00393701
  0
VERTEX
  8
0
 10
7.8246
 20
0.899414
 30
0.0
 40
0.00393701
 41
0.00393701
  0
VERTEX
  8
0
 10
7.82607
 20
0.900988
 30
0.0
 40
0.00393701
 41
0.00393701
  0
VERTEX
  8
0
 10
7.82835
 20
0.903646
 30
0.0
 40
0.00393701
 41
0.00393701
  0
VERTEX
  8
0
 10
7.83425
 20
0.913032
 30
0.0
 40
0.00393701
 41
0.00393701
  0
VERTEX
  8
0
 10
7.83453
 20
0.92334
 30
0.0
 40
0.00393701
 41
0.00393701
  0
VERTEX
  8
0
 10
7.83404
 20
0.926378
 30
0.0
 40
0.00393701
 41
0.00393701
  0
VERTEX
  8
0
 10
7.8335
 20
0.929525
 30
0.0
 40
0.00393701
 41
0.00393701
  0
VERTEX
  8
0
 10
7.83376
 20
0.939671
 30
0.0
 40
0.00393701
 41
0.00393701
  0
VERTEX
  8
0
 10
7.8399
 20
0.948568
 30
0.0
 40
0.00393701
 41
0.00393701
  0
VERTEX
  8
0
 10
7.84229
 20
0.95101
 30
0.0
 40
0.00393701
 41
0.00393701
  0
VERTEX
  8
0
 10
7.84467
 20
0.953504
 30
0.0
 40
0.00393701
 41
0.00393701
  0
VERTEX
  8
0
 10
7.85081
 20
0.962131
 30
0.0
 40
0.00393701
 41
0.00393701
  0
VERTEX
  8
0
 10
7.84896
 20
0.971246
 30
0.0
 40
0.00393701
 41
0.00393701
  0
VERTEX
  8
0
 10
7.84782
 20
0.974012
 30
0.0
 40
0.00393701
 41
0.00393701
  0
VERTEX
  8
0
 10
7.84674
 20
0.976508
 30
0.0
 40
0.00393701
 41
0.00393701
  0
VERTEX
  8
0
 10
7.84185
 20
0.983832
 30
0.0
 40
0.00393701
 41
0.00393701
  0
VERTEX
  8
0
 10
7.83535
 20
0.986111
 30
0.0
 40
0.00393701
 41
0.00393701
  0
VERTEX
  8
0
 10
7.83317
 20
0.986111
 30
0.0
 40
0.00393701
 41
0.00393701
  0
VERTEX
  8
0
 10
7.83078
 20
0.986111
 30
0.0
 40
0.00393701
 41
0.00393701
  0
VERTEX
  8
0
 10
7.82374
 20
0.990126
 30
0.0
 40
0.00393701
 41
0.00393701
  0
VERTEX
  8
0
 10
7.81689
 20
1.00765
 30
0.0
 40
0.00393701
 41
0.00393701
  0
VERTEX
  8
0
 10
7.81506
 20
1.01362
 30
0.0
 40
0.00393701
 41
0.00393701
  0
VERTEX
  8
0
 10
7.81293
 20
1.02029
 30
0.0
 40
0.00393701
 41
0.00393701
  0
VERTEX
  8
0
 10
7.80697
 20
1.04031
 30
0.0
 40
0.00393701
 41
0.00393701
  0
VERTEX
  8
0
 10
7.8016
 20
1.06038
 30
0.0
 40
0.00393701
 41
0.00393701
  0
VERTEX
  8
0
 10
7.79807
 20
1.0778
 30
0.0
 40
0.00393701
 41
0.00393701
  0
VERTEX
  8
0
 10
7.79596
 20
1.09191
 30
0.0
 40
0.00393701
 41
0.00393701
  0
VERTEX
  8
0
 10
7.79542
 20
1.09657
 30
0.0
 40
0.00393701
 41
0.00393701
  0
VERTEX
  8
0
 10
7.79471
 20
1.10227
 30
0.0
 40
0.00393701
 41
0.00393701
  0
VERTEX
  8
0
 10
7.79417
 20
1.12326
 30
0.0
 40
0.00393701
 41
0.00393701
  0
VERTEX
  8
0
 10
7.79883
 20
1.14746
 30
0.0
 40
0.00393701
 41
0.00393701
  0
VERTEX
  8
0
 10
7.80072
 20
1.15473
 30
0.0
 40
0.00393701
 41
0.00393701
  0
VERTEX
  8
0
 10
7.80192
 20
1.15951
 30
0.0
 40
0.00393701
 41
0.00393701
  0
VERTEX
  8
0
 10
7.8055
 20
1.17383
 30
0.0
 40
0.00393701
 41
0.00393701
  0
VERTEX
  8
0
 10
7.8074
 20
1.18614
 30
0.0
 40
0.00393701
 41
0.00393701
  0
VERTEX
  8
0
 10
7.80664
 20
1.19662
 30
0.0
 40
0.00393701
 41
0.00393701
  0
VERTEX
  8
0
 10
7.80447
 20
1.20687
 30
0.0
 40
0.00393701
 41
0.00393701
  0
VERTEX
  8
0
 10
7.80365
 20
1.21023
 30
0.0
 40
0.00393701
 41
0.00393701
  0
VERTEX
  8
0
 10
7.80257
 20
1.21473
 30
0.0
 40
0.00393701
 41
0.00393701
  0
VERTEX
  8
0
 10
7.79725
 20
1.22976
 30
0.0
 40
0.00393701
 41
0.00393701
  0
VERTEX
  8
0
 10
7.79036
 20
1.23855
 30
0.0
 40
0.00393701
 41
0.00393701
  0
VERTEX
  8
0
 10
7.78847
 20
1.23991
 30
0.0
 40
0.00393701
 41
0.00393701
  0
VERTEX
  8
0
 10
7.7864
 20
1.24137
 30
0.0
 40
0.00393701
 41
0.00393701
  0
VERTEX
  8
0
 10
7.77951
 20
1.24474
 30
0.0
 40
0.00393701
 41
0.00393701
  0
VERTEX
  8
0
 10
7.77431
 20
1.24333
 30
0.0
 40
0.00393701
 41
0.00393701
  0
VERTEX
  8
0
 10
7.77311
 20
1.2424
 30
0.0
 40
0.00393701
 41
0.00393701
  0
VERTEX
  8
0
 10
7.77229
 20
1.24181
 30
0.0
 40
0.00393701
 41
0.00393701
  0
VERTEX
  8
0
 10
7.76628
 20
1.2373
 30
0.0
 40
0.00393701
 41
0.00393701
  0
VERTEX
  8
0
 10
7.76611
 20
1.23714
 30
0.0
 40
0.00393701
 41
0.00393701
  0
VERTEX
  8
0
 10
7.76611
 20
1.23714
 30
0.0
 40
0.00393701
 41
0.00393701
  0
VERTEX
  8
0
 10
7.77126
 20
1.23107
 30
0.0
 40
0.00393701
 41
0.00393701
  0
VERTEX
  8
0
 10
7.77235
 20
1.2302
 30
0.0
 40
0.00393701
 41
0.00393701
  0
VERTEX
  8
0
 10
7.77393
 20
1.22895
 30
0.0
 40
0.00393701
 41
0.00393701
  0
VERTEX
  8
0
 10
7.77794
 20
1.22418
 30
0.0
 40
0.00393701
 41
0.00393701
  0
VERTEX
  8
0
 10
7.77539
 20
1.21962
 30
0.0
 40
0.00393701
 41
0.00393701
  0
VERTEX
  8
0
 10
7.77425
 20
1.21843
 30
0.0
 40
0.00393701
 41
0.00393701
  0
VERTEX
  8
0
 10
7.77192
 20
1.21615
 30
0.0
 40
0.00393701
 41
0.00393701
  0
VERTEX
  8
0
 10
7.75782
 20
1.21642
 30
0.0
 40
0.00393701
 41
0.00393701
  0
VERTEX
  8
0
 10
7.74983
 20
1.23991
 30
0.0
 40
0.00393701
 41
0.00393701
  0
VERTEX
  8
0
 10
7.74918
 20
1.24777
 30
0.0
 40
0.00393701
 41
0.00393701
  0
VERTEX
  8
0
 10
7.74881
 20
1.25184
 30
0.0
 40
0.00393701
 41
0.00393701
  0
VERTEX
  8
0
 10
7.74647
 20
1.26411
 30
0.0
 40
0.00393701
 41
0.00393701
  0
VERTEX
  8
0
 10
7.74229
 20
1.26872
 30
0.0
 40
0.00393701
 41
0.00393701
  0
VERTEX
  8
0
 10
7.74104
 20
1.26893
 30
0.0
 40
0.00393701
 41
0.00393701
  0
VERTEX
  8
0
 10
7.74007
 20
1.26915
 30
0.0
 40
0.00393701
 41
0.00393701
  0
VERTEX
  8
0
 10
7.72954
 20
1.26351
 30
0.0
 40
0.00393701
 41
0.00393701
  0
VERTEX
  8
0
 10
7.72868
 20
1.26232
 30
0.0
 40
0.00393701
 41
0.00393701
  0
VERTEX
  8
0
 10
7.72743
 20
1.26074
 30
0.0
 40
0.00393701
 41
0.00393701
  0
VERTEX
  8
0
 10
7.72271
 20
1.25667
 30
0.0
 40
0.00393701
 41
0.00393701
  0
VERTEX
  8
0
 10
7.71793
 20
1.25787
 30
0.0
 40
0.00393701
 41
0.00393701
  0
VERTEX
  8
0
 10
7.71674
 20
1.25873
 30
0.0
 40
0.00393701
 41
0.00393701
  0
VERTEX
  8
0
 10
7.71588
 20
1.25933
 30
0.0
 40
0.00393701
 41
0.00393701
  0
VERTEX
  8
0
 10
7.70568
 20
1.2647
 30
0.0
 40
0.00393701
 41
0.00393701
  0
VERTEX
  8
0
 10
7.70492
 20
1.26497
 30
0.0
 40
0.00393701
 41
0.00393701
  0
VERTEX
  8
0
 10
7.7041
 20
1.26525
 30
0.0
 40
0.00393701
 41
0.00393701
  0
VERTEX
  8
0
 10
7.69911
 20
1.27024
 30
0.0
 40
0.00393701
 41
0.00393701
  0
VERTEX
  8
0
 10
7.69911
 20
1.27186
 30
0.0
 40
0.00393701
 41
0.00393701
  0
VERTEX
  8
0
 10
7.69911
 20
1.2755
 30
0.0
 40
0.00393701
 41
0.00393701
  0
VERTEX
  8
0
 10
7.69217
 20
1.28505
 30
0.0
 40
0.00393701
 41
0.00393701
  0
VERTEX
  8
0
 10
7.69108
 20
1.28635
 30
0.0
 40
0.00393701
 41
0.00393701
  0
VERTEX
  8
0
 10
7.68972
 20
1.28798
 30
0.0
 40
0.00393701
 41
0.00393701
  0
VERTEX
  8
0
 10
7.67953
 20
1.31613
 30
0.0
 40
0.00393701
 41
0.00393701
  0
VERTEX
  8
0
 10
7.67882
 20
1.32015
 30
0.0
 40
0.00393701
 41
0.00393701
  0
VERTEX
  8
0
 10
7.67731
 20
1.32856
 30
0.0
 40
0.00393701
 41
0.00393701
  0
VERTEX
  8
0
 10
7.66564
 20
1.3635
 30
0.0
 40
0.00393701
 41
0.00393701
  0
VERTEX
  8
0
 10
7.65115
 20
1.38319
 30
0.0
 40
0.00393701
 41
0.00393701
  0
VERTEX
  8
0
 10
7.64828
 20
1.38395
 30
0.0
 40
0.00393701
 41
0.00393701
  0
VERTEX
  8
0
 10
7.64746
 20
1.38417
 30
0.0
 40
0.00393701
 41
0.00393701
  0
VERTEX
  8
0
 10
7.64242
 20
1.38965
 30
0.0
 40
0.00393701
 41
0.00393701
  0
VERTEX
  8
0
 10
7.64242
 20
1.39144
 30
0.0
 40
0.00393701
 41
0.00393701
  0
VERTEX
  8
0
 10
7.64242
 20
1.39481
 30
0.0
 40
0.00393701
 41
0.00393701
  0
VERTEX
  8
0
 10
7.63525
 20
1.40483
 30
0.0
 40
0.00393701
 41
0.00393701
  0
VERTEX
  8
0
 10
7.62636
 20
1.41282
 30
0.0
 40
0.00393701
 41
0.00393701
  0
VERTEX
  8
0
 10
7.62343
 20
1.41282
 30
0.0
 40
0.00393701
 41
0.00393701
  0
VERTEX
  8
0
 10
7.62131
 20
1.41282
 30
0.0
 40
0.00393701
 41
0.00393701
  0
VERTEX
  8
0
 10
7.61561
 20
1.40565
 30
0.0
 40
0.00393701
 41
0.00393701
  0
VERTEX
  8
0
 10
7.61513
 20
1.40446
 30
0.0
 40
0.00393701
 41
0.00393701
  0
VERTEX
  8
0
 10
7.61458
 20
1.40332
 30
0.0
 40
0.00393701
 41
0.00393701
  0
VERTEX
  8
0
 10
7.60753
 20
1.39615
 30
0.0
 40
0.00393701
 41
0.00393701
  0
VERTEX
  8
0
 10
7.60519
 20
1.39615
 30
0.0
 40
0.00393701
 41
0.00393701
  0
VERTEX
  8
0
 10
7.60394
 20
1.39615
 30
0.0
 40
0.00393701
 41
0.00393701
  0
VERTEX
  8
0
 10
7.60032
 20
1.3986
 30
0.0
 40
0.00393701
 41
0.00393701
  0
VERTEX
  8
0
 10
7.59907
 20
1.40543
 30
0.0
 40
0.00393701
 41
0.00393701
  0
VERTEX
  8
0
 10
7.59907
 20
1.40771
 30
0.0
 40
0.00393701
 41
0.00393701
  0
VERTEX
  8
0
 10
7.59907
 20
1.41032
 30
0.0
 40
0.00393701
 41
0.00393701
  0
VERTEX
  8
0
 10
7.59711
 20
1.41813
 30
0.0
 40
0.00393701
 41
0.00393701
  0
VERTEX
  8
0
 10
7.59104
 20
1.4235
 30
0.0
 40
0.00393701
 41
0.00393701
  0
VERTEX
  8
0
 10
7.58897
 20
1.42453
 30
0.0
 40
0.00393701
 41
0.00393701
  0
VERTEX
  8
0
 10
7.58729
 20
1.4254
 30
0.0
 40
0.00393701
 41
0.00393701
  0
VERTEX
  8
0
 10
7.57721
 20
1.43799
 30
0.0
 40
0.00393701
 41
0.00393701
  0
VERTEX
  8
0
 10
7.57687
 20
1.43956
 30
0.0
 40
0.00393701
 41
0.00393701
  0
VERTEX
  8
0
 10
7.57611
 20
1.44325
 30
0.0
 40
0.00393701
 41
0.00393701
  0
VERTEX
  8
0
 10
7.56614
 20
1.45844
 30
0.0
 40
0.00393701
 41
0.00393701
  0
VERTEX
  8
0
 10
7.54969
 20
1.46761
 30
0.0
 40
0.00393701
 41
0.00393701
  0
VERTEX
  8
0
 10
7.54574
 20
1.46821
 30
0.0
 40
0.00393701
 41
0.00393701
  0
VERTEX
  8
0
 10
7.53999
 20
1.46913
 30
0.0
 40
0.00393701
 41
0.00393701
  0
VERTEX
  8
0
 10
7.52403
 20
1.48031
 30
0.0
 40
0.00393701
 41
0.00393701
  0
VERTEX
  8
0
 10
7.52453
 20
1.50146
 30
0.0
 40
0.00393701
 41
0.00393701
  0
VERTEX
  8
0
 10
7.52701
 20
1.50737
 30
0.0
 40
0.00393701
 41
0.00393701
  0
VERTEX
  8
0
 10
7.528
 20
1.50976
 30
0.0
 40
0.00393701
 41
0.00393701
  0
VERTEX
  8
0
 10
7.52983
 20
1.51725
 30
0.0
 40
0.00393701
 41
0.00393701
  0
VERTEX
  8
0
 10
7.52675
 20
1.52143
 30
0.0
 40
0.00393701
 41
0.00393701
  0
VERTEX
  8
0
 10
7.52539
 20
1.52225
 30
0.0
 40
0.00393701
 41
0.00393701
  0
VERTEX
  8
0
 10
7.52453
 20
1.52279
 30
0.0
 40
0.00393701
 41
0.00393701
  0
VERTEX
  8
0
 10
7.51449
 20
1.52615
 30
0.0
 40
0.00393701
 41
0.00393701
  0
VERTEX
  8
0
 10
7.51118
 20
1.52615
 30
0.0
 40
0.00393701
 41
0.00393701
  0
VERTEX
  8
0
 10
7.50612
 20
1.52615
 30
0.0
 40
0.00393701
 41
0.00393701
  0
VERTEX
  8
0
 10
7.49278
 20
1.53054
 30
0.0
 40
0.00393701
 41
0.00393701
  0
VERTEX
  8
0
 10
7.49115
 20
1.53119
 30
0.0
 40
0.00393701
 41
0.00393701
  0
VERTEX
  8
0
 10
7.48867
 20
1.53222
 30
0.0
 40
0.00393701
 41
0.00393701
  0
VERTEX
  8
0
 10
7.48096
 20
1.53461
 30
0.0
 40
0.00393701
 41
0.00393701
  0
VERTEX
  8
0
 10
7.47906
 20
1.53185
 30
0.0
 40
0.00393701
 41
0.00393701
  0
VERTEX
  8
0
 10
7.47906
 20
1.53088
 30
0.0
 40
0.00393701
 41
0.00393701
  0
VERTEX
  8
0
 10
7.47906
 20
1.52914
 30
0.0
 40
0.00393701
 41
0.00393701
  0
VERTEX
  8
0
 10
7.48454
 20
1.52408
 30
0.0
 40
0.00393701
 41
0.00393701
  0
VERTEX
  8
0
 10
7.48546
 20
1.52388
 30
0.0
 40
0.00393701
 41
0.00393701
  0
VERTEX
  8
0
 10
7.48736
 20
1.52339
 30
0.0
 40
0.00393701
 41
0.00393701
  0
VERTEX
  8
0
 10
7.49343
 20
1.51492
 30
0.0
 40
0.00393701
 41
0.00393701
  0
VERTEX
  8
0
 10
7.49567
 20
1.49528
 30
0.0
 40
0.00393701
 41
0.00393701
  0
VERTEX
  8
0
 10
7.49571
 20
1.48915
 30
0.0
 40
0.00393701
 41
0.00393701
  0
VERTEX
  8
0
 10
7.49571
 20
1.48514
 30
0.0
 40
0.00393701
 41
0.00393701
  0
VERTEX
  8
0
 10
7.49436
 20
1.47299
 30
0.0
 40
0.00393701
 41
0.00393701
  0
VERTEX
  8
0
 10
7.48915
 20
1.46756
 30
0.0
 40
0.00393701
 41
0.00393701
  0
VERTEX
  8
0
 10
7.48725
 20
1.46669
 30
0.0
 40
0.00393701
 41
0.00393701
  0
VERTEX
  8
0
 10
7.48606
 20
1.46615
 30
0.0
 40
0.00393701
 41
0.00393701
  0
VERTEX
  8
0
 10
7.46962
 20
1.46278
 30
0.0
 40
0.00393701
 41
0.00393701
  0
VERTEX
  8
0
 10
7.46419
 20
1.46278
 30
0.0
 40
0.00393701
 41
0.00393701
  0
VERTEX
  8
0
 10
7.46072
 20
1.46278
 30
0.0
 40
0.00393701
 41
0.00393701
  0
VERTEX
  8
0
 10
7.45042
 20
1.4649
 30
0.0
 40
0.00393701
 41
0.00393701
  0
VERTEX
  8
0
 10
7.442
 20
1.47254
 30
0.0
 40
0.00393701
 41
0.00393701
  0
VERTEX
  8
0
 10
7.43983
 20
1.47532
 30
0.0
 40
0.00393701
 41
0.00393701
  0
VERTEX
  8
0
 10
7.43625
 20
1.47988
 30
0.0
 40
0.00393701
 41
0.00393701
  0
VERTEX
  8
0
 10
7.42563
 20
1.49685
 30
0.0
 40
0.00393701
 41
0.00393701
  0
VERTEX
  8
0
 10
7.42324
 20
1.50917
 30
0.0
 40
0.00393701
 41
0.00393701
  0
VERTEX
  8
0
 10
7.42383
 20
1.51139
 30
0.0
 40
0.00393701
 41
0.00393701
  0
VERTEX
  8
0
 10
7.42421
 20
1.51292
 30
0.0
 40
0.00393701
 41
0.00393701
  0
VERTEX
  8
0
 10
7.42393
 20
1.51779
 30
0.0
 40
0.00393701
 41
0.00393701
  0
VERTEX
  8
0
 10
7.41775
 20
1.51774
 30
0.0
 40
0.00393701
 41
0.00393701
  0
VERTEX
  8
0
 10
7.41581
 20
1.51731
 30
0.0
 40
0.00393701
 41
0.00393701
  0
VERTEX
  8
0
 10
7.41428
 20
1.51704
 30
0.0
 40
0.00393701
 41
0.00393701
  0
VERTEX
  8
0
 10
7.40147
 20
1.51888
 30
0.0
 40
0.00393701
 41
0.00393701
  0
VERTEX
  8
0
 10
7.40076
 20
1.51947
 30
0.0
 40
0.00393701
 41
0.00393701
  0
VERTEX
  8
0
 10
7.39931
 20
1.52067
 30
0.0
 40
0.00393701
 41
0.00393701
  0
VERTEX
  8
0
 10
7.39589
 20
1.53093
 30
0.0
 40
0.00393701
 41
0.00393701
  0
VERTEX
  8
0
 10
7.39779
 20
1.54036
 30
0.0
 40
0.00393701
 41
0.00393701
  0
VERTEX
  8
0
 10
7.39908
 20
1.54112
 30
0.0
 40
0.00393701
 41
0.00393701
  0
VERTEX
  8
0
 10
7.39953
 20
1.54144
 30
0.0
 40
0.00393701
 41
0.00393701
  0
VERTEX
  8
0
 10
7.4024
 20
1.54454
 30
0.0
 40
0.00393701
 41
0.00393701
  0
VERTEX
  8
0
 10
7.4024
 20
1.54551
 30
0.0
 40
0.00393701
 41
0.00393701
  0
VERTEX
  8
0
 10
7.4024
 20
1.54719
 30
0.0
 40
0.00393701
 41
0.00393701
  0
VERTEX
  8
0
 10
7.39165
 20
1.55208
 30
0.0
 40
0.00393701
 41
0.00393701
  0
VERTEX
  8
0
 10
7.37403
 20
1.55567
 30
0.0
 40
0.00393701
 41
0.00393701
  0
VERTEX
  8
0
 10
7.37056
 20
1.55572
 30
0.0
 40
0.00393701
 41
0.00393701
  0
VERTEX
  8
0
 10
7.35699
 20
1.55604
 30
0.0
 40
0.00393701
 41
0.00393701
  0
VERTEX
  8
0
 10
7.35135
 20
1.53689
 30
0.0
 40
0.00393701
 41
0.00393701
  0
VERTEX
  8
0
 10
7.35053
 20
1.53429
 30
0.0
 40
0.00393701
 41
0.00393701
  0
VERTEX
  8
0
 10
7.34793
 20
1.52138
 30
0.0
 40
0.00393701
 41
0.00393701
  0
VERTEX
  8
0
 10
7.34739
 20
1.51172
 30
0.0
 40
0.00393701
 41
0.00393701
  0
VERTEX
  8
0
 10
7.34765
 20
1.51074
 30
0.0
 40
0.00393701
 41
0.00393701
  0
VERTEX
  8
0
 10
7.34799
 20
1.50956
 30
0.0
 40
0.00393701
 41
0.00393701
  0
VERTEX
  8
0
 10
7.34457
 20
1.50151
 30
0.0
 40
0.00393701
 41
0.00393701
  0
VERTEX
  8
0
 10
7.34353
 20
1.50103
 30
0.0
 40
0.00393701
 41
0.00393701
  0
VERTEX
  8
0
 10
7.34104
 20
1.5
 30
0.0
 40
0.00393701
 41
0.00393701
  0
VERTEX
  8
0
 10
7.33251
 20
1.49843
 30
0.0
 40
0.00393701
 41
0.00393701
  0
VERTEX
  8
0
 10
7.32433
 20
1.50271
 30
0.0
 40
0.00393701
 41
0.00393701
  0
VERTEX
  8
0
 10
7.32206
 20
1.50456
 30
0.0
 40
0.00393701
 41
0.00393701
  0
VERTEX
  8
0
 10
7.32081
 20
1.50553
 30
0.0
 40
0.00393701
 41
0.00393701
  0
VERTEX
  8
0
 10
7.30464
 20
1.51525
 30
0.0
 40
0.00393701
 41
0.00393701
  0
VERTEX
  8
0
 10
7.30328
 20
1.51579
 30
0.0
 40
0.00393701
 41
0.00393701
  0
VERTEX
  8
0
 10
7.30186
 20
1.51639
 30
0.0
 40
0.00393701
 41
0.00393701
  0
VERTEX
  8
0
 10
7.29069
 20
1.52507
 30
0.0
 40
0.00393701
 41
0.00393701
  0
VERTEX
  8
0
 10
7.29031
 20
1.52587
 30
0.0
 40
0.00393701
 41
0.00393701
  0
VERTEX
  8
0
 10
7.28961
 20
1.52729
 30
0.0
 40
0.00393701
 41
0.00393701
  0
VERTEX
  8
0
 10
7.28478
 20
1.53022
 30
0.0
 40
0.00393701
 41
0.00393701
  0
VERTEX
  8
0
 10
7.27115
 20
1.52794
 30
0.0
 40
0.00393701
 41
0.00393701
  0
VERTEX
  8
0
 10
7.26671
 20
1.52686
 30
0.0
 40
0.00393701
 41
0.00393701
  0
VERTEX
  8
0
 10
7.26101
 20
1.5255
 30
0.0
 40
0.00393701
 41
0.00393701
  0
VERTEX
  8
0
 10
7.24317
 20
1.5249
 30
0.0
 40
0.00393701
 41
0.00393701
  0
VERTEX
  8
0
 10
7.23253
 20
1.53597
 30
0.0
 40
0.00393701
 41
0.00393701
  0
VERTEX
  8
0
 10
7.23031
 20
1.54031
 30
0.0
 40
0.00393701
 41
0.00393701
  0
VERTEX
  8
0
 10
7.22933
 20
1.54221
 30
0.0
 40
0.00393701
 41
0.00393701
  0
VERTEX
  8
0
 10
7.22846
 20
1.55376
 30
0.0
 40
0.00393701
 41
0.00393701
  0
VERTEX
  8
0
 10
7.22928
 20
1.55469
 30
0.0
 40
0.00393701
 41
0.00393701
  0
VERTEX
  8
0
 10
7.22971
 20
1.55528
 30
0.0
 40
0.00393701
 41
0.00393701
  0
VERTEX
  8
0
 10
7.22846
 20
1.55946
 30
0.0
 40
0.00393701
 41
0.00393701
  0
VERTEX
  8
0
 10
7.22808
 20
1.55946
 30
0.0
 40
0.00393701
 41
0.00393701
  0
VERTEX
  8
0
 10
7.22558
 20
1.55946
 30
0.0
 40
0.00393701
 41
0.00393701
  0
VERTEX
  8
0
 10
7.21892
 20
1.56104
 30
0.0
 40
0.00393701
 41
0.00393701
  0
VERTEX
  8
0
 10
7.21826
 20
1.56125
 30
0.0
 40
0.00393701
 41
0.00393701
  0
VERTEX
  8
0
 10
7.21718
 20
1.56168
 30
0.0
 40
0.00393701
 41
0.00393701
  0
VERTEX
  8
0
 10
7.21235
 20
1.55881
 30
0.0
 40
0.00393701
 41
0.00393701
  0
VERTEX
  8
0
 10
7.20708
 20
1.54932
 30
0.0
 40
0.00393701
 41
0.00393701
  0
VERTEX
  8
0
 10
7.20378
 20
1.53614
 30
0.0
 40
0.00393701
 41
0.00393701
  0
VERTEX
  8
0
 10
7.20318
 20
1.52599
 30
0.0
 40
0.00393701
 41
0.00393701
  0
VERTEX
  8
0
 10
7.20372
 20
1.52274
 30
0.0
 40
0.00393701
 41
0.00393701
  0
VERTEX
  8
0
 10
7.20415
 20
1.52001
 30
0.0
 40
0.00393701
 41
0.00393701
  0
VERTEX
  8
0
 10
7.20404
 20
1.50987
 30
0.0
 40
0.00393701
 41
0.00393701
  0
VERTEX
  8
0
 10
7.20042
 20
1.50136
 30
0.0
 40
0.00393701
 41
0.00393701
  0
VERTEX
  8
0
 10
7.19906
 20
1.49946
 30
0.0
 40
0.00393701
 41
0.00393701
  0
VERTEX
  8
0
 10
7.1965
 20
1.49588
 30
0.0
 40
0.00393701
 41
0.00393701
  0
VERTEX
  8
0
 10
7.1844
 20
1.48763
 30
0.0
 40
0.00393701
 41
0.00393701
  0
VERTEX
  8
0
 10
7.17176
 20
1.49192
 30
0.0
 40
0.00393701
 41
0.00393701
  0
VERTEX
  8
0
 10
7.16894
 20
1.49462
 30
0.0
 40
0.00393701
 41
0.00393701
  0
VERTEX
  8
0
 10
7.16678
 20
1.49669
 30
0.0
 40
0.00393701
 41
0.00393701
  0
VERTEX
  8
0
 10
7.15929
 20
1.50174
 30
0.0
 40
0.00393701
 41
0.00393701
  0
VERTEX
  8
0
 10
7.15158
 20
1.50054
 30
0.0
 40
0.00393701
 41
0.00393701
  0
VERTEX
  8
0
 10
7.14925
 20
1.49957
 30
0.0
 40
0.00393701
 41
0.00393701
  0
VERTEX
  8
0
 10
7.14708
 20
1.49869
 30
0.0
 40
0.00393701
 41
0.00393701
  0
VERTEX
  8
0
 10
7.13943
 20
1.49713
 30
0.0
 40
0.00393701
 41
0.00393701
  0
VERTEX
  8
0
 10
7.13265
 20
1.49963
 30
0.0
 40
0.00393701
 41
0.00393701
  0
VERTEX
  8
0
 10
7.13092
 20
1.50076
 30
0.0
 40
0.00393701
 41
0.00393701
  0
VERTEX
  8
0
 10
7.12831
 20
1.50244
 30
0.0
 40
0.00393701
 41
0.00393701
  0
VERTEX
  8
0
 10
7.11649
 20
1.50592
 30
0.0
 40
0.00393701
 41
0.00393701
  0
VERTEX
  8
0
 10
7.1071
 20
1.50276
 30
0.0
 40
0.00393701
 41
0.00393701
  0
VERTEX
  8
0
 10
7.10574
 20
1.50114
 30
0.0
 40
0.00393701
 41
0.00393701
  0
VERTEX
  8
0
 10
7.10444
 20
1.49957
 30
0.0
 40
0.00393701
 41
0.00393701
  0
VERTEX
  8
0
 10
7.09532
 20
1.49631
 30
0.0
 40
0.00393701
 41
0.00393701
  0
VERTEX
  8
0
 10
7.08768
 20
1.49924
 30
0.0
 40
0.00393701
 41
0.00393701
  0
VERTEX
  8
0
 10
7.08708
 20
1.50076
 30
0.0
 40
0.00393701
 41
0.00393701
  0
VERTEX
  8
0
 10
7.08658
 20
1.50201
 30
0.0
 40
0.00393701
 41
0.00393701
  0
VERTEX
  8
0
 10
7.07894
 20
1.50375
 30
0.0
 40
0.00393701
 41
0.00393701
  0
VERTEX
  8
0
 10
7.06842
 20
1.50006
 30
0.0
 40
0.00393701
 41
0.00393701
  0
VERTEX
  8
0
 10
7.06657
 20
1.49858
 30
0.0
 40
0.00393701
 41
0.00393701
  0
VERTEX
  8
0
 10
7.06586
 20
1.49804
 30
0.0
 40
0.00393701
 41
0.00393701
  0
VERTEX
  8
0
 10
7.05811
 20
1.49886
 30
0.0
 40
0.00393701
 41
0.00393701
  0
VERTEX
  8
0
 10
7.05729
 20
1.49957
 30
0.0
 40
0.00393701
 41
0.00393701
  0
VERTEX
  8
0
 10
7.05637
 20
1.50032
 30
0.0
 40
0.00393701
 41
0.00393701
  0
VERTEX
  8
0
 10
7.04915
 20
1.50092
 30
0.0
 40
0.00393701
 41
0.00393701
  0
VERTEX
  8
0
 10
7.04856
 20
1.50028
 30
0.0
 40
0.00393701
 41
0.00393701
  0
VERTEX
  8
0
 10
7.04764
 20
1.4994
 30
0.0
 40
0.00393701
 41
0.00393701
  0
VERTEX
  8
0
 10
7.04833
 20
1.49061
 30
0.0
 40
0.00393701
 41
0.00393701
  0
VERTEX
  8
0
 10
7.05643
 20
1.47483
 30
0.0
 40
0.00393701
 41
0.00393701
  0
VERTEX
  8
0
 10
7.05925
 20
1.47037
 30
0.0
 40
0.00393701
 41
0.00393701
  0
VERTEX
  8
0
 10
7.06022
 20
1.46881
 30
0.0
 40
0.00393701
 41
0.00393701
  0
VERTEX
  8
0
 10
7.06212
 20
1.46322
 30
0.0
 40
0.00393701
 41
0.00393701
  0
VERTEX
  8
0
 10
7.0594
 20
1.45839
 30
0.0
 40
0.00393701
 41
0.00393701
  0
VERTEX
  8
0
 10
7.05821
 20
1.45714
 30
0.0
 40
0.00393701
 41
0.00393701
  0
VERTEX
  8
0
 10
7.05707
 20
1.45606
 30
0.0
 40
0.00393701
 41
0.00393701
  0
VERTEX
  8
0
 10
7.04926
 20
1.45458
 30
0.0
 40
0.00393701
 41
0.00393701
  0
VERTEX
  8
0
 10
7.04856
 20
1.45535
 30
0.0
 40
0.00393701
 41
0.00393701
  0
VERTEX
  8
0
 10
7.04779
 20
1.45611
 30
0.0
 40
0.00393701
 41
0.00393701
  0
VERTEX
  8
0
 10
7.04113
 20
1.45464
 30
0.0
 40
0.00393701
 41
0.00393701
  0
VERTEX
  8
0
 10
7.04031
 20
1.4535
 30
0.0
 40
0.00393701
 41
0.00393701
  0
VERTEX
  8
0
 10
7.03971
 20
1.45275
 30
0.0
 40
0.00393701
 41
0.00393701
  0
VERTEX
  8
0
 10
7.03586
 20
1.44336
 30
0.0
 40
0.00393701
 41
0.00393701
  0
VERTEX
  8
0
 10
7.03586
 20
1.4426
 30
0.0
 40
0.00393701
 41
0.00393701
  0
VERTEX
  8
0
 10
7.03581
 20
1.43972
 30
0.0
 40
0.00393701
 41
0.00393701
  0
VERTEX
  8
0
 10
7.02968
 20
1.4311
 30
0.0
 40
0.00393701
 41
0.00393701
  0
VERTEX
  8
0
 10
7.01411
 20
1.41986
 30
0.0
 40
0.00393701
 41
0.00393701
  0
VERTEX
  8
0
 10
6.99268
 20
1.41092
 30
0.0
 40
0.00393701
 41
0.00393701
  0
VERTEX
  8
0
 10
6.97499
 20
1.40668
 30
0.0
 40
0.00393701
 41
0.00393701
  0
VERTEX
  8
0
 10
6.96907
 20
1.40619
 30
0.0
 40
0.00393701
 41
0.00393701
  0
VERTEX
  8
0
 10
6.96431
 20
1.40582
 30
0.0
 40
0.00393701
 41
0.00393701
  0
VERTEX
  8
0
 10
6.95008
 20
1.40338
 30
0.0
 40
0.00393701
 41
0.00393701
  0
VERTEX
  8
0
 10
6.94661
 20
1.39643
 30
0.0
 40
0.00393701
 41
0.00393701
  0
VERTEX
  8
0
 10
6.9464
 20
1.39399
 30
0.0
 40
0.00393701
 41
0.00393701
  0
VERTEX
  8
0
 10
6.94613
 20
1.39128
 30
0.0
 40
0.00393701
 41
0.00393701
  0
VERTEX
  8
0
 10
6.94043
 20
1.3827
 30
0.0
 40
0.00393701
 41
0.00393701
  0
VERTEX
  8
0
 10
6.92654
 20
1.37956
 30
0.0
 40
0.00393701
 41
0.00393701
  0
VERTEX
  8
0
 10
6.92219
 20
1.3795
 30
0.0
 40
0.00393701
 41
0.00393701
  0
VERTEX
  8
0
 10
6.91764
 20
1.3795
 30
0.0
 40
0.00393701
 41
0.00393701
  0
VERTEX
  8
0
 10
6.89301
 20
1.37191
 30
0.0
 40
0.00393701
 41
0.00393701
  0
VERTEX
  8
0
 10
6.86893
 20
1.35585
 30
0.0
 40
0.00393701
 41
0.00393701
  0
VERTEX
  8
0
 10
6.86464
 20
1.35156
 30
0.0
 40
0.00393701
 41
0.00393701
  0
VERTEX
  8
0
 10
6.84744
 20
1.33447
 30
0.0
 40
0.00393701
 41
0.00393701
  0
VERTEX
  8
0
 10
6.85792
 20
1.33344
 30
0.0
 40
0.00393701
 41
0.00393701
  0
VERTEX
  8
0
 10
6.85986
 20
1.33328
 30
0.0
 40
0.00393701
 41
0.00393701
  0
VERTEX
  8
0
 10
6.87011
 20
1.32585
 30
0.0
 40
0.00393701
 41
0.00393701
  0
VERTEX
  8
0
 10
6.8705
 20
1.32427
 30
0.0
 40
0.00393701
 41
0.00393701
  0
VERTEX
  8
0
 10
6.87088
 20
1.32265
 30
0.0
 40
0.00393701
 41
0.00393701
  0
VERTEX
  8
0
 10
6.87435
 20
1.31771
 30
0.0
 40
0.00393701
 41
0.00393701
  0
VERTEX
  8
0
 10
6.88167
 20
1.31613
 30
0.0
 40
0.00393701
 41
0.00393701
  0
VERTEX
  8
0
 10
6.88417
 20
1.31613
 30
0.0
 40
0.00393701
 41
0.00393701
  0
VERTEX
  8
0
 10
6.88699
 20
1.31613
 30
0.0
 40
0.00393701
 41
0.00393701
  0
VERTEX
  8
0
 10
6.89561
 20
1.31049
 30
0.0
 40
0.00393701
 41
0.00393701
  0
VERTEX
  8
0
 10
6.88271
 20
1.30002
 30
0.0
 40
0.00393701
 41
0.00393701
  0
VERTEX
  8
0
 10
6.87782
 20
1.29785
 30
0.0
 40
0.00393701
 41
0.00393701
  0
VERTEX
  8
0
 10
6.87532
 20
1.29677
 30
0.0
 40
0.00393701
 41
0.00393701
  0
VERTEX
  8
0
 10
6.8616
 20
1.29161
 30
0.0
 40
0.00393701
 41
0.00393701
  0
VERTEX
  8
0
 10
6.84944
 20
1.28798
 30
0.0
 40
0.00393701
 41
0.00393701
  0
VERTEX
  8
0
 10
6.84782
 20
1.28765
 30
0.0
 40
0.00393701
 41
0.00393701
  0
VERTEX
  8
0
 10
6.84435
 20
1.287
 30
0.0
 40
0.00393701
 41
0.00393701
  0
VERTEX
  8
0
 10
6.83447
 20
1.28266
 30
0.0
 40
0.00393701
 41
0.00393701
  0
VERTEX
  8
0
 10
6.83757
 20
1.27696
 30
0.0
 40
0.00393701
 41
0.00393701
  0
VERTEX
  8
0
 10
6.83919
 20
1.2761
 30
0.0
 40
0.00393701
 41
0.00393701
  0
VERTEX
  8
0
 10
6.84028
 20
1.2755
 30
0.0
 40
0.00393701
 41
0.00393701
  0
VERTEX
  8
0
 10
6.84526
 20
1.26628
 30
0.0
 40
0.00393701
 41
0.00393701
  0
VERTEX
  8
0
 10
6.84511
 20
1.26508
 30
0.0
 40
0.00393701
 41
0.00393701
  0
VERTEX
  8
0
 10
6.84472
 20
1.26248
 30
0.0
 40
0.00393701
 41
0.00393701
  0
VERTEX
  8
0
 10
6.83686
 20
1.25548
 30
0.0
 40
0.00393701
 41
0.00393701
  0
VERTEX
  8
0
 10
6.81917
 20
1.24468
 30
0.0
 40
0.00393701
 41
0.00393701
  0
VERTEX
  8
0
 10
6.79904
 20
1.23633
 30
0.0
 40
0.00393701
 41
0.00393701
  0
VERTEX
  8
0
 10
6.78717
 20
1.23334
 30
0.0
 40
0.00393701
 41
0.00393701
  0
VERTEX
  8
0
 10
6.78353
 20
1.23394
 30
0.0
 40
0.00393701
 41
0.00393701
  0
VERTEX
  8
0
 10
6.77968
 20
1.23459
 30
0.0
 40
0.00393701
 41
0.00393701
  0
VERTEX
  8
0
 10
6.76557
 20
1.23351
 30
0.0
 40
0.00393701
 41
0.00393701
  0
VERTEX
  8
0
 10
6.75906
 20
1.22743
 30
0.0
 40
0.00393701
 41
0.00393701
  0
VERTEX
  8
0
 10
6.75906
 20
1.22537
 30
0.0
 40
0.00393701
 41
0.00393701
  0
VERTEX
  8
0
 10
6.75906
 20
1.22428
 30
0.0
 40
0.00393701
 41
0.00393701
  0
VERTEX
  8
0
 10
6.76361
 20
1.22054
 30
0.0
 40
0.00393701
 41
0.00393701
  0
VERTEX
  8
0
 10
6.76454
 20
1.22087
 30
0.0
 40
0.00393701
 41
0.00393701
  0
VERTEX
  8
0
 10
6.76654
 20
1.22168
 30
0.0
 40
0.00393701
 41
0.00393701
  0
VERTEX
  8
0
 10
6.7761
 20
1.22087
 30
0.0
 40
0.00393701
 41
0.00393701
  0
VERTEX
  8
0
 10
6.78125
 20
1.21544
 30
0.0
 40
0.00393701
 41
0.00393701
  0
VERTEX
  8
0
 10
6.78103
 20
1.21387
 30
0.0
 40
0.00393701
 41
0.00393701
  0
VERTEX
  8
0
 10
6.78093
 20
1.21316
 30
0.0
 40
0.00393701
 41
0.00393701
  0
VERTEX
  8
0
 10
6.77171
 20
1.2053
 30
0.0
 40
0.00393701
 41
0.00393701
  0
VERTEX
  8
0
 10
6.75456
 20
1.19439
 30
0.0
 40
0.00393701
 41
0.00393701
  0
VERTEX
  8
0
 10
6.75049
 20
1.19211
 30
0.0
 40
0.00393701
 41
0.00393701
  0
VERTEX
  8
0
 10
6.74636
 20
1.18989
 30
0.0
 40
0.00393701
 41
0.00393701
  0
VERTEX
  8
0
 10
6.72775
 20
1.17898
 30
0.0
 40
0.00393701
 41
0.00393701
  0
VERTEX
  8
0
 10
6.71571
 20
1.17117
 30
0.0
 40
0.00393701
 41
0.00393701
  0
VERTEX
  8
0
 10
6.71496
 20
1.17041
 30
0.0
 40
0.00393701
 41
0.00393701
  0
VERTEX
  8
0
 10
6.71322
 20
1.16889
 30
0.0
 40
0.00393701
 41
0.00393701
  0
VERTEX
  8
0
 10
6.70931
 20
1.15815
 30
0.0
 40
0.00393701
 41
0.00393701
  0
VERTEX
  8
0
 10
6.71149
 20
1.14442
 30
0.0
 40
0.00393701
 41
0.00393701
  0
VERTEX
  8
0
 10
6.71289
 20
1.14138
 30
0.0
 40
0.00393701
 41
0.00393701
  0
VERTEX
  8
0
 10
6.71371
 20
1.13954
 30
0.0
 40
0.00393701
 41
0.00393701
  0
VERTEX
  8
0
 10
6.71403
 20
1.13216
 30
0.0
 40
0.00393701
 41
0.00393701
  0
VERTEX
  8
0
 10
6.70692
 20
1.12223
 30
0.0
 40
0.00393701
 41
0.00393701
  0
VERTEX
  8
0
 10
6.70426
 20
1.11925
 30
0.0
 40
0.00393701
 41
0.00393701
  0
VERTEX
  8
0
 10
6.70042
 20
1.11507
 30
0.0
 40
0.00393701
 41
0.00393701
  0
VERTEX
  8
0
 10
6.68772
 20
1.0957
 30
0.0
 40
0.00393701
 41
0.00393701
  0
VERTEX
  8
0
 10
6.68544
 20
1.08295
 30
0.0
 40
0.00393701
 41
0.00393701
  0
VERTEX
  8
0
 10
6.68685
 20
1.08203
 30
0.0
 40
0.00393701
 41
0.00393701
  0
VERTEX
  8
0
 10
6.68707
 20
1.08192
 30
0.0
 40
0.00393701
 41
0.00393701
  0
VERTEX
  8
0
 10
6.68668
 20
1.07954
 30
0.0
 40
0.00393701
 41
0.00393701
  0
VERTEX
  8
0
 10
6.68658
 20
1.07954
 30
0.0
 40
0.00393701
 41
0.00393701
  0
VERTEX
  8
0
 10
6.68599
 20
1.07954
 30
0.0
 40
0.00393701
 41
0.00393701
  0
VERTEX
  8
0
 10
6.6824
 20
1.07579
 30
0.0
 40
0.00393701
 41
0.00393701
  0
VERTEX
  8
0
 10
6.6824
 20
1.07449
 30
0.0
 40
0.00393701
 41
0.00393701
  0
VERTEX
  8
0
 10
6.6824
 20
1.0733
 30
0.0
 40
0.00393701
 41
0.00393701
  0
VERTEX
  8
0
 10
6.68549
 20
1.06966
 30
0.0
 40
0.00393701
 41
0.00393701
  0
VERTEX
  8
0
 10
6.69054
 20
1.07232
 30
0.0
 40
0.00393701
 41
0.00393701
  0
VERTEX
  8
0
 10
6.6914
 20
1.07368
 30
0.0
 40
0.00393701
 41
0.00393701
  0
VERTEX
  8
0
 10
6.69271
 20
1.07574
 30
0.0
 40
0.00393701
 41
0.00393701
  0
VERTEX
  8
0
 10
6.70801
 20
1.08805
 30
0.0
 40
0.00393701
 41
0.00393701
  0
VERTEX
  8
0
 10
6.72358
 20
1.09576
 30
0.0
 40
0.00393701
 41
0.00393701
  0
VERTEX
  8
0
 10
6.72499
 20
1.09543
 30
0.0
 40
0.00393701
 41
0.00393701
  0
VERTEX
  8
0
 10
6.72618
 20
1.09522
 30
0.0
 40
0.00393701
 41
0.00393701
  0
VERTEX
  8
0
 10
6.72949
 20
1.09033
 30
0.0
 40
0.00393701
 41
0.00393701
  0
VERTEX
  8
0
 10
6.72987
 20
1.0759
 30
0.0
 40
0.00393701
 41
0.00393701
  0
VERTEX
  8
0
 10
6.72971
 20
1.07107
 30
0.0
 40
0.00393701
 41
0.00393701
  0
VERTEX
  8
0
 10
6.72949
 20
1.06635
 30
0.0
 40
0.00393701
 41
0.00393701
  0
VERTEX
  8
0
 10
6.72738
 20
1.05105
 30
0.0
 40
0.00393701
 41
0.00393701
  0
VERTEX
  8
0
 10
6.72276
 20
1.04248
 30
0.0
 40
0.00393701
 41
0.00393701
  0
VERTEX
  8
0
 10
6.72131
 20
1.04112
 30
0.0
 40
0.00393701
 41
0.00393701
  0
VERTEX
  8
0
 10
6.7175
 20
1.03771
 30
0.0
 40
0.00393701
 41
0.00393701
  0
VERTEX
  8
0
 10
6.70622
 20
1.02219
 30
0.0
 40
0.00393701
 41
0.00393701
  0
VERTEX
  8
0
 10
6.70236
 20
1.00309
 30
0.0
 40
0.00393701
 41
0.00393701
  0
VERTEX
  8
0
 10
6.70236
 20
0.997885
 30
0.0
 40
0.00393701
 41
0.00393701
  0
VERTEX
  8
0
 10
6.70236
 20
0.993056
 30
0.0
 40
0.00393701
 41
0.00393701
  0
VERTEX
  8
0
 10
6.70042
 20
0.978461
 30
0.0
 40
0.00393701
 41
0.00393701
  0
VERTEX
  8
0
 10
6.69456
 20
0.964247
 30
0.0
 40
0.00393701
 41
0.00393701
  0
VERTEX
  8
0
 10
6.69265
 20
0.960829
 30
0.0
 40
0.00393701
 41
0.00393701
  0
VERTEX
  8
0
 10
6.69026
 20
0.956706
 30
0.0
 40
0.00393701
 41
0.00393701
  0
VERTEX
  8
0
 10
6.67686
 20
0.940647
 30
0.0
 40
0.00393701
 41
0.00393701
  0
VERTEX
  8
0
 10
6.66547
 20
0.932781
 30
0.0
 40
0.00393701
 41
0.00393701
  0
VERTEX
  8
0
 10
6.66168
 20
0.932781
 30
0.0
 40
0.00393701
 41
0.00393701
  0
VERTEX
  8
0
 10
6.65956
 20
0.932781
 30
0.0
 40
0.00393701
 41
0.00393701
  0
VERTEX
  8
0
 10
6.65392
 20
0.9273
 30
0.0
 40
0.00393701
 41
0.00393701
  0
VERTEX
  8
0
 10
6.65338
 20
0.926378
 30
0.0
 40
0.00393701
 41
0.00393701
  0
VERTEX
  8
0
 10
6.65267
 20
0.925293
 30
0.0
 40
0.00393701
 41
0.00393701
  0
VERTEX
  8
0
 10
6.63406
 20
0.918078
 30
0.0
 40
0.00393701
 41
0.00393701
  0
VERTEX
  8
0
 10
6.63086
 20
0.917643
 30
0.0
 40
0.00393701
 41
0.00393701
  0
VERTEX
  8
0
 10
6.62685
 20
0.91721
 30
0.0
 40
0.00393701
 41
0.00393701
  0
VERTEX
  8
0
 10
6.61507
 20
0.914333
 30
0.0
 40
0.00393701
 41
0.00393701
  0
VERTEX
  8
0
 10
6.61083
 20
0.908529
 30
0.0
 40
0.00393701
 41
0.00393701
  0
VERTEX
  8
0
 10
6.61046
 20
0.906575
 30
0.0
 40
0.00393701
 41
0.00393701
  0
VERTEX
  8
0
 10
6.60949
 20
0.902235
 30
0.0
 40
0.00393701
 41
0.00393701
  0
VERTEX
  8
0
 10
6.60271
 20
0.883897
 30
0.0
 40
0.00393701
 41
0.00393701
  0
VERTEX
  8
0
 10
6.59185
 20
0.867785
 30
0.0
 40
0.00393701
 41
0.00393701
  0
VERTEX
  8
0
 10
6.58892
 20
0.864475
 30
0.0
 40
0.00393701
 41
0.00393701
  0
VERTEX
  8
0
 10
6.58518
 20
0.860406
 30
0.0
 40
0.00393701
 41
0.00393701
  0
VERTEX
  8
0
 10
6.57508
 20
0.845703
 30
0.0
 40
0.00393701
 41
0.00393701
  0
VERTEX
  8
0
 10
6.57644
 20
0.837728
 30
0.0
 40
0.00393701
 41
0.00393701
  0
VERTEX
  8
0
 10
6.57775
 20
0.83724
 30
0.0
 40
0.00393701
 41
0.00393701
  0
VERTEX
  8
0
 10
6.57856
 20
0.836914
 30
0.0
 40
0.00393701
 41
0.00393701
  0
VERTEX
  8
0
 10
6.59131
 20
0.845432
 30
0.0
 40
0.00393701
 41
0.00393701
  0
VERTEX
  8
0
 10
6.59299
 20
0.847439
 30
0.0
 40
0.00393701
 41
0.00393701
  0
VERTEX
  8
0
 10
6.59521
 20
0.850206
 30
0.0
 40
0.00393701
 41
0.00393701
  0
VERTEX
  8
0
 10
6.60325
 20
0.857368
 30
0.0
 40
0.00393701
 41
0.00393701
  0
VERTEX
  8
0
 10
6.61203
 20
0.857964
 30
0.0
 40
0.00393701
 41
0.00393701
  0
VERTEX
  8
0
 10
6.61469
 20
0.857476
 30
0.0
 40
0.00393701
 41
0.00393701
  0
VERTEX
  8
0
 10
6.61643
 20
0.85715
 30
0.0
 40
0.00393701
 41
0.00393701
  0
VERTEX
  8
0
 10
6.63292
 20
0.858886
 30
0.0
 40
0.00393701
 41
0.00393701
  0
VERTEX
  8
0
 10
6.63411
 20
0.859483
 30
0.0
 40
0.00393701
 41
0.00393701
  0
VERTEX
  8
0
 10
6.63683
 20
0.861003
 30
0.0
 40
0.00393701
 41
0.00393701
  0
VERTEX
  8
0
 10
6.64686
 20
0.86225
 30
0.0
 40
0.00393701
 41
0.00393701
  0
VERTEX
  8
0
 10
6.65739
 20
0.857422
 30
0.0
 40
0.00393701
 41
0.00393701
  0
VERTEX
  8
0
 10
6.66374
 20
0.846789
 30
0.0
 40
0.00393701
 41
0.00393701
  0
VERTEX
  8
0
 10
6.66465
 20
0.835667
 30
0.0
 40
0.00393701
 41
0.00393701
  0
VERTEX
  8
0
 10
6.66396
 20
0.832194
 30
0.0
 40
0.00393701
 41
0.00393701
  0
VERTEX
  8
0
 10
6.66351
 20
0.830404
 30
0.0
 40
0.00393701
 41
0.00393701
  0
VERTEX
  8
0
 10
6.66347
 20
0.824707
 30
0.0
 40
0.00393701
 41
0.00393701
  0
VERTEX
  8
0
 10
6.66661
 20
0.822808
 30
0.0
 40
0.00393701
 41
0.00393701
  0
VERTEX
  8
0
 10
6.66769
 20
0.822808
 30
0.0
 40
0.00393701
 41
0.00393701
  0
VERTEX
  8
0
 10
6.67074
 20
0.822808
 30
0.0
 40
0.00393701
 41
0.00393701
  0
VERTEX
  8
0
 10
6.67899
 20
0.827746
 30
0.0
 40
0.00393701
 41
0.00393701
  0
VERTEX
  8
0
 10
6.67985
 20
0.828504
 30
0.0
 40
0.00393701
 41
0.00393701
  0
VERTEX
  8
0
 10
6.68175
 20
0.83024
 30
0.0
 40
0.00393701
 41
0.00393701
  0
VERTEX
  8
0
 10
6.69194
 20
0.830404
 30
0.0
 40
0.00393701
 41
0.00393701
  0
VERTEX
  8
0
 10
6.7029
 20
0.816351
 30
0.0
 40
0.00393701
 41
0.00393701
  0
VERTEX
  8
0
 10
6.70557
 20
0.811253
 30
0.0
 40
0.00393701
 41
0.00393701
  0
VERTEX
  8
0
 10
6.70747
 20
0.807508
 30
0.0
 40
0.00393701
 41
0.00393701
  0
VERTEX
  8
0
 10
6.71192
 20
0.795356
 30
0.0
 40
0.00393701
 41
0.00393701
  0
VERTEX
  8
0
 10
6.70942
 20
0.783311
 30
0.0
 40
0.00393701
 41
0.00393701
  0
VERTEX
  8
0
 10
6.70806
 20
0.77946
 30
0.0
 40
0.00393701
 41
0.00393701
  0
VERTEX
  8
0
 10
6.70725
 20
0.777289
 30
0.0
 40
0.00393701
 41
0.00393701
  0
VERTEX
  8
0
 10
6.70242
 20
0.762967
 30
0.0
 40
0.00393701
 41
0.00393701
  0
VERTEX
  8
0
 10
6.70242
 20
0.758192
 30
0.0
 40
0.00393701
 41
0.00393701
  0
VERTEX
  8
0
 10
6.70242
 20
0.75689
 30
0.0
 40
0.00393701
 41
0.00393701
  0
VERTEX
  8
0
 10
6.70535
 20
0.752983
 30
0.0
 40
0.00393701
 41
0.00393701
  0
VERTEX
  8
0
 10
6.71001
 20
0.754992
 30
0.0
 40
0.00393701
 41
0.00393701
  0
VERTEX
  8
0
 10
6.71078
 20
0.756131
 30
0.0
 40
0.00393701
 41
0.00393701
  0
VERTEX
  8
0
 10
6.71175
 20
0.757758
 30
0.0
 40
0.00393701
 41
0.00393701
  0
VERTEX
  8
0
 10
6.72358
 20
0.757053
 30
0.0
 40
0.00393701
 41
0.00393701
  0
VERTEX
  8
0
 10
6.73242
 20
0.746094
 30
0.0
 40
0.00393701
 41
0.00393701
  0
VERTEX
  8
0
 10
6.73242
 20
0.742404
 30
0.0
 40
0.00393701
 41
0.00393701
  0
VERTEX
  8
0
 10
6.73242
 20
0.738553
 30
0.0
 40
0.00393701
 41
0.00393701
  0
VERTEX
  8
0
 10
6.72478
 20
0.728244
 30
0.0
 40
0.00393701
 41
0.00393701
  0
VERTEX
  8
0
 10
6.72358
 20
0.726997
 30
0.0
 40
0.00393701
 41
0.00393701
  0
VERTEX
  8
0
 10
6.72146
 20
0.724935
 30
0.0
 40
0.00393701
 41
0.00393701
  0
VERTEX
  8
0
 10
6.71658
 20
0.717393
 30
0.0
 40
0.00393701
 41
0.00393701
  0
VERTEX
  8
0
 10
6.71761
 20
0.707357
 30
0.0
 40
0.00393701
 41
0.00393701
  0
VERTEX
  8
0
 10
6.71847
 20
0.704156
 30
0.0
 40
0.00393701
 41
0.00393701
  0
VERTEX
  8
0
 10
6.71897
 20
0.702257
 30
0.0
 40
0.00393701
 41
0.00393701
  0
VERTEX
  8
0
 10
6.72049
 20
0.675999
 30
0.0
 40
0.00393701
 41
0.00393701
  0
VERTEX
  8
0
 10
6.72021
 20
0.673719
 30
0.0
 40
0.00393701
 41
0.00393701
  0
VERTEX
  8
0
 10
6.71967
 20
0.669054
 30
0.0
 40
0.00393701
 41
0.00393701
  0
VERTEX
  8
0
 10
6.7219
 20
0.650336
 30
0.0
 40
0.00393701
 41
0.00393701
  0
VERTEX
  8
0
 10
6.72965
 20
0.645454
 30
0.0
 40
0.00393701
 41
0.00393701
  0
VERTEX
  8
0
 10
6.73014
 20
0.645887
 30
0.0
 40
0.00393701
 41
0.00393701
  0
VERTEX
  8
0
 10
6.73063
 20
0.646431
 30
0.0
 40
0.00393701
 41
0.00393701
  0
VERTEX
  8
0
 10
6.73687
 20
0.661838
 30
0.0
 40
0.00393701
 41
0.00393701
  0
VERTEX
  8
0
 10
6.73736
 20
0.663738
 30
0.0
 40
0.00393701
 41
0.00393701
  0
VERTEX
  8
0
 10
6.73812
 20
0.666938
 30
0.0
 40
0.00393701
 41
0.00393701
  0
VERTEX
  8
0
 10
6.74229
 20
0.676053
 30
0.0
 40
0.00393701
 41
0.00393701
  0
VERTEX
  8
0
 10
6.75239
 20
0.678603
 30
0.0
 40
0.00393701
 41
0.00393701
  0
VERTEX
  8
0
 10
6.75581
 20
0.678765
 30
0.0
 40
0.00393701
 41
0.00393701
  0
VERTEX
  8
0
 10
6.75965
 20
0.679036
 30
0.0
 40
0.00393701
 41
0.00393701
  0
VERTEX
  8
0
 10
6.77149
 20
0.676921
 30
0.0
 40
0.00393701
 41
0.00393701
  0
VERTEX
  8
0
 10
6.78174
 20
0.670031
 30
0.0
 40
0.00393701
 41
0.00393701
  0
VERTEX
  8
0
 10
6.78521
 20
0.659831
 30
0.0
 40
0.00393701
 41
0.00393701
  0
VERTEX
  8
0
 10
6.78244
 20
0.650444
 30
0.0
 40
0.00393701
 41
0.00393701
  0
VERTEX
  8
0
 10
6.78065
 20
0.648004
 30
0.0
 40
0.00393701
 41
0.00393701
  0
VERTEX
  8
0
 10
6.77897
 20
0.645833
 30
0.0
 40
0.00393701
 41
0.00393701
  0
VERTEX
  8
0
 10
6.77576
 20
0.633789
 30
0.0
 40
0.00393701
 41
0.00393701
  0
VERTEX
  8
0
 10
6.77983
 20
0.626139
 30
0.0
 40
0.00393701
 41
0.00393701
  0
VERTEX
  8
0
 10
6.78119
 20
0.626139
 30
0.0
 40
0.00393701
 41
0.00393701
  0
VERTEX
  8
0
 10
6.7839
 20
0.626139
 30
0.0
 40
0.00393701
 41
0.00393701
  0
VERTEX
  8
0
 10
6.79204
 20
0.619683
 30
0.0
 40
0.00393701
 41
0.00393701
  0
VERTEX
  8
0
 10
6.7991
 20
0.612142
 30
0.0
 40
0.00393701
 41
0.00393701
  0
VERTEX
  8
0
 10
6.7991
 20
0.609592
 30
0.0
 40
0.00393701
 41
0.00393701
  0
VERTEX
  8
0
 10
6.7991
 20
0.608128
 30
0.0
 40
0.00393701
 41
0.00393701
  0
VERTEX
  8
0
 10
6.79688
 20
0.603733
 30
0.0
 40
0.00393701
 41
0.00393701
  0
VERTEX
  8
0
 10
6.79258
 20
0.594672
 30
0.0
 40
0.00393701
 41
0.00393701
  0
VERTEX
  8
0
 10
6.79156
 20
0.592611
 30
0.0
 40
0.00393701
 41
0.00393701
  0
VERTEX
  8
0
 10
6.79004
 20
0.589626
 30
0.0
 40
0.00393701
 41
0.00393701
  0
VERTEX
  8
0
 10
6.78564
 20
0.575683
 30
0.0
 40
0.00393701
 41
0.00393701
  0
VERTEX
  8
0
 10
6.7845
 20
0.557292
 30
0.0
 40
0.00393701
 41
0.00393701
  0
VERTEX
  8
0
 10
6.78461
 20
0.552083
 30
0.0
 40
0.00393701
 41
0.00393701
  0
VERTEX
  8
0
 10
6.78478
 20
0.543294
 30
0.0
 40
0.00393701
 41
0.00393701
  0
VERTEX
  8
0
 10
6.7895
 20
0.513781
 30
0.0
 40
0.00393701
 41
0.00393701
  0
VERTEX
  8
0
 10
6.80089
 20
0.498969
 30
0.0
 40
0.00393701
 41
0.00393701
  0
VERTEX
  8
0
 10
6.80447
 20
0.49745
 30
0.0
 40
0.00393701
 41
0.00393701
  0
VERTEX
  8
0
 10
6.80692
 20
0.496419
 30
0.0
 40
0.00393701
 41
0.00393701
  0
VERTEX
  8
0
 10
6.81375
 20
0.491536
 30
0.0
 40
0.00393701
 41
0.00393701
  0
VERTEX
  8
0
 10
6.81575
 20
0.483724
 30
0.0
 40
0.00393701
 41
0.00393701
  0
VERTEX
  8
0
 10
6.81575
 20
0.481065
 30
0.0
 40
0.00393701
 41
0.00393701
  0
VERTEX
  8
0
 10
6.81575
 20
0.478624
 30
0.0
 40
0.00393701
 41
0.00393701
  0
VERTEX
  8
0
 10
6.81728
 20
0.4713
 30
0.0
 40
0.00393701
 41
0.00393701
  0
VERTEX
  8
0
 10
6.82329
 20
0.469456
 30
0.0
 40
0.00393701
 41
0.00393701
  0
VERTEX
  8
0
 10
6.82536
 20
0.469456
 30
0.0
 40
0.00393701
 41
0.00393701
  0
VERTEX
  8
0
 10
6.82801
 20
0.469456
 30
0.0
 40
0.00393701
 41
0.00393701
  0
VERTEX
  8
0
 10
6.83615
 20
0.475151
 30
0.0
 40
0.00393701
 41
0.00393701
  0
VERTEX
  8
0
 10
6.83897
 20
0.491808
 30
0.0
 40
0.00393701
 41
0.00393701
  0
VERTEX
  8
0
 10
6.83903
 20
0.497287
 30
0.0
 40
0.00393701
 41
0.00393701
  0
VERTEX
  8
0
 10
6.83903
 20
0.501465
 30
0.0
 40
0.00393701
 41
0.00393701
  0
VERTEX
  8
0
 10
6.84483
 20
0.51964
 30
0.0
 40
0.00393701
 41
0.00393701
  0
VERTEX
  8
0
 10
6.8546
 20
0.52946
 30
0.0
 40
0.00393701
 41
0.00393701
  0
VERTEX
  8
0
 10
6.85786
 20
0.52946
 30
0.0
 40
0.00393701
 41
0.00393701
  0
VERTEX
  8
0
 10
6.86133
 20
0.52946
 30
0.0
 40
0.00393701
 41
0.00393701
  0
VERTEX
  8
0
 10
6.87175
 20
0.518338
 30
0.0
 40
0.00393701
 41
0.00393701
  0
VERTEX
  8
0
 10
6.88183
 20
0.493599
 30
0.0
 40
0.00393701
 41
0.00393701
  0
VERTEX
  8
0
 10
6.88351
 20
0.486817
 30
0.0
 40
0.00393701
 41
0.00393701
  0
VERTEX
  8
0
 10
6.88504
 20
0.480524
 30
0.0
 40
0.00393701
 41
0.00393701
  0
VERTEX
  8
0
 10
6.89561
 20
0.455296
 30
0.0
 40
0.00393701
 41
0.00393701
  0
VERTEX
  8
0
 10
6.91081
 20
0.43674
 30
0.0
 40
0.00393701
 41
0.00393701
  0
VERTEX
  8
0
 10
6.91471
 20
0.433757
 30
0.0
 40
0.00393701
 41
0.00393701
  0
VERTEX
  8
0
 10
6.91629
 20
0.432563
 30
0.0
 40
0.00393701
 41
0.00393701
  0
VERTEX
  8
0
 10
6.92888
 20
0.41824
 30
0.0
 40
0.00393701
 41
0.00393701
  0
VERTEX
  8
0
 10
6.92931
 20
0.417156
 30
0.0
 40
0.00393701
 41
0.00393701
  0
VERTEX
  8
0
 10
6.92974
 20
0.415961
 30
0.0
 40
0.00393701
 41
0.00393701
  0
VERTEX
  8
0
 10
6.93712
 20
0.409451
 30
0.0
 40
0.00393701
 41
0.00393701
  0
VERTEX
  8
0
 10
6.93961
 20
0.409451
 30
0.0
 40
0.00393701
 41
0.00393701
  0
VERTEX
  8
0
 10
6.94331
 20
0.409451
 30
0.0
 40
0.00393701
 41
0.00393701
  0
VERTEX
  8
0
 10
6.95344
 20
0.403429
 30
0.0
 40
0.00393701
 41
0.00393701
  0
VERTEX
  8
0
 10
6.95449
 20
0.402453
 30
0.0
 40
0.00393701
 41
0.00393701
  0
VERTEX
  8
0
 10
6.95649
 20
0.400553
 30
0.0
 40
0.00393701
 41
0.00393701
  0
VERTEX
  8
0
 10
6.96599
 20
0.398329
 30
0.0
 40
0.00393701
 41
0.00393701
  0
VERTEX
  8
0
 10
6.96799
 20
0.411838
 30
0.0
 40
0.00393701
 41
0.00393701
  0
VERTEX
  8
0
 10
6.96739
 20
0.416124
 30
0.0
 40
0.00393701
 41
0.00393701
  0
VERTEX
  8
0
 10
6.9669
 20
0.41965
 30
0.0
 40
0.00393701
 41
0.00393701
  0
VERTEX
  8
0
 10
6.96685
 20
0.430285
 30
0.0
 40
0.00393701
 41
0.00393701
  0
VERTEX
  8
0
 10
6.97097
 20
0.436089
 30
0.0
 40
0.00393701
 41
0.00393701
  0
VERTEX
  8
0
 10
6.97265
 20
0.437229
 30
0.0
 40
0.00393701
 41
0.00393701
  0
VERTEX
  8
0
 10
6.97379
 20
0.438043
 30
0.0
 40
0.00393701
 41
0.00393701
  0
VERTEX
  8
0
 10
6.98876
 20
0.440972
 30
0.0
 40
0.00393701
 41
0.00393701
  0
VERTEX
  8
0
 10
6.9904
 20
0.440701
 30
0.0
 40
0.00393701
 41
0.00393701
  0
VERTEX
  8
0
 10
6.9949
 20
0.439942
 30
0.0
 40
0.00393701
 41
0.00393701
  0
VERTEX
  8
0
 10
7.01031
 20
0.433649
 30
0.0
 40
0.00393701
 41
0.00393701
  0
VERTEX
  8
0
 10
7.01872
 20
0.421983
 30
0.0
 40
0.00393701
 41
0.00393701
  0
VERTEX
  8
0
 10
7.01975
 20
0.418565
 30
0.0
 40
0.00393701
 41
0.00393701
  0
VERTEX
  8
0
 10
7.02029
 20
0.416775
 30
0.0
 40
0.00393701
 41
0.00393701
  0
VERTEX
  8
0
 10
7.02983
 20
0.401421
 30
0.0
 40
0.00393701
 41
0.00393701
  0
VERTEX
  8
0
 10
7.03087
 20
0.400771
 30
0.0
 40
0.00393701
 41
0.00393701
  0
VERTEX
  8
0
 10
7.03239
 20
0.39974
 30
0.0
 40
0.00393701
 41
0.00393701
  0
VERTEX
  8
0
 10
7.03896
 20
0.397786
 30
0.0
 40
0.00393701
 41
0.00393701
  0
VERTEX
  8
0
 10
7.04775
 20
0.400174
 30
0.0
 40
0.00393701
 41
0.00393701
  0
VERTEX
  8
0
 10
7.05046
 20
0.401258
 30
0.0
 40
0.00393701
 41
0.00393701
  0
VERTEX
  8
0
 10
7.05458
 20
0.402994
 30
0.0
 40
0.00393701
 41
0.00393701
  0
VERTEX
  8
0
 10
7.06982
 20
0.403538
 30
0.0
 40
0.00393701
 41
0.00393701
  0
VERTEX
  8
0
 10
7.08421
 20
0.390517
 30
0.0
 40
0.00393701
 41
0.00393701
  0
VERTEX
  8
0
 10
7.08789
 20
0.385471
 30
0.0
 40
0.00393701
 41
0.00393701
  0
VERTEX
  8
0
 10
7.0911
 20
0.381076
 30
0.0
 40
0.00393701
 41
0.00393701
  0
VERTEX
  8
0
 10
7.10292
 20
0.369413
 30
0.0
 40
0.00393701
 41
0.00393701
  0
VERTEX
  8
0
 10
7.1225
 20
0.354329
 30
0.0
 40
0.00393701
 41
0.00393701
  0
VERTEX
  8
0
 10
7.14328
 20
0.342503
 30
0.0
 40
0.00393701
 41
0.00393701
  0
VERTEX
  8
0
 10
7.15707
 20
0.337022
 30
0.0
 40
0.00393701
 41
0.00393701
  0
VERTEX
  8
0
 10
7.16183
 20
0.336208
 30
0.0
 40
0.00393701
 41
0.00393701
  0
VERTEX
  8
0
 10
7.16629
 20
0.335504
 30
0.0
 40
0.00393701
 41
0.00393701
  0
VERTEX
  8
0
 10
7.1799
 20
0.333604
 30
0.0
 40
0.00393701
 41
0.00393701
  0
VERTEX
  8
0
 10
7.18024
 20
0.334907
 30
0.0
 40
0.00393701
 41
0.00393701
  0
VERTEX
  8
0
 10
7.18018
 20
0.334907
 30
0.0
 40
0.00393701
 41
0.00393701
  0
SEQEND
 8
0
  0
ENDSEC
  0
EOF
