<svg xmlns="http://www.w3.org/2000/svg" height="310mm" version="1.1" viewBox="0 -10 650 310" width="650mm" style=""><script xmlns=""/>
<!--
TwoPiece - 
Created with Boxes.py (https://festi.info/boxes.py)
Creation date: 2019-12-21 00:26:59
Command line (remove spaces beteen dashes): boxes TwoPiece - -FingerJoint_angle=90.0 - -FingerJoint_style=rectangular - -FingerJoint_surroundingspaces=2.0 - -FingerJoint_edge_width=1.0 - -FingerJoint_finger=2.0 - -FingerJoint_play=0.0 - -FingerJoint_space=2.0 - -FingerJoint_width=1.0 - -x=210 - -y=74.5 - -h=88.5 - -outside=0 - -play=0.05 - -thickness=3.0 - -format=svg - -tabs=0.0 - -debug=0 - -reference=0 - -burn=0.1
Url: http://localhost:8008/TwoPiece?FingerJoint_angle=90.0&FingerJoint_style=rectangular&FingerJoint_surroundingspaces=2.0&FingerJoint_edge_width=1.0&FingerJoint_finger=2.0&FingerJoint_play=0.0&FingerJoint_space=2.0&FingerJoint_width=1.0&x=210&y=74.5&h=88.5&outside=0&play=0.05&thickness=3.0&format=svg&tabs=0.0&debug=0&reference=0&burn=0.1&render=1
SettingsUrl: http://localhost:8008/TwoPiece?FingerJoint_angle=90.0&FingerJoint_style=rectangular&FingerJoint_surroundingspaces=2.0&FingerJoint_edge_width=1.0&FingerJoint_finger=2.0&FingerJoint_play=0.0&FingerJoint_space=2.0&FingerJoint_width=1.0&x=210&y=74.5&h=88.5&outside=0&play=0.05&thickness=3.0&format=svg&tabs=0.0&debug=0&reference=0&burn=0.1
--><g id="surface16246">
<path d="M 0 0 H 6 C 5.945312 0 5.898438 0.0429688 5.898438 0.101562 V -2.898438 C 5.898438 -2.953125 5.941406 -3 6 -3 H 12 C 12.054688 -3 12.101563 -2.957031 12.101563 -2.898438 L 12.101562 0.101562 C 12.101562 0.046875 12.058594 0 12 0 H 18 C 17.945312 0 17.898438 0.0429688 17.898438 0.101562 V -2.898438 C 17.898438 -2.953125 17.941406 -3 18 -3 H 24 C 24.054688 -3 24.101562 -2.957031 24.101562 -2.898438 V 0.101562 C 24.101562 0.046875 24.058594 0 24 0 H 30 C 29.945313 0 29.898438 0.0429688 29.898438 0.101562 V -2.898438 C 29.898438 -2.953125 29.941406 -3 30 -3 H 36 C 36.054688 -3 36.101562 -2.957031 36.101562 -2.898438 V 0.101562 C 36.101562 0.046875 36.058594 0 36 0 H 42 C 41.945312 0 41.898438 0.0429688 41.898438 0.101562 V -2.898438 C 41.898438 -2.953125 41.941406 -3 42 -3 H 48 C 48.054688 -3 48.101562 -2.957031 48.101562 -2.898438 V 0.101562 C 48.101562 0.046875 48.058594 0 48 0 H 54 C 53.945312 0 53.898438 0.0429688 53.898438 0.101562 V -2.898438 C 53.898438 -2.953125 53.941406 -3 54 -3 H 60 C 60.054688 -3 60.101562 -2.957031 60.101562 -2.898438 V 0.101562 C 60.101562 0.046875 60.058594 0 60 0 H 66 C 65.945312 0 65.898438 0.0429688 65.898438 0.101562 V -2.898438 C 65.898438 -2.953125 65.941406 -3 66 -3 H 72 C 72.054688 -3 72.101562 -2.957031 72.101562 -2.898438 V 0.101562 C 72.101562 0.046875 72.058594 0 72 0 H 78 C 77.945312 0 77.898438 0.0429688 77.898438 0.101562 V -2.898438 C 77.898438 -2.953125 77.941406 -3 78 -3 H 84 C 84.054688 -3 84.101562 -2.957031 84.101562 -2.898438 V 0.101562 C 84.101562 0.046875 84.058594 0 84 0 H 90 C 89.945312 0 89.898438 0.0429688 89.898438 0.101562 V -2.898438 C 89.898438 -2.953125 89.941406 -3 90 -3 H 96 C 96.054688 -3 96.101562 -2.957031 96.101562 -2.898438 V 0.101562 C 96.101562 0.046875 96.058594 0 96 0 H 102 C 101.945312 0 101.898438 0.0429688 101.898438 0.101562 V -2.898438 C 101.898438 -2.953125 101.941406 -3 102 -3 H 108 C 108.054688 -3 108.101562 -2.957031 108.101562 -2.898438 V 0.101562 C 108.101562 0.046875 108.058594 0 108 0 H 114 C 113.945312 0 113.898438 0.0429688 113.898438 0.101562 V -2.898438 C 113.898438 -2.953125 113.941406 -3 114 -3 H 120 C 120.054688 -3 120.101562 -2.957031 120.101562 -2.898438 V 0.101562 C 120.101562 0.046875 120.058594 0 120 0 H 126 C 125.945312 0 125.898438 0.0429688 125.898438 0.101562 V -2.898438 C 125.898438 -2.953125 125.941406 -3 126 -3 H 132 C 132.054688 -3 132.101562 -2.957031 132.101562 -2.898438 V 0.101562 C 132.101562 0.046875 132.058594 0 132 0 H 138 C 137.945312 0 137.898438 0.0429688 137.898438 0.101562 V -2.898438 C 137.898438 -2.953125 137.941406 -3 138 -3 H 144 C 144.054688 -3 144.101562 -2.957031 144.101562 -2.898438 V 0.101562 C 144.101562 0.046875 144.058594 0 144 0 H 150 C 149.945312 0 149.898438 0.0429688 149.898438 0.101562 V -2.898438 C 149.898438 -2.953125 149.941406 -3 150 -3 H 156 C 156.054688 -3 156.101562 -2.957031 156.101562 -2.898438 V 0.101562 C 156.101562 0.046875 156.058594 0 156 0 H 162 C 161.945312 0 161.898438 0.0429688 161.898438 0.101562 V -2.898438 C 161.898438 -2.953125 161.941406 -3 162 -3 H 168 C 168.054688 -3 168.101562 -2.957031 168.101562 -2.898438 V 0.101562 C 168.101562 0.046875 168.058594 0 168 0 H 174 C 173.945312 0 173.898438 0.0429688 173.898438 0.101562 V -2.898438 C 173.898438 -2.953125 173.941406 -3 174 -3 H 180 C 180.054688 -3 180.101562 -2.957031 180.101562 -2.898438 V 0.101562 C 180.101562 0.046875 180.058594 0 180 0 H 186 C 185.945312 0 185.898438 0.0429688 185.898438 0.101562 V -2.898438 C 185.898438 -2.953125 185.941406 -3 186 -3 H 192 C 192.054688 -3 192.101562 -2.957031 192.101562 -2.898438 V 0.101562 C 192.101562 0.046875 192.058594 0 192 0 H 198 C 197.945312 0 197.898438 0.0429688 197.898438 0.101562 V -2.898438 C 197.898438 -2.953125 197.941406 -3 198 -3 H 204 C 204.054688 -3 204.101562 -2.957031 204.101562 -2.898438 V 0.101562 C 204.101562 0.046875 204.058594 0 204 0 H 210 L 213 0 C 213.054688 0 213.101562 0.0429688 213.101562 0.101562 H 213.101562 V 11.351562 C 213.101562 11.40625 213.058594 11.453125 213 11.453125 H 210 C 210.054688 11.453125 210.101562 11.410156 210.101562 11.351562 V 17.351562 C 210.101562 17.296875 210.058594 17.25 210 17.25 H 213 C 213.054688 17.25 213.101562 17.292969 213.101562 17.351562 V 23.351562 C 213.101562 23.40625 213.058594 23.453125 213 23.453125 H 210 C 210.054688 23.453125 210.101562 23.410156 210.101562 23.351562 V 29.351562 C 210.101562 29.296875 210.058594 29.25 210 29.25 H 213 C 213.054688 29.25 213.101562 29.292969 213.101562 29.351562 V 35.351562 C 213.101562 35.40625 213.058594 35.453125 213 35.453125 H 210 C 210.054688 35.453125 210.101562 35.410156 210.101562 35.351562 V 41.351562 C 210.101562 41.296875 210.058594 41.25 210 41.25 H 213 C 213.054688 41.25 213.101562 41.292969 213.101562 41.351562 V 47.351562 C 213.101562 47.40625 213.058594 47.453125 213 47.453125 H 210 C 210.054688 47.453125 210.101562 47.410156 210.101562 47.351562 V 53.351562 C 210.101562 53.296875 210.058594 53.25 210 53.25 H 213 C 213.054688 53.25 213.101562 53.292969 213.101562 53.351562 V 59.351562 C 213.101562 59.40625 213.058594 59.453125 213 59.453125 H 210 C 210.054688 59.453125 210.101562 59.410156 210.101562 59.351562 V 65.351562 C 210.101562 65.296875 210.058594 65.25 210 65.25 H 213 C 213.054688 65.25 213.101562 65.292969 213.101562 65.351562 V 71.351562 C 213.101562 71.40625 213.058594 71.453125 213 71.453125 H 210 C 210.054688 71.453125 210.101562 71.410156 210.101562 71.351562 V 77.351562 C 210.101562 77.296875 210.058594 77.25 210 77.25 H 213 C 213.054687 77.25 213.101562 77.292969 213.101562 77.351562 V 88.601562 C 213.101562 88.65625 213.058594 88.703125 213 88.703125 H 210 L -0.00000000000002176 88.703125 H -3 C -3.054688 88.703125 -3.101563 88.660156 -3.101563 88.601562 H -3.101563 V 77.351562 C -3.101563 77.296875 -3.058594 77.25 -3 77.25 H -0.000000000000018652 C -0.0546875 77.25 -0.101563 77.292969 -0.101563 77.351562 V 71.351562 C -0.101563 71.40625 -0.0585938 71.453125 -0.000000000000017319 71.453125 H -3 C -3.054688 71.453125 -3.101563 71.410156 -3.101563 71.351562 V 65.351562 C -3.101563 65.296875 -3.058594 65.25 -3 65.25 H -0.000000000000015987 C -0.0546875 65.25 -0.101563 65.292969 -0.101563 65.351562 V 59.351562 C -0.101563 59.40625 -0.0585938 59.453125 -0.000000000000014655 59.453125 H -3 C -3.054688 59.453125 -3.101563 59.410156 -3.101563 59.351562 V 53.351562 C -3.101563 53.296875 -3.058594 53.25 -3 53.25 H -0.000000000000012879 C -0.0546875 53.25 -0.101563 53.292969 -0.101563 53.351562 V 47.351562 C -0.101563 47.40625 -0.0585938 47.453125 -0.000000000000011546 47.453125 H -3 C -3.054688 47.453125 -3.101563 47.410156 -3.101563 47.351562 V 41.351562 C -3.101563 41.296875 -3.058594 41.25 -3 41.25 H -0.000000000000010214 C -0.0546875 41.25 -0.101563 41.292969 -0.101563 41.351562 V 35.351562 C -0.101563 35.40625 -0.0585938 35.453125 -0.000000000000008438 35.453125 H -3 C -3.054688 35.453125 -3.101563 35.410156 -3.101563 35.351562 V 29.351562 C -3.101563 29.296875 -3.058594 29.25 -3 29.25 H -0.000000000000007105 C -0.0546875 29.25 -0.101563 29.292969 -0.101563 29.351562 V 23.351562 C -0.101563 23.40625 -0.0585938 23.453125 -0.000000000000005773 23.453125 H -3 C -3.054688 23.453125 -3.101563 23.410156 -3.101563 23.351562 V 17.351562 C -3.101563 17.296875 -3.058594 17.25 -3 17.25 H -0.000000000000003997 C -0.0546875 17.25 -0.101563 17.292969 -0.101563 17.351562 V 11.351562 C -0.101563 11.40625 -0.0585938 11.453125 -0.000000000000002665 11.453125 H -3 C -3.054688 11.453125 -3.101563 11.410156 -3.101563 11.351562 L -3.101562 0.101562 C -3.101562 0.046875 -3.058594 0 -3 0 H 0 " style="fill:none;stroke-width:0.2;stroke-linecap:butt;stroke-linejoin:miter;stroke:rgb(0%,0%,0%);stroke-opacity:1;stroke-miterlimit:10;" transform="matrix(1.0000,0.0000,0.0000,-1.0000,13.1055,280.3984)"/>
<path d="M 0 0 H 10.25 C 10.195312 0 10.148438 0.0429688 10.148438 0.101562 V -2.898438 C 10.148438 -2.953125 10.191406 -3 10.25 -3 H 16.25 C 16.304688 -3 16.351562 -2.957031 16.351562 -2.898438 V 0.101562 C 16.351562 0.046875 16.308594 0 16.25 0 H 22.25 C 22.195312 0 22.148438 0.0429688 22.148438 0.101562 V -2.898438 C 22.148438 -2.953125 22.191406 -3 22.25 -3 H 28.25 C 28.304688 -3 28.351562 -2.957031 28.351562 -2.898438 V 0.101562 C 28.351562 0.046875 28.308594 0 28.25 0 H 34.25 C 34.195312 0 34.148438 0.0429688 34.148438 0.101562 V -2.898438 C 34.148438 -2.953125 34.191406 -3 34.25 -3 H 40.25 C 40.304688 -3 40.351562 -2.957031 40.351562 -2.898438 V 0.101562 C 40.351562 0.046875 40.308594 0 40.25 0 H 46.25 C 46.195312 0 46.148438 0.0429688 46.148438 0.101562 V -2.898438 C 46.148438 -2.953125 46.191406 -3 46.25 -3 H 52.25 C 52.304688 -3 52.351562 -2.957031 52.351562 -2.898438 V 0.101562 C 52.351562 0.046875 52.308594 0 52.25 0 H 58.25 C 58.195312 0 58.148438 0.0429688 58.148438 0.101562 V -2.898438 C 58.148438 -2.953125 58.191406 -3 58.25 -3 H 64.25 C 64.304688 -3 64.351562 -2.957031 64.351562 -2.898438 V 0.101562 C 64.351562 0.046875 64.308594 0 64.25 0 H 74.5 C 74.554688 0 74.601562 0.0429688 74.601562 0.101562 H 74.601562 V 11.351562 C 74.601562 11.296875 74.558594 11.25 74.5 11.25 H 77.5 C 77.554688 11.25 77.601562 11.292969 77.601562 11.351562 V 17.351562 C 77.601562 17.40625 77.558594 17.453125 77.5 17.453125 H 74.5 C 74.554688 17.453125 74.601562 17.410156 74.601562 17.351562 V 23.351562 C 74.601562 23.296875 74.558594 23.25 74.5 23.25 H 77.5 C 77.554688 23.25 77.601562 23.292969 77.601562 23.351562 V 29.351562 C 77.601562 29.40625 77.558594 29.453125 77.5 29.453125 H 74.5 C 74.554688 29.453125 74.601562 29.410156 74.601562 29.351562 V 35.351562 C 74.601562 35.296875 74.558594 35.25 74.5 35.25 H 77.5 C 77.554688 35.25 77.601562 35.292969 77.601562 35.351562 V 41.351562 C 77.601562 41.40625 77.558594 41.453125 77.5 41.453125 H 74.5 C 74.554688 41.453125 74.601562 41.410156 74.601562 41.351562 V 47.351562 C 74.601562 47.296875 74.558594 47.25 74.5 47.25 H 77.5 C 77.554688 47.25 77.601562 47.292969 77.601562 47.351562 V 53.351562 C 77.601562 53.40625 77.558594 53.453125 77.5 53.453125 H 74.5 C 74.554688 53.453125 74.601562 53.410156 74.601562 53.351562 V 59.351562 C 74.601562 59.296875 74.558594 59.25 74.5 59.25 H 77.5 C 77.554688 59.25 77.601562 59.292969 77.601562 59.351562 V 65.351562 C 77.601562 65.40625 77.558594 65.453125 77.5 65.453125 H 74.5 C 74.554688 65.453125 74.601562 65.410156 74.601562 65.351562 V 71.351562 C 74.601562 71.296875 74.558594 71.25 74.5 71.25 H 77.5 C 77.554688 71.25 77.601562 71.292969 77.601562 71.351562 V 77.351562 C 77.601562 77.40625 77.558594 77.453125 77.5 77.453125 H 74.5 C 74.554688 77.453125 74.601562 77.410156 74.601562 77.351562 V 88.601562 C 74.601562 88.65625 74.558594 88.703125 74.5 88.703125 H 74.5 L -0.000000000000028422 88.703125 C -0.0546875 88.703125 -0.101563 88.660156 -0.101563 88.601562 H -0.101563 V 77.351562 C -0.101563 77.40625 -0.0585938 77.453125 -0.000000000000028422 77.453125 H -3 C -3.054688 77.453125 -3.101563 77.410156 -3.101563 77.351562 L -3.101562 71.351562 C -3.101562 71.296875 -3.058594 71.25 -3 71.25 H 0 C -0.0546875 71.25 -0.101562 71.292969 -0.101562 71.351562 V 65.351562 C -0.101562 65.40625 -0.0585938 65.453125 0 65.453125 H -3 C -3.054688 65.453125 -3.101562 65.410156 -3.101562 65.351562 V 59.351562 C -3.101562 59.296875 -3.058594 59.25 -3 59.25 H 0 C -0.0546875 59.25 -0.101562 59.292969 -0.101562 59.351562 V 53.351562 C -0.101562 53.40625 -0.0585938 53.453125 0 53.453125 H -3 C -3.054688 53.453125 -3.101562 53.410156 -3.101562 53.351562 V 47.351562 C -3.101562 47.296875 -3.058594 47.25 -3 47.25 H 0 C -0.0546875 47.25 -0.101562 47.292969 -0.101562 47.351562 V 41.351562 C -0.101562 41.40625 -0.0585938 41.453125 0 41.453125 H -3 C -3.054688 41.453125 -3.101562 41.410156 -3.101562 41.351562 V 35.351562 C -3.101562 35.296875 -3.058594 35.25 -3 35.25 H 0 C -0.0546875 35.25 -0.101562 35.292969 -0.101562 35.351562 V 29.351562 C -0.101562 29.40625 -0.0585938 29.453125 0 29.453125 H -3 C -3.054688 29.453125 -3.101562 29.410156 -3.101562 29.351562 V 23.351562 C -3.101562 23.296875 -3.058594 23.25 -3 23.25 H 0 C -0.0546875 23.25 -0.101562 23.292969 -0.101562 23.351562 V 17.351562 C -0.101562 17.40625 -0.0585938 17.453125 0 17.453125 H -3 C -3.054688 17.453125 -3.101562 17.410156 -3.101562 17.351562 V 11.351562 C -3.101562 11.296875 -3.058594 11.25 -3 11.25 H 0 C -0.0546875 11.25 -0.101562 11.292969 -0.101562 11.351562 V 0.101562 C -0.101562 0.046875 -0.0585938 0 0 0 H 0 " style="fill:none;stroke-width:0.2;stroke-linecap:butt;stroke-linejoin:miter;stroke:rgb(0%,0%,0%);stroke-opacity:1;stroke-miterlimit:10;" transform="matrix(1.0000,0.0000,0.0000,-1.0000,230.8047,280.3984)"/>
<path d="M 0 0 H 6 C 5.945312 0 5.898438 0.0429688 5.898438 0.101562 V -2.898438 C 5.898438 -2.953125 5.941406 -3 6 -3 H 12 C 12.054688 -3 12.101562 -2.957031 12.101562 -2.898438 V 0.101562 C 12.101562 0.046875 12.058594 0 12 0 H 18 C 17.945312 0 17.898438 0.0429688 17.898438 0.101562 V -2.898438 C 17.898438 -2.953125 17.941406 -3 18 -3 H 24 C 24.054688 -3 24.101562 -2.957031 24.101562 -2.898438 V 0.101562 C 24.101562 0.046875 24.058594 0 24 0 H 30 C 29.945312 0 29.898438 0.0429688 29.898438 0.101562 V -2.898438 C 29.898438 -2.953125 29.941406 -3 30 -3 H 36 C 36.054688 -3 36.101562 -2.957031 36.101562 -2.898438 V 0.101562 C 36.101562 0.046875 36.058594 0 36 0 H 42 C 41.945312 0 41.898438 0.0429688 41.898438 0.101562 V -2.898438 C 41.898438 -2.953125 41.941406 -3 42 -3 H 48 C 48.054688 -3 48.101562 -2.957031 48.101562 -2.898438 V 0.101562 C 48.101562 0.046875 48.058594 0 48 0 H 54 C 53.945312 0 53.898438 0.0429688 53.898438 0.101562 V -2.898438 C 53.898438 -2.953125 53.941406 -3 54 -3 H 60 C 60.054688 -3 60.101562 -2.957031 60.101562 -2.898438 V 0.101562 C 60.101562 0.046875 60.058594 0 60 0 H 66 C 65.945312 0 65.898438 0.0429688 65.898438 0.101562 V -2.898438 C 65.898438 -2.953125 65.941406 -3 66 -3 H 72 C 72.054688 -3 72.101562 -2.957031 72.101562 -2.898438 V 0.101562 C 72.101562 0.046875 72.058594 0 72 0 H 78 C 77.945312 0 77.898438 0.0429688 77.898438 0.101562 V -2.898438 C 77.898438 -2.953125 77.941406 -3 78 -3 H 84 C 84.054688 -3 84.101562 -2.957031 84.101562 -2.898438 V 0.101562 C 84.101562 0.046875 84.058594 0 84 0 H 90 C 89.945312 0 89.898438 0.0429688 89.898438 0.101562 V -2.898438 C 89.898438 -2.953125 89.941406 -3 90 -3 H 96 C 96.054688 -3 96.101562 -2.957031 96.101562 -2.898438 V 0.101562 C 96.101562 0.046875 96.058594 0 96 0 H 102 C 101.945312 0 101.898438 0.0429688 101.898438 0.101562 V -2.898438 C 101.898438 -2.953125 101.941406 -3 102 -3 H 108 C 108.054688 -3 108.101562 -2.957031 108.101562 -2.898438 V 0.101562 C 108.101562 0.046875 108.058594 0 108 0 H 114 C 113.945312 0 113.898438 0.0429688 113.898438 0.101562 V -2.898438 C 113.898438 -2.953125 113.941406 -3 114 -3 H 120 C 120.054688 -3 120.101562 -2.957031 120.101562 -2.898438 V 0.101562 C 120.101562 0.046875 120.058594 0 120 0 H 126 C 125.945312 0 125.898438 0.0429688 125.898438 0.101562 V -2.898438 C 125.898438 -2.953125 125.941406 -3 126 -3 H 132 C 132.054688 -3 132.101562 -2.957031 132.101562 -2.898438 V 0.101562 C 132.101562 0.046875 132.058594 0 132 0 H 138 C 137.945312 0 137.898438 0.0429688 137.898438 0.101562 V -2.898438 C 137.898438 -2.953125 137.941406 -3 138 -3 H 144 C 144.054688 -3 144.101562 -2.957031 144.101562 -2.898438 V 0.101562 C 144.101562 0.046875 144.058594 0 144 0 H 150 C 149.945312 0 149.898438 0.0429688 149.898438 0.101562 V -2.898438 C 149.898438 -2.953125 149.941406 -3 150 -3 H 156 C 156.054688 -3 156.101562 -2.957031 156.101562 -2.898438 V 0.101562 C 156.101562 0.046875 156.058594 0 156 0 H 162 C 161.945312 0 161.898438 0.0429688 161.898438 0.101562 V -2.898438 C 161.898438 -2.953125 161.941406 -3 162 -3 H 168 C 168.054688 -3 168.101562 -2.957031 168.101562 -2.898438 V 0.101562 C 168.101562 0.046875 168.058594 0 168 0 H 174 C 173.945312 0 173.898438 0.0429688 173.898438 0.101562 V -2.898438 C 173.898438 -2.953125 173.941406 -3 174 -3 H 180 C 180.054688 -3 180.101562 -2.957031 180.101562 -2.898438 V 0.101562 C 180.101562 0.046875 180.058594 0 180 0 H 186 C 185.945312 0 185.898438 0.0429688 185.898438 0.101562 V -2.898438 C 185.898438 -2.953125 185.941406 -3 186 -3 H 192 C 192.054688 -3 192.101562 -2.957031 192.101562 -2.898438 V 0.101562 C 192.101562 0.046875 192.058594 0 192 0 H 198 C 197.945312 0 197.898438 0.0429688 197.898438 0.101562 V -2.898438 C 197.898438 -2.953125 197.941406 -3 198 -3 H 204 C 204.054688 -3 204.101562 -2.957031 204.101562 -2.898438 V 0.101562 C 204.101562 0.046875 204.058594 0 204 0 H 210 L 213 0 C 213.054688 0 213.101563 0.0429688 213.101563 0.101562 H 213.101563 V 11.351562 C 213.101563 11.40625 213.058594 11.453125 213 11.453125 H 210 C 210.054688 11.453125 210.101563 11.410156 210.101563 11.351562 L 210.101562 17.351562 C 210.101562 17.296875 210.058594 17.25 210 17.25 H 213 C 213.054687 17.25 213.101562 17.292969 213.101562 17.351562 V 23.351562 C 213.101562 23.40625 213.058594 23.453125 213 23.453125 H 210 C 210.054687 23.453125 210.101562 23.410156 210.101562 23.351562 V 29.351562 C 210.101562 29.296875 210.058594 29.25 210 29.25 H 213 C 213.054687 29.25 213.101562 29.292969 213.101562 29.351562 V 35.351562 C 213.101562 35.40625 213.058594 35.453125 213 35.453125 H 210 C 210.054687 35.453125 210.101562 35.410156 210.101562 35.351562 V 41.351562 C 210.101562 41.296875 210.058594 41.25 210 41.25 H 213 C 213.054687 41.25 213.101562 41.292969 213.101562 41.351562 V 47.351562 C 213.101562 47.40625 213.058594 47.453125 213 47.453125 H 210 C 210.054687 47.453125 210.101562 47.410156 210.101562 47.351562 V 53.351562 C 210.101562 53.296875 210.058594 53.25 210 53.25 H 213 C 213.054687 53.25 213.101562 53.292969 213.101562 53.351562 V 59.351562 C 213.101562 59.40625 213.058594 59.453125 213 59.453125 H 210 C 210.054687 59.453125 210.101562 59.410156 210.101562 59.351562 V 65.351562 C 210.101562 65.296875 210.058594 65.25 210 65.25 H 213 C 213.054687 65.25 213.101562 65.292969 213.101562 65.351562 V 71.351562 C 213.101562 71.40625 213.058594 71.453125 213 71.453125 H 210 C 210.054687 71.453125 210.101562 71.410156 210.101562 71.351562 V 77.351562 C 210.101562 77.296875 210.058594 77.25 210 77.25 H 213 C 213.054687 77.25 213.101562 77.292969 213.101562 77.351562 V 88.601562 C 213.101562 88.65625 213.058594 88.703125 213 88.703125 H 210 L 0 88.703125 H -3 C -3.054688 88.703125 -3.101562 88.660156 -3.101562 88.601562 H -3.101562 V 77.351562 C -3.101562 77.296875 -3.058594 77.25 -3 77.25 H 0 C -0.0546875 77.25 -0.101562 77.292969 -0.101562 77.351562 V 71.351562 C -0.101562 71.40625 -0.0585938 71.453125 0 71.453125 H -3 C -3.054688 71.453125 -3.101562 71.410156 -3.101562 71.351562 V 65.351562 C -3.101562 65.296875 -3.058594 65.25 -3 65.25 H 0 C -0.0546875 65.25 -0.101562 65.292969 -0.101562 65.351562 V 59.351562 C -0.101562 59.40625 -0.0585938 59.453125 0 59.453125 H -3 C -3.054688 59.453125 -3.101562 59.410156 -3.101562 59.351562 V 53.351562 C -3.101562 53.296875 -3.058594 53.25 -3 53.25 H 0 C -0.0546875 53.25 -0.101562 53.292969 -0.101562 53.351562 V 47.351562 C -0.101562 47.40625 -0.0585938 47.453125 0 47.453125 H -3 C -3.054688 47.453125 -3.101562 47.410156 -3.101562 47.351562 V 41.351562 C -3.101562 41.296875 -3.058594 41.25 -3 41.25 H 0 C -0.0546875 41.25 -0.101562 41.292969 -0.101562 41.351562 V 35.351562 C -0.101562 35.40625 -0.0585938 35.453125 0 35.453125 H -3 C -3.054688 35.453125 -3.101562 35.410156 -3.101562 35.351562 V 29.351562 C -3.101562 29.296875 -3.058594 29.25 -3 29.25 H 0 C -0.0546875 29.25 -0.101562 29.292969 -0.101562 29.351562 V 23.351562 C -0.101562 23.40625 -0.0585938 23.453125 0 23.453125 H -3 C -3.054688 23.453125 -3.101562 23.410156 -3.101562 23.351562 V 17.351562 C -3.101562 17.296875 -3.058594 17.25 -3 17.25 H 0 C -0.0546875 17.25 -0.101562 17.292969 -0.101562 17.351562 V 11.351562 C -0.101562 11.40625 -0.0585938 11.453125 0 11.453125 H -3 C -3.054688 11.453125 -3.101562 11.410156 -3.101562 11.351562 V 0.101562 C -3.101562 0.046875 -3.058594 0 -3 0 H 0 " style="fill:none;stroke-width:0.2;stroke-linecap:butt;stroke-linejoin:miter;stroke:rgb(0%,0%,0%);stroke-opacity:1;stroke-miterlimit:10;" transform="matrix(1.0000,0.0000,0.0000,-1.0000,313.0039,280.3984)"/>
<path d="M 0 0 H 10.25 C 10.195312 0 10.148438 0.0429688 10.148438 0.101562 V -2.898438 C 10.148438 -2.953125 10.191406 -3 10.25 -3 H 16.25 C 16.304688 -3 16.351562 -2.957031 16.351562 -2.898438 V 0.101562 C 16.351562 0.046875 16.308594 0 16.25 0 H 22.25 C 22.195312 0 22.148438 0.0429688 22.148438 0.101562 V -2.898438 C 22.148438 -2.953125 22.191406 -3 22.25 -3 H 28.25 C 28.304688 -3 28.351562 -2.957031 28.351562 -2.898438 V 0.101562 C 28.351562 0.046875 28.308594 0 28.25 0 H 34.25 C 34.195312 0 34.148438 0.0429688 34.148438 0.101562 V -2.898438 C 34.148438 -2.953125 34.191406 -3 34.25 -3 H 40.25 C 40.304688 -3 40.351562 -2.957031 40.351562 -2.898438 V 0.101562 C 40.351562 0.046875 40.308594 0 40.25 0 H 46.25 C 46.195312 0 46.148438 0.0429688 46.148438 0.101562 V -2.898438 C 46.148438 -2.953125 46.191406 -3 46.25 -3 H 52.25 C 52.304688 -3 52.351562 -2.957031 52.351562 -2.898438 V 0.101562 C 52.351562 0.046875 52.308594 0 52.25 0 H 58.25 C 58.195312 0 58.148438 0.0429688 58.148438 0.101562 V -2.898438 C 58.148438 -2.953125 58.191406 -3 58.25 -3 H 64.25 C 64.304688 -3 64.351562 -2.957031 64.351562 -2.898438 V 0.101562 C 64.351562 0.046875 64.308594 0 64.25 0 H 74.5 C 74.554688 0 74.601562 0.0429688 74.601562 0.101562 H 74.601562 V 11.351562 C 74.601562 11.296875 74.558594 11.25 74.5 11.25 H 77.5 C 77.554688 11.25 77.601562 11.292969 77.601562 11.351562 V 17.351562 C 77.601562 17.40625 77.558594 17.453125 77.5 17.453125 H 74.5 C 74.554687 17.453125 74.601562 17.410156 74.601562 17.351562 V 23.351562 C 74.601562 23.296875 74.558594 23.25 74.5 23.25 H 77.5 C 77.554687 23.25 77.601562 23.292969 77.601562 23.351562 V 29.351562 C 77.601562 29.40625 77.558594 29.453125 77.5 29.453125 H 74.5 C 74.554687 29.453125 74.601562 29.410156 74.601562 29.351562 V 35.351562 C 74.601562 35.296875 74.558594 35.25 74.5 35.25 H 77.5 C 77.554687 35.25 77.601562 35.292969 77.601562 35.351562 V 41.351562 C 77.601562 41.40625 77.558594 41.453125 77.5 41.453125 H 74.5 C 74.554687 41.453125 74.601562 41.410156 74.601562 41.351562 V 47.351562 C 74.601562 47.296875 74.558594 47.25 74.5 47.25 H 77.5 C 77.554687 47.25 77.601562 47.292969 77.601562 47.351562 V 53.351562 C 77.601562 53.40625 77.558594 53.453125 77.5 53.453125 H 74.5 C 74.554687 53.453125 74.601562 53.410156 74.601562 53.351562 V 59.351562 C 74.601562 59.296875 74.558594 59.25 74.5 59.25 H 77.5 C 77.554687 59.25 77.601562 59.292969 77.601562 59.351562 V 65.351562 C 77.601562 65.40625 77.558594 65.453125 77.5 65.453125 H 74.5 C 74.554687 65.453125 74.601562 65.410156 74.601562 65.351562 V 71.351562 C 74.601562 71.296875 74.558594 71.25 74.5 71.25 H 77.5 C 77.554687 71.25 77.601562 71.292969 77.601562 71.351562 V 77.351562 C 77.601562 77.40625 77.558594 77.453125 77.5 77.453125 H 74.5 C 74.554687 77.453125 74.601562 77.410156 74.601562 77.351562 V 88.601562 C 74.601562 88.65625 74.558594 88.703125 74.5 88.703125 H 74.5 L -0.000000000000113687 88.703125 C -0.0546875 88.703125 -0.101563 88.660156 -0.101563 88.601562 H -0.101563 V 77.351562 C -0.101563 77.40625 -0.0585938 77.453125 -0.000000000000113687 77.453125 H -3 C -3.054688 77.453125 -3.101563 77.410156 -3.101563 77.351562 V 71.351562 C -3.101563 71.296875 -3.058594 71.25 -3 71.25 H -0.000000000000113687 C -0.0546875 71.25 -0.101563 71.292969 -0.101563 71.351562 V 65.351562 C -0.101563 65.40625 -0.0585938 65.453125 -0.000000000000113687 65.453125 H -3 C -3.054688 65.453125 -3.101563 65.410156 -3.101563 65.351562 V 59.351562 C -3.101563 59.296875 -3.058594 59.25 -3 59.25 H -0.000000000000113687 C -0.0546875 59.25 -0.101563 59.292969 -0.101563 59.351562 V 53.351562 C -0.101563 53.40625 -0.0585938 53.453125 -0.000000000000113687 53.453125 H -3 C -3.054688 53.453125 -3.101563 53.410156 -3.101563 53.351562 V 47.351562 C -3.101563 47.296875 -3.058594 47.25 -3 47.25 H -0.000000000000113687 C -0.0546875 47.25 -0.101563 47.292969 -0.101563 47.351562 V 41.351562 C -0.101563 41.40625 -0.0585938 41.453125 -0.000000000000113687 41.453125 H -3 C -3.054688 41.453125 -3.101563 41.410156 -3.101563 41.351562 V 35.351562 C -3.101563 35.296875 -3.058594 35.25 -3 35.25 H -0.000000000000113687 C -0.0546875 35.25 -0.101563 35.292969 -0.101563 35.351562 V 29.351562 C -0.101563 29.40625 -0.0585938 29.453125 -0.000000000000113687 29.453125 H -3 C -3.054688 29.453125 -3.101563 29.410156 -3.101563 29.351562 V 23.351562 C -3.101563 23.296875 -3.058594 23.25 -3 23.25 H -0.000000000000113687 C -0.0546875 23.25 -0.101563 23.292969 -0.101563 23.351562 V 17.351562 C -0.101563 17.40625 -0.0585938 17.453125 -0.000000000000113687 17.453125 H -3 C -3.054688 17.453125 -3.101563 17.410156 -3.101563 17.351562 L -3.101562 11.351562 C -3.101562 11.296875 -3.058594 11.25 -3 11.25 H 0 C -0.0546875 11.25 -0.101562 11.292969 -0.101562 11.351562 V 0.101562 C -0.101562 0.046875 -0.0585938 0 0 0 H 0 " style="fill:none;stroke-width:0.2;stroke-linecap:butt;stroke-linejoin:miter;stroke:rgb(0%,0%,0%);stroke-opacity:1;stroke-miterlimit:10;" transform="matrix(1.0000,0.0000,0.0000,-1.0000,530.7031,280.3984)"/>
<path d="M 0.00390625 0 H 9.152344 C 9.097656 0 9.050781 0.0429688 9.050781 0.101562 V -2.898438 C 9.050781 -2.953125 9.09375 -3 9.152344 -3 H 15.152344 C 15.207031 -3 15.253906 -2.957031 15.253906 -2.898438 V 0.101562 C 15.253906 0.046875 15.210938 0 15.152344 0 H 21.152344 C 21.097656 0 21.050781 0.0429688 21.050781 0.101562 V -2.898438 C 21.050781 -2.953125 21.09375 -3 21.152344 -3 H 27.152344 C 27.207031 -3 27.253906 -2.957031 27.253906 -2.898438 V 0.101562 C 27.253906 0.046875 27.210938 0 27.152344 0 H 33.152344 C 33.097656 0 33.050781 0.0429688 33.050781 0.101562 V -2.898438 C 33.050781 -2.953125 33.09375 -3 33.152344 -3 H 39.152344 C 39.207031 -3 39.253906 -2.957031 39.253906 -2.898438 V 0.101562 C 39.253906 0.046875 39.210938 0 39.152344 0 H 45.152344 C 45.097656 0 45.050781 0.0429688 45.050781 0.101562 V -2.898438 C 45.050781 -2.953125 45.09375 -3 45.152344 -3 H 51.152344 C 51.207031 -3 51.253906 -2.957031 51.253906 -2.898438 V 0.101562 C 51.253906 0.046875 51.210938 0 51.152344 0 H 57.152344 C 57.097656 0 57.050781 0.0429688 57.050781 0.101562 V -2.898438 C 57.050781 -2.953125 57.09375 -3 57.152344 -3 H 63.152344 C 63.207031 -3 63.253906 -2.957031 63.253906 -2.898438 V 0.101562 C 63.253906 0.046875 63.210938 0 63.152344 0 H 69.152344 C 69.097656 0 69.050781 0.0429688 69.050781 0.101562 V -2.898438 C 69.050781 -2.953125 69.09375 -3 69.152344 -3 H 75.152344 C 75.207031 -3 75.253906 -2.957031 75.253906 -2.898438 V 0.101562 C 75.253906 0.046875 75.210938 0 75.152344 0 H 81.152344 C 81.097656 0 81.050781 0.0429688 81.050781 0.101562 V -2.898438 C 81.050781 -2.953125 81.09375 -3 81.152344 -3 H 87.152344 C 87.207031 -3 87.253906 -2.957031 87.253906 -2.898438 V 0.101562 C 87.253906 0.046875 87.210938 0 87.152344 0 H 93.152344 C 93.097656 0 93.050781 0.0429688 93.050781 0.101562 V -2.898438 C 93.050781 -2.953125 93.09375 -3 93.152344 -3 H 99.152344 C 99.207031 -3 99.253906 -2.957031 99.253906 -2.898438 V 0.101562 C 99.253906 0.046875 99.210938 0 99.152344 0 H 105.152344 C 105.097656 0 105.050781 0.0429688 105.050781 0.101562 V -2.898438 C 105.050781 -2.953125 105.09375 -3 105.152344 -3 H 111.152344 C 111.207031 -3 111.253906 -2.957031 111.253906 -2.898438 V 0.101562 C 111.253906 0.046875 111.210938 0 111.152344 0 H 117.152344 C 117.097656 0 117.050781 0.0429688 117.050781 0.101562 V -2.898438 C 117.050781 -2.953125 117.09375 -3 117.152344 -3 H 123.152344 C 123.207031 -3 123.253906 -2.957031 123.253906 -2.898438 V 0.101562 C 123.253906 0.046875 123.210938 0 123.152344 0 H 129.152344 C 129.097656 0 129.050781 0.0429688 129.050781 0.101562 V -2.898438 C 129.050781 -2.953125 129.09375 -3 129.152344 -3 H 135.152344 C 135.207031 -3 135.253906 -2.957031 135.253906 -2.898438 V 0.101562 C 135.253906 0.046875 135.210938 0 135.152344 0 H 141.152344 C 141.097656 0 141.050781 0.0429688 141.050781 0.101562 V -2.898438 C 141.050781 -2.953125 141.09375 -3 141.152344 -3 H 147.152344 C 147.207031 -3 147.253906 -2.957031 147.253906 -2.898438 V 0.101562 C 147.253906 0.046875 147.210938 0 147.152344 0 H 153.152344 C 153.097656 0 153.050781 0.0429688 153.050781 0.101562 V -2.898438 C 153.050781 -2.953125 153.09375 -3 153.152344 -3 H 159.152344 C 159.207031 -3 159.253906 -2.957031 159.253906 -2.898438 V 0.101562 C 159.253906 0.046875 159.210938 0 159.152344 0 H 165.152344 C 165.097656 0 165.050781 0.0429688 165.050781 0.101562 V -2.898438 C 165.050781 -2.953125 165.09375 -3 165.152344 -3 H 171.152344 C 171.207031 -3 171.253906 -2.957031 171.253906 -2.898438 V 0.101562 C 171.253906 0.046875 171.210938 0 171.152344 0 H 177.152344 C 177.097656 0 177.050781 0.0429688 177.050781 0.101562 V -2.898438 C 177.050781 -2.953125 177.09375 -3 177.152344 -3 H 183.152344 C 183.207031 -3 183.253906 -2.957031 183.253906 -2.898438 V 0.101562 C 183.253906 0.046875 183.210938 0 183.152344 0 H 189.152344 C 189.097656 0 189.050781 0.0429688 189.050781 0.101562 V -2.898438 C 189.050781 -2.953125 189.09375 -3 189.152344 -3 H 195.152344 C 195.207031 -3 195.253906 -2.957031 195.253906 -2.898438 V 0.101562 C 195.253906 0.046875 195.210938 0 195.152344 0 H 201.152344 C 201.097656 0 201.050781 0.0429688 201.050781 0.101562 V -2.898438 C 201.050781 -2.953125 201.09375 -3 201.152344 -3 H 207.152344 C 207.207031 -3 207.253906 -2.957031 207.253906 -2.898438 V 0.101562 C 207.253906 0.046875 207.210938 0 207.152344 0 H 216.300781 L 219.300781 0 C 219.355469 0 219.402344 0.0429688 219.402344 0.101562 H 219.402344 V 11.351562 C 219.402344 11.40625 219.359375 11.453125 219.300781 11.453125 H 216.300781 C 216.355469 11.453125 216.402344 11.410156 216.402344 11.351562 V 17.351562 C 216.402344 17.296875 216.359375 17.25 216.300781 17.25 H 219.300781 C 219.355469 17.25 219.402344 17.292969 219.402344 17.351562 V 23.351562 C 219.402344 23.40625 219.359375 23.453125 219.300781 23.453125 H 216.300781 C 216.355469 23.453125 216.402344 23.410156 216.402344 23.351562 V 29.351562 C 216.402344 29.296875 216.359375 29.25 216.300781 29.25 H 219.300781 C 219.355469 29.25 219.402344 29.292969 219.402344 29.351562 V 35.351562 C 219.402344 35.40625 219.359375 35.453125 219.300781 35.453125 H 216.300781 C 216.355469 35.453125 216.402344 35.410156 216.402344 35.351562 V 41.351562 C 216.402344 41.296875 216.359375 41.25 216.300781 41.25 H 219.300781 C 219.355469 41.25 219.402344 41.292969 219.402344 41.351562 V 47.351562 C 219.402344 47.40625 219.359375 47.453125 219.300781 47.453125 H 216.300781 C 216.355469 47.453125 216.402344 47.410156 216.402344 47.351562 V 53.351562 C 216.402344 53.296875 216.359375 53.25 216.300781 53.25 H 219.300781 C 219.355469 53.25 219.402344 53.292969 219.402344 53.351562 V 59.351562 C 219.402344 59.40625 219.359375 59.453125 219.300781 59.453125 H 216.300781 C 216.355469 59.453125 216.402344 59.410156 216.402344 59.351562 V 65.351562 C 216.402344 65.296875 216.359375 65.25 216.300781 65.25 H 219.300781 C 219.355469 65.25 219.402344 65.292969 219.402344 65.351562 V 71.351562 C 219.402344 71.40625 219.359375 71.453125 219.300781 71.453125 H 216.300781 C 216.355469 71.453125 216.402344 71.410156 216.402344 71.351562 V 77.351562 C 216.402344 77.296875 216.359375 77.25 216.300781 77.25 H 219.300781 C 219.355469 77.25 219.402344 77.292969 219.402344 77.351562 V 88.601562 C 219.402344 88.65625 219.359375 88.703125 219.300781 88.703125 H 216.300781 L -0.00000000000002176 88.703125 H -3 C -3.054688 88.703125 -3.101563 88.660156 -3.101563 88.601562 H -3.101563 V 77.351562 C -3.101563 77.296875 -3.058594 77.25 -3 77.25 H -0.000000000000019096 C -0.0546875 77.25 -0.101563 77.292969 -0.101563 77.351562 V 71.351562 C -0.101563 71.40625 -0.0585938 71.453125 -0.000000000000017764 71.453125 H -3 C -3.054688 71.453125 -3.101563 71.410156 -3.101563 71.351562 V 65.351562 C -3.101563 65.296875 -3.058594 65.25 -3 65.25 H -0.000000000000015987 C -0.0546875 65.25 -0.101563 65.292969 -0.101563 65.351562 V 59.351562 C -0.101563 59.40625 -0.0585938 59.453125 -0.000000000000014655 59.453125 H -3 C -3.054688 59.453125 -3.101563 59.410156 -3.101563 59.351562 V 53.351562 C -3.101563 53.296875 -3.058594 53.25 -3 53.25 H -0.000000000000013323 C -0.0546875 53.25 -0.101563 53.292969 -0.101563 53.351562 V 47.351562 C -0.101563 47.40625 -0.0585938 47.453125 -0.000000000000011546 47.453125 H -3 C -3.054688 47.453125 -3.101563 47.410156 -3.101563 47.351562 V 41.351562 C -3.101563 41.296875 -3.058594 41.25 -3 41.25 H -0.000000000000010214 C -0.0546875 41.25 -0.101563 41.292969 -0.101563 41.351562 V 35.351562 C -0.101563 35.40625 -0.0585938 35.453125 -0.000000000000008882 35.453125 H -3 C -3.054688 35.453125 -3.101563 35.410156 -3.101563 35.351562 V 29.351562 C -3.101563 29.296875 -3.058594 29.25 -3 29.25 H -0.000000000000007105 C -0.0546875 29.25 -0.101563 29.292969 -0.101563 29.351562 V 23.351562 C -0.101563 23.40625 -0.0585938 23.453125 -0.000000000000005773 23.453125 H -3 C -3.054688 23.453125 -3.101563 23.410156 -3.101563 23.351562 V 17.351562 C -3.101563 17.296875 -3.058594 17.25 -3 17.25 H -0.000000000000004441 C -0.0546875 17.25 -0.101563 17.292969 -0.101563 17.351562 V 11.351562 C -0.101563 11.40625 -0.0585938 11.453125 -0.000000000000003109 11.453125 H -3 C -3.054688 11.453125 -3.101563 11.410156 -3.101563 11.351562 L -3.101562 0.101562 C -3.101562 0.046875 -3.058594 0 -3 0 H 0 " style="fill:none;stroke-width:0.2;stroke-linecap:butt;stroke-linejoin:miter;stroke:rgb(0%,0%,0%);stroke-opacity:1;stroke-miterlimit:10;" transform="matrix(1.0000,0.0000,0.0000,-1.0000,13.1016,187.1992)"/>
<path d="M 0.00390625 0 H 7.402344 C 7.347656 0 7.300781 0.0429688 7.300781 0.101562 V -2.898438 C 7.300781 -2.953125 7.34375 -3 7.402344 -3 H 13.402344 C 13.457031 -3 13.503906 -2.957031 13.503906 -2.898438 V 0.101562 C 13.503906 0.046875 13.460938 0 13.402344 0 H 19.402344 C 19.347656 0 19.300781 0.0429688 19.300781 0.101562 V -2.898438 C 19.300781 -2.953125 19.34375 -3 19.402344 -3 H 25.402344 C 25.457031 -3 25.503906 -2.957031 25.503906 -2.898438 V 0.101562 C 25.503906 0.046875 25.460938 0 25.402344 0 H 31.402344 C 31.347656 0 31.300781 0.0429688 31.300781 0.101562 V -2.898438 C 31.300781 -2.953125 31.34375 -3 31.402344 -3 H 37.402344 C 37.457031 -3 37.503906 -2.957031 37.503906 -2.898438 V 0.101562 C 37.503906 0.046875 37.460938 0 37.402344 0 H 43.402344 C 43.347656 0 43.300781 0.0429688 43.300781 0.101562 V -2.898438 C 43.300781 -2.953125 43.34375 -3 43.402344 -3 H 49.402344 C 49.457031 -3 49.503906 -2.957031 49.503906 -2.898438 V 0.101562 C 49.503906 0.046875 49.460938 0 49.402344 0 H 55.402344 C 55.347656 0 55.300781 0.0429688 55.300781 0.101562 V -2.898438 C 55.300781 -2.953125 55.34375 -3 55.402344 -3 H 61.402344 C 61.457031 -3 61.503906 -2.957031 61.503906 -2.898438 V 0.101562 C 61.503906 0.046875 61.460938 0 61.402344 0 H 67.402344 C 67.347656 0 67.300781 0.0429688 67.300781 0.101562 V -2.898438 C 67.300781 -2.953125 67.34375 -3 67.402344 -3 H 73.402344 C 73.457031 -3 73.503906 -2.957031 73.503906 -2.898438 V 0.101562 C 73.503906 0.046875 73.460938 0 73.402344 0 H 80.800781 C 80.855469 0 80.902344 0.0429688 80.902344 0.101562 H 80.902344 V 11.351562 C 80.902344 11.296875 80.859375 11.25 80.800781 11.25 H 83.800781 C 83.855469 11.25 83.902344 11.292969 83.902344 11.351562 V 17.351562 C 83.902344 17.40625 83.859375 17.453125 83.800781 17.453125 H 80.800781 C 80.855469 17.453125 80.902344 17.410156 80.902344 17.351562 V 23.351562 C 80.902344 23.296875 80.859375 23.25 80.800781 23.25 H 83.800781 C 83.855469 23.25 83.902344 23.292969 83.902344 23.351562 V 29.351562 C 83.902344 29.40625 83.859375 29.453125 83.800781 29.453125 H 80.800781 C 80.855469 29.453125 80.902344 29.410156 80.902344 29.351562 V 35.351562 C 80.902344 35.296875 80.859375 35.25 80.800781 35.25 H 83.800781 C 83.855469 35.25 83.902344 35.292969 83.902344 35.351562 V 41.351562 C 83.902344 41.40625 83.859375 41.453125 83.800781 41.453125 H 80.800781 C 80.855469 41.453125 80.902344 41.410156 80.902344 41.351562 V 47.351562 C 80.902344 47.296875 80.859375 47.25 80.800781 47.25 H 83.800781 C 83.855469 47.25 83.902344 47.292969 83.902344 47.351562 V 53.351562 C 83.902344 53.40625 83.859375 53.453125 83.800781 53.453125 H 80.800781 C 80.855469 53.453125 80.902344 53.410156 80.902344 53.351562 V 59.351562 C 80.902344 59.296875 80.859375 59.25 80.800781 59.25 H 83.800781 C 83.855469 59.25 83.902344 59.292969 83.902344 59.351562 V 65.351562 C 83.902344 65.40625 83.859375 65.453125 83.800781 65.453125 H 80.800781 C 80.855469 65.453125 80.902344 65.410156 80.902344 65.351562 V 71.351562 C 80.902344 71.296875 80.859375 71.25 80.800781 71.25 H 83.800781 C 83.855469 71.25 83.902344 71.292969 83.902344 71.351562 V 77.351562 C 83.902344 77.40625 83.859375 77.453125 83.800781 77.453125 H 80.800781 C 80.855469 77.453125 80.902344 77.410156 80.902344 77.351562 V 88.601562 C 80.902344 88.65625 80.859375 88.703125 80.800781 88.703125 H 80.800781 L 0 88.703125 C -0.0546875 88.703125 -0.101562 88.660156 -0.101562 88.601562 H -0.101562 V 77.351562 C -0.101562 77.40625 -0.0585938 77.453125 0 77.453125 H -3 C -3.054688 77.453125 -3.101562 77.410156 -3.101562 77.351562 V 71.351562 C -3.101562 71.296875 -3.058594 71.25 -3 71.25 H 0 C -0.0546875 71.25 -0.101562 71.292969 -0.101562 71.351562 V 65.351562 C -0.101562 65.40625 -0.0585938 65.453125 0 65.453125 H -3 C -3.054688 65.453125 -3.101562 65.410156 -3.101562 65.351562 V 59.351562 C -3.101562 59.296875 -3.058594 59.25 -3 59.25 H 0 C -0.0546875 59.25 -0.101562 59.292969 -0.101562 59.351562 V 53.351562 C -0.101562 53.40625 -0.0585938 53.453125 0 53.453125 H -3 C -3.054688 53.453125 -3.101562 53.410156 -3.101562 53.351562 V 47.351562 C -3.101562 47.296875 -3.058594 47.25 -3 47.25 H 0 C -0.0546875 47.25 -0.101562 47.292969 -0.101562 47.351562 V 41.351562 C -0.101562 41.40625 -0.0585938 41.453125 0 41.453125 H -3 C -3.054688 41.453125 -3.101562 41.410156 -3.101562 41.351562 V 35.351562 C -3.101562 35.296875 -3.058594 35.25 -3 35.25 H 0 C -0.0546875 35.25 -0.101562 35.292969 -0.101562 35.351562 V 29.351562 C -0.101562 29.40625 -0.0585938 29.453125 0 29.453125 H -3 C -3.054688 29.453125 -3.101562 29.410156 -3.101562 29.351562 V 23.351562 C -3.101562 23.296875 -3.058594 23.25 -3 23.25 H 0 C -0.0546875 23.25 -0.101562 23.292969 -0.101562 23.351562 V 17.351562 C -0.101562 17.40625 -0.0585938 17.453125 0 17.453125 H -3 C -3.054688 17.453125 -3.101562 17.410156 -3.101562 17.351562 V 11.351562 C -3.101562 11.296875 -3.058594 11.25 -3 11.25 H 0 C -0.0546875 11.25 -0.101562 11.292969 -0.101562 11.351562 V 0.101562 C -0.101562 0.046875 -0.0585938 0 0 0 H 0 " style="fill:none;stroke-width:0.2;stroke-linecap:butt;stroke-linejoin:miter;stroke:rgb(0%,0%,0%);stroke-opacity:1;stroke-miterlimit:10;" transform="matrix(1.0000,0.0000,0.0000,-1.0000,237.1016,187.1992)"/>
<path d="M 0.00390625 0 H 9.152344 C 9.097656 0 9.050781 0.0429688 9.050781 0.101562 V -2.898438 C 9.050781 -2.953125 9.09375 -3 9.152344 -3 H 15.152344 C 15.207031 -3 15.253906 -2.957031 15.253906 -2.898438 V 0.101562 C 15.253906 0.046875 15.210938 0 15.152344 0 H 21.152344 C 21.097656 0 21.050781 0.0429688 21.050781 0.101562 V -2.898438 C 21.050781 -2.953125 21.09375 -3 21.152344 -3 H 27.152344 C 27.207031 -3 27.253906 -2.957031 27.253906 -2.898438 V 0.101562 C 27.253906 0.046875 27.210938 0 27.152344 0 H 33.152344 C 33.097656 0 33.050781 0.0429688 33.050781 0.101562 V -2.898438 C 33.050781 -2.953125 33.09375 -3 33.152344 -3 H 39.152344 C 39.207031 -3 39.253906 -2.957031 39.253906 -2.898438 V 0.101562 C 39.253906 0.046875 39.210938 0 39.152344 0 H 45.152344 C 45.097656 0 45.050781 0.0429688 45.050781 0.101562 V -2.898438 C 45.050781 -2.953125 45.09375 -3 45.152344 -3 H 51.152344 C 51.207031 -3 51.253906 -2.957031 51.253906 -2.898438 V 0.101562 C 51.253906 0.046875 51.210938 0 51.152344 0 H 57.152344 C 57.097656 0 57.050781 0.0429688 57.050781 0.101562 V -2.898438 C 57.050781 -2.953125 57.09375 -3 57.152344 -3 H 63.152344 C 63.207031 -3 63.253906 -2.957031 63.253906 -2.898438 V 0.101562 C 63.253906 0.046875 63.210938 0 63.152344 0 H 69.152344 C 69.097656 0 69.050781 0.0429688 69.050781 0.101562 V -2.898438 C 69.050781 -2.953125 69.09375 -3 69.152344 -3 H 75.152344 C 75.207031 -3 75.253906 -2.957031 75.253906 -2.898438 V 0.101562 C 75.253906 0.046875 75.210938 0 75.152344 0 H 81.152344 C 81.097656 0 81.050781 0.0429688 81.050781 0.101562 V -2.898438 C 81.050781 -2.953125 81.09375 -3 81.152344 -3 H 87.152344 C 87.207031 -3 87.253906 -2.957031 87.253906 -2.898438 V 0.101562 C 87.253906 0.046875 87.210938 0 87.152344 0 H 93.152344 C 93.097656 0 93.050781 0.0429688 93.050781 0.101562 V -2.898438 C 93.050781 -2.953125 93.09375 -3 93.152344 -3 H 99.152344 C 99.207031 -3 99.253906 -2.957031 99.253906 -2.898438 V 0.101562 C 99.253906 0.046875 99.210938 0 99.152344 0 H 105.152344 C 105.097656 0 105.050781 0.0429688 105.050781 0.101562 V -2.898438 C 105.050781 -2.953125 105.09375 -3 105.152344 -3 H 111.152344 C 111.207031 -3 111.253906 -2.957031 111.253906 -2.898438 V 0.101562 C 111.253906 0.046875 111.210938 0 111.152344 0 H 117.152344 C 117.097656 0 117.050781 0.0429688 117.050781 0.101562 V -2.898438 C 117.050781 -2.953125 117.09375 -3 117.152344 -3 H 123.152344 C 123.207031 -3 123.253906 -2.957031 123.253906 -2.898438 V 0.101562 C 123.253906 0.046875 123.210938 0 123.152344 0 H 129.152344 C 129.097656 0 129.050781 0.0429688 129.050781 0.101562 V -2.898438 C 129.050781 -2.953125 129.09375 -3 129.152344 -3 H 135.152344 C 135.207031 -3 135.253906 -2.957031 135.253906 -2.898438 V 0.101562 C 135.253906 0.046875 135.210938 0 135.152344 0 H 141.152344 C 141.097656 0 141.050781 0.0429688 141.050781 0.101562 V -2.898438 C 141.050781 -2.953125 141.09375 -3 141.152344 -3 H 147.152344 C 147.207031 -3 147.253906 -2.957031 147.253906 -2.898438 V 0.101562 C 147.253906 0.046875 147.210938 0 147.152344 0 H 153.152344 C 153.097656 0 153.050781 0.0429688 153.050781 0.101562 V -2.898438 C 153.050781 -2.953125 153.09375 -3 153.152344 -3 H 159.152344 C 159.207031 -3 159.253906 -2.957031 159.253906 -2.898438 V 0.101562 C 159.253906 0.046875 159.210938 0 159.152344 0 H 165.152344 C 165.097656 0 165.050781 0.0429688 165.050781 0.101562 V -2.898438 C 165.050781 -2.953125 165.09375 -3 165.152344 -3 H 171.152344 C 171.207031 -3 171.253906 -2.957031 171.253906 -2.898438 V 0.101562 C 171.253906 0.046875 171.210938 0 171.152344 0 H 177.152344 C 177.097656 0 177.050781 0.0429688 177.050781 0.101562 V -2.898438 C 177.050781 -2.953125 177.09375 -3 177.152344 -3 H 183.152344 C 183.207031 -3 183.253906 -2.957031 183.253906 -2.898438 V 0.101562 C 183.253906 0.046875 183.210938 0 183.152344 0 H 189.152344 C 189.097656 0 189.050781 0.0429688 189.050781 0.101562 V -2.898438 C 189.050781 -2.953125 189.09375 -3 189.152344 -3 H 195.152344 C 195.207031 -3 195.253906 -2.957031 195.253906 -2.898438 V 0.101562 C 195.253906 0.046875 195.210938 0 195.152344 0 H 201.152344 C 201.097656 0 201.050781 0.0429688 201.050781 0.101562 V -2.898438 C 201.050781 -2.953125 201.09375 -3 201.152344 -3 H 207.152344 C 207.207031 -3 207.253906 -2.957031 207.253906 -2.898438 V 0.101562 C 207.253906 0.046875 207.210937 0 207.152344 0 H 216.300781 L 219.300781 0 C 219.355469 0 219.402344 0.0429688 219.402344 0.101562 H 219.402344 V 11.351562 C 219.402344 11.40625 219.359375 11.453125 219.300781 11.453125 H 216.300781 C 216.355469 11.453125 216.402344 11.410156 216.402344 11.351562 V 17.351562 C 216.402344 17.296875 216.359375 17.25 216.300781 17.25 H 219.300781 C 219.355469 17.25 219.402344 17.292969 219.402344 17.351562 V 23.351562 C 219.402344 23.40625 219.359375 23.453125 219.300781 23.453125 H 216.300781 C 216.355469 23.453125 216.402344 23.410156 216.402344 23.351562 V 29.351562 C 216.402344 29.296875 216.359375 29.25 216.300781 29.25 H 219.300781 C 219.355469 29.25 219.402344 29.292969 219.402344 29.351562 V 35.351562 C 219.402344 35.40625 219.359375 35.453125 219.300781 35.453125 H 216.300781 C 216.355469 35.453125 216.402344 35.410156 216.402344 35.351562 V 41.351562 C 216.402344 41.296875 216.359375 41.25 216.300781 41.25 H 219.300781 C 219.355469 41.25 219.402344 41.292969 219.402344 41.351562 V 47.351562 C 219.402344 47.40625 219.359375 47.453125 219.300781 47.453125 H 216.300781 C 216.355469 47.453125 216.402344 47.410156 216.402344 47.351562 V 53.351562 C 216.402344 53.296875 216.359375 53.25 216.300781 53.25 H 219.300781 C 219.355469 53.25 219.402344 53.292969 219.402344 53.351562 V 59.351562 C 219.402344 59.40625 219.359375 59.453125 219.300781 59.453125 H 216.300781 C 216.355469 59.453125 216.402344 59.410156 216.402344 59.351562 V 65.351562 C 216.402344 65.296875 216.359375 65.25 216.300781 65.25 H 219.300781 C 219.355469 65.25 219.402344 65.292969 219.402344 65.351562 V 71.351562 C 219.402344 71.40625 219.359375 71.453125 219.300781 71.453125 H 216.300781 C 216.355469 71.453125 216.402344 71.410156 216.402344 71.351562 V 77.351562 C 216.402344 77.296875 216.359375 77.25 216.300781 77.25 H 219.300781 C 219.355469 77.25 219.402344 77.292969 219.402344 77.351562 V 88.601562 C 219.402344 88.65625 219.359375 88.703125 219.300781 88.703125 H 216.300781 L -0.000000000000056843 88.703125 H -3 C -3.054688 88.703125 -3.101563 88.660156 -3.101563 88.601562 H -3.101563 V 77.351562 C -3.101563 77.296875 -3.058594 77.25 -3 77.25 H -0.000000000000056843 C -0.0546875 77.25 -0.101563 77.292969 -0.101563 77.351562 V 71.351562 C -0.101563 71.40625 -0.0585938 71.453125 -0.000000000000056843 71.453125 H -3 C -3.054688 71.453125 -3.101563 71.410156 -3.101563 71.351562 V 65.351562 C -3.101563 65.296875 -3.058594 65.25 -3 65.25 H -0.000000000000056843 C -0.0546875 65.25 -0.101563 65.292969 -0.101563 65.351562 V 59.351562 C -0.101563 59.40625 -0.0585938 59.453125 -0.000000000000056843 59.453125 H -3 C -3.054688 59.453125 -3.101563 59.410156 -3.101563 59.351562 V 53.351562 C -3.101563 53.296875 -3.058594 53.25 -3 53.25 H -0.000000000000056843 C -0.0546875 53.25 -0.101563 53.292969 -0.101563 53.351562 V 47.351562 C -0.101563 47.40625 -0.0585938 47.453125 -0.000000000000056843 47.453125 H -3 C -3.054688 47.453125 -3.101563 47.410156 -3.101563 47.351562 V 41.351562 C -3.101563 41.296875 -3.058594 41.25 -3 41.25 H -0.000000000000056843 C -0.0546875 41.25 -0.101563 41.292969 -0.101563 41.351562 L -0.101562 35.351562 C -0.101562 35.40625 -0.0585938 35.453125 0 35.453125 H -3 C -3.054688 35.453125 -3.101562 35.410156 -3.101562 35.351562 V 29.351562 C -3.101562 29.296875 -3.058594 29.25 -3 29.25 H 0 C -0.0546875 29.25 -0.101562 29.292969 -0.101562 29.351562 V 23.351562 C -0.101562 23.40625 -0.0585938 23.453125 0 23.453125 H -3 C -3.054688 23.453125 -3.101562 23.410156 -3.101562 23.351562 V 17.351562 C -3.101562 17.296875 -3.058594 17.25 -3 17.25 H 0 C -0.0546875 17.25 -0.101562 17.292969 -0.101562 17.351562 V 11.351562 C -0.101562 11.40625 -0.0585938 11.453125 0 11.453125 H -3 C -3.054688 11.453125 -3.101562 11.410156 -3.101562 11.351562 V 0.101562 C -3.101562 0.046875 -3.058594 0 -3 0 H 0 " style="fill:none;stroke-width:0.2;stroke-linecap:butt;stroke-linejoin:miter;stroke:rgb(0%,0%,0%);stroke-opacity:1;stroke-miterlimit:10;" transform="matrix(1.0000,0.0000,0.0000,-1.0000,325.6016,187.1992)"/>
<path d="M 0.00390625 0 H 7.402344 C 7.347656 0 7.300781 0.0429688 7.300781 0.101562 V -2.898438 C 7.300781 -2.953125 7.34375 -3 7.402344 -3 H 13.402344 C 13.457031 -3 13.503906 -2.957031 13.503906 -2.898438 V 0.101562 C 13.503906 0.046875 13.460938 0 13.402344 0 H 19.402344 C 19.347656 0 19.300781 0.0429688 19.300781 0.101562 V -2.898438 C 19.300781 -2.953125 19.34375 -3 19.402344 -3 H 25.402344 C 25.457031 -3 25.503906 -2.957031 25.503906 -2.898438 V 0.101562 C 25.503906 0.046875 25.460938 0 25.402344 0 H 31.402344 C 31.347656 0 31.300781 0.0429688 31.300781 0.101562 V -2.898438 C 31.300781 -2.953125 31.34375 -3 31.402344 -3 H 37.402344 C 37.457031 -3 37.503906 -2.957031 37.503906 -2.898438 V 0.101562 C 37.503906 0.046875 37.460938 0 37.402344 0 H 43.402344 C 43.347656 0 43.300781 0.0429688 43.300781 0.101562 V -2.898438 C 43.300781 -2.953125 43.34375 -3 43.402344 -3 H 49.402344 C 49.457031 -3 49.503906 -2.957031 49.503906 -2.898438 V 0.101562 C 49.503906 0.046875 49.460938 0 49.402344 0 H 55.402344 C 55.347656 0 55.300781 0.0429688 55.300781 0.101562 V -2.898438 C 55.300781 -2.953125 55.34375 -3 55.402344 -3 H 61.402344 C 61.457031 -3 61.503906 -2.957031 61.503906 -2.898438 V 0.101562 C 61.503906 0.046875 61.460938 0 61.402344 0 H 67.402344 C 67.347656 0 67.300781 0.0429688 67.300781 0.101562 V -2.898438 C 67.300781 -2.953125 67.34375 -3 67.402344 -3 H 73.402344 C 73.457031 -3 73.503906 -2.957031 73.503906 -2.898438 V 0.101562 C 73.503906 0.046875 73.460938 0 73.402344 0 H 80.800781 C 80.855469 0 80.902344 0.0429688 80.902344 0.101562 H 80.902344 V 11.351562 C 80.902344 11.296875 80.859375 11.25 80.800781 11.25 H 83.800781 C 83.855469 11.25 83.902344 11.292969 83.902344 11.351562 V 17.351562 C 83.902344 17.40625 83.859375 17.453125 83.800781 17.453125 H 80.800781 C 80.855469 17.453125 80.902344 17.410156 80.902344 17.351562 V 23.351562 C 80.902344 23.296875 80.859375 23.25 80.800781 23.25 H 83.800781 C 83.855469 23.25 83.902344 23.292969 83.902344 23.351562 V 29.351562 C 83.902344 29.40625 83.859375 29.453125 83.800781 29.453125 H 80.800781 C 80.855469 29.453125 80.902344 29.410156 80.902344 29.351562 V 35.351562 C 80.902344 35.296875 80.859375 35.25 80.800781 35.25 H 83.800781 C 83.855469 35.25 83.902344 35.292969 83.902344 35.351562 V 41.351562 C 83.902344 41.40625 83.859375 41.453125 83.800781 41.453125 H 80.800781 C 80.855469 41.453125 80.902344 41.410156 80.902344 41.351562 V 47.351562 C 80.902344 47.296875 80.859375 47.25 80.800781 47.25 H 83.800781 C 83.855469 47.25 83.902344 47.292969 83.902344 47.351562 V 53.351562 C 83.902344 53.40625 83.859375 53.453125 83.800781 53.453125 H 80.800781 C 80.855469 53.453125 80.902344 53.410156 80.902344 53.351562 V 59.351562 C 80.902344 59.296875 80.859375 59.25 80.800781 59.25 H 83.800781 C 83.855469 59.25 83.902344 59.292969 83.902344 59.351562 V 65.351562 C 83.902344 65.40625 83.859375 65.453125 83.800781 65.453125 H 80.800781 C 80.855469 65.453125 80.902344 65.410156 80.902344 65.351562 V 71.351562 C 80.902344 71.296875 80.859375 71.25 80.800781 71.25 H 83.800781 C 83.855469 71.25 83.902344 71.292969 83.902344 71.351562 V 77.351562 C 83.902344 77.40625 83.859375 77.453125 83.800781 77.453125 H 80.800781 C 80.855469 77.453125 80.902344 77.410156 80.902344 77.351562 V 88.601562 C 80.902344 88.65625 80.859375 88.703125 80.800781 88.703125 H 80.800781 L 0 88.703125 C -0.0546875 88.703125 -0.101562 88.660156 -0.101562 88.601562 H -0.101562 V 77.351562 C -0.101562 77.40625 -0.0585938 77.453125 0 77.453125 H -3 C -3.054688 77.453125 -3.101562 77.410156 -3.101562 77.351562 V 71.351562 C -3.101562 71.296875 -3.058594 71.25 -3 71.25 H 0 C -0.0546875 71.25 -0.101562 71.292969 -0.101562 71.351562 V 65.351562 C -0.101562 65.40625 -0.0585938 65.453125 0 65.453125 H -3 C -3.054688 65.453125 -3.101562 65.410156 -3.101562 65.351562 V 59.351562 C -3.101562 59.296875 -3.058594 59.25 -3 59.25 H 0 C -0.0546875 59.25 -0.101562 59.292969 -0.101562 59.351562 V 53.351562 C -0.101562 53.40625 -0.0585938 53.453125 0 53.453125 H -3 C -3.054688 53.453125 -3.101562 53.410156 -3.101562 53.351562 V 47.351562 C -3.101562 47.296875 -3.058594 47.25 -3 47.25 H 0 C -0.0546875 47.25 -0.101562 47.292969 -0.101562 47.351562 V 41.351562 C -0.101562 41.40625 -0.0585938 41.453125 0 41.453125 H -3 C -3.054688 41.453125 -3.101562 41.410156 -3.101562 41.351562 V 35.351562 C -3.101562 35.296875 -3.058594 35.25 -3 35.25 H 0 C -0.0546875 35.25 -0.101562 35.292969 -0.101562 35.351562 V 29.351562 C -0.101562 29.40625 -0.0585938 29.453125 0 29.453125 H -3 C -3.054688 29.453125 -3.101562 29.410156 -3.101562 29.351562 V 23.351562 C -3.101562 23.296875 -3.058594 23.25 -3 23.25 H 0 C -0.0546875 23.25 -0.101562 23.292969 -0.101562 23.351562 V 17.351562 C -0.101562 17.40625 -0.0585938 17.453125 0 17.453125 H -3 C -3.054688 17.453125 -3.101562 17.410156 -3.101562 17.351562 V 11.351562 C -3.101562 11.296875 -3.058594 11.25 -3 11.25 H 0 C -0.0546875 11.25 -0.101562 11.292969 -0.101562 11.351562 V 0.101562 C -0.101562 0.046875 -0.0585938 0 0 0 H 0 " style="fill:none;stroke-width:0.2;stroke-linecap:butt;stroke-linejoin:miter;stroke:rgb(0%,0%,0%);stroke-opacity:1;stroke-miterlimit:10;" transform="matrix(1.0000,0.0000,0.0000,-1.0000,549.6016,187.1992)"/>
<path d="M 0 0 C -0.0546875 0 -0.101562 0.046875 -0.101562 0.101562 V -2.898438 C -0.101562 -2.84375 -0.0585938 -2.796875 0 -2.796875 H -6 C -5.945312 -2.796875 -5.898438 -2.839844 -5.898438 -2.898438 V 0.101562 C -5.898438 0.046875 -5.941406 0 -6 0 H 0 " style="fill:none;stroke-width:0.2;stroke-linecap:butt;stroke-linejoin:miter;stroke:rgb(0%,0%,100%);stroke-opacity:1;stroke-miterlimit:10;" transform="matrix(-1.0000,0.0000,0.0000,1.0000,22.2539,93.6484)"/>
<path d="M 0 0 C -0.0546875 0 -0.101562 0.046875 -0.101562 0.101562 V -2.898438 C -0.101562 -2.84375 -0.0585938 -2.796875 0 -2.796875 H -6 C -5.945312 -2.796875 -5.898438 -2.839844 -5.898438 -2.898438 V 0.101562 C -5.898438 0.046875 -5.941406 0 -6 0 H 0 " style="fill:none;stroke-width:0.2;stroke-linecap:butt;stroke-linejoin:miter;stroke:rgb(0%,0%,100%);stroke-opacity:1;stroke-miterlimit:10;" transform="matrix(-1.0000,0.0000,0.0000,1.0000,34.2539,93.6484)"/>
<path d="M 0 0 C -0.0546875 0 -0.101562 0.046875 -0.101562 0.101562 V -2.898438 C -0.101562 -2.84375 -0.0585938 -2.796875 0 -2.796875 H -6 C -5.945312 -2.796875 -5.898438 -2.839844 -5.898438 -2.898438 V 0.101562 C -5.898438 0.046875 -5.941406 0 -6 0 H 0 " style="fill:none;stroke-width:0.2;stroke-linecap:butt;stroke-linejoin:miter;stroke:rgb(0%,0%,100%);stroke-opacity:1;stroke-miterlimit:10;" transform="matrix(-1.0000,0.0000,0.0000,1.0000,46.2539,93.6484)"/>
<path d="M 0 0 C -0.0546875 0 -0.101562 0.046875 -0.101562 0.101562 V -2.898438 C -0.101562 -2.84375 -0.0585938 -2.796875 0 -2.796875 H -6 C -5.945312 -2.796875 -5.898438 -2.839844 -5.898438 -2.898438 V 0.101562 C -5.898438 0.046875 -5.941406 0 -6 0 H 0 " style="fill:none;stroke-width:0.2;stroke-linecap:butt;stroke-linejoin:miter;stroke:rgb(0%,0%,100%);stroke-opacity:1;stroke-miterlimit:10;" transform="matrix(-1.0000,0.0000,0.0000,1.0000,58.2539,93.6484)"/>
<path d="M 0 0 C -0.0546875 0 -0.101562 0.046875 -0.101562 0.101562 V -2.898438 C -0.101562 -2.84375 -0.0585938 -2.796875 0 -2.796875 H -6 C -5.945312 -2.796875 -5.898437 -2.839844 -5.898437 -2.898438 V 0.101562 C -5.898437 0.046875 -5.941406 0 -6 0 H 0 " style="fill:none;stroke-width:0.2;stroke-linecap:butt;stroke-linejoin:miter;stroke:rgb(0%,0%,100%);stroke-opacity:1;stroke-miterlimit:10;" transform="matrix(-1.0000,0.0000,0.0000,1.0000,70.2539,93.6484)"/>
<path d="M 0 0 C -0.0546875 0 -0.101562 0.046875 -0.101562 0.101562 V -2.898438 C -0.101562 -2.84375 -0.0585938 -2.796875 0 -2.796875 H -6 C -5.945312 -2.796875 -5.898438 -2.839844 -5.898438 -2.898438 V 0.101562 C -5.898438 0.046875 -5.941406 0 -6 0 H 0 " style="fill:none;stroke-width:0.2;stroke-linecap:butt;stroke-linejoin:miter;stroke:rgb(0%,0%,100%);stroke-opacity:1;stroke-miterlimit:10;" transform="matrix(-1.0000,0.0000,0.0000,1.0000,82.2539,93.6484)"/>
<path d="M 0 0 C -0.0546875 0 -0.101562 0.046875 -0.101562 0.101562 V -2.898438 C -0.101562 -2.84375 -0.0585938 -2.796875 0 -2.796875 H -6 C -5.945312 -2.796875 -5.898438 -2.839844 -5.898438 -2.898438 V 0.101562 C -5.898438 0.046875 -5.941406 0 -6 0 H 0 " style="fill:none;stroke-width:0.2;stroke-linecap:butt;stroke-linejoin:miter;stroke:rgb(0%,0%,100%);stroke-opacity:1;stroke-miterlimit:10;" transform="matrix(-1.0000,0.0000,0.0000,1.0000,94.2539,93.6484)"/>
<path d="M 0 0 C -0.0546875 0 -0.101562 0.046875 -0.101562 0.101562 V -2.898438 C -0.101562 -2.84375 -0.0585938 -2.796875 0 -2.796875 H -6 C -5.945312 -2.796875 -5.898438 -2.839844 -5.898438 -2.898438 V 0.101562 C -5.898438 0.046875 -5.941406 0 -6 0 H 0 " style="fill:none;stroke-width:0.2;stroke-linecap:butt;stroke-linejoin:miter;stroke:rgb(0%,0%,100%);stroke-opacity:1;stroke-miterlimit:10;" transform="matrix(-1.0000,0.0000,0.0000,1.0000,106.2539,93.6484)"/>
<path d="M 0 0 C -0.0546875 0 -0.101562 0.046875 -0.101562 0.101562 V -2.898438 C -0.101562 -2.84375 -0.0585938 -2.796875 0 -2.796875 H -6 C -5.945312 -2.796875 -5.898438 -2.839844 -5.898438 -2.898438 V 0.101562 C -5.898438 0.046875 -5.941406 0 -6 0 H 0 " style="fill:none;stroke-width:0.2;stroke-linecap:butt;stroke-linejoin:miter;stroke:rgb(0%,0%,100%);stroke-opacity:1;stroke-miterlimit:10;" transform="matrix(-1.0000,0.0000,0.0000,1.0000,118.2539,93.6484)"/>
<path d="M 0 0 C -0.0546875 0 -0.101562 0.046875 -0.101562 0.101562 V -2.898438 C -0.101562 -2.84375 -0.0585938 -2.796875 0 -2.796875 H -6 C -5.945312 -2.796875 -5.898438 -2.839844 -5.898438 -2.898438 V 0.101562 C -5.898438 0.046875 -5.941406 0 -6 0 H 0 " style="fill:none;stroke-width:0.2;stroke-linecap:butt;stroke-linejoin:miter;stroke:rgb(0%,0%,100%);stroke-opacity:1;stroke-miterlimit:10;" transform="matrix(-1.0000,0.0000,0.0000,1.0000,130.2539,93.6484)"/>
<path d="M 0 0 C -0.0546875 0 -0.101562 0.046875 -0.101562 0.101562 V -2.898438 C -0.101562 -2.84375 -0.0585938 -2.796875 0 -2.796875 H -6 C -5.945312 -2.796875 -5.898438 -2.839844 -5.898438 -2.898438 V 0.101562 C -5.898438 0.046875 -5.941406 0 -6 0 H 0 " style="fill:none;stroke-width:0.2;stroke-linecap:butt;stroke-linejoin:miter;stroke:rgb(0%,0%,100%);stroke-opacity:1;stroke-miterlimit:10;" transform="matrix(-1.0000,0.0000,0.0000,1.0000,142.2539,93.6484)"/>
<path d="M 0 0 C -0.0546875 0 -0.101562 0.046875 -0.101562 0.101562 V -2.898438 C -0.101562 -2.84375 -0.0585938 -2.796875 0 -2.796875 H -6 C -5.945312 -2.796875 -5.898438 -2.839844 -5.898438 -2.898438 V 0.101562 C -5.898438 0.046875 -5.941406 0 -6 0 H 0 " style="fill:none;stroke-width:0.2;stroke-linecap:butt;stroke-linejoin:miter;stroke:rgb(0%,0%,100%);stroke-opacity:1;stroke-miterlimit:10;" transform="matrix(-1.0000,0.0000,0.0000,1.0000,154.2539,93.6484)"/>
<path d="M 0 0 C -0.0546875 0 -0.101562 0.046875 -0.101562 0.101562 V -2.898438 C -0.101562 -2.84375 -0.0585938 -2.796875 0 -2.796875 H -6 C -5.945312 -2.796875 -5.898438 -2.839844 -5.898438 -2.898438 V 0.101562 C -5.898438 0.046875 -5.941406 0 -6 0 H 0 " style="fill:none;stroke-width:0.2;stroke-linecap:butt;stroke-linejoin:miter;stroke:rgb(0%,0%,100%);stroke-opacity:1;stroke-miterlimit:10;" transform="matrix(-1.0000,0.0000,0.0000,1.0000,166.2539,93.6484)"/>
<path d="M 0 0 C -0.0546875 0 -0.101562 0.046875 -0.101562 0.101562 V -2.898438 C -0.101562 -2.84375 -0.0585938 -2.796875 0 -2.796875 H -6 C -5.945312 -2.796875 -5.898438 -2.839844 -5.898438 -2.898438 V 0.101562 C -5.898438 0.046875 -5.941406 0 -6 0 H 0 " style="fill:none;stroke-width:0.2;stroke-linecap:butt;stroke-linejoin:miter;stroke:rgb(0%,0%,100%);stroke-opacity:1;stroke-miterlimit:10;" transform="matrix(-1.0000,0.0000,0.0000,1.0000,178.2539,93.6484)"/>
<path d="M 0 0 C -0.0546875 0 -0.101562 0.046875 -0.101562 0.101562 V -2.898438 C -0.101562 -2.84375 -0.0585938 -2.796875 0 -2.796875 H -6 C -5.945312 -2.796875 -5.898438 -2.839844 -5.898438 -2.898438 V 0.101562 C -5.898438 0.046875 -5.941406 0 -6 0 H 0 " style="fill:none;stroke-width:0.2;stroke-linecap:butt;stroke-linejoin:miter;stroke:rgb(0%,0%,100%);stroke-opacity:1;stroke-miterlimit:10;" transform="matrix(-1.0000,0.0000,0.0000,1.0000,190.2539,93.6484)"/>
<path d="M 0 0 C -0.0546875 0 -0.101562 0.046875 -0.101562 0.101562 V -2.898438 C -0.101562 -2.84375 -0.0585938 -2.796875 0 -2.796875 H -6 C -5.945312 -2.796875 -5.898438 -2.839844 -5.898438 -2.898438 V 0.101562 C -5.898438 0.046875 -5.941406 0 -6 0 H 0 " style="fill:none;stroke-width:0.2;stroke-linecap:butt;stroke-linejoin:miter;stroke:rgb(0%,0%,100%);stroke-opacity:1;stroke-miterlimit:10;" transform="matrix(-1.0000,0.0000,0.0000,1.0000,202.2539,93.6484)"/>
<path d="M 0 0 C -0.0546875 0 -0.101562 0.046875 -0.101562 0.101562 V -2.898438 C -0.101562 -2.84375 -0.0585938 -2.796875 0 -2.796875 H -6 C -5.945312 -2.796875 -5.898438 -2.839844 -5.898438 -2.898438 V 0.101562 C -5.898438 0.046875 -5.941406 0 -6 0 H 0 " style="fill:none;stroke-width:0.2;stroke-linecap:butt;stroke-linejoin:miter;stroke:rgb(0%,0%,100%);stroke-opacity:1;stroke-miterlimit:10;" transform="matrix(-1.0000,0.0000,0.0000,1.0000,214.2539,93.6484)"/>
<path d="M -6.25 211.5 V 1.5 L -6.25 -4.648438 C -6.25 -4.703125 -6.207031 -4.75 -6.148438 -4.75 H 0 M 0 0 " style="fill:none;stroke-width:0.2;stroke-linecap:butt;stroke-linejoin:miter;stroke:rgb(0%,0%,0%);stroke-opacity:1;stroke-miterlimit:10;" transform="matrix(0.0000,-1.0000,-1.0000,-0.0000,227.7539,90.7500)"/>
<path d="M 0 0 C -0.0546875 0 -0.101562 0.046875 -0.101562 0.101562 V -2.898438 C -0.101562 -2.84375 -0.0585938 -2.796875 0 -2.796875 H -6 C -5.945312 -2.796875 -5.898438 -2.839844 -5.898438 -2.898438 V 0.101562 C -5.898438 0.046875 -5.941406 0 -6 0 H 0 " style="fill:none;stroke-width:0.2;stroke-linecap:butt;stroke-linejoin:miter;stroke:rgb(0%,0%,100%);stroke-opacity:1;stroke-miterlimit:10;" transform="matrix(0.0000,1.0000,1.0000,-0.0000,229.1523,80.5000)"/>
<path d="M 0 0 C -0.0546875 0 -0.101562 0.046875 -0.101562 0.101562 V -2.898438 C -0.101562 -2.84375 -0.0585938 -2.796875 0 -2.796875 H -6 C -5.945312 -2.796875 -5.898438 -2.839844 -5.898438 -2.898438 V 0.101562 C -5.898438 0.046875 -5.941406 0 -6 0 H 0 " style="fill:none;stroke-width:0.2;stroke-linecap:butt;stroke-linejoin:miter;stroke:rgb(0%,0%,100%);stroke-opacity:1;stroke-miterlimit:10;" transform="matrix(0.0000,1.0000,1.0000,-0.0000,229.1523,68.5000)"/>
<path d="M 0 0 C -0.0546875 0 -0.101562 0.046875 -0.101562 0.101562 V -2.898438 C -0.101562 -2.84375 -0.0585938 -2.796875 0 -2.796875 H -6 C -5.945312 -2.796875 -5.898438 -2.839844 -5.898438 -2.898438 V 0.101562 C -5.898438 0.046875 -5.941406 0 -6 0 H 0 " style="fill:none;stroke-width:0.2;stroke-linecap:butt;stroke-linejoin:miter;stroke:rgb(0%,0%,100%);stroke-opacity:1;stroke-miterlimit:10;" transform="matrix(0.0000,1.0000,1.0000,-0.0000,229.1523,56.5000)"/>
<path d="M 0 0 C -0.0546875 0 -0.101562 0.046875 -0.101562 0.101562 V -2.898438 C -0.101562 -2.84375 -0.0585938 -2.796875 0 -2.796875 H -6 C -5.945312 -2.796875 -5.898438 -2.839844 -5.898438 -2.898438 V 0.101562 C -5.898438 0.046875 -5.941406 0 -6 0 H 0 " style="fill:none;stroke-width:0.2;stroke-linecap:butt;stroke-linejoin:miter;stroke:rgb(0%,0%,100%);stroke-opacity:1;stroke-miterlimit:10;" transform="matrix(0.0000,1.0000,1.0000,-0.0000,229.1523,44.5000)"/>
<path d="M 0 0 C -0.0546875 0 -0.101562 0.046875 -0.101562 0.101562 V -2.898438 C -0.101562 -2.84375 -0.0585938 -2.796875 0 -2.796875 H -6 C -5.945312 -2.796875 -5.898438 -2.839844 -5.898438 -2.898438 V 0.101562 C -5.898438 0.046875 -5.941406 0 -6 0 H 0 " style="fill:none;stroke-width:0.2;stroke-linecap:butt;stroke-linejoin:miter;stroke:rgb(0%,0%,100%);stroke-opacity:1;stroke-miterlimit:10;" transform="matrix(0.0000,1.0000,1.0000,-0.0000,229.1523,32.5000)"/>
<path d="M -6.25 76 V 1.5 L -6.25 -4.648438 C -6.25 -4.703125 -6.207031 -4.75 -6.148438 -4.75 H 0 M 0 0 " style="fill:none;stroke-width:0.2;stroke-linecap:butt;stroke-linejoin:miter;stroke:rgb(0%,0%,0%);stroke-opacity:1;stroke-miterlimit:10;" transform="matrix(-1.0000,-0.0000,-0.0000,1.0000,226.2539,14.7500)"/>
<path d="M 0 0 C -0.0546875 0 -0.101562 0.046875 -0.101562 0.101562 V -2.898438 C -0.101562 -2.84375 -0.0585938 -2.796875 0 -2.796875 H -6 C -5.945312 -2.796875 -5.898438 -2.839844 -5.898438 -2.898438 V 0.101562 C -5.898438 0.046875 -5.941406 0 -6 0 H 0 " style="fill:none;stroke-width:0.2;stroke-linecap:butt;stroke-linejoin:miter;stroke:rgb(0%,0%,100%);stroke-opacity:1;stroke-miterlimit:10;" transform="matrix(1.0000,-0.0000,-0.0000,-1.0000,220.2539,13.3516)"/>
<path d="M 0 0 C -0.0546875 0 -0.101562 0.046875 -0.101562 0.101562 V -2.898438 C -0.101562 -2.84375 -0.0585938 -2.796875 0 -2.796875 H -6 C -5.945312 -2.796875 -5.898438 -2.839844 -5.898438 -2.898438 V 0.101562 C -5.898438 0.046875 -5.941406 0 -6 0 H 0 " style="fill:none;stroke-width:0.2;stroke-linecap:butt;stroke-linejoin:miter;stroke:rgb(0%,0%,100%);stroke-opacity:1;stroke-miterlimit:10;" transform="matrix(1.0000,-0.0000,-0.0000,-1.0000,208.2539,13.3516)"/>
<path d="M 0 0 C -0.0546875 0 -0.101562 0.046875 -0.101562 0.101562 V -2.898438 C -0.101562 -2.84375 -0.0585938 -2.796875 0 -2.796875 H -6 C -5.945312 -2.796875 -5.898438 -2.839844 -5.898438 -2.898438 V 0.101562 C -5.898438 0.046875 -5.941406 0 -6 0 H 0 " style="fill:none;stroke-width:0.2;stroke-linecap:butt;stroke-linejoin:miter;stroke:rgb(0%,0%,100%);stroke-opacity:1;stroke-miterlimit:10;" transform="matrix(1.0000,-0.0000,-0.0000,-1.0000,196.2539,13.3516)"/>
<path d="M 0 0 C -0.0546875 0 -0.101562 0.046875 -0.101562 0.101562 V -2.898438 C -0.101562 -2.84375 -0.0585938 -2.796875 0 -2.796875 H -6 C -5.945312 -2.796875 -5.898438 -2.839844 -5.898438 -2.898438 V 0.101562 C -5.898438 0.046875 -5.941406 0 -6 0 H 0 " style="fill:none;stroke-width:0.2;stroke-linecap:butt;stroke-linejoin:miter;stroke:rgb(0%,0%,100%);stroke-opacity:1;stroke-miterlimit:10;" transform="matrix(1.0000,-0.0000,-0.0000,-1.0000,184.2539,13.3516)"/>
<path d="M 0 0 C -0.0546875 0 -0.101562 0.046875 -0.101562 0.101562 V -2.898438 C -0.101562 -2.84375 -0.0585938 -2.796875 0 -2.796875 H -6 C -5.945312 -2.796875 -5.898438 -2.839844 -5.898438 -2.898438 V 0.101562 C -5.898438 0.046875 -5.941406 0 -6 0 H 0 " style="fill:none;stroke-width:0.2;stroke-linecap:butt;stroke-linejoin:miter;stroke:rgb(0%,0%,100%);stroke-opacity:1;stroke-miterlimit:10;" transform="matrix(1.0000,-0.0000,-0.0000,-1.0000,172.2539,13.3516)"/>
<path d="M 0 0 C -0.0546875 0 -0.101562 0.046875 -0.101562 0.101562 V -2.898438 C -0.101562 -2.84375 -0.0585938 -2.796875 0 -2.796875 H -6 C -5.945312 -2.796875 -5.898438 -2.839844 -5.898438 -2.898438 V 0.101562 C -5.898438 0.046875 -5.941406 0 -6 0 H 0 " style="fill:none;stroke-width:0.2;stroke-linecap:butt;stroke-linejoin:miter;stroke:rgb(0%,0%,100%);stroke-opacity:1;stroke-miterlimit:10;" transform="matrix(1.0000,-0.0000,-0.0000,-1.0000,160.2539,13.3516)"/>
<path d="M 0 0 C -0.0546875 0 -0.101562 0.046875 -0.101562 0.101562 V -2.898438 C -0.101562 -2.84375 -0.0585938 -2.796875 0 -2.796875 H -6 C -5.945312 -2.796875 -5.898438 -2.839844 -5.898438 -2.898438 V 0.101562 C -5.898438 0.046875 -5.941406 0 -6 0 H 0 " style="fill:none;stroke-width:0.2;stroke-linecap:butt;stroke-linejoin:miter;stroke:rgb(0%,0%,100%);stroke-opacity:1;stroke-miterlimit:10;" transform="matrix(1.0000,-0.0000,-0.0000,-1.0000,148.2539,13.3516)"/>
<path d="M 0 0 C -0.0546875 0 -0.101562 0.046875 -0.101562 0.101562 V -2.898438 C -0.101562 -2.84375 -0.0585938 -2.796875 0 -2.796875 H -6 C -5.945312 -2.796875 -5.898438 -2.839844 -5.898438 -2.898438 V 0.101562 C -5.898438 0.046875 -5.941406 0 -6 0 H 0 " style="fill:none;stroke-width:0.2;stroke-linecap:butt;stroke-linejoin:miter;stroke:rgb(0%,0%,100%);stroke-opacity:1;stroke-miterlimit:10;" transform="matrix(1.0000,-0.0000,-0.0000,-1.0000,136.2539,13.3516)"/>
<path d="M 0 0 C -0.0546875 0 -0.101562 0.046875 -0.101562 0.101562 V -2.898438 C -0.101562 -2.84375 -0.0585938 -2.796875 0 -2.796875 H -6 C -5.945312 -2.796875 -5.898438 -2.839844 -5.898438 -2.898438 V 0.101562 C -5.898438 0.046875 -5.941406 0 -6 0 H 0 " style="fill:none;stroke-width:0.2;stroke-linecap:butt;stroke-linejoin:miter;stroke:rgb(0%,0%,100%);stroke-opacity:1;stroke-miterlimit:10;" transform="matrix(1.0000,-0.0000,-0.0000,-1.0000,124.2539,13.3516)"/>
<path d="M 0 0 C -0.0546875 0 -0.101562 0.046875 -0.101562 0.101562 V -2.898438 C -0.101562 -2.84375 -0.0585938 -2.796875 0 -2.796875 H -6 C -5.945312 -2.796875 -5.898438 -2.839844 -5.898438 -2.898438 V 0.101562 C -5.898438 0.046875 -5.941406 0 -6 0 H 0 " style="fill:none;stroke-width:0.2;stroke-linecap:butt;stroke-linejoin:miter;stroke:rgb(0%,0%,100%);stroke-opacity:1;stroke-miterlimit:10;" transform="matrix(1.0000,-0.0000,-0.0000,-1.0000,112.2539,13.3516)"/>
<path d="M 0 0 C -0.0546875 0 -0.101562 0.046875 -0.101562 0.101562 V -2.898438 C -0.101562 -2.84375 -0.0585938 -2.796875 0 -2.796875 H -6 C -5.945312 -2.796875 -5.898438 -2.839844 -5.898438 -2.898438 V 0.101562 C -5.898438 0.046875 -5.941406 0 -6 0 H 0 " style="fill:none;stroke-width:0.2;stroke-linecap:butt;stroke-linejoin:miter;stroke:rgb(0%,0%,100%);stroke-opacity:1;stroke-miterlimit:10;" transform="matrix(1.0000,-0.0000,-0.0000,-1.0000,100.2539,13.3516)"/>
<path d="M 0 0 C -0.0546875 0 -0.101562 0.046875 -0.101562 0.101562 V -2.898438 C -0.101562 -2.84375 -0.0585938 -2.796875 0 -2.796875 H -6 C -5.945312 -2.796875 -5.898438 -2.839844 -5.898438 -2.898438 V 0.101562 C -5.898438 0.046875 -5.941406 0 -6 0 H 0 " style="fill:none;stroke-width:0.2;stroke-linecap:butt;stroke-linejoin:miter;stroke:rgb(0%,0%,100%);stroke-opacity:1;stroke-miterlimit:10;" transform="matrix(1.0000,-0.0000,-0.0000,-1.0000,88.2539,13.3516)"/>
<path d="M 0 0 C -0.0546875 0 -0.101562 0.046875 -0.101562 0.101562 V -2.898438 C -0.101562 -2.84375 -0.0585938 -2.796875 0 -2.796875 H -6 C -5.945312 -2.796875 -5.898438 -2.839844 -5.898438 -2.898438 V 0.101562 C -5.898438 0.046875 -5.941406 0 -6 0 H 0 " style="fill:none;stroke-width:0.2;stroke-linecap:butt;stroke-linejoin:miter;stroke:rgb(0%,0%,100%);stroke-opacity:1;stroke-miterlimit:10;" transform="matrix(1.0000,-0.0000,-0.0000,-1.0000,76.2539,13.3516)"/>
<path d="M 0 0 C -0.0546875 0 -0.101562 0.046875 -0.101562 0.101562 V -2.898438 C -0.101562 -2.84375 -0.0585938 -2.796875 0 -2.796875 H -6 C -5.945312 -2.796875 -5.898438 -2.839844 -5.898438 -2.898438 V 0.101562 C -5.898438 0.046875 -5.941406 0 -6 0 H 0 " style="fill:none;stroke-width:0.2;stroke-linecap:butt;stroke-linejoin:miter;stroke:rgb(0%,0%,100%);stroke-opacity:1;stroke-miterlimit:10;" transform="matrix(1.0000,-0.0000,-0.0000,-1.0000,64.2539,13.3516)"/>
<path d="M 0 0 C -0.0546875 0 -0.101562 0.046875 -0.101562 0.101562 V -2.898438 C -0.101562 -2.84375 -0.0585938 -2.796875 0 -2.796875 H -6 C -5.945312 -2.796875 -5.898438 -2.839844 -5.898438 -2.898438 V 0.101562 C -5.898438 0.046875 -5.941406 0 -6 0 H 0 " style="fill:none;stroke-width:0.2;stroke-linecap:butt;stroke-linejoin:miter;stroke:rgb(0%,0%,100%);stroke-opacity:1;stroke-miterlimit:10;" transform="matrix(1.0000,-0.0000,-0.0000,-1.0000,52.2539,13.3516)"/>
<path d="M 0 0 C -0.0546875 0 -0.101562 0.046875 -0.101562 0.101562 V -2.898438 C -0.101562 -2.84375 -0.0585938 -2.796875 0 -2.796875 H -6 C -5.945312 -2.796875 -5.898438 -2.839844 -5.898438 -2.898438 V 0.101562 C -5.898438 0.046875 -5.941406 0 -6 0 H 0 " style="fill:none;stroke-width:0.2;stroke-linecap:butt;stroke-linejoin:miter;stroke:rgb(0%,0%,100%);stroke-opacity:1;stroke-miterlimit:10;" transform="matrix(1.0000,-0.0000,-0.0000,-1.0000,40.2539,13.3516)"/>
<path d="M 0 0 C -0.0546875 0 -0.101562 0.046875 -0.101562 0.101562 V -2.898438 C -0.101562 -2.84375 -0.0585938 -2.796875 0 -2.796875 H -6 C -5.945312 -2.796875 -5.898438 -2.839844 -5.898438 -2.898438 V 0.101562 C -5.898438 0.046875 -5.941406 0 -6 0 H 0 " style="fill:none;stroke-width:0.2;stroke-linecap:butt;stroke-linejoin:miter;stroke:rgb(0%,0%,100%);stroke-opacity:1;stroke-miterlimit:10;" transform="matrix(1.0000,-0.0000,-0.0000,-1.0000,28.2539,13.3516)"/>
<path d="M -6.25 211.5 V 1.5 L -6.25 -4.648438 C -6.25 -4.703125 -6.207031 -4.75 -6.148438 -4.75 H 0 M 0 0 " style="fill:none;stroke-width:0.2;stroke-linecap:butt;stroke-linejoin:miter;stroke:rgb(0%,0%,0%);stroke-opacity:1;stroke-miterlimit:10;" transform="matrix(-0.0000,1.0000,1.0000,0.0000,14.7539,16.2500)"/>
<path d="M 0 0 C -0.0546875 0 -0.101562 0.046875 -0.101562 0.101562 V -2.898438 C -0.101562 -2.84375 -0.0585938 -2.796875 0 -2.796875 H -6 C -5.945312 -2.796875 -5.898438 -2.839844 -5.898438 -2.898438 V 0.101562 C -5.898438 0.046875 -5.941406 0 -6 0 H 0 " style="fill:none;stroke-width:0.2;stroke-linecap:butt;stroke-linejoin:miter;stroke:rgb(0%,0%,100%);stroke-opacity:1;stroke-miterlimit:10;" transform="matrix(0.0000,-1.0000,-1.0000,-0.0000,13.3555,26.5000)"/>
<path d="M 0 0 C -0.0546875 0 -0.101562 0.046875 -0.101562 0.101562 V -2.898438 C -0.101562 -2.84375 -0.0585938 -2.796875 0 -2.796875 H -6 C -5.945312 -2.796875 -5.898438 -2.839844 -5.898438 -2.898438 V 0.101562 C -5.898438 0.046875 -5.941406 -0.000000000000000888 -6 -0.000000000000000888 L 0 0 " style="fill:none;stroke-width:0.2;stroke-linecap:butt;stroke-linejoin:miter;stroke:rgb(0%,0%,100%);stroke-opacity:1;stroke-miterlimit:10;" transform="matrix(0.0000,-1.0000,-1.0000,-0.0000,13.3555,38.5000)"/>
<path d="M 0 0 C -0.0546875 0 -0.101562 0.046875 -0.101562 0.101562 V -2.898438 C -0.101562 -2.84375 -0.0585938 -2.796875 0 -2.796875 H -6 C -5.945312 -2.796875 -5.898438 -2.839844 -5.898438 -2.898438 V 0.101562 C -5.898438 0.046875 -5.941406 -0.000000000000000888 -6 -0.000000000000000888 L 0 0 " style="fill:none;stroke-width:0.2;stroke-linecap:butt;stroke-linejoin:miter;stroke:rgb(0%,0%,100%);stroke-opacity:1;stroke-miterlimit:10;" transform="matrix(0.0000,-1.0000,-1.0000,-0.0000,13.3555,50.5000)"/>
<path d="M 0 0 C -0.0546875 0 -0.101562 0.046875 -0.101562 0.101562 V -2.898438 C -0.101562 -2.84375 -0.0585938 -2.796875 0 -2.796875 H -6 C -5.945312 -2.796875 -5.898438 -2.839844 -5.898438 -2.898438 V 0.101562 C -5.898438 0.046875 -5.941406 -0.000000000000000888 -6 -0.000000000000000888 L 0 0 " style="fill:none;stroke-width:0.2;stroke-linecap:butt;stroke-linejoin:miter;stroke:rgb(0%,0%,100%);stroke-opacity:1;stroke-miterlimit:10;" transform="matrix(0.0000,-1.0000,-1.0000,-0.0000,13.3555,62.5000)"/>
<path d="M 0 0 C -0.0546875 0 -0.101562 0.046875 -0.101562 0.101562 V -2.898438 C -0.101562 -2.84375 -0.0585938 -2.796875 0 -2.796875 H -6 C -5.945312 -2.796875 -5.898438 -2.839844 -5.898438 -2.898438 V 0.101562 C -5.898438 0.046875 -5.941406 0 -6 0 H 0 " style="fill:none;stroke-width:0.2;stroke-linecap:butt;stroke-linejoin:miter;stroke:rgb(0%,0%,100%);stroke-opacity:1;stroke-miterlimit:10;" transform="matrix(0.0000,-1.0000,-1.0000,-0.0000,13.3555,74.5000)"/>
<path d="M -6.25 80.75 V 6.25 L -6.25 0.101562 C -6.25 0.046875 -6.207031 0 -6.148438 0 H 0 " style="fill:none;stroke-width:0.2;stroke-linecap:butt;stroke-linejoin:miter;stroke:rgb(0%,0%,0%);stroke-opacity:1;stroke-miterlimit:10;" transform="matrix(1.0000,0.0000,0.0000,-1.0000,16.2539,97.0000)"/>
<path d="M 0 0 H 9.148438 C 9.203125 0 9.25 0.0429688 9.25 0.101562 V 3.101562 C 9.25 3.046875 9.207031 3 9.148438 3 H 15.148438 C 15.09375 3 15.046875 3.042969 15.046875 3.101562 V 0.101562 C 15.046875 0.046875 15.089844 0 15.148438 0 H 21.148438 C 21.203125 0 21.25 0.0429688 21.25 0.101562 V 3.101562 C 21.25 3.046875 21.207031 3 21.148438 3 H 27.148438 C 27.09375 3 27.046875 3.042969 27.046875 3.101562 V 0.101562 C 27.046875 0.046875 27.089844 0 27.148438 0 H 33.148437 C 33.203125 0 33.25 0.0429688 33.25 0.101562 V 3.101562 C 33.25 3.046875 33.207031 3 33.148437 3 H 39.148437 C 39.09375 3 39.046875 3.042969 39.046875 3.101562 V 0.101562 C 39.046875 0.046875 39.089844 0 39.148437 0 H 45.148437 C 45.203125 0 45.25 0.0429688 45.25 0.101562 V 3.101562 C 45.25 3.046875 45.207031 3 45.148437 3 H 51.148437 C 51.09375 3 51.046875 3.042969 51.046875 3.101562 V 0.101562 C 51.046875 0.046875 51.089844 0 51.148437 0 H 57.148437 C 57.203125 0 57.25 0.0429688 57.25 0.101562 V 3.101562 C 57.25 3.046875 57.207031 3 57.148437 3 H 63.148437 C 63.09375 3 63.046875 3.042969 63.046875 3.101562 V 0.101562 C 63.046875 0.046875 63.089844 0 63.148437 0 H 69.148437 C 69.203125 0 69.25 0.0429688 69.25 0.101562 V 3.101562 C 69.25 3.046875 69.207031 3 69.148437 3 H 75.148437 C 75.09375 3 75.046875 3.042969 75.046875 3.101562 V 0.101562 C 75.046875 0.046875 75.089844 0 75.148437 0 H 81.148437 C 81.203125 0 81.25 0.0429688 81.25 0.101562 V 3.101562 C 81.25 3.046875 81.207031 3 81.148437 3 H 87.148437 C 87.09375 3 87.046875 3.042969 87.046875 3.101562 V 0.101562 C 87.046875 0.046875 87.089844 0 87.148437 0 H 93.148437 C 93.203125 0 93.25 0.0429688 93.25 0.101562 V 3.101562 C 93.25 3.046875 93.207031 3 93.148437 3 H 99.148437 C 99.09375 3 99.046875 3.042969 99.046875 3.101562 V 0.101562 C 99.046875 0.046875 99.089844 0 99.148437 0 H 105.148437 C 105.203125 0 105.25 0.0429688 105.25 0.101562 V 3.101562 C 105.25 3.046875 105.207031 3 105.148437 3 H 111.148437 C 111.09375 3 111.046875 3.042969 111.046875 3.101562 V 0.101562 C 111.046875 0.046875 111.089844 0 111.148437 0 H 117.148437 C 117.203125 0 117.25 0.0429688 117.25 0.101562 V 3.101562 C 117.25 3.046875 117.207031 3 117.148437 3 H 123.148437 C 123.09375 3 123.046875 3.042969 123.046875 3.101562 V 0.101562 C 123.046875 0.046875 123.089844 0 123.148437 0 H 129.148437 C 129.203125 0 129.25 0.0429688 129.25 0.101562 V 3.101562 C 129.25 3.046875 129.207031 3 129.148437 3 H 135.148437 C 135.09375 3 135.046875 3.042969 135.046875 3.101562 V 0.101562 C 135.046875 0.046875 135.089844 0 135.148437 0 H 141.148437 C 141.203125 0 141.25 0.0429688 141.25 0.101562 V 3.101562 C 141.25 3.046875 141.207031 3 141.148437 3 H 147.148437 C 147.09375 3 147.046875 3.042969 147.046875 3.101562 V 0.101562 C 147.046875 0.046875 147.089844 0 147.148437 0 H 153.148437 C 153.203125 0 153.25 0.0429688 153.25 0.101562 V 3.101562 C 153.25 3.046875 153.207031 3 153.148437 3 H 159.148437 C 159.09375 3 159.046875 3.042969 159.046875 3.101562 V 0.101562 C 159.046875 0.046875 159.089844 0 159.148437 0 H 165.148437 C 165.203125 0 165.25 0.0429688 165.25 0.101562 V 3.101562 C 165.25 3.046875 165.207031 3 165.148437 3 H 171.148437 C 171.09375 3 171.046875 3.042969 171.046875 3.101562 V 0.101562 C 171.046875 0.046875 171.089844 0 171.148437 0 H 177.148437 C 177.203125 0 177.25 0.0429688 177.25 0.101562 V 3.101562 C 177.25 3.046875 177.207031 3 177.148437 3 H 183.148437 C 183.09375 3 183.046875 3.042969 183.046875 3.101562 V 0.101562 C 183.046875 0.046875 183.089844 0 183.148437 0 H 189.148437 C 189.203125 0 189.25 0.0429688 189.25 0.101562 V 3.101562 C 189.25 3.046875 189.207031 3 189.148437 3 H 195.148437 C 195.09375 3 195.046875 3.042969 195.046875 3.101562 V 0.101562 C 195.046875 0.046875 195.089844 0 195.148437 0 H 201.148437 C 201.203125 0 201.25 0.0429688 201.25 0.101562 V 3.101562 C 201.25 3.046875 201.207031 3 201.148437 3 H 207.148437 C 207.09375 3 207.046875 3.042969 207.046875 3.101562 V 0.101562 C 207.046875 0.046875 207.089844 0 207.148437 0 H 216.296875 L 219.296875 0 C 219.351562 0 219.398437 0.0429688 219.398437 0.101562 V 3.101562 L 219.398437 10.5 C 219.398437 10.554688 219.355469 10.601562 219.296875 10.601562 H 216.296875 C 216.351562 10.601562 216.398437 10.558594 216.398437 10.5 V 16.5 C 216.398437 16.445312 216.355469 16.398438 216.296875 16.398438 H 219.296875 C 219.351562 16.398438 219.398437 16.441406 219.398437 16.5 V 22.5 C 219.398437 22.554688 219.355469 22.601562 219.296875 22.601562 H 216.296875 C 216.351562 22.601562 216.398437 22.558594 216.398437 22.5 V 28.5 C 216.398437 28.445312 216.355469 28.398438 216.296875 28.398438 H 219.296875 C 219.351562 28.398438 219.398437 28.441406 219.398437 28.5 V 34.5 C 219.398437 34.554688 219.355469 34.601562 219.296875 34.601562 H 216.296875 C 216.351562 34.601562 216.398437 34.558594 216.398437 34.5 V 40.5 C 216.398437 40.445312 216.355469 40.398438 216.296875 40.398438 H 219.296875 C 219.351562 40.398438 219.398437 40.441406 219.398437 40.5 V 46.5 C 219.398437 46.554688 219.355469 46.601562 219.296875 46.601562 H 216.296875 C 216.351562 46.601562 216.398437 46.558594 216.398437 46.5 V 52.5 C 216.398437 52.445312 216.355469 52.398438 216.296875 52.398438 H 219.296875 C 219.351562 52.398438 219.398437 52.441406 219.398437 52.5 V 58.5 C 219.398437 58.554688 219.355469 58.601562 219.296875 58.601562 H 216.296875 C 216.351562 58.601562 216.398437 58.558594 216.398437 58.5 V 64.5 C 216.398437 64.445312 216.355469 64.398438 216.296875 64.398438 H 219.296875 C 219.351562 64.398438 219.398437 64.441406 219.398437 64.5 V 70.5 C 219.398437 70.554688 219.355469 70.601562 219.296875 70.601562 H 216.296875 C 216.351562 70.601562 216.398437 70.558594 216.398437 70.5 V 76.5 C 216.398437 76.445312 216.355469 76.398438 216.296875 76.398438 H 219.296875 C 219.351562 76.398438 219.398437 76.441406 219.398437 76.5 V 83.898438 L 219.398437 86.898438 C 219.398437 86.953125 219.355469 87 219.296875 87 H 216.296875 L 207.148437 87 C 207.09375 87 207.046875 86.957031 207.046875 86.898438 V 83.898438 C 207.046875 83.953125 207.089844 84 207.148437 84 H 201.148437 C 201.203125 84 201.25 83.957031 201.25 83.898438 V 86.898438 C 201.25 86.953125 201.207031 87 201.148437 87 H 195.148437 C 195.09375 87 195.046875 86.957031 195.046875 86.898438 V 83.898438 C 195.046875 83.953125 195.089844 84 195.148437 84 H 189.148437 C 189.203125 84 189.25 83.957031 189.25 83.898438 V 86.898438 C 189.25 86.953125 189.207031 87 189.148437 87 H 183.148437 C 183.09375 87 183.046875 86.957031 183.046875 86.898438 V 83.898438 C 183.046875 83.953125 183.089844 84 183.148437 84 H 177.148437 C 177.203125 84 177.25 83.957031 177.25 83.898438 V 86.898438 C 177.25 86.953125 177.207031 87 177.148437 87 H 171.148437 C 171.09375 87 171.046875 86.957031 171.046875 86.898438 V 83.898438 C 171.046875 83.953125 171.089844 84 171.148437 84 H 165.148437 C 165.203125 84 165.25 83.957031 165.25 83.898438 V 86.898438 C 165.25 86.953125 165.207031 87 165.148437 87 H 159.148437 C 159.09375 87 159.046875 86.957031 159.046875 86.898438 V 83.898438 C 159.046875 83.953125 159.089844 84 159.148437 84 H 153.148437 C 153.203125 84 153.25 83.957031 153.25 83.898438 V 86.898438 C 153.25 86.953125 153.207031 87 153.148437 87 H 147.148437 C 147.09375 87 147.046875 86.957031 147.046875 86.898438 V 83.898438 C 147.046875 83.953125 147.089844 84 147.148437 84 H 141.148437 C 141.203125 84 141.25 83.957031 141.25 83.898438 V 86.898438 C 141.25 86.953125 141.207031 87 141.148437 87 H 135.148437 C 135.09375 87 135.046875 86.957031 135.046875 86.898438 V 83.898438 C 135.046875 83.953125 135.089844 84 135.148437 84 H 129.148437 C 129.203125 84 129.25 83.957031 129.25 83.898438 V 86.898438 C 129.25 86.953125 129.207031 87 129.148437 87 H 123.148437 C 123.09375 87 123.046875 86.957031 123.046875 86.898438 V 83.898438 C 123.046875 83.953125 123.089844 84 123.148437 84 H 117.148437 C 117.203125 84 117.25 83.957031 117.25 83.898438 V 86.898438 C 117.25 86.953125 117.207031 87 117.148437 87 H 111.148437 C 111.09375 87 111.046875 86.957031 111.046875 86.898438 V 83.898438 C 111.046875 83.953125 111.089844 84 111.148437 84 H 105.148437 C 105.203125 84 105.25 83.957031 105.25 83.898438 V 86.898438 C 105.25 86.953125 105.207031 87 105.148437 87 H 99.148437 C 99.09375 87 99.046875 86.957031 99.046875 86.898438 V 83.898438 C 99.046875 83.953125 99.089844 84 99.148437 84 H 93.148437 C 93.203125 84 93.25 83.957031 93.25 83.898438 V 86.898438 C 93.25 86.953125 93.207031 87 93.148437 87 H 87.148437 C 87.09375 87 87.046875 86.957031 87.046875 86.898438 V 83.898438 C 87.046875 83.953125 87.089844 84 87.148437 84 H 81.148437 C 81.203125 84 81.25 83.957031 81.25 83.898438 V 86.898438 C 81.25 86.953125 81.207031 87 81.148437 87 H 75.148437 C 75.09375 87 75.046875 86.957031 75.046875 86.898438 V 83.898438 C 75.046875 83.953125 75.089844 84 75.148437 84 H 69.148437 C 69.203125 84 69.25 83.957031 69.25 83.898438 V 86.898438 C 69.25 86.953125 69.207031 87 69.148437 87 H 63.148437 C 63.09375 87 63.046875 86.957031 63.046875 86.898438 V 83.898438 C 63.046875 83.953125 63.089844 84 63.148437 84 H 57.148437 C 57.203125 84 57.25 83.957031 57.25 83.898438 V 86.898438 C 57.25 86.953125 57.207031 87 57.148437 87 H 51.148437 C 51.09375 87 51.046875 86.957031 51.046875 86.898438 V 83.898438 C 51.046875 83.953125 51.089844 84 51.148437 84 H 45.148437 C 45.203125 84 45.25 83.957031 45.25 83.898438 V 86.898438 C 45.25 86.953125 45.207031 87 45.148437 87 H 39.148437 C 39.09375 87 39.046875 86.957031 39.046875 86.898438 V 83.898438 C 39.046875 83.953125 39.089844 84 39.148437 84 H 33.148437 C 33.203125 84 33.25 83.957031 33.25 83.898438 V 86.898438 C 33.25 86.953125 33.207031 87 33.148437 87 H 27.148437 C 27.09375 87 27.046875 86.957031 27.046875 86.898438 V 83.898438 C 27.046875 83.953125 27.089844 84 27.148437 84 H 21.148437 C 21.203125 84 21.25 83.957031 21.25 83.898438 V 86.898438 C 21.25 86.953125 21.207031 87 21.148437 87 H 15.148437 C 15.09375 87 15.046875 86.957031 15.046875 86.898438 V 83.898438 C 15.046875 83.953125 15.089844 84 15.148437 84 H 9.148437 C 9.203125 84 9.25 83.957031 9.25 83.898438 V 86.898438 C 9.25 86.953125 9.207031 87 9.148437 87 H -0.000000000000028422 L -3 87 C -3.054688 87 -3.101563 86.957031 -3.101563 86.898438 V 83.898438 L -3.101563 76.5 C -3.101563 76.445312 -3.058594 76.398438 -3 76.398438 H -0.000000000000028422 C -0.0546875 76.398438 -0.101563 76.441406 -0.101563 76.5 V 70.5 C -0.101563 70.554688 -0.0585938 70.601562 -0.000000000000028422 70.601562 H -3 C -3.054688 70.601562 -3.101563 70.558594 -3.101563 70.5 V 64.5 C -3.101563 64.445312 -3.058594 64.398438 -3 64.398438 H -0.000000000000028422 C -0.0546875 64.398438 -0.101563 64.441406 -0.101563 64.5 V 58.5 C -0.101563 58.554688 -0.0585938 58.601562 -0.000000000000028422 58.601562 H -3 C -3.054688 58.601562 -3.101563 58.558594 -3.101563 58.5 V 52.5 C -3.101563 52.445312 -3.058594 52.398438 -3 52.398438 H -0.000000000000028422 C -0.0546875 52.398438 -0.101563 52.441406 -0.101563 52.5 V 46.5 C -0.101563 46.554688 -0.0585938 46.601562 -0.000000000000028422 46.601562 H -3 C -3.054688 46.601562 -3.101563 46.558594 -3.101563 46.5 V 40.5 C -3.101563 40.445312 -3.058594 40.398438 -3 40.398438 H -0.000000000000028422 C -0.0546875 40.398438 -0.101563 40.441406 -0.101563 40.5 V 34.5 C -0.101563 34.554688 -0.0585938 34.601562 -0.000000000000028422 34.601562 H -3 C -3.054688 34.601562 -3.101563 34.558594 -3.101563 34.5 V 28.5 C -3.101563 28.445312 -3.058594 28.398438 -3 28.398438 H -0.000000000000028422 C -0.0546875 28.398438 -0.101563 28.441406 -0.101563 28.5 V 22.5 C -0.101563 22.554688 -0.0585938 22.601562 -0.000000000000028422 22.601562 H -3 C -3.054688 22.601562 -3.101563 22.558594 -3.101563 22.5 V 16.5 C -3.101563 16.445312 -3.058594 16.398438 -3 16.398438 H -0.000000000000028422 C -0.0546875 16.398438 -0.101563 16.441406 -0.101563 16.5 V 10.5 C -0.101563 10.554688 -0.0585938 10.601562 -0.000000000000028422 10.601562 H -3 C -3.054688 10.601562 -3.101563 10.558594 -3.101563 10.5 L -3.101562 3.101562 V 0.101562 C -3.101562 0.046875 -3.058594 0 -3 0 H 0 " style="fill:none;stroke-width:0.2;stroke-linecap:butt;stroke-linejoin:miter;stroke:rgb(0%,0%,0%);stroke-opacity:1;stroke-miterlimit:10;" transform="matrix(1.0000,0.0000,0.0000,-1.0000,237.1055,97.0000)"/>
</g>
</svg>