<?xml version="1.0" encoding="UTF-8"?>
<svg xmlns="http://www.w3.org/2000/svg" xmlns:xlink="http://www.w3.org/1999/xlink" width="360mm" height="300mm" viewBox="0 9700 360 300" version="1.1" style=""><script xmlns=""/>
<g id="surface3145">
<path style="fill:none;stroke-width:0.2;stroke-linecap:butt;stroke-linejoin:miter;stroke:rgb(0%,0%,0%);stroke-opacity:1;stroke-miterlimit:10;" d="M 0 0 L 7.75 0 M 7.75 0 C 7.695312 0 7.648438 0.0429688 7.648438 0.101562 M 7.648438 0.101562 L 7.648438 -2.898438 C 7.648438 -2.953125 7.691406 -3 7.75 -3 M 7.75 -3 L 13.75 -3 C 13.804688 -3 13.851562 -2.957031 13.851562 -2.898438 M 13.851562 -2.898438 L 13.851562 0.101562 C 13.851562 0.046875 13.808594 0 13.75 0 M 13.75 0 L 19.75 0 M 19.75 0 C 19.695312 0 19.648438 0.0429688 19.648438 0.101562 M 19.648438 0.101562 L 19.648438 -2.898438 C 19.648438 -2.953125 19.691406 -3 19.75 -3 M 19.75 -3 L 25.75 -3 C 25.804688 -3 25.851562 -2.957031 25.851562 -2.898438 M 25.851562 -2.898438 L 25.851562 0.101562 C 25.851562 0.046875 25.808594 0 25.75 0 M 25.75 0 L 31.75 0 M 31.75 0 C 31.695313 0 31.648438 0.0429688 31.648438 0.101562 M 31.648438 0.101562 L 31.648438 -2.898438 C 31.648438 -2.953125 31.691406 -3 31.75 -3 M 31.75 -3 L 37.75 -3 C 37.804688 -3 37.851562 -2.957031 37.851562 -2.898438 M 37.851562 -2.898438 L 37.851562 0.101562 C 37.851562 0.046875 37.808594 0 37.75 0 M 37.75 0 L 43.75 0 M 43.75 0 C 43.695312 0 43.648438 0.0429688 43.648438 0.101562 M 43.648438 0.101562 L 43.648438 -2.898438 C 43.648438 -2.953125 43.691406 -3 43.75 -3 M 43.75 -3 L 49.75 -3 C 49.804688 -3 49.851562 -2.957031 49.851562 -2.898438 M 49.851562 -2.898438 L 49.851562 0.101562 C 49.851562 0.046875 49.808594 0 49.75 0 M 49.75 0 L 57.5 0 M 57.5 0 L 60.5 0 C 60.554687 0 60.601562 0.0429688 60.601562 0.101562 M 60.601562 0.101562 L 60.601562 0.101562 M 60.601562 0.101562 L 60.601562 11.101562 M 60.601562 11.101562 C 60.601562 11.15625 60.558594 11.203125 60.5 11.203125 M 60.5 11.203125 L 57.5 11.203125 C 57.554687 11.203125 57.601562 11.160156 57.601562 11.101562 M 57.601562 11.101562 L 57.601562 17.101562 C 57.601562 17.046875 57.558594 17 57.5 17 M 57.5 17 L 60.5 17 C 60.554687 17 60.601562 17.042969 60.601562 17.101562 M 60.601562 17.101562 L 60.601562 23.101562 M 60.601562 23.101562 C 60.601562 23.15625 60.558594 23.203125 60.5 23.203125 M 60.5 23.203125 L 57.5 23.203125 C 57.554687 23.203125 57.601562 23.160156 57.601562 23.101562 M 57.601562 23.101562 L 57.601562 29.101562 C 57.601562 29.046875 57.558594 29 57.5 29 M 57.5 29 L 60.5 29 C 60.554687 29 60.601562 29.042969 60.601562 29.101562 M 60.601562 29.101562 L 60.601562 35.101562 M 60.601562 35.101562 C 60.601562 35.15625 60.558594 35.203125 60.5 35.203125 M 60.5 35.203125 L 57.5 35.203125 C 57.554687 35.203125 57.601562 35.160156 57.601562 35.101562 M 57.601562 35.101562 L 57.601562 41.101562 C 57.601562 41.046875 57.558594 41 57.5 41 M 57.5 41 L 60.5 41 C 60.554687 41 60.601562 41.042969 60.601562 41.101562 M 60.601562 41.101562 L 60.601562 47.101562 M 60.601562 47.101562 C 60.601562 47.15625 60.558594 47.203125 60.5 47.203125 M 60.5 47.203125 L 57.5 47.203125 C 57.554687 47.203125 57.601562 47.160156 57.601562 47.101562 M 57.601562 47.101562 L 57.601562 53.101562 C 57.601562 53.046875 57.558594 53 57.5 53 M 57.5 53 L 60.5 53 C 60.554687 53 60.601562 53.042969 60.601562 53.101562 M 60.601562 53.101562 L 60.601562 59.101562 M 60.601562 59.101562 C 60.601562 59.15625 60.558594 59.203125 60.5 59.203125 M 60.5 59.203125 L 57.5 59.203125 C 57.554687 59.203125 57.601562 59.160156 57.601562 59.101562 M 57.601562 59.101562 L 57.601562 65.101562 C 57.601562 65.046875 57.558594 65 57.5 65 M 57.5 65 L 60.5 65 C 60.554687 65 60.601562 65.042969 60.601562 65.101562 M 60.601562 65.101562 L 60.601562 71.101562 M 60.601562 71.101562 C 60.601562 71.15625 60.558594 71.203125 60.5 71.203125 M 60.5 71.203125 L 57.5 71.203125 C 57.554687 71.203125 57.601562 71.160156 57.601562 71.101562 M 57.601562 71.101562 L 57.601562 77.101562 C 57.601562 77.046875 57.558594 77 57.5 77 M 57.5 77 L 60.5 77 C 60.554687 77 60.601562 77.042969 60.601562 77.101562 M 60.601562 77.101562 L 60.601562 88.101562 M 60.601562 88.101562 C 60.601562 88.15625 60.558594 88.203125 60.5 88.203125 M 60.5 88.203125 L 57.5 88.203125 M 57.5 88.203125 L -0.000000000000021316 88.203125 M -0.000000000000021316 88.203125 L -3 88.203125 C -3.054688 88.203125 -3.101563 88.160156 -3.101563 88.101562 M -3.101563 88.101562 L -3.101563 88.101562 M -3.101563 88.101562 L -3.101563 77.101562 M -3.101563 77.101562 C -3.101563 77.046875 -3.058594 77 -3 77 M -3 77 L -0.000000000000018652 77 C -0.0546875 77 -0.101563 77.042969 -0.101563 77.101562 M -0.101563 77.101562 L -0.101563 71.101562 C -0.101563 71.15625 -0.0585938 71.203125 -0.000000000000017319 71.203125 M -0.000000000000017319 71.203125 L -3 71.203125 C -3.054688 71.203125 -3.101563 71.160156 -3.101563 71.101562 M -3.101563 71.101562 L -3.101563 65.101562 M -3.101563 65.101562 C -3.101563 65.046875 -3.058594 65 -3 65 M -3 65 L -0.000000000000015987 65 C -0.0546875 65 -0.101563 65.042969 -0.101563 65.101562 M -0.101563 65.101562 L -0.101563 59.101562 C -0.101563 59.15625 -0.0585938 59.203125 -0.000000000000014211 59.203125 M -0.000000000000014211 59.203125 L -3 59.203125 C -3.054688 59.203125 -3.101563 59.160156 -3.101563 59.101562 M -3.101563 59.101562 L -3.101563 53.101562 M -3.101563 53.101562 C -3.101563 53.046875 -3.058594 53 -3 53 M -3 53 L -0.000000000000012879 53 C -0.0546875 53 -0.101563 53.042969 -0.101563 53.101562 M -0.101563 53.101562 L -0.101563 47.101562 C -0.101563 47.15625 -0.0585938 47.203125 -0.000000000000011546 47.203125 M -0.000000000000011546 47.203125 L -3 47.203125 C -3.054688 47.203125 -3.101563 47.160156 -3.101563 47.101562 M -3.101563 47.101562 L -3.101563 41.101562 M -3.101563 41.101562 C -3.101563 41.046875 -3.058594 41 -3 41 M -3 41 L -0.00000000000000977 41 C -0.0546875 41 -0.101563 41.042969 -0.101563 41.101562 M -0.101563 41.101562 L -0.101563 35.101562 C -0.101563 35.15625 -0.0585938 35.203125 -0.000000000000008438 35.203125 M -0.000000000000008438 35.203125 L -3 35.203125 C -3.054688 35.203125 -3.101563 35.160156 -3.101563 35.101562 M -3.101563 35.101562 L -3.101563 29.101562 M -3.101563 29.101562 C -3.101563 29.046875 -3.058594 29 -3 29 M -3 29 L -0.000000000000007105 29 C -0.0546875 29 -0.101563 29.042969 -0.101563 29.101562 M -0.101563 29.101562 L -0.101563 23.101562 C -0.101563 23.15625 -0.0585938 23.203125 -0.000000000000005773 23.203125 M -0.000000000000005773 23.203125 L -3 23.203125 C -3.054688 23.203125 -3.101563 23.160156 -3.101563 23.101562 M -3.101563 23.101562 L -3.101563 17.101562 M -3.101563 17.101562 C -3.101563 17.046875 -3.058594 17 -3 17 M -3 17 L -0.000000000000003997 17 C -0.0546875 17 -0.101563 17.042969 -0.101563 17.101562 M -0.101563 17.101562 L -0.101563 11.101562 C -0.101563 11.15625 -0.0585938 11.203125 -0.000000000000002665 11.203125 M -0.000000000000002665 11.203125 L -3 11.203125 C -3.054688 11.203125 -3.101563 11.160156 -3.101563 11.101562 M -3.101563 11.101562 L -3.101562 0.101562 M -3.101562 0.101562 C -3.101562 0.046875 -3.058594 0 -3 0 M -3 0 L 0 0 " transform="matrix(1,0.000000000000000245,0.000000000000000245,-1,3.851562,9996.148438)"/>
<path style="fill:none;stroke-width:0.2;stroke-linecap:butt;stroke-linejoin:miter;stroke:rgb(0%,0%,0%);stroke-opacity:1;stroke-miterlimit:10;" d="M 0 0 L 6.5 0 M 6.5 0 C 6.445312 0 6.398438 0.0429688 6.398438 0.101562 M 6.398438 0.101562 L 6.398438 -2.898438 C 6.398438 -2.953125 6.441406 -3 6.5 -3 M 6.5 -3 L 12.5 -3 C 12.554688 -3 12.601562 -2.957031 12.601562 -2.898438 M 12.601562 -2.898438 L 12.601562 0.101562 C 12.601562 0.046875 12.558594 0 12.5 0 M 12.5 0 L 18.5 0 M 18.5 0 C 18.445312 0 18.398438 0.0429688 18.398438 0.101562 M 18.398438 0.101562 L 18.398438 -2.898438 C 18.398438 -2.953125 18.441406 -3 18.5 -3 M 18.5 -3 L 24.5 -3 C 24.554688 -3 24.601562 -2.957031 24.601562 -2.898438 M 24.601562 -2.898438 L 24.601562 0.101562 C 24.601562 0.046875 24.558594 0 24.5 0 M 24.5 0 L 30.5 0 M 30.5 0 C 30.445312 0 30.398438 0.0429688 30.398438 0.101562 M 30.398438 0.101562 L 30.398438 -2.898438 C 30.398438 -2.953125 30.441406 -3 30.5 -3 M 30.5 -3 L 36.5 -3 C 36.554688 -3 36.601562 -2.957031 36.601562 -2.898438 M 36.601562 -2.898438 L 36.601562 0.101562 C 36.601562 0.046875 36.558594 0 36.5 0 M 36.5 0 L 42.5 0 M 42.5 0 C 42.445312 0 42.398438 0.0429688 42.398438 0.101562 M 42.398438 0.101562 L 42.398438 -2.898438 C 42.398438 -2.953125 42.441406 -3 42.5 -3 M 42.5 -3 L 48.5 -3 C 48.554688 -3 48.601562 -2.957031 48.601562 -2.898438 M 48.601562 -2.898438 L 48.601562 0.101562 C 48.601562 0.046875 48.558594 0 48.5 0 M 48.5 0 L 54.5 0 M 54.5 0 C 54.445312 0 54.398438 0.0429688 54.398438 0.101562 M 54.398438 0.101562 L 54.398438 -2.898438 C 54.398438 -2.953125 54.441406 -3 54.5 -3 M 54.5 -3 L 60.5 -3 C 60.554688 -3 60.601562 -2.957031 60.601562 -2.898438 M 60.601562 -2.898438 L 60.601562 0.101562 C 60.601562 0.046875 60.558594 0 60.5 0 M 60.5 0 L 66.5 0 M 66.5 0 C 66.445312 0 66.398438 0.0429688 66.398438 0.101562 M 66.398438 0.101562 L 66.398438 -2.898438 C 66.398438 -2.953125 66.441406 -3 66.5 -3 M 66.5 -3 L 72.5 -3 C 72.554688 -3 72.601562 -2.957031 72.601562 -2.898438 M 72.601562 -2.898438 L 72.601562 0.101562 C 72.601562 0.046875 72.558594 0 72.5 0 M 72.5 0 L 78.5 0 M 78.5 0 C 78.445312 0 78.398438 0.0429688 78.398438 0.101562 M 78.398438 0.101562 L 78.398438 -2.898438 C 78.398438 -2.953125 78.441406 -3 78.5 -3 M 78.5 -3 L 84.5 -3 C 84.554688 -3 84.601562 -2.957031 84.601562 -2.898438 M 84.601562 -2.898438 L 84.601562 0.101562 C 84.601562 0.046875 84.558594 0 84.5 0 M 84.5 0 L 91 0 M 91 0 C 91.054688 0 91.101562 0.0429688 91.101562 0.101562 M 91.101562 0.101562 L 91.101562 0.101562 M 91.101562 0.101562 L 91.101562 11.101562 M 91.101562 11.101562 C 91.101562 11.046875 91.058594 11 91 11 M 91 11 L 94 11 C 94.054688 11 94.101562 11.042969 94.101562 11.101562 M 94.101562 11.101562 L 94.101562 17.101562 C 94.101562 17.15625 94.058594 17.203125 94 17.203125 M 94 17.203125 L 91 17.203125 C 91.054688 17.203125 91.101562 17.160156 91.101562 17.101562 M 91.101562 17.101562 L 91.101562 23.101562 M 91.101562 23.101562 C 91.101562 23.046875 91.058594 23 91 23 M 91 23 L 94 23 C 94.054688 23 94.101562 23.042969 94.101562 23.101562 M 94.101562 23.101562 L 94.101562 29.101562 C 94.101562 29.15625 94.058594 29.203125 94 29.203125 M 94 29.203125 L 91 29.203125 C 91.054688 29.203125 91.101562 29.160156 91.101562 29.101562 M 91.101562 29.101562 L 91.101562 35.101562 M 91.101562 35.101562 C 91.101562 35.046875 91.058594 35 91 35 M 91 35 L 94 35 C 94.054688 35 94.101562 35.042969 94.101562 35.101562 M 94.101562 35.101562 L 94.101562 41.101562 C 94.101562 41.15625 94.058594 41.203125 94 41.203125 M 94 41.203125 L 91 41.203125 C 91.054688 41.203125 91.101562 41.160156 91.101562 41.101562 M 91.101562 41.101562 L 91.101562 47.101562 M 91.101562 47.101562 C 91.101562 47.046875 91.058594 47 91 47 M 91 47 L 94 47 C 94.054688 47 94.101562 47.042969 94.101562 47.101562 M 94.101562 47.101562 L 94.101562 53.101562 C 94.101562 53.15625 94.058594 53.203125 94 53.203125 M 94 53.203125 L 91 53.203125 C 91.054688 53.203125 91.101562 53.160156 91.101562 53.101562 M 91.101562 53.101562 L 91.101562 59.101562 M 91.101562 59.101562 C 91.101562 59.046875 91.058594 59 91 59 M 91 59 L 94 59 C 94.054688 59 94.101562 59.042969 94.101562 59.101562 M 94.101562 59.101562 L 94.101562 65.101562 C 94.101562 65.15625 94.058594 65.203125 94 65.203125 M 94 65.203125 L 91 65.203125 C 91.054688 65.203125 91.101562 65.160156 91.101562 65.101562 M 91.101562 65.101562 L 91.101562 71.101562 M 91.101562 71.101562 C 91.101562 71.046875 91.058594 71 91 71 M 91 71 L 94 71 C 94.054688 71 94.101562 71.042969 94.101562 71.101562 M 94.101562 71.101562 L 94.101562 77.101562 C 94.101562 77.15625 94.058594 77.203125 94 77.203125 M 94 77.203125 L 91 77.203125 C 91.054687 77.203125 91.101562 77.160156 91.101562 77.101562 M 91.101562 77.101562 L 91.101562 88.101562 M 91.101562 88.101562 C 91.101562 88.15625 91.058594 88.203125 91 88.203125 M 91 88.203125 L 91 88.203125 M 91 88.203125 L -0.000000000000014211 88.203125 M -0.000000000000014211 88.203125 C -0.0546875 88.203125 -0.101563 88.160156 -0.101563 88.101562 M -0.101563 88.101562 L -0.101563 88.101562 M -0.101563 88.101562 L -0.101563 77.101562 M -0.101563 77.101562 C -0.101563 77.15625 -0.0585938 77.203125 -0.000000000000014211 77.203125 M -0.000000000000014211 77.203125 L -3 77.203125 C -3.054688 77.203125 -3.101563 77.160156 -3.101563 77.101562 M -3.101563 77.101562 L -3.101563 71.101562 C -3.101563 71.046875 -3.058594 71 -3 71 M -3 71 L -0.000000000000014211 71 C -0.0546875 71 -0.101563 71.042969 -0.101563 71.101562 M -0.101563 71.101562 L -0.101563 65.101562 M -0.101563 65.101562 C -0.101563 65.15625 -0.0585938 65.203125 -0.000000000000014211 65.203125 M -0.000000000000014211 65.203125 L -3 65.203125 C -3.054688 65.203125 -3.101563 65.160156 -3.101563 65.101562 M -3.101563 65.101562 L -3.101563 59.101562 C -3.101563 59.046875 -3.058594 59 -3 59 M -3 59 L -0.000000000000014211 59 C -0.0546875 59 -0.101563 59.042969 -0.101563 59.101562 M -0.101563 59.101562 L -0.101563 53.101562 M -0.101563 53.101562 C -0.101563 53.15625 -0.0585938 53.203125 -0.000000000000014211 53.203125 M -0.000000000000014211 53.203125 L -3 53.203125 C -3.054688 53.203125 -3.101563 53.160156 -3.101563 53.101562 M -3.101563 53.101562 L -3.101563 47.101562 C -3.101563 47.046875 -3.058594 47 -3 47 M -3 47 L -0.000000000000014211 47 C -0.0546875 47 -0.101563 47.042969 -0.101563 47.101562 M -0.101563 47.101562 L -0.101562 41.101562 M -0.101562 41.101562 C -0.101562 41.15625 -0.0585938 41.203125 0 41.203125 M 0 41.203125 L -3 41.203125 C -3.054688 41.203125 -3.101562 41.160156 -3.101562 41.101562 M -3.101562 41.101562 L -3.101562 35.101562 C -3.101562 35.046875 -3.058594 35 -3 35 M -3 35 L 0 35 C -0.0546875 35 -0.101562 35.042969 -0.101562 35.101562 M -0.101562 35.101562 L -0.101562 29.101562 M -0.101562 29.101562 C -0.101562 29.15625 -0.0585938 29.203125 0 29.203125 M 0 29.203125 L -3 29.203125 C -3.054688 29.203125 -3.101562 29.160156 -3.101562 29.101562 M -3.101562 29.101562 L -3.101562 23.101562 C -3.101562 23.046875 -3.058594 23 -3 23 M -3 23 L 0 23 C -0.0546875 23 -0.101562 23.042969 -0.101562 23.101562 M -0.101562 23.101562 L -0.101562 17.101562 M -0.101562 17.101562 C -0.101562 17.15625 -0.0585938 17.203125 0 17.203125 M 0 17.203125 L -3 17.203125 C -3.054688 17.203125 -3.101562 17.160156 -3.101562 17.101562 M -3.101562 17.101562 L -3.101562 11.101562 C -3.101562 11.046875 -3.058594 11 -3 11 M -3 11 L 0 11 C -0.0546875 11 -0.101562 11.042969 -0.101562 11.101562 M -0.101562 11.101562 L -0.101562 0.101562 M -0.101562 0.101562 C -0.101562 0.046875 -0.0585938 0 0 0 M 0 0 L 0 0 " transform="matrix(1,0.000000000000000245,0.000000000000000245,-1,69.050781,9996.148438)"/>
<path style="fill:none;stroke-width:0.2;stroke-linecap:butt;stroke-linejoin:miter;stroke:rgb(0%,0%,0%);stroke-opacity:1;stroke-miterlimit:10;" d="M 0 0 L 7.75 0 M 7.75 0 C 7.695312 0 7.648438 0.0429688 7.648438 0.101562 M 7.648438 0.101562 L 7.648438 -2.898438 C 7.648438 -2.953125 7.691406 -3 7.75 -3 M 7.75 -3 L 13.75 -3 C 13.804688 -3 13.851562 -2.957031 13.851562 -2.898438 M 13.851562 -2.898438 L 13.851562 0.101562 C 13.851562 0.046875 13.808594 0 13.75 0 M 13.75 0 L 19.75 0 M 19.75 0 C 19.695312 0 19.648438 0.0429688 19.648438 0.101562 M 19.648438 0.101562 L 19.648438 -2.898438 C 19.648438 -2.953125 19.691406 -3 19.75 -3 M 19.75 -3 L 25.75 -3 C 25.804688 -3 25.851562 -2.957031 25.851562 -2.898438 M 25.851562 -2.898438 L 25.851562 0.101562 C 25.851562 0.046875 25.808594 0 25.75 0 M 25.75 0 L 31.75 0 M 31.75 0 C 31.695312 0 31.648438 0.0429688 31.648438 0.101562 M 31.648438 0.101562 L 31.648438 -2.898438 C 31.648438 -2.953125 31.691406 -3 31.75 -3 M 31.75 -3 L 37.75 -3 C 37.804688 -3 37.851562 -2.957031 37.851562 -2.898438 M 37.851562 -2.898438 L 37.851562 0.101562 C 37.851562 0.046875 37.808594 0 37.75 0 M 37.75 0 L 43.75 0 M 43.75 0 C 43.695312 0 43.648438 0.0429688 43.648438 0.101562 M 43.648438 0.101562 L 43.648438 -2.898438 C 43.648438 -2.953125 43.691406 -3 43.75 -3 M 43.75 -3 L 49.75 -3 C 49.804688 -3 49.851562 -2.957031 49.851562 -2.898438 M 49.851562 -2.898438 L 49.851562 0.101562 C 49.851562 0.046875 49.808594 0 49.75 0 M 49.75 0 L 57.5 0 M 57.5 0 L 60.5 0 C 60.554688 0 60.601562 0.0429688 60.601562 0.101562 M 60.601562 0.101562 L 60.601562 0.101562 M 60.601562 0.101562 L 60.601562 11.101562 M 60.601562 11.101562 C 60.601562 11.15625 60.558594 11.203125 60.5 11.203125 M 60.5 11.203125 L 57.5 11.203125 C 57.554688 11.203125 57.601562 11.160156 57.601562 11.101562 M 57.601562 11.101562 L 57.601562 17.101562 C 57.601562 17.046875 57.558594 17 57.5 17 M 57.5 17 L 60.5 17 C 60.554688 17 60.601562 17.042969 60.601562 17.101562 M 60.601562 17.101562 L 60.601562 23.101562 M 60.601562 23.101562 C 60.601562 23.15625 60.558594 23.203125 60.5 23.203125 M 60.5 23.203125 L 57.5 23.203125 C 57.554688 23.203125 57.601562 23.160156 57.601562 23.101562 M 57.601562 23.101562 L 57.601562 29.101562 C 57.601562 29.046875 57.558594 29 57.5 29 M 57.5 29 L 60.5 29 C 60.554688 29 60.601562 29.042969 60.601562 29.101562 M 60.601562 29.101562 L 60.601562 35.101562 M 60.601562 35.101562 C 60.601562 35.15625 60.558594 35.203125 60.5 35.203125 M 60.5 35.203125 L 57.5 35.203125 C 57.554688 35.203125 57.601562 35.160156 57.601562 35.101562 M 57.601562 35.101562 L 57.601562 41.101562 C 57.601562 41.046875 57.558594 41 57.5 41 M 57.5 41 L 60.5 41 C 60.554688 41 60.601562 41.042969 60.601562 41.101562 M 60.601562 41.101562 L 60.601562 47.101562 M 60.601562 47.101562 C 60.601562 47.15625 60.558594 47.203125 60.5 47.203125 M 60.5 47.203125 L 57.5 47.203125 C 57.554688 47.203125 57.601562 47.160156 57.601562 47.101562 M 57.601562 47.101562 L 57.601562 53.101562 C 57.601562 53.046875 57.558594 53 57.5 53 M 57.5 53 L 60.5 53 C 60.554688 53 60.601562 53.042969 60.601562 53.101562 M 60.601562 53.101562 L 60.601562 59.101562 M 60.601562 59.101562 C 60.601562 59.15625 60.558594 59.203125 60.5 59.203125 M 60.5 59.203125 L 57.5 59.203125 C 57.554688 59.203125 57.601562 59.160156 57.601562 59.101562 M 57.601562 59.101562 L 57.601562 65.101562 C 57.601562 65.046875 57.558594 65 57.5 65 M 57.5 65 L 60.5 65 C 60.554688 65 60.601562 65.042969 60.601562 65.101562 M 60.601562 65.101562 L 60.601562 71.101562 M 60.601562 71.101562 C 60.601562 71.15625 60.558594 71.203125 60.5 71.203125 M 60.5 71.203125 L 57.5 71.203125 C 57.554688 71.203125 57.601562 71.160156 57.601562 71.101562 M 57.601562 71.101562 L 57.601562 77.101562 C 57.601562 77.046875 57.558594 77 57.5 77 M 57.5 77 L 60.5 77 C 60.554687 77 60.601562 77.042969 60.601562 77.101562 M 60.601562 77.101562 L 60.601562 88.101562 M 60.601562 88.101562 C 60.601562 88.15625 60.558594 88.203125 60.5 88.203125 M 60.5 88.203125 L 57.5 88.203125 M 57.5 88.203125 L -0.000000000000028422 88.203125 M -0.000000000000028422 88.203125 L -3 88.203125 C -3.054688 88.203125 -3.101563 88.160156 -3.101563 88.101562 M -3.101563 88.101562 L -3.101563 88.101562 M -3.101563 88.101562 L -3.101563 77.101562 M -3.101563 77.101562 C -3.101563 77.046875 -3.058594 77 -3 77 M -3 77 L -0.000000000000028422 77 C -0.0546875 77 -0.101563 77.042969 -0.101563 77.101562 M -0.101563 77.101562 L -0.101562 71.101562 C -0.101562 71.15625 -0.0585938 71.203125 0 71.203125 M 0 71.203125 L -3 71.203125 C -3.054688 71.203125 -3.101562 71.160156 -3.101562 71.101562 M -3.101562 71.101562 L -3.101562 65.101562 M -3.101562 65.101562 C -3.101562 65.046875 -3.058594 65 -3 65 M -3 65 L 0 65 C -0.0546875 65 -0.101562 65.042969 -0.101562 65.101562 M -0.101562 65.101562 L -0.101562 59.101562 C -0.101562 59.15625 -0.0585938 59.203125 0 59.203125 M 0 59.203125 L -3 59.203125 C -3.054688 59.203125 -3.101562 59.160156 -3.101562 59.101562 M -3.101562 59.101562 L -3.101562 53.101562 M -3.101562 53.101562 C -3.101562 53.046875 -3.058594 53 -3 53 M -3 53 L 0 53 C -0.0546875 53 -0.101562 53.042969 -0.101562 53.101562 M -0.101562 53.101562 L -0.101562 47.101562 C -0.101562 47.15625 -0.0585938 47.203125 0 47.203125 M 0 47.203125 L -3 47.203125 C -3.054688 47.203125 -3.101562 47.160156 -3.101562 47.101562 M -3.101562 47.101562 L -3.101562 41.101562 M -3.101562 41.101562 C -3.101562 41.046875 -3.058594 41 -3 41 M -3 41 L 0 41 C -0.0546875 41 -0.101562 41.042969 -0.101562 41.101562 M -0.101562 41.101562 L -0.101562 35.101562 C -0.101562 35.15625 -0.0585938 35.203125 0 35.203125 M 0 35.203125 L -3 35.203125 C -3.054688 35.203125 -3.101562 35.160156 -3.101562 35.101562 M -3.101562 35.101562 L -3.101562 29.101562 M -3.101562 29.101562 C -3.101562 29.046875 -3.058594 29 -3 29 M -3 29 L 0 29 C -0.0546875 29 -0.101562 29.042969 -0.101562 29.101562 M -0.101562 29.101562 L -0.101562 23.101562 C -0.101562 23.15625 -0.0585938 23.203125 0 23.203125 M 0 23.203125 L -3 23.203125 C -3.054688 23.203125 -3.101562 23.160156 -3.101562 23.101562 M -3.101562 23.101562 L -3.101562 17.101562 M -3.101562 17.101562 C -3.101562 17.046875 -3.058594 17 -3 17 M -3 17 L 0 17 C -0.0546875 17 -0.101562 17.042969 -0.101562 17.101562 M -0.101562 17.101562 L -0.101562 11.101562 C -0.101562 11.15625 -0.0585938 11.203125 0 11.203125 M 0 11.203125 L -3 11.203125 C -3.054688 11.203125 -3.101562 11.160156 -3.101562 11.101562 M -3.101562 11.101562 L -3.101562 0.101562 M -3.101562 0.101562 C -3.101562 0.046875 -3.058594 0 -3 0 M -3 0 L 0 0 " transform="matrix(1,0.000000000000000245,0.000000000000000245,-1,167.75,9996.148438)"/>
<path style="fill:none;stroke-width:0.2;stroke-linecap:butt;stroke-linejoin:miter;stroke:rgb(0%,0%,0%);stroke-opacity:1;stroke-miterlimit:10;" d="M 0 0 L 6.5 0 M 6.5 0 C 6.445312 0 6.398438 0.0429688 6.398438 0.101562 M 6.398438 0.101562 L 6.398438 -2.898438 C 6.398438 -2.953125 6.441406 -3 6.5 -3 M 6.5 -3 L 12.5 -3 C 12.554688 -3 12.601562 -2.957031 12.601562 -2.898438 M 12.601562 -2.898438 L 12.601562 0.101562 C 12.601562 0.046875 12.558594 0 12.5 0 M 12.5 0 L 18.5 0 M 18.5 0 C 18.445312 0 18.398438 0.0429688 18.398438 0.101562 M 18.398438 0.101562 L 18.398438 -2.898438 C 18.398438 -2.953125 18.441406 -3 18.5 -3 M 18.5 -3 L 24.5 -3 C 24.554688 -3 24.601562 -2.957031 24.601562 -2.898438 M 24.601562 -2.898438 L 24.601562 0.101562 C 24.601562 0.046875 24.558594 0 24.5 0 M 24.5 0 L 30.5 0 M 30.5 0 C 30.445312 0 30.398438 0.0429688 30.398438 0.101562 M 30.398438 0.101562 L 30.398438 -2.898438 C 30.398438 -2.953125 30.441406 -3 30.5 -3 M 30.5 -3 L 36.5 -3 C 36.554688 -3 36.601562 -2.957031 36.601562 -2.898438 M 36.601562 -2.898438 L 36.601562 0.101562 C 36.601562 0.046875 36.558594 0 36.5 0 M 36.5 0 L 42.5 0 M 42.5 0 C 42.445312 0 42.398438 0.0429688 42.398438 0.101562 M 42.398438 0.101562 L 42.398438 -2.898438 C 42.398438 -2.953125 42.441406 -3 42.5 -3 M 42.5 -3 L 48.5 -3 C 48.554688 -3 48.601562 -2.957031 48.601562 -2.898438 M 48.601562 -2.898438 L 48.601562 0.101562 C 48.601562 0.046875 48.558594 0 48.5 0 M 48.5 0 L 54.5 0 M 54.5 0 C 54.445312 0 54.398438 0.0429688 54.398438 0.101562 M 54.398438 0.101562 L 54.398438 -2.898438 C 54.398438 -2.953125 54.441406 -3 54.5 -3 M 54.5 -3 L 60.5 -3 C 60.554688 -3 60.601562 -2.957031 60.601562 -2.898438 M 60.601562 -2.898438 L 60.601562 0.101562 C 60.601562 0.046875 60.558594 0 60.5 0 M 60.5 0 L 66.5 0 M 66.5 0 C 66.445312 0 66.398438 0.0429688 66.398438 0.101562 M 66.398438 0.101562 L 66.398438 -2.898438 C 66.398438 -2.953125 66.441406 -3 66.5 -3 M 66.5 -3 L 72.5 -3 C 72.554688 -3 72.601562 -2.957031 72.601562 -2.898438 M 72.601562 -2.898438 L 72.601562 0.101562 C 72.601562 0.046875 72.558594 0 72.5 0 M 72.5 0 L 78.5 0 M 78.5 0 C 78.445312 0 78.398438 0.0429688 78.398438 0.101562 M 78.398438 0.101562 L 78.398438 -2.898438 C 78.398438 -2.953125 78.441406 -3 78.5 -3 M 78.5 -3 L 84.5 -3 C 84.554688 -3 84.601562 -2.957031 84.601562 -2.898438 M 84.601562 -2.898438 L 84.601562 0.101562 C 84.601562 0.046875 84.558594 0 84.5 0 M 84.5 0 L 91 0 M 91 0 C 91.054688 0 91.101562 0.0429688 91.101562 0.101562 M 91.101562 0.101562 L 91.101562 0.101562 M 91.101562 0.101562 L 91.101562 11.101562 M 91.101562 11.101562 C 91.101562 11.046875 91.058594 11 91 11 M 91 11 L 94 11 C 94.054688 11 94.101562 11.042969 94.101562 11.101562 M 94.101562 11.101562 L 94.101562 17.101562 C 94.101562 17.15625 94.058594 17.203125 94 17.203125 M 94 17.203125 L 91 17.203125 C 91.054688 17.203125 91.101562 17.160156 91.101562 17.101562 M 91.101562 17.101562 L 91.101562 23.101562 M 91.101562 23.101562 C 91.101562 23.046875 91.058594 23 91 23 M 91 23 L 94 23 C 94.054688 23 94.101562 23.042969 94.101562 23.101562 M 94.101562 23.101562 L 94.101562 29.101562 C 94.101562 29.15625 94.058594 29.203125 94 29.203125 M 94 29.203125 L 91 29.203125 C 91.054688 29.203125 91.101562 29.160156 91.101562 29.101562 M 91.101562 29.101562 L 91.101562 35.101562 M 91.101562 35.101562 C 91.101562 35.046875 91.058594 35 91 35 M 91 35 L 94 35 C 94.054688 35 94.101562 35.042969 94.101562 35.101562 M 94.101562 35.101562 L 94.101562 41.101562 C 94.101562 41.15625 94.058594 41.203125 94 41.203125 M 94 41.203125 L 91 41.203125 C 91.054688 41.203125 91.101562 41.160156 91.101562 41.101562 M 91.101562 41.101562 L 91.101562 47.101562 M 91.101562 47.101562 C 91.101562 47.046875 91.058594 47 91 47 M 91 47 L 94 47 C 94.054688 47 94.101562 47.042969 94.101562 47.101562 M 94.101562 47.101562 L 94.101562 53.101562 C 94.101562 53.15625 94.058594 53.203125 94 53.203125 M 94 53.203125 L 91 53.203125 C 91.054688 53.203125 91.101562 53.160156 91.101562 53.101562 M 91.101562 53.101562 L 91.101562 59.101562 M 91.101562 59.101562 C 91.101562 59.046875 91.058594 59 91 59 M 91 59 L 94 59 C 94.054688 59 94.101562 59.042969 94.101562 59.101562 M 94.101562 59.101562 L 94.101562 65.101562 C 94.101562 65.15625 94.058594 65.203125 94 65.203125 M 94 65.203125 L 91 65.203125 C 91.054688 65.203125 91.101562 65.160156 91.101562 65.101562 M 91.101562 65.101562 L 91.101562 71.101562 M 91.101562 71.101562 C 91.101562 71.046875 91.058594 71 91 71 M 91 71 L 94 71 C 94.054688 71 94.101562 71.042969 94.101562 71.101562 M 94.101562 71.101562 L 94.101562 77.101562 C 94.101562 77.15625 94.058594 77.203125 94 77.203125 M 94 77.203125 L 91 77.203125 C 91.054688 77.203125 91.101562 77.160156 91.101562 77.101562 M 91.101562 77.101562 L 91.101562 88.101562 M 91.101562 88.101562 C 91.101562 88.15625 91.058594 88.203125 91 88.203125 M 91 88.203125 L 91 88.203125 M 91 88.203125 L -0.000000000000028422 88.203125 M -0.000000000000028422 88.203125 C -0.0546875 88.203125 -0.101563 88.160156 -0.101563 88.101562 M -0.101563 88.101562 L -0.101563 88.101562 M -0.101563 88.101562 L -0.101563 77.101562 M -0.101563 77.101562 C -0.101563 77.15625 -0.0585938 77.203125 -0.000000000000028422 77.203125 M -0.000000000000028422 77.203125 L -3 77.203125 C -3.054688 77.203125 -3.101563 77.160156 -3.101563 77.101562 M -3.101563 77.101562 L -3.101562 71.101562 C -3.101562 71.046875 -3.058594 71 -3 71 M -3 71 L 0 71 C -0.0546875 71 -0.101562 71.042969 -0.101562 71.101562 M -0.101562 71.101562 L -0.101562 65.101562 M -0.101562 65.101562 C -0.101562 65.15625 -0.0585938 65.203125 0 65.203125 M 0 65.203125 L -3 65.203125 C -3.054688 65.203125 -3.101562 65.160156 -3.101562 65.101562 M -3.101562 65.101562 L -3.101562 59.101562 C -3.101562 59.046875 -3.058594 59 -3 59 M -3 59 L 0 59 C -0.0546875 59 -0.101562 59.042969 -0.101562 59.101562 M -0.101562 59.101562 L -0.101562 53.101562 M -0.101562 53.101562 C -0.101562 53.15625 -0.0585938 53.203125 0 53.203125 M 0 53.203125 L -3 53.203125 C -3.054688 53.203125 -3.101562 53.160156 -3.101562 53.101562 M -3.101562 53.101562 L -3.101562 47.101562 C -3.101562 47.046875 -3.058594 47 -3 47 M -3 47 L 0 47 C -0.0546875 47 -0.101562 47.042969 -0.101562 47.101562 M -0.101562 47.101562 L -0.101562 41.101562 M -0.101562 41.101562 C -0.101562 41.15625 -0.0585938 41.203125 0 41.203125 M 0 41.203125 L -3 41.203125 C -3.054688 41.203125 -3.101562 41.160156 -3.101562 41.101562 M -3.101562 41.101562 L -3.101562 35.101562 C -3.101562 35.046875 -3.058594 35 -3 35 M -3 35 L 0 35 C -0.0546875 35 -0.101562 35.042969 -0.101562 35.101562 M -0.101562 35.101562 L -0.101562 29.101562 M -0.101562 29.101562 C -0.101562 29.15625 -0.0585938 29.203125 0 29.203125 M 0 29.203125 L -3 29.203125 C -3.054688 29.203125 -3.101562 29.160156 -3.101562 29.101562 M -3.101562 29.101562 L -3.101562 23.101562 C -3.101562 23.046875 -3.058594 23 -3 23 M -3 23 L 0 23 C -0.0546875 23 -0.101562 23.042969 -0.101562 23.101562 M -0.101562 23.101562 L -0.101562 17.101562 M -0.101562 17.101562 C -0.101562 17.15625 -0.0585938 17.203125 0 17.203125 M 0 17.203125 L -3 17.203125 C -3.054688 17.203125 -3.101562 17.160156 -3.101562 17.101562 M -3.101562 17.101562 L -3.101562 11.101562 C -3.101562 11.046875 -3.058594 11 -3 11 M -3 11 L 0 11 C -0.0546875 11 -0.101562 11.042969 -0.101562 11.101562 M -0.101562 11.101562 L -0.101562 0.101562 M -0.101562 0.101562 C -0.101562 0.046875 -0.0585938 0 0 0 M 0 0 L 0 0 " transform="matrix(1,0.000000000000000245,0.000000000000000245,-1,232.949219,9996.148438)"/>
<path style="fill:none;stroke-width:0.2;stroke-linecap:butt;stroke-linejoin:miter;stroke:rgb(0%,0%,0%);stroke-opacity:1;stroke-miterlimit:10;" d="M 0.00390625 0 L 10.902344 0 M 10.902344 0 C 10.847656 0 10.800781 0.0429688 10.800781 0.101562 M 10.800781 0.101562 L 10.800781 -2.898438 C 10.800781 -2.953125 10.84375 -3 10.902344 -3 M 10.902344 -3 L 16.902344 -3 C 16.957031 -3 17.003906 -2.957031 17.003906 -2.898438 M 17.003906 -2.898438 L 17.003906 0.101562 C 17.003906 0.046875 16.960938 0 16.902344 0 M 16.902344 0 L 22.902344 0 M 22.902344 0 C 22.847656 0 22.800781 0.0429688 22.800781 0.101562 M 22.800781 0.101562 L 22.800781 -2.898438 C 22.800781 -2.953125 22.84375 -3 22.902344 -3 M 22.902344 -3 L 28.902344 -3 C 28.957031 -3 29.003906 -2.957031 29.003906 -2.898438 M 29.003906 -2.898438 L 29.003906 0.101562 C 29.003906 0.046875 28.960937 0 28.902344 0 M 28.902344 0 L 34.902344 0 M 34.902344 0 C 34.847656 0 34.800781 0.0429688 34.800781 0.101562 M 34.800781 0.101562 L 34.800781 -2.898438 C 34.800781 -2.953125 34.84375 -3 34.902344 -3 M 34.902344 -3 L 40.902344 -3 C 40.957031 -3 41.003906 -2.957031 41.003906 -2.898438 M 41.003906 -2.898438 L 41.003906 0.101562 C 41.003906 0.046875 40.960938 0 40.902344 0 M 40.902344 0 L 46.902344 0 M 46.902344 0 C 46.847656 0 46.800781 0.0429688 46.800781 0.101562 M 46.800781 0.101562 L 46.800781 -2.898438 C 46.800781 -2.953125 46.84375 -3 46.902344 -3 M 46.902344 -3 L 52.902344 -3 C 52.957031 -3 53.003906 -2.957031 53.003906 -2.898438 M 53.003906 -2.898438 L 53.003906 0.101562 C 53.003906 0.046875 52.960938 0 52.902344 0 M 52.902344 0 L 63.800781 0 M 63.800781 0 L 66.800781 0 C 66.855469 0 66.902344 0.0429688 66.902344 0.101562 M 66.902344 0.101562 L 66.902344 0.101562 M 66.902344 0.101562 L 66.902344 11.101562 M 66.902344 11.101562 C 66.902344 11.15625 66.859375 11.203125 66.800781 11.203125 M 66.800781 11.203125 L 63.800781 11.203125 C 63.855469 11.203125 63.902344 11.160156 63.902344 11.101562 M 63.902344 11.101562 L 63.902344 17.101562 C 63.902344 17.046875 63.859375 17 63.800781 17 M 63.800781 17 L 66.800781 17 C 66.855469 17 66.902344 17.042969 66.902344 17.101562 M 66.902344 17.101562 L 66.902344 23.101562 M 66.902344 23.101562 C 66.902344 23.15625 66.859375 23.203125 66.800781 23.203125 M 66.800781 23.203125 L 63.800781 23.203125 C 63.855469 23.203125 63.902344 23.160156 63.902344 23.101562 M 63.902344 23.101562 L 63.902344 29.101562 C 63.902344 29.046875 63.859375 29 63.800781 29 M 63.800781 29 L 66.800781 29 C 66.855469 29 66.902344 29.042969 66.902344 29.101562 M 66.902344 29.101562 L 66.902344 35.101562 M 66.902344 35.101562 C 66.902344 35.15625 66.859375 35.203125 66.800781 35.203125 M 66.800781 35.203125 L 63.800781 35.203125 C 63.855469 35.203125 63.902344 35.160156 63.902344 35.101562 M 63.902344 35.101562 L 63.902344 41.101562 C 63.902344 41.046875 63.859375 41 63.800781 41 M 63.800781 41 L 66.800781 41 C 66.855469 41 66.902344 41.042969 66.902344 41.101562 M 66.902344 41.101562 L 66.902344 47.101562 M 66.902344 47.101562 C 66.902344 47.15625 66.859375 47.203125 66.800781 47.203125 M 66.800781 47.203125 L 63.800781 47.203125 C 63.855469 47.203125 63.902344 47.160156 63.902344 47.101562 M 63.902344 47.101562 L 63.902344 53.101562 C 63.902344 53.046875 63.859375 53 63.800781 53 M 63.800781 53 L 66.800781 53 C 66.855469 53 66.902344 53.042969 66.902344 53.101562 M 66.902344 53.101562 L 66.902344 59.101562 M 66.902344 59.101562 C 66.902344 59.15625 66.859375 59.203125 66.800781 59.203125 M 66.800781 59.203125 L 63.800781 59.203125 C 63.855469 59.203125 63.902344 59.160156 63.902344 59.101562 M 63.902344 59.101562 L 63.902344 65.101562 C 63.902344 65.046875 63.859375 65 63.800781 65 M 63.800781 65 L 66.800781 65 C 66.855469 65 66.902344 65.042969 66.902344 65.101562 M 66.902344 65.101562 L 66.902344 71.101562 M 66.902344 71.101562 C 66.902344 71.15625 66.859375 71.203125 66.800781 71.203125 M 66.800781 71.203125 L 63.800781 71.203125 C 63.855469 71.203125 63.902344 71.160156 63.902344 71.101562 M 63.902344 71.101562 L 63.902344 77.101562 C 63.902344 77.046875 63.859375 77 63.800781 77 M 63.800781 77 L 66.800781 77 C 66.855469 77 66.902344 77.042969 66.902344 77.101562 M 66.902344 77.101562 L 66.902344 88.101562 M 66.902344 88.101562 C 66.902344 88.15625 66.859375 88.203125 66.800781 88.203125 M 66.800781 88.203125 L 63.800781 88.203125 M 63.800781 88.203125 L -0.00000000000002176 88.203125 M -0.00000000000002176 88.203125 L -3 88.203125 C -3.054688 88.203125 -3.101563 88.160156 -3.101563 88.101562 M -3.101563 88.101562 L -3.101563 88.101562 M -3.101563 88.101562 L -3.101563 77.101562 M -3.101563 77.101562 C -3.101563 77.046875 -3.058594 77 -3 77 M -3 77 L -0.000000000000018652 77 C -0.0546875 77 -0.101563 77.042969 -0.101563 77.101562 M -0.101563 77.101562 L -0.101563 71.101562 C -0.101563 71.15625 -0.0585938 71.203125 -0.000000000000017319 71.203125 M -0.000000000000017319 71.203125 L -3 71.203125 C -3.054688 71.203125 -3.101563 71.160156 -3.101563 71.101562 M -3.101563 71.101562 L -3.101563 65.101562 M -3.101563 65.101562 C -3.101563 65.046875 -3.058594 65 -3 65 M -3 65 L -0.000000000000015987 65 C -0.0546875 65 -0.101563 65.042969 -0.101563 65.101562 M -0.101563 65.101562 L -0.101563 59.101562 C -0.101563 59.15625 -0.0585938 59.203125 -0.000000000000014655 59.203125 M -0.000000000000014655 59.203125 L -3 59.203125 C -3.054688 59.203125 -3.101563 59.160156 -3.101563 59.101562 M -3.101563 59.101562 L -3.101563 53.101562 M -3.101563 53.101562 C -3.101563 53.046875 -3.058594 53 -3 53 M -3 53 L -0.000000000000012879 53 C -0.0546875 53 -0.101563 53.042969 -0.101563 53.101562 M -0.101563 53.101562 L -0.101563 47.101562 C -0.101563 47.15625 -0.0585938 47.203125 -0.000000000000011546 47.203125 M -0.000000000000011546 47.203125 L -3 47.203125 C -3.054688 47.203125 -3.101563 47.160156 -3.101563 47.101562 M -3.101563 47.101562 L -3.101563 41.101562 M -3.101563 41.101562 C -3.101563 41.046875 -3.058594 41 -3 41 M -3 41 L -0.000000000000010214 41 C -0.0546875 41 -0.101563 41.042969 -0.101563 41.101562 M -0.101563 41.101562 L -0.101563 35.101562 C -0.101563 35.15625 -0.0585938 35.203125 -0.000000000000008438 35.203125 M -0.000000000000008438 35.203125 L -3 35.203125 C -3.054688 35.203125 -3.101563 35.160156 -3.101563 35.101562 M -3.101563 35.101562 L -3.101563 29.101562 M -3.101563 29.101562 C -3.101563 29.046875 -3.058594 29 -3 29 M -3 29 L -0.000000000000007105 29 C -0.0546875 29 -0.101563 29.042969 -0.101563 29.101562 M -0.101563 29.101562 L -0.101563 23.101562 C -0.101563 23.15625 -0.0585938 23.203125 -0.000000000000005773 23.203125 M -0.000000000000005773 23.203125 L -3 23.203125 C -3.054688 23.203125 -3.101563 23.160156 -3.101563 23.101562 M -3.101563 23.101562 L -3.101563 17.101562 M -3.101563 17.101562 C -3.101563 17.046875 -3.058594 17 -3 17 M -3 17 L -0.000000000000003997 17 C -0.0546875 17 -0.101563 17.042969 -0.101563 17.101562 M -0.101563 17.101562 L -0.101563 11.101562 C -0.101563 11.15625 -0.0585938 11.203125 -0.000000000000002665 11.203125 M -0.000000000000002665 11.203125 L -3 11.203125 C -3.054688 11.203125 -3.101563 11.160156 -3.101563 11.101562 M -3.101563 11.101562 L -3.101562 0.101562 M -3.101562 0.101562 C -3.101562 0.046875 -3.058594 0 -3 0 M -3 0 L 0 0 " transform="matrix(1,0.000000000000000245,0.000000000000000245,-1,3.847656,9903.449219)"/>
<path style="fill:none;stroke-width:0.2;stroke-linecap:butt;stroke-linejoin:miter;stroke:rgb(0%,0%,0%);stroke-opacity:1;stroke-miterlimit:10;" d="M 0.00390625 0 L 9.652344 0 M 9.652344 0 C 9.597656 0 9.550781 0.0429688 9.550781 0.101562 M 9.550781 0.101562 L 9.550781 -2.898438 C 9.550781 -2.953125 9.59375 -3 9.652344 -3 M 9.652344 -3 L 15.652344 -3 C 15.707031 -3 15.753906 -2.957031 15.753906 -2.898438 M 15.753906 -2.898438 L 15.753906 0.101562 C 15.753906 0.046875 15.710938 0 15.652344 0 M 15.652344 0 L 21.652344 0 M 21.652344 0 C 21.597656 0 21.550781 0.0429688 21.550781 0.101562 M 21.550781 0.101562 L 21.550781 -2.898438 C 21.550781 -2.953125 21.59375 -3 21.652344 -3 M 21.652344 -3 L 27.652344 -3 C 27.707031 -3 27.753906 -2.957031 27.753906 -2.898438 M 27.753906 -2.898438 L 27.753906 0.101562 C 27.753906 0.046875 27.710938 0 27.652344 0 M 27.652344 0 L 33.652344 0 M 33.652344 0 C 33.597656 0 33.550781 0.0429688 33.550781 0.101562 M 33.550781 0.101562 L 33.550781 -2.898438 C 33.550781 -2.953125 33.59375 -3 33.652344 -3 M 33.652344 -3 L 39.652344 -3 C 39.707031 -3 39.753906 -2.957031 39.753906 -2.898438 M 39.753906 -2.898438 L 39.753906 0.101562 C 39.753906 0.046875 39.710938 0 39.652344 0 M 39.652344 0 L 45.652344 0 M 45.652344 0 C 45.597656 0 45.550781 0.0429688 45.550781 0.101562 M 45.550781 0.101562 L 45.550781 -2.898438 C 45.550781 -2.953125 45.59375 -3 45.652344 -3 M 45.652344 -3 L 51.652344 -3 C 51.707031 -3 51.753906 -2.957031 51.753906 -2.898438 M 51.753906 -2.898438 L 51.753906 0.101562 C 51.753906 0.046875 51.710938 0 51.652344 0 M 51.652344 0 L 57.652344 0 M 57.652344 0 C 57.597656 0 57.550781 0.0429688 57.550781 0.101562 M 57.550781 0.101562 L 57.550781 -2.898438 C 57.550781 -2.953125 57.59375 -3 57.652344 -3 M 57.652344 -3 L 63.652344 -3 C 63.707031 -3 63.753906 -2.957031 63.753906 -2.898438 M 63.753906 -2.898438 L 63.753906 0.101562 C 63.753906 0.046875 63.710937 0 63.652344 0 M 63.652344 0 L 69.652344 0 M 69.652344 0 C 69.597656 0 69.550781 0.0429688 69.550781 0.101562 M 69.550781 0.101562 L 69.550781 -2.898438 C 69.550781 -2.953125 69.59375 -3 69.652344 -3 M 69.652344 -3 L 75.652344 -3 C 75.707031 -3 75.753906 -2.957031 75.753906 -2.898438 M 75.753906 -2.898438 L 75.753906 0.101562 C 75.753906 0.046875 75.710937 0 75.652344 0 M 75.652344 0 L 81.652344 0 M 81.652344 0 C 81.597656 0 81.550781 0.0429688 81.550781 0.101562 M 81.550781 0.101562 L 81.550781 -2.898438 C 81.550781 -2.953125 81.59375 -3 81.652344 -3 M 81.652344 -3 L 87.652344 -3 C 87.707031 -3 87.753906 -2.957031 87.753906 -2.898438 M 87.753906 -2.898438 L 87.753906 0.101562 C 87.753906 0.046875 87.710937 0 87.652344 0 M 87.652344 0 L 97.300781 0 M 97.300781 0 C 97.355469 0 97.402344 0.0429688 97.402344 0.101562 M 97.402344 0.101562 L 97.402344 0.101562 M 97.402344 0.101562 L 97.402344 11.101562 M 97.402344 11.101562 C 97.402344 11.046875 97.359375 11 97.300781 11 M 97.300781 11 L 100.300781 11 C 100.355469 11 100.402344 11.042969 100.402344 11.101562 M 100.402344 11.101562 L 100.402344 17.101562 C 100.402344 17.15625 100.359375 17.203125 100.300781 17.203125 M 100.300781 17.203125 L 97.300781 17.203125 C 97.355469 17.203125 97.402344 17.160156 97.402344 17.101562 M 97.402344 17.101562 L 97.402344 23.101562 M 97.402344 23.101562 C 97.402344 23.046875 97.359375 23 97.300781 23 M 97.300781 23 L 100.300781 23 C 100.355469 23 100.402344 23.042969 100.402344 23.101562 M 100.402344 23.101562 L 100.402344 29.101562 C 100.402344 29.15625 100.359375 29.203125 100.300781 29.203125 M 100.300781 29.203125 L 97.300781 29.203125 C 97.355469 29.203125 97.402344 29.160156 97.402344 29.101562 M 97.402344 29.101562 L 97.402344 35.101562 M 97.402344 35.101562 C 97.402344 35.046875 97.359375 35 97.300781 35 M 97.300781 35 L 100.300781 35 C 100.355469 35 100.402344 35.042969 100.402344 35.101562 M 100.402344 35.101562 L 100.402344 41.101562 C 100.402344 41.15625 100.359375 41.203125 100.300781 41.203125 M 100.300781 41.203125 L 97.300781 41.203125 C 97.355469 41.203125 97.402344 41.160156 97.402344 41.101562 M 97.402344 41.101562 L 97.402344 47.101562 M 97.402344 47.101562 C 97.402344 47.046875 97.359375 47 97.300781 47 M 97.300781 47 L 100.300781 47 C 100.355469 47 100.402344 47.042969 100.402344 47.101562 M 100.402344 47.101562 L 100.402344 53.101562 C 100.402344 53.15625 100.359375 53.203125 100.300781 53.203125 M 100.300781 53.203125 L 97.300781 53.203125 C 97.355469 53.203125 97.402344 53.160156 97.402344 53.101562 M 97.402344 53.101562 L 97.402344 59.101562 M 97.402344 59.101562 C 97.402344 59.046875 97.359375 59 97.300781 59 M 97.300781 59 L 100.300781 59 C 100.355469 59 100.402344 59.042969 100.402344 59.101562 M 100.402344 59.101562 L 100.402344 65.101562 C 100.402344 65.15625 100.359375 65.203125 100.300781 65.203125 M 100.300781 65.203125 L 97.300781 65.203125 C 97.355469 65.203125 97.402344 65.160156 97.402344 65.101562 M 97.402344 65.101562 L 97.402344 71.101562 M 97.402344 71.101562 C 97.402344 71.046875 97.359375 71 97.300781 71 M 97.300781 71 L 100.300781 71 C 100.355469 71 100.402344 71.042969 100.402344 71.101562 M 100.402344 71.101562 L 100.402344 77.101562 C 100.402344 77.15625 100.359375 77.203125 100.300781 77.203125 M 100.300781 77.203125 L 97.300781 77.203125 C 97.355469 77.203125 97.402344 77.160156 97.402344 77.101562 M 97.402344 77.101562 L 97.402344 88.101562 M 97.402344 88.101562 C 97.402344 88.15625 97.359375 88.203125 97.300781 88.203125 M 97.300781 88.203125 L 97.300781 88.203125 M 97.300781 88.203125 L -0.000000000000028422 88.203125 M -0.000000000000028422 88.203125 C -0.0546875 88.203125 -0.101563 88.160156 -0.101563 88.101562 M -0.101563 88.101562 L -0.101563 88.101562 M -0.101563 88.101562 L -0.101563 77.101562 M -0.101563 77.101562 C -0.101563 77.15625 -0.0585938 77.203125 -0.000000000000028422 77.203125 M -0.000000000000028422 77.203125 L -3 77.203125 C -3.054688 77.203125 -3.101563 77.160156 -3.101563 77.101562 M -3.101563 77.101562 L -3.101563 71.101562 C -3.101563 71.046875 -3.058594 71 -3 71 M -3 71 L -0.000000000000028422 71 C -0.0546875 71 -0.101563 71.042969 -0.101563 71.101562 M -0.101563 71.101562 L -0.101563 65.101562 M -0.101563 65.101562 C -0.101563 65.15625 -0.0585938 65.203125 -0.000000000000014211 65.203125 M -0.000000000000014211 65.203125 L -3 65.203125 C -3.054688 65.203125 -3.101563 65.160156 -3.101563 65.101562 M -3.101563 65.101562 L -3.101563 59.101562 C -3.101563 59.046875 -3.058594 59 -3 59 M -3 59 L -0.000000000000014211 59 C -0.0546875 59 -0.101563 59.042969 -0.101563 59.101562 M -0.101563 59.101562 L -0.101563 53.101562 M -0.101563 53.101562 C -0.101563 53.15625 -0.0585938 53.203125 -0.000000000000014211 53.203125 M -0.000000000000014211 53.203125 L -3 53.203125 C -3.054688 53.203125 -3.101563 53.160156 -3.101563 53.101562 M -3.101563 53.101562 L -3.101563 47.101562 C -3.101563 47.046875 -3.058594 47 -3 47 M -3 47 L -0.000000000000014211 47 C -0.0546875 47 -0.101563 47.042969 -0.101563 47.101562 M -0.101563 47.101562 L -0.101563 41.101562 M -0.101563 41.101562 C -0.101563 41.15625 -0.0585938 41.203125 -0.000000000000014211 41.203125 M -0.000000000000014211 41.203125 L -3 41.203125 C -3.054688 41.203125 -3.101563 41.160156 -3.101563 41.101562 M -3.101563 41.101562 L -3.101563 35.101562 C -3.101563 35.046875 -3.058594 35 -3 35 M -3 35 L -0.000000000000014211 35 C -0.0546875 35 -0.101563 35.042969 -0.101563 35.101562 M -0.101563 35.101562 L -0.101563 29.101562 M -0.101563 29.101562 C -0.101563 29.15625 -0.0585938 29.203125 -0.000000000000014211 29.203125 M -0.000000000000014211 29.203125 L -3 29.203125 C -3.054688 29.203125 -3.101563 29.160156 -3.101563 29.101562 M -3.101563 29.101562 L -3.101563 23.101562 C -3.101563 23.046875 -3.058594 23 -3 23 M -3 23 L -0.000000000000014211 23 C -0.0546875 23 -0.101563 23.042969 -0.101563 23.101562 M -0.101563 23.101562 L -0.101563 17.101562 M -0.101563 17.101562 C -0.101563 17.15625 -0.0585938 17.203125 -0.000000000000014211 17.203125 M -0.000000000000014211 17.203125 L -3 17.203125 C -3.054688 17.203125 -3.101563 17.160156 -3.101563 17.101562 M -3.101563 17.101562 L -3.101563 11.101562 C -3.101563 11.046875 -3.058594 11 -3 11 M -3 11 L 0 11 C -0.0546875 11 -0.101563 11.042969 -0.101563 11.101562 M -0.101563 11.101562 L -0.101562 0.101562 M -0.101562 0.101562 C -0.101562 0.046875 -0.0585938 0 0 0 M 0 0 L 0 0 " transform="matrix(1,0.000000000000000245,0.000000000000000245,-1,75.347656,9903.449219)"/>
<path style="fill:none;stroke-width:0.2;stroke-linecap:butt;stroke-linejoin:miter;stroke:rgb(0%,0%,0%);stroke-opacity:1;stroke-miterlimit:10;" d="M 0.00390625 0 L 10.902344 0 M 10.902344 0 C 10.847656 0 10.800781 0.0429688 10.800781 0.101562 M 10.800781 0.101562 L 10.800781 -2.898438 C 10.800781 -2.953125 10.84375 -3 10.902344 -3 M 10.902344 -3 L 16.902344 -3 C 16.957031 -3 17.003906 -2.957031 17.003906 -2.898438 M 17.003906 -2.898438 L 17.003906 0.101562 C 17.003906 0.046875 16.960938 0 16.902344 0 M 16.902344 0 L 22.902344 0 M 22.902344 0 C 22.847656 0 22.800781 0.0429688 22.800781 0.101562 M 22.800781 0.101562 L 22.800781 -2.898438 C 22.800781 -2.953125 22.84375 -3 22.902344 -3 M 22.902344 -3 L 28.902344 -3 C 28.957031 -3 29.003906 -2.957031 29.003906 -2.898438 M 29.003906 -2.898438 L 29.003906 0.101562 C 29.003906 0.046875 28.960938 0 28.902344 0 M 28.902344 0 L 34.902344 0 M 34.902344 0 C 34.847656 0 34.800781 0.0429688 34.800781 0.101562 M 34.800781 0.101562 L 34.800781 -2.898438 C 34.800781 -2.953125 34.84375 -3 34.902344 -3 M 34.902344 -3 L 40.902344 -3 C 40.957031 -3 41.003906 -2.957031 41.003906 -2.898438 M 41.003906 -2.898438 L 41.003906 0.101562 C 41.003906 0.046875 40.960938 0 40.902344 0 M 40.902344 0 L 46.902344 0 M 46.902344 0 C 46.847656 0 46.800781 0.0429688 46.800781 0.101562 M 46.800781 0.101562 L 46.800781 -2.898438 C 46.800781 -2.953125 46.84375 -3 46.902344 -3 M 46.902344 -3 L 52.902344 -3 C 52.957031 -3 53.003906 -2.957031 53.003906 -2.898438 M 53.003906 -2.898438 L 53.003906 0.101562 C 53.003906 0.046875 52.960938 0 52.902344 0 M 52.902344 0 L 63.800781 0 M 63.800781 0 L 66.800781 0 C 66.855469 0 66.902344 0.0429688 66.902344 0.101562 M 66.902344 0.101562 L 66.902344 0.101562 M 66.902344 0.101562 L 66.902344 11.101562 M 66.902344 11.101562 C 66.902344 11.15625 66.859375 11.203125 66.800781 11.203125 M 66.800781 11.203125 L 63.800781 11.203125 C 63.855469 11.203125 63.902344 11.160156 63.902344 11.101562 M 63.902344 11.101562 L 63.902344 17.101562 C 63.902344 17.046875 63.859375 17 63.800781 17 M 63.800781 17 L 66.800781 17 C 66.855469 17 66.902344 17.042969 66.902344 17.101562 M 66.902344 17.101562 L 66.902344 23.101562 M 66.902344 23.101562 C 66.902344 23.15625 66.859375 23.203125 66.800781 23.203125 M 66.800781 23.203125 L 63.800781 23.203125 C 63.855469 23.203125 63.902344 23.160156 63.902344 23.101562 M 63.902344 23.101562 L 63.902344 29.101562 C 63.902344 29.046875 63.859375 29 63.800781 29 M 63.800781 29 L 66.800781 29 C 66.855469 29 66.902344 29.042969 66.902344 29.101562 M 66.902344 29.101562 L 66.902344 35.101562 M 66.902344 35.101562 C 66.902344 35.15625 66.859375 35.203125 66.800781 35.203125 M 66.800781 35.203125 L 63.800781 35.203125 C 63.855469 35.203125 63.902344 35.160156 63.902344 35.101562 M 63.902344 35.101562 L 63.902344 41.101562 C 63.902344 41.046875 63.859375 41 63.800781 41 M 63.800781 41 L 66.800781 41 C 66.855469 41 66.902344 41.042969 66.902344 41.101562 M 66.902344 41.101562 L 66.902344 47.101562 M 66.902344 47.101562 C 66.902344 47.15625 66.859375 47.203125 66.800781 47.203125 M 66.800781 47.203125 L 63.800781 47.203125 C 63.855469 47.203125 63.902344 47.160156 63.902344 47.101562 M 63.902344 47.101562 L 63.902344 53.101562 C 63.902344 53.046875 63.859375 53 63.800781 53 M 63.800781 53 L 66.800781 53 C 66.855469 53 66.902344 53.042969 66.902344 53.101562 M 66.902344 53.101562 L 66.902344 59.101562 M 66.902344 59.101562 C 66.902344 59.15625 66.859375 59.203125 66.800781 59.203125 M 66.800781 59.203125 L 63.800781 59.203125 C 63.855469 59.203125 63.902344 59.160156 63.902344 59.101562 M 63.902344 59.101562 L 63.902344 65.101562 C 63.902344 65.046875 63.859375 65 63.800781 65 M 63.800781 65 L 66.800781 65 C 66.855469 65 66.902344 65.042969 66.902344 65.101562 M 66.902344 65.101562 L 66.902344 71.101562 M 66.902344 71.101562 C 66.902344 71.15625 66.859375 71.203125 66.800781 71.203125 M 66.800781 71.203125 L 63.800781 71.203125 C 63.855469 71.203125 63.902344 71.160156 63.902344 71.101562 M 63.902344 71.101562 L 63.902344 77.101562 C 63.902344 77.046875 63.859375 77 63.800781 77 M 63.800781 77 L 66.800781 77 C 66.855469 77 66.902344 77.042969 66.902344 77.101562 M 66.902344 77.101562 L 66.902344 88.101562 M 66.902344 88.101562 C 66.902344 88.15625 66.859375 88.203125 66.800781 88.203125 M 66.800781 88.203125 L 63.800781 88.203125 M 63.800781 88.203125 L 0 88.203125 M 0 88.203125 L -3 88.203125 C -3.054688 88.203125 -3.101562 88.160156 -3.101562 88.101562 M -3.101562 88.101562 L -3.101562 88.101562 M -3.101562 88.101562 L -3.101562 77.101562 M -3.101562 77.101562 C -3.101562 77.046875 -3.058594 77 -3 77 M -3 77 L 0 77 C -0.0546875 77 -0.101562 77.042969 -0.101562 77.101562 M -0.101562 77.101562 L -0.101562 71.101562 C -0.101562 71.15625 -0.0585938 71.203125 0 71.203125 M 0 71.203125 L -3 71.203125 C -3.054688 71.203125 -3.101562 71.160156 -3.101562 71.101562 M -3.101562 71.101562 L -3.101562 65.101562 M -3.101562 65.101562 C -3.101562 65.046875 -3.058594 65 -3 65 M -3 65 L 0 65 C -0.0546875 65 -0.101562 65.042969 -0.101562 65.101562 M -0.101562 65.101562 L -0.101562 59.101562 C -0.101562 59.15625 -0.0585938 59.203125 0 59.203125 M 0 59.203125 L -3 59.203125 C -3.054688 59.203125 -3.101562 59.160156 -3.101562 59.101562 M -3.101562 59.101562 L -3.101562 53.101562 M -3.101562 53.101562 C -3.101562 53.046875 -3.058594 53 -3 53 M -3 53 L 0 53 C -0.0546875 53 -0.101562 53.042969 -0.101562 53.101562 M -0.101562 53.101562 L -0.101562 47.101562 C -0.101562 47.15625 -0.0585938 47.203125 0 47.203125 M 0 47.203125 L -3 47.203125 C -3.054688 47.203125 -3.101562 47.160156 -3.101562 47.101562 M -3.101562 47.101562 L -3.101562 41.101562 M -3.101562 41.101562 C -3.101562 41.046875 -3.058594 41 -3 41 M -3 41 L 0 41 C -0.0546875 41 -0.101562 41.042969 -0.101562 41.101562 M -0.101562 41.101562 L -0.101562 35.101562 C -0.101562 35.15625 -0.0585938 35.203125 0 35.203125 M 0 35.203125 L -3 35.203125 C -3.054688 35.203125 -3.101562 35.160156 -3.101562 35.101562 M -3.101562 35.101562 L -3.101562 29.101562 M -3.101562 29.101562 C -3.101562 29.046875 -3.058594 29 -3 29 M -3 29 L 0 29 C -0.0546875 29 -0.101562 29.042969 -0.101562 29.101562 M -0.101562 29.101562 L -0.101562 23.101562 C -0.101562 23.15625 -0.0585938 23.203125 0 23.203125 M 0 23.203125 L -3 23.203125 C -3.054688 23.203125 -3.101562 23.160156 -3.101562 23.101562 M -3.101562 23.101562 L -3.101562 17.101562 M -3.101562 17.101562 C -3.101562 17.046875 -3.058594 17 -3 17 M -3 17 L 0 17 C -0.0546875 17 -0.101562 17.042969 -0.101562 17.101562 M -0.101562 17.101562 L -0.101562 11.101562 C -0.101562 11.15625 -0.0585938 11.203125 0 11.203125 M 0 11.203125 L -3 11.203125 C -3.054688 11.203125 -3.101562 11.160156 -3.101562 11.101562 M -3.101562 11.101562 L -3.101562 0.101562 M -3.101562 0.101562 C -3.101562 0.046875 -3.058594 0 -3 0 M -3 0 L 0 0 " transform="matrix(1,0.000000000000000245,0.000000000000000245,-1,180.347656,9903.449219)"/>
<path style="fill:none;stroke-width:0.2;stroke-linecap:butt;stroke-linejoin:miter;stroke:rgb(0%,0%,0%);stroke-opacity:1;stroke-miterlimit:10;" d="M 0.00390625 0 L 9.652344 0 M 9.652344 0 C 9.597656 0 9.550781 0.0429688 9.550781 0.101562 M 9.550781 0.101562 L 9.550781 -2.898438 C 9.550781 -2.953125 9.59375 -3 9.652344 -3 M 9.652344 -3 L 15.652344 -3 C 15.707031 -3 15.753906 -2.957031 15.753906 -2.898438 M 15.753906 -2.898438 L 15.753906 0.101562 C 15.753906 0.046875 15.710938 0 15.652344 0 M 15.652344 0 L 21.652344 0 M 21.652344 0 C 21.597656 0 21.550781 0.0429688 21.550781 0.101562 M 21.550781 0.101562 L 21.550781 -2.898438 C 21.550781 -2.953125 21.59375 -3 21.652344 -3 M 21.652344 -3 L 27.652344 -3 C 27.707031 -3 27.753906 -2.957031 27.753906 -2.898438 M 27.753906 -2.898438 L 27.753906 0.101562 C 27.753906 0.046875 27.710938 0 27.652344 0 M 27.652344 0 L 33.652344 0 M 33.652344 0 C 33.597656 0 33.550781 0.0429688 33.550781 0.101562 M 33.550781 0.101562 L 33.550781 -2.898438 C 33.550781 -2.953125 33.59375 -3 33.652344 -3 M 33.652344 -3 L 39.652344 -3 C 39.707031 -3 39.753906 -2.957031 39.753906 -2.898438 M 39.753906 -2.898438 L 39.753906 0.101562 C 39.753906 0.046875 39.710938 0 39.652344 0 M 39.652344 0 L 45.652344 0 M 45.652344 0 C 45.597656 0 45.550781 0.0429688 45.550781 0.101562 M 45.550781 0.101562 L 45.550781 -2.898438 C 45.550781 -2.953125 45.59375 -3 45.652344 -3 M 45.652344 -3 L 51.652344 -3 C 51.707031 -3 51.753906 -2.957031 51.753906 -2.898438 M 51.753906 -2.898438 L 51.753906 0.101562 C 51.753906 0.046875 51.710938 0 51.652344 0 M 51.652344 0 L 57.652344 0 M 57.652344 0 C 57.597656 0 57.550781 0.0429688 57.550781 0.101562 M 57.550781 0.101562 L 57.550781 -2.898438 C 57.550781 -2.953125 57.59375 -3 57.652344 -3 M 57.652344 -3 L 63.652344 -3 C 63.707031 -3 63.753906 -2.957031 63.753906 -2.898438 M 63.753906 -2.898438 L 63.753906 0.101562 C 63.753906 0.046875 63.710938 0 63.652344 0 M 63.652344 0 L 69.652344 0 M 69.652344 0 C 69.597656 0 69.550781 0.0429688 69.550781 0.101562 M 69.550781 0.101562 L 69.550781 -2.898438 C 69.550781 -2.953125 69.59375 -3 69.652344 -3 M 69.652344 -3 L 75.652344 -3 C 75.707031 -3 75.753906 -2.957031 75.753906 -2.898438 M 75.753906 -2.898438 L 75.753906 0.101562 C 75.753906 0.046875 75.710938 0 75.652344 0 M 75.652344 0 L 81.652344 0 M 81.652344 0 C 81.597656 0 81.550781 0.0429688 81.550781 0.101562 M 81.550781 0.101562 L 81.550781 -2.898438 C 81.550781 -2.953125 81.59375 -3 81.652344 -3 M 81.652344 -3 L 87.652344 -3 C 87.707031 -3 87.753906 -2.957031 87.753906 -2.898438 M 87.753906 -2.898438 L 87.753906 0.101562 C 87.753906 0.046875 87.710938 0 87.652344 0 M 87.652344 0 L 97.300781 0 M 97.300781 0 C 97.355469 0 97.402344 0.0429688 97.402344 0.101562 M 97.402344 0.101562 L 97.402344 0.101562 M 97.402344 0.101562 L 97.402344 11.101562 M 97.402344 11.101562 C 97.402344 11.046875 97.359375 11 97.300781 11 M 97.300781 11 L 100.300781 11 C 100.355469 11 100.402344 11.042969 100.402344 11.101562 M 100.402344 11.101562 L 100.402344 17.101562 C 100.402344 17.15625 100.359375 17.203125 100.300781 17.203125 M 100.300781 17.203125 L 97.300781 17.203125 C 97.355469 17.203125 97.402344 17.160156 97.402344 17.101562 M 97.402344 17.101562 L 97.402344 23.101562 M 97.402344 23.101562 C 97.402344 23.046875 97.359375 23 97.300781 23 M 97.300781 23 L 100.300781 23 C 100.355469 23 100.402344 23.042969 100.402344 23.101562 M 100.402344 23.101562 L 100.402344 29.101562 C 100.402344 29.15625 100.359375 29.203125 100.300781 29.203125 M 100.300781 29.203125 L 97.300781 29.203125 C 97.355469 29.203125 97.402344 29.160156 97.402344 29.101562 M 97.402344 29.101562 L 97.402344 35.101562 M 97.402344 35.101562 C 97.402344 35.046875 97.359375 35 97.300781 35 M 97.300781 35 L 100.300781 35 C 100.355469 35 100.402344 35.042969 100.402344 35.101562 M 100.402344 35.101562 L 100.402344 41.101562 C 100.402344 41.15625 100.359375 41.203125 100.300781 41.203125 M 100.300781 41.203125 L 97.300781 41.203125 C 97.355469 41.203125 97.402344 41.160156 97.402344 41.101562 M 97.402344 41.101562 L 97.402344 47.101562 M 97.402344 47.101562 C 97.402344 47.046875 97.359375 47 97.300781 47 M 97.300781 47 L 100.300781 47 C 100.355469 47 100.402344 47.042969 100.402344 47.101562 M 100.402344 47.101562 L 100.402344 53.101562 C 100.402344 53.15625 100.359375 53.203125 100.300781 53.203125 M 100.300781 53.203125 L 97.300781 53.203125 C 97.355469 53.203125 97.402344 53.160156 97.402344 53.101562 M 97.402344 53.101562 L 97.402344 59.101562 M 97.402344 59.101562 C 97.402344 59.046875 97.359375 59 97.300781 59 M 97.300781 59 L 100.300781 59 C 100.355469 59 100.402344 59.042969 100.402344 59.101562 M 100.402344 59.101562 L 100.402344 65.101562 C 100.402344 65.15625 100.359375 65.203125 100.300781 65.203125 M 100.300781 65.203125 L 97.300781 65.203125 C 97.355469 65.203125 97.402344 65.160156 97.402344 65.101562 M 97.402344 65.101562 L 97.402344 71.101562 M 97.402344 71.101562 C 97.402344 71.046875 97.359375 71 97.300781 71 M 97.300781 71 L 100.300781 71 C 100.355469 71 100.402344 71.042969 100.402344 71.101562 M 100.402344 71.101562 L 100.402344 77.101562 C 100.402344 77.15625 100.359375 77.203125 100.300781 77.203125 M 100.300781 77.203125 L 97.300781 77.203125 C 97.355469 77.203125 97.402344 77.160156 97.402344 77.101562 M 97.402344 77.101562 L 97.402344 88.101562 M 97.402344 88.101562 C 97.402344 88.15625 97.359375 88.203125 97.300781 88.203125 M 97.300781 88.203125 L 97.300781 88.203125 M 97.300781 88.203125 L 0 88.203125 M 0 88.203125 C -0.0546875 88.203125 -0.101562 88.160156 -0.101562 88.101562 M -0.101562 88.101562 L -0.101562 88.101562 M -0.101562 88.101562 L -0.101562 77.101562 M -0.101562 77.101562 C -0.101562 77.15625 -0.0585938 77.203125 0 77.203125 M 0 77.203125 L -3 77.203125 C -3.054688 77.203125 -3.101562 77.160156 -3.101562 77.101562 M -3.101562 77.101562 L -3.101562 71.101562 C -3.101562 71.046875 -3.058594 71 -3 71 M -3 71 L 0 71 C -0.0546875 71 -0.101562 71.042969 -0.101562 71.101562 M -0.101562 71.101562 L -0.101562 65.101562 M -0.101562 65.101562 C -0.101562 65.15625 -0.0585938 65.203125 0 65.203125 M 0 65.203125 L -3 65.203125 C -3.054688 65.203125 -3.101562 65.160156 -3.101562 65.101562 M -3.101562 65.101562 L -3.101562 59.101562 C -3.101562 59.046875 -3.058594 59 -3 59 M -3 59 L 0 59 C -0.0546875 59 -0.101562 59.042969 -0.101562 59.101562 M -0.101562 59.101562 L -0.101562 53.101562 M -0.101562 53.101562 C -0.101562 53.15625 -0.0585938 53.203125 0 53.203125 M 0 53.203125 L -3 53.203125 C -3.054688 53.203125 -3.101562 53.160156 -3.101562 53.101562 M -3.101562 53.101562 L -3.101562 47.101562 C -3.101562 47.046875 -3.058594 47 -3 47 M -3 47 L 0 47 C -0.0546875 47 -0.101562 47.042969 -0.101562 47.101562 M -0.101562 47.101562 L -0.101562 41.101562 M -0.101562 41.101562 C -0.101562 41.15625 -0.0585938 41.203125 0 41.203125 M 0 41.203125 L -3 41.203125 C -3.054688 41.203125 -3.101562 41.160156 -3.101562 41.101562 M -3.101562 41.101562 L -3.101562 35.101562 C -3.101562 35.046875 -3.058594 35 -3 35 M -3 35 L 0 35 C -0.0546875 35 -0.101562 35.042969 -0.101562 35.101562 M -0.101562 35.101562 L -0.101562 29.101562 M -0.101562 29.101562 C -0.101562 29.15625 -0.0585938 29.203125 0 29.203125 M 0 29.203125 L -3 29.203125 C -3.054688 29.203125 -3.101562 29.160156 -3.101562 29.101562 M -3.101562 29.101562 L -3.101562 23.101562 C -3.101562 23.046875 -3.058594 23 -3 23 M -3 23 L 0 23 C -0.0546875 23 -0.101562 23.042969 -0.101562 23.101562 M -0.101562 23.101562 L -0.101562 17.101562 M -0.101562 17.101562 C -0.101562 17.15625 -0.0585938 17.203125 0 17.203125 M 0 17.203125 L -3 17.203125 C -3.054688 17.203125 -3.101562 17.160156 -3.101562 17.101562 M -3.101562 17.101562 L -3.101562 11.101562 C -3.101562 11.046875 -3.058594 11 -3 11 M -3 11 L 0 11 C -0.0546875 11 -0.101562 11.042969 -0.101562 11.101562 M -0.101562 11.101562 L -0.101562 0.101562 M -0.101562 0.101562 C -0.101562 0.046875 -0.0585938 0 0 0 M 0 0 L 0 0 " transform="matrix(1,0.000000000000000245,0.000000000000000245,-1,251.847656,9903.449219)"/>
<path style="fill:none;stroke-width:0.2;stroke-linecap:butt;stroke-linejoin:miter;stroke:rgb(0%,0%,100%);stroke-opacity:1;stroke-miterlimit:10;" d="M 0 0 C -0.0546875 0 -0.101562 0.0429688 -0.101562 0.101562 M -0.101562 0.101562 L -0.101562 -2.898438 C -0.101562 -2.84375 -0.0585938 -2.796875 0 -2.796875 M 0 -2.796875 L -6 -2.796875 C -5.945312 -2.796875 -5.898438 -2.839844 -5.898438 -2.898438 M -5.898438 -2.898438 L -5.898438 0.101562 C -5.898438 0.046875 -5.941406 0 -6 0 M -6 0 L 0 0 " transform="matrix(-1,0.000000000000000122,0.000000000000000122,1,14.75,9810.5)"/>
<path style="fill:none;stroke-width:0.2;stroke-linecap:butt;stroke-linejoin:miter;stroke:rgb(0%,0%,100%);stroke-opacity:1;stroke-miterlimit:10;" d="M 0 0 C -0.0546875 0 -0.101562 0.0429688 -0.101562 0.101562 M -0.101562 0.101562 L -0.101562 -2.898438 C -0.101562 -2.84375 -0.0585938 -2.796875 0 -2.796875 M 0 -2.796875 L -6 -2.796875 C -5.945312 -2.796875 -5.898438 -2.839844 -5.898438 -2.898438 M -5.898438 -2.898438 L -5.898438 0.101562 C -5.898438 0.046875 -5.941406 0 -6 0 M -6 0 L 0 0 " transform="matrix(-1,0.000000000000000122,0.000000000000000122,1,26.75,9810.5)"/>
<path style="fill:none;stroke-width:0.2;stroke-linecap:butt;stroke-linejoin:miter;stroke:rgb(0%,0%,100%);stroke-opacity:1;stroke-miterlimit:10;" d="M 0 0 C -0.0546875 0 -0.101562 0.0429688 -0.101562 0.101562 M -0.101562 0.101562 L -0.101562 -2.898438 C -0.101562 -2.84375 -0.0585938 -2.796875 0 -2.796875 M 0 -2.796875 L -6 -2.796875 C -5.945312 -2.796875 -5.898438 -2.839844 -5.898438 -2.898438 M -5.898438 -2.898438 L -5.898438 0.101562 C -5.898438 0.046875 -5.941406 0 -6 0 M -6 0 L 0 0 " transform="matrix(-1,0.000000000000000122,0.000000000000000122,1,38.75,9810.5)"/>
<path style="fill:none;stroke-width:0.2;stroke-linecap:butt;stroke-linejoin:miter;stroke:rgb(0%,0%,100%);stroke-opacity:1;stroke-miterlimit:10;" d="M 0 0 C -0.0546875 0 -0.101562 0.0429688 -0.101562 0.101562 M -0.101562 0.101562 L -0.101562 -2.898438 C -0.101562 -2.84375 -0.0585938 -2.796875 0 -2.796875 M 0 -2.796875 L -6 -2.796875 C -5.945312 -2.796875 -5.898438 -2.839844 -5.898438 -2.898438 M -5.898438 -2.898438 L -5.898438 0.101562 C -5.898438 0.046875 -5.941406 0 -6 0 M -6 0 L 0 0 " transform="matrix(-1,0.000000000000000122,0.000000000000000122,1,50.75,9810.5)"/>
<path style="fill:none;stroke-width:0.2;stroke-linecap:butt;stroke-linejoin:miter;stroke:rgb(0%,0%,0%);stroke-opacity:1;stroke-miterlimit:10;" d="M -6.25 59.1 L -6.25 1.6 M -6.25 1.6 L -6.25 -4.548438 C -6.25 -4.603125 -6.207031 -4.65 -6.148438 -4.65 M -6.148438 -4.65 L 0 -4.65 M 0 -0.0015625 " transform="matrix(0.000000000000000061,-1,-1,-0.000000000000000061,66.1,9807.5)"/>
<path style="fill:none;stroke-width:0.2;stroke-linecap:butt;stroke-linejoin:miter;stroke:rgb(0%,0%,100%);stroke-opacity:1;stroke-miterlimit:10;" d="M 0 0 C -0.0546875 0 -0.101562 0.0429688 -0.101562 0.101562 M -0.101562 0.101562 L -0.101562 -2.898438 C -0.101562 -2.84375 -0.0585938 -2.796875 0 -2.796875 M 0 -2.796875 L -6 -2.796875 C -5.945312 -2.796875 -5.898438 -2.839844 -5.898438 -2.898438 M -5.898438 -2.898438 L -5.898438 0.101562 C -5.898438 0.046875 -5.941406 0 -6 0 M -6 0 L 0 0 " transform="matrix(0.000000000000000061,1,1,-0.000000000000000061,67.5,9801)"/>
<path style="fill:none;stroke-width:0.2;stroke-linecap:butt;stroke-linejoin:miter;stroke:rgb(0%,0%,100%);stroke-opacity:1;stroke-miterlimit:10;" d="M 0 0 C -0.0546875 0 -0.101562 0.0429688 -0.101562 0.101562 M -0.101562 0.101562 L -0.101562 -2.898438 C -0.101562 -2.84375 -0.0585938 -2.796875 0 -2.796875 M 0 -2.796875 L -6 -2.796875 C -5.945312 -2.796875 -5.898438 -2.839844 -5.898438 -2.898438 M -5.898438 -2.898438 L -5.898438 0.101562 C -5.898438 0.046875 -5.941406 0 -6 0 M -6 0 L 0 0 " transform="matrix(0.000000000000000061,1,1,-0.000000000000000061,67.5,9789)"/>
<path style="fill:none;stroke-width:0.2;stroke-linecap:butt;stroke-linejoin:miter;stroke:rgb(0%,0%,100%);stroke-opacity:1;stroke-miterlimit:10;" d="M 0 0 C -0.0546875 0 -0.101562 0.0429688 -0.101562 0.101562 M -0.101562 0.101562 L -0.101562 -2.898438 C -0.101562 -2.84375 -0.0585938 -2.796875 0 -2.796875 M 0 -2.796875 L -6 -2.796875 C -5.945312 -2.796875 -5.898438 -2.839844 -5.898438 -2.898438 M -5.898438 -2.898438 L -5.898438 0.101562 C -5.898438 0.046875 -5.941406 0 -6 0 M -6 0 L 0 0 " transform="matrix(0.000000000000000061,1,1,-0.000000000000000061,67.5,9777)"/>
<path style="fill:none;stroke-width:0.2;stroke-linecap:butt;stroke-linejoin:miter;stroke:rgb(0%,0%,100%);stroke-opacity:1;stroke-miterlimit:10;" d="M 0 0 C -0.0546875 0 -0.101562 0.0429688 -0.101562 0.101562 M -0.101562 0.101562 L -0.101562 -2.898438 C -0.101562 -2.84375 -0.0585938 -2.796875 0 -2.796875 M 0 -2.796875 L -6 -2.796875 C -5.945312 -2.796875 -5.898438 -2.839844 -5.898438 -2.898438 M -5.898438 -2.898438 L -5.898438 0.101562 C -5.898438 0.046875 -5.941406 0 -6 0 M -6 0 L 0 0 " transform="matrix(0.000000000000000061,1,1,-0.000000000000000061,67.5,9765)"/>
<path style="fill:none;stroke-width:0.2;stroke-linecap:butt;stroke-linejoin:miter;stroke:rgb(0%,0%,100%);stroke-opacity:1;stroke-miterlimit:10;" d="M 0 0 C -0.0546875 0 -0.101562 0.0429688 -0.101562 0.101562 M -0.101562 0.101562 L -0.101562 -2.898438 C -0.101562 -2.84375 -0.0585938 -2.796875 0 -2.796875 M 0 -2.796875 L -6 -2.796875 C -5.945312 -2.796875 -5.898438 -2.839844 -5.898438 -2.898438 M -5.898438 -2.898438 L -5.898438 0.101562 C -5.898438 0.046875 -5.941406 0 -6 0 M -6 0 L 0 0 " transform="matrix(0.000000000000000061,1,1,-0.000000000000000061,67.5,9753)"/>
<path style="fill:none;stroke-width:0.2;stroke-linecap:butt;stroke-linejoin:miter;stroke:rgb(0%,0%,100%);stroke-opacity:1;stroke-miterlimit:10;" d="M 0 0 C -0.0546875 0 -0.101562 0.0429688 -0.101562 0.101562 M -0.101562 0.101562 L -0.101562 -2.898438 C -0.101562 -2.84375 -0.0585938 -2.796875 0 -2.796875 M 0 -2.796875 L -6 -2.796875 C -5.945312 -2.796875 -5.898438 -2.839844 -5.898438 -2.898438 M -5.898438 -2.898438 L -5.898438 0.101562 C -5.898438 0.046875 -5.941406 0 -6 0 M -6 0 L 0 0 " transform="matrix(0.000000000000000061,1,1,-0.000000000000000061,67.5,9741)"/>
<path style="fill:none;stroke-width:0.2;stroke-linecap:butt;stroke-linejoin:miter;stroke:rgb(0%,0%,100%);stroke-opacity:1;stroke-miterlimit:10;" d="M 0 0 C -0.0546875 0 -0.101562 0.0429688 -0.101562 0.101562 M -0.101562 0.101562 L -0.101562 -2.898438 C -0.101562 -2.84375 -0.0585938 -2.796875 0 -2.796875 M 0 -2.796875 L -6 -2.796875 C -5.945312 -2.796875 -5.898438 -2.839844 -5.898438 -2.898438 M -5.898438 -2.898438 L -5.898438 0.101562 C -5.898438 0.046875 -5.941406 0 -6 0 M -6 0 L 0 0 " transform="matrix(0.000000000000000061,1,1,-0.000000000000000061,67.5,9729)"/>
<path style="fill:none;stroke-width:0.2;stroke-linecap:butt;stroke-linejoin:miter;stroke:rgb(0%,0%,0%);stroke-opacity:1;stroke-miterlimit:10;" d="M -6.25 92.6 L -6.25 1.6 M -6.25 1.6 L -6.25 -4.548437 C -6.25 -4.603125 -6.207031 -4.65 -6.148438 -4.65 M -6.148438 -4.65 L 0 -4.65 M 0 -0.0015625 " transform="matrix(-1,-0.000000000000000122,-0.000000000000000122,1,64.5,9714.9)"/>
<path style="fill:none;stroke-width:0.2;stroke-linecap:butt;stroke-linejoin:miter;stroke:rgb(0%,0%,100%);stroke-opacity:1;stroke-miterlimit:10;" d="M 0 0 C -0.0546875 0 -0.101562 0.0429688 -0.101562 0.101562 M -0.101562 0.101562 L -0.101562 -2.898438 C -0.101562 -2.84375 -0.0585938 -2.796875 0 -2.796875 M 0 -2.796875 L -6 -2.796875 C -5.945312 -2.796875 -5.898438 -2.839844 -5.898438 -2.898438 M -5.898438 -2.898438 L -5.898438 0.101562 C -5.898438 0.046875 -5.941406 0 -6 0 M -6 0 L 0 0 " transform="matrix(1,-0,-0,-1,56.75,9713.5)"/>
<path style="fill:none;stroke-width:0.2;stroke-linecap:butt;stroke-linejoin:miter;stroke:rgb(0%,0%,100%);stroke-opacity:1;stroke-miterlimit:10;" d="M 0 0 C -0.0546875 0 -0.101562 0.0429688 -0.101562 0.101562 M -0.101562 0.101562 L -0.101562 -2.898438 C -0.101562 -2.84375 -0.0585938 -2.796875 0 -2.796875 M 0 -2.796875 L -6 -2.796875 C -5.945312 -2.796875 -5.898438 -2.839844 -5.898438 -2.898438 M -5.898438 -2.898438 L -5.898438 0.101562 C -5.898438 0.046875 -5.941406 0 -6 0 M -6 0 L 0 0 " transform="matrix(1,-0,-0,-1,44.75,9713.5)"/>
<path style="fill:none;stroke-width:0.2;stroke-linecap:butt;stroke-linejoin:miter;stroke:rgb(0%,0%,100%);stroke-opacity:1;stroke-miterlimit:10;" d="M 0 0 C -0.0546875 0 -0.101562 0.0429688 -0.101562 0.101562 M -0.101562 0.101562 L -0.101562 -2.898438 C -0.101562 -2.84375 -0.0585938 -2.796875 0 -2.796875 M 0 -2.796875 L -6 -2.796875 C -5.945312 -2.796875 -5.898438 -2.839844 -5.898438 -2.898438 M -5.898438 -2.898438 L -5.898438 0.101562 C -5.898438 0.046875 -5.941406 0 -6 0 M -6 0 L 0 0 " transform="matrix(1,-0,-0,-1,32.75,9713.5)"/>
<path style="fill:none;stroke-width:0.2;stroke-linecap:butt;stroke-linejoin:miter;stroke:rgb(0%,0%,100%);stroke-opacity:1;stroke-miterlimit:10;" d="M 0 0 C -0.0546875 0 -0.101562 0.0429688 -0.101562 0.101562 M -0.101562 0.101562 L -0.101562 -2.898438 C -0.101562 -2.84375 -0.0585938 -2.796875 0 -2.796875 M 0 -2.796875 L -6 -2.796875 C -5.945312 -2.796875 -5.898438 -2.839844 -5.898438 -2.898438 M -5.898438 -2.898438 L -5.898438 0.101562 C -5.898438 0.046875 -5.941406 0 -6 0 M -6 0 L 0 0 " transform="matrix(1,-0,-0,-1,20.75,9713.5)"/>
<path style="fill:none;stroke-width:0.2;stroke-linecap:butt;stroke-linejoin:miter;stroke:rgb(0%,0%,0%);stroke-opacity:1;stroke-miterlimit:10;" d="M -6.25 59.1 L -6.25 1.6 M -6.25 1.6 L -6.25 -4.548438 C -6.25 -4.603125 -6.207031 -4.65 -6.148438 -4.65 M -6.148438 -4.65 L 0 -4.65 M 0 -0.0015625 " transform="matrix(-0.000000000000000184,1,1,0.000000000000000184,5.4,9716.5)"/>
<path style="fill:none;stroke-width:0.2;stroke-linecap:butt;stroke-linejoin:miter;stroke:rgb(0%,0%,100%);stroke-opacity:1;stroke-miterlimit:10;" d="M 0 0 C -0.0546875 0 -0.101562 0.0429687 -0.101562 0.101562 M -0.101562 0.101562 L -0.101562 -2.898438 C -0.101562 -2.84375 -0.0585938 -2.796875 0 -2.796875 M 0 -2.796875 L -6 -2.796875 C -5.945312 -2.796875 -5.898438 -2.839844 -5.898438 -2.898438 M -5.898438 -2.898438 L -5.898438 0.101562 C -5.898438 0.046875 -5.941406 -0.000000000000000888 -6 -0.000000000000000888 M -6 -0.000000000000000888 L 0 0 " transform="matrix(0.000000000000000061,-1,-1,-0.000000000000000061,4,9723)"/>
<path style="fill:none;stroke-width:0.2;stroke-linecap:butt;stroke-linejoin:miter;stroke:rgb(0%,0%,100%);stroke-opacity:1;stroke-miterlimit:10;" d="M 0 0 C -0.0546875 0 -0.101562 0.0429688 -0.101562 0.101562 M -0.101562 0.101562 L -0.101562 -2.898438 C -0.101562 -2.84375 -0.0585938 -2.796875 0 -2.796875 M 0 -2.796875 L -6 -2.796875 C -5.945312 -2.796875 -5.898438 -2.839844 -5.898438 -2.898438 M -5.898438 -2.898438 L -5.898438 0.101562 C -5.898438 0.046875 -5.941406 -0.000000000000000888 -6 -0.000000000000000888 M -6 -0.000000000000000888 L 0 0 " transform="matrix(0.000000000000000061,-1,-1,-0.000000000000000061,4,9735)"/>
<path style="fill:none;stroke-width:0.2;stroke-linecap:butt;stroke-linejoin:miter;stroke:rgb(0%,0%,100%);stroke-opacity:1;stroke-miterlimit:10;" d="M 0 0 C -0.0546875 0 -0.101562 0.0429688 -0.101562 0.101562 M -0.101562 0.101562 L -0.101562 -2.898438 C -0.101562 -2.84375 -0.0585938 -2.796875 0 -2.796875 M 0 -2.796875 L -6 -2.796875 C -5.945312 -2.796875 -5.898438 -2.839844 -5.898438 -2.898438 M -5.898438 -2.898438 L -5.898438 0.101562 C -5.898438 0.046875 -5.941406 0 -6 0 M -6 0 L 0 0 " transform="matrix(0.000000000000000061,-1,-1,-0.000000000000000061,4,9747)"/>
<path style="fill:none;stroke-width:0.2;stroke-linecap:butt;stroke-linejoin:miter;stroke:rgb(0%,0%,100%);stroke-opacity:1;stroke-miterlimit:10;" d="M 0 0 C -0.0546875 0 -0.101562 0.0429688 -0.101562 0.101562 M -0.101562 0.101562 L -0.101562 -2.898438 C -0.101562 -2.84375 -0.0585938 -2.796875 0 -2.796875 M 0 -2.796875 L -6 -2.796875 C -5.945312 -2.796875 -5.898438 -2.839844 -5.898438 -2.898438 M -5.898438 -2.898438 L -5.898438 0.101562 C -5.898438 0.046875 -5.941406 0 -6 0 M -6 0 L 0 0 " transform="matrix(0.000000000000000061,-1,-1,-0.000000000000000061,4,9759)"/>
<path style="fill:none;stroke-width:0.2;stroke-linecap:butt;stroke-linejoin:miter;stroke:rgb(0%,0%,100%);stroke-opacity:1;stroke-miterlimit:10;" d="M 0 0 C -0.0546875 0 -0.101562 0.0429688 -0.101562 0.101563 M -0.101562 0.101563 L -0.101562 -2.898438 C -0.101562 -2.84375 -0.0585938 -2.796875 0 -2.796875 M 0 -2.796875 L -6 -2.796875 C -5.945312 -2.796875 -5.898438 -2.839844 -5.898438 -2.898438 M -5.898438 -2.898438 L -5.898438 0.101562 C -5.898438 0.046875 -5.941406 0 -6 0 M -6 0 L 0 0 " transform="matrix(0.000000000000000061,-1,-1,-0.000000000000000061,4,9771)"/>
<path style="fill:none;stroke-width:0.2;stroke-linecap:butt;stroke-linejoin:miter;stroke:rgb(0%,0%,100%);stroke-opacity:1;stroke-miterlimit:10;" d="M 0 0 C -0.0546875 0 -0.101562 0.0429687 -0.101562 0.101562 M -0.101562 0.101562 L -0.101562 -2.898438 C -0.101562 -2.84375 -0.0585938 -2.796875 0 -2.796875 M 0 -2.796875 L -6 -2.796875 C -5.945312 -2.796875 -5.898438 -2.839844 -5.898438 -2.898438 M -5.898438 -2.898438 L -5.898438 0.101562 C -5.898438 0.046875 -5.941406 -0.000000000000000888 -6 -0.000000000000000888 M -6 -0.000000000000000888 L 0 0 " transform="matrix(0.000000000000000061,-1,-1,-0.000000000000000061,4,9783)"/>
<path style="fill:none;stroke-width:0.2;stroke-linecap:butt;stroke-linejoin:miter;stroke:rgb(0%,0%,100%);stroke-opacity:1;stroke-miterlimit:10;" d="M 0 0 C -0.0546875 0 -0.101562 0.0429687 -0.101562 0.101562 M -0.101562 0.101562 L -0.101562 -2.898438 C -0.101562 -2.84375 -0.0585938 -2.796875 0 -2.796875 M 0 -2.796875 L -6 -2.796875 C -5.945312 -2.796875 -5.898438 -2.839844 -5.898438 -2.898438 M -5.898438 -2.898438 L -5.898438 0.101562 C -5.898438 0.046875 -5.941406 -0.000000000000000888 -6 -0.000000000000000888 M -6 -0.000000000000000888 L 0 0 " transform="matrix(0.000000000000000061,-1,-1,-0.000000000000000061,4,9795)"/>
<path style="fill:none;stroke-width:0.2;stroke-linecap:butt;stroke-linejoin:miter;stroke:rgb(0%,0%,0%);stroke-opacity:1;stroke-miterlimit:10;" d="M -6.25 97.25 L -6.25 6.25 M -6.25 6.25 L -6.25 0.101562 C -6.25 0.046875 -6.207031 0 -6.148438 0 M -6.148438 0 L 0 0 " transform="matrix(1,0.000000000000000245,0.000000000000000245,-1,7,9813.75)"/>
<path style="fill:none;stroke-width:0.2;stroke-linecap:butt;stroke-linejoin:miter;stroke:rgb(0%,0%,0%);stroke-opacity:1;stroke-miterlimit:10;" d="M 0 0 L 10.898438 0 M 10.898438 0 C 10.953125 0 11 0.0429688 11 0.101562 M 11 0.101562 L 11 3.101562 C 11 3.046875 10.957031 3 10.898438 3 M 10.898438 3 L 16.898438 3 C 16.84375 3 16.796875 3.042969 16.796875 3.101562 M 16.796875 3.101562 L 16.796875 0.101562 C 16.796875 0.046875 16.839844 0 16.898438 0 M 16.898438 0 L 22.898438 0 M 22.898438 0 C 22.953125 0 23 0.0429688 23 0.101562 M 23 0.101562 L 23 3.101562 C 23 3.046875 22.957031 3 22.898438 3 M 22.898438 3 L 28.898438 3 C 28.84375 3 28.796875 3.042969 28.796875 3.101562 M 28.796875 3.101562 L 28.796875 0.101562 C 28.796875 0.046875 28.839844 0 28.898438 0 M 28.898438 0 L 34.898438 0 M 34.898438 0 C 34.953125 0 35 0.0429688 35 0.101562 M 35 0.101562 L 35 3.101562 C 35 3.046875 34.957031 3 34.898438 3 M 34.898438 3 L 40.898438 3 C 40.84375 3 40.796875 3.042969 40.796875 3.101562 M 40.796875 3.101562 L 40.796875 0.101562 C 40.796875 0.046875 40.839844 0 40.898438 0 M 40.898438 0 L 46.898438 0 M 46.898438 0 C 46.953125 0 47 0.0429688 47 0.101562 M 47 0.101562 L 47 3.101562 C 47 3.046875 46.957031 3 46.898438 3 M 46.898438 3 L 52.898438 3 C 52.84375 3 52.796875 3.042969 52.796875 3.101562 M 52.796875 3.101562 L 52.796875 0.101562 C 52.796875 0.046875 52.839844 0 52.898438 0 M 52.898438 0 L 63.796875 0 M 63.796875 0 L 66.796875 0 C 66.851563 0 66.898438 0.0429688 66.898438 0.101562 M 66.898438 0.101562 L 66.898438 3.101562 M 66.898438 3.101562 L 66.898437 12.75 M 66.898437 12.75 C 66.898437 12.804688 66.855469 12.851562 66.796875 12.851562 M 66.796875 12.851562 L 63.796875 12.851562 C 63.851562 12.851562 63.898437 12.808594 63.898437 12.75 M 63.898437 12.75 L 63.898437 18.75 C 63.898437 18.695312 63.855469 18.648438 63.796875 18.648438 M 63.796875 18.648438 L 66.796875 18.648438 C 66.851562 18.648438 66.898437 18.691406 66.898437 18.75 M 66.898437 18.75 L 66.898437 24.75 M 66.898437 24.75 C 66.898437 24.804688 66.855469 24.851562 66.796875 24.851562 M 66.796875 24.851562 L 63.796875 24.851562 C 63.851562 24.851562 63.898437 24.808594 63.898437 24.75 M 63.898437 24.75 L 63.898437 30.75 C 63.898437 30.695312 63.855469 30.648438 63.796875 30.648438 M 63.796875 30.648438 L 66.796875 30.648438 C 66.851562 30.648438 66.898437 30.691406 66.898437 30.75 M 66.898437 30.75 L 66.898437 36.75 M 66.898437 36.75 C 66.898437 36.804688 66.855469 36.851562 66.796875 36.851562 M 66.796875 36.851562 L 63.796875 36.851562 C 63.851562 36.851562 63.898437 36.808594 63.898437 36.75 M 63.898437 36.75 L 63.898437 42.75 C 63.898437 42.695312 63.855469 42.648438 63.796875 42.648438 M 63.796875 42.648438 L 66.796875 42.648438 C 66.851562 42.648438 66.898437 42.691406 66.898437 42.75 M 66.898437 42.75 L 66.898437 48.75 M 66.898437 48.75 C 66.898437 48.804688 66.855469 48.851562 66.796875 48.851562 M 66.796875 48.851562 L 63.796875 48.851562 C 63.851562 48.851562 63.898437 48.808594 63.898437 48.75 M 63.898437 48.75 L 63.898437 54.75 C 63.898437 54.695312 63.855469 54.648438 63.796875 54.648438 M 63.796875 54.648438 L 66.796875 54.648438 C 66.851562 54.648438 66.898437 54.691406 66.898437 54.75 M 66.898437 54.75 L 66.898437 60.75 M 66.898437 60.75 C 66.898437 60.804688 66.855469 60.851562 66.796875 60.851562 M 66.796875 60.851562 L 63.796875 60.851562 C 63.851562 60.851562 63.898437 60.808594 63.898437 60.75 M 63.898437 60.75 L 63.898437 66.75 C 63.898437 66.695312 63.855469 66.648438 63.796875 66.648438 M 63.796875 66.648438 L 66.796875 66.648438 C 66.851562 66.648438 66.898437 66.691406 66.898437 66.75 M 66.898437 66.75 L 66.898437 72.75 M 66.898437 72.75 C 66.898437 72.804688 66.855469 72.851562 66.796875 72.851562 M 66.796875 72.851562 L 63.796875 72.851562 C 63.851562 72.851562 63.898437 72.808594 63.898437 72.75 M 63.898437 72.75 L 63.898437 78.75 C 63.898437 78.695312 63.855469 78.648438 63.796875 78.648438 M 63.796875 78.648438 L 66.796875 78.648438 C 66.851562 78.648438 66.898437 78.691406 66.898437 78.75 M 66.898437 78.75 L 66.898437 84.75 M 66.898437 84.75 C 66.898437 84.804688 66.855469 84.851562 66.796875 84.851562 M 66.796875 84.851562 L 63.796875 84.851562 C 63.851562 84.851562 63.898437 84.808594 63.898437 84.75 M 63.898437 84.75 L 63.898437 90.75 C 63.898437 90.695312 63.855469 90.648438 63.796875 90.648438 M 63.796875 90.648438 L 66.796875 90.648438 C 66.851562 90.648438 66.898437 90.691406 66.898437 90.75 M 66.898437 90.75 L 66.898437 100.398438 M 66.898437 100.398438 L 66.898437 103.398438 C 66.898437 103.453125 66.855469 103.5 66.796875 103.5 M 66.796875 103.5 L 63.796875 103.5 M 63.796875 103.5 L 52.898437 103.5 M 52.898437 103.5 C 52.84375 103.5 52.796875 103.457031 52.796875 103.398438 M 52.796875 103.398438 L 52.796875 100.398438 C 52.796875 100.453125 52.839844 100.5 52.898437 100.5 M 52.898437 100.5 L 46.898437 100.5 C 46.953125 100.5 47 100.457031 47 100.398438 M 47 100.398438 L 47 103.398438 C 47 103.453125 46.957031 103.5 46.898437 103.5 M 46.898437 103.5 L 40.898437 103.5 M 40.898437 103.5 C 40.84375 103.5 40.796875 103.457031 40.796875 103.398438 M 40.796875 103.398438 L 40.796875 100.398438 C 40.796875 100.453125 40.839844 100.5 40.898437 100.5 M 40.898437 100.5 L 34.898437 100.5 C 34.953125 100.5 35 100.457031 35 100.398438 M 35 100.398438 L 35 103.398438 C 35 103.453125 34.957031 103.5 34.898437 103.5 M 34.898437 103.5 L 28.898437 103.5 M 28.898437 103.5 C 28.84375 103.5 28.796875 103.457031 28.796875 103.398438 M 28.796875 103.398438 L 28.796875 100.398438 C 28.796875 100.453125 28.839844 100.5 28.898437 100.5 M 28.898437 100.5 L 22.898437 100.5 C 22.953125 100.5 23 100.457031 23 100.398438 M 23 100.398438 L 23 103.398438 C 23 103.453125 22.957031 103.5 22.898437 103.5 M 22.898437 103.5 L 16.898437 103.5 M 16.898437 103.5 C 16.84375 103.5 16.796875 103.457031 16.796875 103.398438 M 16.796875 103.398438 L 16.796875 100.398438 C 16.796875 100.453125 16.839844 100.5 16.898437 100.5 M 16.898437 100.5 L 10.898437 100.5 C 10.953125 100.5 11 100.457031 11 100.398438 M 11 100.398438 L 11 103.398438 C 11 103.453125 10.957031 103.5 10.898437 103.5 M 10.898437 103.5 L -0.000000000000028422 103.5 M -0.000000000000028422 103.5 L -3 103.5 C -3.054688 103.5 -3.101563 103.457031 -3.101563 103.398438 M -3.101563 103.398438 L -3.101563 100.398438 M -3.101563 100.398438 L -3.101563 90.75 M -3.101563 90.75 C -3.101563 90.695312 -3.058594 90.648438 -3 90.648438 M -3 90.648438 L -0.000000000000014211 90.648438 C -0.0546875 90.648438 -0.101563 90.691406 -0.101563 90.75 M -0.101563 90.75 L -0.101563 84.75 C -0.101563 84.804688 -0.0585938 84.851562 -0.000000000000014211 84.851562 M -0.000000000000014211 84.851562 L -3 84.851562 C -3.054688 84.851562 -3.101563 84.808594 -3.101563 84.75 M -3.101563 84.75 L -3.101563 78.75 M -3.101563 78.75 C -3.101563 78.695312 -3.058594 78.648438 -3 78.648438 M -3 78.648438 L -0.000000000000014211 78.648438 C -0.0546875 78.648438 -0.101563 78.691406 -0.101563 78.75 M -0.101563 78.75 L -0.101563 72.75 C -0.101563 72.804688 -0.0585938 72.851562 -0.000000000000014211 72.851562 M -0.000000000000014211 72.851562 L -3 72.851562 C -3.054688 72.851562 -3.101563 72.808594 -3.101563 72.75 M -3.101563 72.75 L -3.101563 66.75 M -3.101563 66.75 C -3.101563 66.695312 -3.058594 66.648438 -3 66.648438 M -3 66.648438 L -0.000000000000014211 66.648438 C -0.0546875 66.648438 -0.101563 66.691406 -0.101563 66.75 M -0.101563 66.75 L -0.101563 60.75 C -0.101563 60.804688 -0.0585938 60.851562 -0.000000000000014211 60.851562 M -0.000000000000014211 60.851562 L -3 60.851562 C -3.054688 60.851562 -3.101563 60.808594 -3.101563 60.75 M -3.101563 60.75 L -3.101563 54.75 M -3.101563 54.75 C -3.101563 54.695312 -3.058594 54.648438 -3 54.648438 M -3 54.648438 L -0.000000000000014211 54.648438 C -0.0546875 54.648438 -0.101563 54.691406 -0.101563 54.75 M -0.101563 54.75 L -0.101563 48.75 C -0.101563 48.804688 -0.0585938 48.851562 -0.000000000000014211 48.851562 M -0.000000000000014211 48.851562 L -3 48.851562 C -3.054688 48.851562 -3.101563 48.808594 -3.101563 48.75 M -3.101563 48.75 L -3.101563 42.75 M -3.101563 42.75 C -3.101563 42.695312 -3.058594 42.648438 -3 42.648438 M -3 42.648438 L -0.000000000000014211 42.648438 C -0.0546875 42.648438 -0.101563 42.691406 -0.101563 42.75 M -0.101563 42.75 L -0.101562 36.75 C -0.101562 36.804688 -0.0585938 36.851562 0 36.851562 M 0 36.851562 L -3 36.851562 C -3.054688 36.851562 -3.101562 36.808594 -3.101562 36.75 M -3.101562 36.75 L -3.101562 30.75 M -3.101562 30.75 C -3.101562 30.695312 -3.058594 30.648438 -3 30.648438 M -3 30.648438 L 0 30.648438 C -0.0546875 30.648438 -0.101562 30.691406 -0.101562 30.75 M -0.101562 30.75 L -0.101562 24.75 C -0.101562 24.804688 -0.0585938 24.851562 0 24.851562 M 0 24.851562 L -3 24.851562 C -3.054688 24.851562 -3.101562 24.808594 -3.101562 24.75 M -3.101562 24.75 L -3.101562 18.75 M -3.101562 18.75 C -3.101562 18.695312 -3.058594 18.648438 -3 18.648438 M -3 18.648438 L 0 18.648438 C -0.0546875 18.648438 -0.101562 18.691406 -0.101562 18.75 M -0.101562 18.75 L -0.101562 12.75 C -0.101562 12.804688 -0.0585938 12.851562 0 12.851562 M 0 12.851562 L -3 12.851562 C -3.054688 12.851562 -3.101562 12.808594 -3.101562 12.75 M -3.101562 12.75 L -3.101562 3.101562 M -3.101562 3.101562 L -3.101562 0.101562 C -3.101562 0.046875 -3.058594 0 -3 0 M -3 0 L 0 0 " transform="matrix(1,0.000000000000000245,0.000000000000000245,-1,75.351563,9813.75)"/>
</g>
</svg>