<?xml version="1.0" encoding="UTF-8"?>
<svg xmlns="http://www.w3.org/2000/svg" xmlns:xlink="http://www.w3.org/1999/xlink" width="370mm" height="310mm" viewBox="0 9690 370 310" version="1.1" style=""><script xmlns=""/>
<g id="surface1">
<path style="fill:none;stroke-width:0.2;stroke-linecap:butt;stroke-linejoin:miter;stroke:rgb(0%,0%,0%);stroke-opacity:1;stroke-miterlimit:10;" d="M 0 0 L 8 0 M 8 0 C 7.945312 0 7.898438 0.0429688 7.898438 0.101562 M 7.898438 0.101562 L 7.898438 -2.898438 C 7.898438 -2.953125 7.941406 -3 8 -3 M 8 -3 L 14 -3 C 14.054688 -3 14.101562 -2.957031 14.101562 -2.898438 M 14.101562 -2.898438 L 14.101562 0.101562 C 14.101562 0.046875 14.058594 0 14 0 M 14 0 L 20 0 M 20 0 C 19.945312 0 19.898438 0.0429688 19.898438 0.101562 M 19.898438 0.101562 L 19.898438 -2.898438 C 19.898438 -2.953125 19.941406 -3 20 -3 M 20 -3 L 26 -3 C 26.054688 -3 26.101562 -2.957031 26.101562 -2.898438 M 26.101562 -2.898438 L 26.101562 0.101562 C 26.101562 0.046875 26.058594 0 26 0 M 26 0 L 32 0 M 32 0 C 31.945313 0 31.898438 0.0429688 31.898438 0.101562 M 31.898438 0.101562 L 31.898438 -2.898438 C 31.898438 -2.953125 31.941406 -3 32 -3 M 32 -3 L 38 -3 C 38.054688 -3 38.101562 -2.957031 38.101562 -2.898438 M 38.101562 -2.898438 L 38.101562 0.101562 C 38.101562 0.046875 38.058594 0 38 0 M 38 0 L 44 0 M 44 0 C 43.945312 0 43.898438 0.0429688 43.898438 0.101562 M 43.898438 0.101562 L 43.898438 -2.898438 C 43.898438 -2.953125 43.941406 -3 44 -3 M 44 -3 L 50 -3 C 50.054688 -3 50.101562 -2.957031 50.101562 -2.898438 M 50.101562 -2.898438 L 50.101562 0.101562 C 50.101562 0.046875 50.058594 0 50 0 M 50 0 L 58 0 M 58 0 L 61 0 C 61.054687 0 61.101562 0.0429688 61.101562 0.101562 M 61.101562 0.101562 L 61.101562 0.101562 M 61.101562 0.101562 L 61.101562 11.351562 M 61.101562 11.351562 C 61.101562 11.40625 61.058594 11.453125 61 11.453125 M 61 11.453125 L 58 11.453125 C 58.054687 11.453125 58.101562 11.410156 58.101562 11.351562 M 58.101562 11.351562 L 58.101562 17.351562 C 58.101562 17.296875 58.058594 17.25 58 17.25 M 58 17.25 L 61 17.25 C 61.054687 17.25 61.101562 17.292969 61.101562 17.351562 M 61.101562 17.351562 L 61.101562 23.351562 M 61.101562 23.351562 C 61.101562 23.40625 61.058594 23.453125 61 23.453125 M 61 23.453125 L 58 23.453125 C 58.054687 23.453125 58.101562 23.410156 58.101562 23.351562 M 58.101562 23.351562 L 58.101562 29.351562 C 58.101562 29.296875 58.058594 29.25 58 29.25 M 58 29.25 L 61 29.25 C 61.054687 29.25 61.101562 29.292969 61.101562 29.351562 M 61.101562 29.351562 L 61.101562 35.351562 M 61.101562 35.351562 C 61.101562 35.40625 61.058594 35.453125 61 35.453125 M 61 35.453125 L 58 35.453125 C 58.054687 35.453125 58.101562 35.410156 58.101562 35.351562 M 58.101562 35.351562 L 58.101562 41.351562 C 58.101562 41.296875 58.058594 41.25 58 41.25 M 58 41.25 L 61 41.25 C 61.054687 41.25 61.101562 41.292969 61.101562 41.351562 M 61.101562 41.351562 L 61.101562 47.351562 M 61.101562 47.351562 C 61.101562 47.40625 61.058594 47.453125 61 47.453125 M 61 47.453125 L 58 47.453125 C 58.054687 47.453125 58.101562 47.410156 58.101562 47.351562 M 58.101562 47.351562 L 58.101562 53.351562 C 58.101562 53.296875 58.058594 53.25 58 53.25 M 58 53.25 L 61 53.25 C 61.054687 53.25 61.101562 53.292969 61.101562 53.351562 M 61.101562 53.351562 L 61.101562 59.351562 M 61.101562 59.351562 C 61.101562 59.40625 61.058594 59.453125 61 59.453125 M 61 59.453125 L 58 59.453125 C 58.054687 59.453125 58.101562 59.410156 58.101562 59.351562 M 58.101562 59.351562 L 58.101562 65.351562 C 58.101562 65.296875 58.058594 65.25 58 65.25 M 58 65.25 L 61 65.25 C 61.054687 65.25 61.101562 65.292969 61.101562 65.351562 M 61.101562 65.351562 L 61.101562 71.351562 M 61.101562 71.351562 C 61.101562 71.40625 61.058594 71.453125 61 71.453125 M 61 71.453125 L 58 71.453125 C 58.054687 71.453125 58.101562 71.410156 58.101562 71.351562 M 58.101562 71.351562 L 58.101562 77.351562 C 58.101562 77.296875 58.058594 77.25 58 77.25 M 58 77.25 L 61 77.25 C 61.054687 77.25 61.101562 77.292969 61.101562 77.351562 M 61.101562 77.351562 L 61.101562 88.601562 M 61.101562 88.601562 C 61.101562 88.65625 61.058594 88.703125 61 88.703125 M 61 88.703125 L 58 88.703125 M 58 88.703125 L -0.00000000000002176 88.703125 M -0.00000000000002176 88.703125 L -3 88.703125 C -3.054688 88.703125 -3.101563 88.660156 -3.101563 88.601562 M -3.101563 88.601562 L -3.101563 88.601562 M -3.101563 88.601562 L -3.101563 77.351562 M -3.101563 77.351562 C -3.101563 77.296875 -3.058594 77.25 -3 77.25 M -3 77.25 L -0.000000000000018652 77.25 C -0.0546875 77.25 -0.101563 77.292969 -0.101563 77.351562 M -0.101563 77.351562 L -0.101563 71.351562 C -0.101563 71.40625 -0.0585938 71.453125 -0.000000000000017319 71.453125 M -0.000000000000017319 71.453125 L -3 71.453125 C -3.054688 71.453125 -3.101563 71.410156 -3.101563 71.351562 M -3.101563 71.351562 L -3.101563 65.351562 M -3.101563 65.351562 C -3.101563 65.296875 -3.058594 65.25 -3 65.25 M -3 65.25 L -0.000000000000015987 65.25 C -0.0546875 65.25 -0.101563 65.292969 -0.101563 65.351562 M -0.101563 65.351562 L -0.101563 59.351562 C -0.101563 59.40625 -0.0585938 59.453125 -0.000000000000014655 59.453125 M -0.000000000000014655 59.453125 L -3 59.453125 C -3.054688 59.453125 -3.101563 59.410156 -3.101563 59.351562 M -3.101563 59.351562 L -3.101563 53.351562 M -3.101563 53.351562 C -3.101563 53.296875 -3.058594 53.25 -3 53.25 M -3 53.25 L -0.000000000000012879 53.25 C -0.0546875 53.25 -0.101563 53.292969 -0.101563 53.351562 M -0.101563 53.351562 L -0.101563 47.351562 C -0.101563 47.40625 -0.0585938 47.453125 -0.000000000000011546 47.453125 M -0.000000000000011546 47.453125 L -3 47.453125 C -3.054688 47.453125 -3.101563 47.410156 -3.101563 47.351562 M -3.101563 47.351562 L -3.101563 41.351562 M -3.101563 41.351562 C -3.101563 41.296875 -3.058594 41.25 -3 41.25 M -3 41.25 L -0.000000000000010214 41.25 C -0.0546875 41.25 -0.101563 41.292969 -0.101563 41.351562 M -0.101563 41.351562 L -0.101563 35.351562 C -0.101563 35.40625 -0.0585938 35.453125 -0.000000000000008438 35.453125 M -0.000000000000008438 35.453125 L -3 35.453125 C -3.054688 35.453125 -3.101563 35.410156 -3.101563 35.351562 M -3.101563 35.351562 L -3.101563 29.351562 M -3.101563 29.351562 C -3.101563 29.296875 -3.058594 29.25 -3 29.25 M -3 29.25 L -0.000000000000007105 29.25 C -0.0546875 29.25 -0.101563 29.292969 -0.101563 29.351562 M -0.101563 29.351562 L -0.101563 23.351562 C -0.101563 23.40625 -0.0585938 23.453125 -0.000000000000005773 23.453125 M -0.000000000000005773 23.453125 L -3 23.453125 C -3.054688 23.453125 -3.101563 23.410156 -3.101563 23.351562 M -3.101563 23.351562 L -3.101563 17.351562 M -3.101563 17.351562 C -3.101563 17.296875 -3.058594 17.25 -3 17.25 M -3 17.25 L -0.000000000000003997 17.25 C -0.0546875 17.25 -0.101563 17.292969 -0.101563 17.351562 M -0.101563 17.351562 L -0.101563 11.351562 C -0.101563 11.40625 -0.0585938 11.453125 -0.000000000000002665 11.453125 M -0.000000000000002665 11.453125 L -3 11.453125 C -3.054688 11.453125 -3.101563 11.410156 -3.101563 11.351562 M -3.101563 11.351562 L -3.101562 0.101562 M -3.101562 0.101562 C -3.101562 0.046875 -3.058594 0 -3 0 M -3 0 L 0 0 " transform="matrix(1,0.000000000000000245,0.000000000000000245,-1,3.851562,9996.148438)"/>
<path style="fill:none;stroke-width:0.2;stroke-linecap:butt;stroke-linejoin:miter;stroke:rgb(0%,0%,0%);stroke-opacity:1;stroke-miterlimit:10;" d="M 0 0 L 8.5 0 M 8.5 0 C 8.445312 0 8.398438 0.0429688 8.398438 0.101562 M 8.398438 0.101562 L 8.398438 -2.898438 C 8.398438 -2.953125 8.441406 -3 8.5 -3 M 8.5 -3 L 14.5 -3 C 14.554688 -3 14.601562 -2.957031 14.601562 -2.898438 M 14.601562 -2.898438 L 14.601562 0.101562 C 14.601562 0.046875 14.558594 0 14.5 0 M 14.5 0 L 20.5 0 M 20.5 0 C 20.445312 0 20.398438 0.0429688 20.398438 0.101562 M 20.398438 0.101562 L 20.398438 -2.898438 C 20.398438 -2.953125 20.441406 -3 20.5 -3 M 20.5 -3 L 26.5 -3 C 26.554688 -3 26.601562 -2.957031 26.601562 -2.898438 M 26.601562 -2.898438 L 26.601562 0.101562 C 26.601562 0.046875 26.558594 0 26.5 0 M 26.5 0 L 32.5 0 M 32.5 0 C 32.445312 0 32.398438 0.0429688 32.398438 0.101562 M 32.398438 0.101562 L 32.398438 -2.898438 C 32.398438 -2.953125 32.441406 -3 32.5 -3 M 32.5 -3 L 38.5 -3 C 38.554688 -3 38.601562 -2.957031 38.601562 -2.898438 M 38.601562 -2.898438 L 38.601562 0.101562 C 38.601562 0.046875 38.558594 0 38.5 0 M 38.5 0 L 44.5 0 M 44.5 0 C 44.445312 0 44.398438 0.0429688 44.398438 0.101562 M 44.398438 0.101562 L 44.398438 -2.898438 C 44.398438 -2.953125 44.441406 -3 44.5 -3 M 44.5 -3 L 50.5 -3 C 50.554688 -3 50.601562 -2.957031 50.601562 -2.898438 M 50.601562 -2.898438 L 50.601562 0.101562 C 50.601562 0.046875 50.558594 0 50.5 0 M 50.5 0 L 56.5 0 M 56.5 0 C 56.445312 0 56.398438 0.0429688 56.398438 0.101562 M 56.398438 0.101562 L 56.398438 -2.898438 C 56.398438 -2.953125 56.441406 -3 56.5 -3 M 56.5 -3 L 62.5 -3 C 62.554688 -3 62.601562 -2.957031 62.601562 -2.898438 M 62.601562 -2.898438 L 62.601562 0.101562 C 62.601562 0.046875 62.558594 0 62.5 0 M 62.5 0 L 68.5 0 M 68.5 0 C 68.445312 0 68.398438 0.0429688 68.398438 0.101562 M 68.398438 0.101562 L 68.398438 -2.898438 C 68.398438 -2.953125 68.441406 -3 68.5 -3 M 68.5 -3 L 74.5 -3 C 74.554688 -3 74.601562 -2.957031 74.601562 -2.898438 M 74.601562 -2.898438 L 74.601562 0.101562 C 74.601562 0.046875 74.558594 0 74.5 0 M 74.5 0 L 80.5 0 M 80.5 0 C 80.445312 0 80.398438 0.0429688 80.398438 0.101562 M 80.398438 0.101562 L 80.398438 -2.898438 C 80.398438 -2.953125 80.441406 -3 80.5 -3 M 80.5 -3 L 86.5 -3 C 86.554688 -3 86.601562 -2.957031 86.601562 -2.898438 M 86.601562 -2.898438 L 86.601562 0.101562 C 86.601562 0.046875 86.558594 0 86.5 0 M 86.5 0 L 95 0 M 95 0 C 95.054688 0 95.101562 0.0429688 95.101562 0.101562 M 95.101562 0.101562 L 95.101562 0.101562 M 95.101562 0.101562 L 95.101562 11.351562 M 95.101562 11.351562 C 95.101562 11.296875 95.058594 11.25 95 11.25 M 95 11.25 L 98 11.25 C 98.054688 11.25 98.101562 11.292969 98.101562 11.351562 M 98.101562 11.351562 L 98.101562 17.351562 C 98.101562 17.40625 98.058594 17.453125 98 17.453125 M 98 17.453125 L 95 17.453125 C 95.054688 17.453125 95.101562 17.410156 95.101562 17.351562 M 95.101562 17.351562 L 95.101562 23.351562 M 95.101562 23.351562 C 95.101562 23.296875 95.058594 23.25 95 23.25 M 95 23.25 L 98 23.25 C 98.054688 23.25 98.101562 23.292969 98.101562 23.351562 M 98.101562 23.351562 L 98.101562 29.351562 C 98.101562 29.40625 98.058594 29.453125 98 29.453125 M 98 29.453125 L 95 29.453125 C 95.054688 29.453125 95.101562 29.410156 95.101562 29.351562 M 95.101562 29.351562 L 95.101562 35.351562 M 95.101562 35.351562 C 95.101562 35.296875 95.058594 35.25 95 35.25 M 95 35.25 L 98 35.25 C 98.054688 35.25 98.101562 35.292969 98.101562 35.351562 M 98.101562 35.351562 L 98.101562 41.351562 C 98.101562 41.40625 98.058594 41.453125 98 41.453125 M 98 41.453125 L 95 41.453125 C 95.054688 41.453125 95.101562 41.410156 95.101562 41.351562 M 95.101562 41.351562 L 95.101562 47.351562 M 95.101562 47.351562 C 95.101562 47.296875 95.058594 47.25 95 47.25 M 95 47.25 L 98 47.25 C 98.054688 47.25 98.101562 47.292969 98.101562 47.351562 M 98.101562 47.351562 L 98.101562 53.351562 C 98.101562 53.40625 98.058594 53.453125 98 53.453125 M 98 53.453125 L 95 53.453125 C 95.054688 53.453125 95.101562 53.410156 95.101562 53.351562 M 95.101562 53.351562 L 95.101562 59.351562 M 95.101562 59.351562 C 95.101562 59.296875 95.058594 59.25 95 59.25 M 95 59.25 L 98 59.25 C 98.054688 59.25 98.101562 59.292969 98.101562 59.351562 M 98.101562 59.351562 L 98.101562 65.351562 C 98.101562 65.40625 98.058594 65.453125 98 65.453125 M 98 65.453125 L 95 65.453125 C 95.054688 65.453125 95.101562 65.410156 95.101562 65.351562 M 95.101562 65.351562 L 95.101562 71.351562 M 95.101562 71.351562 C 95.101562 71.296875 95.058594 71.25 95 71.25 M 95 71.25 L 98 71.25 C 98.054688 71.25 98.101562 71.292969 98.101562 71.351562 M 98.101562 71.351562 L 98.101562 77.351562 C 98.101562 77.40625 98.058594 77.453125 98 77.453125 M 98 77.453125 L 95 77.453125 C 95.054687 77.453125 95.101562 77.410156 95.101562 77.351562 M 95.101562 77.351562 L 95.101562 88.601562 M 95.101562 88.601562 C 95.101562 88.65625 95.058594 88.703125 95 88.703125 M 95 88.703125 L 95 88.703125 M 95 88.703125 L -0.000000000000014211 88.703125 M -0.000000000000014211 88.703125 C -0.0546875 88.703125 -0.101563 88.660156 -0.101563 88.601562 M -0.101563 88.601562 L -0.101563 88.601562 M -0.101563 88.601562 L -0.101563 77.351562 M -0.101563 77.351562 C -0.101563 77.40625 -0.0585938 77.453125 -0.000000000000014211 77.453125 M -0.000000000000014211 77.453125 L -3 77.453125 C -3.054688 77.453125 -3.101563 77.410156 -3.101563 77.351562 M -3.101563 77.351562 L -3.101563 71.351562 C -3.101563 71.296875 -3.058594 71.25 -3 71.25 M -3 71.25 L -0.000000000000014211 71.25 C -0.0546875 71.25 -0.101563 71.292969 -0.101563 71.351562 M -0.101563 71.351562 L -0.101563 65.351562 M -0.101563 65.351562 C -0.101563 65.40625 -0.0585938 65.453125 -0.000000000000014211 65.453125 M -0.000000000000014211 65.453125 L -3 65.453125 C -3.054688 65.453125 -3.101563 65.410156 -3.101563 65.351562 M -3.101563 65.351562 L -3.101563 59.351562 C -3.101563 59.296875 -3.058594 59.25 -3 59.25 M -3 59.25 L -0.000000000000014211 59.25 C -0.0546875 59.25 -0.101563 59.292969 -0.101563 59.351562 M -0.101563 59.351562 L -0.101563 53.351562 M -0.101563 53.351562 C -0.101563 53.40625 -0.0585938 53.453125 -0.000000000000014211 53.453125 M -0.000000000000014211 53.453125 L -3 53.453125 C -3.054688 53.453125 -3.101563 53.410156 -3.101563 53.351562 M -3.101563 53.351562 L -3.101563 47.351562 C -3.101563 47.296875 -3.058594 47.25 -3 47.25 M -3 47.25 L -0.000000000000014211 47.25 C -0.0546875 47.25 -0.101563 47.292969 -0.101563 47.351562 M -0.101563 47.351562 L -0.101562 41.351562 M -0.101562 41.351562 C -0.101562 41.40625 -0.0585938 41.453125 0 41.453125 M 0 41.453125 L -3 41.453125 C -3.054688 41.453125 -3.101562 41.410156 -3.101562 41.351562 M -3.101562 41.351562 L -3.101562 35.351562 C -3.101562 35.296875 -3.058594 35.25 -3 35.25 M -3 35.25 L 0 35.25 C -0.0546875 35.25 -0.101562 35.292969 -0.101562 35.351562 M -0.101562 35.351562 L -0.101562 29.351562 M -0.101562 29.351562 C -0.101562 29.40625 -0.0585938 29.453125 0 29.453125 M 0 29.453125 L -3 29.453125 C -3.054688 29.453125 -3.101562 29.410156 -3.101562 29.351562 M -3.101562 29.351562 L -3.101562 23.351562 C -3.101562 23.296875 -3.058594 23.25 -3 23.25 M -3 23.25 L 0 23.25 C -0.0546875 23.25 -0.101562 23.292969 -0.101562 23.351562 M -0.101562 23.351562 L -0.101562 17.351562 M -0.101562 17.351562 C -0.101562 17.40625 -0.0585938 17.453125 0 17.453125 M 0 17.453125 L -3 17.453125 C -3.054688 17.453125 -3.101562 17.410156 -3.101562 17.351562 M -3.101562 17.351562 L -3.101562 11.351562 C -3.101562 11.296875 -3.058594 11.25 -3 11.25 M -3 11.25 L 0 11.25 C -0.0546875 11.25 -0.101562 11.292969 -0.101562 11.351562 M -0.101562 11.351562 L -0.101562 0.101562 M -0.101562 0.101562 C -0.101562 0.046875 -0.0585938 0 0 0 M 0 0 L 0 0 " transform="matrix(1,0.000000000000000245,0.000000000000000245,-1,69.550781,9996.148438)"/>
<path style="fill:none;stroke-width:0.2;stroke-linecap:butt;stroke-linejoin:miter;stroke:rgb(0%,0%,0%);stroke-opacity:1;stroke-miterlimit:10;" d="M 0 0 L 8 0 M 8 0 C 7.945312 0 7.898438 0.0429688 7.898438 0.101562 M 7.898438 0.101562 L 7.898438 -2.898438 C 7.898438 -2.953125 7.941406 -3 8 -3 M 8 -3 L 14 -3 C 14.054688 -3 14.101562 -2.957031 14.101562 -2.898438 M 14.101562 -2.898438 L 14.101562 0.101562 C 14.101562 0.046875 14.058594 0 14 0 M 14 0 L 20 0 M 20 0 C 19.945312 0 19.898438 0.0429688 19.898438 0.101562 M 19.898438 0.101562 L 19.898438 -2.898438 C 19.898438 -2.953125 19.941406 -3 20 -3 M 20 -3 L 26 -3 C 26.054688 -3 26.101562 -2.957031 26.101562 -2.898438 M 26.101562 -2.898438 L 26.101562 0.101562 C 26.101562 0.046875 26.058594 0 26 0 M 26 0 L 32 0 M 32 0 C 31.945312 0 31.898438 0.0429688 31.898438 0.101562 M 31.898438 0.101562 L 31.898438 -2.898438 C 31.898438 -2.953125 31.941406 -3 32 -3 M 32 -3 L 38 -3 C 38.054688 -3 38.101562 -2.957031 38.101562 -2.898438 M 38.101562 -2.898438 L 38.101562 0.101562 C 38.101562 0.046875 38.058594 0 38 0 M 38 0 L 44 0 M 44 0 C 43.945312 0 43.898438 0.0429688 43.898438 0.101562 M 43.898438 0.101562 L 43.898438 -2.898438 C 43.898438 -2.953125 43.941406 -3 44 -3 M 44 -3 L 50 -3 C 50.054688 -3 50.101562 -2.957031 50.101562 -2.898438 M 50.101562 -2.898438 L 50.101562 0.101562 C 50.101562 0.046875 50.058594 0 50 0 M 50 0 L 58 0 M 58 0 L 61 0 C 61.054688 0 61.101562 0.0429688 61.101562 0.101562 M 61.101562 0.101562 L 61.101562 0.101562 M 61.101562 0.101562 L 61.101562 11.351562 M 61.101562 11.351562 C 61.101562 11.40625 61.058594 11.453125 61 11.453125 M 61 11.453125 L 58 11.453125 C 58.054688 11.453125 58.101562 11.410156 58.101562 11.351562 M 58.101562 11.351562 L 58.101562 17.351562 C 58.101562 17.296875 58.058594 17.25 58 17.25 M 58 17.25 L 61 17.25 C 61.054688 17.25 61.101562 17.292969 61.101562 17.351562 M 61.101562 17.351562 L 61.101562 23.351562 M 61.101562 23.351562 C 61.101562 23.40625 61.058594 23.453125 61 23.453125 M 61 23.453125 L 58 23.453125 C 58.054688 23.453125 58.101562 23.410156 58.101562 23.351562 M 58.101562 23.351562 L 58.101562 29.351562 C 58.101562 29.296875 58.058594 29.25 58 29.25 M 58 29.25 L 61 29.25 C 61.054688 29.25 61.101562 29.292969 61.101562 29.351562 M 61.101562 29.351562 L 61.101562 35.351562 M 61.101562 35.351562 C 61.101562 35.40625 61.058594 35.453125 61 35.453125 M 61 35.453125 L 58 35.453125 C 58.054688 35.453125 58.101562 35.410156 58.101562 35.351562 M 58.101562 35.351562 L 58.101562 41.351562 C 58.101562 41.296875 58.058594 41.25 58 41.25 M 58 41.25 L 61 41.25 C 61.054688 41.25 61.101562 41.292969 61.101562 41.351562 M 61.101562 41.351562 L 61.101562 47.351562 M 61.101562 47.351562 C 61.101562 47.40625 61.058594 47.453125 61 47.453125 M 61 47.453125 L 58 47.453125 C 58.054688 47.453125 58.101562 47.410156 58.101562 47.351562 M 58.101562 47.351562 L 58.101562 53.351562 C 58.101562 53.296875 58.058594 53.25 58 53.25 M 58 53.25 L 61 53.25 C 61.054688 53.25 61.101562 53.292969 61.101562 53.351562 M 61.101562 53.351562 L 61.101562 59.351562 M 61.101562 59.351562 C 61.101562 59.40625 61.058594 59.453125 61 59.453125 M 61 59.453125 L 58 59.453125 C 58.054688 59.453125 58.101562 59.410156 58.101562 59.351562 M 58.101562 59.351562 L 58.101562 65.351562 C 58.101562 65.296875 58.058594 65.25 58 65.25 M 58 65.25 L 61 65.25 C 61.054688 65.25 61.101562 65.292969 61.101562 65.351562 M 61.101562 65.351562 L 61.101562 71.351562 M 61.101562 71.351562 C 61.101562 71.40625 61.058594 71.453125 61 71.453125 M 61 71.453125 L 58 71.453125 C 58.054688 71.453125 58.101562 71.410156 58.101562 71.351562 M 58.101562 71.351562 L 58.101562 77.351562 C 58.101562 77.296875 58.058594 77.25 58 77.25 M 58 77.25 L 61 77.25 C 61.054687 77.25 61.101562 77.292969 61.101562 77.351562 M 61.101562 77.351562 L 61.101562 88.601562 M 61.101562 88.601562 C 61.101562 88.65625 61.058594 88.703125 61 88.703125 M 61 88.703125 L 58 88.703125 M 58 88.703125 L -0.000000000000028422 88.703125 M -0.000000000000028422 88.703125 L -3 88.703125 C -3.054688 88.703125 -3.101563 88.660156 -3.101563 88.601562 M -3.101563 88.601562 L -3.101563 88.601562 M -3.101563 88.601562 L -3.101563 77.351562 M -3.101563 77.351562 C -3.101563 77.296875 -3.058594 77.25 -3 77.25 M -3 77.25 L -0.000000000000028422 77.25 C -0.0546875 77.25 -0.101563 77.292969 -0.101563 77.351562 M -0.101563 77.351562 L -0.101562 71.351562 C -0.101562 71.40625 -0.0585938 71.453125 0 71.453125 M 0 71.453125 L -3 71.453125 C -3.054688 71.453125 -3.101562 71.410156 -3.101562 71.351562 M -3.101562 71.351562 L -3.101562 65.351562 M -3.101562 65.351562 C -3.101562 65.296875 -3.058594 65.25 -3 65.25 M -3 65.25 L 0 65.25 C -0.0546875 65.25 -0.101562 65.292969 -0.101562 65.351562 M -0.101562 65.351562 L -0.101562 59.351562 C -0.101562 59.40625 -0.0585938 59.453125 0 59.453125 M 0 59.453125 L -3 59.453125 C -3.054688 59.453125 -3.101562 59.410156 -3.101562 59.351562 M -3.101562 59.351562 L -3.101562 53.351562 M -3.101562 53.351562 C -3.101562 53.296875 -3.058594 53.25 -3 53.25 M -3 53.25 L 0 53.25 C -0.0546875 53.25 -0.101562 53.292969 -0.101562 53.351562 M -0.101562 53.351562 L -0.101562 47.351562 C -0.101562 47.40625 -0.0585938 47.453125 0 47.453125 M 0 47.453125 L -3 47.453125 C -3.054688 47.453125 -3.101562 47.410156 -3.101562 47.351562 M -3.101562 47.351562 L -3.101562 41.351562 M -3.101562 41.351562 C -3.101562 41.296875 -3.058594 41.25 -3 41.25 M -3 41.25 L 0 41.25 C -0.0546875 41.25 -0.101562 41.292969 -0.101562 41.351562 M -0.101562 41.351562 L -0.101562 35.351562 C -0.101562 35.40625 -0.0585938 35.453125 0 35.453125 M 0 35.453125 L -3 35.453125 C -3.054688 35.453125 -3.101562 35.410156 -3.101562 35.351562 M -3.101562 35.351562 L -3.101562 29.351562 M -3.101562 29.351562 C -3.101562 29.296875 -3.058594 29.25 -3 29.25 M -3 29.25 L 0 29.25 C -0.0546875 29.25 -0.101562 29.292969 -0.101562 29.351562 M -0.101562 29.351562 L -0.101562 23.351562 C -0.101562 23.40625 -0.0585938 23.453125 0 23.453125 M 0 23.453125 L -3 23.453125 C -3.054688 23.453125 -3.101562 23.410156 -3.101562 23.351562 M -3.101562 23.351562 L -3.101562 17.351562 M -3.101562 17.351562 C -3.101562 17.296875 -3.058594 17.25 -3 17.25 M -3 17.25 L 0 17.25 C -0.0546875 17.25 -0.101562 17.292969 -0.101562 17.351562 M -0.101562 17.351562 L -0.101562 11.351562 C -0.101562 11.40625 -0.0585938 11.453125 0 11.453125 M 0 11.453125 L -3 11.453125 C -3.054688 11.453125 -3.101562 11.410156 -3.101562 11.351562 M -3.101562 11.351562 L -3.101562 0.101562 M -3.101562 0.101562 C -3.101562 0.046875 -3.058594 0 -3 0 M -3 0 L 0 0 " transform="matrix(1,0.000000000000000245,0.000000000000000245,-1,172.25,9996.148438)"/>
<path style="fill:none;stroke-width:0.2;stroke-linecap:butt;stroke-linejoin:miter;stroke:rgb(0%,0%,0%);stroke-opacity:1;stroke-miterlimit:10;" d="M 0 0 L 8.5 0 M 8.5 0 C 8.445312 0 8.398438 0.0429688 8.398438 0.101562 M 8.398438 0.101562 L 8.398438 -2.898438 C 8.398438 -2.953125 8.441406 -3 8.5 -3 M 8.5 -3 L 14.5 -3 C 14.554688 -3 14.601562 -2.957031 14.601562 -2.898438 M 14.601562 -2.898438 L 14.601562 0.101562 C 14.601562 0.046875 14.558594 0 14.5 0 M 14.5 0 L 20.5 0 M 20.5 0 C 20.445312 0 20.398438 0.0429688 20.398438 0.101562 M 20.398438 0.101562 L 20.398438 -2.898438 C 20.398438 -2.953125 20.441406 -3 20.5 -3 M 20.5 -3 L 26.5 -3 C 26.554688 -3 26.601562 -2.957031 26.601562 -2.898438 M 26.601562 -2.898438 L 26.601562 0.101562 C 26.601562 0.046875 26.558594 0 26.5 0 M 26.5 0 L 32.5 0 M 32.5 0 C 32.445312 0 32.398438 0.0429688 32.398438 0.101562 M 32.398438 0.101562 L 32.398438 -2.898438 C 32.398438 -2.953125 32.441406 -3 32.5 -3 M 32.5 -3 L 38.5 -3 C 38.554688 -3 38.601562 -2.957031 38.601562 -2.898438 M 38.601562 -2.898438 L 38.601562 0.101562 C 38.601562 0.046875 38.558594 0 38.5 0 M 38.5 0 L 44.5 0 M 44.5 0 C 44.445312 0 44.398438 0.0429688 44.398438 0.101562 M 44.398438 0.101562 L 44.398438 -2.898438 C 44.398438 -2.953125 44.441406 -3 44.5 -3 M 44.5 -3 L 50.5 -3 C 50.554688 -3 50.601562 -2.957031 50.601562 -2.898438 M 50.601562 -2.898438 L 50.601562 0.101562 C 50.601562 0.046875 50.558594 0 50.5 0 M 50.5 0 L 56.5 0 M 56.5 0 C 56.445312 0 56.398438 0.0429688 56.398438 0.101562 M 56.398438 0.101562 L 56.398438 -2.898438 C 56.398438 -2.953125 56.441406 -3 56.5 -3 M 56.5 -3 L 62.5 -3 C 62.554688 -3 62.601562 -2.957031 62.601562 -2.898438 M 62.601562 -2.898438 L 62.601562 0.101562 C 62.601562 0.046875 62.558594 0 62.5 0 M 62.5 0 L 68.5 0 M 68.5 0 C 68.445312 0 68.398438 0.0429688 68.398438 0.101562 M 68.398438 0.101562 L 68.398438 -2.898438 C 68.398438 -2.953125 68.441406 -3 68.5 -3 M 68.5 -3 L 74.5 -3 C 74.554688 -3 74.601562 -2.957031 74.601562 -2.898438 M 74.601562 -2.898438 L 74.601562 0.101562 C 74.601562 0.046875 74.558594 0 74.5 0 M 74.5 0 L 80.5 0 M 80.5 0 C 80.445312 0 80.398438 0.0429688 80.398438 0.101562 M 80.398438 0.101562 L 80.398438 -2.898438 C 80.398438 -2.953125 80.441406 -3 80.5 -3 M 80.5 -3 L 86.5 -3 C 86.554688 -3 86.601562 -2.957031 86.601562 -2.898438 M 86.601562 -2.898438 L 86.601562 0.101562 C 86.601562 0.046875 86.558594 0 86.5 0 M 86.5 0 L 95 0 M 95 0 C 95.054688 0 95.101562 0.0429688 95.101562 0.101562 M 95.101562 0.101562 L 95.101562 0.101562 M 95.101562 0.101562 L 95.101562 11.351562 M 95.101562 11.351562 C 95.101562 11.296875 95.058594 11.25 95 11.25 M 95 11.25 L 98 11.25 C 98.054688 11.25 98.101562 11.292969 98.101562 11.351562 M 98.101562 11.351562 L 98.101562 17.351562 C 98.101562 17.40625 98.058594 17.453125 98 17.453125 M 98 17.453125 L 95 17.453125 C 95.054688 17.453125 95.101562 17.410156 95.101562 17.351562 M 95.101562 17.351562 L 95.101562 23.351562 M 95.101562 23.351562 C 95.101562 23.296875 95.058594 23.25 95 23.25 M 95 23.25 L 98 23.25 C 98.054688 23.25 98.101562 23.292969 98.101562 23.351562 M 98.101562 23.351562 L 98.101562 29.351562 C 98.101562 29.40625 98.058594 29.453125 98 29.453125 M 98 29.453125 L 95 29.453125 C 95.054688 29.453125 95.101562 29.410156 95.101562 29.351562 M 95.101562 29.351562 L 95.101562 35.351562 M 95.101562 35.351562 C 95.101562 35.296875 95.058594 35.25 95 35.25 M 95 35.25 L 98 35.25 C 98.054688 35.25 98.101562 35.292969 98.101562 35.351562 M 98.101562 35.351562 L 98.101562 41.351562 C 98.101562 41.40625 98.058594 41.453125 98 41.453125 M 98 41.453125 L 95 41.453125 C 95.054688 41.453125 95.101562 41.410156 95.101562 41.351562 M 95.101562 41.351562 L 95.101562 47.351562 M 95.101562 47.351562 C 95.101562 47.296875 95.058594 47.25 95 47.25 M 95 47.25 L 98 47.25 C 98.054688 47.25 98.101562 47.292969 98.101562 47.351562 M 98.101562 47.351562 L 98.101562 53.351562 C 98.101562 53.40625 98.058594 53.453125 98 53.453125 M 98 53.453125 L 95 53.453125 C 95.054688 53.453125 95.101562 53.410156 95.101562 53.351562 M 95.101562 53.351562 L 95.101562 59.351562 M 95.101562 59.351562 C 95.101562 59.296875 95.058594 59.25 95 59.25 M 95 59.25 L 98 59.25 C 98.054688 59.25 98.101562 59.292969 98.101562 59.351562 M 98.101562 59.351562 L 98.101562 65.351562 C 98.101562 65.40625 98.058594 65.453125 98 65.453125 M 98 65.453125 L 95 65.453125 C 95.054688 65.453125 95.101562 65.410156 95.101562 65.351562 M 95.101562 65.351562 L 95.101562 71.351562 M 95.101562 71.351562 C 95.101562 71.296875 95.058594 71.25 95 71.25 M 95 71.25 L 98 71.25 C 98.054688 71.25 98.101562 71.292969 98.101562 71.351562 M 98.101562 71.351562 L 98.101562 77.351562 C 98.101562 77.40625 98.058594 77.453125 98 77.453125 M 98 77.453125 L 95 77.453125 C 95.054688 77.453125 95.101562 77.410156 95.101562 77.351562 M 95.101562 77.351562 L 95.101562 88.601562 M 95.101562 88.601562 C 95.101562 88.65625 95.058594 88.703125 95 88.703125 M 95 88.703125 L 95 88.703125 M 95 88.703125 L -0.000000000000028422 88.703125 M -0.000000000000028422 88.703125 C -0.0546875 88.703125 -0.101563 88.660156 -0.101563 88.601562 M -0.101563 88.601562 L -0.101563 88.601562 M -0.101563 88.601562 L -0.101563 77.351562 M -0.101563 77.351562 C -0.101563 77.40625 -0.0585938 77.453125 -0.000000000000028422 77.453125 M -0.000000000000028422 77.453125 L -3 77.453125 C -3.054688 77.453125 -3.101563 77.410156 -3.101563 77.351562 M -3.101563 77.351562 L -3.101562 71.351562 C -3.101562 71.296875 -3.058594 71.25 -3 71.25 M -3 71.25 L 0 71.25 C -0.0546875 71.25 -0.101562 71.292969 -0.101562 71.351562 M -0.101562 71.351562 L -0.101562 65.351562 M -0.101562 65.351562 C -0.101562 65.40625 -0.0585938 65.453125 0 65.453125 M 0 65.453125 L -3 65.453125 C -3.054688 65.453125 -3.101562 65.410156 -3.101562 65.351562 M -3.101562 65.351562 L -3.101562 59.351562 C -3.101562 59.296875 -3.058594 59.25 -3 59.25 M -3 59.25 L 0 59.25 C -0.0546875 59.25 -0.101562 59.292969 -0.101562 59.351562 M -0.101562 59.351562 L -0.101562 53.351562 M -0.101562 53.351562 C -0.101562 53.40625 -0.0585938 53.453125 0 53.453125 M 0 53.453125 L -3 53.453125 C -3.054688 53.453125 -3.101562 53.410156 -3.101562 53.351562 M -3.101562 53.351562 L -3.101562 47.351562 C -3.101562 47.296875 -3.058594 47.25 -3 47.25 M -3 47.25 L 0 47.25 C -0.0546875 47.25 -0.101562 47.292969 -0.101562 47.351562 M -0.101562 47.351562 L -0.101562 41.351562 M -0.101562 41.351562 C -0.101562 41.40625 -0.0585938 41.453125 0 41.453125 M 0 41.453125 L -3 41.453125 C -3.054688 41.453125 -3.101562 41.410156 -3.101562 41.351562 M -3.101562 41.351562 L -3.101562 35.351562 C -3.101562 35.296875 -3.058594 35.25 -3 35.25 M -3 35.25 L 0 35.25 C -0.0546875 35.25 -0.101562 35.292969 -0.101562 35.351562 M -0.101562 35.351562 L -0.101562 29.351562 M -0.101562 29.351562 C -0.101562 29.40625 -0.0585938 29.453125 0 29.453125 M 0 29.453125 L -3 29.453125 C -3.054688 29.453125 -3.101562 29.410156 -3.101562 29.351562 M -3.101562 29.351562 L -3.101562 23.351562 C -3.101562 23.296875 -3.058594 23.25 -3 23.25 M -3 23.25 L 0 23.25 C -0.0546875 23.25 -0.101562 23.292969 -0.101562 23.351562 M -0.101562 23.351562 L -0.101562 17.351562 M -0.101562 17.351562 C -0.101562 17.40625 -0.0585938 17.453125 0 17.453125 M 0 17.453125 L -3 17.453125 C -3.054688 17.453125 -3.101562 17.410156 -3.101562 17.351562 M -3.101562 17.351562 L -3.101562 11.351562 C -3.101562 11.296875 -3.058594 11.25 -3 11.25 M -3 11.25 L 0 11.25 C -0.0546875 11.25 -0.101562 11.292969 -0.101562 11.351562 M -0.101562 11.351562 L -0.101562 0.101562 M -0.101562 0.101562 C -0.101562 0.046875 -0.0585938 0 0 0 M 0 0 L 0 0 " transform="matrix(1,0.000000000000000245,0.000000000000000245,-1,237.949219,9996.148438)"/>
<path style="fill:none;stroke-width:0.2;stroke-linecap:butt;stroke-linejoin:miter;stroke:rgb(0%,0%,0%);stroke-opacity:1;stroke-miterlimit:10;" d="M 0.00390625 0 L 11.152344 0 M 11.152344 0 C 11.097656 0 11.050781 0.0429688 11.050781 0.101562 M 11.050781 0.101562 L 11.050781 -2.898438 C 11.050781 -2.953125 11.09375 -3 11.152344 -3 M 11.152344 -3 L 17.152344 -3 C 17.207031 -3 17.253906 -2.957031 17.253906 -2.898438 M 17.253906 -2.898438 L 17.253906 0.101562 C 17.253906 0.046875 17.210938 0 17.152344 0 M 17.152344 0 L 23.152344 0 M 23.152344 0 C 23.097656 0 23.050781 0.0429688 23.050781 0.101562 M 23.050781 0.101562 L 23.050781 -2.898438 C 23.050781 -2.953125 23.09375 -3 23.152344 -3 M 23.152344 -3 L 29.152344 -3 C 29.207031 -3 29.253906 -2.957031 29.253906 -2.898438 M 29.253906 -2.898438 L 29.253906 0.101562 C 29.253906 0.046875 29.210937 0 29.152344 0 M 29.152344 0 L 35.152344 0 M 35.152344 0 C 35.097656 0 35.050781 0.0429688 35.050781 0.101562 M 35.050781 0.101562 L 35.050781 -2.898438 C 35.050781 -2.953125 35.09375 -3 35.152344 -3 M 35.152344 -3 L 41.152344 -3 C 41.207031 -3 41.253906 -2.957031 41.253906 -2.898438 M 41.253906 -2.898438 L 41.253906 0.101562 C 41.253906 0.046875 41.210938 0 41.152344 0 M 41.152344 0 L 47.152344 0 M 47.152344 0 C 47.097656 0 47.050781 0.0429688 47.050781 0.101562 M 47.050781 0.101562 L 47.050781 -2.898438 C 47.050781 -2.953125 47.09375 -3 47.152344 -3 M 47.152344 -3 L 53.152344 -3 C 53.207031 -3 53.253906 -2.957031 53.253906 -2.898438 M 53.253906 -2.898438 L 53.253906 0.101562 C 53.253906 0.046875 53.210938 0 53.152344 0 M 53.152344 0 L 64.300781 0 M 64.300781 0 L 67.300781 0 C 67.355469 0 67.402344 0.0429688 67.402344 0.101562 M 67.402344 0.101562 L 67.402344 0.101562 M 67.402344 0.101562 L 67.402344 11.351562 M 67.402344 11.351562 C 67.402344 11.40625 67.359375 11.453125 67.300781 11.453125 M 67.300781 11.453125 L 64.300781 11.453125 C 64.355469 11.453125 64.402344 11.410156 64.402344 11.351562 M 64.402344 11.351562 L 64.402344 17.351562 C 64.402344 17.296875 64.359375 17.25 64.300781 17.25 M 64.300781 17.25 L 67.300781 17.25 C 67.355469 17.25 67.402344 17.292969 67.402344 17.351562 M 67.402344 17.351562 L 67.402344 23.351562 M 67.402344 23.351562 C 67.402344 23.40625 67.359375 23.453125 67.300781 23.453125 M 67.300781 23.453125 L 64.300781 23.453125 C 64.355469 23.453125 64.402344 23.410156 64.402344 23.351562 M 64.402344 23.351562 L 64.402344 29.351562 C 64.402344 29.296875 64.359375 29.25 64.300781 29.25 M 64.300781 29.25 L 67.300781 29.25 C 67.355469 29.25 67.402344 29.292969 67.402344 29.351562 M 67.402344 29.351562 L 67.402344 35.351562 M 67.402344 35.351562 C 67.402344 35.40625 67.359375 35.453125 67.300781 35.453125 M 67.300781 35.453125 L 64.300781 35.453125 C 64.355469 35.453125 64.402344 35.410156 64.402344 35.351562 M 64.402344 35.351562 L 64.402344 41.351562 C 64.402344 41.296875 64.359375 41.25 64.300781 41.25 M 64.300781 41.25 L 67.300781 41.25 C 67.355469 41.25 67.402344 41.292969 67.402344 41.351562 M 67.402344 41.351562 L 67.402344 47.351562 M 67.402344 47.351562 C 67.402344 47.40625 67.359375 47.453125 67.300781 47.453125 M 67.300781 47.453125 L 64.300781 47.453125 C 64.355469 47.453125 64.402344 47.410156 64.402344 47.351562 M 64.402344 47.351562 L 64.402344 53.351562 C 64.402344 53.296875 64.359375 53.25 64.300781 53.25 M 64.300781 53.25 L 67.300781 53.25 C 67.355469 53.25 67.402344 53.292969 67.402344 53.351562 M 67.402344 53.351562 L 67.402344 59.351562 M 67.402344 59.351562 C 67.402344 59.40625 67.359375 59.453125 67.300781 59.453125 M 67.300781 59.453125 L 64.300781 59.453125 C 64.355469 59.453125 64.402344 59.410156 64.402344 59.351562 M 64.402344 59.351562 L 64.402344 65.351562 C 64.402344 65.296875 64.359375 65.25 64.300781 65.25 M 64.300781 65.25 L 67.300781 65.25 C 67.355469 65.25 67.402344 65.292969 67.402344 65.351562 M 67.402344 65.351562 L 67.402344 71.351562 M 67.402344 71.351562 C 67.402344 71.40625 67.359375 71.453125 67.300781 71.453125 M 67.300781 71.453125 L 64.300781 71.453125 C 64.355469 71.453125 64.402344 71.410156 64.402344 71.351562 M 64.402344 71.351562 L 64.402344 77.351562 C 64.402344 77.296875 64.359375 77.25 64.300781 77.25 M 64.300781 77.25 L 67.300781 77.25 C 67.355469 77.25 67.402344 77.292969 67.402344 77.351562 M 67.402344 77.351562 L 67.402344 88.601562 M 67.402344 88.601562 C 67.402344 88.65625 67.359375 88.703125 67.300781 88.703125 M 67.300781 88.703125 L 64.300781 88.703125 M 64.300781 88.703125 L -0.00000000000002176 88.703125 M -0.00000000000002176 88.703125 L -3 88.703125 C -3.054688 88.703125 -3.101563 88.660156 -3.101563 88.601562 M -3.101563 88.601562 L -3.101563 88.601562 M -3.101563 88.601562 L -3.101563 77.351562 M -3.101563 77.351562 C -3.101563 77.296875 -3.058594 77.25 -3 77.25 M -3 77.25 L -0.000000000000019096 77.25 C -0.0546875 77.25 -0.101563 77.292969 -0.101563 77.351562 M -0.101563 77.351562 L -0.101563 71.351562 C -0.101563 71.40625 -0.0585938 71.453125 -0.000000000000017764 71.453125 M -0.000000000000017764 71.453125 L -3 71.453125 C -3.054688 71.453125 -3.101563 71.410156 -3.101563 71.351562 M -3.101563 71.351562 L -3.101563 65.351562 M -3.101563 65.351562 C -3.101563 65.296875 -3.058594 65.25 -3 65.25 M -3 65.25 L -0.000000000000015987 65.25 C -0.0546875 65.25 -0.101563 65.292969 -0.101563 65.351562 M -0.101563 65.351562 L -0.101563 59.351562 C -0.101563 59.40625 -0.0585938 59.453125 -0.000000000000014655 59.453125 M -0.000000000000014655 59.453125 L -3 59.453125 C -3.054688 59.453125 -3.101563 59.410156 -3.101563 59.351562 M -3.101563 59.351562 L -3.101563 53.351562 M -3.101563 53.351562 C -3.101563 53.296875 -3.058594 53.25 -3 53.25 M -3 53.25 L -0.000000000000013323 53.25 C -0.0546875 53.25 -0.101563 53.292969 -0.101563 53.351562 M -0.101563 53.351562 L -0.101563 47.351562 C -0.101563 47.40625 -0.0585938 47.453125 -0.000000000000011546 47.453125 M -0.000000000000011546 47.453125 L -3 47.453125 C -3.054688 47.453125 -3.101563 47.410156 -3.101563 47.351562 M -3.101563 47.351562 L -3.101563 41.351562 M -3.101563 41.351562 C -3.101563 41.296875 -3.058594 41.25 -3 41.25 M -3 41.25 L -0.000000000000010214 41.25 C -0.0546875 41.25 -0.101563 41.292969 -0.101563 41.351562 M -0.101563 41.351562 L -0.101563 35.351562 C -0.101563 35.40625 -0.0585938 35.453125 -0.000000000000008882 35.453125 M -0.000000000000008882 35.453125 L -3 35.453125 C -3.054688 35.453125 -3.101563 35.410156 -3.101563 35.351562 M -3.101563 35.351562 L -3.101563 29.351562 M -3.101563 29.351562 C -3.101563 29.296875 -3.058594 29.25 -3 29.25 M -3 29.25 L -0.000000000000007105 29.25 C -0.0546875 29.25 -0.101563 29.292969 -0.101563 29.351562 M -0.101563 29.351562 L -0.101563 23.351562 C -0.101563 23.40625 -0.0585938 23.453125 -0.000000000000005773 23.453125 M -0.000000000000005773 23.453125 L -3 23.453125 C -3.054688 23.453125 -3.101563 23.410156 -3.101563 23.351562 M -3.101563 23.351562 L -3.101563 17.351562 M -3.101563 17.351562 C -3.101563 17.296875 -3.058594 17.25 -3 17.25 M -3 17.25 L -0.000000000000004441 17.25 C -0.0546875 17.25 -0.101563 17.292969 -0.101563 17.351562 M -0.101563 17.351562 L -0.101563 11.351562 C -0.101563 11.40625 -0.0585938 11.453125 -0.000000000000003109 11.453125 M -0.000000000000003109 11.453125 L -3 11.453125 C -3.054688 11.453125 -3.101563 11.410156 -3.101563 11.351562 M -3.101563 11.351562 L -3.101562 0.101562 M -3.101562 0.101562 C -3.101562 0.046875 -3.058594 0 -3 0 M -3 0 L 0 0 " transform="matrix(1,0.000000000000000245,0.000000000000000245,-1,3.847656,9902.949219)"/>
<path style="fill:none;stroke-width:0.2;stroke-linecap:butt;stroke-linejoin:miter;stroke:rgb(0%,0%,0%);stroke-opacity:1;stroke-miterlimit:10;" d="M 0.00390625 0 L 11.652344 0 M 11.652344 0 C 11.597656 0 11.550781 0.0429688 11.550781 0.101562 M 11.550781 0.101562 L 11.550781 -2.898438 C 11.550781 -2.953125 11.59375 -3 11.652344 -3 M 11.652344 -3 L 17.652344 -3 C 17.707031 -3 17.753906 -2.957031 17.753906 -2.898438 M 17.753906 -2.898438 L 17.753906 0.101562 C 17.753906 0.046875 17.710938 0 17.652344 0 M 17.652344 0 L 23.652344 0 M 23.652344 0 C 23.597656 0 23.550781 0.0429688 23.550781 0.101562 M 23.550781 0.101562 L 23.550781 -2.898438 C 23.550781 -2.953125 23.59375 -3 23.652344 -3 M 23.652344 -3 L 29.652344 -3 C 29.707031 -3 29.753906 -2.957031 29.753906 -2.898438 M 29.753906 -2.898438 L 29.753906 0.101562 C 29.753906 0.046875 29.710938 0 29.652344 0 M 29.652344 0 L 35.652344 0 M 35.652344 0 C 35.597656 0 35.550781 0.0429688 35.550781 0.101562 M 35.550781 0.101562 L 35.550781 -2.898438 C 35.550781 -2.953125 35.59375 -3 35.652344 -3 M 35.652344 -3 L 41.652344 -3 C 41.707031 -3 41.753906 -2.957031 41.753906 -2.898438 M 41.753906 -2.898438 L 41.753906 0.101562 C 41.753906 0.046875 41.710938 0 41.652344 0 M 41.652344 0 L 47.652344 0 M 47.652344 0 C 47.597656 0 47.550781 0.0429688 47.550781 0.101562 M 47.550781 0.101562 L 47.550781 -2.898438 C 47.550781 -2.953125 47.59375 -3 47.652344 -3 M 47.652344 -3 L 53.652344 -3 C 53.707031 -3 53.753906 -2.957031 53.753906 -2.898438 M 53.753906 -2.898438 L 53.753906 0.101562 C 53.753906 0.046875 53.710937 0 53.652344 0 M 53.652344 0 L 59.652344 0 M 59.652344 0 C 59.597656 0 59.550781 0.0429688 59.550781 0.101562 M 59.550781 0.101562 L 59.550781 -2.898438 C 59.550781 -2.953125 59.59375 -3 59.652344 -3 M 59.652344 -3 L 65.652344 -3 C 65.707031 -3 65.753906 -2.957031 65.753906 -2.898438 M 65.753906 -2.898438 L 65.753906 0.101562 C 65.753906 0.046875 65.710937 0 65.652344 0 M 65.652344 0 L 71.652344 0 M 71.652344 0 C 71.597656 0 71.550781 0.0429688 71.550781 0.101562 M 71.550781 0.101562 L 71.550781 -2.898438 C 71.550781 -2.953125 71.59375 -3 71.652344 -3 M 71.652344 -3 L 77.652344 -3 C 77.707031 -3 77.753906 -2.957031 77.753906 -2.898438 M 77.753906 -2.898438 L 77.753906 0.101562 C 77.753906 0.046875 77.710937 0 77.652344 0 M 77.652344 0 L 83.652344 0 M 83.652344 0 C 83.597656 0 83.550781 0.0429688 83.550781 0.101562 M 83.550781 0.101562 L 83.550781 -2.898438 C 83.550781 -2.953125 83.59375 -3 83.652344 -3 M 83.652344 -3 L 89.652344 -3 C 89.707031 -3 89.753906 -2.957031 89.753906 -2.898438 M 89.753906 -2.898438 L 89.753906 0.101562 C 89.753906 0.046875 89.710937 0 89.652344 0 M 89.652344 0 L 101.300781 0 M 101.300781 0 C 101.355469 0 101.402344 0.0429688 101.402344 0.101562 M 101.402344 0.101562 L 101.402344 0.101562 M 101.402344 0.101562 L 101.402344 11.351562 M 101.402344 11.351562 C 101.402344 11.296875 101.359375 11.25 101.300781 11.25 M 101.300781 11.25 L 104.300781 11.25 C 104.355469 11.25 104.402344 11.292969 104.402344 11.351562 M 104.402344 11.351562 L 104.402344 17.351562 C 104.402344 17.40625 104.359375 17.453125 104.300781 17.453125 M 104.300781 17.453125 L 101.300781 17.453125 C 101.355469 17.453125 101.402344 17.410156 101.402344 17.351562 M 101.402344 17.351562 L 101.402344 23.351562 M 101.402344 23.351562 C 101.402344 23.296875 101.359375 23.25 101.300781 23.25 M 101.300781 23.25 L 104.300781 23.25 C 104.355469 23.25 104.402344 23.292969 104.402344 23.351562 M 104.402344 23.351562 L 104.402344 29.351562 C 104.402344 29.40625 104.359375 29.453125 104.300781 29.453125 M 104.300781 29.453125 L 101.300781 29.453125 C 101.355469 29.453125 101.402344 29.410156 101.402344 29.351562 M 101.402344 29.351562 L 101.402344 35.351562 M 101.402344 35.351562 C 101.402344 35.296875 101.359375 35.25 101.300781 35.25 M 101.300781 35.25 L 104.300781 35.25 C 104.355469 35.25 104.402344 35.292969 104.402344 35.351562 M 104.402344 35.351562 L 104.402344 41.351562 C 104.402344 41.40625 104.359375 41.453125 104.300781 41.453125 M 104.300781 41.453125 L 101.300781 41.453125 C 101.355469 41.453125 101.402344 41.410156 101.402344 41.351562 M 101.402344 41.351562 L 101.402344 47.351562 M 101.402344 47.351562 C 101.402344 47.296875 101.359375 47.25 101.300781 47.25 M 101.300781 47.25 L 104.300781 47.25 C 104.355469 47.25 104.402344 47.292969 104.402344 47.351562 M 104.402344 47.351562 L 104.402344 53.351562 C 104.402344 53.40625 104.359375 53.453125 104.300781 53.453125 M 104.300781 53.453125 L 101.300781 53.453125 C 101.355469 53.453125 101.402344 53.410156 101.402344 53.351562 M 101.402344 53.351562 L 101.402344 59.351562 M 101.402344 59.351562 C 101.402344 59.296875 101.359375 59.25 101.300781 59.25 M 101.300781 59.25 L 104.300781 59.25 C 104.355469 59.25 104.402344 59.292969 104.402344 59.351562 M 104.402344 59.351562 L 104.402344 65.351562 C 104.402344 65.40625 104.359375 65.453125 104.300781 65.453125 M 104.300781 65.453125 L 101.300781 65.453125 C 101.355469 65.453125 101.402344 65.410156 101.402344 65.351562 M 101.402344 65.351562 L 101.402344 71.351562 M 101.402344 71.351562 C 101.402344 71.296875 101.359375 71.25 101.300781 71.25 M 101.300781 71.25 L 104.300781 71.25 C 104.355469 71.25 104.402344 71.292969 104.402344 71.351562 M 104.402344 71.351562 L 104.402344 77.351562 C 104.402344 77.40625 104.359375 77.453125 104.300781 77.453125 M 104.300781 77.453125 L 101.300781 77.453125 C 101.355469 77.453125 101.402344 77.410156 101.402344 77.351562 M 101.402344 77.351562 L 101.402344 88.601562 M 101.402344 88.601562 C 101.402344 88.65625 101.359375 88.703125 101.300781 88.703125 M 101.300781 88.703125 L 101.300781 88.703125 M 101.300781 88.703125 L -0.000000000000028422 88.703125 M -0.000000000000028422 88.703125 C -0.0546875 88.703125 -0.101563 88.660156 -0.101563 88.601562 M -0.101563 88.601562 L -0.101563 88.601562 M -0.101563 88.601562 L -0.101563 77.351562 M -0.101563 77.351562 C -0.101563 77.40625 -0.0585938 77.453125 -0.000000000000028422 77.453125 M -0.000000000000028422 77.453125 L -3 77.453125 C -3.054688 77.453125 -3.101563 77.410156 -3.101563 77.351562 M -3.101563 77.351562 L -3.101563 71.351562 C -3.101563 71.296875 -3.058594 71.25 -3 71.25 M -3 71.25 L -0.000000000000028422 71.25 C -0.0546875 71.25 -0.101563 71.292969 -0.101563 71.351562 M -0.101563 71.351562 L -0.101563 65.351562 M -0.101563 65.351562 C -0.101563 65.40625 -0.0585938 65.453125 -0.000000000000014211 65.453125 M -0.000000000000014211 65.453125 L -3 65.453125 C -3.054688 65.453125 -3.101563 65.410156 -3.101563 65.351562 M -3.101563 65.351562 L -3.101563 59.351562 C -3.101563 59.296875 -3.058594 59.25 -3 59.25 M -3 59.25 L -0.000000000000014211 59.25 C -0.0546875 59.25 -0.101563 59.292969 -0.101563 59.351562 M -0.101563 59.351562 L -0.101563 53.351562 M -0.101563 53.351562 C -0.101563 53.40625 -0.0585938 53.453125 -0.000000000000014211 53.453125 M -0.000000000000014211 53.453125 L -3 53.453125 C -3.054688 53.453125 -3.101563 53.410156 -3.101563 53.351562 M -3.101563 53.351562 L -3.101563 47.351562 C -3.101563 47.296875 -3.058594 47.25 -3 47.25 M -3 47.25 L -0.000000000000014211 47.25 C -0.0546875 47.25 -0.101563 47.292969 -0.101563 47.351562 M -0.101563 47.351562 L -0.101563 41.351562 M -0.101563 41.351562 C -0.101563 41.40625 -0.0585938 41.453125 -0.000000000000014211 41.453125 M -0.000000000000014211 41.453125 L -3 41.453125 C -3.054688 41.453125 -3.101563 41.410156 -3.101563 41.351562 M -3.101563 41.351562 L -3.101563 35.351562 C -3.101563 35.296875 -3.058594 35.25 -3 35.25 M -3 35.25 L -0.000000000000014211 35.25 C -0.0546875 35.25 -0.101563 35.292969 -0.101563 35.351562 M -0.101563 35.351562 L -0.101563 29.351562 M -0.101563 29.351562 C -0.101563 29.40625 -0.0585938 29.453125 -0.000000000000014211 29.453125 M -0.000000000000014211 29.453125 L -3 29.453125 C -3.054688 29.453125 -3.101563 29.410156 -3.101563 29.351562 M -3.101563 29.351562 L -3.101563 23.351562 C -3.101563 23.296875 -3.058594 23.25 -3 23.25 M -3 23.25 L -0.000000000000014211 23.25 C -0.0546875 23.25 -0.101563 23.292969 -0.101563 23.351562 M -0.101563 23.351562 L -0.101563 17.351562 M -0.101563 17.351562 C -0.101563 17.40625 -0.0585938 17.453125 -0.000000000000014211 17.453125 M -0.000000000000014211 17.453125 L -3 17.453125 C -3.054688 17.453125 -3.101563 17.410156 -3.101563 17.351562 M -3.101563 17.351562 L -3.101563 11.351562 C -3.101563 11.296875 -3.058594 11.25 -3 11.25 M -3 11.25 L -0.000000000000014211 11.25 C -0.0546875 11.25 -0.101563 11.292969 -0.101563 11.351562 M -0.101563 11.351562 L -0.101562 0.101562 M -0.101562 0.101562 C -0.101562 0.046875 -0.0585938 0 0 0 M 0 0 L 0 0 " transform="matrix(1,0.000000000000000245,0.000000000000000245,-1,75.847656,9902.949219)"/>
<path style="fill:none;stroke-width:0.2;stroke-linecap:butt;stroke-linejoin:miter;stroke:rgb(0%,0%,0%);stroke-opacity:1;stroke-miterlimit:10;" d="M 0.00390625 0 L 11.152344 0 M 11.152344 0 C 11.097656 0 11.050781 0.0429688 11.050781 0.101562 M 11.050781 0.101562 L 11.050781 -2.898438 C 11.050781 -2.953125 11.09375 -3 11.152344 -3 M 11.152344 -3 L 17.152344 -3 C 17.207031 -3 17.253906 -2.957031 17.253906 -2.898438 M 17.253906 -2.898438 L 17.253906 0.101562 C 17.253906 0.046875 17.210938 0 17.152344 0 M 17.152344 0 L 23.152344 0 M 23.152344 0 C 23.097656 0 23.050781 0.0429688 23.050781 0.101562 M 23.050781 0.101562 L 23.050781 -2.898438 C 23.050781 -2.953125 23.09375 -3 23.152344 -3 M 23.152344 -3 L 29.152344 -3 C 29.207031 -3 29.253906 -2.957031 29.253906 -2.898438 M 29.253906 -2.898438 L 29.253906 0.101562 C 29.253906 0.046875 29.210938 0 29.152344 0 M 29.152344 0 L 35.152344 0 M 35.152344 0 C 35.097656 0 35.050781 0.0429688 35.050781 0.101562 M 35.050781 0.101562 L 35.050781 -2.898438 C 35.050781 -2.953125 35.09375 -3 35.152344 -3 M 35.152344 -3 L 41.152344 -3 C 41.207031 -3 41.253906 -2.957031 41.253906 -2.898438 M 41.253906 -2.898438 L 41.253906 0.101562 C 41.253906 0.046875 41.210938 0 41.152344 0 M 41.152344 0 L 47.152344 0 M 47.152344 0 C 47.097656 0 47.050781 0.0429688 47.050781 0.101562 M 47.050781 0.101562 L 47.050781 -2.898438 C 47.050781 -2.953125 47.09375 -3 47.152344 -3 M 47.152344 -3 L 53.152344 -3 C 53.207031 -3 53.253906 -2.957031 53.253906 -2.898438 M 53.253906 -2.898438 L 53.253906 0.101562 C 53.253906 0.046875 53.210938 0 53.152344 0 M 53.152344 0 L 64.300781 0 M 64.300781 0 L 67.300781 0 C 67.355469 0 67.402344 0.0429688 67.402344 0.101562 M 67.402344 0.101562 L 67.402344 0.101562 M 67.402344 0.101562 L 67.402344 11.351562 M 67.402344 11.351562 C 67.402344 11.40625 67.359375 11.453125 67.300781 11.453125 M 67.300781 11.453125 L 64.300781 11.453125 C 64.355469 11.453125 64.402344 11.410156 64.402344 11.351562 M 64.402344 11.351562 L 64.402344 17.351562 C 64.402344 17.296875 64.359375 17.25 64.300781 17.25 M 64.300781 17.25 L 67.300781 17.25 C 67.355469 17.25 67.402344 17.292969 67.402344 17.351562 M 67.402344 17.351562 L 67.402344 23.351562 M 67.402344 23.351562 C 67.402344 23.40625 67.359375 23.453125 67.300781 23.453125 M 67.300781 23.453125 L 64.300781 23.453125 C 64.355469 23.453125 64.402344 23.410156 64.402344 23.351562 M 64.402344 23.351562 L 64.402344 29.351562 C 64.402344 29.296875 64.359375 29.25 64.300781 29.25 M 64.300781 29.25 L 67.300781 29.25 C 67.355469 29.25 67.402344 29.292969 67.402344 29.351562 M 67.402344 29.351562 L 67.402344 35.351562 M 67.402344 35.351562 C 67.402344 35.40625 67.359375 35.453125 67.300781 35.453125 M 67.300781 35.453125 L 64.300781 35.453125 C 64.355469 35.453125 64.402344 35.410156 64.402344 35.351562 M 64.402344 35.351562 L 64.402344 41.351562 C 64.402344 41.296875 64.359375 41.25 64.300781 41.25 M 64.300781 41.25 L 67.300781 41.25 C 67.355469 41.25 67.402344 41.292969 67.402344 41.351562 M 67.402344 41.351562 L 67.402344 47.351562 M 67.402344 47.351562 C 67.402344 47.40625 67.359375 47.453125 67.300781 47.453125 M 67.300781 47.453125 L 64.300781 47.453125 C 64.355469 47.453125 64.402344 47.410156 64.402344 47.351562 M 64.402344 47.351562 L 64.402344 53.351562 C 64.402344 53.296875 64.359375 53.25 64.300781 53.25 M 64.300781 53.25 L 67.300781 53.25 C 67.355469 53.25 67.402344 53.292969 67.402344 53.351562 M 67.402344 53.351562 L 67.402344 59.351562 M 67.402344 59.351562 C 67.402344 59.40625 67.359375 59.453125 67.300781 59.453125 M 67.300781 59.453125 L 64.300781 59.453125 C 64.355469 59.453125 64.402344 59.410156 64.402344 59.351562 M 64.402344 59.351562 L 64.402344 65.351562 C 64.402344 65.296875 64.359375 65.25 64.300781 65.25 M 64.300781 65.25 L 67.300781 65.25 C 67.355469 65.25 67.402344 65.292969 67.402344 65.351562 M 67.402344 65.351562 L 67.402344 71.351562 M 67.402344 71.351562 C 67.402344 71.40625 67.359375 71.453125 67.300781 71.453125 M 67.300781 71.453125 L 64.300781 71.453125 C 64.355469 71.453125 64.402344 71.410156 64.402344 71.351562 M 64.402344 71.351562 L 64.402344 77.351562 C 64.402344 77.296875 64.359375 77.25 64.300781 77.25 M 64.300781 77.25 L 67.300781 77.25 C 67.355469 77.25 67.402344 77.292969 67.402344 77.351562 M 67.402344 77.351562 L 67.402344 88.601562 M 67.402344 88.601562 C 67.402344 88.65625 67.359375 88.703125 67.300781 88.703125 M 67.300781 88.703125 L 64.300781 88.703125 M 64.300781 88.703125 L 0 88.703125 M 0 88.703125 L -3 88.703125 C -3.054688 88.703125 -3.101562 88.660156 -3.101562 88.601562 M -3.101562 88.601562 L -3.101562 88.601562 M -3.101562 88.601562 L -3.101562 77.351562 M -3.101562 77.351562 C -3.101562 77.296875 -3.058594 77.25 -3 77.25 M -3 77.25 L 0 77.25 C -0.0546875 77.25 -0.101562 77.292969 -0.101562 77.351562 M -0.101562 77.351562 L -0.101562 71.351562 C -0.101562 71.40625 -0.0585938 71.453125 0 71.453125 M 0 71.453125 L -3 71.453125 C -3.054688 71.453125 -3.101562 71.410156 -3.101562 71.351562 M -3.101562 71.351562 L -3.101562 65.351562 M -3.101562 65.351562 C -3.101562 65.296875 -3.058594 65.25 -3 65.25 M -3 65.25 L 0 65.25 C -0.0546875 65.25 -0.101562 65.292969 -0.101562 65.351562 M -0.101562 65.351562 L -0.101562 59.351562 C -0.101562 59.40625 -0.0585938 59.453125 0 59.453125 M 0 59.453125 L -3 59.453125 C -3.054688 59.453125 -3.101562 59.410156 -3.101562 59.351562 M -3.101562 59.351562 L -3.101562 53.351562 M -3.101562 53.351562 C -3.101562 53.296875 -3.058594 53.25 -3 53.25 M -3 53.25 L 0 53.25 C -0.0546875 53.25 -0.101562 53.292969 -0.101562 53.351562 M -0.101562 53.351562 L -0.101562 47.351562 C -0.101562 47.40625 -0.0585938 47.453125 0 47.453125 M 0 47.453125 L -3 47.453125 C -3.054688 47.453125 -3.101562 47.410156 -3.101562 47.351562 M -3.101562 47.351562 L -3.101562 41.351562 M -3.101562 41.351562 C -3.101562 41.296875 -3.058594 41.25 -3 41.25 M -3 41.25 L 0 41.25 C -0.0546875 41.25 -0.101562 41.292969 -0.101562 41.351562 M -0.101562 41.351562 L -0.101562 35.351562 C -0.101562 35.40625 -0.0585938 35.453125 0 35.453125 M 0 35.453125 L -3 35.453125 C -3.054688 35.453125 -3.101562 35.410156 -3.101562 35.351562 M -3.101562 35.351562 L -3.101562 29.351562 M -3.101562 29.351562 C -3.101562 29.296875 -3.058594 29.25 -3 29.25 M -3 29.25 L 0 29.25 C -0.0546875 29.25 -0.101562 29.292969 -0.101562 29.351562 M -0.101562 29.351562 L -0.101562 23.351562 C -0.101562 23.40625 -0.0585938 23.453125 0 23.453125 M 0 23.453125 L -3 23.453125 C -3.054688 23.453125 -3.101562 23.410156 -3.101562 23.351562 M -3.101562 23.351562 L -3.101562 17.351562 M -3.101562 17.351562 C -3.101562 17.296875 -3.058594 17.25 -3 17.25 M -3 17.25 L 0 17.25 C -0.0546875 17.25 -0.101562 17.292969 -0.101562 17.351562 M -0.101562 17.351562 L -0.101562 11.351562 C -0.101562 11.40625 -0.0585938 11.453125 0 11.453125 M 0 11.453125 L -3 11.453125 C -3.054688 11.453125 -3.101562 11.410156 -3.101562 11.351562 M -3.101562 11.351562 L -3.101562 0.101562 M -3.101562 0.101562 C -3.101562 0.046875 -3.058594 0 -3 0 M -3 0 L 0 0 " transform="matrix(1,0.000000000000000245,0.000000000000000245,-1,184.847656,9902.949219)"/>
<path style="fill:none;stroke-width:0.2;stroke-linecap:butt;stroke-linejoin:miter;stroke:rgb(0%,0%,0%);stroke-opacity:1;stroke-miterlimit:10;" d="M 0.00390625 0 L 11.652344 0 M 11.652344 0 C 11.597656 0 11.550781 0.0429688 11.550781 0.101562 M 11.550781 0.101562 L 11.550781 -2.898438 C 11.550781 -2.953125 11.59375 -3 11.652344 -3 M 11.652344 -3 L 17.652344 -3 C 17.707031 -3 17.753906 -2.957031 17.753906 -2.898438 M 17.753906 -2.898438 L 17.753906 0.101562 C 17.753906 0.046875 17.710938 0 17.652344 0 M 17.652344 0 L 23.652344 0 M 23.652344 0 C 23.597656 0 23.550781 0.0429688 23.550781 0.101562 M 23.550781 0.101562 L 23.550781 -2.898438 C 23.550781 -2.953125 23.59375 -3 23.652344 -3 M 23.652344 -3 L 29.652344 -3 C 29.707031 -3 29.753906 -2.957031 29.753906 -2.898438 M 29.753906 -2.898438 L 29.753906 0.101562 C 29.753906 0.046875 29.710938 0 29.652344 0 M 29.652344 0 L 35.652344 0 M 35.652344 0 C 35.597656 0 35.550781 0.0429688 35.550781 0.101562 M 35.550781 0.101562 L 35.550781 -2.898438 C 35.550781 -2.953125 35.59375 -3 35.652344 -3 M 35.652344 -3 L 41.652344 -3 C 41.707031 -3 41.753906 -2.957031 41.753906 -2.898438 M 41.753906 -2.898438 L 41.753906 0.101562 C 41.753906 0.046875 41.710938 0 41.652344 0 M 41.652344 0 L 47.652344 0 M 47.652344 0 C 47.597656 0 47.550781 0.0429688 47.550781 0.101562 M 47.550781 0.101562 L 47.550781 -2.898438 C 47.550781 -2.953125 47.59375 -3 47.652344 -3 M 47.652344 -3 L 53.652344 -3 C 53.707031 -3 53.753906 -2.957031 53.753906 -2.898438 M 53.753906 -2.898438 L 53.753906 0.101562 C 53.753906 0.046875 53.710938 0 53.652344 0 M 53.652344 0 L 59.652344 0 M 59.652344 0 C 59.597656 0 59.550781 0.0429688 59.550781 0.101562 M 59.550781 0.101562 L 59.550781 -2.898438 C 59.550781 -2.953125 59.59375 -3 59.652344 -3 M 59.652344 -3 L 65.652344 -3 C 65.707031 -3 65.753906 -2.957031 65.753906 -2.898438 M 65.753906 -2.898438 L 65.753906 0.101562 C 65.753906 0.046875 65.710938 0 65.652344 0 M 65.652344 0 L 71.652344 0 M 71.652344 0 C 71.597656 0 71.550781 0.0429688 71.550781 0.101562 M 71.550781 0.101562 L 71.550781 -2.898438 C 71.550781 -2.953125 71.59375 -3 71.652344 -3 M 71.652344 -3 L 77.652344 -3 C 77.707031 -3 77.753906 -2.957031 77.753906 -2.898438 M 77.753906 -2.898438 L 77.753906 0.101562 C 77.753906 0.046875 77.710938 0 77.652344 0 M 77.652344 0 L 83.652344 0 M 83.652344 0 C 83.597656 0 83.550781 0.0429688 83.550781 0.101562 M 83.550781 0.101562 L 83.550781 -2.898438 C 83.550781 -2.953125 83.59375 -3 83.652344 -3 M 83.652344 -3 L 89.652344 -3 C 89.707031 -3 89.753906 -2.957031 89.753906 -2.898438 M 89.753906 -2.898438 L 89.753906 0.101562 C 89.753906 0.046875 89.710938 0 89.652344 0 M 89.652344 0 L 101.300781 0 M 101.300781 0 C 101.355469 0 101.402344 0.0429688 101.402344 0.101562 M 101.402344 0.101562 L 101.402344 0.101562 M 101.402344 0.101562 L 101.402344 11.351562 M 101.402344 11.351562 C 101.402344 11.296875 101.359375 11.25 101.300781 11.25 M 101.300781 11.25 L 104.300781 11.25 C 104.355469 11.25 104.402344 11.292969 104.402344 11.351562 M 104.402344 11.351562 L 104.402344 17.351562 C 104.402344 17.40625 104.359375 17.453125 104.300781 17.453125 M 104.300781 17.453125 L 101.300781 17.453125 C 101.355469 17.453125 101.402344 17.410156 101.402344 17.351562 M 101.402344 17.351562 L 101.402344 23.351562 M 101.402344 23.351562 C 101.402344 23.296875 101.359375 23.25 101.300781 23.25 M 101.300781 23.25 L 104.300781 23.25 C 104.355469 23.25 104.402344 23.292969 104.402344 23.351562 M 104.402344 23.351562 L 104.402344 29.351562 C 104.402344 29.40625 104.359375 29.453125 104.300781 29.453125 M 104.300781 29.453125 L 101.300781 29.453125 C 101.355469 29.453125 101.402344 29.410156 101.402344 29.351562 M 101.402344 29.351562 L 101.402344 35.351562 M 101.402344 35.351562 C 101.402344 35.296875 101.359375 35.25 101.300781 35.25 M 101.300781 35.25 L 104.300781 35.25 C 104.355469 35.25 104.402344 35.292969 104.402344 35.351562 M 104.402344 35.351562 L 104.402344 41.351562 C 104.402344 41.40625 104.359375 41.453125 104.300781 41.453125 M 104.300781 41.453125 L 101.300781 41.453125 C 101.355469 41.453125 101.402344 41.410156 101.402344 41.351562 M 101.402344 41.351562 L 101.402344 47.351562 M 101.402344 47.351562 C 101.402344 47.296875 101.359375 47.25 101.300781 47.25 M 101.300781 47.25 L 104.300781 47.25 C 104.355469 47.25 104.402344 47.292969 104.402344 47.351562 M 104.402344 47.351562 L 104.402344 53.351562 C 104.402344 53.40625 104.359375 53.453125 104.300781 53.453125 M 104.300781 53.453125 L 101.300781 53.453125 C 101.355469 53.453125 101.402344 53.410156 101.402344 53.351562 M 101.402344 53.351562 L 101.402344 59.351562 M 101.402344 59.351562 C 101.402344 59.296875 101.359375 59.25 101.300781 59.25 M 101.300781 59.25 L 104.300781 59.25 C 104.355469 59.25 104.402344 59.292969 104.402344 59.351562 M 104.402344 59.351562 L 104.402344 65.351562 C 104.402344 65.40625 104.359375 65.453125 104.300781 65.453125 M 104.300781 65.453125 L 101.300781 65.453125 C 101.355469 65.453125 101.402344 65.410156 101.402344 65.351562 M 101.402344 65.351562 L 101.402344 71.351562 M 101.402344 71.351562 C 101.402344 71.296875 101.359375 71.25 101.300781 71.25 M 101.300781 71.25 L 104.300781 71.25 C 104.355469 71.25 104.402344 71.292969 104.402344 71.351562 M 104.402344 71.351562 L 104.402344 77.351562 C 104.402344 77.40625 104.359375 77.453125 104.300781 77.453125 M 104.300781 77.453125 L 101.300781 77.453125 C 101.355469 77.453125 101.402344 77.410156 101.402344 77.351562 M 101.402344 77.351562 L 101.402344 88.601562 M 101.402344 88.601562 C 101.402344 88.65625 101.359375 88.703125 101.300781 88.703125 M 101.300781 88.703125 L 101.300781 88.703125 M 101.300781 88.703125 L -0.000000000000056843 88.703125 M -0.000000000000056843 88.703125 C -0.0546875 88.703125 -0.101563 88.660156 -0.101563 88.601562 M -0.101563 88.601562 L -0.101563 88.601562 M -0.101563 88.601562 L -0.101563 77.351562 M -0.101563 77.351562 C -0.101563 77.40625 -0.0585938 77.453125 -0.000000000000056843 77.453125 M -0.000000000000056843 77.453125 L -3 77.453125 C -3.054688 77.453125 -3.101563 77.410156 -3.101563 77.351562 M -3.101563 77.351562 L -3.101563 71.351562 C -3.101563 71.296875 -3.058594 71.25 -3 71.25 M -3 71.25 L -0.000000000000056843 71.25 C -0.0546875 71.25 -0.101563 71.292969 -0.101563 71.351562 M -0.101563 71.351562 L -0.101563 65.351562 M -0.101563 65.351562 C -0.101563 65.40625 -0.0585938 65.453125 -0.000000000000056843 65.453125 M -0.000000000000056843 65.453125 L -3 65.453125 C -3.054688 65.453125 -3.101563 65.410156 -3.101563 65.351562 M -3.101563 65.351562 L -3.101563 59.351562 C -3.101563 59.296875 -3.058594 59.25 -3 59.25 M -3 59.25 L -0.000000000000056843 59.25 C -0.0546875 59.25 -0.101563 59.292969 -0.101563 59.351562 M -0.101563 59.351562 L -0.101563 53.351562 M -0.101563 53.351562 C -0.101563 53.40625 -0.0585938 53.453125 -0.000000000000056843 53.453125 M -0.000000000000056843 53.453125 L -3 53.453125 C -3.054688 53.453125 -3.101563 53.410156 -3.101563 53.351562 M -3.101563 53.351562 L -3.101563 47.351562 C -3.101563 47.296875 -3.058594 47.25 -3 47.25 M -3 47.25 L -0.000000000000056843 47.25 C -0.0546875 47.25 -0.101563 47.292969 -0.101563 47.351562 M -0.101563 47.351562 L -0.101563 41.351562 M -0.101563 41.351562 C -0.101563 41.40625 -0.0585938 41.453125 -0.000000000000056843 41.453125 M -0.000000000000056843 41.453125 L -3 41.453125 C -3.054688 41.453125 -3.101563 41.410156 -3.101563 41.351562 M -3.101563 41.351562 L -3.101563 35.351562 C -3.101563 35.296875 -3.058594 35.25 -3 35.25 M -3 35.25 L 0 35.25 C -0.0546875 35.25 -0.101562 35.292969 -0.101562 35.351562 M -0.101562 35.351562 L -0.101562 29.351562 M -0.101562 29.351562 C -0.101562 29.40625 -0.0585938 29.453125 0 29.453125 M 0 29.453125 L -3 29.453125 C -3.054688 29.453125 -3.101563 29.410156 -3.101563 29.351562 M -3.101563 29.351562 L -3.101563 23.351562 C -3.101563 23.296875 -3.058594 23.25 -3 23.25 M -3 23.25 L 0 23.25 C -0.0546875 23.25 -0.101562 23.292969 -0.101562 23.351562 M -0.101562 23.351562 L -0.101562 17.351562 M -0.101562 17.351562 C -0.101562 17.40625 -0.0585938 17.453125 0 17.453125 M 0 17.453125 L -3 17.453125 C -3.054688 17.453125 -3.101563 17.410156 -3.101563 17.351562 M -3.101563 17.351562 L -3.101563 11.351562 C -3.101563 11.296875 -3.058594 11.25 -3 11.25 M -3 11.25 L 0 11.25 C -0.0546875 11.25 -0.101562 11.292969 -0.101562 11.351562 M -0.101562 11.351562 L -0.101562 0.101562 M -0.101562 0.101562 C -0.101562 0.046875 -0.0585938 0 0 0 M 0 0 L 0 0 " transform="matrix(1,0.000000000000000245,0.000000000000000245,-1,256.847656,9902.949219)"/>
<path style="fill:none;stroke-width:0.2;stroke-linecap:butt;stroke-linejoin:miter;stroke:rgb(0%,0%,100%);stroke-opacity:1;stroke-miterlimit:10;" d="M 0 0 C -0.0546875 0 -0.101562 0.0429688 -0.101562 0.101562 M -0.101562 0.101562 L -0.101562 -2.898438 C -0.101562 -2.84375 -0.0585938 -2.796875 0 -2.796875 M 0 -2.796875 L -6 -2.796875 C -5.945312 -2.796875 -5.898438 -2.839844 -5.898438 -2.898438 M -5.898438 -2.898438 L -5.898438 0.101562 C -5.898438 0.046875 -5.941406 0 -6 0 M -6 0 L 0 0 " transform="matrix(-1,0.000000000000000122,0.000000000000000122,1,15,9809.5)"/>
<path style="fill:none;stroke-width:0.2;stroke-linecap:butt;stroke-linejoin:miter;stroke:rgb(0%,0%,100%);stroke-opacity:1;stroke-miterlimit:10;" d="M 0 0 C -0.0546875 0 -0.101562 0.0429688 -0.101562 0.101562 M -0.101562 0.101562 L -0.101562 -2.898438 C -0.101562 -2.84375 -0.0585938 -2.796875 0 -2.796875 M 0 -2.796875 L -6 -2.796875 C -5.945312 -2.796875 -5.898438 -2.839844 -5.898438 -2.898438 M -5.898438 -2.898438 L -5.898438 0.101562 C -5.898438 0.046875 -5.941406 0 -6 0 M -6 0 L 0 0 " transform="matrix(-1,0.000000000000000122,0.000000000000000122,1,27,9809.5)"/>
<path style="fill:none;stroke-width:0.2;stroke-linecap:butt;stroke-linejoin:miter;stroke:rgb(0%,0%,100%);stroke-opacity:1;stroke-miterlimit:10;" d="M 0 0 C -0.0546875 0 -0.101562 0.0429688 -0.101562 0.101562 M -0.101562 0.101562 L -0.101562 -2.898438 C -0.101562 -2.84375 -0.0585938 -2.796875 0 -2.796875 M 0 -2.796875 L -6 -2.796875 C -5.945312 -2.796875 -5.898438 -2.839844 -5.898438 -2.898438 M -5.898438 -2.898438 L -5.898438 0.101562 C -5.898438 0.046875 -5.941406 0 -6 0 M -6 0 L 0 0 " transform="matrix(-1,0.000000000000000122,0.000000000000000122,1,39,9809.5)"/>
<path style="fill:none;stroke-width:0.2;stroke-linecap:butt;stroke-linejoin:miter;stroke:rgb(0%,0%,100%);stroke-opacity:1;stroke-miterlimit:10;" d="M 0 0 C -0.0546875 0 -0.101562 0.0429688 -0.101562 0.101562 M -0.101562 0.101562 L -0.101562 -2.898438 C -0.101562 -2.84375 -0.0585938 -2.796875 0 -2.796875 M 0 -2.796875 L -6 -2.796875 C -5.945312 -2.796875 -5.898438 -2.839844 -5.898438 -2.898438 M -5.898438 -2.898438 L -5.898438 0.101562 C -5.898438 0.046875 -5.941406 0 -6 0 M -6 0 L 0 0 " transform="matrix(-1,0.000000000000000122,0.000000000000000122,1,51,9809.5)"/>
<path style="fill:none;stroke-width:0.2;stroke-linecap:butt;stroke-linejoin:miter;stroke:rgb(0%,0%,0%);stroke-opacity:1;stroke-miterlimit:10;" d="M -6.25 59.6 L -6.25 1.6 M -6.25 1.6 L -6.25 -4.548438 C -6.25 -4.603125 -6.207031 -4.65 -6.148438 -4.65 M -6.148438 -4.65 L 0 -4.65 M 0 -0.0015625 " transform="matrix(0.000000000000000061,-1,-1,-0.000000000000000061,66.6,9806.5)"/>
<path style="fill:none;stroke-width:0.2;stroke-linecap:butt;stroke-linejoin:miter;stroke:rgb(0%,0%,100%);stroke-opacity:1;stroke-miterlimit:10;" d="M 0 0 C -0.0546875 0 -0.101562 0.0429688 -0.101562 0.101562 M -0.101562 0.101562 L -0.101562 -2.898438 C -0.101562 -2.84375 -0.0585938 -2.796875 0 -2.796875 M 0 -2.796875 L -6 -2.796875 C -5.945312 -2.796875 -5.898438 -2.839844 -5.898438 -2.898438 M -5.898438 -2.898438 L -5.898438 0.101562 C -5.898438 0.046875 -5.941406 0 -6 0 M -6 0 L 0 0 " transform="matrix(0.000000000000000061,1,1,-0.000000000000000061,68,9798)"/>
<path style="fill:none;stroke-width:0.2;stroke-linecap:butt;stroke-linejoin:miter;stroke:rgb(0%,0%,100%);stroke-opacity:1;stroke-miterlimit:10;" d="M 0 0 C -0.0546875 0 -0.101562 0.0429688 -0.101562 0.101562 M -0.101562 0.101562 L -0.101562 -2.898438 C -0.101562 -2.84375 -0.0585938 -2.796875 0 -2.796875 M 0 -2.796875 L -6 -2.796875 C -5.945312 -2.796875 -5.898438 -2.839844 -5.898438 -2.898438 M -5.898438 -2.898438 L -5.898438 0.101562 C -5.898438 0.046875 -5.941406 0 -6 0 M -6 0 L 0 0 " transform="matrix(0.000000000000000061,1,1,-0.000000000000000061,68,9786)"/>
<path style="fill:none;stroke-width:0.2;stroke-linecap:butt;stroke-linejoin:miter;stroke:rgb(0%,0%,100%);stroke-opacity:1;stroke-miterlimit:10;" d="M 0 0 C -0.0546875 0 -0.101562 0.0429688 -0.101562 0.101562 M -0.101562 0.101562 L -0.101562 -2.898438 C -0.101562 -2.84375 -0.0585938 -2.796875 0 -2.796875 M 0 -2.796875 L -6 -2.796875 C -5.945312 -2.796875 -5.898438 -2.839844 -5.898438 -2.898438 M -5.898438 -2.898438 L -5.898438 0.101562 C -5.898438 0.046875 -5.941406 0 -6 0 M -6 0 L 0 0 " transform="matrix(0.000000000000000061,1,1,-0.000000000000000061,68,9774)"/>
<path style="fill:none;stroke-width:0.2;stroke-linecap:butt;stroke-linejoin:miter;stroke:rgb(0%,0%,100%);stroke-opacity:1;stroke-miterlimit:10;" d="M 0 0 C -0.0546875 0 -0.101562 0.0429688 -0.101562 0.101562 M -0.101562 0.101562 L -0.101562 -2.898438 C -0.101562 -2.84375 -0.0585938 -2.796875 0 -2.796875 M 0 -2.796875 L -6 -2.796875 C -5.945312 -2.796875 -5.898438 -2.839844 -5.898438 -2.898438 M -5.898438 -2.898438 L -5.898438 0.101562 C -5.898438 0.046875 -5.941406 0 -6 0 M -6 0 L 0 0 " transform="matrix(0.000000000000000061,1,1,-0.000000000000000061,68,9762)"/>
<path style="fill:none;stroke-width:0.2;stroke-linecap:butt;stroke-linejoin:miter;stroke:rgb(0%,0%,100%);stroke-opacity:1;stroke-miterlimit:10;" d="M 0 0 C -0.0546875 0 -0.101562 0.0429688 -0.101562 0.101562 M -0.101562 0.101562 L -0.101562 -2.898438 C -0.101562 -2.84375 -0.0585938 -2.796875 0 -2.796875 M 0 -2.796875 L -6 -2.796875 C -5.945312 -2.796875 -5.898438 -2.839844 -5.898438 -2.898438 M -5.898438 -2.898438 L -5.898438 0.101562 C -5.898438 0.046875 -5.941406 0 -6 0 M -6 0 L 0 0 " transform="matrix(0.000000000000000061,1,1,-0.000000000000000061,68,9750)"/>
<path style="fill:none;stroke-width:0.2;stroke-linecap:butt;stroke-linejoin:miter;stroke:rgb(0%,0%,100%);stroke-opacity:1;stroke-miterlimit:10;" d="M 0 0 C -0.0546875 0 -0.101562 0.0429688 -0.101562 0.101562 M -0.101562 0.101562 L -0.101562 -2.898438 C -0.101562 -2.84375 -0.0585938 -2.796875 0 -2.796875 M 0 -2.796875 L -6 -2.796875 C -5.945312 -2.796875 -5.898438 -2.839844 -5.898438 -2.898438 M -5.898438 -2.898438 L -5.898438 0.101562 C -5.898438 0.046875 -5.941406 0 -6 0 M -6 0 L 0 0 " transform="matrix(0.000000000000000061,1,1,-0.000000000000000061,68,9738)"/>
<path style="fill:none;stroke-width:0.2;stroke-linecap:butt;stroke-linejoin:miter;stroke:rgb(0%,0%,100%);stroke-opacity:1;stroke-miterlimit:10;" d="M 0 0 C -0.0546875 0 -0.101562 0.0429688 -0.101562 0.101562 M -0.101562 0.101562 L -0.101562 -2.898438 C -0.101562 -2.84375 -0.0585938 -2.796875 0 -2.796875 M 0 -2.796875 L -6 -2.796875 C -5.945312 -2.796875 -5.898438 -2.839844 -5.898438 -2.898438 M -5.898438 -2.898438 L -5.898438 0.101562 C -5.898438 0.046875 -5.941406 0 -6 0 M -6 0 L 0 0 " transform="matrix(0.000000000000000061,1,1,-0.000000000000000061,68,9726)"/>
<path style="fill:none;stroke-width:0.2;stroke-linecap:butt;stroke-linejoin:miter;stroke:rgb(0%,0%,0%);stroke-opacity:1;stroke-miterlimit:10;" d="M -6.25 96.6 L -6.25 1.6 M -6.25 1.6 L -6.25 -4.548437 C -6.25 -4.603125 -6.207031 -4.65 -6.148438 -4.65 M -6.148438 -4.65 L 0 -4.65 M 0 -0.0015625 " transform="matrix(-1,-0.000000000000000122,-0.000000000000000122,1,65,9709.9)"/>
<path style="fill:none;stroke-width:0.2;stroke-linecap:butt;stroke-linejoin:miter;stroke:rgb(0%,0%,100%);stroke-opacity:1;stroke-miterlimit:10;" d="M 0 0 C -0.0546875 0 -0.101562 0.0429688 -0.101562 0.101562 M -0.101562 0.101562 L -0.101562 -2.898438 C -0.101562 -2.84375 -0.0585938 -2.796875 0 -2.796875 M 0 -2.796875 L -6 -2.796875 C -5.945312 -2.796875 -5.898438 -2.839844 -5.898438 -2.898438 M -5.898438 -2.898438 L -5.898438 0.101562 C -5.898438 0.046875 -5.941406 0 -6 0 M -6 0 L 0 0 " transform="matrix(1,-0,-0,-1,57,9708.5)"/>
<path style="fill:none;stroke-width:0.2;stroke-linecap:butt;stroke-linejoin:miter;stroke:rgb(0%,0%,100%);stroke-opacity:1;stroke-miterlimit:10;" d="M 0 0 C -0.0546875 0 -0.101562 0.0429688 -0.101562 0.101562 M -0.101562 0.101562 L -0.101562 -2.898438 C -0.101562 -2.84375 -0.0585938 -2.796875 0 -2.796875 M 0 -2.796875 L -6 -2.796875 C -5.945312 -2.796875 -5.898438 -2.839844 -5.898438 -2.898438 M -5.898438 -2.898438 L -5.898438 0.101562 C -5.898438 0.046875 -5.941406 0 -6 0 M -6 0 L 0 0 " transform="matrix(1,-0,-0,-1,45,9708.5)"/>
<path style="fill:none;stroke-width:0.2;stroke-linecap:butt;stroke-linejoin:miter;stroke:rgb(0%,0%,100%);stroke-opacity:1;stroke-miterlimit:10;" d="M 0 0 C -0.0546875 0 -0.101562 0.0429688 -0.101562 0.101562 M -0.101562 0.101562 L -0.101562 -2.898438 C -0.101562 -2.84375 -0.0585938 -2.796875 0 -2.796875 M 0 -2.796875 L -6 -2.796875 C -5.945312 -2.796875 -5.898438 -2.839844 -5.898438 -2.898438 M -5.898438 -2.898438 L -5.898438 0.101562 C -5.898438 0.046875 -5.941406 0 -6 0 M -6 0 L 0 0 " transform="matrix(1,-0,-0,-1,33,9708.5)"/>
<path style="fill:none;stroke-width:0.2;stroke-linecap:butt;stroke-linejoin:miter;stroke:rgb(0%,0%,100%);stroke-opacity:1;stroke-miterlimit:10;" d="M 0 0 C -0.0546875 0 -0.101562 0.0429688 -0.101562 0.101562 M -0.101562 0.101562 L -0.101562 -2.898438 C -0.101562 -2.84375 -0.0585938 -2.796875 0 -2.796875 M 0 -2.796875 L -6 -2.796875 C -5.945312 -2.796875 -5.898438 -2.839844 -5.898438 -2.898438 M -5.898438 -2.898438 L -5.898438 0.101562 C -5.898438 0.046875 -5.941406 0 -6 0 M -6 0 L 0 0 " transform="matrix(1,-0,-0,-1,21,9708.5)"/>
<path style="fill:none;stroke-width:0.2;stroke-linecap:butt;stroke-linejoin:miter;stroke:rgb(0%,0%,0%);stroke-opacity:1;stroke-miterlimit:10;" d="M -6.25 59.6 L -6.25 1.6 M -6.25 1.6 L -6.25 -4.548438 C -6.25 -4.603125 -6.207031 -4.65 -6.148438 -4.65 M -6.148438 -4.65 L 0 -4.65 M 0 -0.0015625 " transform="matrix(-0.000000000000000184,1,1,0.000000000000000184,5.4,9711.5)"/>
<path style="fill:none;stroke-width:0.2;stroke-linecap:butt;stroke-linejoin:miter;stroke:rgb(0%,0%,100%);stroke-opacity:1;stroke-miterlimit:10;" d="M 0 0 C -0.0546875 0 -0.101562 0.0429688 -0.101562 0.101562 M -0.101562 0.101562 L -0.101562 -2.898438 C -0.101562 -2.84375 -0.0585938 -2.796875 0 -2.796875 M 0 -2.796875 L -6 -2.796875 C -5.945312 -2.796875 -5.898438 -2.839844 -5.898438 -2.898438 M -5.898438 -2.898438 L -5.898438 0.101562 C -5.898438 0.046875 -5.941406 -0.000000000000000888 -6 -0.000000000000000888 M -6 -0.000000000000000888 L 0 0 " transform="matrix(0.000000000000000061,-1,-1,-0.000000000000000061,4,9720)"/>
<path style="fill:none;stroke-width:0.2;stroke-linecap:butt;stroke-linejoin:miter;stroke:rgb(0%,0%,100%);stroke-opacity:1;stroke-miterlimit:10;" d="M 0 0 C -0.0546875 0 -0.101562 0.0429688 -0.101562 0.101562 M -0.101562 0.101562 L -0.101562 -2.898438 C -0.101562 -2.84375 -0.0585938 -2.796875 0 -2.796875 M 0 -2.796875 L -6 -2.796875 C -5.945312 -2.796875 -5.898438 -2.839844 -5.898438 -2.898438 M -5.898438 -2.898438 L -5.898438 0.101562 C -5.898438 0.046875 -5.941406 0 -6 0 M -6 0 L 0 0 " transform="matrix(0.000000000000000061,-1,-1,-0.000000000000000061,4,9732)"/>
<path style="fill:none;stroke-width:0.2;stroke-linecap:butt;stroke-linejoin:miter;stroke:rgb(0%,0%,100%);stroke-opacity:1;stroke-miterlimit:10;" d="M 0 0 C -0.0546875 0 -0.101562 0.0429688 -0.101562 0.101562 M -0.101562 0.101562 L -0.101562 -2.898438 C -0.101562 -2.84375 -0.0585938 -2.796875 0 -2.796875 M 0 -2.796875 L -6 -2.796875 C -5.945312 -2.796875 -5.898438 -2.839844 -5.898438 -2.898438 M -5.898438 -2.898438 L -5.898438 0.101562 C -5.898438 0.046875 -5.941406 0 -6 0 M -6 0 L 0 0 " transform="matrix(0.000000000000000061,-1,-1,-0.000000000000000061,4,9744)"/>
<path style="fill:none;stroke-width:0.2;stroke-linecap:butt;stroke-linejoin:miter;stroke:rgb(0%,0%,100%);stroke-opacity:1;stroke-miterlimit:10;" d="M 0 0 C -0.0546875 0 -0.101562 0.0429688 -0.101562 0.101563 M -0.101562 0.101563 L -0.101562 -2.898438 C -0.101562 -2.84375 -0.0585938 -2.796875 0 -2.796875 M 0 -2.796875 L -6 -2.796875 C -5.945312 -2.796875 -5.898438 -2.839844 -5.898438 -2.898438 M -5.898438 -2.898438 L -5.898438 0.101562 C -5.898438 0.046875 -5.941406 0 -6 0 M -6 0 L 0 0 " transform="matrix(0.000000000000000061,-1,-1,-0.000000000000000061,4,9756)"/>
<path style="fill:none;stroke-width:0.2;stroke-linecap:butt;stroke-linejoin:miter;stroke:rgb(0%,0%,100%);stroke-opacity:1;stroke-miterlimit:10;" d="M 0 0 C -0.0546875 0 -0.101562 0.0429687 -0.101562 0.101562 M -0.101562 0.101562 L -0.101562 -2.898438 C -0.101562 -2.84375 -0.0585938 -2.796875 0 -2.796875 M 0 -2.796875 L -6 -2.796875 C -5.945312 -2.796875 -5.898438 -2.839844 -5.898438 -2.898438 M -5.898438 -2.898438 L -5.898438 0.101562 C -5.898438 0.046875 -5.941406 -0.000000000000000888 -6 -0.000000000000000888 M -6 -0.000000000000000888 L 0 0 " transform="matrix(0.000000000000000061,-1,-1,-0.000000000000000061,4,9768)"/>
<path style="fill:none;stroke-width:0.2;stroke-linecap:butt;stroke-linejoin:miter;stroke:rgb(0%,0%,100%);stroke-opacity:1;stroke-miterlimit:10;" d="M 0 0 C -0.0546875 0 -0.101562 0.0429687 -0.101562 0.101562 M -0.101562 0.101562 L -0.101562 -2.898438 C -0.101562 -2.84375 -0.0585938 -2.796875 0 -2.796875 M 0 -2.796875 L -6 -2.796875 C -5.945312 -2.796875 -5.898438 -2.839844 -5.898438 -2.898438 M -5.898438 -2.898438 L -5.898438 0.101562 C -5.898438 0.046875 -5.941406 -0.000000000000000888 -6 -0.000000000000000888 M -6 -0.000000000000000888 L 0 0 " transform="matrix(0.000000000000000061,-1,-1,-0.000000000000000061,4,9780)"/>
<path style="fill:none;stroke-width:0.2;stroke-linecap:butt;stroke-linejoin:miter;stroke:rgb(0%,0%,100%);stroke-opacity:1;stroke-miterlimit:10;" d="M 0 0 C -0.0546875 0 -0.101562 0.0429688 -0.101562 0.101562 M -0.101562 0.101562 L -0.101562 -2.898438 C -0.101562 -2.84375 -0.0585938 -2.796875 0 -2.796875 M 0 -2.796875 L -6 -2.796875 C -5.945312 -2.796875 -5.898438 -2.839844 -5.898438 -2.898438 M -5.898438 -2.898438 L -5.898438 0.101562 C -5.898438 0.046875 -5.941406 0 -6 0 M -6 0 L 0 0 " transform="matrix(0.000000000000000061,-1,-1,-0.000000000000000061,4,9792)"/>
<path style="fill:none;stroke-width:0.2;stroke-linecap:butt;stroke-linejoin:miter;stroke:rgb(0%,0%,0%);stroke-opacity:1;stroke-miterlimit:10;" d="M -6.25 101.25 L -6.25 6.25 M -6.25 6.25 L -6.25 0.101562 C -6.25 0.046875 -6.207031 0 -6.148438 0 M -6.148438 0 L 0 0 " transform="matrix(1,0.000000000000000245,0.000000000000000245,-1,7,9812.75)"/>
<path style="fill:none;stroke-width:0.2;stroke-linecap:butt;stroke-linejoin:miter;stroke:rgb(0%,0%,0%);stroke-opacity:1;stroke-miterlimit:10;" d="M 0 0 L 11.148438 0 M 11.148438 0 C 11.203125 0 11.25 0.0429688 11.25 0.101562 M 11.25 0.101562 L 11.25 3.101562 C 11.25 3.046875 11.207031 3 11.148438 3 M 11.148438 3 L 17.148438 3 C 17.09375 3 17.046875 3.042969 17.046875 3.101562 M 17.046875 3.101562 L 17.046875 0.101562 C 17.046875 0.046875 17.089844 0 17.148438 0 M 17.148438 0 L 23.148438 0 M 23.148438 0 C 23.203125 0 23.25 0.0429688 23.25 0.101562 M 23.25 0.101562 L 23.25 3.101562 C 23.25 3.046875 23.207031 3 23.148438 3 M 23.148438 3 L 29.148438 3 C 29.09375 3 29.046875 3.042969 29.046875 3.101562 M 29.046875 3.101562 L 29.046875 0.101562 C 29.046875 0.046875 29.089844 0 29.148438 0 M 29.148438 0 L 35.148438 0 M 35.148438 0 C 35.203125 0 35.25 0.0429688 35.25 0.101562 M 35.25 0.101562 L 35.25 3.101562 C 35.25 3.046875 35.207031 3 35.148438 3 M 35.148438 3 L 41.148438 3 C 41.09375 3 41.046875 3.042969 41.046875 3.101562 M 41.046875 3.101562 L 41.046875 0.101562 C 41.046875 0.046875 41.089844 0 41.148438 0 M 41.148438 0 L 47.148438 0 M 47.148438 0 C 47.203125 0 47.25 0.0429688 47.25 0.101562 M 47.25 0.101562 L 47.25 3.101562 C 47.25 3.046875 47.207031 3 47.148438 3 M 47.148438 3 L 53.148438 3 C 53.09375 3 53.046875 3.042969 53.046875 3.101562 M 53.046875 3.101562 L 53.046875 0.101562 C 53.046875 0.046875 53.089844 0 53.148438 0 M 53.148438 0 L 64.296875 0 M 64.296875 0 L 67.296875 0 C 67.351563 0 67.398438 0.0429688 67.398438 0.101562 M 67.398438 0.101562 L 67.398438 3.101562 M 67.398438 3.101562 L 67.398437 14.75 M 67.398437 14.75 C 67.398437 14.804688 67.355469 14.851562 67.296875 14.851562 M 67.296875 14.851562 L 64.296875 14.851562 C 64.351562 14.851562 64.398437 14.808594 64.398437 14.75 M 64.398437 14.75 L 64.398437 20.75 C 64.398437 20.695312 64.355469 20.648438 64.296875 20.648438 M 64.296875 20.648438 L 67.296875 20.648438 C 67.351562 20.648438 67.398437 20.691406 67.398437 20.75 M 67.398437 20.75 L 67.398437 26.75 M 67.398437 26.75 C 67.398437 26.804688 67.355469 26.851562 67.296875 26.851562 M 67.296875 26.851562 L 64.296875 26.851562 C 64.351562 26.851562 64.398437 26.808594 64.398437 26.75 M 64.398437 26.75 L 64.398437 32.75 C 64.398437 32.695312 64.355469 32.648438 64.296875 32.648438 M 64.296875 32.648438 L 67.296875 32.648438 C 67.351562 32.648438 67.398437 32.691406 67.398437 32.75 M 67.398437 32.75 L 67.398437 38.75 M 67.398437 38.75 C 67.398437 38.804688 67.355469 38.851562 67.296875 38.851562 M 67.296875 38.851562 L 64.296875 38.851562 C 64.351562 38.851562 64.398437 38.808594 64.398437 38.75 M 64.398437 38.75 L 64.398437 44.75 C 64.398437 44.695312 64.355469 44.648438 64.296875 44.648438 M 64.296875 44.648438 L 67.296875 44.648438 C 67.351562 44.648438 67.398437 44.691406 67.398437 44.75 M 67.398437 44.75 L 67.398437 50.75 M 67.398437 50.75 C 67.398437 50.804688 67.355469 50.851562 67.296875 50.851562 M 67.296875 50.851562 L 64.296875 50.851562 C 64.351562 50.851562 64.398437 50.808594 64.398437 50.75 M 64.398437 50.75 L 64.398437 56.75 C 64.398437 56.695312 64.355469 56.648438 64.296875 56.648438 M 64.296875 56.648438 L 67.296875 56.648438 C 67.351562 56.648438 67.398437 56.691406 67.398437 56.75 M 67.398437 56.75 L 67.398437 62.75 M 67.398437 62.75 C 67.398437 62.804688 67.355469 62.851562 67.296875 62.851562 M 67.296875 62.851562 L 64.296875 62.851562 C 64.351562 62.851562 64.398437 62.808594 64.398437 62.75 M 64.398437 62.75 L 64.398437 68.75 C 64.398437 68.695312 64.355469 68.648438 64.296875 68.648438 M 64.296875 68.648438 L 67.296875 68.648438 C 67.351562 68.648438 67.398437 68.691406 67.398437 68.75 M 67.398437 68.75 L 67.398437 74.75 M 67.398437 74.75 C 67.398437 74.804688 67.355469 74.851562 67.296875 74.851562 M 67.296875 74.851562 L 64.296875 74.851562 C 64.351562 74.851562 64.398437 74.808594 64.398437 74.75 M 64.398437 74.75 L 64.398437 80.75 C 64.398437 80.695312 64.355469 80.648438 64.296875 80.648438 M 64.296875 80.648438 L 67.296875 80.648438 C 67.351562 80.648438 67.398437 80.691406 67.398437 80.75 M 67.398437 80.75 L 67.398437 86.75 M 67.398437 86.75 C 67.398437 86.804688 67.355469 86.851562 67.296875 86.851562 M 67.296875 86.851562 L 64.296875 86.851562 C 64.351562 86.851562 64.398437 86.808594 64.398437 86.75 M 64.398437 86.75 L 64.398437 92.75 C 64.398437 92.695312 64.355469 92.648438 64.296875 92.648438 M 64.296875 92.648438 L 67.296875 92.648438 C 67.351562 92.648438 67.398437 92.691406 67.398437 92.75 M 67.398437 92.75 L 67.398437 104.398438 M 67.398437 104.398438 L 67.398437 107.398438 C 67.398437 107.453125 67.355469 107.5 67.296875 107.5 M 67.296875 107.5 L 64.296875 107.5 M 64.296875 107.5 L 53.148437 107.5 M 53.148437 107.5 C 53.09375 107.5 53.046875 107.457031 53.046875 107.398438 M 53.046875 107.398438 L 53.046875 104.398438 C 53.046875 104.453125 53.089844 104.5 53.148437 104.5 M 53.148437 104.5 L 47.148437 104.5 C 47.203125 104.5 47.25 104.457031 47.25 104.398438 M 47.25 104.398438 L 47.25 107.398438 C 47.25 107.453125 47.207031 107.5 47.148437 107.5 M 47.148437 107.5 L 41.148437 107.5 M 41.148437 107.5 C 41.09375 107.5 41.046875 107.457031 41.046875 107.398438 M 41.046875 107.398438 L 41.046875 104.398438 C 41.046875 104.453125 41.089844 104.5 41.148437 104.5 M 41.148437 104.5 L 35.148437 104.5 C 35.203125 104.5 35.25 104.457031 35.25 104.398438 M 35.25 104.398438 L 35.25 107.398438 C 35.25 107.453125 35.207031 107.5 35.148437 107.5 M 35.148437 107.5 L 29.148437 107.5 M 29.148437 107.5 C 29.09375 107.5 29.046875 107.457031 29.046875 107.398438 M 29.046875 107.398438 L 29.046875 104.398438 C 29.046875 104.453125 29.089844 104.5 29.148437 104.5 M 29.148437 104.5 L 23.148437 104.5 C 23.203125 104.5 23.25 104.457031 23.25 104.398438 M 23.25 104.398438 L 23.25 107.398438 C 23.25 107.453125 23.207031 107.5 23.148437 107.5 M 23.148437 107.5 L 17.148437 107.5 M 17.148437 107.5 C 17.09375 107.5 17.046875 107.457031 17.046875 107.398438 M 17.046875 107.398438 L 17.046875 104.398438 C 17.046875 104.453125 17.089844 104.5 17.148437 104.5 M 17.148437 104.5 L 11.148437 104.5 C 11.203125 104.5 11.25 104.457031 11.25 104.398438 M 11.25 104.398438 L 11.25 107.398438 C 11.25 107.453125 11.207031 107.5 11.148437 107.5 M 11.148437 107.5 L -0.000000000000028422 107.5 M -0.000000000000028422 107.5 L -3 107.5 C -3.054688 107.5 -3.101563 107.457031 -3.101563 107.398438 M -3.101563 107.398438 L -3.101563 104.398438 M -3.101563 104.398438 L -3.101563 92.75 M -3.101563 92.75 C -3.101563 92.695312 -3.058594 92.648438 -3 92.648438 M -3 92.648438 L -0.000000000000014211 92.648438 C -0.0546875 92.648438 -0.101563 92.691406 -0.101563 92.75 M -0.101563 92.75 L -0.101563 86.75 C -0.101563 86.804688 -0.0585938 86.851562 -0.000000000000014211 86.851562 M -0.000000000000014211 86.851562 L -3 86.851562 C -3.054688 86.851562 -3.101563 86.808594 -3.101563 86.75 M -3.101563 86.75 L -3.101563 80.75 M -3.101563 80.75 C -3.101563 80.695312 -3.058594 80.648438 -3 80.648438 M -3 80.648438 L -0.000000000000014211 80.648438 C -0.0546875 80.648438 -0.101563 80.691406 -0.101563 80.75 M -0.101563 80.75 L -0.101563 74.75 C -0.101563 74.804688 -0.0585938 74.851562 -0.000000000000014211 74.851562 M -0.000000000000014211 74.851562 L -3 74.851562 C -3.054688 74.851562 -3.101563 74.808594 -3.101563 74.75 M -3.101563 74.75 L -3.101563 68.75 M -3.101563 68.75 C -3.101563 68.695312 -3.058594 68.648438 -3 68.648438 M -3 68.648438 L -0.000000000000014211 68.648438 C -0.0546875 68.648438 -0.101563 68.691406 -0.101563 68.75 M -0.101563 68.75 L -0.101563 62.75 C -0.101563 62.804688 -0.0585938 62.851562 -0.000000000000014211 62.851562 M -0.000000000000014211 62.851562 L -3 62.851562 C -3.054688 62.851562 -3.101563 62.808594 -3.101563 62.75 M -3.101563 62.75 L -3.101563 56.75 M -3.101563 56.75 C -3.101563 56.695312 -3.058594 56.648438 -3 56.648438 M -3 56.648438 L -0.000000000000014211 56.648438 C -0.0546875 56.648438 -0.101563 56.691406 -0.101563 56.75 M -0.101563 56.75 L -0.101563 50.75 C -0.101563 50.804688 -0.0585938 50.851562 -0.000000000000014211 50.851562 M -0.000000000000014211 50.851562 L -3 50.851562 C -3.054688 50.851562 -3.101563 50.808594 -3.101563 50.75 M -3.101563 50.75 L -3.101563 44.75 M -3.101563 44.75 C -3.101563 44.695312 -3.058594 44.648438 -3 44.648438 M -3 44.648438 L -0.000000000000014211 44.648438 C -0.0546875 44.648438 -0.101563 44.691406 -0.101563 44.75 M -0.101563 44.75 L -0.101563 38.75 C -0.101563 38.804688 -0.0585938 38.851562 -0.000000000000014211 38.851562 M -0.000000000000014211 38.851562 L -3 38.851562 C -3.054688 38.851562 -3.101563 38.808594 -3.101563 38.75 M -3.101563 38.75 L -3.101562 32.75 M -3.101562 32.75 C -3.101562 32.695312 -3.058594 32.648438 -3 32.648438 M -3 32.648438 L 0 32.648438 C -0.0546875 32.648438 -0.101562 32.691406 -0.101562 32.75 M -0.101562 32.75 L -0.101562 26.75 C -0.101562 26.804688 -0.0585938 26.851562 0 26.851562 M 0 26.851562 L -3 26.851562 C -3.054688 26.851562 -3.101562 26.808594 -3.101562 26.75 M -3.101562 26.75 L -3.101562 20.75 M -3.101562 20.75 C -3.101562 20.695312 -3.058594 20.648438 -3 20.648438 M -3 20.648438 L 0 20.648438 C -0.0546875 20.648438 -0.101562 20.691406 -0.101562 20.75 M -0.101562 20.75 L -0.101562 14.75 C -0.101562 14.804688 -0.0585938 14.851562 0 14.851562 M 0 14.851562 L -3 14.851562 C -3.054688 14.851562 -3.101562 14.808594 -3.101562 14.75 M -3.101562 14.75 L -3.101562 3.101562 M -3.101562 3.101562 L -3.101562 0.101562 C -3.101562 0.046875 -3.058594 0 -3 0 M -3 0 L 0 0 " transform="matrix(1,0.000000000000000245,0.000000000000000245,-1,75.851563,9812.75)"/>
</g>
</svg>