<?xml version="1.0" encoding="UTF-8"?>
<svg xmlns="http://www.w3.org/2000/svg" xmlns:xlink="http://www.w3.org/1999/xlink" width="290mm" height="270mm" viewBox="0 9730 290 270" version="1.1" style=""><script xmlns=""/>
<g id="surface2569">
<path style="fill:none;stroke-width:0.2;stroke-linecap:butt;stroke-linejoin:miter;stroke:rgb(0%,0%,0%);stroke-opacity:1;stroke-miterlimit:10;" d="M 0 0 L 7.75 0 M 7.75 0 C 7.695312 0 7.648438 0.0429688 7.648438 0.101562 M 7.648438 0.101562 L 7.648438 -2.898438 C 7.648438 -2.953125 7.691406 -3 7.75 -3 M 7.75 -3 L 13.75 -3 C 13.804688 -3 13.851562 -2.957031 13.851562 -2.898438 M 13.851562 -2.898438 L 13.851562 0.101562 C 13.851562 0.046875 13.808594 0 13.75 0 M 13.75 0 L 19.75 0 M 19.75 0 C 19.695312 0 19.648438 0.0429688 19.648438 0.101562 M 19.648438 0.101562 L 19.648438 -2.898438 C 19.648438 -2.953125 19.691406 -3 19.75 -3 M 19.75 -3 L 25.75 -3 C 25.804688 -3 25.851562 -2.957031 25.851562 -2.898438 M 25.851562 -2.898438 L 25.851562 0.101562 C 25.851562 0.046875 25.808594 0 25.75 0 M 25.75 0 L 31.75 0 M 31.75 0 C 31.695313 0 31.648438 0.0429688 31.648438 0.101562 M 31.648438 0.101562 L 31.648438 -2.898438 C 31.648438 -2.953125 31.691406 -3 31.75 -3 M 31.75 -3 L 37.75 -3 C 37.804688 -3 37.851562 -2.957031 37.851562 -2.898438 M 37.851562 -2.898438 L 37.851562 0.101562 C 37.851562 0.046875 37.808594 0 37.75 0 M 37.75 0 L 43.75 0 M 43.75 0 C 43.695312 0 43.648438 0.0429688 43.648438 0.101562 M 43.648438 0.101562 L 43.648438 -2.898438 C 43.648438 -2.953125 43.691406 -3 43.75 -3 M 43.75 -3 L 49.75 -3 C 49.804688 -3 49.851562 -2.957031 49.851562 -2.898438 M 49.851562 -2.898438 L 49.851562 0.101562 C 49.851562 0.046875 49.808594 0 49.75 0 M 49.75 0 L 57.5 0 M 57.5 0 L 60.5 0 C 60.554687 0 60.601562 0.0429688 60.601562 0.101562 M 60.601562 0.101562 L 60.601562 0.101562 M 60.601562 0.101562 L 60.601562 11.101562 M 60.601562 11.101562 C 60.601562 11.15625 60.558594 11.203125 60.5 11.203125 M 60.5 11.203125 L 57.5 11.203125 C 57.554687 11.203125 57.601562 11.160156 57.601562 11.101562 M 57.601562 11.101562 L 57.601562 17.101562 C 57.601562 17.046875 57.558594 17 57.5 17 M 57.5 17 L 60.5 17 C 60.554687 17 60.601562 17.042969 60.601562 17.101562 M 60.601562 17.101562 L 60.601562 23.101562 M 60.601562 23.101562 C 60.601562 23.15625 60.558594 23.203125 60.5 23.203125 M 60.5 23.203125 L 57.5 23.203125 C 57.554687 23.203125 57.601562 23.160156 57.601562 23.101562 M 57.601562 23.101562 L 57.601562 29.101562 C 57.601562 29.046875 57.558594 29 57.5 29 M 57.5 29 L 60.5 29 C 60.554687 29 60.601562 29.042969 60.601562 29.101562 M 60.601562 29.101562 L 60.601562 35.101562 M 60.601562 35.101562 C 60.601562 35.15625 60.558594 35.203125 60.5 35.203125 M 60.5 35.203125 L 57.5 35.203125 C 57.554687 35.203125 57.601562 35.160156 57.601562 35.101562 M 57.601562 35.101562 L 57.601562 41.101562 C 57.601562 41.046875 57.558594 41 57.5 41 M 57.5 41 L 60.5 41 C 60.554687 41 60.601562 41.042969 60.601562 41.101562 M 60.601562 41.101562 L 60.601562 47.101562 M 60.601562 47.101562 C 60.601562 47.15625 60.558594 47.203125 60.5 47.203125 M 60.5 47.203125 L 57.5 47.203125 C 57.554687 47.203125 57.601562 47.160156 57.601562 47.101562 M 57.601562 47.101562 L 57.601562 53.101562 C 57.601562 53.046875 57.558594 53 57.5 53 M 57.5 53 L 60.5 53 C 60.554687 53 60.601562 53.042969 60.601562 53.101562 M 60.601562 53.101562 L 60.601562 59.101562 M 60.601562 59.101562 C 60.601562 59.15625 60.558594 59.203125 60.5 59.203125 M 60.5 59.203125 L 57.5 59.203125 C 57.554687 59.203125 57.601562 59.160156 57.601562 59.101562 M 57.601562 59.101562 L 57.601562 65.101562 C 57.601562 65.046875 57.558594 65 57.5 65 M 57.5 65 L 60.5 65 C 60.554687 65 60.601562 65.042969 60.601562 65.101562 M 60.601562 65.101562 L 60.601562 71.101562 M 60.601562 71.101562 C 60.601562 71.15625 60.558594 71.203125 60.5 71.203125 M 60.5 71.203125 L 57.5 71.203125 C 57.554687 71.203125 57.601562 71.160156 57.601562 71.101562 M 57.601562 71.101562 L 57.601562 77.101562 C 57.601562 77.046875 57.558594 77 57.5 77 M 57.5 77 L 60.5 77 C 60.554687 77 60.601562 77.042969 60.601562 77.101562 M 60.601562 77.101562 L 60.601562 88.101562 M 60.601562 88.101562 C 60.601562 88.15625 60.558594 88.203125 60.5 88.203125 M 60.5 88.203125 L 57.5 88.203125 M 57.5 88.203125 L -0.000000000000021316 88.203125 M -0.000000000000021316 88.203125 L -3 88.203125 C -3.054688 88.203125 -3.101563 88.160156 -3.101563 88.101562 M -3.101563 88.101562 L -3.101563 88.101562 M -3.101563 88.101562 L -3.101563 77.101562 M -3.101563 77.101562 C -3.101563 77.046875 -3.058594 77 -3 77 M -3 77 L -0.000000000000018652 77 C -0.0546875 77 -0.101563 77.042969 -0.101563 77.101562 M -0.101563 77.101562 L -0.101563 71.101562 C -0.101563 71.15625 -0.0585938 71.203125 -0.000000000000017319 71.203125 M -0.000000000000017319 71.203125 L -3 71.203125 C -3.054688 71.203125 -3.101563 71.160156 -3.101563 71.101562 M -3.101563 71.101562 L -3.101563 65.101562 M -3.101563 65.101562 C -3.101563 65.046875 -3.058594 65 -3 65 M -3 65 L -0.000000000000015987 65 C -0.0546875 65 -0.101563 65.042969 -0.101563 65.101562 M -0.101563 65.101562 L -0.101563 59.101562 C -0.101563 59.15625 -0.0585938 59.203125 -0.000000000000014211 59.203125 M -0.000000000000014211 59.203125 L -3 59.203125 C -3.054688 59.203125 -3.101563 59.160156 -3.101563 59.101562 M -3.101563 59.101562 L -3.101563 53.101562 M -3.101563 53.101562 C -3.101563 53.046875 -3.058594 53 -3 53 M -3 53 L -0.000000000000012879 53 C -0.0546875 53 -0.101563 53.042969 -0.101563 53.101562 M -0.101563 53.101562 L -0.101563 47.101562 C -0.101563 47.15625 -0.0585938 47.203125 -0.000000000000011546 47.203125 M -0.000000000000011546 47.203125 L -3 47.203125 C -3.054688 47.203125 -3.101563 47.160156 -3.101563 47.101562 M -3.101563 47.101562 L -3.101563 41.101562 M -3.101563 41.101562 C -3.101563 41.046875 -3.058594 41 -3 41 M -3 41 L -0.00000000000000977 41 C -0.0546875 41 -0.101563 41.042969 -0.101563 41.101562 M -0.101563 41.101562 L -0.101563 35.101562 C -0.101563 35.15625 -0.0585938 35.203125 -0.000000000000008438 35.203125 M -0.000000000000008438 35.203125 L -3 35.203125 C -3.054688 35.203125 -3.101563 35.160156 -3.101563 35.101562 M -3.101563 35.101562 L -3.101563 29.101562 M -3.101563 29.101562 C -3.101563 29.046875 -3.058594 29 -3 29 M -3 29 L -0.000000000000007105 29 C -0.0546875 29 -0.101563 29.042969 -0.101563 29.101562 M -0.101563 29.101562 L -0.101563 23.101562 C -0.101563 23.15625 -0.0585938 23.203125 -0.000000000000005773 23.203125 M -0.000000000000005773 23.203125 L -3 23.203125 C -3.054688 23.203125 -3.101563 23.160156 -3.101563 23.101562 M -3.101563 23.101562 L -3.101563 17.101562 M -3.101563 17.101562 C -3.101563 17.046875 -3.058594 17 -3 17 M -3 17 L -0.000000000000003997 17 C -0.0546875 17 -0.101563 17.042969 -0.101563 17.101562 M -0.101563 17.101562 L -0.101563 11.101562 C -0.101563 11.15625 -0.0585938 11.203125 -0.000000000000002665 11.203125 M -0.000000000000002665 11.203125 L -3 11.203125 C -3.054688 11.203125 -3.101563 11.160156 -3.101563 11.101562 M -3.101563 11.101562 L -3.101562 0.101562 M -3.101562 0.101562 C -3.101562 0.046875 -3.058594 0 -3 0 M -3 0 L 0 0 " transform="matrix(1,0.000000000000000245,0.000000000000000245,-1,3.851562,9996.148438)"/>
<path style="fill:none;stroke-width:0.2;stroke-linecap:butt;stroke-linejoin:miter;stroke:rgb(0%,0%,0%);stroke-opacity:1;stroke-miterlimit:10;" d="M 0 0 L 8.5 0 M 8.5 0 C 8.445312 0 8.398438 0.0429688 8.398438 0.101562 M 8.398438 0.101562 L 8.398438 -2.898438 C 8.398438 -2.953125 8.441406 -3 8.5 -3 M 8.5 -3 L 14.5 -3 C 14.554688 -3 14.601562 -2.957031 14.601562 -2.898438 M 14.601562 -2.898438 L 14.601562 0.101562 C 14.601562 0.046875 14.558594 0 14.5 0 M 14.5 0 L 20.5 0 M 20.5 0 C 20.445312 0 20.398438 0.0429688 20.398438 0.101562 M 20.398438 0.101562 L 20.398438 -2.898438 C 20.398438 -2.953125 20.441406 -3 20.5 -3 M 20.5 -3 L 26.5 -3 C 26.554688 -3 26.601562 -2.957031 26.601562 -2.898438 M 26.601562 -2.898438 L 26.601562 0.101562 C 26.601562 0.046875 26.558594 0 26.5 0 M 26.5 0 L 32.5 0 M 32.5 0 C 32.445312 0 32.398438 0.0429688 32.398438 0.101562 M 32.398438 0.101562 L 32.398438 -2.898438 C 32.398438 -2.953125 32.441406 -3 32.5 -3 M 32.5 -3 L 38.5 -3 C 38.554688 -3 38.601562 -2.957031 38.601562 -2.898438 M 38.601562 -2.898438 L 38.601562 0.101562 C 38.601562 0.046875 38.558594 0 38.5 0 M 38.5 0 L 44.5 0 M 44.5 0 C 44.445312 0 44.398438 0.0429688 44.398438 0.101562 M 44.398438 0.101562 L 44.398438 -2.898438 C 44.398438 -2.953125 44.441406 -3 44.5 -3 M 44.5 -3 L 50.5 -3 C 50.554688 -3 50.601562 -2.957031 50.601562 -2.898438 M 50.601562 -2.898438 L 50.601562 0.101562 C 50.601562 0.046875 50.558594 0 50.5 0 M 50.5 0 L 59 0 M 59 0 C 59.054688 0 59.101562 0.0429688 59.101562 0.101562 M 59.101562 0.101562 L 59.101562 0.101562 M 59.101562 0.101562 L 59.101562 11.101562 M 59.101562 11.101562 C 59.101562 11.046875 59.058594 11 59 11 M 59 11 L 62 11 C 62.054688 11 62.101562 11.042969 62.101562 11.101562 M 62.101562 11.101562 L 62.101562 17.101562 C 62.101562 17.15625 62.058594 17.203125 62 17.203125 M 62 17.203125 L 59 17.203125 C 59.054688 17.203125 59.101562 17.160156 59.101562 17.101562 M 59.101562 17.101562 L 59.101562 23.101562 M 59.101562 23.101562 C 59.101562 23.046875 59.058594 23 59 23 M 59 23 L 62 23 C 62.054688 23 62.101562 23.042969 62.101562 23.101562 M 62.101562 23.101562 L 62.101562 29.101562 C 62.101562 29.15625 62.058594 29.203125 62 29.203125 M 62 29.203125 L 59 29.203125 C 59.054688 29.203125 59.101562 29.160156 59.101562 29.101562 M 59.101562 29.101562 L 59.101562 35.101562 M 59.101562 35.101562 C 59.101562 35.046875 59.058594 35 59 35 M 59 35 L 62 35 C 62.054688 35 62.101562 35.042969 62.101562 35.101562 M 62.101562 35.101562 L 62.101562 41.101562 C 62.101562 41.15625 62.058594 41.203125 62 41.203125 M 62 41.203125 L 59 41.203125 C 59.054688 41.203125 59.101562 41.160156 59.101562 41.101562 M 59.101562 41.101562 L 59.101562 47.101562 M 59.101562 47.101562 C 59.101562 47.046875 59.058594 47 59 47 M 59 47 L 62 47 C 62.054688 47 62.101562 47.042969 62.101562 47.101562 M 62.101562 47.101562 L 62.101562 53.101562 C 62.101562 53.15625 62.058594 53.203125 62 53.203125 M 62 53.203125 L 59 53.203125 C 59.054688 53.203125 59.101562 53.160156 59.101562 53.101562 M 59.101562 53.101562 L 59.101562 59.101562 M 59.101562 59.101562 C 59.101562 59.046875 59.058594 59 59 59 M 59 59 L 62 59 C 62.054688 59 62.101562 59.042969 62.101562 59.101562 M 62.101562 59.101562 L 62.101562 65.101562 C 62.101562 65.15625 62.058594 65.203125 62 65.203125 M 62 65.203125 L 59 65.203125 C 59.054688 65.203125 59.101562 65.160156 59.101562 65.101562 M 59.101562 65.101562 L 59.101562 71.101562 M 59.101562 71.101562 C 59.101562 71.046875 59.058594 71 59 71 M 59 71 L 62 71 C 62.054688 71 62.101562 71.042969 62.101562 71.101562 M 62.101562 71.101562 L 62.101562 77.101562 C 62.101562 77.15625 62.058594 77.203125 62 77.203125 M 62 77.203125 L 59 77.203125 C 59.054687 77.203125 59.101562 77.160156 59.101562 77.101562 M 59.101562 77.101562 L 59.101562 88.101562 M 59.101562 88.101562 C 59.101562 88.15625 59.058594 88.203125 59 88.203125 M 59 88.203125 L 59 88.203125 M 59 88.203125 L -0.000000000000014211 88.203125 M -0.000000000000014211 88.203125 C -0.0546875 88.203125 -0.101563 88.160156 -0.101563 88.101562 M -0.101563 88.101562 L -0.101563 88.101562 M -0.101563 88.101562 L -0.101563 77.101562 M -0.101563 77.101562 C -0.101563 77.15625 -0.0585938 77.203125 -0.000000000000014211 77.203125 M -0.000000000000014211 77.203125 L -3 77.203125 C -3.054688 77.203125 -3.101563 77.160156 -3.101563 77.101562 M -3.101563 77.101562 L -3.101563 71.101562 C -3.101563 71.046875 -3.058594 71 -3 71 M -3 71 L -0.000000000000014211 71 C -0.0546875 71 -0.101563 71.042969 -0.101563 71.101562 M -0.101563 71.101562 L -0.101563 65.101562 M -0.101563 65.101562 C -0.101563 65.15625 -0.0585938 65.203125 -0.000000000000014211 65.203125 M -0.000000000000014211 65.203125 L -3 65.203125 C -3.054688 65.203125 -3.101563 65.160156 -3.101563 65.101562 M -3.101563 65.101562 L -3.101563 59.101562 C -3.101563 59.046875 -3.058594 59 -3 59 M -3 59 L -0.000000000000014211 59 C -0.0546875 59 -0.101563 59.042969 -0.101563 59.101562 M -0.101563 59.101562 L -0.101563 53.101562 M -0.101563 53.101562 C -0.101563 53.15625 -0.0585938 53.203125 -0.000000000000014211 53.203125 M -0.000000000000014211 53.203125 L -3 53.203125 C -3.054688 53.203125 -3.101563 53.160156 -3.101563 53.101562 M -3.101563 53.101562 L -3.101563 47.101562 C -3.101563 47.046875 -3.058594 47 -3 47 M -3 47 L -0.000000000000014211 47 C -0.0546875 47 -0.101563 47.042969 -0.101563 47.101562 M -0.101563 47.101562 L -0.101562 41.101562 M -0.101562 41.101562 C -0.101562 41.15625 -0.0585938 41.203125 0 41.203125 M 0 41.203125 L -3 41.203125 C -3.054688 41.203125 -3.101562 41.160156 -3.101562 41.101562 M -3.101562 41.101562 L -3.101562 35.101562 C -3.101562 35.046875 -3.058594 35 -3 35 M -3 35 L 0 35 C -0.0546875 35 -0.101562 35.042969 -0.101562 35.101562 M -0.101562 35.101562 L -0.101562 29.101562 M -0.101562 29.101562 C -0.101562 29.15625 -0.0585938 29.203125 0 29.203125 M 0 29.203125 L -3 29.203125 C -3.054688 29.203125 -3.101562 29.160156 -3.101562 29.101562 M -3.101562 29.101562 L -3.101562 23.101562 C -3.101562 23.046875 -3.058594 23 -3 23 M -3 23 L 0 23 C -0.0546875 23 -0.101562 23.042969 -0.101562 23.101562 M -0.101562 23.101562 L -0.101562 17.101562 M -0.101562 17.101562 C -0.101562 17.15625 -0.0585938 17.203125 0 17.203125 M 0 17.203125 L -3 17.203125 C -3.054688 17.203125 -3.101562 17.160156 -3.101562 17.101562 M -3.101562 17.101562 L -3.101562 11.101562 C -3.101562 11.046875 -3.058594 11 -3 11 M -3 11 L 0 11 C -0.0546875 11 -0.101562 11.042969 -0.101562 11.101562 M -0.101562 11.101562 L -0.101562 0.101562 M -0.101562 0.101562 C -0.101562 0.046875 -0.0585938 0 0 0 M 0 0 L 0 0 " transform="matrix(1,0.000000000000000245,0.000000000000000245,-1,69.050781,9996.148438)"/>
<path style="fill:none;stroke-width:0.2;stroke-linecap:butt;stroke-linejoin:miter;stroke:rgb(0%,0%,0%);stroke-opacity:1;stroke-miterlimit:10;" d="M 0 0 L 7.75 0 M 7.75 0 C 7.695312 0 7.648438 0.0429688 7.648438 0.101562 M 7.648438 0.101562 L 7.648438 -2.898438 C 7.648438 -2.953125 7.691406 -3 7.75 -3 M 7.75 -3 L 13.75 -3 C 13.804688 -3 13.851562 -2.957031 13.851562 -2.898438 M 13.851562 -2.898438 L 13.851562 0.101562 C 13.851562 0.046875 13.808594 0 13.75 0 M 13.75 0 L 19.75 0 M 19.75 0 C 19.695312 0 19.648438 0.0429688 19.648438 0.101562 M 19.648438 0.101562 L 19.648438 -2.898438 C 19.648438 -2.953125 19.691406 -3 19.75 -3 M 19.75 -3 L 25.75 -3 C 25.804688 -3 25.851562 -2.957031 25.851562 -2.898438 M 25.851562 -2.898438 L 25.851562 0.101562 C 25.851562 0.046875 25.808594 0 25.75 0 M 25.75 0 L 31.75 0 M 31.75 0 C 31.695312 0 31.648438 0.0429688 31.648438 0.101562 M 31.648438 0.101562 L 31.648438 -2.898438 C 31.648438 -2.953125 31.691406 -3 31.75 -3 M 31.75 -3 L 37.75 -3 C 37.804688 -3 37.851562 -2.957031 37.851562 -2.898438 M 37.851562 -2.898438 L 37.851562 0.101562 C 37.851562 0.046875 37.808594 0 37.75 0 M 37.75 0 L 43.75 0 M 43.75 0 C 43.695312 0 43.648438 0.0429688 43.648438 0.101562 M 43.648438 0.101562 L 43.648438 -2.898438 C 43.648438 -2.953125 43.691406 -3 43.75 -3 M 43.75 -3 L 49.75 -3 C 49.804688 -3 49.851562 -2.957031 49.851562 -2.898438 M 49.851562 -2.898438 L 49.851562 0.101562 C 49.851562 0.046875 49.808594 0 49.75 0 M 49.75 0 L 57.5 0 M 57.5 0 L 60.5 0 C 60.554688 0 60.601562 0.0429688 60.601562 0.101562 M 60.601562 0.101562 L 60.601562 0.101562 M 60.601562 0.101562 L 60.601562 11.101562 M 60.601562 11.101562 C 60.601562 11.15625 60.558594 11.203125 60.5 11.203125 M 60.5 11.203125 L 57.5 11.203125 C 57.554688 11.203125 57.601562 11.160156 57.601562 11.101562 M 57.601562 11.101562 L 57.601562 17.101562 C 57.601562 17.046875 57.558594 17 57.5 17 M 57.5 17 L 60.5 17 C 60.554688 17 60.601562 17.042969 60.601562 17.101562 M 60.601562 17.101562 L 60.601562 23.101562 M 60.601562 23.101562 C 60.601562 23.15625 60.558594 23.203125 60.5 23.203125 M 60.5 23.203125 L 57.5 23.203125 C 57.554688 23.203125 57.601562 23.160156 57.601562 23.101562 M 57.601562 23.101562 L 57.601562 29.101562 C 57.601562 29.046875 57.558594 29 57.5 29 M 57.5 29 L 60.5 29 C 60.554688 29 60.601562 29.042969 60.601562 29.101562 M 60.601562 29.101562 L 60.601562 35.101562 M 60.601562 35.101562 C 60.601562 35.15625 60.558594 35.203125 60.5 35.203125 M 60.5 35.203125 L 57.5 35.203125 C 57.554688 35.203125 57.601562 35.160156 57.601562 35.101562 M 57.601562 35.101562 L 57.601562 41.101562 C 57.601562 41.046875 57.558594 41 57.5 41 M 57.5 41 L 60.5 41 C 60.554688 41 60.601562 41.042969 60.601562 41.101562 M 60.601562 41.101562 L 60.601562 47.101562 M 60.601562 47.101562 C 60.601562 47.15625 60.558594 47.203125 60.5 47.203125 M 60.5 47.203125 L 57.5 47.203125 C 57.554688 47.203125 57.601562 47.160156 57.601562 47.101562 M 57.601562 47.101562 L 57.601562 53.101562 C 57.601562 53.046875 57.558594 53 57.5 53 M 57.5 53 L 60.5 53 C 60.554688 53 60.601562 53.042969 60.601562 53.101562 M 60.601562 53.101562 L 60.601562 59.101562 M 60.601562 59.101562 C 60.601562 59.15625 60.558594 59.203125 60.5 59.203125 M 60.5 59.203125 L 57.5 59.203125 C 57.554688 59.203125 57.601562 59.160156 57.601562 59.101562 M 57.601562 59.101562 L 57.601562 65.101562 C 57.601562 65.046875 57.558594 65 57.5 65 M 57.5 65 L 60.5 65 C 60.554688 65 60.601562 65.042969 60.601562 65.101562 M 60.601562 65.101562 L 60.601562 71.101562 M 60.601562 71.101562 C 60.601562 71.15625 60.558594 71.203125 60.5 71.203125 M 60.5 71.203125 L 57.5 71.203125 C 57.554688 71.203125 57.601562 71.160156 57.601562 71.101562 M 57.601562 71.101562 L 57.601562 77.101562 C 57.601562 77.046875 57.558594 77 57.5 77 M 57.5 77 L 60.5 77 C 60.554687 77 60.601562 77.042969 60.601562 77.101562 M 60.601562 77.101562 L 60.601562 88.101562 M 60.601562 88.101562 C 60.601562 88.15625 60.558594 88.203125 60.5 88.203125 M 60.5 88.203125 L 57.5 88.203125 M 57.5 88.203125 L -0.000000000000028422 88.203125 M -0.000000000000028422 88.203125 L -3 88.203125 C -3.054688 88.203125 -3.101563 88.160156 -3.101563 88.101562 M -3.101563 88.101562 L -3.101563 88.101562 M -3.101563 88.101562 L -3.101563 77.101562 M -3.101563 77.101562 C -3.101563 77.046875 -3.058594 77 -3 77 M -3 77 L -0.000000000000028422 77 C -0.0546875 77 -0.101563 77.042969 -0.101563 77.101562 M -0.101563 77.101562 L -0.101562 71.101562 C -0.101562 71.15625 -0.0585938 71.203125 0 71.203125 M 0 71.203125 L -3 71.203125 C -3.054688 71.203125 -3.101562 71.160156 -3.101562 71.101562 M -3.101562 71.101562 L -3.101562 65.101562 M -3.101562 65.101562 C -3.101562 65.046875 -3.058594 65 -3 65 M -3 65 L 0 65 C -0.0546875 65 -0.101562 65.042969 -0.101562 65.101562 M -0.101562 65.101562 L -0.101562 59.101562 C -0.101562 59.15625 -0.0585938 59.203125 0 59.203125 M 0 59.203125 L -3 59.203125 C -3.054688 59.203125 -3.101562 59.160156 -3.101562 59.101562 M -3.101562 59.101562 L -3.101562 53.101562 M -3.101562 53.101562 C -3.101562 53.046875 -3.058594 53 -3 53 M -3 53 L 0 53 C -0.0546875 53 -0.101562 53.042969 -0.101562 53.101562 M -0.101562 53.101562 L -0.101562 47.101562 C -0.101562 47.15625 -0.0585938 47.203125 0 47.203125 M 0 47.203125 L -3 47.203125 C -3.054688 47.203125 -3.101562 47.160156 -3.101562 47.101562 M -3.101562 47.101562 L -3.101562 41.101562 M -3.101562 41.101562 C -3.101562 41.046875 -3.058594 41 -3 41 M -3 41 L 0 41 C -0.0546875 41 -0.101562 41.042969 -0.101562 41.101562 M -0.101562 41.101562 L -0.101562 35.101562 C -0.101562 35.15625 -0.0585938 35.203125 0 35.203125 M 0 35.203125 L -3 35.203125 C -3.054688 35.203125 -3.101562 35.160156 -3.101562 35.101562 M -3.101562 35.101562 L -3.101562 29.101562 M -3.101562 29.101562 C -3.101562 29.046875 -3.058594 29 -3 29 M -3 29 L 0 29 C -0.0546875 29 -0.101562 29.042969 -0.101562 29.101562 M -0.101562 29.101562 L -0.101562 23.101562 C -0.101562 23.15625 -0.0585938 23.203125 0 23.203125 M 0 23.203125 L -3 23.203125 C -3.054688 23.203125 -3.101562 23.160156 -3.101562 23.101562 M -3.101562 23.101562 L -3.101562 17.101562 M -3.101562 17.101562 C -3.101562 17.046875 -3.058594 17 -3 17 M -3 17 L 0 17 C -0.0546875 17 -0.101562 17.042969 -0.101562 17.101562 M -0.101562 17.101562 L -0.101562 11.101562 C -0.101562 11.15625 -0.0585938 11.203125 0 11.203125 M 0 11.203125 L -3 11.203125 C -3.054688 11.203125 -3.101562 11.160156 -3.101562 11.101562 M -3.101562 11.101562 L -3.101562 0.101562 M -3.101562 0.101562 C -3.101562 0.046875 -3.058594 0 -3 0 M -3 0 L 0 0 " transform="matrix(1,0.000000000000000245,0.000000000000000245,-1,135.75,9996.148438)"/>
<path style="fill:none;stroke-width:0.2;stroke-linecap:butt;stroke-linejoin:miter;stroke:rgb(0%,0%,0%);stroke-opacity:1;stroke-miterlimit:10;" d="M 0 0 L 8.5 0 M 8.5 0 C 8.445312 0 8.398438 0.0429688 8.398438 0.101562 M 8.398438 0.101562 L 8.398438 -2.898438 C 8.398438 -2.953125 8.441406 -3 8.5 -3 M 8.5 -3 L 14.5 -3 C 14.554688 -3 14.601562 -2.957031 14.601562 -2.898438 M 14.601562 -2.898438 L 14.601562 0.101562 C 14.601562 0.046875 14.558594 0 14.5 0 M 14.5 0 L 20.5 0 M 20.5 0 C 20.445312 0 20.398438 0.0429688 20.398438 0.101562 M 20.398438 0.101562 L 20.398438 -2.898438 C 20.398438 -2.953125 20.441406 -3 20.5 -3 M 20.5 -3 L 26.5 -3 C 26.554688 -3 26.601562 -2.957031 26.601562 -2.898438 M 26.601562 -2.898438 L 26.601562 0.101562 C 26.601562 0.046875 26.558594 0 26.5 0 M 26.5 0 L 32.5 0 M 32.5 0 C 32.445312 0 32.398438 0.0429688 32.398438 0.101562 M 32.398438 0.101562 L 32.398438 -2.898438 C 32.398438 -2.953125 32.441406 -3 32.5 -3 M 32.5 -3 L 38.5 -3 C 38.554688 -3 38.601562 -2.957031 38.601562 -2.898438 M 38.601562 -2.898438 L 38.601562 0.101562 C 38.601562 0.046875 38.558594 0 38.5 0 M 38.5 0 L 44.5 0 M 44.5 0 C 44.445312 0 44.398438 0.0429688 44.398438 0.101562 M 44.398438 0.101562 L 44.398438 -2.898438 C 44.398438 -2.953125 44.441406 -3 44.5 -3 M 44.5 -3 L 50.5 -3 C 50.554688 -3 50.601562 -2.957031 50.601562 -2.898438 M 50.601562 -2.898438 L 50.601562 0.101562 C 50.601562 0.046875 50.558594 0 50.5 0 M 50.5 0 L 59 0 M 59 0 C 59.054688 0 59.101562 0.0429688 59.101562 0.101562 M 59.101562 0.101562 L 59.101562 0.101562 M 59.101562 0.101562 L 59.101562 11.101562 M 59.101562 11.101562 C 59.101562 11.046875 59.058594 11 59 11 M 59 11 L 62 11 C 62.054688 11 62.101562 11.042969 62.101562 11.101562 M 62.101562 11.101562 L 62.101562 17.101562 C 62.101562 17.15625 62.058594 17.203125 62 17.203125 M 62 17.203125 L 59 17.203125 C 59.054688 17.203125 59.101562 17.160156 59.101562 17.101562 M 59.101562 17.101562 L 59.101562 23.101562 M 59.101562 23.101562 C 59.101562 23.046875 59.058594 23 59 23 M 59 23 L 62 23 C 62.054688 23 62.101562 23.042969 62.101562 23.101562 M 62.101562 23.101562 L 62.101562 29.101562 C 62.101562 29.15625 62.058594 29.203125 62 29.203125 M 62 29.203125 L 59 29.203125 C 59.054688 29.203125 59.101562 29.160156 59.101562 29.101562 M 59.101562 29.101562 L 59.101562 35.101562 M 59.101562 35.101562 C 59.101562 35.046875 59.058594 35 59 35 M 59 35 L 62 35 C 62.054688 35 62.101562 35.042969 62.101562 35.101562 M 62.101562 35.101562 L 62.101562 41.101562 C 62.101562 41.15625 62.058594 41.203125 62 41.203125 M 62 41.203125 L 59 41.203125 C 59.054688 41.203125 59.101562 41.160156 59.101562 41.101562 M 59.101562 41.101562 L 59.101562 47.101562 M 59.101562 47.101562 C 59.101562 47.046875 59.058594 47 59 47 M 59 47 L 62 47 C 62.054688 47 62.101562 47.042969 62.101562 47.101562 M 62.101562 47.101562 L 62.101562 53.101562 C 62.101562 53.15625 62.058594 53.203125 62 53.203125 M 62 53.203125 L 59 53.203125 C 59.054688 53.203125 59.101562 53.160156 59.101562 53.101562 M 59.101562 53.101562 L 59.101562 59.101562 M 59.101562 59.101562 C 59.101562 59.046875 59.058594 59 59 59 M 59 59 L 62 59 C 62.054688 59 62.101562 59.042969 62.101562 59.101562 M 62.101562 59.101562 L 62.101562 65.101562 C 62.101562 65.15625 62.058594 65.203125 62 65.203125 M 62 65.203125 L 59 65.203125 C 59.054688 65.203125 59.101562 65.160156 59.101562 65.101562 M 59.101562 65.101562 L 59.101562 71.101562 M 59.101562 71.101562 C 59.101562 71.046875 59.058594 71 59 71 M 59 71 L 62 71 C 62.054688 71 62.101562 71.042969 62.101562 71.101562 M 62.101562 71.101562 L 62.101562 77.101562 C 62.101562 77.15625 62.058594 77.203125 62 77.203125 M 62 77.203125 L 59 77.203125 C 59.054688 77.203125 59.101562 77.160156 59.101562 77.101562 M 59.101562 77.101562 L 59.101562 88.101562 M 59.101562 88.101562 C 59.101562 88.15625 59.058594 88.203125 59 88.203125 M 59 88.203125 L 59 88.203125 M 59 88.203125 L -0.000000000000028422 88.203125 M -0.000000000000028422 88.203125 C -0.0546875 88.203125 -0.101563 88.160156 -0.101563 88.101562 M -0.101563 88.101562 L -0.101563 88.101562 M -0.101563 88.101562 L -0.101563 77.101562 M -0.101563 77.101562 C -0.101563 77.15625 -0.0585938 77.203125 -0.000000000000028422 77.203125 M -0.000000000000028422 77.203125 L -3 77.203125 C -3.054688 77.203125 -3.101563 77.160156 -3.101563 77.101562 M -3.101563 77.101562 L -3.101562 71.101562 C -3.101562 71.046875 -3.058594 71 -3 71 M -3 71 L 0 71 C -0.0546875 71 -0.101562 71.042969 -0.101562 71.101562 M -0.101562 71.101562 L -0.101562 65.101562 M -0.101562 65.101562 C -0.101562 65.15625 -0.0585938 65.203125 0 65.203125 M 0 65.203125 L -3 65.203125 C -3.054688 65.203125 -3.101562 65.160156 -3.101562 65.101562 M -3.101562 65.101562 L -3.101562 59.101562 C -3.101562 59.046875 -3.058594 59 -3 59 M -3 59 L 0 59 C -0.0546875 59 -0.101562 59.042969 -0.101562 59.101562 M -0.101562 59.101562 L -0.101562 53.101562 M -0.101562 53.101562 C -0.101562 53.15625 -0.0585938 53.203125 0 53.203125 M 0 53.203125 L -3 53.203125 C -3.054688 53.203125 -3.101562 53.160156 -3.101562 53.101562 M -3.101562 53.101562 L -3.101562 47.101562 C -3.101562 47.046875 -3.058594 47 -3 47 M -3 47 L 0 47 C -0.0546875 47 -0.101562 47.042969 -0.101562 47.101562 M -0.101562 47.101562 L -0.101562 41.101562 M -0.101562 41.101562 C -0.101562 41.15625 -0.0585938 41.203125 0 41.203125 M 0 41.203125 L -3 41.203125 C -3.054688 41.203125 -3.101562 41.160156 -3.101562 41.101562 M -3.101562 41.101562 L -3.101562 35.101562 C -3.101562 35.046875 -3.058594 35 -3 35 M -3 35 L 0 35 C -0.0546875 35 -0.101562 35.042969 -0.101562 35.101562 M -0.101562 35.101562 L -0.101562 29.101562 M -0.101562 29.101562 C -0.101562 29.15625 -0.0585938 29.203125 0 29.203125 M 0 29.203125 L -3 29.203125 C -3.054688 29.203125 -3.101562 29.160156 -3.101562 29.101562 M -3.101562 29.101562 L -3.101562 23.101562 C -3.101562 23.046875 -3.058594 23 -3 23 M -3 23 L 0 23 C -0.0546875 23 -0.101562 23.042969 -0.101562 23.101562 M -0.101562 23.101562 L -0.101562 17.101562 M -0.101562 17.101562 C -0.101562 17.15625 -0.0585938 17.203125 0 17.203125 M 0 17.203125 L -3 17.203125 C -3.054688 17.203125 -3.101562 17.160156 -3.101562 17.101562 M -3.101562 17.101562 L -3.101562 11.101562 C -3.101562 11.046875 -3.058594 11 -3 11 M -3 11 L 0 11 C -0.0546875 11 -0.101562 11.042969 -0.101562 11.101562 M -0.101562 11.101562 L -0.101562 0.101562 M -0.101562 0.101562 C -0.101562 0.046875 -0.0585938 0 0 0 M 0 0 L 0 0 " transform="matrix(1,0.000000000000000245,0.000000000000000245,-1,200.949219,9996.148438)"/>
<path style="fill:none;stroke-width:0.2;stroke-linecap:butt;stroke-linejoin:miter;stroke:rgb(0%,0%,0%);stroke-opacity:1;stroke-miterlimit:10;" d="M 0.00390625 0 L 10.902344 0 M 10.902344 0 C 10.847656 0 10.800781 0.0429688 10.800781 0.101562 M 10.800781 0.101562 L 10.800781 -2.898438 C 10.800781 -2.953125 10.84375 -3 10.902344 -3 M 10.902344 -3 L 16.902344 -3 C 16.957031 -3 17.003906 -2.957031 17.003906 -2.898438 M 17.003906 -2.898438 L 17.003906 0.101562 C 17.003906 0.046875 16.960938 0 16.902344 0 M 16.902344 0 L 22.902344 0 M 22.902344 0 C 22.847656 0 22.800781 0.0429688 22.800781 0.101562 M 22.800781 0.101562 L 22.800781 -2.898438 C 22.800781 -2.953125 22.84375 -3 22.902344 -3 M 22.902344 -3 L 28.902344 -3 C 28.957031 -3 29.003906 -2.957031 29.003906 -2.898438 M 29.003906 -2.898438 L 29.003906 0.101562 C 29.003906 0.046875 28.960937 0 28.902344 0 M 28.902344 0 L 34.902344 0 M 34.902344 0 C 34.847656 0 34.800781 0.0429688 34.800781 0.101562 M 34.800781 0.101562 L 34.800781 -2.898438 C 34.800781 -2.953125 34.84375 -3 34.902344 -3 M 34.902344 -3 L 40.902344 -3 C 40.957031 -3 41.003906 -2.957031 41.003906 -2.898438 M 41.003906 -2.898438 L 41.003906 0.101562 C 41.003906 0.046875 40.960938 0 40.902344 0 M 40.902344 0 L 46.902344 0 M 46.902344 0 C 46.847656 0 46.800781 0.0429688 46.800781 0.101562 M 46.800781 0.101562 L 46.800781 -2.898438 C 46.800781 -2.953125 46.84375 -3 46.902344 -3 M 46.902344 -3 L 52.902344 -3 C 52.957031 -3 53.003906 -2.957031 53.003906 -2.898438 M 53.003906 -2.898438 L 53.003906 0.101562 C 53.003906 0.046875 52.960938 0 52.902344 0 M 52.902344 0 L 63.800781 0 M 63.800781 0 L 66.800781 0 C 66.855469 0 66.902344 0.0429688 66.902344 0.101562 M 66.902344 0.101562 L 66.902344 0.101562 M 66.902344 0.101562 L 66.902344 11.101562 M 66.902344 11.101562 C 66.902344 11.15625 66.859375 11.203125 66.800781 11.203125 M 66.800781 11.203125 L 63.800781 11.203125 C 63.855469 11.203125 63.902344 11.160156 63.902344 11.101562 M 63.902344 11.101562 L 63.902344 17.101562 C 63.902344 17.046875 63.859375 17 63.800781 17 M 63.800781 17 L 66.800781 17 C 66.855469 17 66.902344 17.042969 66.902344 17.101562 M 66.902344 17.101562 L 66.902344 23.101562 M 66.902344 23.101562 C 66.902344 23.15625 66.859375 23.203125 66.800781 23.203125 M 66.800781 23.203125 L 63.800781 23.203125 C 63.855469 23.203125 63.902344 23.160156 63.902344 23.101562 M 63.902344 23.101562 L 63.902344 29.101562 C 63.902344 29.046875 63.859375 29 63.800781 29 M 63.800781 29 L 66.800781 29 C 66.855469 29 66.902344 29.042969 66.902344 29.101562 M 66.902344 29.101562 L 66.902344 35.101562 M 66.902344 35.101562 C 66.902344 35.15625 66.859375 35.203125 66.800781 35.203125 M 66.800781 35.203125 L 63.800781 35.203125 C 63.855469 35.203125 63.902344 35.160156 63.902344 35.101562 M 63.902344 35.101562 L 63.902344 41.101562 C 63.902344 41.046875 63.859375 41 63.800781 41 M 63.800781 41 L 66.800781 41 C 66.855469 41 66.902344 41.042969 66.902344 41.101562 M 66.902344 41.101562 L 66.902344 47.101562 M 66.902344 47.101562 C 66.902344 47.15625 66.859375 47.203125 66.800781 47.203125 M 66.800781 47.203125 L 63.800781 47.203125 C 63.855469 47.203125 63.902344 47.160156 63.902344 47.101562 M 63.902344 47.101562 L 63.902344 53.101562 C 63.902344 53.046875 63.859375 53 63.800781 53 M 63.800781 53 L 66.800781 53 C 66.855469 53 66.902344 53.042969 66.902344 53.101562 M 66.902344 53.101562 L 66.902344 59.101562 M 66.902344 59.101562 C 66.902344 59.15625 66.859375 59.203125 66.800781 59.203125 M 66.800781 59.203125 L 63.800781 59.203125 C 63.855469 59.203125 63.902344 59.160156 63.902344 59.101562 M 63.902344 59.101562 L 63.902344 65.101562 C 63.902344 65.046875 63.859375 65 63.800781 65 M 63.800781 65 L 66.800781 65 C 66.855469 65 66.902344 65.042969 66.902344 65.101562 M 66.902344 65.101562 L 66.902344 71.101562 M 66.902344 71.101562 C 66.902344 71.15625 66.859375 71.203125 66.800781 71.203125 M 66.800781 71.203125 L 63.800781 71.203125 C 63.855469 71.203125 63.902344 71.160156 63.902344 71.101562 M 63.902344 71.101562 L 63.902344 77.101562 C 63.902344 77.046875 63.859375 77 63.800781 77 M 63.800781 77 L 66.800781 77 C 66.855469 77 66.902344 77.042969 66.902344 77.101562 M 66.902344 77.101562 L 66.902344 88.101562 M 66.902344 88.101562 C 66.902344 88.15625 66.859375 88.203125 66.800781 88.203125 M 66.800781 88.203125 L 63.800781 88.203125 M 63.800781 88.203125 L -0.00000000000002176 88.203125 M -0.00000000000002176 88.203125 L -3 88.203125 C -3.054688 88.203125 -3.101563 88.160156 -3.101563 88.101562 M -3.101563 88.101562 L -3.101563 88.101562 M -3.101563 88.101562 L -3.101563 77.101562 M -3.101563 77.101562 C -3.101563 77.046875 -3.058594 77 -3 77 M -3 77 L -0.000000000000018652 77 C -0.0546875 77 -0.101563 77.042969 -0.101563 77.101562 M -0.101563 77.101562 L -0.101563 71.101562 C -0.101563 71.15625 -0.0585938 71.203125 -0.000000000000017319 71.203125 M -0.000000000000017319 71.203125 L -3 71.203125 C -3.054688 71.203125 -3.101563 71.160156 -3.101563 71.101562 M -3.101563 71.101562 L -3.101563 65.101562 M -3.101563 65.101562 C -3.101563 65.046875 -3.058594 65 -3 65 M -3 65 L -0.000000000000015987 65 C -0.0546875 65 -0.101563 65.042969 -0.101563 65.101562 M -0.101563 65.101562 L -0.101563 59.101562 C -0.101563 59.15625 -0.0585938 59.203125 -0.000000000000014655 59.203125 M -0.000000000000014655 59.203125 L -3 59.203125 C -3.054688 59.203125 -3.101563 59.160156 -3.101563 59.101562 M -3.101563 59.101562 L -3.101563 53.101562 M -3.101563 53.101562 C -3.101563 53.046875 -3.058594 53 -3 53 M -3 53 L -0.000000000000012879 53 C -0.0546875 53 -0.101563 53.042969 -0.101563 53.101562 M -0.101563 53.101562 L -0.101563 47.101562 C -0.101563 47.15625 -0.0585938 47.203125 -0.000000000000011546 47.203125 M -0.000000000000011546 47.203125 L -3 47.203125 C -3.054688 47.203125 -3.101563 47.160156 -3.101563 47.101562 M -3.101563 47.101562 L -3.101563 41.101562 M -3.101563 41.101562 C -3.101563 41.046875 -3.058594 41 -3 41 M -3 41 L -0.000000000000010214 41 C -0.0546875 41 -0.101563 41.042969 -0.101563 41.101562 M -0.101563 41.101562 L -0.101563 35.101562 C -0.101563 35.15625 -0.0585938 35.203125 -0.000000000000008438 35.203125 M -0.000000000000008438 35.203125 L -3 35.203125 C -3.054688 35.203125 -3.101563 35.160156 -3.101563 35.101562 M -3.101563 35.101562 L -3.101563 29.101562 M -3.101563 29.101562 C -3.101563 29.046875 -3.058594 29 -3 29 M -3 29 L -0.000000000000007105 29 C -0.0546875 29 -0.101563 29.042969 -0.101563 29.101562 M -0.101563 29.101562 L -0.101563 23.101562 C -0.101563 23.15625 -0.0585938 23.203125 -0.000000000000005773 23.203125 M -0.000000000000005773 23.203125 L -3 23.203125 C -3.054688 23.203125 -3.101563 23.160156 -3.101563 23.101562 M -3.101563 23.101562 L -3.101563 17.101562 M -3.101563 17.101562 C -3.101563 17.046875 -3.058594 17 -3 17 M -3 17 L -0.000000000000003997 17 C -0.0546875 17 -0.101563 17.042969 -0.101563 17.101562 M -0.101563 17.101562 L -0.101563 11.101562 C -0.101563 11.15625 -0.0585938 11.203125 -0.000000000000002665 11.203125 M -0.000000000000002665 11.203125 L -3 11.203125 C -3.054688 11.203125 -3.101563 11.160156 -3.101563 11.101562 M -3.101563 11.101562 L -3.101562 0.101562 M -3.101562 0.101562 C -3.101562 0.046875 -3.058594 0 -3 0 M -3 0 L 0 0 " transform="matrix(1,0.000000000000000245,0.000000000000000245,-1,3.847656,9903.449219)"/>
<path style="fill:none;stroke-width:0.2;stroke-linecap:butt;stroke-linejoin:miter;stroke:rgb(0%,0%,0%);stroke-opacity:1;stroke-miterlimit:10;" d="M 0.00390625 0 L 11.652344 0 M 11.652344 0 C 11.597656 0 11.550781 0.0429688 11.550781 0.101562 M 11.550781 0.101562 L 11.550781 -2.898438 C 11.550781 -2.953125 11.59375 -3 11.652344 -3 M 11.652344 -3 L 17.652344 -3 C 17.707031 -3 17.753906 -2.957031 17.753906 -2.898438 M 17.753906 -2.898438 L 17.753906 0.101562 C 17.753906 0.046875 17.710938 0 17.652344 0 M 17.652344 0 L 23.652344 0 M 23.652344 0 C 23.597656 0 23.550781 0.0429688 23.550781 0.101562 M 23.550781 0.101562 L 23.550781 -2.898438 C 23.550781 -2.953125 23.59375 -3 23.652344 -3 M 23.652344 -3 L 29.652344 -3 C 29.707031 -3 29.753906 -2.957031 29.753906 -2.898438 M 29.753906 -2.898438 L 29.753906 0.101562 C 29.753906 0.046875 29.710938 0 29.652344 0 M 29.652344 0 L 35.652344 0 M 35.652344 0 C 35.597656 0 35.550781 0.0429688 35.550781 0.101562 M 35.550781 0.101562 L 35.550781 -2.898438 C 35.550781 -2.953125 35.59375 -3 35.652344 -3 M 35.652344 -3 L 41.652344 -3 C 41.707031 -3 41.753906 -2.957031 41.753906 -2.898438 M 41.753906 -2.898438 L 41.753906 0.101562 C 41.753906 0.046875 41.710938 0 41.652344 0 M 41.652344 0 L 47.652344 0 M 47.652344 0 C 47.597656 0 47.550781 0.0429688 47.550781 0.101562 M 47.550781 0.101562 L 47.550781 -2.898438 C 47.550781 -2.953125 47.59375 -3 47.652344 -3 M 47.652344 -3 L 53.652344 -3 C 53.707031 -3 53.753906 -2.957031 53.753906 -2.898438 M 53.753906 -2.898438 L 53.753906 0.101562 C 53.753906 0.046875 53.710937 0 53.652344 0 M 53.652344 0 L 65.300781 0 M 65.300781 0 C 65.355469 0 65.402344 0.0429688 65.402344 0.101562 M 65.402344 0.101562 L 65.402344 0.101562 M 65.402344 0.101562 L 65.402344 11.101562 M 65.402344 11.101562 C 65.402344 11.046875 65.359375 11 65.300781 11 M 65.300781 11 L 68.300781 11 C 68.355469 11 68.402344 11.042969 68.402344 11.101562 M 68.402344 11.101562 L 68.402344 17.101562 C 68.402344 17.15625 68.359375 17.203125 68.300781 17.203125 M 68.300781 17.203125 L 65.300781 17.203125 C 65.355469 17.203125 65.402344 17.160156 65.402344 17.101562 M 65.402344 17.101562 L 65.402344 23.101562 M 65.402344 23.101562 C 65.402344 23.046875 65.359375 23 65.300781 23 M 65.300781 23 L 68.300781 23 C 68.355469 23 68.402344 23.042969 68.402344 23.101562 M 68.402344 23.101562 L 68.402344 29.101562 C 68.402344 29.15625 68.359375 29.203125 68.300781 29.203125 M 68.300781 29.203125 L 65.300781 29.203125 C 65.355469 29.203125 65.402344 29.160156 65.402344 29.101562 M 65.402344 29.101562 L 65.402344 35.101562 M 65.402344 35.101562 C 65.402344 35.046875 65.359375 35 65.300781 35 M 65.300781 35 L 68.300781 35 C 68.355469 35 68.402344 35.042969 68.402344 35.101562 M 68.402344 35.101562 L 68.402344 41.101562 C 68.402344 41.15625 68.359375 41.203125 68.300781 41.203125 M 68.300781 41.203125 L 65.300781 41.203125 C 65.355469 41.203125 65.402344 41.160156 65.402344 41.101562 M 65.402344 41.101562 L 65.402344 47.101562 M 65.402344 47.101562 C 65.402344 47.046875 65.359375 47 65.300781 47 M 65.300781 47 L 68.300781 47 C 68.355469 47 68.402344 47.042969 68.402344 47.101562 M 68.402344 47.101562 L 68.402344 53.101562 C 68.402344 53.15625 68.359375 53.203125 68.300781 53.203125 M 68.300781 53.203125 L 65.300781 53.203125 C 65.355469 53.203125 65.402344 53.160156 65.402344 53.101562 M 65.402344 53.101562 L 65.402344 59.101562 M 65.402344 59.101562 C 65.402344 59.046875 65.359375 59 65.300781 59 M 65.300781 59 L 68.300781 59 C 68.355469 59 68.402344 59.042969 68.402344 59.101562 M 68.402344 59.101562 L 68.402344 65.101562 C 68.402344 65.15625 68.359375 65.203125 68.300781 65.203125 M 68.300781 65.203125 L 65.300781 65.203125 C 65.355469 65.203125 65.402344 65.160156 65.402344 65.101562 M 65.402344 65.101562 L 65.402344 71.101562 M 65.402344 71.101562 C 65.402344 71.046875 65.359375 71 65.300781 71 M 65.300781 71 L 68.300781 71 C 68.355469 71 68.402344 71.042969 68.402344 71.101562 M 68.402344 71.101562 L 68.402344 77.101562 C 68.402344 77.15625 68.359375 77.203125 68.300781 77.203125 M 68.300781 77.203125 L 65.300781 77.203125 C 65.355469 77.203125 65.402344 77.160156 65.402344 77.101562 M 65.402344 77.101562 L 65.402344 88.101562 M 65.402344 88.101562 C 65.402344 88.15625 65.359375 88.203125 65.300781 88.203125 M 65.300781 88.203125 L 65.300781 88.203125 M 65.300781 88.203125 L -0.000000000000028422 88.203125 M -0.000000000000028422 88.203125 C -0.0546875 88.203125 -0.101563 88.160156 -0.101563 88.101562 M -0.101563 88.101562 L -0.101563 88.101562 M -0.101563 88.101562 L -0.101563 77.101562 M -0.101563 77.101562 C -0.101563 77.15625 -0.0585938 77.203125 -0.000000000000028422 77.203125 M -0.000000000000028422 77.203125 L -3 77.203125 C -3.054688 77.203125 -3.101563 77.160156 -3.101563 77.101562 M -3.101563 77.101562 L -3.101563 71.101562 C -3.101563 71.046875 -3.058594 71 -3 71 M -3 71 L -0.000000000000028422 71 C -0.0546875 71 -0.101563 71.042969 -0.101563 71.101562 M -0.101563 71.101562 L -0.101563 65.101562 M -0.101563 65.101562 C -0.101563 65.15625 -0.0585938 65.203125 -0.000000000000014211 65.203125 M -0.000000000000014211 65.203125 L -3 65.203125 C -3.054688 65.203125 -3.101563 65.160156 -3.101563 65.101562 M -3.101563 65.101562 L -3.101563 59.101562 C -3.101563 59.046875 -3.058594 59 -3 59 M -3 59 L -0.000000000000014211 59 C -0.0546875 59 -0.101563 59.042969 -0.101563 59.101562 M -0.101563 59.101562 L -0.101563 53.101562 M -0.101563 53.101562 C -0.101563 53.15625 -0.0585938 53.203125 -0.000000000000014211 53.203125 M -0.000000000000014211 53.203125 L -3 53.203125 C -3.054688 53.203125 -3.101563 53.160156 -3.101563 53.101562 M -3.101563 53.101562 L -3.101563 47.101562 C -3.101563 47.046875 -3.058594 47 -3 47 M -3 47 L -0.000000000000014211 47 C -0.0546875 47 -0.101563 47.042969 -0.101563 47.101562 M -0.101563 47.101562 L -0.101563 41.101562 M -0.101563 41.101562 C -0.101563 41.15625 -0.0585938 41.203125 -0.000000000000014211 41.203125 M -0.000000000000014211 41.203125 L -3 41.203125 C -3.054688 41.203125 -3.101563 41.160156 -3.101563 41.101562 M -3.101563 41.101562 L -3.101563 35.101562 C -3.101563 35.046875 -3.058594 35 -3 35 M -3 35 L -0.000000000000014211 35 C -0.0546875 35 -0.101563 35.042969 -0.101563 35.101562 M -0.101563 35.101562 L -0.101563 29.101562 M -0.101563 29.101562 C -0.101563 29.15625 -0.0585938 29.203125 -0.000000000000014211 29.203125 M -0.000000000000014211 29.203125 L -3 29.203125 C -3.054688 29.203125 -3.101563 29.160156 -3.101563 29.101562 M -3.101563 29.101562 L -3.101563 23.101562 C -3.101563 23.046875 -3.058594 23 -3 23 M -3 23 L -0.000000000000014211 23 C -0.0546875 23 -0.101563 23.042969 -0.101563 23.101562 M -0.101563 23.101562 L -0.101563 17.101562 M -0.101563 17.101562 C -0.101563 17.15625 -0.0585938 17.203125 -0.000000000000014211 17.203125 M -0.000000000000014211 17.203125 L -3 17.203125 C -3.054688 17.203125 -3.101563 17.160156 -3.101563 17.101562 M -3.101563 17.101562 L -3.101563 11.101562 C -3.101563 11.046875 -3.058594 11 -3 11 M -3 11 L 0 11 C -0.0546875 11 -0.101563 11.042969 -0.101563 11.101562 M -0.101563 11.101562 L -0.101562 0.101562 M -0.101562 0.101562 C -0.101562 0.046875 -0.0585938 0 0 0 M 0 0 L 0 0 " transform="matrix(1,0.000000000000000245,0.000000000000000245,-1,75.347656,9903.449219)"/>
<path style="fill:none;stroke-width:0.2;stroke-linecap:butt;stroke-linejoin:miter;stroke:rgb(0%,0%,0%);stroke-opacity:1;stroke-miterlimit:10;" d="M 0.00390625 0 L 10.902344 0 M 10.902344 0 C 10.847656 0 10.800781 0.0429688 10.800781 0.101562 M 10.800781 0.101562 L 10.800781 -2.898438 C 10.800781 -2.953125 10.84375 -3 10.902344 -3 M 10.902344 -3 L 16.902344 -3 C 16.957031 -3 17.003906 -2.957031 17.003906 -2.898438 M 17.003906 -2.898438 L 17.003906 0.101562 C 17.003906 0.046875 16.960938 0 16.902344 0 M 16.902344 0 L 22.902344 0 M 22.902344 0 C 22.847656 0 22.800781 0.0429688 22.800781 0.101562 M 22.800781 0.101562 L 22.800781 -2.898438 C 22.800781 -2.953125 22.84375 -3 22.902344 -3 M 22.902344 -3 L 28.902344 -3 C 28.957031 -3 29.003906 -2.957031 29.003906 -2.898438 M 29.003906 -2.898438 L 29.003906 0.101562 C 29.003906 0.046875 28.960938 0 28.902344 0 M 28.902344 0 L 34.902344 0 M 34.902344 0 C 34.847656 0 34.800781 0.0429688 34.800781 0.101562 M 34.800781 0.101562 L 34.800781 -2.898438 C 34.800781 -2.953125 34.84375 -3 34.902344 -3 M 34.902344 -3 L 40.902344 -3 C 40.957031 -3 41.003906 -2.957031 41.003906 -2.898438 M 41.003906 -2.898438 L 41.003906 0.101562 C 41.003906 0.046875 40.960938 0 40.902344 0 M 40.902344 0 L 46.902344 0 M 46.902344 0 C 46.847656 0 46.800781 0.0429688 46.800781 0.101562 M 46.800781 0.101562 L 46.800781 -2.898438 C 46.800781 -2.953125 46.84375 -3 46.902344 -3 M 46.902344 -3 L 52.902344 -3 C 52.957031 -3 53.003906 -2.957031 53.003906 -2.898438 M 53.003906 -2.898438 L 53.003906 0.101562 C 53.003906 0.046875 52.960938 0 52.902344 0 M 52.902344 0 L 63.800781 0 M 63.800781 0 L 66.800781 0 C 66.855469 0 66.902344 0.0429688 66.902344 0.101562 M 66.902344 0.101562 L 66.902344 0.101562 M 66.902344 0.101562 L 66.902344 11.101562 M 66.902344 11.101562 C 66.902344 11.15625 66.859375 11.203125 66.800781 11.203125 M 66.800781 11.203125 L 63.800781 11.203125 C 63.855469 11.203125 63.902344 11.160156 63.902344 11.101562 M 63.902344 11.101562 L 63.902344 17.101562 C 63.902344 17.046875 63.859375 17 63.800781 17 M 63.800781 17 L 66.800781 17 C 66.855469 17 66.902344 17.042969 66.902344 17.101562 M 66.902344 17.101562 L 66.902344 23.101562 M 66.902344 23.101562 C 66.902344 23.15625 66.859375 23.203125 66.800781 23.203125 M 66.800781 23.203125 L 63.800781 23.203125 C 63.855469 23.203125 63.902344 23.160156 63.902344 23.101562 M 63.902344 23.101562 L 63.902344 29.101562 C 63.902344 29.046875 63.859375 29 63.800781 29 M 63.800781 29 L 66.800781 29 C 66.855469 29 66.902344 29.042969 66.902344 29.101562 M 66.902344 29.101562 L 66.902344 35.101562 M 66.902344 35.101562 C 66.902344 35.15625 66.859375 35.203125 66.800781 35.203125 M 66.800781 35.203125 L 63.800781 35.203125 C 63.855469 35.203125 63.902344 35.160156 63.902344 35.101562 M 63.902344 35.101562 L 63.902344 41.101562 C 63.902344 41.046875 63.859375 41 63.800781 41 M 63.800781 41 L 66.800781 41 C 66.855469 41 66.902344 41.042969 66.902344 41.101562 M 66.902344 41.101562 L 66.902344 47.101562 M 66.902344 47.101562 C 66.902344 47.15625 66.859375 47.203125 66.800781 47.203125 M 66.800781 47.203125 L 63.800781 47.203125 C 63.855469 47.203125 63.902344 47.160156 63.902344 47.101562 M 63.902344 47.101562 L 63.902344 53.101562 C 63.902344 53.046875 63.859375 53 63.800781 53 M 63.800781 53 L 66.800781 53 C 66.855469 53 66.902344 53.042969 66.902344 53.101562 M 66.902344 53.101562 L 66.902344 59.101562 M 66.902344 59.101562 C 66.902344 59.15625 66.859375 59.203125 66.800781 59.203125 M 66.800781 59.203125 L 63.800781 59.203125 C 63.855469 59.203125 63.902344 59.160156 63.902344 59.101562 M 63.902344 59.101562 L 63.902344 65.101562 C 63.902344 65.046875 63.859375 65 63.800781 65 M 63.800781 65 L 66.800781 65 C 66.855469 65 66.902344 65.042969 66.902344 65.101562 M 66.902344 65.101562 L 66.902344 71.101562 M 66.902344 71.101562 C 66.902344 71.15625 66.859375 71.203125 66.800781 71.203125 M 66.800781 71.203125 L 63.800781 71.203125 C 63.855469 71.203125 63.902344 71.160156 63.902344 71.101562 M 63.902344 71.101562 L 63.902344 77.101562 C 63.902344 77.046875 63.859375 77 63.800781 77 M 63.800781 77 L 66.800781 77 C 66.855469 77 66.902344 77.042969 66.902344 77.101562 M 66.902344 77.101562 L 66.902344 88.101562 M 66.902344 88.101562 C 66.902344 88.15625 66.859375 88.203125 66.800781 88.203125 M 66.800781 88.203125 L 63.800781 88.203125 M 63.800781 88.203125 L 0 88.203125 M 0 88.203125 L -3 88.203125 C -3.054688 88.203125 -3.101562 88.160156 -3.101562 88.101562 M -3.101562 88.101562 L -3.101562 88.101562 M -3.101562 88.101562 L -3.101562 77.101562 M -3.101562 77.101562 C -3.101562 77.046875 -3.058594 77 -3 77 M -3 77 L 0 77 C -0.0546875 77 -0.101562 77.042969 -0.101562 77.101562 M -0.101562 77.101562 L -0.101562 71.101562 C -0.101562 71.15625 -0.0585938 71.203125 0 71.203125 M 0 71.203125 L -3 71.203125 C -3.054688 71.203125 -3.101562 71.160156 -3.101562 71.101562 M -3.101562 71.101562 L -3.101562 65.101562 M -3.101562 65.101562 C -3.101562 65.046875 -3.058594 65 -3 65 M -3 65 L 0 65 C -0.0546875 65 -0.101562 65.042969 -0.101562 65.101562 M -0.101562 65.101562 L -0.101562 59.101562 C -0.101562 59.15625 -0.0585938 59.203125 0 59.203125 M 0 59.203125 L -3 59.203125 C -3.054688 59.203125 -3.101562 59.160156 -3.101562 59.101562 M -3.101562 59.101562 L -3.101562 53.101562 M -3.101562 53.101562 C -3.101562 53.046875 -3.058594 53 -3 53 M -3 53 L 0 53 C -0.0546875 53 -0.101562 53.042969 -0.101562 53.101562 M -0.101562 53.101562 L -0.101562 47.101562 C -0.101562 47.15625 -0.0585938 47.203125 0 47.203125 M 0 47.203125 L -3 47.203125 C -3.054688 47.203125 -3.101562 47.160156 -3.101562 47.101562 M -3.101562 47.101562 L -3.101562 41.101562 M -3.101562 41.101562 C -3.101562 41.046875 -3.058594 41 -3 41 M -3 41 L 0 41 C -0.0546875 41 -0.101562 41.042969 -0.101562 41.101562 M -0.101562 41.101562 L -0.101562 35.101562 C -0.101562 35.15625 -0.0585938 35.203125 0 35.203125 M 0 35.203125 L -3 35.203125 C -3.054688 35.203125 -3.101562 35.160156 -3.101562 35.101562 M -3.101562 35.101562 L -3.101562 29.101562 M -3.101562 29.101562 C -3.101562 29.046875 -3.058594 29 -3 29 M -3 29 L 0 29 C -0.0546875 29 -0.101562 29.042969 -0.101562 29.101562 M -0.101562 29.101562 L -0.101562 23.101562 C -0.101562 23.15625 -0.0585938 23.203125 0 23.203125 M 0 23.203125 L -3 23.203125 C -3.054688 23.203125 -3.101562 23.160156 -3.101562 23.101562 M -3.101562 23.101562 L -3.101562 17.101562 M -3.101562 17.101562 C -3.101562 17.046875 -3.058594 17 -3 17 M -3 17 L 0 17 C -0.0546875 17 -0.101562 17.042969 -0.101562 17.101562 M -0.101562 17.101562 L -0.101562 11.101562 C -0.101562 11.15625 -0.0585938 11.203125 0 11.203125 M 0 11.203125 L -3 11.203125 C -3.054688 11.203125 -3.101562 11.160156 -3.101562 11.101562 M -3.101562 11.101562 L -3.101562 0.101562 M -3.101562 0.101562 C -3.101562 0.046875 -3.058594 0 -3 0 M -3 0 L 0 0 " transform="matrix(1,0.000000000000000245,0.000000000000000245,-1,148.347656,9903.449219)"/>
<path style="fill:none;stroke-width:0.2;stroke-linecap:butt;stroke-linejoin:miter;stroke:rgb(0%,0%,0%);stroke-opacity:1;stroke-miterlimit:10;" d="M 0.00390625 0 L 11.652344 0 M 11.652344 0 C 11.597656 0 11.550781 0.0429688 11.550781 0.101562 M 11.550781 0.101562 L 11.550781 -2.898438 C 11.550781 -2.953125 11.59375 -3 11.652344 -3 M 11.652344 -3 L 17.652344 -3 C 17.707031 -3 17.753906 -2.957031 17.753906 -2.898438 M 17.753906 -2.898438 L 17.753906 0.101562 C 17.753906 0.046875 17.710938 0 17.652344 0 M 17.652344 0 L 23.652344 0 M 23.652344 0 C 23.597656 0 23.550781 0.0429688 23.550781 0.101562 M 23.550781 0.101562 L 23.550781 -2.898438 C 23.550781 -2.953125 23.59375 -3 23.652344 -3 M 23.652344 -3 L 29.652344 -3 C 29.707031 -3 29.753906 -2.957031 29.753906 -2.898438 M 29.753906 -2.898438 L 29.753906 0.101562 C 29.753906 0.046875 29.710938 0 29.652344 0 M 29.652344 0 L 35.652344 0 M 35.652344 0 C 35.597656 0 35.550781 0.0429688 35.550781 0.101562 M 35.550781 0.101562 L 35.550781 -2.898438 C 35.550781 -2.953125 35.59375 -3 35.652344 -3 M 35.652344 -3 L 41.652344 -3 C 41.707031 -3 41.753906 -2.957031 41.753906 -2.898438 M 41.753906 -2.898438 L 41.753906 0.101562 C 41.753906 0.046875 41.710938 0 41.652344 0 M 41.652344 0 L 47.652344 0 M 47.652344 0 C 47.597656 0 47.550781 0.0429688 47.550781 0.101562 M 47.550781 0.101562 L 47.550781 -2.898438 C 47.550781 -2.953125 47.59375 -3 47.652344 -3 M 47.652344 -3 L 53.652344 -3 C 53.707031 -3 53.753906 -2.957031 53.753906 -2.898438 M 53.753906 -2.898438 L 53.753906 0.101562 C 53.753906 0.046875 53.710938 0 53.652344 0 M 53.652344 0 L 65.300781 0 M 65.300781 0 C 65.355469 0 65.402344 0.0429688 65.402344 0.101562 M 65.402344 0.101562 L 65.402344 0.101562 M 65.402344 0.101562 L 65.402344 11.101562 M 65.402344 11.101562 C 65.402344 11.046875 65.359375 11 65.300781 11 M 65.300781 11 L 68.300781 11 C 68.355469 11 68.402344 11.042969 68.402344 11.101562 M 68.402344 11.101562 L 68.402344 17.101562 C 68.402344 17.15625 68.359375 17.203125 68.300781 17.203125 M 68.300781 17.203125 L 65.300781 17.203125 C 65.355469 17.203125 65.402344 17.160156 65.402344 17.101562 M 65.402344 17.101562 L 65.402344 23.101562 M 65.402344 23.101562 C 65.402344 23.046875 65.359375 23 65.300781 23 M 65.300781 23 L 68.300781 23 C 68.355469 23 68.402344 23.042969 68.402344 23.101562 M 68.402344 23.101562 L 68.402344 29.101562 C 68.402344 29.15625 68.359375 29.203125 68.300781 29.203125 M 68.300781 29.203125 L 65.300781 29.203125 C 65.355469 29.203125 65.402344 29.160156 65.402344 29.101562 M 65.402344 29.101562 L 65.402344 35.101562 M 65.402344 35.101562 C 65.402344 35.046875 65.359375 35 65.300781 35 M 65.300781 35 L 68.300781 35 C 68.355469 35 68.402344 35.042969 68.402344 35.101562 M 68.402344 35.101562 L 68.402344 41.101562 C 68.402344 41.15625 68.359375 41.203125 68.300781 41.203125 M 68.300781 41.203125 L 65.300781 41.203125 C 65.355469 41.203125 65.402344 41.160156 65.402344 41.101562 M 65.402344 41.101562 L 65.402344 47.101562 M 65.402344 47.101562 C 65.402344 47.046875 65.359375 47 65.300781 47 M 65.300781 47 L 68.300781 47 C 68.355469 47 68.402344 47.042969 68.402344 47.101562 M 68.402344 47.101562 L 68.402344 53.101562 C 68.402344 53.15625 68.359375 53.203125 68.300781 53.203125 M 68.300781 53.203125 L 65.300781 53.203125 C 65.355469 53.203125 65.402344 53.160156 65.402344 53.101562 M 65.402344 53.101562 L 65.402344 59.101562 M 65.402344 59.101562 C 65.402344 59.046875 65.359375 59 65.300781 59 M 65.300781 59 L 68.300781 59 C 68.355469 59 68.402344 59.042969 68.402344 59.101562 M 68.402344 59.101562 L 68.402344 65.101562 C 68.402344 65.15625 68.359375 65.203125 68.300781 65.203125 M 68.300781 65.203125 L 65.300781 65.203125 C 65.355469 65.203125 65.402344 65.160156 65.402344 65.101562 M 65.402344 65.101562 L 65.402344 71.101562 M 65.402344 71.101562 C 65.402344 71.046875 65.359375 71 65.300781 71 M 65.300781 71 L 68.300781 71 C 68.355469 71 68.402344 71.042969 68.402344 71.101562 M 68.402344 71.101562 L 68.402344 77.101562 C 68.402344 77.15625 68.359375 77.203125 68.300781 77.203125 M 68.300781 77.203125 L 65.300781 77.203125 C 65.355469 77.203125 65.402344 77.160156 65.402344 77.101562 M 65.402344 77.101562 L 65.402344 88.101562 M 65.402344 88.101562 C 65.402344 88.15625 65.359375 88.203125 65.300781 88.203125 M 65.300781 88.203125 L 65.300781 88.203125 M 65.300781 88.203125 L 0 88.203125 M 0 88.203125 C -0.0546875 88.203125 -0.101562 88.160156 -0.101562 88.101562 M -0.101562 88.101562 L -0.101562 88.101562 M -0.101562 88.101562 L -0.101562 77.101562 M -0.101562 77.101562 C -0.101562 77.15625 -0.0585938 77.203125 0 77.203125 M 0 77.203125 L -3 77.203125 C -3.054688 77.203125 -3.101562 77.160156 -3.101562 77.101562 M -3.101562 77.101562 L -3.101562 71.101562 C -3.101562 71.046875 -3.058594 71 -3 71 M -3 71 L 0 71 C -0.0546875 71 -0.101562 71.042969 -0.101562 71.101562 M -0.101562 71.101562 L -0.101562 65.101562 M -0.101562 65.101562 C -0.101562 65.15625 -0.0585938 65.203125 0 65.203125 M 0 65.203125 L -3 65.203125 C -3.054688 65.203125 -3.101562 65.160156 -3.101562 65.101562 M -3.101562 65.101562 L -3.101562 59.101562 C -3.101562 59.046875 -3.058594 59 -3 59 M -3 59 L 0 59 C -0.0546875 59 -0.101562 59.042969 -0.101562 59.101562 M -0.101562 59.101562 L -0.101562 53.101562 M -0.101562 53.101562 C -0.101562 53.15625 -0.0585938 53.203125 0 53.203125 M 0 53.203125 L -3 53.203125 C -3.054688 53.203125 -3.101562 53.160156 -3.101562 53.101562 M -3.101562 53.101562 L -3.101562 47.101562 C -3.101562 47.046875 -3.058594 47 -3 47 M -3 47 L 0 47 C -0.0546875 47 -0.101562 47.042969 -0.101562 47.101562 M -0.101562 47.101562 L -0.101562 41.101562 M -0.101562 41.101562 C -0.101562 41.15625 -0.0585938 41.203125 0 41.203125 M 0 41.203125 L -3 41.203125 C -3.054688 41.203125 -3.101562 41.160156 -3.101562 41.101562 M -3.101562 41.101562 L -3.101562 35.101562 C -3.101562 35.046875 -3.058594 35 -3 35 M -3 35 L 0 35 C -0.0546875 35 -0.101562 35.042969 -0.101562 35.101562 M -0.101562 35.101562 L -0.101562 29.101562 M -0.101562 29.101562 C -0.101562 29.15625 -0.0585938 29.203125 0 29.203125 M 0 29.203125 L -3 29.203125 C -3.054688 29.203125 -3.101562 29.160156 -3.101562 29.101562 M -3.101562 29.101562 L -3.101562 23.101562 C -3.101562 23.046875 -3.058594 23 -3 23 M -3 23 L 0 23 C -0.0546875 23 -0.101562 23.042969 -0.101562 23.101562 M -0.101562 23.101562 L -0.101562 17.101562 M -0.101562 17.101562 C -0.101562 17.15625 -0.0585938 17.203125 0 17.203125 M 0 17.203125 L -3 17.203125 C -3.054688 17.203125 -3.101562 17.160156 -3.101562 17.101562 M -3.101562 17.101562 L -3.101562 11.101562 C -3.101562 11.046875 -3.058594 11 -3 11 M -3 11 L 0 11 C -0.0546875 11 -0.101562 11.042969 -0.101562 11.101562 M -0.101562 11.101562 L -0.101562 0.101562 M -0.101562 0.101562 C -0.101562 0.046875 -0.0585938 0 0 0 M 0 0 L 0 0 " transform="matrix(1,0.000000000000000245,0.000000000000000245,-1,219.847656,9903.449219)"/>
<path style="fill:none;stroke-width:0.2;stroke-linecap:butt;stroke-linejoin:miter;stroke:rgb(0%,0%,100%);stroke-opacity:1;stroke-miterlimit:10;" d="M 0 0 C -0.0546875 0 -0.101562 0.0429688 -0.101562 0.101562 M -0.101562 0.101562 L -0.101562 -2.898438 C -0.101562 -2.84375 -0.0585938 -2.796875 0 -2.796875 M 0 -2.796875 L -6 -2.796875 C -5.945312 -2.796875 -5.898438 -2.839844 -5.898438 -2.898438 M -5.898438 -2.898438 L -5.898438 0.101562 C -5.898438 0.046875 -5.941406 0 -6 0 M -6 0 L 0 0 " transform="matrix(-1,0.000000000000000122,0.000000000000000122,1,14.75,9810.5)"/>
<path style="fill:none;stroke-width:0.2;stroke-linecap:butt;stroke-linejoin:miter;stroke:rgb(0%,0%,100%);stroke-opacity:1;stroke-miterlimit:10;" d="M 0 0 C -0.0546875 0 -0.101562 0.0429688 -0.101562 0.101562 M -0.101562 0.101562 L -0.101562 -2.898438 C -0.101562 -2.84375 -0.0585938 -2.796875 0 -2.796875 M 0 -2.796875 L -6 -2.796875 C -5.945312 -2.796875 -5.898438 -2.839844 -5.898438 -2.898438 M -5.898438 -2.898438 L -5.898438 0.101562 C -5.898438 0.046875 -5.941406 0 -6 0 M -6 0 L 0 0 " transform="matrix(-1,0.000000000000000122,0.000000000000000122,1,26.75,9810.5)"/>
<path style="fill:none;stroke-width:0.2;stroke-linecap:butt;stroke-linejoin:miter;stroke:rgb(0%,0%,100%);stroke-opacity:1;stroke-miterlimit:10;" d="M 0 0 C -0.0546875 0 -0.101562 0.0429688 -0.101562 0.101562 M -0.101562 0.101562 L -0.101562 -2.898438 C -0.101562 -2.84375 -0.0585938 -2.796875 0 -2.796875 M 0 -2.796875 L -6 -2.796875 C -5.945312 -2.796875 -5.898438 -2.839844 -5.898438 -2.898438 M -5.898438 -2.898438 L -5.898438 0.101562 C -5.898438 0.046875 -5.941406 0 -6 0 M -6 0 L 0 0 " transform="matrix(-1,0.000000000000000122,0.000000000000000122,1,38.75,9810.5)"/>
<path style="fill:none;stroke-width:0.2;stroke-linecap:butt;stroke-linejoin:miter;stroke:rgb(0%,0%,100%);stroke-opacity:1;stroke-miterlimit:10;" d="M 0 0 C -0.0546875 0 -0.101562 0.0429688 -0.101562 0.101562 M -0.101562 0.101562 L -0.101562 -2.898438 C -0.101562 -2.84375 -0.0585938 -2.796875 0 -2.796875 M 0 -2.796875 L -6 -2.796875 C -5.945312 -2.796875 -5.898438 -2.839844 -5.898438 -2.898438 M -5.898438 -2.898438 L -5.898438 0.101562 C -5.898438 0.046875 -5.941406 0 -6 0 M -6 0 L 0 0 " transform="matrix(-1,0.000000000000000122,0.000000000000000122,1,50.75,9810.5)"/>
<path style="fill:none;stroke-width:0.2;stroke-linecap:butt;stroke-linejoin:miter;stroke:rgb(0%,0%,0%);stroke-opacity:1;stroke-miterlimit:10;" d="M -6.25 59.1 L -6.25 1.6 M -6.25 1.6 L -6.25 -4.548438 C -6.25 -4.603125 -6.207031 -4.65 -6.148438 -4.65 M -6.148438 -4.65 L 0 -4.65 M 0 -0.0015625 " transform="matrix(0.000000000000000061,-1,-1,-0.000000000000000061,66.1,9807.5)"/>
<path style="fill:none;stroke-width:0.2;stroke-linecap:butt;stroke-linejoin:miter;stroke:rgb(0%,0%,100%);stroke-opacity:1;stroke-miterlimit:10;" d="M 0 0 C -0.0546875 0 -0.101562 0.0429688 -0.101562 0.101562 M -0.101562 0.101562 L -0.101562 -2.898438 C -0.101562 -2.84375 -0.0585938 -2.796875 0 -2.796875 M 0 -2.796875 L -6 -2.796875 C -5.945312 -2.796875 -5.898438 -2.839844 -5.898438 -2.898438 M -5.898438 -2.898438 L -5.898438 0.101562 C -5.898438 0.046875 -5.941406 0 -6 0 M -6 0 L 0 0 " transform="matrix(0.000000000000000061,1,1,-0.000000000000000061,67.5,9799)"/>
<path style="fill:none;stroke-width:0.2;stroke-linecap:butt;stroke-linejoin:miter;stroke:rgb(0%,0%,100%);stroke-opacity:1;stroke-miterlimit:10;" d="M 0 0 C -0.0546875 0 -0.101562 0.0429688 -0.101562 0.101562 M -0.101562 0.101562 L -0.101562 -2.898438 C -0.101562 -2.84375 -0.0585938 -2.796875 0 -2.796875 M 0 -2.796875 L -6 -2.796875 C -5.945312 -2.796875 -5.898438 -2.839844 -5.898438 -2.898438 M -5.898438 -2.898438 L -5.898438 0.101562 C -5.898438 0.046875 -5.941406 0 -6 0 M -6 0 L 0 0 " transform="matrix(0.000000000000000061,1,1,-0.000000000000000061,67.5,9787)"/>
<path style="fill:none;stroke-width:0.2;stroke-linecap:butt;stroke-linejoin:miter;stroke:rgb(0%,0%,100%);stroke-opacity:1;stroke-miterlimit:10;" d="M 0 0 C -0.0546875 0 -0.101562 0.0429688 -0.101562 0.101562 M -0.101562 0.101562 L -0.101562 -2.898438 C -0.101562 -2.84375 -0.0585938 -2.796875 0 -2.796875 M 0 -2.796875 L -6 -2.796875 C -5.945312 -2.796875 -5.898438 -2.839844 -5.898438 -2.898438 M -5.898438 -2.898438 L -5.898438 0.101562 C -5.898438 0.046875 -5.941406 0 -6 0 M -6 0 L 0 0 " transform="matrix(0.000000000000000061,1,1,-0.000000000000000061,67.5,9775)"/>
<path style="fill:none;stroke-width:0.2;stroke-linecap:butt;stroke-linejoin:miter;stroke:rgb(0%,0%,100%);stroke-opacity:1;stroke-miterlimit:10;" d="M 0 0 C -0.0546875 0 -0.101562 0.0429688 -0.101562 0.101562 M -0.101562 0.101562 L -0.101562 -2.898438 C -0.101562 -2.84375 -0.0585938 -2.796875 0 -2.796875 M 0 -2.796875 L -6 -2.796875 C -5.945312 -2.796875 -5.898438 -2.839844 -5.898438 -2.898438 M -5.898438 -2.898438 L -5.898438 0.101562 C -5.898438 0.046875 -5.941406 0 -6 0 M -6 0 L 0 0 " transform="matrix(0.000000000000000061,1,1,-0.000000000000000061,67.5,9763)"/>
<path style="fill:none;stroke-width:0.2;stroke-linecap:butt;stroke-linejoin:miter;stroke:rgb(0%,0%,0%);stroke-opacity:1;stroke-miterlimit:10;" d="M -6.25 60.6 L -6.25 1.6 M -6.25 1.6 L -6.25 -4.548437 C -6.25 -4.603125 -6.207031 -4.65 -6.148438 -4.65 M -6.148438 -4.65 L 0 -4.65 M 0 -0.0015625 " transform="matrix(-1,-0.000000000000000122,-0.000000000000000122,1,64.5,9746.9)"/>
<path style="fill:none;stroke-width:0.2;stroke-linecap:butt;stroke-linejoin:miter;stroke:rgb(0%,0%,100%);stroke-opacity:1;stroke-miterlimit:10;" d="M 0 0 C -0.0546875 0 -0.101562 0.0429688 -0.101562 0.101562 M -0.101562 0.101562 L -0.101562 -2.898438 C -0.101562 -2.84375 -0.0585938 -2.796875 0 -2.796875 M 0 -2.796875 L -6 -2.796875 C -5.945312 -2.796875 -5.898438 -2.839844 -5.898438 -2.898438 M -5.898438 -2.898438 L -5.898438 0.101562 C -5.898438 0.046875 -5.941406 0 -6 0 M -6 0 L 0 0 " transform="matrix(1,-0,-0,-1,56.75,9745.5)"/>
<path style="fill:none;stroke-width:0.2;stroke-linecap:butt;stroke-linejoin:miter;stroke:rgb(0%,0%,100%);stroke-opacity:1;stroke-miterlimit:10;" d="M 0 0 C -0.0546875 0 -0.101562 0.0429688 -0.101562 0.101562 M -0.101562 0.101562 L -0.101562 -2.898438 C -0.101562 -2.84375 -0.0585938 -2.796875 0 -2.796875 M 0 -2.796875 L -6 -2.796875 C -5.945312 -2.796875 -5.898438 -2.839844 -5.898438 -2.898438 M -5.898438 -2.898438 L -5.898438 0.101562 C -5.898438 0.046875 -5.941406 0 -6 0 M -6 0 L 0 0 " transform="matrix(1,-0,-0,-1,44.75,9745.5)"/>
<path style="fill:none;stroke-width:0.2;stroke-linecap:butt;stroke-linejoin:miter;stroke:rgb(0%,0%,100%);stroke-opacity:1;stroke-miterlimit:10;" d="M 0 0 C -0.0546875 0 -0.101562 0.0429688 -0.101562 0.101562 M -0.101562 0.101562 L -0.101562 -2.898438 C -0.101562 -2.84375 -0.0585938 -2.796875 0 -2.796875 M 0 -2.796875 L -6 -2.796875 C -5.945312 -2.796875 -5.898438 -2.839844 -5.898438 -2.898438 M -5.898438 -2.898438 L -5.898438 0.101562 C -5.898438 0.046875 -5.941406 0 -6 0 M -6 0 L 0 0 " transform="matrix(1,-0,-0,-1,32.75,9745.5)"/>
<path style="fill:none;stroke-width:0.2;stroke-linecap:butt;stroke-linejoin:miter;stroke:rgb(0%,0%,100%);stroke-opacity:1;stroke-miterlimit:10;" d="M 0 0 C -0.0546875 0 -0.101562 0.0429688 -0.101562 0.101562 M -0.101562 0.101562 L -0.101562 -2.898438 C -0.101562 -2.84375 -0.0585938 -2.796875 0 -2.796875 M 0 -2.796875 L -6 -2.796875 C -5.945312 -2.796875 -5.898438 -2.839844 -5.898438 -2.898438 M -5.898438 -2.898438 L -5.898438 0.101562 C -5.898438 0.046875 -5.941406 0 -6 0 M -6 0 L 0 0 " transform="matrix(1,-0,-0,-1,20.75,9745.5)"/>
<path style="fill:none;stroke-width:0.2;stroke-linecap:butt;stroke-linejoin:miter;stroke:rgb(0%,0%,0%);stroke-opacity:1;stroke-miterlimit:10;" d="M -6.25 59.1 L -6.25 1.6 M -6.25 1.6 L -6.25 -4.548438 C -6.25 -4.603125 -6.207031 -4.65 -6.148438 -4.65 M -6.148438 -4.65 L 0 -4.65 M 0 -0.0015625 " transform="matrix(-0.000000000000000184,1,1,0.000000000000000184,5.4,9748.5)"/>
<path style="fill:none;stroke-width:0.2;stroke-linecap:butt;stroke-linejoin:miter;stroke:rgb(0%,0%,100%);stroke-opacity:1;stroke-miterlimit:10;" d="M 0 0 C -0.0546875 0 -0.101562 0.0429688 -0.101562 0.101563 M -0.101562 0.101563 L -0.101562 -2.898438 C -0.101562 -2.84375 -0.0585938 -2.796875 0 -2.796875 M 0 -2.796875 L -6 -2.796875 C -5.945312 -2.796875 -5.898438 -2.839844 -5.898438 -2.898438 M -5.898438 -2.898438 L -5.898438 0.101562 C -5.898438 0.046875 -5.941406 0 -6 0 M -6 0 L 0 0 " transform="matrix(0.000000000000000061,-1,-1,-0.000000000000000061,4,9757)"/>
<path style="fill:none;stroke-width:0.2;stroke-linecap:butt;stroke-linejoin:miter;stroke:rgb(0%,0%,100%);stroke-opacity:1;stroke-miterlimit:10;" d="M 0 0 C -0.0546875 0 -0.101562 0.0429687 -0.101562 0.101562 M -0.101562 0.101562 L -0.101562 -2.898438 C -0.101562 -2.84375 -0.0585938 -2.796875 0 -2.796875 M 0 -2.796875 L -6 -2.796875 C -5.945312 -2.796875 -5.898438 -2.839844 -5.898438 -2.898438 M -5.898438 -2.898438 L -5.898438 0.101562 C -5.898438 0.046875 -5.941406 -0.000000000000000888 -6 -0.000000000000000888 M -6 -0.000000000000000888 L 0 0 " transform="matrix(0.000000000000000061,-1,-1,-0.000000000000000061,4,9769)"/>
<path style="fill:none;stroke-width:0.2;stroke-linecap:butt;stroke-linejoin:miter;stroke:rgb(0%,0%,100%);stroke-opacity:1;stroke-miterlimit:10;" d="M 0 0 C -0.0546875 0 -0.101562 0.0429687 -0.101562 0.101562 M -0.101562 0.101562 L -0.101562 -2.898438 C -0.101562 -2.84375 -0.0585938 -2.796875 0 -2.796875 M 0 -2.796875 L -6 -2.796875 C -5.945312 -2.796875 -5.898438 -2.839844 -5.898438 -2.898438 M -5.898438 -2.898438 L -5.898438 0.101562 C -5.898438 0.046875 -5.941406 -0.000000000000000888 -6 -0.000000000000000888 M -6 -0.000000000000000888 L 0 0 " transform="matrix(0.000000000000000061,-1,-1,-0.000000000000000061,4,9781)"/>
<path style="fill:none;stroke-width:0.2;stroke-linecap:butt;stroke-linejoin:miter;stroke:rgb(0%,0%,100%);stroke-opacity:1;stroke-miterlimit:10;" d="M 0 0 C -0.0546875 0 -0.101562 0.0429688 -0.101562 0.101562 M -0.101562 0.101562 L -0.101562 -2.898438 C -0.101562 -2.84375 -0.0585938 -2.796875 0 -2.796875 M 0 -2.796875 L -6 -2.796875 C -5.945312 -2.796875 -5.898438 -2.839844 -5.898438 -2.898438 M -5.898438 -2.898438 L -5.898438 0.101562 C -5.898438 0.046875 -5.941406 -0.000000000000000888 -6 -0.000000000000000888 M -6 -0.000000000000000888 L 0 0 " transform="matrix(0.000000000000000061,-1,-1,-0.000000000000000061,4,9793)"/>
<path style="fill:none;stroke-width:0.2;stroke-linecap:butt;stroke-linejoin:miter;stroke:rgb(0%,0%,0%);stroke-opacity:1;stroke-miterlimit:10;" d="M -6.25 65.25 L -6.25 6.25 M -6.25 6.25 L -6.25 0.101562 C -6.25 0.046875 -6.207031 0 -6.148438 0 M -6.148438 0 L 0 0 " transform="matrix(1,0.000000000000000245,0.000000000000000245,-1,7,9813.75)"/>
<path style="fill:none;stroke-width:0.2;stroke-linecap:butt;stroke-linejoin:miter;stroke:rgb(0%,0%,0%);stroke-opacity:1;stroke-miterlimit:10;" d="M 0 0 L 10.898438 0 M 10.898438 0 C 10.953125 0 11 0.0429688 11 0.101562 M 11 0.101562 L 11 3.101562 C 11 3.046875 10.957031 3 10.898438 3 M 10.898438 3 L 16.898438 3 C 16.84375 3 16.796875 3.042969 16.796875 3.101562 M 16.796875 3.101562 L 16.796875 0.101562 C 16.796875 0.046875 16.839844 0 16.898438 0 M 16.898438 0 L 22.898438 0 M 22.898438 0 C 22.953125 0 23 0.0429688 23 0.101562 M 23 0.101562 L 23 3.101562 C 23 3.046875 22.957031 3 22.898438 3 M 22.898438 3 L 28.898438 3 C 28.84375 3 28.796875 3.042969 28.796875 3.101562 M 28.796875 3.101562 L 28.796875 0.101562 C 28.796875 0.046875 28.839844 0 28.898438 0 M 28.898438 0 L 34.898438 0 M 34.898438 0 C 34.953125 0 35 0.0429688 35 0.101562 M 35 0.101562 L 35 3.101562 C 35 3.046875 34.957031 3 34.898438 3 M 34.898438 3 L 40.898438 3 C 40.84375 3 40.796875 3.042969 40.796875 3.101562 M 40.796875 3.101562 L 40.796875 0.101562 C 40.796875 0.046875 40.839844 0 40.898438 0 M 40.898438 0 L 46.898438 0 M 46.898438 0 C 46.953125 0 47 0.0429688 47 0.101562 M 47 0.101562 L 47 3.101562 C 47 3.046875 46.957031 3 46.898438 3 M 46.898438 3 L 52.898438 3 C 52.84375 3 52.796875 3.042969 52.796875 3.101562 M 52.796875 3.101562 L 52.796875 0.101562 C 52.796875 0.046875 52.839844 0 52.898438 0 M 52.898438 0 L 63.796875 0 M 63.796875 0 L 66.796875 0 C 66.851563 0 66.898438 0.0429688 66.898438 0.101562 M 66.898438 0.101562 L 66.898438 3.101562 M 66.898438 3.101562 L 66.898437 14.75 M 66.898437 14.75 C 66.898437 14.804688 66.855469 14.851562 66.796875 14.851562 M 66.796875 14.851562 L 63.796875 14.851562 C 63.851562 14.851562 63.898437 14.808594 63.898437 14.75 M 63.898437 14.75 L 63.898437 20.75 C 63.898437 20.695312 63.855469 20.648438 63.796875 20.648438 M 63.796875 20.648438 L 66.796875 20.648438 C 66.851562 20.648438 66.898437 20.691406 66.898437 20.75 M 66.898437 20.75 L 66.898437 26.75 M 66.898437 26.75 C 66.898437 26.804688 66.855469 26.851562 66.796875 26.851562 M 66.796875 26.851562 L 63.796875 26.851562 C 63.851562 26.851562 63.898437 26.808594 63.898437 26.75 M 63.898437 26.75 L 63.898437 32.75 C 63.898437 32.695312 63.855469 32.648438 63.796875 32.648438 M 63.796875 32.648438 L 66.796875 32.648438 C 66.851562 32.648438 66.898437 32.691406 66.898437 32.75 M 66.898437 32.75 L 66.898437 38.75 M 66.898437 38.75 C 66.898437 38.804688 66.855469 38.851562 66.796875 38.851562 M 66.796875 38.851562 L 63.796875 38.851562 C 63.851562 38.851562 63.898437 38.808594 63.898437 38.75 M 63.898437 38.75 L 63.898437 44.75 C 63.898437 44.695312 63.855469 44.648438 63.796875 44.648438 M 63.796875 44.648438 L 66.796875 44.648438 C 66.851562 44.648438 66.898437 44.691406 66.898437 44.75 M 66.898437 44.75 L 66.898437 50.75 M 66.898437 50.75 C 66.898437 50.804688 66.855469 50.851562 66.796875 50.851562 M 66.796875 50.851562 L 63.796875 50.851562 C 63.851562 50.851562 63.898437 50.808594 63.898437 50.75 M 63.898437 50.75 L 63.898437 56.75 C 63.898437 56.695312 63.855469 56.648438 63.796875 56.648438 M 63.796875 56.648438 L 66.796875 56.648438 C 66.851562 56.648438 66.898437 56.691406 66.898437 56.75 M 66.898437 56.75 L 66.898437 68.398438 M 66.898437 68.398438 L 66.898437 71.398438 C 66.898437 71.453125 66.855469 71.5 66.796875 71.5 M 66.796875 71.5 L 63.796875 71.5 M 63.796875 71.5 L 52.898437 71.5 M 52.898437 71.5 C 52.84375 71.5 52.796875 71.457031 52.796875 71.398438 M 52.796875 71.398438 L 52.796875 68.398438 C 52.796875 68.453125 52.839844 68.5 52.898437 68.5 M 52.898437 68.5 L 46.898437 68.5 C 46.953125 68.5 47 68.457031 47 68.398438 M 47 68.398438 L 47 71.398438 C 47 71.453125 46.957031 71.5 46.898437 71.5 M 46.898437 71.5 L 40.898437 71.5 M 40.898437 71.5 C 40.84375 71.5 40.796875 71.457031 40.796875 71.398438 M 40.796875 71.398438 L 40.796875 68.398438 C 40.796875 68.453125 40.839844 68.5 40.898437 68.5 M 40.898437 68.5 L 34.898437 68.5 C 34.953125 68.5 35 68.457031 35 68.398438 M 35 68.398438 L 35 71.398438 C 35 71.453125 34.957031 71.5 34.898437 71.5 M 34.898437 71.5 L 28.898437 71.5 M 28.898437 71.5 C 28.84375 71.5 28.796875 71.457031 28.796875 71.398438 M 28.796875 71.398438 L 28.796875 68.398438 C 28.796875 68.453125 28.839844 68.5 28.898437 68.5 M 28.898437 68.5 L 22.898437 68.5 C 22.953125 68.5 23 68.457031 23 68.398438 M 23 68.398438 L 23 71.398438 C 23 71.453125 22.957031 71.5 22.898437 71.5 M 22.898437 71.5 L 16.898437 71.5 M 16.898437 71.5 C 16.84375 71.5 16.796875 71.457031 16.796875 71.398438 M 16.796875 71.398438 L 16.796875 68.398438 C 16.796875 68.453125 16.839844 68.5 16.898437 68.5 M 16.898437 68.5 L 10.898437 68.5 C 10.953125 68.5 11 68.457031 11 68.398438 M 11 68.398438 L 11 71.398438 C 11 71.453125 10.957031 71.5 10.898437 71.5 M 10.898437 71.5 L -0.000000000000014211 71.5 M -0.000000000000014211 71.5 L -3 71.5 C -3.054688 71.5 -3.101563 71.457031 -3.101563 71.398438 M -3.101563 71.398438 L -3.101563 68.398438 M -3.101563 68.398438 L -3.101563 56.75 M -3.101563 56.75 C -3.101563 56.695312 -3.058594 56.648438 -3 56.648438 M -3 56.648438 L -0.000000000000014211 56.648438 C -0.0546875 56.648438 -0.101563 56.691406 -0.101563 56.75 M -0.101563 56.75 L -0.101563 50.75 C -0.101563 50.804688 -0.0585938 50.851562 -0.000000000000014211 50.851562 M -0.000000000000014211 50.851562 L -3 50.851562 C -3.054688 50.851562 -3.101563 50.808594 -3.101563 50.75 M -3.101563 50.75 L -3.101563 44.75 M -3.101563 44.75 C -3.101563 44.695312 -3.058594 44.648438 -3 44.648438 M -3 44.648438 L -0.000000000000014211 44.648438 C -0.0546875 44.648438 -0.101563 44.691406 -0.101563 44.75 M -0.101563 44.75 L -0.101563 38.75 C -0.101563 38.804688 -0.0585938 38.851562 -0.000000000000014211 38.851562 M -0.000000000000014211 38.851562 L -3 38.851562 C -3.054688 38.851562 -3.101563 38.808594 -3.101563 38.75 M -3.101563 38.75 L -3.101562 32.75 M -3.101562 32.75 C -3.101562 32.695312 -3.058594 32.648438 -3 32.648438 M -3 32.648438 L 0 32.648438 C -0.0546875 32.648438 -0.101562 32.691406 -0.101562 32.75 M -0.101562 32.75 L -0.101562 26.75 C -0.101562 26.804688 -0.0585938 26.851562 0 26.851562 M 0 26.851562 L -3 26.851562 C -3.054688 26.851562 -3.101562 26.808594 -3.101562 26.75 M -3.101562 26.75 L -3.101562 20.75 M -3.101562 20.75 C -3.101562 20.695312 -3.058594 20.648438 -3 20.648438 M -3 20.648438 L 0 20.648438 C -0.0546875 20.648438 -0.101562 20.691406 -0.101562 20.75 M -0.101562 20.75 L -0.101562 14.75 C -0.101562 14.804688 -0.0585938 14.851562 0 14.851562 M 0 14.851562 L -3 14.851562 C -3.054688 14.851562 -3.101562 14.808594 -3.101562 14.75 M -3.101562 14.75 L -3.101562 3.101562 M -3.101562 3.101562 L -3.101562 0.101562 C -3.101562 0.046875 -3.058594 0 -3 0 M -3 0 L 0 0 " transform="matrix(1,0.000000000000000245,0.000000000000000245,-1,75.351563,9813.75)"/>
</g>
</svg>