<?xml version="1.0" encoding="UTF-8" standalone="no"?>
<!-- Created with Inkscape (http://www.inkscape.org/) -->

<svg
   width="110.23817mm"
   height="96.893089mm"
   viewBox="0 0 110.23817 96.893089"
   version="1.1"
   id="svg1"
   xml:space="preserve"
   inkscape:version="1.4 (e7c3feb, 2024-10-09)"
   sodipodi:docname="seashell.svg"
   xmlns:inkscape="http://www.inkscape.org/namespaces/inkscape"
   xmlns:sodipodi="http://sodipodi.sourceforge.net/DTD/sodipodi-0.dtd"
   xmlns="http://www.w3.org/2000/svg"
   xmlns:svg="http://www.w3.org/2000/svg"><sodipodi:namedview
     id="namedview1"
     pagecolor="#ffffff"
     bordercolor="#000000"
     borderopacity="0.25"
     inkscape:showpageshadow="2"
     inkscape:pageopacity="0.0"
     inkscape:pagecheckerboard="0"
     inkscape:deskcolor="#d1d1d1"
     inkscape:document-units="mm"
     inkscape:zoom="0.71535494"
     inkscape:cx="208.98716"
     inkscape:cy="380.92978"
     inkscape:window-width="1870"
     inkscape:window-height="1011"
     inkscape:window-x="0"
     inkscape:window-y="0"
     inkscape:window-maximized="1"
     inkscape:current-layer="layer1" /><defs
     id="defs1" /><g
     inkscape:label="Layer 1"
     inkscape:groupmode="layer"
     id="layer1"
     transform="translate(-49.651148,-47.621807)"><path
       style="fill:#030303;stroke:none"
       d="m 99.483332,129.24819 c -1.93437,0.21391 -2.48637,-1.27733 -2.98432,-2.91041 -1.07697,-3.53207 -2.35037,-7.0219 -3.32546,-10.58334 -4.12982,-15.08389 -6.26902,-31.234537 -5.58606,-46.831248 0.1678,-3.83198 1.07839,-7.81934 2.48986,-11.37708 0.46206,-1.16466 1.94899,-3.2137 0.85112,-4.33581 -3.12951,-3.19861 -9.56581,-1.94454 -12.6118,0.53079 -5.550981,4.51102 -6.890041,11.59629 -6.879171,18.357101 0.0108,6.72756 2.03756,13.25643 4.14514,19.57917 3.116021,9.348067 6.853991,18.574767 11.546941,27.252077 2.2556,4.17064 5.10621,7.99973 7.32667,12.17084 -0.96273,0.40496 -2.09806,1.5992 -3.175,1.52461 -1.30095,-0.0901 -2.53244,-1.71188 -3.43958,-2.50761 -3.02758,-2.65575 -5.71708,-5.62033 -8.47606,-8.542 -7.973621,-8.4438 -16.521271,-19.20588 -20.091391,-30.427087 -1.394149,-4.38194 -1.04301,-8.56582 -1.859639,-12.96458 -8.84922,4.408 -9.12241,16.68978 -5.81777,24.606247 4.70495,11.271 16.782999,19.23943 26.98444,25.09581 3.55813,2.04263 7.39288,4.50614 11.37708,5.59586 -0.8956,2.36287 -3.27525,4.71989 -1.58505,7.3969 1.33179,2.10933 4.63216,2.50559 6.87672,2.89959 5.855468,1.02787 13.733498,0.96431 19.579168,-0.09 2.11516,-0.3815 4.79093,-0.70506 6.17729,-2.55825 1.88092,-2.51428 -0.45184,-5.22664 -1.67937,-7.38363 4.33662,-1.24882 8.57593,-3.90325 12.43541,-6.19035 10.03943,-5.94929 21.53035,-13.69489 26.26786,-24.7659 2.66381,-6.225017 2.44758,-12.565097 -0.53794,-18.520827 -1.20582,-2.40547 -2.62472,-4.80527 -5.09242,-6.08542 -0.91984,3.11196 -0.44071,6.79604 -1.17082,10.05417 -1.16691,5.20737 -3.70784,9.77587 -6.4484,14.287497 -3.03581,4.99769 -6.56458,9.76662 -10.27037,14.2875 -3.94699,4.81515 -8.25422,9.26328 -12.80207,13.50028 -1.51331,1.40987 -4.82007,4.00718 -6.05459,0.51202 -0.42217,-1.19523 1.5552,-3.0372 2.17301,-3.95814 2.43318,-3.62704 4.58818,-7.45124 6.49883,-11.37708 4.53615,-9.32047 8.73687,-19.090337 11.44568,-29.104167 1.19676,-4.42412 2.58336,-9.14277 2.60562,-13.75833 0.0456,-9.450001 -5.14045,-24.706071 -17.4623,-20.543381 -0.90558,0.30593 -2.40476,0.77746 -2.72301,1.80696 -0.36738,1.18841 1.02724,3.09191 1.45011,4.18434 1.09281,2.82313 1.8308,5.97164 2.04296,8.99583 1.07038,15.257291 -0.93231,31.206731 -4.64,46.037498 -1.04025,4.161 -2.01107,8.44072 -3.59229,12.43542 -0.40853,1.03206 -0.99428,3.47669 -2.33287,3.62087 -2.06203,0.22209 -0.29646,-3.12812 0.006,-3.88546 1.81602,-4.55455 2.96853,-9.27549 4.13432,-14.02291 3.01676,-12.285077 4.33235,-25.225897 4.33235,-37.835417 0,-7.524731 -0.80449,-15.454151 -5.94353,-21.420831 -1.04914,-1.21811 -2.4261,-2.23357 -3.84605,-2.97779 -10.705888,-5.611112 -17.757738,6.86672 -19.417478,15.66737 -1.39337,7.388191 -0.68386,14.803631 0.0582,22.225001 1.45614,14.563317 4.58763,28.407487 9.04054,42.333327 M 140.22967,64.425312 c 0,4.56012 0.26997,9.235951 -0.37789,13.758331 -1.81998,12.70427 -7.35959,24.950777 -12.66836,36.512497 -2.32563,5.06489 -5.71219,9.695 -7.85583,14.81667 3.98852,-2.72726 7.1668,-6.73949 10.36264,-10.31875 8.07297,-9.04155 17.19907,-20.366997 19.58713,-32.543747 1.63217,-8.32248 -0.21791,-18.744731 -9.04769,-22.225001 M 90.752592,129.51281 c -1.68707,-4.60802 -5.125,-8.82472 -7.3428,-13.22917 -4.50402,-8.94477 -8.199121,-18.217167 -11.171301,-27.781247 -1.37627,-4.42867 -2.57541,-9.11378 -2.89347,-13.75833 -0.22083,-3.22481 0.69043,-6.946681 -0.0237,-10.054171 -7.61786,2.48377 -10.20354,11.531351 -9.33595,18.785421 1.62616,13.59683 11.20462,26.527827 20.448451,36.247907 2.81185,2.95672 6.38216,8.45132 10.31875,9.78959 z"
       id="path1" /></g></svg>
