<?xml version="1.0" encoding="UTF-8"?>
<svg xmlns="http://www.w3.org/2000/svg" xmlns:xlink="http://www.w3.org/1999/xlink" width="230mm" height="280mm" viewBox="0 9720 230 280" version="1.1"><script xmlns=""/>
<g id="surface664">
<path style="fill:none;stroke-width:0.12;stroke-linecap:butt;stroke-linejoin:miter;stroke:rgb(0%,0%,0%);stroke-opacity:1;stroke-miterlimit:10;" d="M 0 0 L 6.75 0 M 6.75 0 C 6.78125 0 6.808594 0.0273438 6.808594 0.0585938 M 6.808594 0.0585938 L 6.808594 3.058594 C 6.808594 3.027344 6.78125 3 6.75 3 M 6.75 3 L 12.75 3 C 12.71875 3 12.691406 3.027344 12.691406 3.058594 M 12.691406 3.058594 L 12.691406 0.0585938 C 12.691406 0.0273438 12.71875 0 12.75 0 M 12.75 0 L 18.75 0 M 18.75 0 C 18.78125 0 18.808594 0.0273438 18.808594 0.0585938 M 18.808594 0.0585938 L 18.808594 3.058594 C 18.808594 3.027344 18.78125 3 18.75 3 M 18.75 3 L 24.75 3 C 24.71875 3 24.691406 3.027344 24.691406 3.058594 M 24.691406 3.058594 L 24.691406 0.0585938 C 24.691406 0.0273438 24.71875 0 24.75 0 M 24.75 0 L 30.75 0 M 30.75 0 C 30.78125 0 30.808594 0.0273438 30.808594 0.0585938 M 30.808594 0.0585938 L 30.808594 3.058594 C 30.808594 3.027344 30.78125 3 30.75 3 M 30.75 3 L 36.75 3 C 36.71875 3 36.691406 3.027344 36.691406 3.058594 M 36.691406 3.058594 L 36.691406 0.0585938 C 36.691406 0.0273438 36.71875 0 36.75 0 M 36.75 0 L 42.75 0 M 42.75 0 C 42.78125 0 42.808594 0.0273438 42.808594 0.0585938 M 42.808594 0.0585938 L 42.808594 3.058594 C 42.808594 3.027344 42.78125 3 42.75 3 M 42.75 3 L 48.75 3 C 48.71875 3 48.691406 3.027344 48.691406 3.058594 M 48.691406 3.058594 L 48.691406 0.0585938 C 48.691406 0.0273438 48.71875 0 48.75 0 M 48.75 0 L 54.75 0 M 54.75 0 C 54.78125 0 54.808594 0.0273438 54.808594 0.0585938 M 54.808594 0.0585938 L 54.808594 3.058594 C 54.808594 3.027344 54.78125 3 54.75 3 M 54.75 3 L 60.75 3 C 60.71875 3 60.691406 3.027344 60.691406 3.058594 M 60.691406 3.058594 L 60.691406 0.0585938 C 60.691406 0.0273438 60.71875 0 60.75 0 M 60.75 0 L 66.75 0 M 66.75 0 C 66.78125 0 66.808594 0.0273438 66.808594 0.0585938 M 66.808594 0.0585938 L 66.808594 3.058594 C 66.808594 3.027344 66.78125 3 66.75 3 M 66.75 3 L 72.75 3 C 72.71875 3 72.691406 3.027344 72.691406 3.058594 M 72.691406 3.058594 L 72.691406 0.0585938 C 72.691406 0.0273438 72.71875 0 72.75 0 M 72.75 0 L 78.75 0 M 78.75 0 C 78.78125 0 78.808594 0.0273438 78.808594 0.0585938 M 78.808594 0.0585938 L 78.808594 3.058594 C 78.808594 3.027344 78.78125 3 78.75 3 M 78.75 3 L 84.75 3 C 84.71875 3 84.691406 3.027344 84.691406 3.058594 M 84.691406 3.058594 L 84.691406 0.0585938 C 84.691406 0.0273438 84.71875 0 84.75 0 M 84.75 0 L 90.75 0 M 90.75 0 C 90.78125 0 90.808594 0.0273438 90.808594 0.0585938 M 90.808594 0.0585938 L 90.808594 3.058594 C 90.808594 3.027344 90.78125 3 90.75 3 M 90.75 3 L 96.75 3 C 96.71875 3 96.691406 3.027344 96.691406 3.058594 M 96.691406 3.058594 L 96.691406 0.0585938 C 96.691406 0.0273438 96.71875 0 96.75 0 M 96.75 0 L 102.75 0 M 102.75 0 C 102.78125 0 102.808594 0.0273438 102.808594 0.0585938 M 102.808594 0.0585938 L 102.808594 3.058594 C 102.808594 3.027344 102.78125 3 102.75 3 M 102.75 3 L 108.75 3 C 108.71875 3 108.691406 3.027344 108.691406 3.058594 M 108.691406 3.058594 L 108.691406 0.0585938 C 108.691406 0.0273438 108.71875 0 108.75 0 M 108.75 0 L 114.75 0 M 114.75 0 C 114.78125 0 114.808594 0.0273438 114.808594 0.0585938 M 114.808594 0.0585938 L 114.808594 3.058594 C 114.808594 3.027344 114.78125 3 114.75 3 M 114.75 3 L 120.75 3 C 120.71875 3 120.691406 3.027344 120.691406 3.058594 M 120.691406 3.058594 L 120.691406 0.0585938 C 120.691406 0.0273438 120.71875 0 120.75 0 M 120.75 0 L 126.75 0 M 126.75 0 C 126.78125 0 126.808594 0.0273438 126.808594 0.0585938 M 126.808594 0.0585938 L 126.808594 3.058594 C 126.808594 3.027344 126.78125 3 126.75 3 M 126.75 3 L 132.75 3 C 132.71875 3 132.691406 3.027344 132.691406 3.058594 M 132.691406 3.058594 L 132.691406 0.0585938 C 132.691406 0.0273438 132.71875 0 132.75 0 M 132.75 0 L 138.75 0 M 138.75 0 C 138.78125 0 138.808594 0.0273438 138.808594 0.0585938 M 138.808594 0.0585938 L 138.808594 3.058594 C 138.808594 3.027344 138.78125 3 138.75 3 M 138.75 3 L 144.75 3 C 144.71875 3 144.691406 3.027344 144.691406 3.058594 M 144.691406 3.058594 L 144.691406 0.0585938 C 144.691406 0.0273438 144.71875 0 144.75 0 M 144.75 0 L 150.75 0 M 150.75 0 C 150.78125 0 150.808594 0.0273438 150.808594 0.0585938 M 150.808594 0.0585938 L 150.808594 3.058594 C 150.808594 3.027344 150.78125 3 150.75 3 M 150.75 3 L 156.75 3 C 156.71875 3 156.691406 3.027344 156.691406 3.058594 M 156.691406 3.058594 L 156.691406 0.0585938 C 156.691406 0.0273438 156.71875 0 156.75 0 M 156.75 0 L 163.5 0 M 163.5 0 C 163.53125 0 163.558594 0.0273438 163.558594 0.0585938 M 163.558594 0.0585938 L 163.558594 3.058594 M 163.558594 3.058594 L 163.558594 10.558594 M 163.558594 10.558594 C 163.558594 10.527344 163.53125 10.5 163.5 10.5 M 163.5 10.5 L 166.5 10.5 C 166.53125 10.5 166.558594 10.527344 166.558594 10.558594 M 166.558594 10.558594 L 166.558594 16.558594 C 166.558594 16.589844 166.53125 16.617188 166.5 16.617188 M 166.5 16.617188 L 163.5 16.617188 C 163.53125 16.617188 163.558594 16.589844 163.558594 16.558594 M 163.558594 16.558594 L 163.558594 22.558594 M 163.558594 22.558594 C 163.558594 22.527344 163.53125 22.5 163.5 22.5 M 163.5 22.5 L 166.5 22.5 C 166.53125 22.5 166.558594 22.527344 166.558594 22.558594 M 166.558594 22.558594 L 166.558594 28.558594 C 166.558594 28.589844 166.53125 28.617188 166.5 28.617188 M 166.5 28.617188 L 163.5 28.617188 C 163.53125 28.617188 163.558594 28.589844 163.558594 28.558594 M 163.558594 28.558594 L 163.558594 34.558594 M 163.558594 34.558594 C 163.558594 34.527344 163.53125 34.5 163.5 34.5 M 163.5 34.5 L 166.5 34.5 C 166.53125 34.5 166.558594 34.527344 166.558594 34.558594 M 166.558594 34.558594 L 166.558594 40.558594 C 166.558594 40.589844 166.53125 40.617188 166.5 40.617188 M 166.5 40.617188 L 163.5 40.617188 C 163.53125 40.617188 163.558594 40.589844 163.558594 40.558594 M 163.558594 40.558594 L 163.558594 48.058594 M 163.558594 48.058594 C 163.558594 48.089844 163.53125 48.117188 163.5 48.117188 M 163.5 48.117188 L 163.5 48.117188 M 163.5 48.117188 L -0.00000000000001199 48.117188 M -0.00000000000001199 48.117188 C -0.03125 48.117188 -0.0585938 48.089844 -0.0585938 48.058594 M -0.0585938 48.058594 L -0.0585938 48.058594 M -0.0585938 48.058594 L -0.0585938 40.558594 M -0.0585938 40.558594 C -0.0585938 40.589844 -0.03125 40.617188 -0.000000000000010214 40.617188 M -0.000000000000010214 40.617188 L -3 40.617188 C -3.03125 40.617188 -3.058594 40.589844 -3.058594 40.558594 M -3.058594 40.558594 L -3.058594 34.558594 C -3.058594 34.527344 -3.03125 34.5 -3 34.5 M -3 34.5 L -0.000000000000008438 34.5 C -0.03125 34.5 -0.0585938 34.527344 -0.0585938 34.558594 M -0.0585938 34.558594 L -0.0585938 28.558594 M -0.0585938 28.558594 C -0.0585938 28.589844 -0.03125 28.617188 -0.000000000000007105 28.617188 M -0.000000000000007105 28.617188 L -3 28.617188 C -3.03125 28.617188 -3.058594 28.589844 -3.058594 28.558594 M -3.058594 28.558594 L -3.058594 22.558594 C -3.058594 22.527344 -3.03125 22.5 -3 22.5 M -3 22.5 L -0.000000000000005773 22.5 C -0.03125 22.5 -0.0585938 22.527344 -0.0585938 22.558594 M -0.0585938 22.558594 L -0.0585938 16.558594 M -0.0585938 16.558594 C -0.0585938 16.589844 -0.03125 16.617188 -0.000000000000003997 16.617188 M -0.000000000000003997 16.617188 L -3 16.617188 C -3.03125 16.617188 -3.058594 16.589844 -3.058594 16.558594 M -3.058594 16.558594 L -3.058594 10.558594 C -3.058594 10.527344 -3.03125 10.5 -3 10.5 M -3 10.5 L -0.000000000000002665 10.5 C -0.03125 10.5 -0.0585938 10.527344 -0.0585938 10.558594 M -0.0585938 10.558594 L -0.0585938 3.058594 M -0.0585938 3.058594 L -0.0585938 0.0585938 C -0.0585938 0.0273438 -0.03125 0 0 0 M 0 0 L 0 0 " transform="matrix(1,0.000000000000000245,0.000000000000000245,-1,3.808594,9999.191406)"/>
<path style="fill:none;stroke-width:0.12;stroke-linecap:butt;stroke-linejoin:miter;stroke:rgb(0%,0%,0%);stroke-opacity:1;stroke-miterlimit:10;" d="M 0 0 L 6.75 0 M 6.75 0 C 6.78125 0 6.808594 0.0273438 6.808594 0.0585938 M 6.808594 0.0585938 L 6.808594 3.058594 C 6.808594 3.027344 6.78125 3 6.75 3 M 6.75 3 L 12.75 3 C 12.71875 3 12.691406 3.027344 12.691406 3.058594 M 12.691406 3.058594 L 12.691406 0.0585938 C 12.691406 0.0273438 12.71875 0 12.75 0 M 12.75 0 L 18.75 0 M 18.75 0 C 18.78125 0 18.808594 0.0273438 18.808594 0.0585938 M 18.808594 0.0585938 L 18.808594 3.058594 C 18.808594 3.027344 18.78125 3 18.75 3 M 18.75 3 L 24.75 3 C 24.71875 3 24.691406 3.027344 24.691406 3.058594 M 24.691406 3.058594 L 24.691406 0.0585938 C 24.691406 0.0273438 24.71875 0 24.75 0 M 24.75 0 L 30.75 0 M 30.75 0 C 30.78125 0 30.808594 0.0273438 30.808594 0.0585938 M 30.808594 0.0585938 L 30.808594 3.058594 C 30.808594 3.027344 30.78125 3 30.75 3 M 30.75 3 L 36.75 3 C 36.71875 3 36.691406 3.027344 36.691406 3.058594 M 36.691406 3.058594 L 36.691406 0.0585938 C 36.691406 0.0273438 36.71875 0 36.75 0 M 36.75 0 L 43.5 0 M 43.5 0 L 46.5 0 C 46.53125 0 46.558594 0.0273438 46.558594 0.0585938 M 46.558594 0.0585938 L 46.558594 3.058594 M 46.558594 3.058594 L 46.558594 10.558594 M 46.558594 10.558594 C 46.558594 10.589844 46.53125 10.617188 46.5 10.617188 M 46.5 10.617188 L 43.5 10.617188 C 43.53125 10.617188 43.558594 10.589844 43.558594 10.558594 M 43.558594 10.558594 L 43.558594 16.558594 C 43.558594 16.527344 43.53125 16.5 43.5 16.5 M 43.5 16.5 L 46.5 16.5 C 46.53125 16.5 46.558594 16.527344 46.558594 16.558594 M 46.558594 16.558594 L 46.558594 22.558594 M 46.558594 22.558594 C 46.558594 22.589844 46.53125 22.617188 46.5 22.617188 M 46.5 22.617188 L 43.5 22.617188 C 43.53125 22.617188 43.558594 22.589844 43.558594 22.558594 M 43.558594 22.558594 L 43.558594 28.558594 C 43.558594 28.527344 43.53125 28.5 43.5 28.5 M 43.5 28.5 L 46.5 28.5 C 46.53125 28.5 46.558594 28.527344 46.558594 28.558594 M 46.558594 28.558594 L 46.558594 34.558594 M 46.558594 34.558594 C 46.558594 34.589844 46.53125 34.617188 46.5 34.617188 M 46.5 34.617188 L 43.5 34.617188 C 43.53125 34.617188 43.558594 34.589844 43.558594 34.558594 M 43.558594 34.558594 L 43.558594 40.558594 C 43.558594 40.527344 43.53125 40.5 43.5 40.5 M 43.5 40.5 L 46.5 40.5 C 46.53125 40.5 46.558594 40.527344 46.558594 40.558594 M 46.558594 40.558594 L 46.558594 48.058594 M 46.558594 48.058594 C 46.558594 48.089844 46.53125 48.117188 46.5 48.117188 M 46.5 48.117188 L 43.5 48.117188 M 43.5 48.117188 L 0 48.117188 M 0 48.117188 L -3 48.117188 C -3.03125 48.117188 -3.058594 48.089844 -3.058594 48.058594 M -3.058594 48.058594 L -3.058594 48.058594 M -3.058594 48.058594 L -3.058594 40.558594 M -3.058594 40.558594 C -3.058594 40.527344 -3.03125 40.5 -3 40.5 M -3 40.5 L 0 40.5 C -0.03125 40.5 -0.0585938 40.527344 -0.0585938 40.558594 M -0.0585938 40.558594 L -0.0585938 34.558594 C -0.0585938 34.589844 -0.03125 34.617188 0 34.617188 M 0 34.617188 L -3 34.617188 C -3.03125 34.617188 -3.058594 34.589844 -3.058594 34.558594 M -3.058594 34.558594 L -3.058594 28.558594 M -3.058594 28.558594 C -3.058594 28.527344 -3.03125 28.5 -3 28.5 M -3 28.5 L 0 28.5 C -0.03125 28.5 -0.0585938 28.527344 -0.0585938 28.558594 M -0.0585938 28.558594 L -0.0585938 22.558594 C -0.0585938 22.589844 -0.03125 22.617188 0 22.617188 M 0 22.617188 L -3 22.617188 C -3.03125 22.617188 -3.058594 22.589844 -3.058594 22.558594 M -3.058594 22.558594 L -3.058594 16.558594 M -3.058594 16.558594 C -3.058594 16.527344 -3.03125 16.5 -3 16.5 M -3 16.5 L 0 16.5 C -0.03125 16.5 -0.0585938 16.527344 -0.0585938 16.558594 M -0.0585938 16.558594 L -0.0585938 10.558594 C -0.0585938 10.589844 -0.03125 10.617188 0 10.617188 M 0 10.617188 L -3 10.617188 C -3.03125 10.617188 -3.058594 10.589844 -3.058594 10.558594 M -3.058594 10.558594 L -3.058594 3.058594 M -3.058594 3.058594 L -3.058594 0.0585938 C -3.058594 0.0273438 -3.03125 0 -3 0 M -3 0 L 0 0 " transform="matrix(1,0.000000000000000245,0.000000000000000245,-1,174.929688,9999.191406)"/>
<path style="fill:none;stroke-width:0.12;stroke-linecap:butt;stroke-linejoin:miter;stroke:rgb(0%,0%,0%);stroke-opacity:1;stroke-miterlimit:10;" d="M 0 0 L 6.75 0 M 6.75 0 C 6.78125 0 6.808594 0.0273438 6.808594 0.0585938 M 6.808594 0.0585938 L 6.808594 3.058594 C 6.808594 3.027344 6.78125 3 6.75 3 M 6.75 3 L 12.75 3 C 12.71875 3 12.691406 3.027344 12.691406 3.058594 M 12.691406 3.058594 L 12.691406 0.0585938 C 12.691406 0.0273438 12.71875 0 12.75 0 M 12.75 0 L 18.75 0 M 18.75 0 C 18.78125 0 18.808594 0.0273438 18.808594 0.0585938 M 18.808594 0.0585938 L 18.808594 3.058594 C 18.808594 3.027344 18.78125 3 18.75 3 M 18.75 3 L 24.75 3 C 24.71875 3 24.691406 3.027344 24.691406 3.058594 M 24.691406 3.058594 L 24.691406 0.0585938 C 24.691406 0.0273438 24.71875 0 24.75 0 M 24.75 0 L 30.75 0 M 30.75 0 C 30.78125 0 30.808594 0.0273438 30.808594 0.0585938 M 30.808594 0.0585938 L 30.808594 3.058594 C 30.808594 3.027344 30.78125 3 30.75 3 M 30.75 3 L 36.75 3 C 36.71875 3 36.691406 3.027344 36.691406 3.058594 M 36.691406 3.058594 L 36.691406 0.0585938 C 36.691406 0.0273438 36.71875 0 36.75 0 M 36.75 0 L 43.5 0 M 43.5 0 L 46.5 0 C 46.53125 0 46.558594 0.0273438 46.558594 0.0585938 M 46.558594 0.0585938 L 46.558594 3.058594 M 46.558594 3.058594 L 46.558594 10.558594 M 46.558594 10.558594 C 46.558594 10.589844 46.53125 10.617188 46.5 10.617188 M 46.5 10.617188 L 43.5 10.617188 C 43.53125 10.617188 43.558594 10.589844 43.558594 10.558594 M 43.558594 10.558594 L 43.558594 16.558594 C 43.558594 16.527344 43.53125 16.5 43.5 16.5 M 43.5 16.5 L 46.5 16.5 C 46.53125 16.5 46.558594 16.527344 46.558594 16.558594 M 46.558594 16.558594 L 46.558594 22.558594 M 46.558594 22.558594 C 46.558594 22.589844 46.53125 22.617188 46.5 22.617188 M 46.5 22.617188 L 43.5 22.617188 C 43.53125 22.617188 43.558594 22.589844 43.558594 22.558594 M 43.558594 22.558594 L 43.558594 28.558594 C 43.558594 28.527344 43.53125 28.5 43.5 28.5 M 43.5 28.5 L 46.5 28.5 C 46.53125 28.5 46.558594 28.527344 46.558594 28.558594 M 46.558594 28.558594 L 46.558594 34.558594 M 46.558594 34.558594 C 46.558594 34.589844 46.53125 34.617188 46.5 34.617188 M 46.5 34.617188 L 43.5 34.617188 C 43.53125 34.617188 43.558594 34.589844 43.558594 34.558594 M 43.558594 34.558594 L 43.558594 40.558594 C 43.558594 40.527344 43.53125 40.5 43.5 40.5 M 43.5 40.5 L 46.5 40.5 C 46.53125 40.5 46.558594 40.527344 46.558594 40.558594 M 46.558594 40.558594 L 46.558594 48.058594 M 46.558594 48.058594 C 46.558594 48.089844 46.53125 48.117188 46.5 48.117188 M 46.5 48.117188 L 43.5 48.117188 M 43.5 48.117188 L -0.000000000000028422 48.117188 M -0.000000000000028422 48.117188 L -3 48.117188 C -3.03125 48.117188 -3.058594 48.089844 -3.058594 48.058594 M -3.058594 48.058594 L -3.058594 48.058594 M -3.058594 48.058594 L -3.058594 40.558594 M -3.058594 40.558594 C -3.058594 40.527344 -3.03125 40.5 -3 40.5 M -3 40.5 L -0.000000000000028422 40.5 C -0.03125 40.5 -0.0585938 40.527344 -0.0585938 40.558594 M -0.0585938 40.558594 L -0.0585938 34.558594 C -0.0585938 34.589844 -0.03125 34.617188 -0.000000000000028422 34.617188 M -0.000000000000028422 34.617188 L -3 34.617188 C -3.03125 34.617188 -3.058594 34.589844 -3.058594 34.558594 M -3.058594 34.558594 L -3.058594 28.558594 M -3.058594 28.558594 C -3.058594 28.527344 -3.03125 28.5 -3 28.5 M -3 28.5 L -0.000000000000028422 28.5 C -0.03125 28.5 -0.0585938 28.527344 -0.0585938 28.558594 M -0.0585938 28.558594 L -0.0585938 22.558594 C -0.0585938 22.589844 -0.03125 22.617188 0 22.617188 M 0 22.617188 L -3 22.617188 C -3.03125 22.617188 -3.058594 22.589844 -3.058594 22.558594 M -3.058594 22.558594 L -3.058594 16.558594 M -3.058594 16.558594 C -3.058594 16.527344 -3.03125 16.5 -3 16.5 M -3 16.5 L 0 16.5 C -0.03125 16.5 -0.0585938 16.527344 -0.0585938 16.558594 M -0.0585938 16.558594 L -0.0585938 10.558594 C -0.0585938 10.589844 -0.03125 10.617188 0 10.617188 M 0 10.617188 L -3 10.617188 C -3.03125 10.617188 -3.058594 10.589844 -3.058594 10.558594 M -3.058594 10.558594 L -3.058594 3.058594 M -3.058594 3.058594 L -3.058594 0.0585938 C -3.058594 0.0273438 -3.03125 0 -3 0 M -3 0 L 0 0 " transform="matrix(1,0.000000000000000245,0.000000000000000245,-1,174.929688,9949.570312)"/>
<path style="fill:none;stroke-width:0.12;stroke-linecap:butt;stroke-linejoin:miter;stroke:rgb(0%,0%,0%);stroke-opacity:1;stroke-miterlimit:10;" d="M 0 0 L 6.75 0 M 6.75 0 C 6.78125 0 6.808594 0.0273438 6.808594 0.0585938 M 6.808594 0.0585938 L 6.808594 3.058594 C 6.808594 3.027344 6.78125 3 6.75 3 M 6.75 3 L 12.75 3 C 12.71875 3 12.691406 3.027344 12.691406 3.058594 M 12.691406 3.058594 L 12.691406 0.0585938 C 12.691406 0.0273438 12.71875 0 12.75 0 M 12.75 0 L 18.75 0 M 18.75 0 C 18.78125 0 18.808594 0.0273438 18.808594 0.0585938 M 18.808594 0.0585938 L 18.808594 3.058594 C 18.808594 3.027344 18.78125 3 18.75 3 M 18.75 3 L 24.75 3 C 24.71875 3 24.691406 3.027344 24.691406 3.058594 M 24.691406 3.058594 L 24.691406 0.0585938 C 24.691406 0.0273438 24.71875 0 24.75 0 M 24.75 0 L 30.75 0 M 30.75 0 C 30.78125 0 30.808594 0.0273438 30.808594 0.0585938 M 30.808594 0.0585938 L 30.808594 3.058594 C 30.808594 3.027344 30.78125 3 30.75 3 M 30.75 3 L 36.75 3 C 36.71875 3 36.691406 3.027344 36.691406 3.058594 M 36.691406 3.058594 L 36.691406 0.0585938 C 36.691406 0.0273438 36.71875 0 36.75 0 M 36.75 0 L 42.75 0 M 42.75 0 C 42.78125 0 42.808594 0.0273438 42.808594 0.0585938 M 42.808594 0.0585938 L 42.808594 3.058594 C 42.808594 3.027344 42.78125 3 42.75 3 M 42.75 3 L 48.75 3 C 48.71875 3 48.691406 3.027344 48.691406 3.058594 M 48.691406 3.058594 L 48.691406 0.0585938 C 48.691406 0.0273438 48.71875 0 48.75 0 M 48.75 0 L 54.75 0 M 54.75 0 C 54.78125 0 54.808594 0.0273438 54.808594 0.0585938 M 54.808594 0.0585938 L 54.808594 3.058594 C 54.808594 3.027344 54.78125 3 54.75 3 M 54.75 3 L 60.75 3 C 60.71875 3 60.691406 3.027344 60.691406 3.058594 M 60.691406 3.058594 L 60.691406 0.0585938 C 60.691406 0.0273438 60.71875 0 60.75 0 M 60.75 0 L 66.75 0 M 66.75 0 C 66.78125 0 66.808594 0.0273438 66.808594 0.0585938 M 66.808594 0.0585938 L 66.808594 3.058594 C 66.808594 3.027344 66.78125 3 66.75 3 M 66.75 3 L 72.75 3 C 72.71875 3 72.691406 3.027344 72.691406 3.058594 M 72.691406 3.058594 L 72.691406 0.0585938 C 72.691406 0.0273438 72.71875 0 72.75 0 M 72.75 0 L 78.75 0 M 78.75 0 C 78.78125 0 78.808594 0.0273438 78.808594 0.0585938 M 78.808594 0.0585938 L 78.808594 3.058594 C 78.808594 3.027344 78.78125 3 78.75 3 M 78.75 3 L 84.75 3 C 84.71875 3 84.691406 3.027344 84.691406 3.058594 M 84.691406 3.058594 L 84.691406 0.0585938 C 84.691406 0.0273438 84.71875 0 84.75 0 M 84.75 0 L 90.75 0 M 90.75 0 C 90.78125 0 90.808594 0.0273438 90.808594 0.0585938 M 90.808594 0.0585938 L 90.808594 3.058594 C 90.808594 3.027344 90.78125 3 90.75 3 M 90.75 3 L 96.75 3 C 96.71875 3 96.691406 3.027344 96.691406 3.058594 M 96.691406 3.058594 L 96.691406 0.0585938 C 96.691406 0.0273438 96.71875 0 96.75 0 M 96.75 0 L 102.75 0 M 102.75 0 C 102.78125 0 102.808594 0.0273438 102.808594 0.0585938 M 102.808594 0.0585938 L 102.808594 3.058594 C 102.808594 3.027344 102.78125 3 102.75 3 M 102.75 3 L 108.75 3 C 108.71875 3 108.691406 3.027344 108.691406 3.058594 M 108.691406 3.058594 L 108.691406 0.0585938 C 108.691406 0.0273438 108.71875 0 108.75 0 M 108.75 0 L 114.75 0 M 114.75 0 C 114.78125 0 114.808594 0.0273438 114.808594 0.0585938 M 114.808594 0.0585938 L 114.808594 3.058594 C 114.808594 3.027344 114.78125 3 114.75 3 M 114.75 3 L 120.75 3 C 120.71875 3 120.691406 3.027344 120.691406 3.058594 M 120.691406 3.058594 L 120.691406 0.0585938 C 120.691406 0.0273438 120.71875 0 120.75 0 M 120.75 0 L 126.75 0 M 126.75 0 C 126.78125 0 126.808594 0.0273438 126.808594 0.0585938 M 126.808594 0.0585938 L 126.808594 3.058594 C 126.808594 3.027344 126.78125 3 126.75 3 M 126.75 3 L 132.75 3 C 132.71875 3 132.691406 3.027344 132.691406 3.058594 M 132.691406 3.058594 L 132.691406 0.0585938 C 132.691406 0.0273438 132.71875 0 132.75 0 M 132.75 0 L 138.75 0 M 138.75 0 C 138.78125 0 138.808594 0.0273438 138.808594 0.0585938 M 138.808594 0.0585938 L 138.808594 3.058594 C 138.808594 3.027344 138.78125 3 138.75 3 M 138.75 3 L 144.75 3 C 144.71875 3 144.691406 3.027344 144.691406 3.058594 M 144.691406 3.058594 L 144.691406 0.0585938 C 144.691406 0.0273438 144.71875 0 144.75 0 M 144.75 0 L 150.75 0 M 150.75 0 C 150.78125 0 150.808594 0.0273438 150.808594 0.0585938 M 150.808594 0.0585938 L 150.808594 3.058594 C 150.808594 3.027344 150.78125 3 150.75 3 M 150.75 3 L 156.75 3 C 156.71875 3 156.691406 3.027344 156.691406 3.058594 M 156.691406 3.058594 L 156.691406 0.0585938 C 156.691406 0.0273438 156.71875 0 156.75 0 M 156.75 0 L 163.5 0 M 163.5 0 C 163.53125 0 163.558594 0.0273438 163.558594 0.0585938 M 163.558594 0.0585938 L 163.558594 3.058594 M 163.558594 3.058594 L 163.558594 10.558594 M 163.558594 10.558594 C 163.558594 10.527344 163.53125 10.5 163.5 10.5 M 163.5 10.5 L 166.5 10.5 C 166.53125 10.5 166.558594 10.527344 166.558594 10.558594 M 166.558594 10.558594 L 166.558594 16.558594 C 166.558594 16.589844 166.53125 16.617188 166.5 16.617188 M 166.5 16.617188 L 163.5 16.617188 C 163.53125 16.617188 163.558594 16.589844 163.558594 16.558594 M 163.558594 16.558594 L 163.558594 22.558594 M 163.558594 22.558594 C 163.558594 22.527344 163.53125 22.5 163.5 22.5 M 163.5 22.5 L 166.5 22.5 C 166.53125 22.5 166.558594 22.527344 166.558594 22.558594 M 166.558594 22.558594 L 166.558594 28.558594 C 166.558594 28.589844 166.53125 28.617188 166.5 28.617188 M 166.5 28.617188 L 163.5 28.617188 C 163.53125 28.617188 163.558594 28.589844 163.558594 28.558594 M 163.558594 28.558594 L 163.558594 34.558594 M 163.558594 34.558594 C 163.558594 34.527344 163.53125 34.5 163.5 34.5 M 163.5 34.5 L 166.5 34.5 C 166.53125 34.5 166.558594 34.527344 166.558594 34.558594 M 166.558594 34.558594 L 166.558594 40.558594 C 166.558594 40.589844 166.53125 40.617188 166.5 40.617188 M 166.5 40.617188 L 163.5 40.617188 C 163.53125 40.617188 163.558594 40.589844 163.558594 40.558594 M 163.558594 40.558594 L 163.558594 48.058594 M 163.558594 48.058594 C 163.558594 48.089844 163.53125 48.117188 163.5 48.117188 M 163.5 48.117188 L 163.5 48.117188 M 163.5 48.117188 L -0.00000000000001199 48.117188 M -0.00000000000001199 48.117188 C -0.03125 48.117188 -0.0585938 48.089844 -0.0585938 48.058594 M -0.0585938 48.058594 L -0.0585938 48.058594 M -0.0585938 48.058594 L -0.0585938 40.558594 M -0.0585938 40.558594 C -0.0585938 40.589844 -0.03125 40.617188 -0.000000000000010214 40.617188 M -0.000000000000010214 40.617188 L -3 40.617188 C -3.03125 40.617188 -3.058594 40.589844 -3.058594 40.558594 M -3.058594 40.558594 L -3.058594 34.558594 C -3.058594 34.527344 -3.03125 34.5 -3 34.5 M -3 34.5 L -0.000000000000008882 34.5 C -0.03125 34.5 -0.0585938 34.527344 -0.0585938 34.558594 M -0.0585938 34.558594 L -0.0585938 28.558594 M -0.0585938 28.558594 C -0.0585938 28.589844 -0.03125 28.617188 -0.000000000000007105 28.617188 M -0.000000000000007105 28.617188 L -3 28.617188 C -3.03125 28.617188 -3.058594 28.589844 -3.058594 28.558594 M -3.058594 28.558594 L -3.058594 22.558594 C -3.058594 22.527344 -3.03125 22.5 -3 22.5 M -3 22.5 L -0.000000000000005773 22.5 C -0.03125 22.5 -0.0585938 22.527344 -0.0585938 22.558594 M -0.0585938 22.558594 L -0.0585938 16.558594 M -0.0585938 16.558594 C -0.0585938 16.589844 -0.03125 16.617188 -0.000000000000004441 16.617188 M -0.000000000000004441 16.617188 L -3 16.617188 C -3.03125 16.617188 -3.058594 16.589844 -3.058594 16.558594 M -3.058594 16.558594 L -3.058594 10.558594 C -3.058594 10.527344 -3.03125 10.5 -3 10.5 M -3 10.5 L -0.000000000000002665 10.5 C -0.03125 10.5 -0.0585938 10.527344 -0.0585938 10.558594 M -0.0585938 10.558594 L -0.0585938 3.058594 M -0.0585938 3.058594 L -0.0585938 0.0585938 C -0.0585938 0.0273438 -0.03125 0 0 0 M 0 0 L 0 0 " transform="matrix(1,0.000000000000000245,0.000000000000000245,-1,3.808594,9949.570312)"/>
<path style="fill:none;stroke-width:0.12;stroke-linecap:butt;stroke-linejoin:miter;stroke:rgb(0%,0%,0%);stroke-opacity:1;stroke-miterlimit:10;" d="M 0 0 L 6.75 0 M 6.75 0 C 6.71875 0 6.691406 0.0273438 6.691406 0.0585938 M 6.691406 0.0585938 L 6.691406 -2.941406 C 6.691406 -2.972656 6.71875 -3 6.75 -3 M 6.75 -3 L 12.75 -3 C 12.78125 -3 12.808594 -2.972656 12.808594 -2.941406 M 12.808594 -2.941406 L 12.808594 0.0585938 C 12.808594 0.0273438 12.78125 0 12.75 0 M 12.75 0 L 18.75 0 M 18.75 0 C 18.71875 0 18.691406 0.0273438 18.691406 0.0585938 M 18.691406 0.0585938 L 18.691406 -2.941406 C 18.691406 -2.972656 18.71875 -3 18.75 -3 M 18.75 -3 L 24.75 -3 C 24.78125 -3 24.808594 -2.972656 24.808594 -2.941406 M 24.808594 -2.941406 L 24.808594 0.0585938 C 24.808594 0.0273438 24.78125 0 24.75 0 M 24.75 0 L 30.75 0 M 30.75 0 C 30.71875 0 30.691406 0.0273438 30.691406 0.0585938 M 30.691406 0.0585938 L 30.691406 -2.941406 C 30.691406 -2.972656 30.71875 -3 30.75 -3 M 30.75 -3 L 36.75 -3 C 36.78125 -3 36.808594 -2.972656 36.808594 -2.941406 M 36.808594 -2.941406 L 36.808594 0.0585938 C 36.808594 0.0273438 36.78125 0 36.75 0 M 36.75 0 L 43.5 0 M 43.5 0 C 43.53125 0 43.558594 0.0273438 43.558594 0.0585938 M 43.558594 0.0585938 L 43.558594 0.0585938 M 43.558594 0.0585938 L 43.558594 6.808594 M 43.558594 6.808594 C 43.558594 6.777344 43.53125 6.75 43.5 6.75 M 43.5 6.75 L 46.5 6.75 C 46.53125 6.75 46.558594 6.777344 46.558594 6.808594 M 46.558594 6.808594 L 46.558594 12.808594 C 46.558594 12.839844 46.53125 12.867188 46.5 12.867188 M 46.5 12.867188 L 43.5 12.867188 C 43.53125 12.867188 43.558594 12.839844 43.558594 12.808594 M 43.558594 12.808594 L 43.558594 18.808594 M 43.558594 18.808594 C 43.558594 18.777344 43.53125 18.75 43.5 18.75 M 43.5 18.75 L 46.5 18.75 C 46.53125 18.75 46.558594 18.777344 46.558594 18.808594 M 46.558594 18.808594 L 46.558594 24.808594 C 46.558594 24.839844 46.53125 24.867188 46.5 24.867188 M 46.5 24.867188 L 43.5 24.867188 C 43.53125 24.867188 43.558594 24.839844 43.558594 24.808594 M 43.558594 24.808594 L 43.558594 30.808594 M 43.558594 30.808594 C 43.558594 30.777344 43.53125 30.75 43.5 30.75 M 43.5 30.75 L 46.5 30.75 C 46.53125 30.75 46.558594 30.777344 46.558594 30.808594 M 46.558594 30.808594 L 46.558594 36.808594 C 46.558594 36.839844 46.53125 36.867188 46.5 36.867188 M 46.5 36.867188 L 43.5 36.867188 C 43.53125 36.867188 43.558594 36.839844 43.558594 36.808594 M 43.558594 36.808594 L 43.558594 42.808594 M 43.558594 42.808594 C 43.558594 42.777344 43.53125 42.75 43.5 42.75 M 43.5 42.75 L 46.5 42.75 C 46.53125 42.75 46.558594 42.777344 46.558594 42.808594 M 46.558594 42.808594 L 46.558594 48.808594 C 46.558594 48.839844 46.53125 48.867188 46.5 48.867188 M 46.5 48.867188 L 43.5 48.867188 C 43.53125 48.867188 43.558594 48.839844 43.558594 48.808594 M 43.558594 48.808594 L 43.558594 54.808594 M 43.558594 54.808594 C 43.558594 54.777344 43.53125 54.75 43.5 54.75 M 43.5 54.75 L 46.5 54.75 C 46.53125 54.75 46.558594 54.777344 46.558594 54.808594 M 46.558594 54.808594 L 46.558594 60.808594 C 46.558594 60.839844 46.53125 60.867188 46.5 60.867188 M 46.5 60.867188 L 43.5 60.867188 C 43.53125 60.867188 43.558594 60.839844 43.558594 60.808594 M 43.558594 60.808594 L 43.558594 66.808594 M 43.558594 66.808594 C 43.558594 66.777344 43.53125 66.75 43.5 66.75 M 43.5 66.75 L 46.5 66.75 C 46.53125 66.75 46.558594 66.777344 46.558594 66.808594 M 46.558594 66.808594 L 46.558594 72.808594 C 46.558594 72.839844 46.53125 72.867188 46.5 72.867188 M 46.5 72.867188 L 43.5 72.867188 C 43.53125 72.867188 43.558594 72.839844 43.558594 72.808594 M 43.558594 72.808594 L 43.558594 78.808594 M 43.558594 78.808594 C 43.558594 78.777344 43.53125 78.75 43.5 78.75 M 43.5 78.75 L 46.5 78.75 C 46.53125 78.75 46.558594 78.777344 46.558594 78.808594 M 46.558594 78.808594 L 46.558594 84.808594 C 46.558594 84.839844 46.53125 84.867188 46.5 84.867188 M 46.5 84.867188 L 43.5 84.867188 C 43.53125 84.867188 43.558594 84.839844 43.558594 84.808594 M 43.558594 84.808594 L 43.558594 90.808594 M 43.558594 90.808594 C 43.558594 90.777344 43.53125 90.75 43.5 90.75 M 43.5 90.75 L 46.5 90.75 C 46.53125 90.75 46.558594 90.777344 46.558594 90.808594 M 46.558594 90.808594 L 46.558594 96.808594 C 46.558594 96.839844 46.53125 96.867188 46.5 96.867188 M 46.5 96.867188 L 43.5 96.867188 C 43.53125 96.867188 43.558594 96.839844 43.558594 96.808594 M 43.558594 96.808594 L 43.558594 102.808594 M 43.558594 102.808594 C 43.558594 102.777344 43.53125 102.75 43.5 102.75 M 43.5 102.75 L 46.5 102.75 C 46.53125 102.75 46.558594 102.777344 46.558594 102.808594 M 46.558594 102.808594 L 46.558594 108.808594 C 46.558594 108.839844 46.53125 108.867188 46.5 108.867188 M 46.5 108.867188 L 43.5 108.867188 C 43.53125 108.867188 43.558594 108.839844 43.558594 108.808594 M 43.558594 108.808594 L 43.558594 114.808594 M 43.558594 114.808594 C 43.558594 114.777344 43.53125 114.75 43.5 114.75 M 43.5 114.75 L 46.5 114.75 C 46.53125 114.75 46.558594 114.777344 46.558594 114.808594 M 46.558594 114.808594 L 46.558594 120.808594 C 46.558594 120.839844 46.53125 120.867188 46.5 120.867188 M 46.5 120.867188 L 43.5 120.867188 C 43.53125 120.867188 43.558594 120.839844 43.558594 120.808594 M 43.558594 120.808594 L 43.558594 126.808594 M 43.558594 126.808594 C 43.558594 126.777344 43.53125 126.75 43.5 126.75 M 43.5 126.75 L 46.5 126.75 C 46.53125 126.75 46.558594 126.777344 46.558594 126.808594 M 46.558594 126.808594 L 46.558594 132.808594 C 46.558594 132.839844 46.53125 132.867188 46.5 132.867188 M 46.5 132.867188 L 43.5 132.867188 C 43.53125 132.867188 43.558594 132.839844 43.558594 132.808594 M 43.558594 132.808594 L 43.558594 138.808594 M 43.558594 138.808594 C 43.558594 138.777344 43.53125 138.75 43.5 138.75 M 43.5 138.75 L 46.5 138.75 C 46.53125 138.75 46.558594 138.777344 46.558594 138.808594 M 46.558594 138.808594 L 46.558594 144.808594 C 46.558594 144.839844 46.53125 144.867188 46.5 144.867188 M 46.5 144.867188 L 43.5 144.867188 C 43.53125 144.867188 43.558594 144.839844 43.558594 144.808594 M 43.558594 144.808594 L 43.558594 150.808594 M 43.558594 150.808594 C 43.558594 150.777344 43.53125 150.75 43.5 150.75 M 43.5 150.75 L 46.5 150.75 C 46.53125 150.75 46.558594 150.777344 46.558594 150.808594 M 46.558594 150.808594 L 46.558594 156.808594 C 46.558594 156.839844 46.53125 156.867188 46.5 156.867188 M 46.5 156.867188 L 43.5 156.867188 C 43.53125 156.867188 43.558594 156.839844 43.558594 156.808594 M 43.558594 156.808594 L 43.558594 163.558594 M 43.558594 163.558594 C 43.558594 163.589844 43.53125 163.617188 43.5 163.617188 M 43.5 163.617188 L 43.5 163.617188 M 43.5 163.617188 L 36.75 163.617188 M 36.75 163.617188 C 36.78125 163.617188 36.808594 163.589844 36.808594 163.558594 M 36.808594 163.558594 L 36.808594 166.558594 C 36.808594 166.589844 36.78125 166.617188 36.75 166.617188 M 36.75 166.617188 L 30.75 166.617188 C 30.71875 166.617188 30.691406 166.589844 30.691406 166.558594 M 30.691406 166.558594 L 30.691406 163.558594 C 30.691406 163.589844 30.71875 163.617188 30.75 163.617188 M 30.75 163.617188 L 24.75 163.617188 M 24.75 163.617188 C 24.78125 163.617188 24.808594 163.589844 24.808594 163.558594 M 24.808594 163.558594 L 24.808594 166.558594 C 24.808594 166.589844 24.78125 166.617188 24.75 166.617188 M 24.75 166.617188 L 18.75 166.617188 C 18.71875 166.617188 18.691406 166.589844 18.691406 166.558594 M 18.691406 166.558594 L 18.691406 163.558594 C 18.691406 163.589844 18.71875 163.617188 18.75 163.617188 M 18.75 163.617188 L 12.75 163.617188 M 12.75 163.617188 C 12.78125 163.617188 12.808594 163.589844 12.808594 163.558594 M 12.808594 163.558594 L 12.808594 166.558594 C 12.808594 166.589844 12.78125 166.617188 12.75 166.617188 M 12.75 166.617188 L 6.75 166.617188 C 6.71875 166.617188 6.691406 166.589844 6.691406 166.558594 M 6.691406 166.558594 L 6.691406 163.558594 C 6.691406 163.589844 6.71875 163.617188 6.75 163.617188 M 6.75 163.617188 L -0.000000000000039968 163.617188 M -0.000000000000039968 163.617188 C -0.03125 163.617188 -0.0585938 163.589844 -0.0585938 163.558594 M -0.0585938 163.558594 L -0.0585938 163.558594 M -0.0585938 163.558594 L -0.0585938 156.808594 M -0.0585938 156.808594 C -0.0585938 156.839844 -0.03125 156.867188 -0.000000000000038192 156.867188 M -0.000000000000038192 156.867188 L -3 156.867188 C -3.03125 156.867188 -3.058594 156.839844 -3.058594 156.808594 M -3.058594 156.808594 L -3.058594 150.808594 C -3.058594 150.777344 -3.03125 150.75 -3 150.75 M -3 150.75 L -0.000000000000036859 150.75 C -0.03125 150.75 -0.0585938 150.777344 -0.0585938 150.808594 M -0.0585938 150.808594 L -0.0585938 144.808594 M -0.0585938 144.808594 C -0.0585938 144.839844 -0.03125 144.867188 -0.000000000000035083 144.867188 M -0.000000000000035083 144.867188 L -3 144.867188 C -3.03125 144.867188 -3.058594 144.839844 -3.058594 144.808594 M -3.058594 144.808594 L -3.058594 138.808594 C -3.058594 138.777344 -3.03125 138.75 -3 138.75 M -3 138.75 L -0.000000000000033751 138.75 C -0.03125 138.75 -0.0585938 138.777344 -0.0585938 138.808594 M -0.0585938 138.808594 L -0.0585938 132.808594 M -0.0585938 132.808594 C -0.0585938 132.839844 -0.03125 132.867188 -0.000000000000032419 132.867188 M -0.000000000000032419 132.867188 L -3 132.867188 C -3.03125 132.867188 -3.058594 132.839844 -3.058594 132.808594 M -3.058594 132.808594 L -3.058594 126.808594 C -3.058594 126.777344 -3.03125 126.75 -3 126.75 M -3 126.75 L -0.000000000000030642 126.75 C -0.03125 126.75 -0.0585938 126.777344 -0.0585938 126.808594 M -0.0585938 126.808594 L -0.0585938 120.808594 M -0.0585938 120.808594 C -0.0585938 120.839844 -0.03125 120.867188 -0.00000000000002931 120.867188 M -0.00000000000002931 120.867188 L -3 120.867188 C -3.03125 120.867188 -3.058594 120.839844 -3.058594 120.808594 M -3.058594 120.808594 L -3.058594 114.808594 C -3.058594 114.777344 -3.03125 114.75 -3 114.75 M -3 114.75 L -0.000000000000027978 114.75 C -0.03125 114.75 -0.0585938 114.777344 -0.0585938 114.808594 M -0.0585938 114.808594 L -0.0585938 108.808594 M -0.0585938 108.808594 C -0.0585938 108.839844 -0.03125 108.867188 -0.000000000000026645 108.867188 M -0.000000000000026645 108.867188 L -3 108.867188 C -3.03125 108.867188 -3.058594 108.839844 -3.058594 108.808594 M -3.058594 108.808594 L -3.058594 102.808594 C -3.058594 102.777344 -3.03125 102.75 -3 102.75 M -3 102.75 L -0.000000000000024869 102.75 C -0.03125 102.75 -0.0585938 102.777344 -0.0585938 102.808594 M -0.0585938 102.808594 L -0.0585938 96.808594 M -0.0585938 96.808594 C -0.0585938 96.839844 -0.03125 96.867188 -0.000000000000023537 96.867188 M -0.000000000000023537 96.867188 L -3 96.867188 C -3.03125 96.867188 -3.058594 96.839844 -3.058594 96.808594 M -3.058594 96.808594 L -3.058594 90.808594 C -3.058594 90.777344 -3.03125 90.75 -3 90.75 M -3 90.75 L -0.000000000000022204 90.75 C -0.03125 90.75 -0.0585938 90.777344 -0.0585938 90.808594 M -0.0585938 90.808594 L -0.0585938 84.808594 M -0.0585938 84.808594 C -0.0585938 84.839844 -0.03125 84.867188 -0.000000000000020428 84.867188 M -0.000000000000020428 84.867188 L -3 84.867188 C -3.03125 84.867188 -3.058594 84.839844 -3.058594 84.808594 M -3.058594 84.808594 L -3.058594 78.808594 C -3.058594 78.777344 -3.03125 78.75 -3 78.75 M -3 78.75 L -0.000000000000019096 78.75 C -0.03125 78.75 -0.0585938 78.777344 -0.0585938 78.808594 M -0.0585938 78.808594 L -0.0585938 72.808594 M -0.0585938 72.808594 C -0.0585938 72.839844 -0.03125 72.867188 -0.000000000000017764 72.867188 M -0.000000000000017764 72.867188 L -3 72.867188 C -3.03125 72.867188 -3.058594 72.839844 -3.058594 72.808594 M -3.058594 72.808594 L -3.058594 66.808594 C -3.058594 66.777344 -3.03125 66.75 -3 66.75 M -3 66.75 L -0.000000000000015987 66.75 C -0.03125 66.75 -0.0585938 66.777344 -0.0585938 66.808594 M -0.0585938 66.808594 L -0.0585938 60.808594 M -0.0585938 60.808594 C -0.0585938 60.839844 -0.03125 60.867188 -0.000000000000014655 60.867188 M -0.000000000000014655 60.867188 L -3 60.867188 C -3.03125 60.867188 -3.058594 60.839844 -3.058594 60.808594 M -3.058594 60.808594 L -3.058594 54.808594 C -3.058594 54.777344 -3.03125 54.75 -3 54.75 M -3 54.75 L -0.000000000000013323 54.75 C -0.03125 54.75 -0.0585938 54.777344 -0.0585938 54.808594 M -0.0585938 54.808594 L -0.0585938 48.808594 M -0.0585938 48.808594 C -0.0585938 48.839844 -0.03125 48.867188 -0.000000000000011546 48.867188 M -0.000000000000011546 48.867188 L -3 48.867188 C -3.03125 48.867188 -3.058594 48.839844 -3.058594 48.808594 M -3.058594 48.808594 L -3.058594 42.808594 C -3.058594 42.777344 -3.03125 42.75 -3 42.75 M -3 42.75 L -0.000000000000010214 42.75 C -0.03125 42.75 -0.0585938 42.777344 -0.0585938 42.808594 M -0.0585938 42.808594 L -0.0585938 36.808594 M -0.0585938 36.808594 C -0.0585938 36.839844 -0.03125 36.867188 -0.000000000000008882 36.867188 M -0.000000000000008882 36.867188 L -3 36.867188 C -3.03125 36.867188 -3.058594 36.839844 -3.058594 36.808594 M -3.058594 36.808594 L -3.058594 30.808594 C -3.058594 30.777344 -3.03125 30.75 -3 30.75 M -3 30.75 L -0.000000000000007105 30.75 C -0.03125 30.75 -0.0585938 30.777344 -0.0585938 30.808594 M -0.0585938 30.808594 L -0.0585938 24.808594 M -0.0585938 24.808594 C -0.0585938 24.839844 -0.03125 24.867188 -0.000000000000005773 24.867188 M -0.000000000000005773 24.867188 L -3 24.867188 C -3.03125 24.867188 -3.058594 24.839844 -3.058594 24.808594 M -3.058594 24.808594 L -3.058594 18.808594 C -3.058594 18.777344 -3.03125 18.75 -3 18.75 M -3 18.75 L -0.000000000000004441 18.75 C -0.03125 18.75 -0.0585938 18.777344 -0.0585938 18.808594 M -0.0585938 18.808594 L -0.0585938 12.808594 M -0.0585938 12.808594 C -0.0585938 12.839844 -0.03125 12.867188 -0.000000000000003109 12.867188 M -0.000000000000003109 12.867188 L -3 12.867188 C -3.03125 12.867188 -3.058594 12.839844 -3.058594 12.808594 M -3.058594 12.808594 L -3.058594 6.808594 C -3.058594 6.777344 -3.03125 6.75 -3 6.75 M -3 6.75 L -0.000000000000001332 6.75 C -0.03125 6.75 -0.0585938 6.777344 -0.0585938 6.808594 M -0.0585938 6.808594 L -0.0585938 0.0585938 M -0.0585938 0.0585938 C -0.0585938 0.0273438 -0.03125 0 0 0 M 0 0 L 0 0 " transform="matrix(1,0.000000000000000245,0.000000000000000245,-1,3.808594,9896.949219)"/>
</g>
</svg>