<?xml version="1.0" encoding="UTF-8"?>
<svg xmlns="http://www.w3.org/2000/svg" xmlns:xlink="http://www.w3.org/1999/xlink" width="230mm" height="290mm" viewBox="0 9710 230 290" version="1.1"><script xmlns=""/>
<g id="surface20084">
<path style="fill:none;stroke-width:0.12;stroke-linecap:butt;stroke-linejoin:miter;stroke:rgb(0%,0%,0%);stroke-opacity:1;stroke-miterlimit:10;" d="M 0 0 L 7.5 0 M 7.5 0 C 7.53125 0 7.558594 0.0273438 7.558594 0.0585938 M 7.558594 0.0585938 L 7.558594 3.058594 C 7.558594 3.027344 7.53125 3 7.5 3 M 7.5 3 L 13.5 3 C 13.46875 3 13.441406 3.027344 13.441406 3.058594 M 13.441406 3.058594 L 13.441406 0.0585938 C 13.441406 0.0273438 13.46875 0 13.5 0 M 13.5 0 L 19.5 0 M 19.5 0 C 19.53125 0 19.558594 0.0273438 19.558594 0.0585938 M 19.558594 0.0585938 L 19.558594 3.058594 C 19.558594 3.027344 19.53125 3 19.5 3 M 19.5 3 L 25.5 3 C 25.46875 3 25.441406 3.027344 25.441406 3.058594 M 25.441406 3.058594 L 25.441406 0.0585938 C 25.441406 0.0273438 25.46875 0 25.5 0 M 25.5 0 L 31.5 0 M 31.5 0 C 31.53125 0 31.558594 0.0273438 31.558594 0.0585938 M 31.558594 0.0585938 L 31.558594 3.058594 C 31.558594 3.027344 31.53125 3 31.5 3 M 31.5 3 L 37.5 3 C 37.46875 3 37.441406 3.027344 37.441406 3.058594 M 37.441406 3.058594 L 37.441406 0.0585938 C 37.441406 0.0273438 37.46875 0 37.5 0 M 37.5 0 L 43.5 0 M 43.5 0 C 43.53125 0 43.558594 0.0273438 43.558594 0.0585938 M 43.558594 0.0585938 L 43.558594 3.058594 C 43.558594 3.027344 43.53125 3 43.5 3 M 43.5 3 L 49.5 3 C 49.46875 3 49.441406 3.027344 49.441406 3.058594 M 49.441406 3.058594 L 49.441406 0.0585938 C 49.441406 0.0273438 49.46875 0 49.5 0 M 49.5 0 L 55.5 0 M 55.5 0 C 55.53125 0 55.558594 0.0273438 55.558594 0.0585938 M 55.558594 0.0585938 L 55.558594 3.058594 C 55.558594 3.027344 55.53125 3 55.5 3 M 55.5 3 L 61.5 3 C 61.46875 3 61.441406 3.027344 61.441406 3.058594 M 61.441406 3.058594 L 61.441406 0.0585938 C 61.441406 0.0273438 61.46875 0 61.5 0 M 61.5 0 L 67.5 0 M 67.5 0 C 67.53125 0 67.558594 0.0273438 67.558594 0.0585938 M 67.558594 0.0585938 L 67.558594 3.058594 C 67.558594 3.027344 67.53125 3 67.5 3 M 67.5 3 L 73.5 3 C 73.46875 3 73.441406 3.027344 73.441406 3.058594 M 73.441406 3.058594 L 73.441406 0.0585938 C 73.441406 0.0273438 73.46875 0 73.5 0 M 73.5 0 L 79.5 0 M 79.5 0 C 79.53125 0 79.558594 0.0273438 79.558594 0.0585938 M 79.558594 0.0585938 L 79.558594 3.058594 C 79.558594 3.027344 79.53125 3 79.5 3 M 79.5 3 L 85.5 3 C 85.46875 3 85.441406 3.027344 85.441406 3.058594 M 85.441406 3.058594 L 85.441406 0.0585938 C 85.441406 0.0273438 85.46875 0 85.5 0 M 85.5 0 L 91.5 0 M 91.5 0 C 91.53125 0 91.558594 0.0273438 91.558594 0.0585938 M 91.558594 0.0585938 L 91.558594 3.058594 C 91.558594 3.027344 91.53125 3 91.5 3 M 91.5 3 L 97.5 3 C 97.46875 3 97.441406 3.027344 97.441406 3.058594 M 97.441406 3.058594 L 97.441406 0.0585938 C 97.441406 0.0273438 97.46875 0 97.5 0 M 97.5 0 L 103.5 0 M 103.5 0 C 103.53125 0 103.558594 0.0273438 103.558594 0.0585938 M 103.558594 0.0585938 L 103.558594 3.058594 C 103.558594 3.027344 103.53125 3 103.5 3 M 103.5 3 L 109.5 3 C 109.46875 3 109.441406 3.027344 109.441406 3.058594 M 109.441406 3.058594 L 109.441406 0.0585938 C 109.441406 0.0273438 109.46875 0 109.5 0 M 109.5 0 L 115.5 0 M 115.5 0 C 115.53125 0 115.558594 0.0273438 115.558594 0.0585938 M 115.558594 0.0585938 L 115.558594 3.058594 C 115.558594 3.027344 115.53125 3 115.5 3 M 115.5 3 L 121.5 3 C 121.46875 3 121.441406 3.027344 121.441406 3.058594 M 121.441406 3.058594 L 121.441406 0.0585938 C 121.441406 0.0273438 121.46875 0 121.5 0 M 121.5 0 L 127.5 0 M 127.5 0 C 127.53125 0 127.558594 0.0273438 127.558594 0.0585938 M 127.558594 0.0585938 L 127.558594 3.058594 C 127.558594 3.027344 127.53125 3 127.5 3 M 127.5 3 L 133.5 3 C 133.46875 3 133.441406 3.027344 133.441406 3.058594 M 133.441406 3.058594 L 133.441406 0.0585938 C 133.441406 0.0273438 133.46875 0 133.5 0 M 133.5 0 L 139.5 0 M 139.5 0 C 139.53125 0 139.558594 0.0273438 139.558594 0.0585938 M 139.558594 0.0585938 L 139.558594 3.058594 C 139.558594 3.027344 139.53125 3 139.5 3 M 139.5 3 L 145.5 3 C 145.46875 3 145.441406 3.027344 145.441406 3.058594 M 145.441406 3.058594 L 145.441406 0.0585938 C 145.441406 0.0273438 145.46875 0 145.5 0 M 145.5 0 L 151.5 0 M 151.5 0 C 151.53125 0 151.558594 0.0273438 151.558594 0.0585938 M 151.558594 0.0585938 L 151.558594 3.058594 C 151.558594 3.027344 151.53125 3 151.5 3 M 151.5 3 L 157.5 3 C 157.46875 3 157.441406 3.027344 157.441406 3.058594 M 157.441406 3.058594 L 157.441406 0.0585938 C 157.441406 0.0273438 157.46875 0 157.5 0 M 157.5 0 L 165 0 M 165 0 C 165.03125 0 165.058594 0.0273438 165.058594 0.0585938 M 165.058594 0.0585938 L 165.058594 3.058594 M 165.058594 3.058594 L 165.058594 10.558594 M 165.058594 10.558594 C 165.058594 10.527344 165.03125 10.5 165 10.5 M 165 10.5 L 168 10.5 C 168.03125 10.5 168.058594 10.527344 168.058594 10.558594 M 168.058594 10.558594 L 168.058594 16.558594 C 168.058594 16.589844 168.03125 16.617188 168 16.617188 M 168 16.617188 L 165 16.617188 C 165.03125 16.617188 165.058594 16.589844 165.058594 16.558594 M 165.058594 16.558594 L 165.058594 22.558594 M 165.058594 22.558594 C 165.058594 22.527344 165.03125 22.5 165 22.5 M 165 22.5 L 168 22.5 C 168.03125 22.5 168.058594 22.527344 168.058594 22.558594 M 168.058594 22.558594 L 168.058594 28.558594 C 168.058594 28.589844 168.03125 28.617188 168 28.617188 M 168 28.617188 L 165 28.617188 C 165.03125 28.617188 165.058594 28.589844 165.058594 28.558594 M 165.058594 28.558594 L 165.058594 34.558594 M 165.058594 34.558594 C 165.058594 34.527344 165.03125 34.5 165 34.5 M 165 34.5 L 168 34.5 C 168.03125 34.5 168.058594 34.527344 168.058594 34.558594 M 168.058594 34.558594 L 168.058594 40.558594 C 168.058594 40.589844 168.03125 40.617188 168 40.617188 M 168 40.617188 L 165 40.617188 C 165.03125 40.617188 165.058594 40.589844 165.058594 40.558594 M 165.058594 40.558594 L 165.058594 48.058594 M 165.058594 48.058594 C 165.058594 48.089844 165.03125 48.117188 165 48.117188 M 165 48.117188 L 165 48.117188 M 165 48.117188 L -0.00000000000001199 48.117188 M -0.00000000000001199 48.117188 C -0.03125 48.117188 -0.0585938 48.089844 -0.0585938 48.058594 M -0.0585938 48.058594 L -0.0585938 48.058594 M -0.0585938 48.058594 L -0.0585938 40.558594 M -0.0585938 40.558594 C -0.0585938 40.589844 -0.03125 40.617188 -0.000000000000010214 40.617188 M -0.000000000000010214 40.617188 L -3 40.617188 C -3.03125 40.617188 -3.058594 40.589844 -3.058594 40.558594 M -3.058594 40.558594 L -3.058594 34.558594 C -3.058594 34.527344 -3.03125 34.5 -3 34.5 M -3 34.5 L -0.000000000000008438 34.5 C -0.03125 34.5 -0.0585938 34.527344 -0.0585938 34.558594 M -0.0585938 34.558594 L -0.0585938 28.558594 M -0.0585938 28.558594 C -0.0585938 28.589844 -0.03125 28.617188 -0.000000000000007105 28.617188 M -0.000000000000007105 28.617188 L -3 28.617188 C -3.03125 28.617188 -3.058594 28.589844 -3.058594 28.558594 M -3.058594 28.558594 L -3.058594 22.558594 C -3.058594 22.527344 -3.03125 22.5 -3 22.5 M -3 22.5 L -0.000000000000005773 22.5 C -0.03125 22.5 -0.0585938 22.527344 -0.0585938 22.558594 M -0.0585938 22.558594 L -0.0585938 16.558594 M -0.0585938 16.558594 C -0.0585938 16.589844 -0.03125 16.617188 -0.000000000000003997 16.617188 M -0.000000000000003997 16.617188 L -3 16.617188 C -3.03125 16.617188 -3.058594 16.589844 -3.058594 16.558594 M -3.058594 16.558594 L -3.058594 10.558594 C -3.058594 10.527344 -3.03125 10.5 -3 10.5 M -3 10.5 L -0.000000000000002665 10.5 C -0.03125 10.5 -0.0585938 10.527344 -0.0585938 10.558594 M -0.0585938 10.558594 L -0.0585938 3.058594 M -0.0585938 3.058594 L -0.0585938 0.0585938 C -0.0585938 0.0273438 -0.03125 0 0 0 M 0 0 L 0 0 " transform="matrix(1,0.000000000000000245,0.000000000000000245,-1,3.808594,9999.191406)"/>
<path style="fill:none;stroke-width:0.12;stroke-linecap:butt;stroke-linejoin:miter;stroke:rgb(0%,0%,0%);stroke-opacity:1;stroke-miterlimit:10;" d="M 0 0 L 8 0 M 8 0 C 8.03125 0 8.058594 0.0273438 8.058594 0.0585938 M 8.058594 0.0585938 L 8.058594 3.058594 C 8.058594 3.027344 8.03125 3 8 3 M 8 3 L 14 3 C 13.96875 3 13.941406 3.027344 13.941406 3.058594 M 13.941406 3.058594 L 13.941406 0.0585938 C 13.941406 0.0273438 13.96875 0 14 0 M 14 0 L 20 0 M 20 0 C 20.03125 0 20.058594 0.0273438 20.058594 0.0585938 M 20.058594 0.0585938 L 20.058594 3.058594 C 20.058594 3.027344 20.03125 3 20 3 M 20 3 L 26 3 C 25.96875 3 25.941406 3.027344 25.941406 3.058594 M 25.941406 3.058594 L 25.941406 0.0585938 C 25.941406 0.0273438 25.96875 0 26 0 M 26 0 L 32 0 M 32 0 C 32.03125 0 32.058594 0.0273438 32.058594 0.0585938 M 32.058594 0.0585938 L 32.058594 3.058594 C 32.058594 3.027344 32.03125 3 32 3 M 32 3 L 38 3 C 37.96875 3 37.941406 3.027344 37.941406 3.058594 M 37.941406 3.058594 L 37.941406 0.0585938 C 37.941406 0.0273438 37.96875 0 38 0 M 38 0 L 46 0 M 46 0 L 49 0 C 49.03125 0 49.058594 0.0273438 49.058594 0.0585938 M 49.058594 0.0585938 L 49.058594 3.058594 M 49.058594 3.058594 L 49.058594 10.558594 M 49.058594 10.558594 C 49.058594 10.589844 49.03125 10.617188 49 10.617188 M 49 10.617188 L 46 10.617188 C 46.03125 10.617188 46.058594 10.589844 46.058594 10.558594 M 46.058594 10.558594 L 46.058594 16.558594 C 46.058594 16.527344 46.03125 16.5 46 16.5 M 46 16.5 L 49 16.5 C 49.03125 16.5 49.058594 16.527344 49.058594 16.558594 M 49.058594 16.558594 L 49.058594 22.558594 M 49.058594 22.558594 C 49.058594 22.589844 49.03125 22.617188 49 22.617188 M 49 22.617188 L 46 22.617188 C 46.03125 22.617188 46.058594 22.589844 46.058594 22.558594 M 46.058594 22.558594 L 46.058594 28.558594 C 46.058594 28.527344 46.03125 28.5 46 28.5 M 46 28.5 L 49 28.5 C 49.03125 28.5 49.058594 28.527344 49.058594 28.558594 M 49.058594 28.558594 L 49.058594 34.558594 M 49.058594 34.558594 C 49.058594 34.589844 49.03125 34.617188 49 34.617188 M 49 34.617188 L 46 34.617188 C 46.03125 34.617188 46.058594 34.589844 46.058594 34.558594 M 46.058594 34.558594 L 46.058594 40.558594 C 46.058594 40.527344 46.03125 40.5 46 40.5 M 46 40.5 L 49 40.5 C 49.03125 40.5 49.058594 40.527344 49.058594 40.558594 M 49.058594 40.558594 L 49.058594 48.058594 M 49.058594 48.058594 C 49.058594 48.089844 49.03125 48.117188 49 48.117188 M 49 48.117188 L 46 48.117188 M 46 48.117188 L 0 48.117188 M 0 48.117188 L -3 48.117188 C -3.03125 48.117188 -3.058594 48.089844 -3.058594 48.058594 M -3.058594 48.058594 L -3.058594 48.058594 M -3.058594 48.058594 L -3.058594 40.558594 M -3.058594 40.558594 C -3.058594 40.527344 -3.03125 40.5 -3 40.5 M -3 40.5 L 0 40.5 C -0.03125 40.5 -0.0585938 40.527344 -0.0585938 40.558594 M -0.0585938 40.558594 L -0.0585938 34.558594 C -0.0585938 34.589844 -0.03125 34.617188 0 34.617188 M 0 34.617188 L -3 34.617188 C -3.03125 34.617188 -3.058594 34.589844 -3.058594 34.558594 M -3.058594 34.558594 L -3.058594 28.558594 M -3.058594 28.558594 C -3.058594 28.527344 -3.03125 28.5 -3 28.5 M -3 28.5 L 0 28.5 C -0.03125 28.5 -0.0585938 28.527344 -0.0585938 28.558594 M -0.0585938 28.558594 L -0.0585938 22.558594 C -0.0585938 22.589844 -0.03125 22.617188 0 22.617188 M 0 22.617188 L -3 22.617188 C -3.03125 22.617188 -3.058594 22.589844 -3.058594 22.558594 M -3.058594 22.558594 L -3.058594 16.558594 M -3.058594 16.558594 C -3.058594 16.527344 -3.03125 16.5 -3 16.5 M -3 16.5 L 0 16.5 C -0.03125 16.5 -0.0585938 16.527344 -0.0585938 16.558594 M -0.0585938 16.558594 L -0.0585938 10.558594 C -0.0585938 10.589844 -0.03125 10.617188 0 10.617188 M 0 10.617188 L -3 10.617188 C -3.03125 10.617188 -3.058594 10.589844 -3.058594 10.558594 M -3.058594 10.558594 L -3.058594 3.058594 M -3.058594 3.058594 L -3.058594 0.0585938 C -3.058594 0.0273438 -3.03125 0 -3 0 M -3 0 L 0 0 " transform="matrix(1,0.000000000000000245,0.000000000000000245,-1,176.429688,9999.191406)"/>
<path style="fill:none;stroke-width:0.12;stroke-linecap:butt;stroke-linejoin:miter;stroke:rgb(0%,0%,0%);stroke-opacity:1;stroke-miterlimit:10;" d="M 0 0 L 8 0 M 8 0 C 8.03125 0 8.058594 0.0273438 8.058594 0.0585938 M 8.058594 0.0585938 L 8.058594 3.058594 C 8.058594 3.027344 8.03125 3 8 3 M 8 3 L 14 3 C 13.96875 3 13.941406 3.027344 13.941406 3.058594 M 13.941406 3.058594 L 13.941406 0.0585938 C 13.941406 0.0273438 13.96875 0 14 0 M 14 0 L 20 0 M 20 0 C 20.03125 0 20.058594 0.0273438 20.058594 0.0585938 M 20.058594 0.0585938 L 20.058594 3.058594 C 20.058594 3.027344 20.03125 3 20 3 M 20 3 L 26 3 C 25.96875 3 25.941406 3.027344 25.941406 3.058594 M 25.941406 3.058594 L 25.941406 0.0585938 C 25.941406 0.0273438 25.96875 0 26 0 M 26 0 L 32 0 M 32 0 C 32.03125 0 32.058594 0.0273438 32.058594 0.0585938 M 32.058594 0.0585938 L 32.058594 3.058594 C 32.058594 3.027344 32.03125 3 32 3 M 32 3 L 38 3 C 37.96875 3 37.941406 3.027344 37.941406 3.058594 M 37.941406 3.058594 L 37.941406 0.0585938 C 37.941406 0.0273438 37.96875 0 38 0 M 38 0 L 46 0 M 46 0 L 49 0 C 49.03125 0 49.058594 0.0273438 49.058594 0.0585938 M 49.058594 0.0585938 L 49.058594 3.058594 M 49.058594 3.058594 L 49.058594 10.558594 M 49.058594 10.558594 C 49.058594 10.589844 49.03125 10.617188 49 10.617188 M 49 10.617188 L 46 10.617188 C 46.03125 10.617188 46.058594 10.589844 46.058594 10.558594 M 46.058594 10.558594 L 46.058594 16.558594 C 46.058594 16.527344 46.03125 16.5 46 16.5 M 46 16.5 L 49 16.5 C 49.03125 16.5 49.058594 16.527344 49.058594 16.558594 M 49.058594 16.558594 L 49.058594 22.558594 M 49.058594 22.558594 C 49.058594 22.589844 49.03125 22.617188 49 22.617188 M 49 22.617188 L 46 22.617188 C 46.03125 22.617188 46.058594 22.589844 46.058594 22.558594 M 46.058594 22.558594 L 46.058594 28.558594 C 46.058594 28.527344 46.03125 28.5 46 28.5 M 46 28.5 L 49 28.5 C 49.03125 28.5 49.058594 28.527344 49.058594 28.558594 M 49.058594 28.558594 L 49.058594 34.558594 M 49.058594 34.558594 C 49.058594 34.589844 49.03125 34.617188 49 34.617188 M 49 34.617188 L 46 34.617188 C 46.03125 34.617188 46.058594 34.589844 46.058594 34.558594 M 46.058594 34.558594 L 46.058594 40.558594 C 46.058594 40.527344 46.03125 40.5 46 40.5 M 46 40.5 L 49 40.5 C 49.03125 40.5 49.058594 40.527344 49.058594 40.558594 M 49.058594 40.558594 L 49.058594 48.058594 M 49.058594 48.058594 C 49.058594 48.089844 49.03125 48.117188 49 48.117188 M 49 48.117188 L 46 48.117188 M 46 48.117188 L -0.000000000000028422 48.117188 M -0.000000000000028422 48.117188 L -3 48.117188 C -3.03125 48.117188 -3.058594 48.089844 -3.058594 48.058594 M -3.058594 48.058594 L -3.058594 48.058594 M -3.058594 48.058594 L -3.058594 40.558594 M -3.058594 40.558594 C -3.058594 40.527344 -3.03125 40.5 -3 40.5 M -3 40.5 L -0.000000000000028422 40.5 C -0.03125 40.5 -0.0585938 40.527344 -0.0585938 40.558594 M -0.0585938 40.558594 L -0.0585938 34.558594 C -0.0585938 34.589844 -0.03125 34.617188 -0.000000000000028422 34.617188 M -0.000000000000028422 34.617188 L -3 34.617188 C -3.03125 34.617188 -3.058594 34.589844 -3.058594 34.558594 M -3.058594 34.558594 L -3.058594 28.558594 M -3.058594 28.558594 C -3.058594 28.527344 -3.03125 28.5 -3 28.5 M -3 28.5 L -0.000000000000028422 28.5 C -0.03125 28.5 -0.0585938 28.527344 -0.0585938 28.558594 M -0.0585938 28.558594 L -0.0585938 22.558594 C -0.0585938 22.589844 -0.03125 22.617188 0 22.617188 M 0 22.617188 L -3 22.617188 C -3.03125 22.617188 -3.058594 22.589844 -3.058594 22.558594 M -3.058594 22.558594 L -3.058594 16.558594 M -3.058594 16.558594 C -3.058594 16.527344 -3.03125 16.5 -3 16.5 M -3 16.5 L 0 16.5 C -0.03125 16.5 -0.0585938 16.527344 -0.0585938 16.558594 M -0.0585938 16.558594 L -0.0585938 10.558594 C -0.0585938 10.589844 -0.03125 10.617188 0 10.617188 M 0 10.617188 L -3 10.617188 C -3.03125 10.617188 -3.058594 10.589844 -3.058594 10.558594 M -3.058594 10.558594 L -3.058594 3.058594 M -3.058594 3.058594 L -3.058594 0.0585938 C -3.058594 0.0273438 -3.03125 0 -3 0 M -3 0 L 0 0 " transform="matrix(1,0.000000000000000245,0.000000000000000245,-1,176.429688,9949.570312)"/>
<path style="fill:none;stroke-width:0.12;stroke-linecap:butt;stroke-linejoin:miter;stroke:rgb(0%,0%,0%);stroke-opacity:1;stroke-miterlimit:10;" d="M 0 0 L 7.5 0 M 7.5 0 C 7.53125 0 7.558594 0.0273438 7.558594 0.0585938 M 7.558594 0.0585938 L 7.558594 3.058594 C 7.558594 3.027344 7.53125 3 7.5 3 M 7.5 3 L 13.5 3 C 13.46875 3 13.441406 3.027344 13.441406 3.058594 M 13.441406 3.058594 L 13.441406 0.0585938 C 13.441406 0.0273438 13.46875 0 13.5 0 M 13.5 0 L 19.5 0 M 19.5 0 C 19.53125 0 19.558594 0.0273438 19.558594 0.0585938 M 19.558594 0.0585938 L 19.558594 3.058594 C 19.558594 3.027344 19.53125 3 19.5 3 M 19.5 3 L 25.5 3 C 25.46875 3 25.441406 3.027344 25.441406 3.058594 M 25.441406 3.058594 L 25.441406 0.0585938 C 25.441406 0.0273438 25.46875 0 25.5 0 M 25.5 0 L 31.5 0 M 31.5 0 C 31.53125 0 31.558594 0.0273438 31.558594 0.0585938 M 31.558594 0.0585938 L 31.558594 3.058594 C 31.558594 3.027344 31.53125 3 31.5 3 M 31.5 3 L 37.5 3 C 37.46875 3 37.441406 3.027344 37.441406 3.058594 M 37.441406 3.058594 L 37.441406 0.0585938 C 37.441406 0.0273438 37.46875 0 37.5 0 M 37.5 0 L 43.5 0 M 43.5 0 C 43.53125 0 43.558594 0.0273438 43.558594 0.0585938 M 43.558594 0.0585938 L 43.558594 3.058594 C 43.558594 3.027344 43.53125 3 43.5 3 M 43.5 3 L 49.5 3 C 49.46875 3 49.441406 3.027344 49.441406 3.058594 M 49.441406 3.058594 L 49.441406 0.0585938 C 49.441406 0.0273438 49.46875 0 49.5 0 M 49.5 0 L 55.5 0 M 55.5 0 C 55.53125 0 55.558594 0.0273438 55.558594 0.0585938 M 55.558594 0.0585938 L 55.558594 3.058594 C 55.558594 3.027344 55.53125 3 55.5 3 M 55.5 3 L 61.5 3 C 61.46875 3 61.441406 3.027344 61.441406 3.058594 M 61.441406 3.058594 L 61.441406 0.0585938 C 61.441406 0.0273438 61.46875 0 61.5 0 M 61.5 0 L 67.5 0 M 67.5 0 C 67.53125 0 67.558594 0.0273438 67.558594 0.0585938 M 67.558594 0.0585938 L 67.558594 3.058594 C 67.558594 3.027344 67.53125 3 67.5 3 M 67.5 3 L 73.5 3 C 73.46875 3 73.441406 3.027344 73.441406 3.058594 M 73.441406 3.058594 L 73.441406 0.0585938 C 73.441406 0.0273438 73.46875 0 73.5 0 M 73.5 0 L 79.5 0 M 79.5 0 C 79.53125 0 79.558594 0.0273438 79.558594 0.0585938 M 79.558594 0.0585938 L 79.558594 3.058594 C 79.558594 3.027344 79.53125 3 79.5 3 M 79.5 3 L 85.5 3 C 85.46875 3 85.441406 3.027344 85.441406 3.058594 M 85.441406 3.058594 L 85.441406 0.0585938 C 85.441406 0.0273438 85.46875 0 85.5 0 M 85.5 0 L 91.5 0 M 91.5 0 C 91.53125 0 91.558594 0.0273438 91.558594 0.0585938 M 91.558594 0.0585938 L 91.558594 3.058594 C 91.558594 3.027344 91.53125 3 91.5 3 M 91.5 3 L 97.5 3 C 97.46875 3 97.441406 3.027344 97.441406 3.058594 M 97.441406 3.058594 L 97.441406 0.0585938 C 97.441406 0.0273438 97.46875 0 97.5 0 M 97.5 0 L 103.5 0 M 103.5 0 C 103.53125 0 103.558594 0.0273438 103.558594 0.0585938 M 103.558594 0.0585938 L 103.558594 3.058594 C 103.558594 3.027344 103.53125 3 103.5 3 M 103.5 3 L 109.5 3 C 109.46875 3 109.441406 3.027344 109.441406 3.058594 M 109.441406 3.058594 L 109.441406 0.0585938 C 109.441406 0.0273438 109.46875 0 109.5 0 M 109.5 0 L 115.5 0 M 115.5 0 C 115.53125 0 115.558594 0.0273438 115.558594 0.0585938 M 115.558594 0.0585938 L 115.558594 3.058594 C 115.558594 3.027344 115.53125 3 115.5 3 M 115.5 3 L 121.5 3 C 121.46875 3 121.441406 3.027344 121.441406 3.058594 M 121.441406 3.058594 L 121.441406 0.0585938 C 121.441406 0.0273438 121.46875 0 121.5 0 M 121.5 0 L 127.5 0 M 127.5 0 C 127.53125 0 127.558594 0.0273438 127.558594 0.0585938 M 127.558594 0.0585938 L 127.558594 3.058594 C 127.558594 3.027344 127.53125 3 127.5 3 M 127.5 3 L 133.5 3 C 133.46875 3 133.441406 3.027344 133.441406 3.058594 M 133.441406 3.058594 L 133.441406 0.0585938 C 133.441406 0.0273438 133.46875 0 133.5 0 M 133.5 0 L 139.5 0 M 139.5 0 C 139.53125 0 139.558594 0.0273438 139.558594 0.0585938 M 139.558594 0.0585938 L 139.558594 3.058594 C 139.558594 3.027344 139.53125 3 139.5 3 M 139.5 3 L 145.5 3 C 145.46875 3 145.441406 3.027344 145.441406 3.058594 M 145.441406 3.058594 L 145.441406 0.0585938 C 145.441406 0.0273438 145.46875 0 145.5 0 M 145.5 0 L 151.5 0 M 151.5 0 C 151.53125 0 151.558594 0.0273438 151.558594 0.0585938 M 151.558594 0.0585938 L 151.558594 3.058594 C 151.558594 3.027344 151.53125 3 151.5 3 M 151.5 3 L 157.5 3 C 157.46875 3 157.441406 3.027344 157.441406 3.058594 M 157.441406 3.058594 L 157.441406 0.0585938 C 157.441406 0.0273438 157.46875 0 157.5 0 M 157.5 0 L 165 0 M 165 0 C 165.03125 0 165.058594 0.0273438 165.058594 0.0585938 M 165.058594 0.0585938 L 165.058594 3.058594 M 165.058594 3.058594 L 165.058594 10.558594 M 165.058594 10.558594 C 165.058594 10.527344 165.03125 10.5 165 10.5 M 165 10.5 L 168 10.5 C 168.03125 10.5 168.058594 10.527344 168.058594 10.558594 M 168.058594 10.558594 L 168.058594 16.558594 C 168.058594 16.589844 168.03125 16.617188 168 16.617188 M 168 16.617188 L 165 16.617188 C 165.03125 16.617188 165.058594 16.589844 165.058594 16.558594 M 165.058594 16.558594 L 165.058594 22.558594 M 165.058594 22.558594 C 165.058594 22.527344 165.03125 22.5 165 22.5 M 165 22.5 L 168 22.5 C 168.03125 22.5 168.058594 22.527344 168.058594 22.558594 M 168.058594 22.558594 L 168.058594 28.558594 C 168.058594 28.589844 168.03125 28.617188 168 28.617188 M 168 28.617188 L 165 28.617188 C 165.03125 28.617188 165.058594 28.589844 165.058594 28.558594 M 165.058594 28.558594 L 165.058594 34.558594 M 165.058594 34.558594 C 165.058594 34.527344 165.03125 34.5 165 34.5 M 165 34.5 L 168 34.5 C 168.03125 34.5 168.058594 34.527344 168.058594 34.558594 M 168.058594 34.558594 L 168.058594 40.558594 C 168.058594 40.589844 168.03125 40.617188 168 40.617188 M 168 40.617188 L 165 40.617188 C 165.03125 40.617188 165.058594 40.589844 165.058594 40.558594 M 165.058594 40.558594 L 165.058594 48.058594 M 165.058594 48.058594 C 165.058594 48.089844 165.03125 48.117188 165 48.117188 M 165 48.117188 L 165 48.117188 M 165 48.117188 L -0.00000000000001199 48.117188 M -0.00000000000001199 48.117188 C -0.03125 48.117188 -0.0585938 48.089844 -0.0585938 48.058594 M -0.0585938 48.058594 L -0.0585938 48.058594 M -0.0585938 48.058594 L -0.0585938 40.558594 M -0.0585938 40.558594 C -0.0585938 40.589844 -0.03125 40.617188 -0.000000000000010214 40.617188 M -0.000000000000010214 40.617188 L -3 40.617188 C -3.03125 40.617188 -3.058594 40.589844 -3.058594 40.558594 M -3.058594 40.558594 L -3.058594 34.558594 C -3.058594 34.527344 -3.03125 34.5 -3 34.5 M -3 34.5 L -0.000000000000008882 34.5 C -0.03125 34.5 -0.0585938 34.527344 -0.0585938 34.558594 M -0.0585938 34.558594 L -0.0585938 28.558594 M -0.0585938 28.558594 C -0.0585938 28.589844 -0.03125 28.617188 -0.000000000000007105 28.617188 M -0.000000000000007105 28.617188 L -3 28.617188 C -3.03125 28.617188 -3.058594 28.589844 -3.058594 28.558594 M -3.058594 28.558594 L -3.058594 22.558594 C -3.058594 22.527344 -3.03125 22.5 -3 22.5 M -3 22.5 L -0.000000000000005773 22.5 C -0.03125 22.5 -0.0585938 22.527344 -0.0585938 22.558594 M -0.0585938 22.558594 L -0.0585938 16.558594 M -0.0585938 16.558594 C -0.0585938 16.589844 -0.03125 16.617188 -0.000000000000004441 16.617188 M -0.000000000000004441 16.617188 L -3 16.617188 C -3.03125 16.617188 -3.058594 16.589844 -3.058594 16.558594 M -3.058594 16.558594 L -3.058594 10.558594 C -3.058594 10.527344 -3.03125 10.5 -3 10.5 M -3 10.5 L -0.000000000000002665 10.5 C -0.03125 10.5 -0.0585938 10.527344 -0.0585938 10.558594 M -0.0585938 10.558594 L -0.0585938 3.058594 M -0.0585938 3.058594 L -0.0585938 0.0585938 C -0.0585938 0.0273438 -0.03125 0 0 0 M 0 0 L 0 0 " transform="matrix(1,0.000000000000000245,0.000000000000000245,-1,3.808594,9949.570312)"/>
<path style="fill:none;stroke-width:0.12;stroke-linecap:butt;stroke-linejoin:miter;stroke:rgb(0%,0%,0%);stroke-opacity:1;stroke-miterlimit:10;" d="M 0 0 L 8 0 M 8 0 C 7.96875 0 7.941406 0.0273438 7.941406 0.0585938 M 7.941406 0.0585938 L 7.941406 -2.941406 C 7.941406 -2.972656 7.96875 -3 8 -3 M 8 -3 L 14 -3 C 14.03125 -3 14.058594 -2.972656 14.058594 -2.941406 M 14.058594 -2.941406 L 14.058594 0.0585938 C 14.058594 0.0273438 14.03125 0 14 0 M 14 0 L 20 0 M 20 0 C 19.96875 0 19.941406 0.0273438 19.941406 0.0585938 M 19.941406 0.0585938 L 19.941406 -2.941406 C 19.941406 -2.972656 19.96875 -3 20 -3 M 20 -3 L 26 -3 C 26.03125 -3 26.058594 -2.972656 26.058594 -2.941406 M 26.058594 -2.941406 L 26.058594 0.0585938 C 26.058594 0.0273438 26.03125 0 26 0 M 26 0 L 32 0 M 32 0 C 31.96875 0 31.941406 0.0273438 31.941406 0.0585938 M 31.941406 0.0585938 L 31.941406 -2.941406 C 31.941406 -2.972656 31.96875 -3 32 -3 M 32 -3 L 38 -3 C 38.03125 -3 38.058594 -2.972656 38.058594 -2.941406 M 38.058594 -2.941406 L 38.058594 0.0585938 C 38.058594 0.0273438 38.03125 0 38 0 M 38 0 L 46 0 M 46 0 C 46.03125 0 46.058594 0.0273438 46.058594 0.0585938 M 46.058594 0.0585938 L 46.058594 0.0585938 M 46.058594 0.0585938 L 46.058594 7.558594 M 46.058594 7.558594 C 46.058594 7.527344 46.03125 7.5 46 7.5 M 46 7.5 L 49 7.5 C 49.03125 7.5 49.058594 7.527344 49.058594 7.558594 M 49.058594 7.558594 L 49.058594 13.558594 C 49.058594 13.589844 49.03125 13.617188 49 13.617188 M 49 13.617188 L 46 13.617188 C 46.03125 13.617188 46.058594 13.589844 46.058594 13.558594 M 46.058594 13.558594 L 46.058594 19.558594 M 46.058594 19.558594 C 46.058594 19.527344 46.03125 19.5 46 19.5 M 46 19.5 L 49 19.5 C 49.03125 19.5 49.058594 19.527344 49.058594 19.558594 M 49.058594 19.558594 L 49.058594 25.558594 C 49.058594 25.589844 49.03125 25.617188 49 25.617188 M 49 25.617188 L 46 25.617188 C 46.03125 25.617188 46.058594 25.589844 46.058594 25.558594 M 46.058594 25.558594 L 46.058594 31.558594 M 46.058594 31.558594 C 46.058594 31.527344 46.03125 31.5 46 31.5 M 46 31.5 L 49 31.5 C 49.03125 31.5 49.058594 31.527344 49.058594 31.558594 M 49.058594 31.558594 L 49.058594 37.558594 C 49.058594 37.589844 49.03125 37.617188 49 37.617188 M 49 37.617188 L 46 37.617188 C 46.03125 37.617188 46.058594 37.589844 46.058594 37.558594 M 46.058594 37.558594 L 46.058594 43.558594 M 46.058594 43.558594 C 46.058594 43.527344 46.03125 43.5 46 43.5 M 46 43.5 L 49 43.5 C 49.03125 43.5 49.058594 43.527344 49.058594 43.558594 M 49.058594 43.558594 L 49.058594 49.558594 C 49.058594 49.589844 49.03125 49.617188 49 49.617188 M 49 49.617188 L 46 49.617188 C 46.03125 49.617188 46.058594 49.589844 46.058594 49.558594 M 46.058594 49.558594 L 46.058594 55.558594 M 46.058594 55.558594 C 46.058594 55.527344 46.03125 55.5 46 55.5 M 46 55.5 L 49 55.5 C 49.03125 55.5 49.058594 55.527344 49.058594 55.558594 M 49.058594 55.558594 L 49.058594 61.558594 C 49.058594 61.589844 49.03125 61.617188 49 61.617188 M 49 61.617188 L 46 61.617188 C 46.03125 61.617188 46.058594 61.589844 46.058594 61.558594 M 46.058594 61.558594 L 46.058594 67.558594 M 46.058594 67.558594 C 46.058594 67.527344 46.03125 67.5 46 67.5 M 46 67.5 L 49 67.5 C 49.03125 67.5 49.058594 67.527344 49.058594 67.558594 M 49.058594 67.558594 L 49.058594 73.558594 C 49.058594 73.589844 49.03125 73.617188 49 73.617188 M 49 73.617188 L 46 73.617188 C 46.03125 73.617188 46.058594 73.589844 46.058594 73.558594 M 46.058594 73.558594 L 46.058594 79.558594 M 46.058594 79.558594 C 46.058594 79.527344 46.03125 79.5 46 79.5 M 46 79.5 L 49 79.5 C 49.03125 79.5 49.058594 79.527344 49.058594 79.558594 M 49.058594 79.558594 L 49.058594 85.558594 C 49.058594 85.589844 49.03125 85.617188 49 85.617188 M 49 85.617188 L 46 85.617188 C 46.03125 85.617188 46.058594 85.589844 46.058594 85.558594 M 46.058594 85.558594 L 46.058594 91.558594 M 46.058594 91.558594 C 46.058594 91.527344 46.03125 91.5 46 91.5 M 46 91.5 L 49 91.5 C 49.03125 91.5 49.058594 91.527344 49.058594 91.558594 M 49.058594 91.558594 L 49.058594 97.558594 C 49.058594 97.589844 49.03125 97.617188 49 97.617188 M 49 97.617188 L 46 97.617188 C 46.03125 97.617188 46.058594 97.589844 46.058594 97.558594 M 46.058594 97.558594 L 46.058594 103.558594 M 46.058594 103.558594 C 46.058594 103.527344 46.03125 103.5 46 103.5 M 46 103.5 L 49 103.5 C 49.03125 103.5 49.058594 103.527344 49.058594 103.558594 M 49.058594 103.558594 L 49.058594 109.558594 C 49.058594 109.589844 49.03125 109.617188 49 109.617188 M 49 109.617188 L 46 109.617188 C 46.03125 109.617188 46.058594 109.589844 46.058594 109.558594 M 46.058594 109.558594 L 46.058594 115.558594 M 46.058594 115.558594 C 46.058594 115.527344 46.03125 115.5 46 115.5 M 46 115.5 L 49 115.5 C 49.03125 115.5 49.058594 115.527344 49.058594 115.558594 M 49.058594 115.558594 L 49.058594 121.558594 C 49.058594 121.589844 49.03125 121.617188 49 121.617188 M 49 121.617188 L 46 121.617188 C 46.03125 121.617188 46.058594 121.589844 46.058594 121.558594 M 46.058594 121.558594 L 46.058594 127.558594 M 46.058594 127.558594 C 46.058594 127.527344 46.03125 127.5 46 127.5 M 46 127.5 L 49 127.5 C 49.03125 127.5 49.058594 127.527344 49.058594 127.558594 M 49.058594 127.558594 L 49.058594 133.558594 C 49.058594 133.589844 49.03125 133.617188 49 133.617188 M 49 133.617188 L 46 133.617188 C 46.03125 133.617188 46.058594 133.589844 46.058594 133.558594 M 46.058594 133.558594 L 46.058594 139.558594 M 46.058594 139.558594 C 46.058594 139.527344 46.03125 139.5 46 139.5 M 46 139.5 L 49 139.5 C 49.03125 139.5 49.058594 139.527344 49.058594 139.558594 M 49.058594 139.558594 L 49.058594 145.558594 C 49.058594 145.589844 49.03125 145.617188 49 145.617188 M 49 145.617188 L 46 145.617188 C 46.03125 145.617188 46.058594 145.589844 46.058594 145.558594 M 46.058594 145.558594 L 46.058594 151.558594 M 46.058594 151.558594 C 46.058594 151.527344 46.03125 151.5 46 151.5 M 46 151.5 L 49 151.5 C 49.03125 151.5 49.058594 151.527344 49.058594 151.558594 M 49.058594 151.558594 L 49.058594 157.558594 C 49.058594 157.589844 49.03125 157.617188 49 157.617188 M 49 157.617188 L 46 157.617188 C 46.03125 157.617188 46.058594 157.589844 46.058594 157.558594 M 46.058594 157.558594 L 46.058594 165.058594 M 46.058594 165.058594 C 46.058594 165.089844 46.03125 165.117188 46 165.117188 M 46 165.117188 L 46 165.117188 M 46 165.117188 L 38 165.117188 M 38 165.117188 C 38.03125 165.117188 38.058594 165.089844 38.058594 165.058594 M 38.058594 165.058594 L 38.058594 168.058594 C 38.058594 168.089844 38.03125 168.117188 38 168.117188 M 38 168.117188 L 32 168.117188 C 31.96875 168.117188 31.941406 168.089844 31.941406 168.058594 M 31.941406 168.058594 L 31.941406 165.058594 C 31.941406 165.089844 31.96875 165.117188 32 165.117188 M 32 165.117188 L 26 165.117188 M 26 165.117188 C 26.03125 165.117188 26.058594 165.089844 26.058594 165.058594 M 26.058594 165.058594 L 26.058594 168.058594 C 26.058594 168.089844 26.03125 168.117188 26 168.117188 M 26 168.117188 L 20 168.117188 C 19.96875 168.117188 19.941406 168.089844 19.941406 168.058594 M 19.941406 168.058594 L 19.941406 165.058594 C 19.941406 165.089844 19.96875 165.117188 20 165.117188 M 20 165.117188 L 14 165.117188 M 14 165.117188 C 14.03125 165.117188 14.058594 165.089844 14.058594 165.058594 M 14.058594 165.058594 L 14.058594 168.058594 C 14.058594 168.089844 14.03125 168.117188 14 168.117188 M 14 168.117188 L 8 168.117188 C 7.96875 168.117188 7.941406 168.089844 7.941406 168.058594 M 7.941406 168.058594 L 7.941406 165.058594 C 7.941406 165.089844 7.96875 165.117188 8 165.117188 M 8 165.117188 L -0.000000000000040412 165.117188 M -0.000000000000040412 165.117188 C -0.03125 165.117188 -0.0585938 165.089844 -0.0585938 165.058594 M -0.0585938 165.058594 L -0.0585938 165.058594 M -0.0585938 165.058594 L -0.0585938 157.558594 M -0.0585938 157.558594 C -0.0585938 157.589844 -0.03125 157.617188 -0.000000000000038192 157.617188 M -0.000000000000038192 157.617188 L -3 157.617188 C -3.03125 157.617188 -3.058594 157.589844 -3.058594 157.558594 M -3.058594 157.558594 L -3.058594 151.558594 C -3.058594 151.527344 -3.03125 151.5 -3 151.5 M -3 151.5 L -0.000000000000036859 151.5 C -0.03125 151.5 -0.0585938 151.527344 -0.0585938 151.558594 M -0.0585938 151.558594 L -0.0585938 145.558594 M -0.0585938 145.558594 C -0.0585938 145.589844 -0.03125 145.617188 -0.000000000000035527 145.617188 M -0.000000000000035527 145.617188 L -3 145.617188 C -3.03125 145.617188 -3.058594 145.589844 -3.058594 145.558594 M -3.058594 145.558594 L -3.058594 139.558594 C -3.058594 139.527344 -3.03125 139.5 -3 139.5 M -3 139.5 L -0.000000000000033751 139.5 C -0.03125 139.5 -0.0585938 139.527344 -0.0585938 139.558594 M -0.0585938 139.558594 L -0.0585938 133.558594 M -0.0585938 133.558594 C -0.0585938 133.589844 -0.03125 133.617188 -0.000000000000032419 133.617188 M -0.000000000000032419 133.617188 L -3 133.617188 C -3.03125 133.617188 -3.058594 133.589844 -3.058594 133.558594 M -3.058594 133.558594 L -3.058594 127.558594 C -3.058594 127.527344 -3.03125 127.5 -3 127.5 M -3 127.5 L -0.000000000000031086 127.5 C -0.03125 127.5 -0.0585938 127.527344 -0.0585938 127.558594 M -0.0585938 127.558594 L -0.0585938 121.558594 M -0.0585938 121.558594 C -0.0585938 121.589844 -0.03125 121.617188 -0.000000000000029754 121.617188 M -0.000000000000029754 121.617188 L -3 121.617188 C -3.03125 121.617188 -3.058594 121.589844 -3.058594 121.558594 M -3.058594 121.558594 L -3.058594 115.558594 C -3.058594 115.527344 -3.03125 115.5 -3 115.5 M -3 115.5 L -0.000000000000027978 115.5 C -0.03125 115.5 -0.0585938 115.527344 -0.0585938 115.558594 M -0.0585938 115.558594 L -0.0585938 109.558594 M -0.0585938 109.558594 C -0.0585938 109.589844 -0.03125 109.617188 -0.000000000000026645 109.617188 M -0.000000000000026645 109.617188 L -3 109.617188 C -3.03125 109.617188 -3.058594 109.589844 -3.058594 109.558594 M -3.058594 109.558594 L -3.058594 103.558594 C -3.058594 103.527344 -3.03125 103.5 -3 103.5 M -3 103.5 L -0.000000000000025313 103.5 C -0.03125 103.5 -0.0585938 103.527344 -0.0585938 103.558594 M -0.0585938 103.558594 L -0.0585938 97.558594 M -0.0585938 97.558594 C -0.0585938 97.589844 -0.03125 97.617188 -0.000000000000023537 97.617188 M -0.000000000000023537 97.617188 L -3 97.617188 C -3.03125 97.617188 -3.058594 97.589844 -3.058594 97.558594 M -3.058594 97.558594 L -3.058594 91.558594 C -3.058594 91.527344 -3.03125 91.5 -3 91.5 M -3 91.5 L -0.000000000000022204 91.5 C -0.03125 91.5 -0.0585938 91.527344 -0.0585938 91.558594 M -0.0585938 91.558594 L -0.0585938 85.558594 M -0.0585938 85.558594 C -0.0585938 85.589844 -0.03125 85.617188 -0.000000000000020872 85.617188 M -0.000000000000020872 85.617188 L -3 85.617188 C -3.03125 85.617188 -3.058594 85.589844 -3.058594 85.558594 M -3.058594 85.558594 L -3.058594 79.558594 C -3.058594 79.527344 -3.03125 79.5 -3 79.5 M -3 79.5 L -0.000000000000019096 79.5 C -0.03125 79.5 -0.0585938 79.527344 -0.0585938 79.558594 M -0.0585938 79.558594 L -0.0585938 73.558594 M -0.0585938 73.558594 C -0.0585938 73.589844 -0.03125 73.617188 -0.000000000000017764 73.617188 M -0.000000000000017764 73.617188 L -3 73.617188 C -3.03125 73.617188 -3.058594 73.589844 -3.058594 73.558594 M -3.058594 73.558594 L -3.058594 67.558594 C -3.058594 67.527344 -3.03125 67.5 -3 67.5 M -3 67.5 L -0.000000000000016431 67.5 C -0.03125 67.5 -0.0585938 67.527344 -0.0585938 67.558594 M -0.0585938 67.558594 L -0.0585938 61.558594 M -0.0585938 61.558594 C -0.0585938 61.589844 -0.03125 61.617188 -0.000000000000015099 61.617188 M -0.000000000000015099 61.617188 L -3 61.617188 C -3.03125 61.617188 -3.058594 61.589844 -3.058594 61.558594 M -3.058594 61.558594 L -3.058594 55.558594 C -3.058594 55.527344 -3.03125 55.5 -3 55.5 M -3 55.5 L -0.000000000000013323 55.5 C -0.03125 55.5 -0.0585938 55.527344 -0.0585938 55.558594 M -0.0585938 55.558594 L -0.0585938 49.558594 M -0.0585938 49.558594 C -0.0585938 49.589844 -0.03125 49.617188 -0.00000000000001199 49.617188 M -0.00000000000001199 49.617188 L -3 49.617188 C -3.03125 49.617188 -3.058594 49.589844 -3.058594 49.558594 M -3.058594 49.558594 L -3.058594 43.558594 C -3.058594 43.527344 -3.03125 43.5 -3 43.5 M -3 43.5 L -0.000000000000010658 43.5 C -0.03125 43.5 -0.0585938 43.527344 -0.0585938 43.558594 M -0.0585938 43.558594 L -0.0585938 37.558594 M -0.0585938 37.558594 C -0.0585938 37.589844 -0.03125 37.617188 -0.000000000000008882 37.617188 M -0.000000000000008882 37.617188 L -3 37.617188 C -3.03125 37.617188 -3.058594 37.589844 -3.058594 37.558594 M -3.058594 37.558594 L -3.058594 31.558594 C -3.058594 31.527344 -3.03125 31.5 -3 31.5 M -3 31.5 L -0.00000000000000755 31.5 C -0.03125 31.5 -0.0585938 31.527344 -0.0585938 31.558594 M -0.0585938 31.558594 L -0.0585938 25.558594 M -0.0585938 25.558594 C -0.0585938 25.589844 -0.03125 25.617188 -0.000000000000006217 25.617188 M -0.000000000000006217 25.617188 L -3 25.617188 C -3.03125 25.617188 -3.058594 25.589844 -3.058594 25.558594 M -3.058594 25.558594 L -3.058594 19.558594 C -3.058594 19.527344 -3.03125 19.5 -3 19.5 M -3 19.5 L -0.000000000000004441 19.5 C -0.03125 19.5 -0.0585938 19.527344 -0.0585938 19.558594 M -0.0585938 19.558594 L -0.0585938 13.558594 M -0.0585938 13.558594 C -0.0585938 13.589844 -0.03125 13.617188 -0.000000000000003109 13.617188 M -0.000000000000003109 13.617188 L -3 13.617188 C -3.03125 13.617188 -3.058594 13.589844 -3.058594 13.558594 M -3.058594 13.558594 L -3.058594 7.558594 C -3.058594 7.527344 -3.03125 7.5 -3 7.5 M -3 7.5 L -0.000000000000001776 7.5 C -0.03125 7.5 -0.0585938 7.527344 -0.0585938 7.558594 M -0.0585938 7.558594 L -0.0585938 0.0585938 M -0.0585938 0.0585938 C -0.0585938 0.0273438 -0.03125 0 0 0 M 0 0 L 0 0 " transform="matrix(1,0.000000000000000245,0.000000000000000245,-1,3.808594,9896.949219)"/>
</g>
</svg>