<?xml version="1.0" encoding="UTF-8" standalone="no"?>
<!-- Created with Inkscape (http://www.inkscape.org/) -->

<svg
   xmlns:dc="http://purl.org/dc/elements/1.1/"
   xmlns:cc="http://creativecommons.org/ns#"
   xmlns:rdf="http://www.w3.org/1999/02/22-rdf-syntax-ns#"
   xmlns:svg="http://www.w3.org/2000/svg"
   xmlns="http://www.w3.org/2000/svg"
   xmlns:xlink="http://www.w3.org/1999/xlink"
   xmlns:sodipodi="http://sodipodi.sourceforge.net/DTD/sodipodi-0.dtd"
   xmlns:inkscape="http://www.inkscape.org/namespaces/inkscape"
   width="101.59996mm"
   height="101.59996mm"
   viewBox="0 0 359.99986 359.99986"
   id="svg7929"
   version="1.1"
   inkscape:version="0.92.2 (5c3e80d, 2017-08-06)"
   sodipodi:docname="lasercut-logo.svg"
   inkscape:export-filename="/home/kratenko/Projects/deepcyber/blue1024.png"
   inkscape:export-xdpi="412.02069"
   inkscape:export-ydpi="412.02069">
  <defs
     id="defs7931">
    <linearGradient
       id="linearGradient3919">
      <stop
         style="stop-color:#fcfcfc;stop-opacity:1;"
         offset="0"
         id="stop3921" />
      <stop
         id="stop3927"
         offset="0.30000001"
         style="stop-color:#fcfcfc;stop-opacity:1;" />
      <stop
         id="stop3925"
         offset="0.5"
         style="stop-color:#6a97ff;stop-opacity:1;" />
      <stop
         style="stop-color:#fcfcfc;stop-opacity:1;"
         offset="0.69999999"
         id="stop3929" />
      <stop
         style="stop-color:#fcfcfc;stop-opacity:1"
         offset="1"
         id="stop3923" />
    </linearGradient>
    <linearGradient
       inkscape:collect="always"
       id="Neuron">
      <stop
         style="stop-color:#004dff;stop-opacity:1"
         offset="0"
         id="stop13439" />
      <stop
         style="stop-color:#fcfcfc;stop-opacity:1"
         offset="1"
         id="stop13441" />
    </linearGradient>
    <linearGradient
       id="lines"
       inkscape:collect="always">
      <stop
         style="stop-color:#fcfcfc;stop-opacity:1"
         offset="0"
         id="stop13216" />
      <stop
         style="stop-color:#0058ff;stop-opacity:0"
         offset="1"
         id="stop13214" />
    </linearGradient>
    <linearGradient
       id="Text">
      <stop
         id="stop12453"
         offset="0"
         style="stop-color:#002c90;stop-opacity:1" />
      <stop
         id="stop12455"
         offset="1"
         style="stop-color:#fcfcfc;stop-opacity:1" />
    </linearGradient>
    <linearGradient
       inkscape:collect="always"
       id="linearGradient5905">
      <stop
         style="stop-color:#000000;stop-opacity:1;"
         offset="0"
         id="stop5907" />
      <stop
         style="stop-color:#000000;stop-opacity:0;"
         offset="1"
         id="stop5909" />
    </linearGradient>
    <radialGradient
       inkscape:collect="always"
       xlink:href="#linearGradient5905"
       id="radialGradient6390"
       cx="343.50592"
       cy="618.97919"
       fx="343.50592"
       fy="618.97919"
       r="75.842117"
       gradientTransform="matrix(1,0,0,0.72842291,0,168.10056)"
       gradientUnits="userSpaceOnUse" />
    <radialGradient
       inkscape:collect="always"
       xlink:href="#linearGradient5905"
       id="radialGradient6406"
       cx="343.50592"
       cy="618.97919"
       fx="343.50592"
       fy="618.97919"
       r="75.842117"
       gradientTransform="matrix(1,0,0,0.72842291,0,168.10056)"
       gradientUnits="userSpaceOnUse" />
    <radialGradient
       inkscape:collect="always"
       xlink:href="#linearGradient5905"
       id="radialGradient6422"
       cx="343.50592"
       cy="618.97919"
       fx="343.50592"
       fy="618.97919"
       r="75.842117"
       gradientTransform="matrix(1,0,0,0.72842291,0,168.10056)"
       gradientUnits="userSpaceOnUse" />
    <radialGradient
       inkscape:collect="always"
       xlink:href="#linearGradient5905"
       id="radialGradient6438"
       cx="343.50592"
       cy="618.97919"
       fx="343.50592"
       fy="618.97919"
       r="75.842117"
       gradientTransform="matrix(1,0,0,0.72842291,0,168.10056)"
       gradientUnits="userSpaceOnUse" />
    <radialGradient
       inkscape:collect="always"
       xlink:href="#linearGradient5905"
       id="radialGradient6454"
       cx="343.50592"
       cy="618.97919"
       fx="343.50592"
       fy="618.97919"
       r="75.842117"
       gradientTransform="matrix(1,0,0,0.72842291,0,168.10056)"
       gradientUnits="userSpaceOnUse" />
    <radialGradient
       inkscape:collect="always"
       xlink:href="#linearGradient5905"
       id="radialGradient6470"
       cx="343.50592"
       cy="618.97919"
       fx="343.50592"
       fy="618.97919"
       r="75.842117"
       gradientTransform="matrix(1,0,0,0.72842291,0,168.10056)"
       gradientUnits="userSpaceOnUse" />
    <radialGradient
       inkscape:collect="always"
       xlink:href="#linearGradient5905"
       id="radialGradient6486"
       cx="343.50592"
       cy="618.97919"
       fx="343.50592"
       fy="618.97919"
       r="75.842117"
       gradientTransform="matrix(1,0,0,0.72842291,0,168.10056)"
       gradientUnits="userSpaceOnUse" />
    <radialGradient
       inkscape:collect="always"
       xlink:href="#linearGradient5905"
       id="radialGradient6502"
       cx="343.50592"
       cy="618.97919"
       fx="343.50592"
       fy="618.97919"
       r="75.842117"
       gradientTransform="matrix(1,0,0,0.72842291,0,168.10056)"
       gradientUnits="userSpaceOnUse" />
    <radialGradient
       inkscape:collect="always"
       xlink:href="#linearGradient5905"
       id="radialGradient6518"
       cx="343.50592"
       cy="618.97919"
       fx="343.50592"
       fy="618.97919"
       r="75.842117"
       gradientTransform="matrix(1,0,0,0.72842291,0,168.10056)"
       gradientUnits="userSpaceOnUse" />
    <radialGradient
       inkscape:collect="always"
       xlink:href="#linearGradient5905"
       id="radialGradient6534"
       cx="343.50592"
       cy="618.97919"
       fx="343.50592"
       fy="618.97919"
       r="75.842117"
       gradientTransform="matrix(1,0,0,0.72842291,0,168.10056)"
       gradientUnits="userSpaceOnUse" />
    <radialGradient
       inkscape:collect="always"
       xlink:href="#linearGradient5905"
       id="radialGradient6550"
       cx="343.50592"
       cy="618.97919"
       fx="343.50592"
       fy="618.97919"
       r="75.842117"
       gradientTransform="matrix(1,0,0,0.72842291,0,168.10056)"
       gradientUnits="userSpaceOnUse" />
    <radialGradient
       inkscape:collect="always"
       xlink:href="#linearGradient5905"
       id="radialGradient6566"
       cx="343.50592"
       cy="618.97919"
       fx="343.50592"
       fy="618.97919"
       r="75.842117"
       gradientTransform="matrix(1,0,0,0.72842291,0,168.10056)"
       gradientUnits="userSpaceOnUse" />
    <radialGradient
       inkscape:collect="always"
       xlink:href="#linearGradient5905"
       id="radialGradient6582"
       cx="343.50592"
       cy="618.97919"
       fx="343.50592"
       fy="618.97919"
       r="75.842117"
       gradientTransform="matrix(1,0,0,0.72842291,0,168.10056)"
       gradientUnits="userSpaceOnUse" />
    <radialGradient
       inkscape:collect="always"
       xlink:href="#linearGradient5905"
       id="radialGradient6598"
       cx="343.50592"
       cy="618.97919"
       fx="343.50592"
       fy="618.97919"
       r="75.842117"
       gradientTransform="matrix(1,0,0,0.72842291,0,168.10056)"
       gradientUnits="userSpaceOnUse" />
    <radialGradient
       inkscape:collect="always"
       xlink:href="#linearGradient5905"
       id="radialGradient6614"
       cx="343.50592"
       cy="618.97919"
       fx="343.50592"
       fy="618.97919"
       r="75.842117"
       gradientTransform="matrix(1,0,0,0.72842291,0,168.10056)"
       gradientUnits="userSpaceOnUse" />
    <radialGradient
       inkscape:collect="always"
       xlink:href="#linearGradient5905"
       id="radialGradient6630"
       cx="343.50592"
       cy="618.97919"
       fx="343.50592"
       fy="618.97919"
       r="75.842117"
       gradientTransform="matrix(1,0,0,0.72842291,0,168.10056)"
       gradientUnits="userSpaceOnUse" />
    <radialGradient
       inkscape:collect="always"
       xlink:href="#linearGradient5905"
       id="radialGradient6646"
       cx="343.50592"
       cy="618.97919"
       fx="343.50592"
       fy="618.97919"
       r="75.842117"
       gradientTransform="matrix(1,0,0,0.72842291,0,168.10056)"
       gradientUnits="userSpaceOnUse" />
    <radialGradient
       inkscape:collect="always"
       xlink:href="#linearGradient5905"
       id="radialGradient6662"
       cx="343.50592"
       cy="618.97919"
       fx="343.50592"
       fy="618.97919"
       r="75.842117"
       gradientTransform="matrix(1,0,0,0.72842291,0,168.10056)"
       gradientUnits="userSpaceOnUse" />
    <radialGradient
       inkscape:collect="always"
       xlink:href="#linearGradient5905"
       id="radialGradient6678"
       cx="343.50592"
       cy="618.97919"
       fx="343.50592"
       fy="618.97919"
       r="75.842117"
       gradientTransform="matrix(1,0,0,0.72842291,0,168.10056)"
       gradientUnits="userSpaceOnUse" />
    <radialGradient
       inkscape:collect="always"
       xlink:href="#linearGradient5905"
       id="radialGradient6694"
       cx="343.50592"
       cy="618.97919"
       fx="343.50592"
       fy="618.97919"
       r="75.842117"
       gradientTransform="matrix(1,0,0,0.72842291,0,168.10056)"
       gradientUnits="userSpaceOnUse" />
    <radialGradient
       inkscape:collect="always"
       xlink:href="#linearGradient5905"
       id="radialGradient6710"
       cx="343.50592"
       cy="618.97919"
       fx="343.50592"
       fy="618.97919"
       r="75.842117"
       gradientTransform="matrix(1,0,0,0.72842291,0,168.10056)"
       gradientUnits="userSpaceOnUse" />
    <radialGradient
       inkscape:collect="always"
       xlink:href="#linearGradient5905"
       id="radialGradient6726"
       cx="343.50592"
       cy="618.97919"
       fx="343.50592"
       fy="618.97919"
       r="75.842117"
       gradientTransform="matrix(1,0,0,0.72842291,0,168.10056)"
       gradientUnits="userSpaceOnUse" />
    <radialGradient
       inkscape:collect="always"
       xlink:href="#linearGradient5905"
       id="radialGradient6742"
       cx="343.50592"
       cy="618.97919"
       fx="343.50592"
       fy="618.97919"
       r="75.842117"
       gradientTransform="matrix(1,0,0,0.72842291,0,168.10056)"
       gradientUnits="userSpaceOnUse" />
    <radialGradient
       inkscape:collect="always"
       xlink:href="#linearGradient5905"
       id="radialGradient6758"
       cx="343.50592"
       cy="618.97919"
       fx="343.50592"
       fy="618.97919"
       r="75.842117"
       gradientTransform="matrix(1,0,0,0.72842291,0,168.10056)"
       gradientUnits="userSpaceOnUse" />
    <radialGradient
       inkscape:collect="always"
       xlink:href="#linearGradient5905"
       id="radialGradient6774"
       cx="343.50592"
       cy="618.97919"
       fx="343.50592"
       fy="618.97919"
       r="75.842117"
       gradientTransform="matrix(1,0,0,0.72842291,0,168.10056)"
       gradientUnits="userSpaceOnUse" />
    <radialGradient
       inkscape:collect="always"
       xlink:href="#linearGradient5905"
       id="radialGradient6790"
       cx="343.50592"
       cy="618.97919"
       fx="343.50592"
       fy="618.97919"
       r="75.842117"
       gradientTransform="matrix(1,0,0,0.72842291,0,168.10056)"
       gradientUnits="userSpaceOnUse" />
    <radialGradient
       inkscape:collect="always"
       xlink:href="#linearGradient5905"
       id="radialGradient6806"
       cx="343.50592"
       cy="618.97919"
       fx="343.50592"
       fy="618.97919"
       r="75.842117"
       gradientTransform="matrix(1,0,0,0.72842291,0,168.10056)"
       gradientUnits="userSpaceOnUse" />
    <radialGradient
       inkscape:collect="always"
       xlink:href="#linearGradient5905"
       id="radialGradient6822"
       cx="343.50592"
       cy="618.97919"
       fx="343.50592"
       fy="618.97919"
       r="75.842117"
       gradientTransform="matrix(1,0,0,0.72842291,0,168.10056)"
       gradientUnits="userSpaceOnUse" />
    <radialGradient
       inkscape:collect="always"
       xlink:href="#linearGradient5905"
       id="radialGradient6838"
       cx="343.50592"
       cy="618.97919"
       fx="343.50592"
       fy="618.97919"
       r="75.842117"
       gradientTransform="matrix(1,0,0,0.72842291,0,168.10056)"
       gradientUnits="userSpaceOnUse" />
    <radialGradient
       inkscape:collect="always"
       xlink:href="#linearGradient5905"
       id="radialGradient6854"
       cx="343.50592"
       cy="618.97919"
       fx="343.50592"
       fy="618.97919"
       r="75.842117"
       gradientTransform="matrix(1,0,0,0.72842291,0,168.10056)"
       gradientUnits="userSpaceOnUse" />
    <radialGradient
       inkscape:collect="always"
       xlink:href="#linearGradient5905"
       id="radialGradient6870"
       cx="343.50592"
       cy="618.97919"
       fx="343.50592"
       fy="618.97919"
       r="75.842117"
       gradientTransform="matrix(1,0,0,0.72842291,0,168.10056)"
       gradientUnits="userSpaceOnUse" />
    <radialGradient
       inkscape:collect="always"
       xlink:href="#linearGradient5905"
       id="radialGradient6886"
       cx="343.50592"
       cy="618.97919"
       fx="343.50592"
       fy="618.97919"
       r="75.842117"
       gradientTransform="matrix(1,0,0,0.72842291,0,168.10056)"
       gradientUnits="userSpaceOnUse" />
    <radialGradient
       inkscape:collect="always"
       xlink:href="#linearGradient5905"
       id="radialGradient6902"
       cx="343.50592"
       cy="618.97919"
       fx="343.50592"
       fy="618.97919"
       r="75.842117"
       gradientTransform="matrix(1,0,0,0.72842291,0,168.10056)"
       gradientUnits="userSpaceOnUse" />
    <radialGradient
       inkscape:collect="always"
       xlink:href="#linearGradient5905"
       id="radialGradient6918"
       cx="343.50592"
       cy="618.97919"
       fx="343.50592"
       fy="618.97919"
       r="75.842117"
       gradientTransform="matrix(1,0,0,0.72842291,0,168.10056)"
       gradientUnits="userSpaceOnUse" />
    <radialGradient
       inkscape:collect="always"
       xlink:href="#linearGradient5905"
       id="radialGradient6934"
       cx="343.50592"
       cy="618.97919"
       fx="343.50592"
       fy="618.97919"
       r="75.842117"
       gradientTransform="matrix(1,0,0,0.72842291,0,168.10056)"
       gradientUnits="userSpaceOnUse" />
    <radialGradient
       inkscape:collect="always"
       xlink:href="#linearGradient5905"
       id="radialGradient6950"
       cx="343.50592"
       cy="618.97919"
       fx="343.50592"
       fy="618.97919"
       r="75.842117"
       gradientTransform="matrix(1,0,0,0.72842291,0,168.10056)"
       gradientUnits="userSpaceOnUse" />
    <radialGradient
       inkscape:collect="always"
       xlink:href="#linearGradient5905"
       id="radialGradient6966"
       cx="343.50592"
       cy="618.97919"
       fx="343.50592"
       fy="618.97919"
       r="75.842117"
       gradientTransform="matrix(1,0,0,0.72842291,0,168.10056)"
       gradientUnits="userSpaceOnUse" />
    <radialGradient
       inkscape:collect="always"
       xlink:href="#linearGradient5905"
       id="radialGradient6982"
       cx="343.50592"
       cy="618.97919"
       fx="343.50592"
       fy="618.97919"
       r="75.842117"
       gradientTransform="matrix(1,0,0,0.72842291,0,168.10056)"
       gradientUnits="userSpaceOnUse" />
    <radialGradient
       inkscape:collect="always"
       xlink:href="#linearGradient5905"
       id="radialGradient6998"
       cx="343.50592"
       cy="618.97919"
       fx="343.50592"
       fy="618.97919"
       r="75.842117"
       gradientTransform="matrix(1,0,0,0.72842291,0,168.10056)"
       gradientUnits="userSpaceOnUse" />
    <radialGradient
       inkscape:collect="always"
       xlink:href="#linearGradient5905"
       id="radialGradient7014"
       cx="343.50592"
       cy="618.97919"
       fx="343.50592"
       fy="618.97919"
       r="75.842117"
       gradientTransform="matrix(1,0,0,0.72842291,0,168.10056)"
       gradientUnits="userSpaceOnUse" />
    <radialGradient
       inkscape:collect="always"
       xlink:href="#linearGradient5905"
       id="radialGradient7030"
       cx="343.50592"
       cy="618.97919"
       fx="343.50592"
       fy="618.97919"
       r="75.842117"
       gradientTransform="matrix(1,0,0,0.72842291,0,168.10056)"
       gradientUnits="userSpaceOnUse" />
    <radialGradient
       inkscape:collect="always"
       xlink:href="#linearGradient5905"
       id="radialGradient7046"
       cx="343.50592"
       cy="618.97919"
       fx="343.50592"
       fy="618.97919"
       r="75.842117"
       gradientTransform="matrix(1,0,0,0.72842291,0,168.10056)"
       gradientUnits="userSpaceOnUse" />
    <radialGradient
       inkscape:collect="always"
       xlink:href="#linearGradient5905"
       id="radialGradient7062"
       cx="343.50592"
       cy="618.97919"
       fx="343.50592"
       fy="618.97919"
       r="75.842117"
       gradientTransform="matrix(1,0,0,0.72842291,0,168.10056)"
       gradientUnits="userSpaceOnUse" />
    <radialGradient
       inkscape:collect="always"
       xlink:href="#linearGradient5905"
       id="radialGradient7078"
       cx="343.50592"
       cy="618.97919"
       fx="343.50592"
       fy="618.97919"
       r="75.842117"
       gradientTransform="matrix(1,0,0,0.72842291,0,168.10056)"
       gradientUnits="userSpaceOnUse" />
    <radialGradient
       inkscape:collect="always"
       xlink:href="#linearGradient5905"
       id="radialGradient7094"
       cx="343.50592"
       cy="618.97919"
       fx="343.50592"
       fy="618.97919"
       r="75.842117"
       gradientTransform="matrix(1,0,0,0.72842291,0,168.10056)"
       gradientUnits="userSpaceOnUse" />
    <radialGradient
       inkscape:collect="always"
       xlink:href="#linearGradient5905"
       id="radialGradient7110"
       cx="343.50592"
       cy="618.97919"
       fx="343.50592"
       fy="618.97919"
       r="75.842117"
       gradientTransform="matrix(1,0,0,0.72842291,0,168.10056)"
       gradientUnits="userSpaceOnUse" />
    <radialGradient
       inkscape:collect="always"
       xlink:href="#linearGradient5905"
       id="radialGradient7126"
       cx="343.50592"
       cy="618.97919"
       fx="343.50592"
       fy="618.97919"
       r="75.842117"
       gradientTransform="matrix(1,0,0,0.72842291,0,168.10056)"
       gradientUnits="userSpaceOnUse" />
    <radialGradient
       inkscape:collect="always"
       xlink:href="#linearGradient5905"
       id="radialGradient7142"
       cx="343.50592"
       cy="618.97919"
       fx="343.50592"
       fy="618.97919"
       r="75.842117"
       gradientTransform="matrix(1,0,0,0.72842291,0,168.10056)"
       gradientUnits="userSpaceOnUse" />
    <radialGradient
       inkscape:collect="always"
       xlink:href="#linearGradient5905"
       id="radialGradient7158"
       cx="343.50592"
       cy="618.97919"
       fx="343.50592"
       fy="618.97919"
       r="75.842117"
       gradientTransform="matrix(1,0,0,0.72842291,0,168.10056)"
       gradientUnits="userSpaceOnUse" />
    <radialGradient
       inkscape:collect="always"
       xlink:href="#linearGradient5905"
       id="radialGradient7174"
       cx="343.50592"
       cy="618.97919"
       fx="343.50592"
       fy="618.97919"
       r="75.842117"
       gradientTransform="matrix(1,0,0,0.72842291,0,168.10056)"
       gradientUnits="userSpaceOnUse" />
    <radialGradient
       inkscape:collect="always"
       xlink:href="#linearGradient5905"
       id="radialGradient7190"
       cx="343.50592"
       cy="618.97919"
       fx="343.50592"
       fy="618.97919"
       r="75.842117"
       gradientTransform="matrix(1,0,0,0.72842291,0,168.10056)"
       gradientUnits="userSpaceOnUse" />
    <radialGradient
       inkscape:collect="always"
       xlink:href="#linearGradient5905"
       id="radialGradient7206"
       cx="343.50592"
       cy="618.97919"
       fx="343.50592"
       fy="618.97919"
       r="75.842117"
       gradientTransform="matrix(1,0,0,0.72842291,0,168.10056)"
       gradientUnits="userSpaceOnUse" />
    <radialGradient
       inkscape:collect="always"
       xlink:href="#linearGradient5905"
       id="radialGradient7222"
       cx="343.50592"
       cy="618.97919"
       fx="343.50592"
       fy="618.97919"
       r="75.842117"
       gradientTransform="matrix(1,0,0,0.72842291,0,168.10056)"
       gradientUnits="userSpaceOnUse" />
    <radialGradient
       inkscape:collect="always"
       xlink:href="#linearGradient5905"
       id="radialGradient7238"
       cx="343.50592"
       cy="618.97919"
       fx="343.50592"
       fy="618.97919"
       r="75.842117"
       gradientTransform="matrix(1,0,0,0.72842291,0,168.10056)"
       gradientUnits="userSpaceOnUse" />
    <radialGradient
       inkscape:collect="always"
       xlink:href="#linearGradient5905"
       id="radialGradient7254"
       cx="343.50592"
       cy="618.97919"
       fx="343.50592"
       fy="618.97919"
       r="75.842117"
       gradientTransform="matrix(1,0,0,0.72842291,0,168.10056)"
       gradientUnits="userSpaceOnUse" />
    <radialGradient
       inkscape:collect="always"
       xlink:href="#linearGradient5905"
       id="radialGradient7270"
       cx="343.50592"
       cy="618.97919"
       fx="343.50592"
       fy="618.97919"
       r="75.842117"
       gradientTransform="matrix(1,0,0,0.72842291,0,168.10056)"
       gradientUnits="userSpaceOnUse" />
    <radialGradient
       inkscape:collect="always"
       xlink:href="#linearGradient5905"
       id="radialGradient7286"
       cx="343.50592"
       cy="618.97919"
       fx="343.50592"
       fy="618.97919"
       r="75.842117"
       gradientTransform="matrix(1,0,0,0.72842291,0,168.10056)"
       gradientUnits="userSpaceOnUse" />
    <radialGradient
       inkscape:collect="always"
       xlink:href="#linearGradient5905"
       id="radialGradient7302"
       cx="343.50592"
       cy="618.97919"
       fx="343.50592"
       fy="618.97919"
       r="75.842117"
       gradientTransform="matrix(1,0,0,0.72842291,0,168.10056)"
       gradientUnits="userSpaceOnUse" />
    <radialGradient
       inkscape:collect="always"
       xlink:href="#linearGradient5905"
       id="radialGradient7318"
       cx="343.50592"
       cy="618.97919"
       fx="343.50592"
       fy="618.97919"
       r="75.842117"
       gradientTransform="matrix(1,0,0,0.72842291,0,168.10056)"
       gradientUnits="userSpaceOnUse" />
    <radialGradient
       inkscape:collect="always"
       xlink:href="#linearGradient5905"
       id="radialGradient7334"
       cx="343.50592"
       cy="618.97919"
       fx="343.50592"
       fy="618.97919"
       r="75.842117"
       gradientTransform="matrix(1,0,0,0.72842291,0,168.10056)"
       gradientUnits="userSpaceOnUse" />
    <radialGradient
       inkscape:collect="always"
       xlink:href="#linearGradient5905"
       id="radialGradient7350"
       cx="343.50592"
       cy="618.97919"
       fx="343.50592"
       fy="618.97919"
       r="75.842117"
       gradientTransform="matrix(1,0,0,0.72842291,0,168.10056)"
       gradientUnits="userSpaceOnUse" />
    <radialGradient
       inkscape:collect="always"
       xlink:href="#linearGradient5905"
       id="radialGradient7366"
       cx="343.50592"
       cy="618.97919"
       fx="343.50592"
       fy="618.97919"
       r="75.842117"
       gradientTransform="matrix(1,0,0,0.72842291,0,168.10056)"
       gradientUnits="userSpaceOnUse" />
    <radialGradient
       inkscape:collect="always"
       xlink:href="#linearGradient5905"
       id="radialGradient7382"
       cx="343.50592"
       cy="618.97919"
       fx="343.50592"
       fy="618.97919"
       r="75.842117"
       gradientTransform="matrix(1,0,0,0.72842291,0,168.10056)"
       gradientUnits="userSpaceOnUse" />
    <radialGradient
       inkscape:collect="always"
       xlink:href="#linearGradient5905"
       id="radialGradient7398"
       cx="343.50592"
       cy="618.97919"
       fx="343.50592"
       fy="618.97919"
       r="75.842117"
       gradientTransform="matrix(1,0,0,0.72842291,0,168.10056)"
       gradientUnits="userSpaceOnUse" />
    <radialGradient
       inkscape:collect="always"
       xlink:href="#linearGradient5905"
       id="radialGradient7414"
       cx="343.50592"
       cy="618.97919"
       fx="343.50592"
       fy="618.97919"
       r="75.842117"
       gradientTransform="matrix(1,0,0,0.72842291,0,168.10056)"
       gradientUnits="userSpaceOnUse" />
    <radialGradient
       inkscape:collect="always"
       xlink:href="#linearGradient5905"
       id="radialGradient7430"
       cx="343.50592"
       cy="618.97919"
       fx="343.50592"
       fy="618.97919"
       r="75.842117"
       gradientTransform="matrix(1,0,0,0.72842291,0,168.10056)"
       gradientUnits="userSpaceOnUse" />
    <radialGradient
       inkscape:collect="always"
       xlink:href="#linearGradient5905"
       id="radialGradient7446"
       cx="343.50592"
       cy="618.97919"
       fx="343.50592"
       fy="618.97919"
       r="75.842117"
       gradientTransform="matrix(1,0,0,0.72842291,0,168.10056)"
       gradientUnits="userSpaceOnUse" />
    <radialGradient
       inkscape:collect="always"
       xlink:href="#linearGradient5905"
       id="radialGradient7462"
       cx="343.50592"
       cy="618.97919"
       fx="343.50592"
       fy="618.97919"
       r="75.842117"
       gradientTransform="matrix(1,0,0,0.72842291,0,168.10056)"
       gradientUnits="userSpaceOnUse" />
    <radialGradient
       inkscape:collect="always"
       xlink:href="#linearGradient5905"
       id="radialGradient7478"
       cx="343.50592"
       cy="618.97919"
       fx="343.50592"
       fy="618.97919"
       r="75.842117"
       gradientTransform="matrix(1,0,0,0.72842291,0,168.10056)"
       gradientUnits="userSpaceOnUse" />
    <linearGradient
       inkscape:collect="always"
       xlink:href="#Neuron"
       id="linearGradient13210"
       x1="285.28247"
       y1="607.59015"
       x2="515.33612"
       y2="595.98303"
       gradientUnits="userSpaceOnUse" />
    <linearGradient
       inkscape:collect="always"
       xlink:href="#lines"
       id="linearGradient13327"
       x1="90.152344"
       y1="278.02597"
       x2="299.41525"
       y2="249.48915"
       gradientUnits="userSpaceOnUse" />
    <linearGradient
       inkscape:collect="always"
       xlink:href="#lines"
       id="linearGradient13490"
       gradientUnits="userSpaceOnUse"
       x1="90.152344"
       y1="278.02597"
       x2="299.41525"
       y2="249.48915" />
  </defs>
  <sodipodi:namedview
     id="base"
     pagecolor="#ffffff"
     bordercolor="#808080"
     borderopacity="1"
     inkscape:pageopacity="0"
     inkscape:pageshadow="2"
     inkscape:zoom="2.0000001"
     inkscape:cx="-21.421721"
     inkscape:cy="146.43535"
     inkscape:document-units="px"
     inkscape:current-layer="g7134"
     showgrid="false"
     inkscape:window-width="3840"
     inkscape:window-height="1533"
     inkscape:window-x="-5"
     inkscape:window-y="-5"
     inkscape:window-maximized="1"
     fit-margin-top="0"
     fit-margin-left="0"
     fit-margin-right="0"
     fit-margin-bottom="0"
     inkscape:snap-bbox="true"
     inkscape:snap-center="true"
     units="mm" />
  <metadata
     id="metadata7934">
    <rdf:RDF>
      <cc:Work
         rdf:about="">
        <dc:format>image/svg+xml</dc:format>
        <dc:type
           rdf:resource="http://purl.org/dc/dcmitype/StillImage" />
        <dc:title></dc:title>
      </cc:Work>
    </rdf:RDF>
  </metadata>
  <g
     inkscape:groupmode="layer"
     id="layer2"
     inkscape:label="backBlack"
     style="display:none"
     transform="translate(-125.49445,-4.0121002)"
     sodipodi:insensitive="true">
    <rect
       style="fill:none;fill-opacity:1;fill-rule:nonzero;stroke:#000000;stroke-width:0.35433072;stroke-miterlimit:4;stroke-dasharray:none;stroke-opacity:1"
       id="rect13510"
       width="359.99985"
       height="359.99985"
       x="125.49445"
       y="4.0121002" />
  </g>
  <g
     transform="translate(-125.49445,-4.0121002)"
     style="display:inline"
     inkscape:label="backBlackCirc"
     id="g5633"
     inkscape:groupmode="layer"
     sodipodi:insensitive="true">
    <circle
       style="fill:none;stroke:#000000;stroke-width:0.35433072;stroke-miterlimit:4;stroke-dasharray:none;stroke-opacity:1"
       id="path5637"
       cx="305.49438"
       cy="184.01202"
       r="179.99994" />
  </g>
  <g
     transform="translate(-125.49445,-4.0121002)"
     style="display:inline"
     id="g7629"
     inkscape:groupmode="layer"
     inkscape:label="gridBlack handfixed"
     sodipodi:insensitive="true">
    <path
       style="display:inline;fill:#ff0000;fill-opacity:1;stroke:none;stroke-width:0.21213202;stroke-miterlimit:4;stroke-dasharray:none;stroke-opacity:1"
       d="m 218.43803,256.98754 c -6.37745,-0.71997 -11.67154,-5.09519 -13.51246,-11.16721 -0.95546,-3.15144 -0.90738,-6.52974 0.1376,-9.66847 1.31985,-3.96433 4.13347,-7.21035 7.90583,-9.12081 8.5246,-4.31717 18.98497,-0.0774 22.11151,8.96219 2.47452,7.15442 -0.40454,14.98526 -6.94425,18.88786 -1.53355,0.91515 -3.49146,1.62991 -5.34786,1.95231 -1.09566,0.19028 -3.32917,0.26941 -4.35037,0.15413 z"
       id="path7971"
       inkscape:connector-curvature="0" />
    <path
       style="display:inline;fill:#ff0000;fill-opacity:1;stroke:none;stroke-width:0.21213202;stroke-miterlimit:4;stroke-dasharray:none;stroke-opacity:1"
       d="m 275.36565,256.98156 c -2.93775,-0.30515 -5.90752,-1.52463 -8.23444,-3.38131 -6.58062,-5.25076 -7.90106,-14.73679 -3.01122,-21.63278 0.62822,-0.88597 2.00873,-2.3584 2.87639,-3.06793 4.15859,-3.40068 9.94642,-4.46232 15.03982,-2.75872 5.60077,1.87332 9.66733,6.64243 10.65384,12.49438 0.18083,1.07274 0.24089,3.06121 0.12512,4.14321 -0.40343,3.77079 -2.02172,7.12809 -4.70019,9.75099 -0.9065,0.88771 -1.42551,1.30814 -2.4343,1.97199 -2.94613,1.93874 -6.74165,2.85134 -10.31502,2.48017 z"
       id="path7973"
       inkscape:connector-curvature="0" />
    <path
       style="display:inline;fill:#ff0000;fill-opacity:1;stroke:none;stroke-width:0.21213202;stroke-miterlimit:4;stroke-dasharray:none;stroke-opacity:1"
       d="m 332.29327,256.98156 c -6.14953,-0.63877 -11.42062,-4.87918 -13.38069,-10.7643 -1.42799,-4.28751 -0.92728,-9.21836 1.3195,-12.99421 0.93841,-1.57708 2.33872,-3.21694 3.69191,-4.32351 4.70189,-3.84496 11.33957,-4.64882 16.82141,-2.03715 7.29215,3.47412 10.79407,11.71362 8.24147,19.39097 -0.94108,2.83045 -2.78,5.46692 -5.13562,7.36294 -3.14462,2.53108 -7.46852,3.79004 -11.55798,3.36526 z"
       id="path7975"
       inkscape:connector-curvature="0" />
    <path
       style="display:inline;fill:#ff0000;fill-opacity:1;stroke:none;stroke-width:0.21213202;stroke-miterlimit:4;stroke-dasharray:none;stroke-opacity:1"
       d="m 389.01373,256.94573 c -4.10289,-0.51284 -7.70409,-2.46557 -10.31062,-5.59089 -4.27538,-5.12632 -4.87809,-12.44818 -1.49753,-18.19224 1.56406,-2.65759 3.97424,-4.88856 6.712,-6.21298 7.90438,-3.82378 17.25842,-0.63864 21.19456,7.21694 1.8293,3.65085 2.13747,8.11939 0.83107,12.0507 -1.559,4.6915 -5.32259,8.45731 -10.01292,10.01887 -2.2526,0.74995 -4.63679,0.99457 -6.91656,0.7096 z"
       id="path7977"
       inkscape:connector-curvature="0" />
    <path
       style="display:inline;fill:#ff0000;fill-opacity:1;stroke:none;stroke-width:0.21213202;stroke-miterlimit:4;stroke-dasharray:none;stroke-opacity:1"
       d="m 360.03321,314.70414 c -2.97766,-0.37991 -5.76816,-1.56313 -8.06903,-3.4214 -0.88476,-0.71458 -2.2508,-2.16547 -2.90852,-3.08921 -3.07674,-4.32113 -3.7954,-9.85158 -1.93206,-14.86803 1.36282,-3.66895 4.23038,-6.82676 7.79155,-8.58023 3.4181,-1.68302 7.33032,-2.09288 11.00388,-1.15281 2.16245,0.55336 4.35028,1.65819 6.06511,3.06278 0.67378,0.55189 1.85554,1.74239 2.39091,2.40861 2.31037,2.87503 3.57916,6.75543 3.42551,10.47645 -0.13165,3.1881 -1.10756,6.06432 -2.93814,8.65929 -0.68755,0.97465 -2.62672,2.92974 -3.56775,3.59704 -2.04808,1.45233 -4.23778,2.37274 -6.64299,2.7923 -1.26637,0.22092 -3.37734,0.27357 -4.61847,0.11521 z"
       id="path7979"
       inkscape:connector-curvature="0" />
    <path
       style="display:inline;fill:#ff0000;fill-opacity:1;stroke:none;stroke-width:0.21213202;stroke-miterlimit:4;stroke-dasharray:none;stroke-opacity:1"
       d="m 303.10559,314.70414 c -2.97766,-0.37991 -5.76815,-1.56313 -8.06903,-3.4214 -0.88476,-0.71458 -2.2508,-2.16547 -2.90852,-3.08921 -4.14969,-5.82805 -3.90049,-13.74665 0.60642,-19.26977 4.00238,-4.90484 10.59,-6.96292 16.68832,-5.21371 2.65325,0.76103 4.97303,2.15161 6.93425,4.15666 1.27682,1.30536 2.16914,2.5639 2.93213,4.13554 2.69285,5.54684 1.93821,12.15584 -1.93569,16.95243 -0.67979,0.8417 -2.14957,2.23698 -2.9937,2.84195 -2.00581,1.43752 -4.22674,2.37209 -6.6357,2.7923 -1.26638,0.22092 -3.37735,0.27357 -4.61848,0.11521 z"
       id="path7981"
       inkscape:connector-curvature="0" />
    <path
       style="display:inline;fill:#ff0000;fill-opacity:1;stroke:none;stroke-width:0.21213202;stroke-miterlimit:4;stroke-dasharray:none;stroke-opacity:1"
       d="m 246.17798,314.70414 c -4.73977,-0.60473 -8.81465,-3.16921 -11.45479,-7.20889 -0.23828,-0.36461 -0.63167,-1.07309 -0.87419,-1.57442 -4.18792,-8.65712 0.12483,-18.95913 9.20831,-21.99615 1.89068,-0.63214 3.6368,-0.88257 5.6261,-0.80691 4.15461,0.15802 7.85499,1.79332 10.74601,4.74894 1.27682,1.30536 2.16913,2.5639 2.93213,4.13554 2.58805,5.33097 1.99597,11.64425 -1.54269,16.44958 -0.66269,0.89991 -2.32401,2.56123 -3.2239,3.22392 -2.03034,1.49513 -4.34733,2.48822 -6.79851,2.91391 -1.2674,0.22012 -3.38013,0.27249 -4.61847,0.11448 z"
       id="path7983"
       inkscape:connector-curvature="0" />
  </g>
  <g
     inkscape:groupmode="layer"
     id="g7134"
     inkscape:label="topBlack handfixed"
     transform="translate(-125.49445,-4.0121002)"
     style="display:inline"
     sodipodi:insensitive="true">
    <path
       style="color:#000000;font-style:normal;font-variant:normal;font-weight:normal;font-stretch:normal;font-size:medium;line-height:normal;font-family:sans-serif;font-variant-ligatures:normal;font-variant-position:normal;font-variant-caps:normal;font-variant-numeric:normal;font-variant-alternates:normal;font-feature-settings:normal;text-indent:0;text-align:start;text-decoration:none;text-decoration-line:none;text-decoration-style:solid;text-decoration-color:#000000;letter-spacing:normal;word-spacing:normal;text-transform:none;writing-mode:lr-tb;direction:ltr;text-orientation:mixed;dominant-baseline:auto;baseline-shift:baseline;text-anchor:start;white-space:normal;shape-padding:0;clip-rule:nonzero;display:inline;overflow:visible;visibility:visible;opacity:1;isolation:auto;mix-blend-mode:normal;color-interpolation:sRGB;color-interpolation-filters:linearRGB;solid-color:#000000;solid-opacity:1;vector-effect:none;fill:#0000ff;fill-opacity:1;fill-rule:nonzero;stroke:none;stroke-width:2.13333249px;stroke-linecap:butt;stroke-linejoin:miter;stroke-miterlimit:4;stroke-dasharray:none;stroke-dashoffset:0;stroke-opacity:1;color-rendering:auto;image-rendering:auto;shape-rendering:auto;text-rendering:auto;enable-background:accumulate"
       d="m 200.93164,71.773438 c -2.89345,0 -5.26367,2.368273 -5.26367,5.261718 0,2.573495 1.90919,4.632293 4.35937,5.078125 v 19.513669 h -8.94922 l -2.84374,8.53321 h -31.15235 l -2.15234,-6.40039 H 131.3457 l -3.5625,10.67578 H 93.65625 l -4.265625,12.79101 H 33.1875 c -0.488053,-2.39787 -2.520481,-4.25195 -5.056641,-4.25195 -2.89344,0 -5.261718,2.36633 -5.261718,5.25977 0,2.89345 2.368278,5.26367 5.261718,5.26367 2.495275,0 4.50115,-1.7981 5.033203,-4.13867 h 57.765626 l 4.263671,-12.79102 h 34.125001 l 3.56445,-10.67578 h 20.51172 l 2.1543,6.40039 h 34.22461 l 2.84375,-8.5332 h 9.54297 V 82.046875 c 2.28891,-0.569695 4.0332,-2.553283 4.0332,-5.011719 0,-2.893445 -2.36828,-5.261718 -5.26172,-5.261718 z m 12.79883,0 c -2.89344,0 -5.26172,2.368273 -5.26172,5.261718 0,2.573495 1.90725,4.632293 4.35742,5.078125 v 23.779299 h -18.90039 l -2.84766,8.5332 H 154.2168 l -2.13477,-6.39258 -17.89062,-0.006 -3.55664,10.66407 -27.02149,0.002 -2.00195,6.01172 c -2.235246,0.79318 -3.793712,2.54987 -4.667971,5.2793 l -3.154297,9.875 H 33.154297 c -0.550379,-2.31575 -2.54588,-4.08594 -5.023438,-4.08594 -2.89344,0 -5.261718,2.36827 -5.261718,5.26172 0,2.89344 2.368278,5.25976 5.261718,5.25976 2.553888,0 4.598151,-1.87806 5.066407,-4.30078 h 59.910156 l -1.708984,5.35352 c -0.239631,0.7425 -0.359376,1.41787 -0.359376,2.02539 0,2.15582 1.089715,3.37693 3.257813,3.67187 l -0.638672,1.91602 h -10.431641 -28.5625 l -0.710937,-2.13477 -20.767578,-0.0215 c -0.49648,-2.38715 -2.526186,-4.23242 -5.054688,-4.23242 -2.89344,0 -5.261718,2.37023 -5.261718,5.26367 0,2.89345 2.368278,5.26172 5.261718,5.26172 2.503414,0 4.515586,-1.80816 5.039063,-4.16016 l 19.24414,0.0195 0.710938,2.13672 h 30.101562 11.96875 l 1.326172,-3.97461 h 26.705076 v 1.8418 h -11.07812 l -1.42383,4.26562 H 82.693359 53.125 l -2.132812,6.40039 -17.804688,-0.004 c -0.489312,-2.39629 -2.521622,-4.25 -5.056641,-4.25 -2.89344,0 -5.261718,2.36828 -5.261718,5.26172 0,2.89345 2.368278,5.26367 5.261718,5.26367 2.496758,0 4.504661,-1.79992 5.035157,-4.14258 l 19.363281,0.004 2.132812,-6.40039 h 28.03125 29.568361 l 1.42383,-4.26563 h 11.67383 v -3.97461 h 2.14453 l 0.0312,4.01563 35.8125,-0.041 1.41992,4.26563 h 21.0664 l 1.59961,-4.26563 h 6.49024 l 1.83789,5.50586 -0.002,3.10742 h -2.12305 V 162.25 l -1.01953,-3.02539 h -4.38281 l -1.41993,4.26758 h -23.35156 l -1.42383,-4.26563 h -47.04687 l -1.42383,4.26758 H 99.226562 55.96875 l -4.976562,14.93164 -17.802735,0.004 c -0.486816,-2.39947 -2.521303,-4.25586 -5.058594,-4.25586 -2.89344,0 -5.261718,2.36828 -5.261718,5.26172 0,2.89344 2.368278,5.26172 5.261718,5.26172 2.494486,0 4.500329,-1.7953 5.033203,-4.13477 l 19.365235,-0.004 4.976562,-14.93164 h 41.720703 15.878908 l 1.42383,-4.26757 h 43.97265 l 1.42188,4.26562 h 26.42969 l 1.42187,-4.26758 h 1.31055 l 0.41797,1.24414 v 3.18555 c -0.82341,0.17847 -1.3741,0.63343 -1.61719,1.40234 l -3.3086,10.16993 h -6.52734 l -6.93164,21.33398 h -4.12305 l 6.44727,-19.85352 c 0.07,-0.20441 0.10547,-0.37348 0.10547,-0.50976 0,-0.61324 -0.38466,-0.91992 -1.1543,-0.91992 h -2.10156 v -9.63672 l -11.67383,-0.0137 -1.42578,-4.26758 h -41.35742 l -1.42188,4.26562 H 58.814453 l -7.822265,23.4668 H 33.189453 c -0.488384,-2.39749 -2.522722,-4.25195 -5.058594,-4.25195 -2.89344,0 -5.261718,2.36828 -5.261718,5.26172 0,2.89345 2.368278,5.26367 5.261718,5.26367 2.496054,0 4.503925,-1.79897 5.035157,-4.14063 h 19.363281 l 7.822265,-23.4668 H 117.95312 L 119.375,165.625 h 38.28125 l 1.42578,4.26562 11.07813,0.0137 v 7.50586 h -2.13282 v -5.38282 h -10.25195 l -1.42187,-4.26757 h -35.67188 l -1.42383,4.26757 H 76.292969 v 5.38282 h -1.279297 c -0.297232,0 -0.571713,0.0323 -0.853516,0.0547 v -5.4375 H 61.658203 l -10.666015,32 H 33.1875 c -0.487669,-2.39837 -2.520129,-4.2539 -5.056641,-4.2539 -2.89344,0 -5.261718,2.36828 -5.261718,5.26172 0,2.89344 2.368278,5.25976 5.261718,5.25976 2.49488,0 4.500745,-1.79474 5.033203,-4.13476 h 19.365235 l 10.666015,-32 h 8.832032 v 3.71679 c -2.272415,0.78564 -3.857259,2.56906 -4.746094,5.35938 l -5.619141,17.52734 c -0.171833,0.54511 -0.257812,1.1919 -0.257812,1.94141 0,2.58922 1.443358,3.88476 4.330078,3.88476 h 1.75 l 21.484375,31.0293 c -4.586114,3.57033 -7.552734,9.12821 -7.552734,15.37891 0,10.75294 8.743144,19.49804 19.496094,19.49804 2.66931,0 5.21443,-0.54285 7.5332,-1.51757 l 12.88672,26.58398 c -5.9867,3.33154 -10.04883,9.71734 -10.04883,17.04297 0,10.75294 8.74315,19.49609 19.4961,19.49609 10.75295,0 19.49804,-8.74315 19.49804,-19.49609 0,-2.20884 -0.38679,-4.3237 -1.0664,-6.30469 l 19.51562,-7.89453 6.10156,4.14844 c -1.7782,2.93947 -2.82226,6.37103 -2.82226,10.05078 0,10.75294 8.7451,19.49609 19.49805,19.49609 10.75293,0 19.49804,-8.74315 19.49804,-19.49609 0,-3.64432 -1.02285,-7.04602 -2.76953,-9.9668 l 6.29297,-4.23242 19.28711,7.85156 c -0.68913,1.99333 -1.08203,4.12271 -1.08203,6.34766 0,10.75294 8.74511,19.49609 19.49805,19.49609 10.75294,0 19.49804,-8.74315 19.49804,-19.49609 0,-7.23418 -3.96732,-13.54504 -9.83203,-16.91016 L 275.32617,270.875 c 2.3804,1.0372 5.00333,1.62109 7.76172,1.62109 10.75295,0 19.49805,-8.7451 19.49805,-19.49804 0,-5.27514 -2.11353,-10.05903 -5.52735,-13.57227 l 46.46094,-50.36523 h 2.23633 c 0.95519,0 1.5875,-0.47577 1.89453,-1.42969 l 1.38086,-4.39453 c 0.20469,-0.64732 0.30664,-1.29605 0.30664,-1.94336 0,-2.31335 -1.15196,-3.58555 -3.43945,-3.83203 l -4.65821,-13.9668 h -18.48828 l -1.125,-3.375 v -3.91992 l 8.53321,-25.59961 v -6.74805 l -7.40821,-22.22461 h -43.79297 l -0.0117,-19.578122 c 2.29507,-0.565304 4.04687,-2.550843 4.04687,-5.013672 0,-2.893445 -2.37023,-5.261719 -5.26367,-5.261718 -2.89344,0 -5.26172,2.36827 -5.26172,5.261718 0,2.568961 1.90187,4.623151 4.3457,5.074219 l 0.01,21.650395 h 44.39062 l 6.8125,20.43945 v 6.05273 l -8.5332,25.59961 v 4.61524 l 1.7207,5.16015 h 18.48633 l 3.93164,11.78321 h -2.01562 l -3.22266,-9.65039 H 313.5061 l -4.26758,-12.79883 h -30.57617 l -0.61328,-1.8418 h 28.21289 c 1.56578,0 2.91519,-0.30881 4.05469,-0.91797 l 1.65625,4.89258 h 5.08984 l 8.83008,-26.49414 v -6.74805 l -5.98633,-17.96094 -53.74609,0.0117 0.01,-23.857418 c 2.28375,-0.573357 4.02344,-2.555014 4.02344,-5.009766 0,-2.893445 -2.36829,-5.261719 -5.26172,-5.261718 -2.89345,0 -5.26367,2.368273 -5.26367,5.261718 0,2.577179 1.91379,4.640473 4.36914,5.082032 l -0.01,25.917972 54.3418,-0.008 5.39063,16.17188 v 6.05273 l -8.23438,24.70703 h -2.02344 l -1.40039,-4.13867 c 0.82525,-0.89588 1.46915,-2.0528 1.92774,-3.47265 l 5.64258,-17.36328 c 0.24163,-0.7425 0.36328,-1.43491 0.36328,-2.07618 0,-1.83592 -0.82621,-2.98527 -2.47461,-3.45312 l -4.76563,-14.29492 H 253.35938 V 82.046875 c 2.28891,-0.569695 4.0332,-2.553283 4.0332,-5.011719 0,-2.893445 -2.36828,-5.261718 -5.26172,-5.261718 -2.89345,0 -5.26172,2.368273 -5.26172,5.261718 0,2.573495 1.90724,4.632293 4.35742,5.078125 v 30.179689 h 60.03125 l 3.97461,11.91992 H 296.0332 l -0.006,-9.77734 -44.49218,0.002 -1.43164,4.25391 -39.11133,0.004 -7.82422,23.46485 h -7.70508 l -1.17383,-3.51954 h 3.17774 c 0.51965,0 1.05701,-0.11727 1.61132,-0.35351 1.14326,-0.47251 1.90408,-1.31624 2.28516,-2.53125 l 1.8711,-5.77148 c 0.17321,-0.54001 0.25976,-1.18133 0.25976,-1.92383 0,-2.56503 -1.43705,-3.84766 -4.3125,-3.84766 h -0.51953 l 1.3125,-4.11133 1.17773,-3.54101 39.40821,-0.0137 V 82.046875 c 2.28891,-0.569695 4.0332,-2.553283 4.0332,-5.011719 0,-2.893445 -2.37024,-5.261718 -5.26367,-5.261718 -2.89345,0 -5.26172,2.368273 -5.26172,5.261718 0,2.573495 1.90723,4.632293 4.35742,5.078125 v 32.300779 l -38.81445,0.0117 -1.66602,5.01563 -1.52343,4.77148 H 163.5332 c -1.00468,0 -2.0794,0.23648 -3.22265,0.70899 -2.25188,0.945 -3.77546,2.63247 -4.57227,5.0625 l -5.66406,17.36328 c -0.17321,0.54 -0.25977,1.18132 -0.25977,1.92382 0,2.56503 1.45514,3.84766 4.36524,3.84766 h 12.13476 l 1.29102,3.97461 h 15.76758 l 1.42187,-4.26758 h 13.39649 l 5.68945,17.06641 h 19.61719 l 0.004,7.51758 h -26.42187 c -0.77005,-0.0681 -1.15625,-0.39152 -1.15625,-0.97071 0,-0.13625 0.0355,-0.30729 0.10547,-0.51172 l 2.83398,-8.73828 c 0.07,-0.20441 0.10547,-0.40888 0.10547,-0.61328 0,-0.57151 -0.36042,-0.85768 -1.07617,-0.86523 l 0.004,-3.45703 -2.43359,-7.29297 h -9.50781 l -1.59961,4.26562 h -18.04688 l -1.42382,-4.26953 -35.23243,0.043 -0.0156,-1.88086 h 0.99219 c 2.52768,0 4.49092,-0.81172 5.89843,-2.42578 h 7.02344 l 9.95703,-29.86914 42.11914,-0.13281 2.68946,-8.39844 29.44336,-0.008 V 82.046875 c 2.28891,-0.569695 4.0332,-2.553283 4.0332,-5.011719 0,-2.893445 -2.36828,-5.261718 -5.26172,-5.261718 -2.89345,0 -5.26367,2.368273 -5.26367,5.261718 0,2.573495 1.90919,4.632293 4.35937,5.078125 v 28.039059 l -28.86718,0.008 -2.69141,8.40234 -42.09961,0.13281 -9.95508,29.86524 h -4.15234 c 0.17154,-0.38269 0.33266,-0.78193 0.4707,-1.21289 l 10.67969,-33.25977 c 0.0684,-0.2025 0.10351,-0.38789 0.10351,-0.55664 0,-0.6075 -0.37772,-0.91211 -1.13085,-0.91211 h -8.7793 c -0.99277,0 -1.64308,0.49001 -1.95117,1.46875 l -2.77344,8.65625 c -0.3081,0.97876 -0.94187,1.46875 -1.90039,1.46875 h -27.88281 c -0.23957,0 -0.45795,0.0287 -0.6875,0.043 l 1.14257,-3.42969 27.01954,-0.002 3.55664,-10.66406 14.8164,0.006 2.13477,6.39453 h 39.9375 l 2.84765,-8.53321 h 19.4961 V 82.046875 c 2.28891,-0.569695 4.0332,-2.553283 4.0332,-5.011719 0,-2.893445 -2.37023,-5.261718 -5.26367,-5.261718 z m -12.79883,2.132812 c 1.74049,0 3.12891,1.38841 3.12891,3.128906 0,1.740495 -1.38842,3.128907 -3.12891,3.128906 -1.7405,0 -3.13086,-1.388411 -3.13086,-3.128906 0,-1.740496 1.39036,-3.128906 3.13086,-3.128906 z m 12.79883,0 c 1.74049,0 3.1289,1.38841 3.12891,3.128906 0,1.740495 -1.38842,3.128907 -3.12891,3.128906 -1.74049,0 -3.12891,-1.388411 -3.12891,-3.128906 0,-1.740496 1.38842,-3.128906 3.12891,-3.128906 z m 12.80078,0 c 1.74049,0 3.12891,1.38841 3.12891,3.128906 0,1.740495 -1.38842,3.128907 -3.12891,3.128906 -1.7405,0 -3.12891,-1.388411 -3.12891,-3.128906 0,-1.740496 1.38841,-3.128906 3.12891,-3.128906 z m 12.79883,0 c 1.74048,0 3.13086,1.38841 3.13086,3.128906 0,1.740495 -1.39038,3.128907 -3.13086,3.128906 -1.7405,0 -3.12891,-1.388411 -3.12891,-3.128906 0,-1.740496 1.38841,-3.128906 3.12891,-3.128906 z m 12.80078,0 c 1.74049,0 3.12891,1.38841 3.12891,3.128906 0,1.740495 -1.38842,3.128907 -3.12891,3.128906 -1.7405,0 -3.12891,-1.388411 -3.12891,-3.128906 0,-1.740496 1.38841,-3.128906 3.12891,-3.128906 z m 12.80078,0 c 1.74048,0 3.12891,1.38841 3.12891,3.128906 0,1.740495 -1.38843,3.128907 -3.12891,3.128906 -1.7405,0 -3.13086,-1.388411 -3.13086,-3.128906 0,-1.740496 1.39036,-3.128906 3.13086,-3.128906 z m 12.79883,0 c 1.74049,0 3.12891,1.38841 3.12891,3.128906 0,1.740495 -1.38842,3.128907 -3.12891,3.128906 -1.74049,0 -3.12891,-1.388414 -3.12891,-3.128906 0,-1.740493 1.38842,-3.128906 3.12891,-3.128906 z m 16.16406,42.66211 0.006,7.64453 h -12.6875 l -1.83984,-5.51953 h -9.33789 l -8.53321,23.4668 h -8.43945 l -1.17383,-3.51954 h 3.68164 c 0.52435,0 1.06765,-0.11727 1.62696,-0.35351 1.15355,-0.47251 1.92211,-1.31624 2.30664,-2.53125 l 1.88671,-5.77148 c 0.1748,-0.54001 0.26368,-1.18133 0.26368,-1.92383 0,-2.56503 -1.45214,-3.84766 -4.35352,-3.84766 h -35.96875 c -1.01373,0 -2.09839,0.23648 -3.25195,0.70899 -2.27217,0.945 -3.80928,2.63247 -4.61328,5.0625 l -5.7168,17.36328 c -0.17479,0.54 -0.26172,1.18132 -0.26172,1.92382 0,2.30997 1.20257,3.56914 3.58399,3.79883 l 2.76367,8.28907 h 38.39258 l 2.85156,8.5332 h 18.60547 l 2.84375,-8.5332 28.32812,-0.004 4.26758,12.80469 h 24.88867 l 1.08399,3.25 h -25.1603 c -0.59888,0 -1.16344,0.0505 -1.69922,0.14257 l -4.68555,-14.05468 -25.71679,-0.004 -2.84375,8.53125 -21.21875,0.004 -2.84375,-8.53516 h -42.66797 l -5.68945,-17.07031 -19.52344,0.0273 2.05078,-6.34179 c 0.31179,-0.97876 0.96992,-1.46876 1.97461,-1.46876 h 4.9668 l 1.88281,5.65235 h 10.78125 l 7.82422,-23.46485 39.10742,-0.004 1.43164,-4.25391 z m -22.36523,4.25781 h 6.30664 l 1.15234,3.45703 c -3.33464,0.34257 -5.57151,2.23377 -6.6914,5.70118 l -5.29883,16.4414 h -17.49219 l -1.41992,-4.26562 h -5.66406 l 0.66992,-2.05078 c 0.31461,-0.97876 0.97845,-1.46876 1.99218,-1.46876 h 4.5586 l 1.88281,5.65235 h 11.4707 z m -243.398441,4.28125 c 1.740491,0 3.128907,1.38648 3.128907,3.12696 0,1.7405 -1.388416,3.1289 -3.128907,3.1289 -1.74049,0 -3.128906,-1.3884 -3.128906,-3.1289 0,-1.74048 1.388416,-3.12696 3.128906,-3.12696 z m 79.544921,3.4082 h 23.4668 c 0.75312,0.0676 1.1289,0.3892 1.1289,0.9629 0,0.13496 -0.0332,0.30332 -0.10156,0.50586 l -1.38672,4.35351 c -0.30811,0.94501 -0.95841,1.41797 -1.95117,1.41797 h -23.4668 c -0.71891,0 -1.07812,-0.30461 -1.07812,-0.91211 0,-0.13497 0.0332,-0.30332 0.10156,-0.50586 l 1.38672,-4.35351 c 0.3081,-0.97876 0.94186,-1.46876 1.90039,-1.46876 z m 58.92383,0 h 23.74805 c 0.72752,0 1.09179,0.28758 1.09179,0.86133 0,0.20251 -0.0362,0.40493 -0.10547,0.60743 l -1.40234,4.35351 c -0.31179,0.94501 -0.95183,1.41797 -1.92187,1.41797 h -23.75 c -0.76217,0 -1.14258,-0.28758 -1.14258,-0.86133 0,-0.16875 0.0343,-0.35413 0.10351,-0.55664 l 1.4043,-4.35351 c 0.31179,-0.97876 0.96992,-1.46876 1.97461,-1.46876 z m 57.82617,0 h 23.96094 c 0.73408,0 1.10156,0.28758 1.10156,0.86133 0,0.20251 -0.0337,0.40493 -0.10351,0.60743 l -1.41602,4.35351 c -0.31461,0.94501 -0.96263,1.41797 -1.94141,1.41797 h -23.96289 c -0.76904,0 -1.15234,-0.28758 -1.15234,-0.86133 0,-0.16875 0.0337,-0.35413 0.10351,-0.55664 l 1.41602,-4.35351 c 0.3146,-0.97876 0.9804,-1.46876 1.99414,-1.46876 z m 58.69141,0 h 23.71484 c 0.7249,0.0676 1.08789,0.3892 1.08789,0.9629 0,0.13496 -0.0345,0.30332 -0.10351,0.50586 l -1.39844,4.35351 c -0.31067,0.94501 -0.96772,1.41797 -1.96875,1.41797 h -23.66211 c -0.72489,0 -1.08789,-0.30461 -1.08789,-0.91211 0,-0.13497 0.0345,-0.30332 0.10351,-0.50586 l 1.39844,-4.35351 c 0.31067,-0.97876 0.9495,-1.46876 1.91602,-1.46876 z m -254.986331,9.39063 c 1.740502,0 3.128907,1.38839 3.128907,3.12891 0,1.74048 -1.388416,3.12695 -3.128907,3.12695 -1.74048,0 -3.128906,-1.38647 -3.128906,-3.12695 0,-1.74052 1.388416,-3.12891 3.128906,-3.12891 z m 213.595701,6.38672 h 4.82032 l 1.42187,4.26758 h 18.3418 l -0.6875,2.13281 h -18.96094 l -1.42383,-4.26758 h -4.20703 z m -40.6914,4.26758 5.68945,17.0664 h 42.66601 l 2.84376,8.53516 24.29492,-0.004 2.84375,-8.53125 22.64062,0.004 4.18945,12.5625 c -0.60386,0.2945 -1.15094,0.67164 -1.64062,1.13281 l -3.85742,-11.5664 h -20.02344 l -3.2168,9.65039 H 251.25 l -3.16016,-9.65039 h -20.33007 v 9.65039 h -2.12696 l -0.004,-9.65039 h -20.21094 l -5.68945,-17.06641 h -16.47071 l -1.42187,4.26758 h -12.67969 l -0.59766,-1.8418 h 9.36914 c 0.51966,0 1.05702,-0.11727 1.61133,-0.35352 1.14326,-0.4725 1.90407,-1.31623 2.28516,-2.53124 l 0.5332,-1.64649 z m 39.30078,0 h 3.36523 l 1.42383,4.26562 h 19.81055 l -3.35743,10.41797 c -0.034,0.0997 -0.0335,0.16668 -0.0508,0.25 h -2.06445 l -2.84375,-8.5332 h -24.17969 l -0.61328,-1.8418 h 4.0293 c 0.52434,0 1.0657,-0.11727 1.625,-0.35352 1.15355,-0.4725 1.92407,-1.31623 2.30859,-2.53124 z m -212.205081,2.14453 c 1.740491,0 3.128907,1.39038 3.128907,3.13086 0,1.7405 -1.388416,3.1289 -3.128907,3.1289 -1.74049,0 -3.128906,-1.3884 -3.128906,-3.1289 0,-1.74048 1.388416,-3.13086 3.128906,-3.13086 z m 185.205081,2.41406 h 16.24023 l 1.32617,3.97461 h 24.17774 l 2.84375,8.5332 h 5.03711 v -0.91406 h 5.55468 c 0.96653,0 1.60536,-0.49 1.91602,-1.46875 l 2.79688,-8.65625 c 0.31067,-0.97876 0.96576,-1.46875 1.96679,-1.46875 h 0.60547 l 1.32422,3.97461 h 30.57617 l 4.26758,12.79883 h 24.88867 l 2.51172,7.51758 h -2.02148 l -1.79688,-5.38282 h -24.88867 l -4.26758,-12.80468 -31.40234,0.004 -2.84375,8.53321 h -15.5293 l -2.85352,-8.53321 H 215.37305 Z M 28.130859,163.50586 c 1.740491,0 3.128907,1.38841 3.128907,3.12891 0,1.7405 -1.388416,3.1289 -3.128907,3.1289 -1.74049,0 -3.128906,-1.3884 -3.128906,-3.1289 0,-1.7405 1.388416,-3.12891 3.128906,-3.12891 z m 94.087891,6.38867 h 32.5957 l 1.41993,4.26563 h 9.6582 v 3.25 h -0.47266 c -0.90958,0 -1.57434,0.47575 -1.99414,1.42968 l -2.83203,8.79102 c -0.31485,0.95392 -0.96382,1.42969 -1.94336,1.42969 h -23.98047 c -0.76965,0 -1.1543,-0.28999 -1.1543,-0.86914 0,-0.17036 0.0355,-0.35615 0.10547,-0.56055 l 2.83203,-8.79102 c 0.07,-0.20441 0.10547,-0.37348 0.10547,-0.50976 0,-0.61324 -0.36689,-0.91992 -1.10156,-0.91992 h -2.19922 l -1.79492,-5.38282 h -7.9375 l -2.13477,6.40039 h -5.51953 c 0.003,-0.0286 0.0195,-0.0715 0.0195,-0.0976 0,-0.61324 -0.37676,-0.91992 -1.13281,-0.91992 H 78.425781 v -3.25 h 42.369139 z m 107.67383,0 h 16.65039 l 2.52734,7.71875 c -0.50422,0.11885 -1.02188,0.28698 -1.55664,0.51172 -2.23538,0.95393 -3.74806,2.65837 -4.53906,5.11133 l -5.62305,17.52734 c -0.17194,0.54511 -0.25781,1.1919 -0.25781,1.94141 0,2.58922 1.44517,3.88476 4.33398,3.88476 h 4.67188 l -15.46875,28.77344 C 228.1166,234.17954 225.31995,233.5 222.36133,233.5 c -1.36096,0 -2.68774,0.14169 -3.97071,0.4082 l -7.26171,-27.31836 h 7.94921 c 1.05008,0 2.13579,-0.23788 3.25586,-0.71484 2.34516,-0.98799 3.90183,-2.69243 4.67188,-5.11133 l 5.66992,-17.52734 c 0.17501,-0.54512 0.26367,-1.19385 0.26367,-1.94336 0,-2.15928 -1.0264,-3.40317 -3.04687,-3.76172 z m 52.32617,0 h 16.94922 l 3.85156,11.54492 c -0.2867,0.54924 -0.54844,1.13477 -0.75781,1.79688 l -3.87695,12.27148 -0.93555,-1.40429 v -3.7793 l 2.83984,-8.52344 0.006,-2.46484 -2.42773,-7.3086 h -14.3418 l -1.79297,5.38282 h -2.01953 z m -157.15625,4.26563 h 4.86133 l 1.08594,3.25 h -1.58789 c -0.97955,0 -1.62656,0.47575 -1.94141,1.42968 l -7.13672,21.92383 c -0.17492,0.54511 -0.26172,1.1919 -0.26172,1.94141 0,2.58922 1.46957,3.88476 4.4082,3.88476 h 2.7793 l -7.35742,12.37305 -15.80859,-12.38086 c 1.92364,-0.0396 3.19313,-1.00479 3.79882,-2.90625 l 3.71094,-11.70117 c 0.10311,-0.34068 0.1543,-0.68274 0.1543,-1.02344 0,-1.26054 -0.7207,-1.89062 -2.16406,-1.89062 H 75.734375 c -0.756053,0 -1.132813,-0.28999 -1.132813,-0.86914 0,-0.17036 0.03482,-0.35615 0.103516,-0.56055 l 1.390625,-4.39453 c 0.309291,-0.988 0.962377,-1.48242 1.958985,-1.48242 h 35.310542 c 0.90184,0 1.50668,-0.41222 1.84571,-1.19336 h 7.71875 z m 160,0 h 11.26367 l 1.83399,5.51953 -0.004,1.77148 -2.83984,8.52735 V 194.75 l 2.24414,3.36719 -2.20703,6.99023 c -0.0683,0.20442 -0.10352,0.39216 -0.10352,0.5625 0,0.24287 0.0732,0.42363 0.18555,0.57031 l -24.44141,15.22071 -6.24805,-14.8711 h 0.25586 c 0.51587,0 1.04936,-0.11894 1.59961,-0.35742 1.13488,-0.47695 1.89122,-1.33015 2.26953,-2.55664 l 3.25,-10.2207 c 0.30952,-0.988 0.96165,-1.48047 1.95899,-1.48047 h 10.31836 c 0.51587,0 1.04936,-0.11894 1.59961,-0.35742 1.13489,-0.47696 1.89123,-1.33016 2.26953,-2.55664 l 1.85742,-5.82422 c 0.17195,-0.54512 0.25781,-1.19385 0.25781,-1.94336 0,-2.58922 -1.42878,-3.88281 -4.2832,-3.88281 h -2.12109 z m -256.931641,2.14648 c 1.740491,0 3.128907,1.38842 3.128907,3.12891 0,1.74048 -1.388416,3.1289 -3.128907,3.1289 -1.74049,0 -3.128906,-1.38842 -3.128906,-3.1289 0,-1.74049 1.388416,-3.12891 3.128906,-3.12891 z m 153.470701,3.1875 h 4.28321 l -6.91993,21.26953 c -0.175,0.54511 -0.26172,1.1919 -0.26172,1.94141 0,2.58922 1.46998,3.88476 4.41016,3.88476 h 13.32813 l -16.04297,20.5918 -17.38086,-10.17969 c 0.0286,-0.0664 0.0703,-0.11994 0.0937,-0.1914 l 5.1914,-15.98438 h 6.36524 z m 14.06055,2.25977 h 23.99414 c 0.73505,0 1.10156,0.28998 1.10156,0.86914 0,0.20441 -0.0355,0.40886 -0.10547,0.61328 l -1.41601,4.39453 c -0.31502,0.95392 -0.96329,1.42969 -1.94336,1.42969 h -23.99414 c -0.77005,0 -1.1543,-0.28999 -1.1543,-0.86914 0,-0.17036 0.0335,-0.35615 0.10352,-0.56055 l 1.41797,-4.39453 c 0.31502,-0.988 0.98102,-1.48242 1.99609,-1.48242 z m 58.09375,0 h 23.57422 c 0.72222,0 1.08398,0.28998 1.08398,0.86914 0,0.20441 -0.0347,0.40886 -0.10351,0.61328 l -1.39258,4.39453 c -0.30953,0.95392 -0.94527,1.42969 -1.9082,1.42969 h -23.57618 c -0.75661,0 -1.13476,-0.28999 -1.13476,-0.86914 0,-0.17036 0.0347,-0.35615 0.10351,-0.56055 l 1.39258,-4.39453 c 0.30952,-0.988 0.96361,-1.48242 1.96094,-1.48242 z m 59.19922,0 h 23.38672 c 0.75052,0 1.125,0.30668 1.125,0.91992 0,0.17034 -0.0333,0.35808 -0.10157,0.5625 l -1.38281,4.39453 c -0.0683,0.2044 -0.10156,0.37349 -0.10156,0.50976 0,0.61325 0.35782,0.91993 1.07422,0.91993 h 3.66211 l -45.11914,48.91015 c -3.37391,-2.79145 -7.6983,-4.4707 -12.41016,-4.4707 -2.30114,0 -4.50153,0.41934 -6.55273,1.1543 l -4.70508,-11.20313 27.08008,-16.86133 h 3.29882 c 0.95522,0 1.58751,-0.49443 1.89454,-1.48242 l 6.95898,-21.87109 c 0.30703,-0.988 0.93739,-1.48242 1.89258,-1.48242 z m -284.824221,7.35156 c 1.740491,0 3.128907,1.38841 3.128907,3.12891 0,1.7405 -1.388416,3.13085 -3.128907,3.13085 -1.74049,0 -3.128906,-1.39035 -3.128906,-3.13085 0,-1.7405 1.388416,-3.12891 3.128906,-3.12891 z m 0,12.80078 c 1.740491,0 3.128907,1.38842 3.128907,3.12891 0,1.74048 -1.388416,3.12695 -3.128907,3.12695 -1.74049,0 -3.128906,-1.38647 -3.128906,-3.12695 0,-1.74049 1.388416,-3.12891 3.128906,-3.12891 z m 41.949219,4.68359 h 30.572262 l 18.16016,14.22266 -8.87305,14.91797 c -2.70186,-1.41809 -5.76948,-2.23047 -9.02734,-2.23047 -3.737477,0 -7.220364,1.07423 -10.189454,2.9043 z m 59.671872,0 h 23.17969 c 0.76964,0 1.1543,0.30669 1.1543,0.91993 0,0.17035 -0.0355,0.35809 -0.10547,0.5625 l -2.83399,8.73828 c -0.07,0.20441 -0.10351,0.40888 -0.10351,0.61328 0,0.57917 0.36689,0.86914 1.10156,0.86914 h 2.33008 l 2.75586,15.72851 c -4.03949,0.93818 -7.59564,3.13009 -10.24219,6.14844 l -25.38281,-19.88086 z m 69.39453,0 h 9.77344 l 7.41211,27.875 c -4.21968,1.37636 -7.80945,4.15039 -10.21875,7.7793 l -23.85742,-13.97266 z m 49.375,0 h 13.91016 l 6.72852,16.01172 -30.85352,19.21094 c -1.53832,-2.18643 -3.51371,-4.03557 -5.79883,-5.43555 z m -91.88086,11.70313 h 4.35743 l 18.07617,10.58789 -6.32422,8.11719 C 169.59399,234.79934 165.76706,233.5 161.63672,233.5 c -0.78138,0 -1.5471,0.0587 -2.30469,0.14844 z m -36.13476,3.84375 25.16211,19.70703 c -2.2167,3.16403 -3.5293,7.00548 -3.5293,11.1543 0,7.23573 3.96915,13.54754 9.83594,16.91211 l -1.13477,2.26562 -31.51172,-12.83203 c 0.68875,-1.99283 1.08204,-4.1214 1.08204,-6.3457 0,-6.7328 -3.42973,-12.67703 -8.63282,-16.18164 z m 149.49023,2.45703 4.57618,10.88867 c -6.49079,3.16838 -10.98243,9.81845 -10.98243,17.51563 0,2.20884 0.38484,4.3237 1.06446,6.30468 l -31.8125,12.86719 -1.03321,-2.1289 c 5.9874,-3.33152 10.05078,-9.7173 10.05079,-17.04297 0,-3.39978 -0.87862,-6.59547 -2.41407,-9.38086 z m -89.0625,5.375 24.10547,14.11719 c -1.38119,2.67425 -2.17578,5.69988 -2.17578,8.91211 0,3.64452 1.02463,7.04591 2.77149,9.96679 l -13.79688,9.28125 -13.52344,-9.19726 c 1.77805,-2.93938 2.82032,-6.37121 2.82032,-10.05078 0,-5.85695 -2.6068,-11.10482 -6.70704,-14.68164 z m -80.02148,6.0918 c 9.36942,0 16.9375,7.56807 16.9375,16.9375 0,9.36942 -7.56808,16.9375 -16.9375,16.9375 -9.369419,0 -16.937501,-7.56808 -16.937501,-16.9375 0,-9.36943 7.568082,-16.9375 16.937501,-16.9375 z m 60.72461,0 c 9.36942,0 16.9375,7.56807 16.9375,16.9375 0,9.36942 -7.56808,16.9375 -16.9375,16.9375 -9.36942,0 -16.9375,-7.56808 -16.9375,-16.9375 0,-9.36943 7.56808,-16.9375 16.9375,-16.9375 z m 60.72461,0 c 9.36943,0 16.9375,7.56807 16.9375,16.9375 0,9.36942 -7.56807,16.9375 -16.9375,16.9375 -9.36942,0 -16.9375,-7.56808 -16.9375,-16.9375 0,-9.36943 7.56808,-16.9375 16.9375,-16.9375 z m 60.72656,0 c 9.36942,0 16.9375,7.56808 16.9375,16.9375 0,9.36942 -7.56808,16.9375 -16.9375,16.9375 -9.36942,0 -16.9375,-7.56808 -16.9375,-16.9375 0,-9.36942 7.56808,-16.9375 16.9375,-16.9375 z m -17.62891,25.21679 c 0.27327,0.57946 0.57341,1.14282 0.9004,1.68946 l -28.63868,19.26367 -3.94531,-8.13672 z m -146.93945,0.0391 31.36133,12.77148 -4.08203,8.14453 -28.21094,-19.18359 c 0.33886,-0.56016 0.64942,-1.13745 0.93164,-1.73242 z m 149.03125,3.41601 c 1.58741,2.09672 3.58085,3.86291 5.87305,5.17774 l -13.4336,26.81836 c -2.38039,-1.0372 -5.00332,-1.6211 -7.76171,-1.6211 -2.66841,0 -5.21116,0.54153 -7.5293,1.51563 L 238.66016,284.168 Z m -60.72266,0.002 c 1.58715,2.09576 3.57774,3.86141 5.86915,5.17578 l -6.17188,12.32226 -12.78711,-8.69531 z m -90.43945,0.0781 28.44922,19.3457 -6.29883,12.57032 c -2.38035,-1.03715 -5.00144,-1.6211 -7.75976,-1.6211 -2.66843,0 -5.21329,0.54151 -7.53125,1.51563 l -12.88672,-26.58203 c 2.35465,-1.31047 4.39895,-3.10039 6.02734,-5.22852 z m 60.72461,0 12.81836,8.7168 -12.93555,8.70117 -5.91211,-12.18945 c 2.35527,-1.31055 4.40058,-3.09995 6.0293,-5.22852 z M 153.875,270.875 c 2.38078,1.03759 5.00277,1.62109 7.76172,1.62109 2.66907,0 5.21459,-0.54106 7.5332,-1.51562 l 5.23047,10.78515 -21.58008,-8.78515 z m 60.72656,0 c 2.38036,1.03715 5.00144,1.62109 7.75977,1.62109 2.66907,0 5.21459,-0.54106 7.5332,-1.51562 l 0.96485,1.99219 -21.70508,8.78125 z m -22.77148,3.94531 12.85351,8.74219 -12.98047,5.25 -12.87695,-5.24414 z m -39.96875,0.0742 22.45312,9.13867 -13.0039,8.74805 -13.73243,-9.33789 z m 79.93164,0.002 4.13867,8.53711 -13.89648,9.34766 -12.85157,-8.74023 z m -85.17578,10.47266 12.78711,8.69531 -13.08985,8.80664 c -1.58729,-2.0963 -3.57923,-3.8631 -5.87109,-5.17773 z m 60.72461,0 12.78711,8.69531 -5.85157,3.9375 -11.01757,-4.48437 z m -31.19336,0.004 3.94336,8.13476 -11.10742,4.49414 -5.77149,-3.92773 z m 60.72265,0 5.90821,12.18945 c -2.35465,1.31047 -4.39896,3.10039 -6.02735,5.22852 l -12.8164,-8.7168 z m -58.12695,0.46484 10.12305,4.12109 -6.79492,2.74805 z m 25.9707,0.0117 -3.4375,6.86133 -6.74023,-2.74414 z m -13.01367,5.26367 8.61914,3.50977 -1.05664,2.10547 c -2.38035,-1.03715 -5.00144,-1.6211 -7.75976,-1.6211 -2.66907,0 -5.2146,0.54107 -7.53321,1.51563 l -0.96484,-1.99219 z m -30.39648,4.24414 5.30078,3.60547 -18.19922,7.36133 c -0.27275,-0.57822 -0.5722,-1.14001 -0.89844,-1.68555 z m 60.72265,0 13.52344,9.19727 c -0.33836,0.55939 -0.64781,1.13635 -0.92969,1.73047 l -17.96484,-7.31446 z m -19.72656,0.0723 9.8418,4.00586 -5.10352,3.43359 c -1.58714,-2.09576 -3.57969,-3.86141 -5.87109,-5.17578 z m -21.27539,0.002 1.03125,2.13086 c -2.35526,1.31054 -4.40057,3.09995 -6.0293,5.22852 l -4.92187,-3.34766 z m -50.24609,2.23633 c 9.36942,0 16.9375,7.56808 16.9375,16.9375 0,9.36942 -7.56808,16.9375 -16.9375,16.9375 -9.36942,0 -16.9375,-7.56808 -16.9375,-16.9375 0,-9.36942 7.56808,-16.9375 16.9375,-16.9375 z m 60.72461,0 c 9.36941,0 16.9375,7.56808 16.9375,16.9375 0,9.36942 -7.56809,16.9375 -16.9375,16.9375 -9.36942,0 -16.9375,-7.56808 -16.9375,-16.9375 0,-9.36942 7.56808,-16.9375 16.9375,-16.9375 z m 60.72461,0 c 9.36942,0 16.9375,7.56808 16.9375,16.9375 0,9.36942 -7.56808,16.9375 -16.9375,16.9375 -9.36942,0 -16.9375,-7.56808 -16.9375,-16.9375 0,-9.36942 7.56808,-16.9375 16.9375,-16.9375 z"
       transform="matrix(0.93750001,0,0,0.93750001,125.49445,4.0121002)"
       id="path7627"
       inkscape:connector-curvature="0" />
  </g>
</svg>
