<?xml version="1.0" encoding="UTF-8"?>
<svg xmlns="http://www.w3.org/2000/svg" xmlns:xlink="http://www.w3.org/1999/xlink" width="290mm" height="220mm" viewBox="0 9780 290 220" version="1.1"><script xmlns=""/>
<g id="surface889">
<path style="fill:none;stroke-width:0.2;stroke-linecap:butt;stroke-linejoin:miter;stroke:rgb(0%,0%,0%);stroke-opacity:1;stroke-miterlimit:10;" d="M 0 0 L 6 0 M 6 0 C 6.054688 0 6.101562 0.0429688 6.101562 0.101562 M 6.101562 0.101562 L 6.101562 3.101562 C 6.101562 3.046875 6.058594 3 6 3 M 6 3 L 12 3 C 11.945312 3 11.898437 3.042969 11.898437 3.101562 M 11.898437 3.101562 L 11.898438 0.101562 C 11.898438 0.046875 11.941406 0 12 0 M 12 0 L 18 0 M 18 0 C 18.054688 0 18.101562 0.0429688 18.101562 0.101562 M 18.101562 0.101562 L 18.101562 3.101562 C 18.101562 3.046875 18.058594 3 18 3 M 18 3 L 24 3 C 23.945312 3 23.898438 3.042969 23.898438 3.101562 M 23.898438 3.101562 L 23.898438 0.101562 C 23.898438 0.046875 23.941406 0 24 0 M 24 0 L 30 0 M 30 0 C 30.054688 0 30.101563 0.0429688 30.101563 0.101562 M 30.101563 0.101562 L 30.101563 3.101562 C 30.101563 3.046875 30.058594 3 30 3 M 30 3 L 36 3 C 35.945312 3 35.898438 3.042969 35.898438 3.101562 M 35.898438 3.101562 L 35.898438 0.101562 C 35.898438 0.046875 35.941406 0 36 0 M 36 0 L 42 0 M 42 0 C 42.054688 0 42.101562 0.0429688 42.101562 0.101562 M 42.101562 0.101562 L 42.101562 3.101562 C 42.101562 3.046875 42.058594 3 42 3 M 42 3 L 48 3 C 47.945312 3 47.898438 3.042969 47.898438 3.101562 M 47.898438 3.101562 L 47.898438 0.101562 C 47.898438 0.046875 47.941406 0 48 0 M 48 0 L 54 0 M 54 0 C 54.054688 0 54.101562 0.0429688 54.101562 0.101562 M 54.101562 0.101562 L 54.101562 3.101562 C 54.101562 3.046875 54.058594 3 54 3 M 54 3 L 60 3 C 59.945312 3 59.898438 3.042969 59.898438 3.101562 M 59.898438 3.101562 L 59.898438 0.101562 C 59.898438 0.046875 59.941406 0 60 0 M 60 0 L 66 0 M 66 0 C 66.054688 0 66.101562 0.0429688 66.101562 0.101562 M 66.101562 0.101562 L 66.101562 3.101562 C 66.101562 3.046875 66.058594 3 66 3 M 66 3 L 72 3 C 71.945312 3 71.898438 3.042969 71.898438 3.101562 M 71.898438 3.101562 L 71.898438 0.101562 C 71.898438 0.046875 71.941406 0 72 0 M 72 0 L 78 0 M 78 0 C 78.054688 0 78.101562 0.0429688 78.101562 0.101562 M 78.101562 0.101562 L 78.101562 3.101562 C 78.101562 3.046875 78.058594 3 78 3 M 78 3 L 84 3 C 83.945312 3 83.898438 3.042969 83.898438 3.101562 M 83.898438 3.101562 L 83.898438 0.101562 C 83.898438 0.046875 83.941406 0 84 0 M 84 0 L 90 0 M 90 0 C 90.054688 0 90.101562 0.0429688 90.101562 0.101562 M 90.101562 0.101562 L 90.101562 3.101562 C 90.101562 3.046875 90.058594 3 90 3 M 90 3 L 96 3 C 95.945312 3 95.898438 3.042969 95.898438 3.101562 M 95.898438 3.101562 L 95.898438 0.101562 C 95.898438 0.046875 95.941406 0 96 0 M 96 0 L 102 0 M 102 0 C 102.054688 0 102.101562 0.0429688 102.101562 0.101562 M 102.101562 0.101562 L 102.101562 3.101562 C 102.101562 3.046875 102.058594 3 102 3 M 102 3 L 108 3 C 107.945312 3 107.898438 3.042969 107.898438 3.101562 M 107.898438 3.101562 L 107.898438 0.101562 C 107.898438 0.046875 107.941406 0 108 0 M 108 0 L 114 0 M 114 0 C 114.054688 0 114.101562 0.0429688 114.101562 0.101562 M 114.101562 0.101562 L 114.101562 3.101562 M 114.101562 3.101562 L 114.101562 12.601562 M 114.101562 12.601562 C 114.101562 12.546875 114.058594 12.5 114 12.5 M 114 12.5 L 117 12.5 C 117.054688 12.5 117.101562 12.542969 117.101562 12.601562 M 117.101562 12.601562 L 117.101562 18.601562 C 117.101562 18.65625 117.058594 18.703125 117 18.703125 M 117 18.703125 L 114 18.703125 C 114.054688 18.703125 114.101562 18.660156 114.101562 18.601562 M 114.101562 18.601562 L 114.101562 24.601562 M 114.101562 24.601562 C 114.101562 24.546875 114.058594 24.5 114 24.5 M 114 24.5 L 117 24.5 C 117.054688 24.5 117.101562 24.542969 117.101562 24.601562 M 117.101562 24.601562 L 117.101562 30.601562 C 117.101562 30.65625 117.058594 30.703125 117 30.703125 M 117 30.703125 L 114 30.703125 C 114.054688 30.703125 114.101562 30.660156 114.101562 30.601562 M 114.101562 30.601562 L 114.101562 40.101562 M 114.101562 40.101562 C 114.101562 40.15625 114.058594 40.203125 114 40.203125 M 114 40.203125 L 114 40.203125 M 114 40.203125 L -0.00000000000000977 40.203125 M -0.00000000000000977 40.203125 C -0.0546875 40.203125 -0.101563 40.160156 -0.101563 40.101562 M -0.101563 40.101562 L -0.101563 40.101562 M -0.101563 40.101562 L -0.101563 30.601562 M -0.101563 30.601562 C -0.101563 30.65625 -0.0585938 30.703125 -0.00000000000000755 30.703125 M -0.00000000000000755 30.703125 L -3 30.703125 C -3.054688 30.703125 -3.101563 30.660156 -3.101563 30.601562 M -3.101563 30.601562 L -3.101563 24.601562 C -3.101563 24.546875 -3.058594 24.5 -3 24.5 M -3 24.5 L -0.000000000000006217 24.5 C -0.0546875 24.5 -0.101563 24.542969 -0.101563 24.601562 M -0.101563 24.601562 L -0.101563 18.601562 M -0.101563 18.601562 C -0.101563 18.65625 -0.0585938 18.703125 -0.000000000000004441 18.703125 M -0.000000000000004441 18.703125 L -3 18.703125 C -3.054688 18.703125 -3.101563 18.660156 -3.101563 18.601562 M -3.101563 18.601562 L -3.101563 12.601562 C -3.101563 12.546875 -3.058594 12.5 -3 12.5 M -3 12.5 L -0.000000000000003109 12.5 C -0.0546875 12.5 -0.101563 12.542969 -0.101563 12.601562 M -0.101563 12.601562 L -0.101563 3.101562 M -0.101563 3.101562 L -0.101562 0.101562 C -0.101562 0.046875 -0.0585938 0 0 0 M 0 0 L 0 0 " transform="matrix(1,0.000000000000000245,0.000000000000000245,-1,3.851562,9999.148438)"/>
<path style="fill:none;stroke-width:0.2;stroke-linecap:butt;stroke-linejoin:miter;stroke:rgb(0%,0%,0%);stroke-opacity:1;stroke-miterlimit:10;" d="M 0 0 L 8 0 M 8 0 C 8.054688 0 8.101562 0.0429688 8.101562 0.101562 M 8.101562 0.101562 L 8.101562 3.101562 C 8.101562 3.046875 8.058594 3 8 3 M 8 3 L 14 3 C 13.945312 3 13.898438 3.042969 13.898438 3.101562 M 13.898438 3.101562 L 13.898438 0.101562 C 13.898438 0.046875 13.941406 0 14 0 M 14 0 L 20 0 M 20 0 C 20.054688 0 20.101562 0.0429688 20.101562 0.101562 M 20.101562 0.101562 L 20.101562 3.101562 C 20.101562 3.046875 20.058594 3 20 3 M 20 3 L 26 3 C 25.945312 3 25.898438 3.042969 25.898438 3.101562 M 25.898438 3.101562 L 25.898438 0.101562 C 25.898438 0.046875 25.941406 0 26 0 M 26 0 L 32 0 M 32 0 C 32.054688 0 32.101562 0.0429688 32.101562 0.101562 M 32.101562 0.101562 L 32.101562 3.101562 C 32.101562 3.046875 32.058594 3 32 3 M 32 3 L 38 3 C 37.945312 3 37.898438 3.042969 37.898438 3.101562 M 37.898438 3.101562 L 37.898438 0.101562 C 37.898438 0.046875 37.941406 0 38 0 M 38 0 L 44 0 M 44 0 C 44.054688 0 44.101562 0.0429688 44.101562 0.101562 M 44.101562 0.101562 L 44.101562 3.101562 C 44.101562 3.046875 44.058594 3 44 3 M 44 3 L 50 3 C 49.945312 3 49.898438 3.042969 49.898438 3.101562 M 49.898438 3.101562 L 49.898438 0.101562 C 49.898438 0.046875 49.941406 0 50 0 M 50 0 L 56 0 M 56 0 C 56.054688 0 56.101562 0.0429688 56.101562 0.101562 M 56.101562 0.101562 L 56.101562 3.101562 C 56.101562 3.046875 56.058594 3 56 3 M 56 3 L 62 3 C 61.945312 3 61.898438 3.042969 61.898438 3.101562 M 61.898438 3.101562 L 61.898438 0.101562 C 61.898438 0.046875 61.941406 0 62 0 M 62 0 L 68 0 M 68 0 C 68.054688 0 68.101562 0.0429688 68.101562 0.101562 M 68.101562 0.101562 L 68.101562 3.101562 C 68.101562 3.046875 68.058594 3 68 3 M 68 3 L 74 3 C 73.945312 3 73.898438 3.042969 73.898438 3.101562 M 73.898438 3.101562 L 73.898438 0.101562 C 73.898438 0.046875 73.941406 0 74 0 M 74 0 L 80 0 M 80 0 C 80.054688 0 80.101562 0.0429688 80.101562 0.101562 M 80.101562 0.101562 L 80.101562 3.101562 C 80.101562 3.046875 80.058594 3 80 3 M 80 3 L 86 3 C 85.945312 3 85.898438 3.042969 85.898438 3.101562 M 85.898438 3.101562 L 85.898438 0.101562 C 85.898438 0.046875 85.941406 0 86 0 M 86 0 L 92 0 M 92 0 C 92.054688 0 92.101562 0.0429688 92.101562 0.101562 M 92.101562 0.101562 L 92.101562 3.101562 C 92.101562 3.046875 92.058594 3 92 3 M 92 3 L 98 3 C 97.945312 3 97.898438 3.042969 97.898438 3.101562 M 97.898438 3.101562 L 97.898438 0.101562 C 97.898438 0.046875 97.941406 0 98 0 M 98 0 L 104 0 M 104 0 C 104.054688 0 104.101562 0.0429688 104.101562 0.101562 M 104.101562 0.101562 L 104.101562 3.101562 C 104.101562 3.046875 104.058594 3 104 3 M 104 3 L 110 3 C 109.945312 3 109.898438 3.042969 109.898438 3.101562 M 109.898438 3.101562 L 109.898438 0.101562 C 109.898438 0.046875 109.941406 0 110 0 M 110 0 L 116 0 M 116 0 C 116.054688 0 116.101562 0.0429688 116.101562 0.101562 M 116.101562 0.101562 L 116.101562 3.101562 C 116.101562 3.046875 116.058594 3 116 3 M 116 3 L 122 3 C 121.945312 3 121.898438 3.042969 121.898438 3.101562 M 121.898438 3.101562 L 121.898438 0.101562 C 121.898438 0.046875 121.941406 0 122 0 M 122 0 L 128 0 M 128 0 C 128.054688 0 128.101562 0.0429688 128.101562 0.101562 M 128.101562 0.101562 L 128.101562 3.101562 C 128.101562 3.046875 128.058594 3 128 3 M 128 3 L 134 3 C 133.945312 3 133.898438 3.042969 133.898438 3.101562 M 133.898438 3.101562 L 133.898438 0.101562 C 133.898438 0.046875 133.941406 0 134 0 M 134 0 L 140 0 M 140 0 C 140.054688 0 140.101562 0.0429688 140.101562 0.101562 M 140.101562 0.101562 L 140.101562 3.101562 C 140.101562 3.046875 140.058594 3 140 3 M 140 3 L 146 3 C 145.945312 3 145.898438 3.042969 145.898438 3.101562 M 145.898438 3.101562 L 145.898438 0.101562 C 145.898438 0.046875 145.941406 0 146 0 M 146 0 L 154 0 M 154 0 L 157 0 C 157.054688 0 157.101562 0.0429688 157.101562 0.101562 M 157.101562 0.101562 L 157.101562 3.101562 M 157.101562 3.101562 L 157.101562 12.601562 M 157.101562 12.601562 C 157.101562 12.65625 157.058594 12.703125 157 12.703125 M 157 12.703125 L 154 12.703125 C 154.054688 12.703125 154.101562 12.660156 154.101562 12.601562 M 154.101562 12.601562 L 154.101562 18.601562 C 154.101562 18.546875 154.058594 18.5 154 18.5 M 154 18.5 L 157 18.5 C 157.054688 18.5 157.101562 18.542969 157.101562 18.601562 M 157.101562 18.601562 L 157.101562 24.601562 M 157.101562 24.601562 C 157.101562 24.65625 157.058594 24.703125 157 24.703125 M 157 24.703125 L 154 24.703125 C 154.054688 24.703125 154.101562 24.660156 154.101562 24.601562 M 154.101562 24.601562 L 154.101562 30.601562 C 154.101562 30.546875 154.058594 30.5 154 30.5 M 154 30.5 L 157 30.5 C 157.054688 30.5 157.101562 30.542969 157.101562 30.601562 M 157.101562 30.601562 L 157.101562 40.101562 M 157.101562 40.101562 C 157.101562 40.15625 157.058594 40.203125 157 40.203125 M 157 40.203125 L 154 40.203125 M 154 40.203125 L 0 40.203125 M 0 40.203125 L -3 40.203125 C -3.054688 40.203125 -3.101562 40.160156 -3.101562 40.101562 M -3.101562 40.101562 L -3.101562 40.101562 M -3.101562 40.101562 L -3.101562 30.601562 M -3.101562 30.601562 C -3.101562 30.546875 -3.058594 30.5 -3 30.5 M -3 30.5 L 0 30.5 C -0.0546875 30.5 -0.101562 30.542969 -0.101562 30.601562 M -0.101562 30.601562 L -0.101562 24.601562 C -0.101562 24.65625 -0.0585938 24.703125 0 24.703125 M 0 24.703125 L -3 24.703125 C -3.054688 24.703125 -3.101562 24.660156 -3.101562 24.601562 M -3.101562 24.601562 L -3.101562 18.601562 M -3.101562 18.601562 C -3.101562 18.546875 -3.058594 18.5 -3 18.5 M -3 18.5 L 0 18.5 C -0.0546875 18.5 -0.101562 18.542969 -0.101562 18.601562 M -0.101562 18.601562 L -0.101562 12.601562 C -0.101562 12.65625 -0.0585938 12.703125 0 12.703125 M 0 12.703125 L -3 12.703125 C -3.054688 12.703125 -3.101562 12.660156 -3.101562 12.601562 M -3.101562 12.601562 L -3.101562 3.101562 M -3.101562 3.101562 L -3.101562 0.101562 C -3.101562 0.046875 -3.058594 0 -3 0 M -3 0 L 0 0 " transform="matrix(1,0.000000000000000245,0.000000000000000245,-1,125.550781,9999.148438)"/>
<path style="fill:none;stroke-width:0.2;stroke-linecap:butt;stroke-linejoin:miter;stroke:rgb(0%,0%,0%);stroke-opacity:1;stroke-miterlimit:10;" d="M 0 0 L 8 0 M 8 0 C 8.054688 0 8.101562 0.0429688 8.101562 0.101562 M 8.101562 0.101562 L 8.101562 3.101562 C 8.101562 3.046875 8.058594 3 8 3 M 8 3 L 14 3 C 13.945312 3 13.898438 3.042969 13.898438 3.101562 M 13.898438 3.101562 L 13.898438 0.101562 C 13.898438 0.046875 13.941406 0 14 0 M 14 0 L 20 0 M 20 0 C 20.054688 0 20.101562 0.0429688 20.101562 0.101562 M 20.101562 0.101562 L 20.101562 3.101562 C 20.101562 3.046875 20.058594 3 20 3 M 20 3 L 26 3 C 25.945312 3 25.898438 3.042969 25.898438 3.101562 M 25.898438 3.101562 L 25.898438 0.101562 C 25.898438 0.046875 25.941406 0 26 0 M 26 0 L 32 0 M 32 0 C 32.054688 0 32.101562 0.0429688 32.101562 0.101562 M 32.101562 0.101562 L 32.101562 3.101562 C 32.101562 3.046875 32.058594 3 32 3 M 32 3 L 38 3 C 37.945312 3 37.898438 3.042969 37.898438 3.101562 M 37.898438 3.101562 L 37.898438 0.101562 C 37.898438 0.046875 37.941406 0 38 0 M 38 0 L 44 0 M 44 0 C 44.054688 0 44.101562 0.0429688 44.101562 0.101562 M 44.101562 0.101562 L 44.101562 3.101562 C 44.101562 3.046875 44.058594 3 44 3 M 44 3 L 50 3 C 49.945312 3 49.898438 3.042969 49.898438 3.101562 M 49.898438 3.101562 L 49.898438 0.101562 C 49.898438 0.046875 49.941406 0 50 0 M 50 0 L 56 0 M 56 0 C 56.054688 0 56.101562 0.0429688 56.101562 0.101562 M 56.101562 0.101562 L 56.101562 3.101562 C 56.101562 3.046875 56.058594 3 56 3 M 56 3 L 62 3 C 61.945312 3 61.898438 3.042969 61.898438 3.101562 M 61.898438 3.101562 L 61.898438 0.101562 C 61.898438 0.046875 61.941406 0 62 0 M 62 0 L 68 0 M 68 0 C 68.054688 0 68.101562 0.0429688 68.101562 0.101562 M 68.101562 0.101562 L 68.101562 3.101562 C 68.101562 3.046875 68.058594 3 68 3 M 68 3 L 74 3 C 73.945312 3 73.898438 3.042969 73.898438 3.101562 M 73.898438 3.101562 L 73.898438 0.101562 C 73.898438 0.046875 73.941406 0 74 0 M 74 0 L 80 0 M 80 0 C 80.054688 0 80.101562 0.0429688 80.101562 0.101562 M 80.101562 0.101562 L 80.101562 3.101562 C 80.101562 3.046875 80.058594 3 80 3 M 80 3 L 86 3 C 85.945312 3 85.898438 3.042969 85.898438 3.101562 M 85.898438 3.101562 L 85.898438 0.101562 C 85.898438 0.046875 85.941406 0 86 0 M 86 0 L 92 0 M 92 0 C 92.054688 0 92.101562 0.0429688 92.101562 0.101562 M 92.101562 0.101562 L 92.101562 3.101562 C 92.101562 3.046875 92.058594 3 92 3 M 92 3 L 98 3 C 97.945312 3 97.898438 3.042969 97.898438 3.101562 M 97.898438 3.101562 L 97.898438 0.101562 C 97.898438 0.046875 97.941406 0 98 0 M 98 0 L 104 0 M 104 0 C 104.054688 0 104.101562 0.0429688 104.101562 0.101562 M 104.101562 0.101562 L 104.101562 3.101562 C 104.101562 3.046875 104.058594 3 104 3 M 104 3 L 110 3 C 109.945312 3 109.898438 3.042969 109.898438 3.101562 M 109.898438 3.101562 L 109.898438 0.101562 C 109.898438 0.046875 109.941406 0 110 0 M 110 0 L 116 0 M 116 0 C 116.054688 0 116.101562 0.0429688 116.101562 0.101562 M 116.101562 0.101562 L 116.101562 3.101562 C 116.101562 3.046875 116.058594 3 116 3 M 116 3 L 122 3 C 121.945312 3 121.898438 3.042969 121.898438 3.101562 M 121.898438 3.101562 L 121.898438 0.101562 C 121.898438 0.046875 121.941406 0 122 0 M 122 0 L 128 0 M 128 0 C 128.054688 0 128.101562 0.0429688 128.101562 0.101562 M 128.101562 0.101562 L 128.101562 3.101562 C 128.101562 3.046875 128.058594 3 128 3 M 128 3 L 134 3 C 133.945312 3 133.898438 3.042969 133.898438 3.101562 M 133.898438 3.101562 L 133.898438 0.101562 C 133.898438 0.046875 133.941406 0 134 0 M 134 0 L 140 0 M 140 0 C 140.054688 0 140.101562 0.0429688 140.101562 0.101562 M 140.101562 0.101562 L 140.101562 3.101562 C 140.101562 3.046875 140.058594 3 140 3 M 140 3 L 146 3 C 145.945312 3 145.898438 3.042969 145.898438 3.101562 M 145.898438 3.101562 L 145.898438 0.101562 C 145.898438 0.046875 145.941406 0 146 0 M 146 0 L 154 0 M 154 0 L 157 0 C 157.054688 0 157.101562 0.0429688 157.101562 0.101562 M 157.101562 0.101562 L 157.101562 3.101562 M 157.101562 3.101562 L 157.101562 12.601562 M 157.101562 12.601562 C 157.101562 12.65625 157.058594 12.703125 157 12.703125 M 157 12.703125 L 154 12.703125 C 154.054688 12.703125 154.101562 12.660156 154.101562 12.601562 M 154.101562 12.601562 L 154.101562 18.601562 C 154.101562 18.546875 154.058594 18.5 154 18.5 M 154 18.5 L 157 18.5 C 157.054688 18.5 157.101562 18.542969 157.101562 18.601562 M 157.101562 18.601562 L 157.101562 24.601562 M 157.101562 24.601562 C 157.101562 24.65625 157.058594 24.703125 157 24.703125 M 157 24.703125 L 154 24.703125 C 154.054688 24.703125 154.101562 24.660156 154.101562 24.601562 M 154.101562 24.601562 L 154.101562 30.601562 C 154.101562 30.546875 154.058594 30.5 154 30.5 M 154 30.5 L 157 30.5 C 157.054688 30.5 157.101562 30.542969 157.101562 30.601562 M 157.101562 30.601562 L 157.101562 40.101562 M 157.101562 40.101562 C 157.101562 40.15625 157.058594 40.203125 157 40.203125 M 157 40.203125 L 154 40.203125 M 154 40.203125 L -0.000000000000014211 40.203125 M -0.000000000000014211 40.203125 L -3 40.203125 C -3.054688 40.203125 -3.101563 40.160156 -3.101563 40.101562 M -3.101563 40.101562 L -3.101563 40.101562 M -3.101563 40.101562 L -3.101563 30.601562 M -3.101563 30.601562 C -3.101563 30.546875 -3.058594 30.5 -3 30.5 M -3 30.5 L -0.000000000000014211 30.5 C -0.0546875 30.5 -0.101563 30.542969 -0.101563 30.601562 M -0.101563 30.601562 L -0.101563 24.601562 C -0.101563 24.65625 -0.0585938 24.703125 -0.000000000000014211 24.703125 M -0.000000000000014211 24.703125 L -3 24.703125 C -3.054688 24.703125 -3.101563 24.660156 -3.101563 24.601562 M -3.101563 24.601562 L -3.101563 18.601562 M -3.101563 18.601562 C -3.101563 18.546875 -3.058594 18.5 -3 18.5 M -3 18.5 L -0.000000000000014211 18.5 C -0.0546875 18.5 -0.101563 18.542969 -0.101563 18.601562 M -0.101563 18.601562 L -0.101563 12.601562 C -0.101563 12.65625 -0.0585938 12.703125 -0.000000000000014211 12.703125 M -0.000000000000014211 12.703125 L -3 12.703125 C -3.054688 12.703125 -3.101563 12.660156 -3.101563 12.601562 M -3.101563 12.601562 L -3.101562 3.101562 M -3.101562 3.101562 L -3.101562 0.101562 C -3.101562 0.046875 -3.058594 0 -3 0 M -3 0 L 0 0 " transform="matrix(1,0.000000000000000245,0.000000000000000245,-1,125.550781,9957.449219)"/>
<path style="fill:none;stroke-width:0.2;stroke-linecap:butt;stroke-linejoin:miter;stroke:rgb(0%,0%,0%);stroke-opacity:1;stroke-miterlimit:10;" d="M 0 0 L 6 0 M 6 0 C 6.054688 0 6.101562 0.0429688 6.101562 0.101562 M 6.101562 0.101562 L 6.101562 3.101562 C 6.101562 3.046875 6.058594 3 6 3 M 6 3 L 12 3 C 11.945312 3 11.898438 3.042969 11.898438 3.101562 M 11.898438 3.101562 L 11.898438 0.101562 C 11.898438 0.046875 11.941406 0 12 0 M 12 0 L 18 0 M 18 0 C 18.054688 0 18.101562 0.0429688 18.101562 0.101562 M 18.101562 0.101562 L 18.101562 3.101562 C 18.101562 3.046875 18.058594 3 18 3 M 18 3 L 24 3 C 23.945312 3 23.898438 3.042969 23.898438 3.101562 M 23.898438 3.101562 L 23.898438 0.101562 C 23.898438 0.046875 23.941406 0 24 0 M 24 0 L 30 0 M 30 0 C 30.054688 0 30.101562 0.0429688 30.101562 0.101562 M 30.101562 0.101562 L 30.101562 3.101562 C 30.101562 3.046875 30.058594 3 30 3 M 30 3 L 36 3 C 35.945312 3 35.898438 3.042969 35.898438 3.101562 M 35.898438 3.101562 L 35.898438 0.101562 C 35.898438 0.046875 35.941406 0 36 0 M 36 0 L 42 0 M 42 0 C 42.054688 0 42.101562 0.0429688 42.101562 0.101562 M 42.101562 0.101562 L 42.101562 3.101562 C 42.101562 3.046875 42.058594 3 42 3 M 42 3 L 48 3 C 47.945312 3 47.898438 3.042969 47.898438 3.101562 M 47.898438 3.101562 L 47.898438 0.101562 C 47.898438 0.046875 47.941406 0 48 0 M 48 0 L 54 0 M 54 0 C 54.054688 0 54.101562 0.0429688 54.101562 0.101562 M 54.101562 0.101562 L 54.101562 3.101562 C 54.101562 3.046875 54.058594 3 54 3 M 54 3 L 60 3 C 59.945312 3 59.898438 3.042969 59.898438 3.101562 M 59.898438 3.101562 L 59.898438 0.101562 C 59.898438 0.046875 59.941406 0 60 0 M 60 0 L 66 0 M 66 0 C 66.054688 0 66.101562 0.0429688 66.101562 0.101562 M 66.101562 0.101562 L 66.101562 3.101562 C 66.101562 3.046875 66.058594 3 66 3 M 66 3 L 72 3 C 71.945312 3 71.898438 3.042969 71.898438 3.101562 M 71.898438 3.101562 L 71.898438 0.101562 C 71.898438 0.046875 71.941406 0 72 0 M 72 0 L 78 0 M 78 0 C 78.054688 0 78.101562 0.0429688 78.101562 0.101562 M 78.101562 0.101562 L 78.101562 3.101562 C 78.101562 3.046875 78.058594 3 78 3 M 78 3 L 84 3 C 83.945312 3 83.898438 3.042969 83.898438 3.101562 M 83.898438 3.101562 L 83.898438 0.101562 C 83.898438 0.046875 83.941406 0 84 0 M 84 0 L 90 0 M 90 0 C 90.054688 0 90.101562 0.0429688 90.101562 0.101562 M 90.101562 0.101562 L 90.101562 3.101562 C 90.101562 3.046875 90.058594 3 90 3 M 90 3 L 96 3 C 95.945312 3 95.898438 3.042969 95.898438 3.101562 M 95.898438 3.101562 L 95.898438 0.101562 C 95.898438 0.046875 95.941406 0 96 0 M 96 0 L 102 0 M 102 0 C 102.054688 0 102.101562 0.0429688 102.101562 0.101562 M 102.101562 0.101562 L 102.101562 3.101562 C 102.101562 3.046875 102.058594 3 102 3 M 102 3 L 108 3 C 107.945312 3 107.898438 3.042969 107.898438 3.101562 M 107.898438 3.101562 L 107.898438 0.101562 C 107.898438 0.046875 107.941406 0 108 0 M 108 0 L 114 0 M 114 0 C 114.054688 0 114.101562 0.0429688 114.101562 0.101562 M 114.101562 0.101562 L 114.101562 3.101562 M 114.101562 3.101562 L 114.101562 12.601562 M 114.101562 12.601562 C 114.101562 12.546875 114.058594 12.5 114 12.5 M 114 12.5 L 117 12.5 C 117.054687 12.5 117.101562 12.542969 117.101562 12.601562 M 117.101562 12.601562 L 117.101562 18.601562 C 117.101562 18.65625 117.058594 18.703125 117 18.703125 M 117 18.703125 L 114 18.703125 C 114.054687 18.703125 114.101562 18.660156 114.101562 18.601562 M 114.101562 18.601562 L 114.101562 24.601562 M 114.101562 24.601562 C 114.101562 24.546875 114.058594 24.5 114 24.5 M 114 24.5 L 117 24.5 C 117.054687 24.5 117.101562 24.542969 117.101562 24.601562 M 117.101562 24.601562 L 117.101562 30.601562 C 117.101562 30.65625 117.058594 30.703125 117 30.703125 M 117 30.703125 L 114 30.703125 C 114.054687 30.703125 114.101562 30.660156 114.101562 30.601562 M 114.101562 30.601562 L 114.101562 40.101562 M 114.101562 40.101562 C 114.101562 40.15625 114.058594 40.203125 114 40.203125 M 114 40.203125 L 114 40.203125 M 114 40.203125 L -0.00000000000000977 40.203125 M -0.00000000000000977 40.203125 C -0.0546875 40.203125 -0.101563 40.160156 -0.101563 40.101562 M -0.101563 40.101562 L -0.101563 40.101562 M -0.101563 40.101562 L -0.101563 30.601562 M -0.101563 30.601562 C -0.101563 30.65625 -0.0585938 30.703125 -0.00000000000000755 30.703125 M -0.00000000000000755 30.703125 L -3 30.703125 C -3.054688 30.703125 -3.101563 30.660156 -3.101563 30.601562 M -3.101563 30.601562 L -3.101563 24.601562 C -3.101563 24.546875 -3.058594 24.5 -3 24.5 M -3 24.5 L -0.000000000000006217 24.5 C -0.0546875 24.5 -0.101563 24.542969 -0.101563 24.601562 M -0.101563 24.601562 L -0.101563 18.601562 M -0.101563 18.601562 C -0.101563 18.65625 -0.0585938 18.703125 -0.000000000000004441 18.703125 M -0.000000000000004441 18.703125 L -3 18.703125 C -3.054688 18.703125 -3.101563 18.660156 -3.101563 18.601562 M -3.101563 18.601562 L -3.101563 12.601562 C -3.101563 12.546875 -3.058594 12.5 -3 12.5 M -3 12.5 L -0.000000000000003109 12.5 C -0.0546875 12.5 -0.101563 12.542969 -0.101563 12.601562 M -0.101563 12.601562 L -0.101563 3.101562 M -0.101563 3.101562 L -0.101562 0.101562 C -0.101562 0.046875 -0.0585938 0 0 0 M 0 0 L 0 0 " transform="matrix(1,0.000000000000000245,0.000000000000000245,-1,3.851562,9957.449219)"/>
<path style="fill:none;stroke-width:0.2;stroke-linecap:butt;stroke-linejoin:miter;stroke:rgb(0%,0%,0%);stroke-opacity:1;stroke-miterlimit:10;" d="M 0 0 L 8 0 M 8 0 C 7.945312 0 7.898438 0.0429688 7.898438 0.101562 M 7.898438 0.101562 L 7.898438 -2.898438 C 7.898438 -2.953125 7.941406 -3 8 -3 M 8 -3 L 14 -3 C 14.054688 -3 14.101563 -2.957031 14.101563 -2.898438 M 14.101563 -2.898438 L 14.101562 0.101562 C 14.101562 0.046875 14.058594 0 14 0 M 14 0 L 20 0 M 20 0 C 19.945312 0 19.898438 0.0429688 19.898438 0.101562 M 19.898438 0.101562 L 19.898438 -2.898438 C 19.898438 -2.953125 19.941406 -3 20 -3 M 20 -3 L 26 -3 C 26.054688 -3 26.101563 -2.957031 26.101563 -2.898438 M 26.101563 -2.898438 L 26.101562 0.101562 C 26.101562 0.046875 26.058594 0 26 0 M 26 0 L 32 0 M 32 0 C 31.945313 0 31.898438 0.0429688 31.898438 0.101562 M 31.898438 0.101562 L 31.898438 -2.898438 C 31.898438 -2.953125 31.941406 -3 32 -3 M 32 -3 L 38 -3 C 38.054688 -3 38.101562 -2.957031 38.101562 -2.898438 M 38.101562 -2.898438 L 38.101562 0.101562 C 38.101562 0.046875 38.058594 0 38 0 M 38 0 L 44 0 M 44 0 C 43.945312 0 43.898438 0.0429688 43.898438 0.101562 M 43.898438 0.101562 L 43.898438 -2.898438 C 43.898438 -2.953125 43.941406 -3 44 -3 M 44 -3 L 50 -3 C 50.054688 -3 50.101562 -2.957031 50.101562 -2.898438 M 50.101562 -2.898438 L 50.101562 0.101562 C 50.101562 0.046875 50.058594 0 50 0 M 50 0 L 56 0 M 56 0 C 55.945312 0 55.898438 0.0429688 55.898438 0.101562 M 55.898438 0.101562 L 55.898438 -2.898438 C 55.898438 -2.953125 55.941406 -3 56 -3 M 56 -3 L 62 -3 C 62.054688 -3 62.101562 -2.957031 62.101562 -2.898438 M 62.101562 -2.898438 L 62.101562 0.101562 C 62.101562 0.046875 62.058594 0 62 0 M 62 0 L 68 0 M 68 0 C 67.945312 0 67.898438 0.0429688 67.898438 0.101562 M 67.898438 0.101562 L 67.898438 -2.898438 C 67.898438 -2.953125 67.941406 -3 68 -3 M 68 -3 L 74 -3 C 74.054688 -3 74.101562 -2.957031 74.101562 -2.898438 M 74.101562 -2.898438 L 74.101562 0.101562 C 74.101562 0.046875 74.058594 0 74 0 M 74 0 L 80 0 M 80 0 C 79.945312 0 79.898438 0.0429688 79.898438 0.101562 M 79.898438 0.101562 L 79.898438 -2.898438 C 79.898438 -2.953125 79.941406 -3 80 -3 M 80 -3 L 86 -3 C 86.054688 -3 86.101562 -2.957031 86.101562 -2.898438 M 86.101562 -2.898438 L 86.101562 0.101562 C 86.101562 0.046875 86.058594 0 86 0 M 86 0 L 92 0 M 92 0 C 91.945312 0 91.898438 0.0429688 91.898438 0.101562 M 91.898438 0.101562 L 91.898438 -2.898438 C 91.898438 -2.953125 91.941406 -3 92 -3 M 92 -3 L 98 -3 C 98.054688 -3 98.101562 -2.957031 98.101562 -2.898438 M 98.101562 -2.898438 L 98.101562 0.101562 C 98.101562 0.046875 98.058594 0 98 0 M 98 0 L 104 0 M 104 0 C 103.945312 0 103.898438 0.0429688 103.898438 0.101562 M 103.898438 0.101562 L 103.898438 -2.898438 C 103.898438 -2.953125 103.941406 -3 104 -3 M 104 -3 L 110 -3 C 110.054688 -3 110.101562 -2.957031 110.101562 -2.898438 M 110.101562 -2.898438 L 110.101562 0.101562 C 110.101562 0.046875 110.058594 0 110 0 M 110 0 L 116 0 M 116 0 C 115.945312 0 115.898438 0.0429688 115.898438 0.101562 M 115.898438 0.101562 L 115.898438 -2.898438 C 115.898438 -2.953125 115.941406 -3 116 -3 M 116 -3 L 122 -3 C 122.054688 -3 122.101562 -2.957031 122.101562 -2.898438 M 122.101562 -2.898438 L 122.101562 0.101562 C 122.101562 0.046875 122.058594 0 122 0 M 122 0 L 128 0 M 128 0 C 127.945312 0 127.898437 0.0429688 127.898437 0.101562 M 127.898437 0.101562 L 127.898437 -2.898438 C 127.898437 -2.953125 127.941406 -3 128 -3 M 128 -3 L 134 -3 C 134.054688 -3 134.101562 -2.957031 134.101562 -2.898438 M 134.101562 -2.898438 L 134.101562 0.101562 C 134.101562 0.046875 134.058594 0 134 0 M 134 0 L 140 0 M 140 0 C 139.945312 0 139.898438 0.0429688 139.898438 0.101562 M 139.898438 0.101562 L 139.898438 -2.898438 C 139.898438 -2.953125 139.941406 -3 140 -3 M 140 -3 L 146 -3 C 146.054688 -3 146.101562 -2.957031 146.101562 -2.898438 M 146.101562 -2.898438 L 146.101562 0.101562 C 146.101562 0.046875 146.058594 0 146 0 M 146 0 L 154 0 M 154 0 C 154.054688 0 154.101562 0.0429688 154.101562 0.101562 M 154.101562 0.101562 L 154.101562 0.101562 M 154.101562 0.101562 L 154.101562 6.101562 M 154.101562 6.101562 C 154.101562 6.046875 154.058594 6 154 6 M 154 6 L 157 6 C 157.054688 6 157.101562 6.042969 157.101562 6.101562 M 157.101562 6.101562 L 157.101562 12.101562 C 157.101562 12.15625 157.058594 12.203125 157 12.203125 M 157 12.203125 L 154 12.203125 C 154.054688 12.203125 154.101562 12.160156 154.101562 12.101562 M 154.101562 12.101562 L 154.101562 18.101562 M 154.101562 18.101562 C 154.101562 18.046875 154.058594 18 154 18 M 154 18 L 157 18 C 157.054688 18 157.101562 18.042969 157.101562 18.101562 M 157.101562 18.101562 L 157.101562 24.101562 C 157.101562 24.15625 157.058594 24.203125 157 24.203125 M 157 24.203125 L 154 24.203125 C 154.054688 24.203125 154.101562 24.160156 154.101562 24.101562 M 154.101562 24.101562 L 154.101562 30.101562 M 154.101562 30.101562 C 154.101562 30.046875 154.058594 30 154 30 M 154 30 L 157 30 C 157.054688 30 157.101562 30.042969 157.101562 30.101562 M 157.101562 30.101562 L 157.101562 36.101562 C 157.101562 36.15625 157.058594 36.203125 157 36.203125 M 157 36.203125 L 154 36.203125 C 154.054688 36.203125 154.101562 36.160156 154.101562 36.101562 M 154.101562 36.101562 L 154.101562 42.101562 M 154.101562 42.101562 C 154.101562 42.046875 154.058594 42 154 42 M 154 42 L 157 42 C 157.054688 42 157.101562 42.042969 157.101562 42.101562 M 157.101562 42.101562 L 157.101562 48.101562 C 157.101562 48.15625 157.058594 48.203125 157 48.203125 M 157 48.203125 L 154 48.203125 C 154.054688 48.203125 154.101562 48.160156 154.101562 48.101562 M 154.101562 48.101562 L 154.101562 54.101562 M 154.101562 54.101562 C 154.101562 54.046875 154.058594 54 154 54 M 154 54 L 157 54 C 157.054688 54 157.101562 54.042969 157.101562 54.101562 M 157.101562 54.101562 L 157.101562 60.101562 C 157.101562 60.15625 157.058594 60.203125 157 60.203125 M 157 60.203125 L 154 60.203125 C 154.054688 60.203125 154.101562 60.160156 154.101562 60.101562 M 154.101562 60.101562 L 154.101562 66.101562 M 154.101562 66.101562 C 154.101562 66.046875 154.058594 66 154 66 M 154 66 L 157 66 C 157.054688 66 157.101562 66.042969 157.101562 66.101562 M 157.101562 66.101562 L 157.101562 72.101562 C 157.101562 72.15625 157.058594 72.203125 157 72.203125 M 157 72.203125 L 154 72.203125 C 154.054688 72.203125 154.101562 72.160156 154.101562 72.101562 M 154.101562 72.101562 L 154.101562 78.101562 M 154.101562 78.101562 C 154.101562 78.046875 154.058594 78 154 78 M 154 78 L 157 78 C 157.054688 78 157.101562 78.042969 157.101562 78.101562 M 157.101562 78.101562 L 157.101562 84.101562 C 157.101562 84.15625 157.058594 84.203125 157 84.203125 M 157 84.203125 L 154 84.203125 C 154.054688 84.203125 154.101562 84.160156 154.101562 84.101562 M 154.101562 84.101562 L 154.101562 90.101562 M 154.101562 90.101562 C 154.101562 90.046875 154.058594 90 154 90 M 154 90 L 157 90 C 157.054688 90 157.101562 90.042969 157.101562 90.101562 M 157.101562 90.101562 L 157.101562 96.101562 C 157.101562 96.15625 157.058594 96.203125 157 96.203125 M 157 96.203125 L 154 96.203125 C 154.054688 96.203125 154.101562 96.160156 154.101562 96.101562 M 154.101562 96.101562 L 154.101562 102.101562 M 154.101562 102.101562 C 154.101562 102.046875 154.058594 102 154 102 M 154 102 L 157 102 C 157.054688 102 157.101562 102.042969 157.101562 102.101562 M 157.101562 102.101562 L 157.101562 108.101562 C 157.101562 108.15625 157.058594 108.203125 157 108.203125 M 157 108.203125 L 154 108.203125 C 154.054687 108.203125 154.101562 108.160156 154.101562 108.101562 M 154.101562 108.101562 L 154.101562 114.101562 M 154.101562 114.101562 C 154.101562 114.15625 154.058594 114.203125 154 114.203125 M 154 114.203125 L 154 114.203125 M 154 114.203125 L 146 114.203125 M 146 114.203125 C 146.054687 114.203125 146.101562 114.160156 146.101562 114.101562 M 146.101562 114.101562 L 146.101562 117.101562 C 146.101562 117.15625 146.058594 117.203125 146 117.203125 M 146 117.203125 L 140 117.203125 C 139.945312 117.203125 139.898437 117.160156 139.898437 117.101562 M 139.898437 117.101562 L 139.898437 114.101562 C 139.898437 114.15625 139.941406 114.203125 140 114.203125 M 140 114.203125 L 134 114.203125 M 134 114.203125 C 134.054687 114.203125 134.101562 114.160156 134.101562 114.101562 M 134.101562 114.101562 L 134.101562 117.101562 C 134.101562 117.15625 134.058594 117.203125 134 117.203125 M 134 117.203125 L 128 117.203125 C 127.945312 117.203125 127.898437 117.160156 127.898437 117.101562 M 127.898437 117.101562 L 127.898437 114.101562 C 127.898437 114.15625 127.941406 114.203125 128 114.203125 M 128 114.203125 L 122 114.203125 M 122 114.203125 C 122.054687 114.203125 122.101562 114.160156 122.101562 114.101562 M 122.101562 114.101562 L 122.101562 117.101562 C 122.101562 117.15625 122.058594 117.203125 122 117.203125 M 122 117.203125 L 116 117.203125 C 115.945312 117.203125 115.898437 117.160156 115.898437 117.101562 M 115.898437 117.101562 L 115.898437 114.101562 C 115.898437 114.15625 115.941406 114.203125 116 114.203125 M 116 114.203125 L 110 114.203125 M 110 114.203125 C 110.054687 114.203125 110.101562 114.160156 110.101562 114.101562 M 110.101562 114.101562 L 110.101562 117.101562 C 110.101562 117.15625 110.058594 117.203125 110 117.203125 M 110 117.203125 L 104 117.203125 C 103.945312 117.203125 103.898437 117.160156 103.898437 117.101562 M 103.898437 117.101562 L 103.898437 114.101562 C 103.898437 114.15625 103.941406 114.203125 104 114.203125 M 104 114.203125 L 98 114.203125 M 98 114.203125 C 98.054687 114.203125 98.101562 114.160156 98.101562 114.101562 M 98.101562 114.101562 L 98.101562 117.101562 C 98.101562 117.15625 98.058594 117.203125 98 117.203125 M 98 117.203125 L 92 117.203125 C 91.945312 117.203125 91.898437 117.160156 91.898437 117.101562 M 91.898437 117.101562 L 91.898437 114.101562 C 91.898437 114.15625 91.941406 114.203125 92 114.203125 M 92 114.203125 L 86 114.203125 M 86 114.203125 C 86.054687 114.203125 86.101562 114.160156 86.101562 114.101562 M 86.101562 114.101562 L 86.101562 117.101562 C 86.101562 117.15625 86.058594 117.203125 86 117.203125 M 86 117.203125 L 80 117.203125 C 79.945312 117.203125 79.898437 117.160156 79.898437 117.101562 M 79.898437 117.101562 L 79.898437 114.101562 C 79.898437 114.15625 79.941406 114.203125 80 114.203125 M 80 114.203125 L 74 114.203125 M 74 114.203125 C 74.054687 114.203125 74.101562 114.160156 74.101562 114.101562 M 74.101562 114.101562 L 74.101562 117.101562 C 74.101562 117.15625 74.058594 117.203125 74 117.203125 M 74 117.203125 L 68 117.203125 C 67.945312 117.203125 67.898437 117.160156 67.898437 117.101562 M 67.898437 117.101562 L 67.898437 114.101562 C 67.898437 114.15625 67.941406 114.203125 68 114.203125 M 68 114.203125 L 62 114.203125 M 62 114.203125 C 62.054687 114.203125 62.101562 114.160156 62.101562 114.101562 M 62.101562 114.101562 L 62.101562 117.101562 C 62.101562 117.15625 62.058594 117.203125 62 117.203125 M 62 117.203125 L 56 117.203125 C 55.945312 117.203125 55.898437 117.160156 55.898437 117.101562 M 55.898437 117.101562 L 55.898437 114.101562 C 55.898437 114.15625 55.941406 114.203125 56 114.203125 M 56 114.203125 L 50 114.203125 M 50 114.203125 C 50.054687 114.203125 50.101562 114.160156 50.101562 114.101562 M 50.101562 114.101562 L 50.101562 117.101562 C 50.101562 117.15625 50.058594 117.203125 50 117.203125 M 50 117.203125 L 44 117.203125 C 43.945312 117.203125 43.898437 117.160156 43.898437 117.101562 M 43.898437 117.101562 L 43.898437 114.101562 C 43.898437 114.15625 43.941406 114.203125 44 114.203125 M 44 114.203125 L 38 114.203125 M 38 114.203125 C 38.054687 114.203125 38.101562 114.160156 38.101562 114.101562 M 38.101562 114.101562 L 38.101562 117.101562 C 38.101562 117.15625 38.058594 117.203125 38 117.203125 M 38 117.203125 L 32 117.203125 C 31.945312 117.203125 31.898437 117.160156 31.898437 117.101562 M 31.898437 117.101562 L 31.898437 114.101562 C 31.898437 114.15625 31.941406 114.203125 32 114.203125 M 32 114.203125 L 26 114.203125 M 26 114.203125 C 26.054687 114.203125 26.101562 114.160156 26.101562 114.101562 M 26.101562 114.101562 L 26.101562 117.101562 C 26.101562 117.15625 26.058594 117.203125 26 117.203125 M 26 117.203125 L 20 117.203125 C 19.945312 117.203125 19.898437 117.160156 19.898437 117.101562 M 19.898437 117.101562 L 19.898437 114.101562 C 19.898437 114.15625 19.941406 114.203125 20 114.203125 M 20 114.203125 L 14 114.203125 M 14 114.203125 C 14.054687 114.203125 14.101562 114.160156 14.101562 114.101562 M 14.101562 114.101562 L 14.101562 117.101562 C 14.101562 117.15625 14.058594 117.203125 14 117.203125 M 14 117.203125 L 8 117.203125 C 7.945312 117.203125 7.898437 117.160156 7.898437 117.101562 M 7.898437 117.101562 L 7.898437 114.101562 C 7.898437 114.15625 7.941406 114.203125 8 114.203125 M 8 114.203125 L -0.000000000000027978 114.203125 M -0.000000000000027978 114.203125 C -0.0546875 114.203125 -0.101563 114.160156 -0.101563 114.101562 M -0.101563 114.101562 L -0.101563 114.101562 M -0.101563 114.101562 L -0.101563 108.101562 M -0.101563 108.101562 C -0.101563 108.15625 -0.0585938 108.203125 -0.000000000000026201 108.203125 M -0.000000000000026201 108.203125 L -3 108.203125 C -3.054688 108.203125 -3.101563 108.160156 -3.101563 108.101562 M -3.101563 108.101562 L -3.101563 102.101562 C -3.101563 102.046875 -3.058594 102 -3 102 M -3 102 L -0.000000000000024869 102 C -0.0546875 102 -0.101563 102.042969 -0.101563 102.101562 M -0.101563 102.101562 L -0.101563 96.101562 M -0.101563 96.101562 C -0.101563 96.15625 -0.0585938 96.203125 -0.000000000000023537 96.203125 M -0.000000000000023537 96.203125 L -3 96.203125 C -3.054688 96.203125 -3.101563 96.160156 -3.101563 96.101562 M -3.101563 96.101562 L -3.101563 90.101562 C -3.101563 90.046875 -3.058594 90 -3 90 M -3 90 L -0.00000000000002176 90 C -0.0546875 90 -0.101563 90.042969 -0.101563 90.101562 M -0.101563 90.101562 L -0.101563 84.101562 M -0.101563 84.101562 C -0.101563 84.15625 -0.0585938 84.203125 -0.000000000000020428 84.203125 M -0.000000000000020428 84.203125 L -3 84.203125 C -3.054688 84.203125 -3.101563 84.160156 -3.101563 84.101562 M -3.101563 84.101562 L -3.101563 78.101562 C -3.101563 78.046875 -3.058594 78 -3 78 M -3 78 L -0.000000000000019096 78 C -0.0546875 78 -0.101563 78.042969 -0.101563 78.101562 M -0.101563 78.101562 L -0.101563 72.101562 M -0.101563 72.101562 C -0.101563 72.15625 -0.0585938 72.203125 -0.000000000000017764 72.203125 M -0.000000000000017764 72.203125 L -3 72.203125 C -3.054688 72.203125 -3.101563 72.160156 -3.101563 72.101562 M -3.101563 72.101562 L -3.101563 66.101562 C -3.101563 66.046875 -3.058594 66 -3 66 M -3 66 L -0.000000000000015987 66 C -0.0546875 66 -0.101563 66.042969 -0.101563 66.101562 M -0.101563 66.101562 L -0.101563 60.101562 M -0.101563 60.101562 C -0.101563 60.15625 -0.0585938 60.203125 -0.000000000000014655 60.203125 M -0.000000000000014655 60.203125 L -3 60.203125 C -3.054688 60.203125 -3.101563 60.160156 -3.101563 60.101562 M -3.101563 60.101562 L -3.101563 54.101562 C -3.101563 54.046875 -3.058594 54 -3 54 M -3 54 L -0.000000000000013323 54 C -0.0546875 54 -0.101563 54.042969 -0.101563 54.101562 M -0.101563 54.101562 L -0.101563 48.101562 M -0.101563 48.101562 C -0.101563 48.15625 -0.0585938 48.203125 -0.000000000000011546 48.203125 M -0.000000000000011546 48.203125 L -3 48.203125 C -3.054688 48.203125 -3.101563 48.160156 -3.101563 48.101562 M -3.101563 48.101562 L -3.101563 42.101562 C -3.101563 42.046875 -3.058594 42 -3 42 M -3 42 L -0.000000000000010214 42 C -0.0546875 42 -0.101563 42.042969 -0.101563 42.101562 M -0.101563 42.101562 L -0.101563 36.101562 M -0.101563 36.101562 C -0.101563 36.15625 -0.0585938 36.203125 -0.000000000000008882 36.203125 M -0.000000000000008882 36.203125 L -3 36.203125 C -3.054688 36.203125 -3.101563 36.160156 -3.101563 36.101562 M -3.101563 36.101562 L -3.101563 30.101562 C -3.101563 30.046875 -3.058594 30 -3 30 M -3 30 L -0.000000000000007105 30 C -0.0546875 30 -0.101563 30.042969 -0.101563 30.101562 M -0.101563 30.101562 L -0.101563 24.101562 M -0.101563 24.101562 C -0.101563 24.15625 -0.0585938 24.203125 -0.000000000000005773 24.203125 M -0.000000000000005773 24.203125 L -3 24.203125 C -3.054688 24.203125 -3.101563 24.160156 -3.101563 24.101562 M -3.101563 24.101562 L -3.101563 18.101562 C -3.101563 18.046875 -3.058594 18 -3 18 M -3 18 L -0.000000000000004441 18 C -0.0546875 18 -0.101563 18.042969 -0.101563 18.101562 M -0.101563 18.101562 L -0.101563 12.101562 M -0.101563 12.101562 C -0.101563 12.15625 -0.0585938 12.203125 -0.000000000000003109 12.203125 M -0.000000000000003109 12.203125 L -3 12.203125 C -3.054688 12.203125 -3.101563 12.160156 -3.101563 12.101562 M -3.101563 12.101562 L -3.101563 6.101562 C -3.101563 6.046875 -3.058594 6 -3 6 M -3 6 L -0.000000000000001332 6 C -0.0546875 6 -0.101563 6.042969 -0.101563 6.101562 M -0.101563 6.101562 L -0.101562 0.101562 M -0.101562 0.101562 C -0.101562 0.046875 -0.0585938 0 0 0 M 0 0 L 0 0 " transform="matrix(1,0.000000000000000245,0.000000000000000245,-1,3.851563,9912.75)"/>
</g>
</svg>