<?xml version="1.0" encoding="UTF-8" standalone="no"?>
<!-- Created with Inkscape (http://www.inkscape.org/) -->

<svg
   xmlns:dc="http://purl.org/dc/elements/1.1/"
   xmlns:cc="http://creativecommons.org/ns#"
   xmlns:rdf="http://www.w3.org/1999/02/22-rdf-syntax-ns#"
   xmlns:svg="http://www.w3.org/2000/svg"
   xmlns="http://www.w3.org/2000/svg"
   xmlns:sodipodi="http://sodipodi.sourceforge.net/DTD/sodipodi-0.dtd"
   xmlns:inkscape="http://www.inkscape.org/namespaces/inkscape"
   version="1.1"
   id="svg2"
   xml:space="preserve"
   width="1152"
   height="1728"
   viewBox="0 0 1152 1728"
   sodipodi:docname="flower.svg"
   inkscape:version="0.92.3 (2405546, 2018-03-11)"><metadata
     id="metadata8"><rdf:RDF><cc:Work
         rdf:about=""><dc:format>image/svg+xml</dc:format><dc:type
           rdf:resource="http://purl.org/dc/dcmitype/StillImage" /><dc:title /></cc:Work></rdf:RDF></metadata><defs
     id="defs6"><clipPath
       clipPathUnits="userSpaceOnUse"
       id="clipPath22"><path
         d="M 0,1296 H 864 V 0 H 0 Z"
         id="path20"
         inkscape:connector-curvature="0" /></clipPath><clipPath
       clipPathUnits="userSpaceOnUse"
       id="clipPath38"><path
         d="M 0,1296 H 864 V 0 H 0 Z"
         id="path36"
         inkscape:connector-curvature="0" /></clipPath></defs><sodipodi:namedview
     pagecolor="#ffffff"
     bordercolor="#666666"
     borderopacity="1"
     objecttolerance="10"
     gridtolerance="10"
     guidetolerance="10"
     inkscape:pageopacity="0"
     inkscape:pageshadow="2"
     inkscape:window-width="3840"
     inkscape:window-height="1532"
     id="namedview4"
     showgrid="false"
     inkscape:zoom="0.77257964"
     inkscape:cx="1015.2447"
     inkscape:cy="1018.4529"
     inkscape:window-x="-5"
     inkscape:window-y="-5"
     inkscape:window-maximized="1"
     inkscape:current-layer="g897" /><g
     id="g10"
     inkscape:groupmode="layer"
     inkscape:label="FLOWER A"
     transform="matrix(1.3333333,0,0,-1.3333333,0,1728)"
     style="display:none"><g
       clip-path="url(#clipPath38)"
       id="g34"
       transform="translate(51.451008,84.457316)"><g
         transform="translate(750.4365,623.0312)"
         id="g40"
         style="stroke-width:0.75;stroke-miterlimit:10;stroke-dasharray:none"><path
           inkscape:connector-curvature="0"
           id="path42"
           style="fill:none;stroke:#231f20;stroke-width:0.75;stroke-linecap:butt;stroke-linejoin:miter;stroke-miterlimit:10;stroke-dasharray:none;stroke-opacity:1"
           d="m 0,0 c 0,0 -10.503,5.252 -22.405,12.604 -11.905,7.351 -51.815,29.057 -88.224,30.807 -36.409,1.75 -77.721,-1.75 -113.079,-39.91 -31.192,-33.663 -51.479,-84.48 -59.675,-118.343 V 30.612 c 150.581,13.659 267.364,111.575 267.364,230.357 0,128.13 -135.881,232 -303.5,232 -167.618,0 -303.5,-103.87 -303.5,-232 0,-119.355 117.911,-217.64 269.542,-230.547 v -145.318 c -8.187,33.864 -28.478,84.715 -59.687,118.397 -35.359,38.16 -76.67,41.66 -113.08,39.91 -36.409,-1.75 -76.319,-23.456 -88.223,-30.807 C -626.37,5.252 -636.873,0 -636.873,0 c 0,0 -2.1,-17.505 0.701,-43.411 2.8,-25.906 22.755,-53.565 30.108,-63.017 7.352,-9.453 30.107,-39.56 100.826,-52.865 70.718,-13.303 107.128,-12.252 130.234,-8.752 11.65,1.766 18.046,3.352 21.527,4.492 v -387.478 h 70.094 v 387.474 c 3.485,-1.14 9.879,-2.724 21.515,-4.488 23.105,-3.5 59.515,-4.551 130.234,8.752 70.718,13.305 93.474,43.412 100.826,52.865 7.352,9.452 27.307,37.111 30.108,63.017 C 2.101,-17.505 0,0 0,0 Z" /></g><g
         transform="translate(468.4072,653.7529)"
         id="g44"
         style="stroke-width:0.75;stroke-miterlimit:10;stroke-dasharray:none"><path
           inkscape:connector-curvature="0"
           id="path46"
           style="fill:none;stroke:#231f20;stroke-width:0.75;stroke-linecap:butt;stroke-linejoin:miter;stroke-miterlimit:10;stroke-dasharray:none;stroke-opacity:1"
           d="m 0,0 c -12.284,-1.157 -24.796,-1.753 -37.49,-1.753 -11.605,0 -23.058,0.498 -34.325,1.468" /></g><g
         transform="translate(659.418,898)"
         id="g48"
         style="stroke-width:0.75;stroke-miterlimit:10;stroke-dasharray:none"><path
           inkscape:connector-curvature="0"
           id="path50"
           style="fill:none;stroke:#231f20;stroke-width:0.75;stroke-linecap:butt;stroke-linejoin:miter;stroke-miterlimit:10;stroke-dasharray:none;stroke-opacity:1"
           d="m 0,0 c 0,-92.784 -101.407,-168 -226.5,-168 -125.093,0 -226.5,75.216 -226.5,168 0,92.784 101.407,168 226.5,168 C -101.407,168 0,92.784 0,0 Z" /></g><g
         transform="translate(573.418,899.5)"
         id="g52"
         style="stroke-width:0.75;stroke-miterlimit:10;stroke-dasharray:none"><path
           inkscape:connector-curvature="0"
           id="path54"
           style="fill:none;stroke:#231f20;stroke-width:0.75;stroke-linecap:butt;stroke-linejoin:miter;stroke-miterlimit:10;stroke-dasharray:none;stroke-opacity:1"
           d="m 0,0 c 0,-56.057 -62.68,-101.5 -140,-101.5 -77.32,0 -140,45.443 -140,101.5 0,56.057 62.68,101.5 140,101.5 C -62.68,101.5 0,56.057 0,0 Z" /></g><g
         transform="translate(381.8999,940.1211)"
         id="g56"
         style="stroke-width:0.75;stroke-miterlimit:10;stroke-dasharray:none"><path
           inkscape:connector-curvature="0"
           id="path58"
           style="fill:none;stroke:#231f20;stroke-width:0.75;stroke-linecap:butt;stroke-linejoin:miter;stroke-miterlimit:10;stroke-dasharray:none;stroke-opacity:1"
           d="m 0,0 c 0,12.079 -7.411,21.87 -16.553,21.87 -9.142,0 -16.553,-9.791 -16.553,-21.87 v -0.003 -2.772 -53.243 -2.773 c 0.001,-12.077 7.412,-21.867 16.553,-21.867 9.141,0 16.552,9.79 16.553,21.867 v 2.773 53.243 2.772 z" /></g><g
         transform="translate(516.1309,940.1211)"
         id="g60"
         style="stroke-width:0.75;stroke-miterlimit:10;stroke-dasharray:none"><path
           inkscape:connector-curvature="0"
           id="path62"
           style="fill:none;stroke:#231f20;stroke-width:0.75;stroke-linecap:butt;stroke-linejoin:miter;stroke-miterlimit:10;stroke-dasharray:none;stroke-opacity:1"
           d="m 0,0 c 0,12.079 -7.412,21.87 -16.553,21.87 -9.142,0 -16.553,-9.791 -16.553,-21.87 v -0.003 -2.772 -53.243 -2.773 c 0.001,-12.077 7.411,-21.867 16.553,-21.867 9.141,0 16.551,9.79 16.553,21.867 v 2.773 53.243 2.772 z" /></g><g
         transform="translate(372.5562,944.4141)"
         id="g64"
         style="stroke-width:0.75;stroke-miterlimit:10;stroke-dasharray:none"><path
           inkscape:connector-curvature="0"
           id="path66"
           style="fill:none;stroke:#231f20;stroke-width:0.75;stroke-linecap:butt;stroke-linejoin:miter;stroke-miterlimit:10;stroke-dasharray:none;stroke-opacity:1"
           d="m 0,0 c 0,-5.714 -3.414,-10.347 -7.625,-10.347 -4.21,0 -7.624,4.633 -7.624,10.347 0,5.714 3.414,10.347 7.624,10.347 C -3.414,10.347 0,5.714 0,0 Z" /></g><g
         transform="translate(506.5254,944.4141)"
         id="g68"
         style="stroke-width:0.75;stroke-miterlimit:10;stroke-dasharray:none"><path
           inkscape:connector-curvature="0"
           id="path70"
           style="fill:none;stroke:#231f20;stroke-width:0.75;stroke-linecap:butt;stroke-linejoin:miter;stroke-miterlimit:10;stroke-dasharray:none;stroke-opacity:1"
           d="m 0,0 c 0,-5.714 -3.413,-10.347 -7.624,-10.347 -4.211,0 -7.625,4.633 -7.625,10.347 0,5.714 3.414,10.347 7.625,10.347 C -3.413,10.347 0,5.714 0,0 Z" /></g><g
         transform="translate(321.2422,90)"
         id="g72"
         style="stroke-width:0.75;stroke-miterlimit:10;stroke-dasharray:none"><path
           inkscape:connector-curvature="0"
           id="path74"
           style="fill:#ffffff;fill-opacity:1;fill-rule:nonzero;stroke:none;stroke-width:0.75;stroke-miterlimit:10;stroke-dasharray:none"
           d="M 0,0 C 0,59.646 -64.471,108 -144,108 -223.529,108 -288,59.646 -288,0 Z" /></g><path
         inkscape:connector-curvature="0"
         id="path80"
         style="fill:none;stroke:#231f20;stroke-width:0.75;stroke-linecap:butt;stroke-linejoin:miter;stroke-miterlimit:10;stroke-dasharray:none;stroke-opacity:1"
         d="m 439.56,207 h -15.12 v 144 h 15.12 z" /><g
         transform="translate(536.6621,93.2383)"
         id="g82"
         style="stroke-width:0.75;stroke-miterlimit:10;stroke-dasharray:none"><path
           inkscape:connector-curvature="0"
           id="path84"
           style="fill:#ffffff;fill-opacity:1;fill-rule:nonzero;stroke:none;stroke-width:0.75;stroke-miterlimit:10;stroke-dasharray:none"
           d="m 0,0 205.732,34.47 44.12,41.63 V 90 h -288 V 0 Z" /></g><g
         transform="rotate(-90,340.48864,54.618615)"
         id="g86"
         style="stroke-width:0.75;stroke-miterlimit:10;stroke-dasharray:none"><path
           inkscape:connector-curvature="0"
           id="path88"
           style="fill:none;stroke:#231f20;stroke-width:0.75;stroke-linecap:butt;stroke-linejoin:miter;stroke-miterlimit:10;stroke-dasharray:none;stroke-opacity:1"
           d="m 0,0 205.732,34.47 44.12,41.63 V 90 h -288 V 0 Z" /></g><g
         transform="translate(433.0586,125.2705)"
         id="g92" /><g
         transform="translate(559.166,125.2705)"
         id="g100" /><path
         style="fill:none;fill-opacity:1;stroke:#231f20;stroke-width:0.75;stroke-miterlimit:10;stroke-dasharray:none;stroke-opacity:1"
         d="m 488.49578,437.46442 c 12.88628,-0.35373 26.27603,-4.09041 38.2545,-10.67566 13.24523,-7.28165 25.25228,-17.97633 35.38523,-31.51753 16.37093,-21.87731 27.01815,-50.03497 30.37538,-80.33036 0.45022,-4.06257 0.6711,-6.83453 0.98377,-12.34703 l 0.0775,-1.36515 h -26.94925 -26.94915 v -7.64485 -7.64484 h 26.94772 26.94773 l -0.0764,-1.42583 c -0.95835,-17.8828 -3.75735,-33.20863 -8.93693,-48.93306 -6.45877,-19.60797 -16.32008,-37.28369 -28.66845,-51.38626 -6.6483,-7.59274 -13.80893,-13.94683 -21.67425,-19.23307 -14.2395,-9.57017 -29.82323,-14.75367 -45.85688,-15.25299 l -2.5605,-0.0797 V 293.5833 437.53854 Z"
         id="path4633"
         inkscape:connector-curvature="0" /></g></g><g
     transform="matrix(1.3333333,0,0,-1.3333333,0,1728)"
     inkscape:label="FLOWER A Kopie"
     inkscape:groupmode="layer"
     id="g897"
     style="display:inline"><g
       transform="translate(801.88751,707.48852)"
       id="g845"
       style="stroke-width:0.75;stroke-miterlimit:10;stroke-dasharray:none;stroke:#000000"><path
         inkscape:connector-curvature="0"
         id="path843"
         style="fill:none;stroke:#000000;stroke-width:0.75;stroke-linecap:butt;stroke-linejoin:miter;stroke-miterlimit:10;stroke-dasharray:none;stroke-opacity:1"
         d="m 0,0 c 0,0 -10.503,5.252 -22.405,12.604 -11.905,7.351 -51.815,29.057 -88.224,30.807 -36.409,1.75 -77.721,-1.75 -113.079,-39.91 -31.192,-33.663 -51.479,-84.48 -59.675,-118.343 V 30.612 c 150.581,13.659 267.364,111.575 267.364,230.357 0,128.13 -135.881,232 -303.5,232 -167.618,0 -303.5,-103.87 -303.5,-232 0,-119.355 117.911,-217.64 269.542,-230.547 v -145.318 c -8.187,33.864 -28.478,84.715 -59.687,118.397 -35.359,38.16 -76.67,41.66 -113.08,39.91 -36.409,-1.75 -76.319,-23.456 -88.223,-30.807 C -626.37,5.252 -636.873,0 -636.873,0 c 0,0 -2.1,-17.505 0.701,-43.411 2.8,-25.906 22.755,-53.565 30.108,-63.017 7.352,-9.453 30.107,-39.56 100.826,-52.865 70.718,-13.303 107.128,-12.252 130.234,-8.752 11.65,1.766 18.046,3.352 21.527,4.492 v -276.478 l 35.047,-170.07752 35.047,170.07752 v 276.474 c 3.485,-1.14 9.879,-2.724 21.515,-4.488 23.105,-3.5 59.515,-4.551 130.234,8.752 70.718,13.305 93.474,43.412 100.826,52.865 7.352,9.452 27.307,37.111 30.108,63.017 C 2.101,-17.505 0,0 0,0 Z"
         sodipodi:nodetypes="ccscccsssccccccccccccccccccsc" /></g><g
       transform="translate(710.86901,982.45732)"
       id="g853"
       style="stroke-width:0.75;stroke-miterlimit:10;stroke-dasharray:none;stroke:#ff0000"><path
         inkscape:connector-curvature="0"
         id="path851"
         style="fill:none;stroke:#ff0000;stroke-width:0.75;stroke-linecap:butt;stroke-linejoin:miter;stroke-miterlimit:10;stroke-dasharray:none;stroke-opacity:1"
         d="m 0,0 c 0,-92.784 -101.407,-168 -226.5,-168 -125.093,0 -226.5,75.216 -226.5,168 0,92.784 101.407,168 226.5,168 C -101.407,168 0,92.784 0,0 Z" /></g><g
       transform="translate(624.86901,983.95732)"
       id="g857"
       style="stroke-width:0.75;stroke-miterlimit:10;stroke-dasharray:none;stroke:#ff0000"><path
         inkscape:connector-curvature="0"
         id="path855"
         style="fill:none;stroke:#ff0000;stroke-width:0.75;stroke-linecap:butt;stroke-linejoin:miter;stroke-miterlimit:10;stroke-dasharray:none;stroke-opacity:1"
         d="m 0,0 c 0,-56.057 -62.68,-101.5 -140,-101.5 -77.32,0 -140,45.443 -140,101.5 0,56.057 62.68,101.5 140,101.5 C -62.68,101.5 0,56.057 0,0 Z" /></g><g
       transform="translate(433.35091,1024.5784)"
       id="g861"
       style="stroke-width:0.75;stroke-miterlimit:10;stroke-dasharray:none;stroke:#ff0000"><path
         inkscape:connector-curvature="0"
         id="path859"
         style="fill:none;stroke:#ff0000;stroke-width:0.75;stroke-linecap:butt;stroke-linejoin:miter;stroke-miterlimit:10;stroke-dasharray:none;stroke-opacity:1"
         d="m 0,0 c 0,12.079 -7.411,21.87 -16.553,21.87 -9.142,0 -16.553,-9.791 -16.553,-21.87 v -0.003 -2.772 -53.243 -2.773 c 0.001,-12.077 7.412,-21.867 16.553,-21.867 9.141,0 16.552,9.79 16.553,21.867 v 2.773 53.243 2.772 z" /></g><g
       transform="translate(567.58191,1024.5784)"
       id="g865"
       style="stroke-width:0.75;stroke-miterlimit:10;stroke-dasharray:none;stroke:#ff0000"><path
         inkscape:connector-curvature="0"
         id="path863"
         style="fill:none;stroke:#ff0000;stroke-width:0.75;stroke-linecap:butt;stroke-linejoin:miter;stroke-miterlimit:10;stroke-dasharray:none;stroke-opacity:1"
         d="m 0,0 c 0,12.079 -7.412,21.87 -16.553,21.87 -9.142,0 -16.553,-9.791 -16.553,-21.87 v -0.003 -2.772 -53.243 -2.773 c 0.001,-12.077 7.411,-21.867 16.553,-21.867 9.141,0 16.551,9.79 16.553,21.867 v 2.773 53.243 2.772 z" /></g><g
       transform="translate(424.00721,1028.8714)"
       id="g869"
       style="stroke-width:0.75;stroke-miterlimit:10;stroke-dasharray:none;stroke:#ff0000"><path
         inkscape:connector-curvature="0"
         id="path867"
         style="fill:none;stroke:#ff0000;stroke-width:0.75;stroke-linecap:butt;stroke-linejoin:miter;stroke-miterlimit:10;stroke-dasharray:none;stroke-opacity:1"
         d="m 0,0 c 0,-5.714 -3.414,-10.347 -7.625,-10.347 -4.21,0 -7.624,4.633 -7.624,10.347 0,5.714 3.414,10.347 7.624,10.347 C -3.414,10.347 0,5.714 0,0 Z" /></g><g
       transform="translate(557.97641,1028.8714)"
       id="g873"
       style="stroke-width:0.75;stroke-miterlimit:10;stroke-dasharray:none;stroke:#ff0000"><path
         inkscape:connector-curvature="0"
         id="path871"
         style="fill:none;stroke:#ff0000;stroke-width:0.75;stroke-linecap:butt;stroke-linejoin:miter;stroke-miterlimit:10;stroke-dasharray:none;stroke-opacity:1"
         d="m 0,0 c 0,-5.714 -3.413,-10.347 -7.624,-10.347 -4.211,0 -7.625,4.633 -7.625,10.347 0,5.714 3.414,10.347 7.625,10.347 C -3.413,10.347 0,5.714 0,0 Z" /></g><g
       transform="translate(484.50961,209.72782)"
       id="g889"
       style="stroke:#000000" /><g
       transform="translate(610.61701,209.72782)"
       id="g891"
       style="stroke:#000000" /></g></svg>